<svg width="144" height="56" viewBox="0 0 144 56" fill="none" xmlns="http://www.w3.org/2000/svg">
<path d="M100.702 0.0262674C96.4272 -0.269377 92.4508 1.99723 88.4744 3.47545C82.9075 5.44641 77.2412 5.93916 71.4754 6.2348C62.7274 6.82609 56.9616 11.1622 52.8858 17.5678C52.687 17.2722 52.4882 17.1736 52.2894 16.9765C50.2018 15.2027 48.4124 13.6259 45.9272 12.4433C41.1555 9.97963 35.5886 9.78253 30.3199 10.0782C21.1742 10.4724 9.64269 18.6519 0.596436 14.7099C0.397614 14.7099 0.198822 14.6114 0 14.6114C7.15748 22.6923 19.3848 17.962 29.0275 18.6519C30.5518 18.7833 32.043 19.0132 33.501 19.3417C34.9921 19.4403 36.4833 19.7359 37.9744 20.1301C39.7638 20.7214 41.2549 21.7069 42.7461 22.7909C45.8278 24.4662 48.6112 26.5357 51.2953 28.8023C53.8799 29.5907 56.9616 27.9154 58.0551 25.6488C58.3202 24.7947 58.6516 24.0063 59.0492 23.2836C60.6398 19.4403 62.5286 16.0896 67.1014 14.7099C68.0955 14.4143 69.189 14.2172 70.2825 14.0201C71.873 13.4288 73.563 12.8375 75.253 12.3448C84.5974 9.68398 95.2343 7.91012 101 0.124822C100.934 0.0591228 100.834 0.0262674 100.702 0.0262674Z" fill="#281203"/>
<path d="M143.901 40C141.623 40 139.742 41.181 137.662 42.0667C134.889 43.1492 132.117 43.5429 129.146 43.9365C124.689 44.4286 121.916 46.7905 119.936 50.1366C119.87 50.0054 119.771 49.907 119.639 49.8414C118.55 49.0541 117.559 48.2667 116.272 47.6763C113.796 46.5937 111.023 46.5937 108.35 46.889C103.695 47.381 97.9514 51.8096 93.2971 50.0382C93.2311 49.9726 93.132 49.9398 93 49.9398C96.8621 53.8763 103.002 51.2192 107.854 51.3176C108.647 51.3176 109.439 51.416 110.132 51.5144C110.924 51.5144 111.617 51.7112 112.509 51.8096C113.4 52.1049 114.192 52.4985 114.984 53.089C116.569 53.7779 118.054 54.762 119.441 55.943C120.728 56.2382 122.313 55.3525 122.808 54.0731C122.907 53.6795 123.105 53.2858 123.204 52.8922C123.996 50.9239 124.887 49.1525 127.165 48.2667C127.627 48.1355 128.122 48.0043 128.65 47.8731C129.509 47.545 130.367 47.217 131.225 46.889C135.88 45.3143 141.227 44.1334 144 40C143.934 40 143.901 40 143.901 40Z" fill="#281203"/>
</svg>
