<svg width="377" height="262" viewBox="0 0 377 262" fill="none" xmlns="http://www.w3.org/2000/svg">
<path d="M80.1485 5.22924C101.794 -1.90761 127.074 7.01345 141.53 24.7004C155.213 5.53954 180.956 -4.00211 203.762 1.58324C226.645 7.09103 245.121 27.4155 248.6 50.6878C260.582 47.197 273.647 46.0334 285.398 50.2224C297.148 54.3338 307.198 64.5736 308.822 76.9855C317.557 75.1238 326.525 73.3396 335.338 74.5807C344.151 75.8219 353.041 80.7867 356.52 89.0096C361.7 101.189 352.577 116.005 340.131 120.505C327.685 125.082 313.692 121.668 301.787 115.85C290.887 129.736 274.343 138.967 256.794 140.829C239.323 142.691 221.156 137.183 207.627 125.935C193.248 142.148 171.602 151.69 150.034 151.302C128.388 150.914 107.129 140.674 93.2906 123.996C78.6024 135.554 44.8194 149.207 29.0488 132.839C22.4004 125.857 20.4678 114.764 24.4104 105.998C14.7471 106.076 5.31564 99.7149 1.68222 90.7162C-1.9512 81.7176 0.445312 70.6245 7.48022 63.9531C21.7047 50.3775 36.9341 59.6865 47.2932 71.8656C47.1385 45.0249 49.6124 14.8485 80.1485 5.22924Z" fill="white"/>
<path d="M248.6 50.6878C260.582 47.197 273.647 46.0334 285.398 50.2224C297.148 54.3338 307.198 64.5736 308.822 76.9855C317.557 75.1238 326.525 73.3396 335.338 74.5807C344.151 75.8219 353.041 80.7867 356.52 89.0096C361.7 101.189 352.577 116.005 340.131 120.505C327.685 125.082 313.692 121.668 301.787 115.85C290.887 129.736 274.343 138.967 256.794 140.829C239.323 142.691 221.156 137.183 207.627 125.935C193.248 142.148 171.602 151.69 150.034 151.302C128.388 150.914 107.129 140.674 93.2906 123.996C78.6024 135.554 44.8194 149.207 29.0488 132.839C22.4004 125.857 20.4678 114.764 24.4104 105.998C14.7471 106.076 5.31564 99.7149 1.68222 90.7162C-1.9512 81.7176 0.445312 70.6245 7.48022 63.9531C21.7047 50.3775 36.9341 59.6865 47.2932 71.8656C47.1385 50.9981 48.6074 28.1913 63.5276 14.5382C62.2134 29.5876 64.8418 45.1801 73.0363 57.7471C82.5451 72.4087 100.171 82.183 117.333 79.7007C124.136 78.6922 130.939 75.7444 135.191 70.3141C140.834 63.2549 140.602 52.9375 146.168 46.0334C150.652 40.5256 158.383 38.0432 164.336 34.7851C157.533 38.5087 154.595 47.3521 156.45 54.9544C158.228 62.4791 164.026 68.6075 170.829 72.3311C180.879 77.9164 193.48 78.6922 203.994 74.1153C214.508 69.4608 222.548 59.3762 224.171 47.9727C226.026 35.5608 220.46 22.9162 211.956 13.7624C207.009 8.33222 200.979 3.91048 194.64 0.109338C197.732 0.367919 200.773 0.859217 203.762 1.58324C226.645 7.09103 245.121 27.4155 248.6 50.6878Z" fill="#F5FBFF"/>
<path d="M93.2906 123.996C78.6024 135.554 44.8194 149.207 29.0488 132.839C22.4004 125.857 20.4678 114.764 24.4104 105.998C14.7471 106.076 5.31564 99.7149 1.68222 90.7162C-1.9512 81.7176 0.445312 70.6245 7.48022 63.9531C6.62985 70.5469 8.09872 76.4425 11.191 82.3382C14.3606 88.2338 20.2359 92.8883 26.8843 93.2762C33.5327 93.7416 40.4903 89.3199 41.9591 82.8036C43.9691 86.6048 42.0363 91.3368 39.4852 94.8277C36.8568 98.3185 33.6099 101.421 32.4503 105.61C30.6723 111.972 34.6149 118.721 40.181 122.211C45.7471 125.625 52.4728 126.4 59.0439 126.633C71.2583 127.176 81.772 128.107 93.2906 123.996Z" fill="#DFF2FD"/>
<path d="M150.034 151.302C171.602 151.69 193.248 142.148 207.627 125.935C221.156 137.183 239.323 142.691 256.794 140.829C274.343 138.967 290.887 129.736 301.787 115.85C313.692 121.668 327.685 125.082 340.131 120.505C352.577 116.005 361.7 101.189 356.52 89.0096C356.056 99.5597 345.156 108.17 334.951 110.963C324.747 113.833 313.847 112.049 303.565 109.644C305.807 103.361 306.271 96.4567 305.034 89.9405C297.071 101.034 287.562 111.894 274.807 116.393C267.231 119.108 259.036 119.419 250.996 119.496C241.178 119.574 231.206 119.419 221.774 116.548C212.42 113.678 203.53 107.627 199.356 98.7064C205.617 112.049 186.445 129.581 177.323 136.097C168.124 142.691 157.687 147.423 147.328 152" fill="#DFF2FD"/>
<path d="M348.1 220.07C345 219.67 342 221.07 339.1 221.87C335 222.97 330.9 222.97 326.7 222.87C320.3 222.77 316 225.57 312.6 229.97C312.466 229.77 312.333 229.637 312.2 229.57C310.8 228.17 309.6 226.87 307.9 225.87C304.6 223.87 300.6 223.37 296.8 223.27C290.2 223.07 281.5 228.27 275.2 224.87C275.066 224.804 274.9 224.77 274.7 224.77C279.4 231.07 288.5 228.37 295.4 229.37C296.467 229.57 297.533 229.804 298.6 230.07C299.6 230.27 300.7 230.57 301.7 230.97C303 231.47 304 232.27 305 233.27C307.1 234.57 309 236.27 310.9 238.07C312.6 238.77 315 237.77 315.9 236.17C316.1 235.57 316.366 235.004 316.7 234.47C318.1 231.77 319.7 229.47 323 228.77C323.8 228.57 324.6 228.47 325.3 228.47C326.6 228.07 327.8 227.77 329 227.57C335.9 226.17 343.7 225.47 348.3 220.17C348.233 220.17 348.166 220.137 348.1 220.07Z" fill="#281203"/>
<path d="M376.9 251.27C375.3 251.17 373.8 251.97 372.4 252.47C370.3 253.07 368.2 253.17 366 253.27C362.8 253.37 360.6 254.97 359 257.27C358.933 257.204 358.867 257.137 358.8 257.07C358.1 256.37 357.4 255.77 356.5 255.27C354.8 254.37 352.7 254.17 350.8 254.27C347.4 254.27 343.1 257.17 339.8 255.67C339.733 255.604 339.667 255.57 339.6 255.57C342.1 258.67 346.7 257.07 350.2 257.37C350.8 257.47 351.3 257.57 351.9 257.67C352.433 257.737 352.967 257.87 353.5 258.07C354.167 258.27 354.767 258.637 355.3 259.17C356.3 259.77 357.4 260.57 358.4 261.47C359.3 261.77 360.4 261.17 360.9 260.37C361 259.97 361.1 259.77 361.3 259.47C361.9 258.07 362.7 256.87 364.3 256.37C364.7 256.237 365.1 256.17 365.5 256.17C366.1 255.97 366.733 255.77 367.4 255.57C370.9 254.77 374.8 254.17 377 251.37L376.9 251.27Z" fill="#281203"/>
</svg>
