<svg width="358" height="149" viewBox="0 0 358 149" fill="none" xmlns="http://www.w3.org/2000/svg">
<path d="M11.9193 91.4645C20.2719 85.5502 31.8162 84.5186 41.0516 88.8512C40.3725 71.1771 44.7185 52.4715 56.9419 39.8176C69.1652 27.1638 90.4882 22.8312 104.613 33.1469C116.633 11.8967 141.147 -1.51363 165.322 0.136869C189.429 1.7186 212.043 18.2236 221.21 40.918C261.004 28.5392 302.02 54.8784 314.855 93.4589C324.973 92.2897 335.702 91.1894 345.005 95.3844C354.309 99.6482 361.1 111.271 356.55 120.555C355.056 123.512 352.543 125.919 349.963 128.051C331.017 143.386 305.28 146.137 281.105 147.925C265.146 149.026 248.916 149.988 233.162 147.031C217.407 144.074 201.856 136.784 191.874 124.062C184.948 134.584 170.891 136.853 158.396 138.091C120.707 141.667 82.2714 144.074 44.8544 137.128C31.952 134.721 15.4504 133.965 5.80756 123.856C-4.92184 112.646 0.442871 99.6483 11.9193 91.4645Z" fill="white"/>
<path d="M314.855 93.4589C324.973 92.2897 335.702 91.1894 345.005 95.3844C354.309 99.6482 361.1 111.271 356.55 120.555C355.056 123.512 352.543 125.919 349.963 128.051C331.017 143.386 305.28 146.137 281.105 147.925C265.146 149.026 248.916 149.988 233.162 147.031C217.407 144.074 201.856 136.784 191.874 124.062C184.948 134.584 170.891 136.853 158.396 138.091C120.707 141.667 82.2714 144.074 44.8544 137.128C31.952 134.721 15.4504 133.965 5.80756 123.856C-4.92184 112.646 0.442871 99.6483 11.9193 91.4645C20.2719 85.5502 31.8162 84.5186 41.0516 88.8512C40.5083 74.6844 43.2246 59.83 50.6265 48.0014C48.5214 55.2223 48.3176 62.8559 50.7623 69.9392C56.2628 85.2064 72.4248 90.7768 86.1421 83.4183C98.0938 77.0227 105.767 63.8187 107.126 50.2021C110.046 76.5413 132.387 99.3731 158.396 102.605C184.404 105.769 211.499 88.9888 220.531 64.0937C222.772 76.9539 230.989 88.5762 242.261 94.9031C253.534 101.161 267.659 101.986 279.543 97.035C285.654 94.4904 291.359 90.2266 293.871 84.0373C297.402 75.3034 293.6 65.3316 288.303 57.5605C286.877 55.5661 285.315 53.5718 283.753 51.715C297.946 61.6867 309.15 76.3349 314.855 93.4589Z" fill="#F5FBFF"/>
<path d="M191.874 124.062C184.948 134.584 170.891 136.853 158.396 138.091C120.707 141.667 82.2714 144.074 44.8544 137.128C31.952 134.721 15.4504 133.965 5.80756 123.856C-4.92184 112.646 0.442871 99.6483 11.9193 91.4645C9.61038 101.986 17.216 112.852 26.8589 117.391C36.5017 121.93 47.5706 121.655 58.1642 121.036C51.1697 116.979 45.9408 109.895 44.0394 101.986C62.5103 120.486 93.6119 124.337 116.021 110.858C119.417 117.735 126.343 121.93 133.338 124.887C152.216 132.865 173.811 133.69 191.874 124.062Z" fill="#DFF2FD"/>
<path d="M356.55 120.555C355.056 123.512 352.543 125.919 349.963 128.051C331.017 143.386 305.28 146.137 281.105 147.925C265.146 149.026 248.916 149.988 233.162 147.031C217.407 144.074 201.856 136.784 191.874 124.062C202.739 119.661 212.993 109.895 217.679 99.0981C215.506 108.038 221.278 117.529 229.155 122.136C237.1 126.675 246.608 127.294 255.707 127.019C274.178 126.331 293.667 121.517 306.094 107.694C301.613 119.661 290.883 128.394 278.999 132.796C267.183 137.197 254.213 137.679 241.65 137.06C245.996 139.948 251.361 140.911 256.522 141.461C289.865 145.243 327.621 137.885 356.55 120.555Z" fill="#DFF2FD"/>
</svg>
