<svg width="399" height="149" viewBox="0 0 399 149" fill="none" xmlns="http://www.w3.org/2000/svg">
<path d="M52.9193 91.4645C61.2719 85.5502 72.8162 84.5186 82.0516 88.8512C81.3725 71.1771 85.7185 52.4715 97.9419 39.8176C110.165 27.1638 131.488 22.8312 145.613 33.1469C157.633 11.8967 182.147 -1.51363 206.322 0.136869C230.429 1.7186 253.043 18.2236 262.21 40.918C302.004 28.5392 343.02 54.8784 355.855 93.4589C365.973 92.2897 376.702 91.1894 386.005 95.3844C395.309 99.6482 402.1 111.271 397.55 120.555C396.056 123.512 393.543 125.919 390.963 128.051C372.017 143.386 346.28 146.137 322.105 147.925C306.146 149.026 289.916 149.988 274.162 147.031C258.407 144.074 242.856 136.784 232.874 124.062C225.948 134.584 211.891 136.853 199.396 138.091C161.707 141.667 123.271 144.074 85.8544 137.128C72.952 134.721 56.4504 133.965 46.8076 123.856C36.0782 112.646 41.4429 99.6483 52.9193 91.4645Z" fill="white"/>
<path d="M355.855 93.4589C365.973 92.2897 376.702 91.1894 386.005 95.3844C395.309 99.6482 402.1 111.271 397.55 120.555C396.056 123.512 393.543 125.919 390.963 128.051C372.017 143.386 346.28 146.137 322.105 147.925C306.146 149.026 289.916 149.988 274.162 147.031C258.407 144.074 242.856 136.784 232.874 124.062C225.948 134.584 211.891 136.853 199.396 138.091C161.707 141.667 123.271 144.074 85.8544 137.128C72.952 134.721 56.4504 133.965 46.8076 123.856C36.0782 112.646 41.4429 99.6483 52.9193 91.4645C61.2719 85.5502 72.8162 84.5186 82.0516 88.8512C81.5083 74.6844 84.2246 59.83 91.6265 48.0014C89.5214 55.2223 89.3176 62.8559 91.7623 69.9392C97.2628 85.2064 113.425 90.7768 127.142 83.4183C139.094 77.0227 146.767 63.8187 148.126 50.2021C151.046 76.5413 173.387 99.3731 199.396 102.605C225.404 105.769 252.499 88.9888 261.531 64.0937C263.772 76.9539 271.989 88.5762 283.261 94.9031C294.534 101.161 308.659 101.986 320.543 97.035C326.654 94.4904 332.359 90.2266 334.871 84.0373C338.402 75.3034 334.6 65.3316 329.303 57.5605C327.877 55.5661 326.315 53.5718 324.753 51.715C338.946 61.6867 350.15 76.3349 355.855 93.4589Z" fill="#F5FBFF"/>
<path d="M232.874 124.062C225.948 134.584 211.891 136.853 199.396 138.091C161.707 141.667 123.271 144.074 85.8544 137.128C72.952 134.721 56.4504 133.965 46.8076 123.856C36.0782 112.646 41.4429 99.6483 52.9193 91.4645C50.6104 101.986 58.216 112.852 67.8589 117.391C77.5017 121.93 88.5706 121.655 99.1642 121.036C92.1697 116.979 86.9408 109.895 85.0394 101.986C103.51 120.486 134.612 124.337 157.021 110.858C160.417 117.735 167.343 121.93 174.338 124.887C193.216 132.865 214.811 133.69 232.874 124.062Z" fill="#DFF2FD"/>
<path d="M397.55 120.555C396.056 123.512 393.543 125.919 390.963 128.051C372.017 143.386 346.28 146.137 322.105 147.925C306.146 149.026 289.916 149.988 274.162 147.031C258.407 144.074 242.856 136.784 232.874 124.062C243.739 119.661 253.993 109.895 258.679 99.0981C256.506 108.038 262.278 117.529 270.155 122.136C278.1 126.675 287.608 127.294 296.707 127.019C315.178 126.331 334.667 121.517 347.094 107.694C342.613 119.661 331.883 128.394 319.999 132.796C308.183 137.197 295.213 137.679 282.65 137.06C286.996 139.948 292.361 140.911 297.522 141.461C330.865 145.243 368.621 137.885 397.55 120.555Z" fill="#DFF2FD"/>
<path d="M100.702 73.0263C96.4272 72.7306 92.4508 74.9972 88.4744 76.4755C82.9075 78.4464 77.2412 78.9392 71.4754 79.2348C62.7274 79.8261 56.9616 84.1622 52.8858 90.5678C52.687 90.2722 52.4882 90.1736 52.2894 89.9765C50.2018 88.2027 48.4124 86.6259 45.9272 85.4433C41.1555 82.9796 35.5886 82.7825 30.3199 83.0782C21.1742 83.4724 9.64269 91.6519 0.596436 87.7099C0.397614 87.7099 0.198822 87.6114 0 87.6114C7.15748 95.6923 19.3848 90.962 29.0275 91.6519C30.5518 91.7833 32.043 92.0132 33.501 92.3417C34.9921 92.4403 36.4833 92.7359 37.9744 93.1301C39.7638 93.7214 41.2549 94.7069 42.7461 95.7909C45.8278 97.4662 48.6112 99.5357 51.2953 101.802C53.8799 102.591 56.9616 100.915 58.0551 98.6488C58.3202 97.7947 58.6516 97.0063 59.0492 96.2836C60.6398 92.4403 62.5286 89.0896 67.1014 87.7099C68.0955 87.4143 69.189 87.2172 70.2825 87.0201C71.873 86.4288 73.563 85.8375 75.253 85.3448C84.5974 82.684 95.2343 80.9101 101 73.1248C100.934 73.0591 100.834 73.0263 100.702 73.0263Z" fill="#281203"/>
<path d="M143.901 113C141.623 113 139.742 114.181 137.662 115.067C134.889 116.149 132.117 116.543 129.146 116.937C124.689 117.429 121.916 119.791 119.936 123.137C119.87 123.005 119.771 122.907 119.639 122.841C118.55 122.054 117.559 121.267 116.272 120.676C113.796 119.594 111.023 119.594 108.35 119.889C103.695 120.381 97.9514 124.81 93.2971 123.038C93.2311 122.973 93.132 122.94 93 122.94C96.8621 126.876 103.002 124.219 107.854 124.318C108.647 124.318 109.439 124.416 110.132 124.514C110.924 124.514 111.617 124.711 112.509 124.81C113.4 125.105 114.192 125.499 114.984 126.089C116.569 126.778 118.054 127.762 119.441 128.943C120.728 129.238 122.313 128.353 122.808 127.073C122.907 126.679 123.105 126.286 123.204 125.892C123.996 123.924 124.887 122.152 127.165 121.267C127.627 121.136 128.122 121.004 128.65 120.873C129.509 120.545 130.367 120.217 131.225 119.889C135.88 118.314 141.227 117.133 144 113C143.934 113 143.901 113 143.901 113Z" fill="#281203"/>
</svg>
