<svg width="318" height="262" viewBox="0 0 318 262" fill="none" xmlns="http://www.w3.org/2000/svg">
<path d="M21.1485 5.22924C42.7944 -1.90761 68.0737 7.01345 82.5301 24.7004C96.2133 5.53954 121.956 -4.00211 144.762 1.58324C167.645 7.09103 186.121 27.4155 189.6 50.6878C201.582 47.197 214.647 46.0334 226.398 50.2224C238.148 54.3338 248.198 64.5736 249.822 76.9855C258.557 75.1238 267.525 73.3396 276.338 74.5807C285.151 75.8219 294.041 80.7867 297.52 89.0096C302.7 101.189 293.577 116.005 281.131 120.505C268.685 125.082 254.692 121.668 242.787 115.85C231.887 129.736 215.343 138.967 197.794 140.829C180.323 142.691 162.156 137.183 148.627 125.935C134.248 142.148 112.602 151.69 91.0338 151.302C69.3879 150.914 48.1286 140.674 34.2906 123.996C19.6024 135.554 -14.1806 149.207 -29.9512 132.839C-36.5996 125.857 -38.5322 114.764 -34.5896 105.998C-44.2529 106.076 -53.6844 99.7149 -57.3178 90.7162C-60.9512 81.7176 -58.5547 70.6245 -51.5198 63.9531C-37.2953 50.3775 -22.0659 59.6865 -11.7068 71.8656C-11.8615 45.0249 -9.38763 14.8485 21.1485 5.22924Z" fill="white"/>
<path d="M189.6 50.6878C201.582 47.197 214.647 46.0334 226.398 50.2224C238.148 54.3338 248.198 64.5736 249.822 76.9855C258.557 75.1238 267.525 73.3396 276.338 74.5807C285.151 75.8219 294.041 80.7867 297.52 89.0096C302.7 101.189 293.577 116.005 281.131 120.505C268.685 125.082 254.692 121.668 242.787 115.85C231.887 129.736 215.343 138.967 197.794 140.829C180.323 142.691 162.156 137.183 148.627 125.935C134.248 142.148 112.602 151.69 91.0338 151.302C69.3879 150.914 48.1286 140.674 34.2906 123.996C19.6024 135.554 -14.1806 149.207 -29.9512 132.839C-36.5996 125.857 -38.5322 114.764 -34.5896 105.998C-44.2529 106.076 -53.6844 99.7149 -57.3178 90.7162C-60.9512 81.7176 -58.5547 70.6245 -51.5198 63.9531C-37.2953 50.3775 -22.0659 59.6865 -11.7068 71.8656C-11.8615 50.9981 -10.3926 28.1913 4.52759 14.5382C3.21338 29.5876 5.84183 45.1801 14.0363 57.7471C23.5451 72.4087 41.171 82.183 58.3331 79.7007C65.1361 78.6922 71.9391 75.7444 76.1909 70.3141C81.8343 63.2549 81.6024 52.9375 87.1685 46.0334C91.6523 40.5256 99.3829 38.0432 105.336 34.7851C98.5325 38.5087 95.5949 47.3521 97.4503 54.9544C99.2283 62.4791 105.026 68.6075 111.829 72.3311C121.879 77.9164 134.48 78.6922 144.994 74.1153C155.508 69.4608 163.548 59.3762 165.171 47.9727C167.026 35.5608 161.46 22.9162 152.956 13.7624C148.009 8.33222 141.979 3.91048 135.64 0.109338C138.732 0.367919 141.773 0.859217 144.762 1.58324C167.645 7.09103 186.121 27.4155 189.6 50.6878Z" fill="#F5FBFF"/>
<path d="M34.2906 123.996C19.6024 135.554 -14.1806 149.207 -29.9512 132.839C-36.5996 125.857 -38.5322 114.764 -34.5896 105.998C-44.2529 106.076 -53.6844 99.7149 -57.3178 90.7162C-60.9512 81.7176 -58.5547 70.6245 -51.5198 63.9531C-52.3701 70.5469 -50.9013 76.4425 -47.809 82.3382C-44.6394 88.2338 -38.7641 92.8883 -32.1157 93.2762C-25.4673 93.7416 -18.5097 89.3199 -17.0409 82.8036C-15.0309 86.6048 -16.9637 91.3368 -19.5148 94.8277C-22.1432 98.3185 -25.3901 101.421 -26.5497 105.61C-28.3277 111.972 -24.3851 118.721 -18.819 122.211C-13.2529 125.625 -6.52722 126.4 0.0438538 126.633C12.2583 127.176 22.772 128.107 34.2906 123.996Z" fill="#DFF2FD"/>
<path d="M91.0338 151.302C112.602 151.69 134.248 142.148 148.627 125.935C162.156 137.183 180.323 142.691 197.794 140.829C215.343 138.967 231.887 129.736 242.787 115.85C254.692 121.668 268.685 125.082 281.131 120.505C293.577 116.005 302.7 101.189 297.52 89.0096C297.056 99.5597 286.156 108.17 275.951 110.963C265.747 113.833 254.847 112.049 244.565 109.644C246.807 103.361 247.271 96.4567 246.034 89.9405C238.071 101.034 228.562 111.894 215.807 116.393C208.231 119.108 200.036 119.419 191.996 119.496C182.178 119.574 172.206 119.419 162.774 116.548C153.42 113.678 144.53 107.627 140.356 98.7064C146.617 112.049 127.445 129.581 118.323 136.097C109.124 142.691 98.6872 147.423 88.3281 152" fill="#DFF2FD"/>
<path d="M289.1 220.07C286 219.67 283 221.07 280.1 221.87C276 222.97 271.9 222.97 267.7 222.87C261.3 222.77 257 225.57 253.6 229.97C253.466 229.77 253.333 229.637 253.2 229.57C251.8 228.17 250.6 226.87 248.9 225.87C245.6 223.87 241.6 223.37 237.8 223.27C231.2 223.07 222.5 228.27 216.2 224.87C216.066 224.804 215.9 224.77 215.7 224.77C220.4 231.07 229.5 228.37 236.4 229.37C237.467 229.57 238.533 229.804 239.6 230.07C240.6 230.27 241.7 230.57 242.7 230.97C244 231.47 245 232.27 246 233.27C248.1 234.57 250 236.27 251.9 238.07C253.6 238.77 256 237.77 256.9 236.17C257.1 235.57 257.366 235.004 257.7 234.47C259.1 231.77 260.7 229.47 264 228.77C264.8 228.57 265.6 228.47 266.3 228.47C267.6 228.07 268.8 227.77 270 227.57C276.9 226.17 284.7 225.47 289.3 220.17C289.233 220.17 289.166 220.137 289.1 220.07Z" fill="#281203"/>
<path d="M317.9 251.27C316.3 251.17 314.8 251.97 313.4 252.47C311.3 253.07 309.2 253.17 307 253.27C303.8 253.37 301.6 254.97 300 257.27C299.933 257.204 299.867 257.137 299.8 257.07C299.1 256.37 298.4 255.77 297.5 255.27C295.8 254.37 293.7 254.17 291.8 254.27C288.4 254.27 284.1 257.17 280.8 255.67C280.733 255.604 280.667 255.57 280.6 255.57C283.1 258.67 287.7 257.07 291.2 257.37C291.8 257.47 292.3 257.57 292.9 257.67C293.433 257.737 293.967 257.87 294.5 258.07C295.167 258.27 295.767 258.637 296.3 259.17C297.3 259.77 298.4 260.57 299.4 261.47C300.3 261.77 301.4 261.17 301.9 260.37C302 259.97 302.1 259.77 302.3 259.47C302.9 258.07 303.7 256.87 305.3 256.37C305.7 256.237 306.1 256.17 306.5 256.17C307.1 255.97 307.733 255.77 308.4 255.57C311.9 254.77 315.8 254.17 318 251.37L317.9 251.27Z" fill="#281203"/>
</svg>
