<svg width="103" height="42" viewBox="0 0 103 42" fill="none" xmlns="http://www.w3.org/2000/svg">
<path d="M74.0998 0.0703906C70.9998 -0.329609 67.9998 1.07039 65.0998 1.87039C60.9998 2.97039 56.8998 2.97039 52.6998 2.87039C46.2998 2.77039 41.9998 5.57039 38.5998 9.97039C38.4665 9.77039 38.3332 9.63706 38.1998 9.57039C36.7998 8.17039 35.5998 6.87039 33.8998 5.87039C30.5998 3.87039 26.5998 3.37039 22.7998 3.27039C16.1998 3.07039 7.49983 8.27039 1.19983 4.87039C1.0665 4.80372 0.899826 4.77039 0.699829 4.77039C5.39983 11.0704 14.4998 8.37039 21.3998 9.37039C22.4665 9.57039 23.5331 9.80372 24.5998 10.0704C25.5998 10.2704 26.6998 10.5704 27.6998 10.9704C28.9998 11.4704 29.9998 12.2704 30.9998 13.2704C33.0998 14.5704 34.9998 16.2704 36.8998 18.0704C38.5998 18.7704 40.9998 17.7704 41.8998 16.1704C42.0998 15.5704 42.3665 15.0037 42.6998 14.4704C44.0998 11.7704 45.6998 9.47039 48.9998 8.77039C49.7998 8.57039 50.5998 8.47039 51.2998 8.47039C52.5998 8.07039 53.7998 7.77039 54.9998 7.57039C61.8998 6.17039 69.6998 5.47039 74.2998 0.170389C74.2331 0.170389 74.1665 0.137057 74.0998 0.0703906Z" fill="#281203"/>
<path d="M102.9 31.2704C101.3 31.1704 99.8 31.9704 98.4 32.4704C96.3 33.0704 94.2 33.1704 92 33.2704C88.8 33.3704 86.6 34.9704 85 37.2704C84.9333 37.2037 84.8667 37.137 84.8 37.0704C84.1 36.3704 83.4 35.7704 82.5 35.2704C80.8 34.3704 78.7 34.1704 76.8 34.2704C73.4 34.2704 69.1 37.1704 65.8 35.6704C65.7333 35.6037 65.6666 35.5704 65.6 35.5704C68.1 38.6704 72.7 37.0704 76.2 37.3704C76.8 37.4704 77.3 37.5704 77.9 37.6704C78.4334 37.7371 78.9667 37.8704 79.5 38.0704C80.1667 38.2704 80.7667 38.6371 81.3 39.1704C82.3 39.7704 83.4 40.5704 84.4 41.4704C85.3 41.7704 86.4 41.1704 86.9 40.3704C87 39.9704 87.1 39.7704 87.3 39.4704C87.9 38.0704 88.7 36.8704 90.3 36.3704C90.7 36.2371 91.1 36.1704 91.5 36.1704C92.1 35.9704 92.7334 35.7704 93.4 35.5704C96.9 34.7704 100.8 34.1704 103 31.3704L102.9 31.2704Z" fill="#281203"/>
</svg>
