<svg width="61" height="62" viewBox="0 0 61 62" fill="none" xmlns="http://www.w3.org/2000/svg">
<g opacity="0.5">
<path d="M7.01357 0L7.04004 9.27273H8.76035L8.78682 12.6234H11.0365V16.8312H11.3541V16.4156H12.4392V22.4156H12.9685L13.1008 61.9221H11.5658L11.4335 17.8182H10.613L10.7453 61.9221H9.92487L9.79254 17.8182H8.73388L8.86621 61.9221H8.07223L7.93989 17.8182H6.88124L7.01357 61.9221H6.21958L6.06079 17.8182H5.00214L5.13447 61.9221H4.34048L4.20815 17.8182H3.1495L3.28183 61.9221H2.48784L2.32904 17.8182H1.27039L1.40272 61.9221H0.132332L0 21.2208V16.8312H1.93205L1.90558 12.6234H3.89055V9.27273H6.00786L5.95492 0H7.01357Z" fill="white"/>
<path fill-rule="evenodd" clip-rule="evenodd" d="M34.7768 24.2338H36.8677L37 62H34.0358L33.9299 20.7273H33.7976L33.9299 62L17.9443 61.974L17.8119 20.7273H17.7061L17.8384 61.974H16.4092L16.3033 28L16.2504 27.4026H16.8856L16.8591 19.948H34.7768V24.2338ZM36.5501 52.026V50.3117H34.9356V52.026H36.5501ZM36.4707 28.987V27.3506H34.8562V28.987H36.4707ZM36.5501 59.7143V58.1039H34.9356V59.7143H36.5501ZM36.4972 44.3377V42.7792H34.8827V44.3377H36.4972ZM36.4707 34.5974V33.039H34.8298L34.8562 34.5974H36.4707ZM36.4707 36.6753V35.1169H34.8298L34.8562 36.6493L36.4707 36.6753ZM36.4707 42.2857V40.7532H34.8562V42.2857H36.4707ZM36.5236 57.6104V56.1299H34.8827L34.9092 57.6104H36.5236ZM36.4178 26.8571V25.3766H34.7768L34.8033 26.8571H36.4178ZM36.4707 49.8182V48.4416H34.8562V49.8182H36.4707ZM24.1374 33.6364V32.3896H22.9729V33.6364H24.1374ZM24.1374 29.1169V27.8701H22.9729V29.1169H24.1374ZM24.1638 35.8961V34.6493H22.9993V35.8961H24.1638ZM24.1374 26.8571V25.6104H22.9729V26.8571H24.1374ZM24.1374 22.3376L24.1109 21.0909H22.9729V22.3376H24.1374ZM21.9671 33.6364V32.3896H20.8026V33.6364H21.9671ZM28.5573 29.1169V27.8701H27.3927V29.1169H28.5573ZM28.5837 33.6364V32.3896H27.4192V33.6364H28.5837ZM21.9671 29.1169V27.8701H20.8026V29.1169H21.9671ZM32.9771 29.1169V27.8701H31.8126V29.1169H32.9771ZM33.0036 33.6364V32.3896H31.8391V33.6364H33.0036ZM24.1903 31.3766V30.1299H23.0258V31.3766H24.1903ZM28.5837 26.8571V25.6104H27.4192V26.8571H28.5837ZM33.0301 35.8961L33.0036 34.6493H31.8655V35.8961H33.0301ZM21.9936 26.8571V25.6104H20.8291V26.8571H21.9936ZM33.0036 26.8571V25.6104H31.8391V26.8571H33.0036ZM22.0201 35.8961V34.6493H20.8556L20.882 35.8961H22.0201ZM28.6102 35.8961V34.6493H27.4457V35.8961H28.6102ZM21.9671 22.3376V21.0909H20.8026V22.3376H21.9671ZM32.9771 22.3376V21.0909H31.8126V22.3376H32.9771ZM28.5837 22.3376V21.0909H27.4192V22.3376H28.5837ZM33.0301 31.3766L33.0036 30.1299H31.8655V31.3766H33.0301ZM28.6102 31.3766V30.1299H27.4457L27.4721 31.3766H28.6102ZM21.9936 31.3766V30.1299H20.8291V31.3766H21.9936ZM28.5837 24.5974V23.3506H27.4192V24.5974H28.5837ZM21.9936 24.5974V23.3506H20.8291V24.5974H21.9936ZM33.0036 24.5974V23.3506H31.8391V24.5974H33.0036ZM24.2432 42.6753V41.4286H23.0787L23.1052 42.6753H24.2432ZM24.2697 56.2338V54.987H23.1052V56.2338H24.2697ZM24.2697 49.4545L24.2432 48.2078H23.1052V49.4545H24.2697ZM24.2432 47.1948V45.948H23.0787L23.1052 47.1948H24.2432ZM24.2168 44.9351V43.6883H23.0523L23.0787 44.9351H24.2168ZM22.0465 56.2338V54.987H20.882V56.2338H22.0465ZM28.6367 56.2338V54.987H27.4721L27.4986 56.2338H28.6367ZM33.0301 56.2338V54.987H31.8655V56.2338H33.0301ZM28.5837 42.6753V41.4286H27.4192V42.6753H28.5837ZM21.9936 42.6753V41.4286H20.8291V42.6753H21.9936ZM33.0036 42.6753V41.4286H31.8391V42.6753H33.0036ZM24.2697 60.7532L24.2432 59.5065H23.1052V60.7532H24.2697ZM24.2432 58.4935V57.2467H23.1052V58.4935H24.2432ZM24.1903 40.4156L24.1638 39.1688H23.0258V40.4156H24.1903ZM24.2168 53.974V52.7273H23.0523L23.0787 53.974H24.2168ZM28.5837 44.9351V43.6883H27.4192V44.9351H28.5837ZM32.9771 44.9351V43.6883H31.8126L31.8391 44.9351H32.9771ZM28.5573 47.1948V45.948H27.3927L27.4192 47.1948H28.5573ZM28.5573 49.4545V48.2078H27.3927V49.4545H28.5573ZM21.9407 47.1948V45.948H20.7762L20.8026 47.1948H21.9407ZM21.9407 49.4545V48.2078H20.7762V49.4545H21.9407ZM21.9142 44.9351V43.6883H20.7762V44.9351H21.9142ZM32.9242 49.4545V48.2078H31.7597V49.4545H32.9242ZM32.9242 47.1948V45.948H31.7597V47.1948H32.9242ZM28.5308 51.7143V50.4675H27.3663V51.7143H28.5308ZM21.9142 40.4156V39.1688H20.7497V40.4156H21.9142ZM32.9771 58.4935V57.2467H31.8126V58.4935H32.9771ZM32.9507 51.7143V50.4675H31.7861V51.7143H32.9507ZM21.9936 60.7532L21.9671 59.5065H20.8291V60.7532H21.9936ZM32.9242 40.4156V39.1688H31.7597V40.4156H32.9242ZM28.5837 58.4935V57.2467H27.4192V58.4935H28.5837ZM33.0036 60.7532V59.5065H31.8391V60.7532H33.0036ZM28.5308 40.4156V39.1688H27.3927V40.4156H28.5308ZM28.5837 60.7532V59.5065H27.4192V60.7532H28.5837ZM21.9671 51.7143V50.4675H20.8026V51.7143H21.9671ZM32.9242 38.1558V36.9091H31.7597V38.1558H32.9242ZM21.9671 53.974V52.7273H20.8026L20.8291 53.974H21.9671ZM32.9507 53.974V52.7273H31.7861L31.8126 53.974H32.9507ZM28.5308 53.974V52.7273H27.3663V53.974H28.5308ZM28.5043 38.1558L28.4779 36.9091H27.3398V38.1558H28.5043ZM21.8877 38.1299V36.9091H20.7232V38.1299H21.8877ZM30.6746 33.6364V32.3896H29.5365V33.6364H30.6746ZM26.2547 29.1169V27.8701H25.0902V29.1169H26.2547ZM19.6646 33.6364V32.3896H18.5001L18.5265 33.6364H19.6646ZM19.6381 29.0909V27.8701H18.4736V29.0909H19.6381ZM26.2547 33.6364V32.3896H25.0902L25.1166 33.6364H26.2547ZM30.6216 26.8571V25.6104H29.4571V26.8571H30.6216ZM19.6646 35.8961V34.6493H18.5001V35.8961H19.6646ZM26.2282 26.8312V25.6104H25.0637L25.0902 26.8312H26.2282ZM19.6116 26.8312V25.6104L18.4471 25.5844V26.8312H19.6116ZM30.6481 35.8961V34.6493H29.4836L29.51 35.8961H30.6481ZM30.5952 22.3117V21.0909L29.4306 21.0649V22.3117H30.5952ZM19.5852 22.3117V21.0649H18.4471V22.3117H19.5852ZM26.1753 22.3117V21.0649H25.0108V22.3117H26.1753ZM30.6216 31.3766V30.1299H29.4571V31.3506L30.6216 31.3766ZM26.2282 31.3766V30.1558H25.0637V31.3766H26.2282ZM30.6216 24.5974L30.5952 23.3506H29.4571V24.5974H30.6216ZM19.6116 24.5974V23.3506H18.4471V24.5974H19.6116ZM26.2282 24.5974V23.3506H25.0637V24.5974H26.2282ZM19.7175 56.2597V55.013H18.5795V56.2597H19.7175ZM26.3076 56.2597V55.013H25.1431V56.2597H26.3076ZM19.6646 42.6753V41.4545H18.5001L18.5265 42.6753H19.6646ZM26.2547 42.6753V41.4545H25.0902V42.6753H26.2547ZM30.6746 42.6753V41.4545H29.51V42.6753H30.6746ZM30.7275 56.2597L30.701 55.013H29.563V56.2597H30.7275ZM26.3076 49.4545V48.2338H25.1431V49.4545H26.3076ZM30.701 49.4545V48.2338H29.5365L29.563 49.4545H30.701ZM30.6746 44.9351V43.7143H29.51V44.9351H30.6746ZM19.691 47.1948V45.974H18.5265V47.1948H19.691ZM26.3076 47.1948L26.2812 45.974H25.1431V47.1948H26.3076ZM26.3076 44.9351L26.2812 43.7143H25.1431V44.9351H26.3076ZM19.7175 49.4545V48.2338H18.553V49.4545H19.7175ZM19.7175 44.9351L19.691 43.6883H18.553V44.9351H19.7175ZM30.701 40.4156V39.1948L29.5365 39.1688V40.4156H30.701ZM19.744 51.7143V50.4935H18.5795V51.7143H19.744ZM26.3076 40.4156V39.1688H25.1431L25.1696 40.4156H26.3076ZM30.754 60.7532V59.5325H29.6159V60.7532H30.754ZM26.3076 51.7143V50.4935H25.1431L25.1696 51.7143H26.3076ZM26.3341 60.7532L26.3076 59.5325H25.1696V60.7532H26.3341ZM19.6646 40.4156V39.1688H18.5001V40.4156H19.6646ZM19.7175 58.4935V57.2727H18.5795V58.4935H19.7175ZM26.3076 58.4935V57.2727H25.1431V58.4935H26.3076ZM19.7175 60.7532V59.5325H18.553L18.5795 60.7532H19.7175ZM19.6381 38.1558V36.9091H18.4736V38.1558H19.6381ZM26.2812 53.974V52.7532H25.1431V53.974H26.2812ZM19.6646 53.974V52.7532H18.5001L18.5265 53.974H19.6646ZM26.2017 38.1558V36.9091H25.0372V38.1558H26.2017ZM30.6746 53.974V52.7532H29.51V53.974H30.6746ZM30.6216 38.1558V36.9091H29.4571V38.1558H30.6216Z" fill="white"/>
<path fill-rule="evenodd" clip-rule="evenodd" d="M54.293 61.9032L54.0651 14.0645L53.0884 14.0968L53.3163 61.9032H50.8093L50.5814 14.0968H49.6372L49.8325 61.9355H47.293L47.0651 17.7742L46.6418 17.8064L46.8372 61.9355H45.5674L45.5349 61.0968C45.3721 60.6774 45.2744 60.5161 45.1767 60.4516C45.155 60.4516 45.1442 60.4516 45.1442 60.4516C45.1225 60.4301 45.1116 60.4194 45.1116 60.4194C44.786 60.4839 44.6232 60.9677 44.5907 61.0645C44.5907 61.086 44.5907 61.0968 44.5907 61.0968V61.9678H43.907V61.0968C43.6791 60.5807 43.5488 60.4516 43.4512 60.4194C43.1581 60.4839 42.9953 60.9677 42.9628 61.0968V61.9678L40 62V61.5161H40.6186V61.2258H40V59.5161H40.586V59.2258H40V57.5161H40.586V57.2258H40V55.5161H40.586V55.2258H40V53.5161H40.586V53.2258H40V51.5161H40.5535V51.2258H40V49.5161H40.5535V49.2258H40V47.5161H40.5535V47.2258H40V45.5161H40.5209V45.2258H40V43.5161H40.5209V43.2258H40V39.5161H40.5209V39.2258H40V37.5161H40.4884V37.2258H40V35.6452H41.107C41.0853 35.4731 41.0744 35.3118 41.0744 35.1613C41.0744 34.9677 41.0853 34.7742 41.107 34.5806C41.107 34.5591 41.107 34.5376 41.107 34.5161C41.107 34.4946 41.1178 34.4624 41.1395 34.4194C41.1395 34.2688 41.1504 34.129 41.1721 34C41.1938 33.957 41.2046 33.914 41.2046 33.871C41.248 33.7204 41.2915 33.5699 41.3349 33.4194C41.3349 33.3979 41.3349 33.3656 41.3349 33.3226C41.3783 33.1936 41.4325 33.0645 41.4977 32.9355C41.5194 32.914 41.5302 32.8817 41.5302 32.8387C41.5953 32.7097 41.6605 32.5914 41.7256 32.4839C41.7256 32.4624 41.7364 32.4516 41.7581 32.4516C41.8232 32.3226 41.8992 32.2043 41.986 32.0968C41.986 32.0753 41.9969 32.0645 42.0186 32.0645C42.0837 31.957 42.1597 31.8602 42.2465 31.7742C42.2465 31.7527 42.2574 31.7419 42.2791 31.7419C42.3659 31.6344 42.4636 31.5376 42.5721 31.4516C42.5938 31.4301 42.6155 31.4086 42.6372 31.3871C42.7891 31.2796 42.9411 31.1828 43.093 31.0968C43.093 31.0753 43.1039 31.0645 43.1256 31.0645C43.1473 31.043 43.1581 31.0323 43.1581 31.0323C43.1581 31.0323 43.169 31.0323 43.1907 31.0323C43.1907 31.0323 43.1907 31.0215 43.1907 31C43.2124 31 43.2232 31 43.2232 31C43.2884 30.957 43.3535 30.9247 43.4186 30.9032C43.4403 30.8817 43.462 30.871 43.4837 30.871C43.4837 30.871 43.4946 30.8602 43.5163 30.8387C43.6465 30.7742 43.7767 30.7204 43.907 30.6774C43.9504 30.6559 43.9938 30.6452 44.0372 30.6452C44.124 30.6022 44.2217 30.5699 44.3302 30.5484C44.417 30.5054 44.5147 30.4731 44.6232 30.4516C44.6232 30.4516 44.6341 30.4516 44.6558 30.4516C44.6558 30.4516 44.6667 30.4516 44.6884 30.4516C44.7101 30.4516 44.7209 30.4409 44.7209 30.4194C44.7209 30.4194 44.7318 30.4194 44.7535 30.4194C44.7535 30.4194 44.7643 30.4194 44.786 30.4194C44.8294 30.4194 44.8837 30.4086 44.9488 30.3871C44.9488 30.3871 44.9597 30.3871 44.9814 30.3871C45.0248 30.3871 45.0682 30.3764 45.1116 30.3548C45.1333 30.3548 45.155 30.3548 45.1767 30.3548C45.1984 30.3548 45.2201 30.3548 45.2419 30.3548C45.2853 30.3548 45.3178 30.3441 45.3395 30.3226C45.3612 30.3226 45.3829 30.3226 45.4046 30.3226C45.4263 30.3226 45.4481 30.3226 45.4698 30.3226C45.4915 30.3226 45.5132 30.3226 45.5349 30.3226C45.5566 30.3226 45.5674 30.3226 45.5674 30.3226L45.5023 16.9355H46.9674L46.9349 13.0645H48.4L55.0418 13H56.8V15.871H57.4512V17L57.4837 17.5161V21.5484L59.9581 21.5161V19.5161L59.9256 19V15.8387H60.8698V17.871L60.9023 19.5161H61V61.871L54.293 61.9032ZM60.1209 60.6774L57.6791 60.7097V61.5484H60.1535L60.1209 60.6774ZM60.0884 58.6774H57.6139L57.6465 59.5484L60.0884 59.5161V58.6774ZM60.0884 56.6774L57.6139 56.7097V57.5484H60.0884V56.6774ZM60.0884 54.6774H57.6139V55.5484H57.6465L59.9256 55.5161H60.0884V54.6774ZM60.0884 52.6774L57.6139 52.7097V53.5484H60.0884V52.6774ZM60.0884 50.6774H57.6139V51.5484H60.0884V50.6774ZM60.0558 48.6774H57.6139V49.5484L59.893 49.5161H60.0884L60.0558 48.6774ZM60.0233 46.6774L57.5814 46.7097V47.5484H60.0233V46.6774ZM60.0233 44.6774H57.5488L57.5814 45.5484L60.0233 45.5161V44.6774ZM60.0233 42.6774L57.5488 42.7097V43.5484H60.0233V42.6774ZM60.0233 40.6774H57.5488V41.5484L59.8605 41.5161H60.0233V40.6774ZM60.0233 38.6774L57.5488 38.7097V39.5484H60.0233V38.6774ZM60.0233 36.6774H57.5488V37.5484L59.8279 37.5161H60.0233V36.6774ZM59.9907 34.6774L57.5488 34.7097V35.5484H59.9907V34.6774ZM59.9907 32.6774H57.5163L57.5488 33.5484H59.9907V32.6774ZM59.9907 30.6452L57.5163 30.6774V31.5484L59.9907 31.5161V30.6452ZM59.9907 28.6452H57.5163V29.5161H59.9907V28.6452ZM59.9907 26.6452H57.5163V27.5161L59.7953 27.4839H59.9907V26.6452ZM59.9581 24.6452L57.5163 24.6774V25.5161H59.9907L59.9581 24.6452ZM57.4837 22.6452V23.5161L59.9256 23.4839V22.6452H57.4837ZM42.8325 36.0968H43.8093L43.7767 32.4839C43.755 32.4194 43.7333 32.3656 43.7116 32.3226C43.7116 32.3011 43.7008 32.2903 43.6791 32.2903C43.5488 31.9355 43.4186 31.8065 43.2884 31.8065C43.2667 31.8065 43.2449 31.8065 43.2232 31.8065C43.1798 31.828 43.1473 31.8495 43.1256 31.871C43.1039 31.8925 43.093 31.9032 43.093 31.9032C43.0713 31.9247 43.0605 31.9355 43.0605 31.9355C43.0605 31.9355 43.0496 31.9462 43.0279 31.9677C43.0279 31.9893 43.017 32.0108 42.9953 32.0323C42.9953 32.0323 42.9845 32.043 42.9628 32.0645C42.9628 32.086 42.9519 32.1075 42.9302 32.129C42.9302 32.1505 42.9302 32.172 42.9302 32.1936C42.9085 32.1936 42.8977 32.2043 42.8977 32.2258C42.876 32.2473 42.8651 32.2688 42.8651 32.2903C42.8651 32.3118 42.8651 32.3226 42.8651 32.3226C42.8651 32.3226 42.8651 32.3333 42.8651 32.3548C42.8434 32.3548 42.8325 32.3548 42.8325 32.3548C42.8325 32.3763 42.8325 32.3871 42.8325 32.3871C42.8325 32.3871 42.8325 32.3979 42.8325 32.4194C42.8325 32.4194 42.8217 32.4301 42.8 32.4516C42.8 32.4731 42.8 32.4839 42.8 32.4839L42.8325 36.0968ZM42.8651 41.8065H43.8419L43.8093 38.1613C43.7876 38.1183 43.7659 38.0645 43.7442 38C43.7442 38 43.7442 37.9893 43.7442 37.9677C43.5814 37.6452 43.4512 37.5161 43.3535 37.4839C43.3318 37.4839 43.3209 37.4839 43.3209 37.4839C43.3209 37.5054 43.3101 37.5161 43.2884 37.5161C43.2884 37.5161 43.2775 37.5161 43.2558 37.5161C43.2341 37.5161 43.2124 37.5269 43.1907 37.5484C43.1907 37.5484 43.1798 37.5591 43.1581 37.5807C43.1364 37.6022 43.1256 37.6129 43.1256 37.6129C43.1039 37.6344 43.093 37.6559 43.093 37.6774C43.0713 37.6774 43.0605 37.6774 43.0605 37.6774C43.0605 37.6989 43.0496 37.7097 43.0279 37.7097C43.0279 37.7312 43.0279 37.7527 43.0279 37.7742C43.0062 37.7957 42.9953 37.8172 42.9953 37.8387C42.9736 37.8387 42.9628 37.8495 42.9628 37.871C42.9411 37.8925 42.9302 37.914 42.9302 37.9355C42.9302 37.957 42.9194 37.9785 42.8977 38C42.8977 38 42.8977 38.0108 42.8977 38.0323C42.8977 38.0538 42.8868 38.0645 42.8651 38.0645C42.8651 38.086 42.8651 38.0968 42.8651 38.0968C42.8651 38.0968 42.8651 38.1075 42.8651 38.129C42.8651 38.129 42.8651 38.1398 42.8651 38.1613V41.8065ZM42.8651 47.5161H43.8419L43.8093 43.871C43.8093 43.828 43.7984 43.785 43.7767 43.7419C43.6465 43.4194 43.5163 43.2581 43.386 43.1936C43.3643 43.1936 43.3426 43.1936 43.3209 43.1936C43.3209 43.1936 43.3101 43.1936 43.2884 43.1936C43.2667 43.2151 43.2558 43.2258 43.2558 43.2258C43.2341 43.2258 43.2232 43.2258 43.2232 43.2258C43.2015 43.2473 43.1907 43.2581 43.1907 43.2581C43.169 43.2796 43.1473 43.3011 43.1256 43.3226C43.1256 43.3226 43.1147 43.3333 43.093 43.3548C43.093 43.3764 43.0822 43.3979 43.0605 43.4194C43.0387 43.4409 43.0279 43.4516 43.0279 43.4516C43.0279 43.4731 43.017 43.4946 42.9953 43.5161C42.9953 43.5376 42.9953 43.5484 42.9953 43.5484C42.9736 43.5484 42.9628 43.5591 42.9628 43.5807C42.9628 43.5807 42.9628 43.5914 42.9628 43.6129C42.9628 43.6129 42.9519 43.6237 42.9302 43.6452C42.9302 43.6452 42.9302 43.6559 42.9302 43.6774C42.8977 43.7742 42.8651 43.871 42.8651 43.871V47.5161ZM42.8977 53.2581L43.8744 53.2258L43.8419 49.6129C43.8202 49.5484 43.7984 49.4946 43.7767 49.4516C43.7767 49.4301 43.7659 49.4194 43.7442 49.4194C43.614 49.0645 43.4837 48.9355 43.3535 48.9355C43.3318 48.9355 43.3101 48.9355 43.2884 48.9355C43.245 48.957 43.2124 48.9785 43.1907 49C43.169 49.0215 43.1473 49.043 43.1256 49.0645C43.1256 49.0645 43.1147 49.0753 43.093 49.0968C43.093 49.0968 43.093 49.1075 43.093 49.129C43.093 49.129 43.0822 49.1398 43.0605 49.1613C43.0605 49.1828 43.0496 49.1936 43.0279 49.1936C43.0279 49.2151 43.017 49.2366 42.9953 49.2581C42.9953 49.2796 42.9953 49.3011 42.9953 49.3226C42.9736 49.3226 42.9628 49.3333 42.9628 49.3548C42.9628 49.3764 42.9628 49.3871 42.9628 49.3871C42.9411 49.4086 42.9302 49.4194 42.9302 49.4194C42.9302 49.4409 42.9302 49.4516 42.9302 49.4516C42.9085 49.4946 42.8977 49.5269 42.8977 49.5484C42.8977 49.5484 42.8977 49.5591 42.8977 49.5806C42.876 49.5806 42.8651 49.5806 42.8651 49.5806C42.8651 49.6022 42.8651 49.6129 42.8651 49.6129L42.8977 53.2258V53.2581ZM43.8744 58.9677L43.8419 55.3226C43.8202 55.2366 43.7984 55.1613 43.7767 55.0968C43.6465 54.8065 43.5163 54.6774 43.4186 54.6452C43.3969 54.6452 43.3752 54.6452 43.3535 54.6452C43.3535 54.6452 43.3426 54.6452 43.3209 54.6452C43.2558 54.6667 43.1907 54.7097 43.1256 54.7742C43.1256 54.7957 43.1256 54.8065 43.1256 54.8065C43.1039 54.828 43.093 54.8495 43.093 54.871C43.093 54.871 43.0822 54.8817 43.0605 54.9032C43.0387 54.9247 43.0279 54.9462 43.0279 54.9677C43.0279 54.9893 43.017 55 42.9953 55C42.9953 55 42.9953 55.0108 42.9953 55.0323C42.9953 55.0538 42.9845 55.0753 42.9628 55.0968C42.9628 55.1183 42.9628 55.129 42.9628 55.129C42.9411 55.1505 42.9302 55.1721 42.9302 55.1936C42.9302 55.2151 42.9302 55.2258 42.9302 55.2258C42.9302 55.2473 42.9194 55.2581 42.8977 55.2581C42.8977 55.2796 42.8977 55.2903 42.8977 55.2903C42.8977 55.3118 42.8977 55.3226 42.8977 55.3226V58.9677H43.8744ZM44.4279 36.0645H45.4046L45.3721 32.4516C45.3504 32.3871 45.3287 32.3333 45.307 32.2903C45.307 32.2688 45.307 32.2581 45.307 32.2581C45.1442 31.9032 45.0139 31.7742 44.9163 31.7742C44.8946 31.7742 44.8837 31.7742 44.8837 31.7742C44.862 31.7742 44.8512 31.7742 44.8512 31.7742C44.786 31.7957 44.7209 31.8387 44.6558 31.9032C44.6558 31.9032 44.6558 31.914 44.6558 31.9355C44.6341 31.9355 44.6232 31.9462 44.6232 31.9677C44.6015 31.9893 44.5907 32.0108 44.5907 32.0323C44.569 32.0538 44.5581 32.0753 44.5581 32.0968C44.5364 32.0968 44.5256 32.1075 44.5256 32.129C44.5256 32.1505 44.5147 32.172 44.493 32.1936C44.493 32.2151 44.493 32.2258 44.493 32.2258C44.493 32.2258 44.493 32.2366 44.493 32.2581C44.4713 32.2796 44.4604 32.2903 44.4604 32.2903C44.4604 32.3118 44.4604 32.3226 44.4604 32.3226C44.4604 32.3226 44.4604 32.3333 44.4604 32.3548C44.4387 32.3548 44.4279 32.3656 44.4279 32.3871C44.4279 32.4086 44.4279 32.4301 44.4279 32.4516V36.0645ZM44.4279 41.7742H45.4046L45.3721 38.129C45.3504 38.086 45.3287 38.0323 45.307 37.9677C45.307 37.9677 45.307 37.957 45.307 37.9355C45.1767 37.6129 45.0139 37.4839 44.9163 37.4516C44.9163 37.4516 44.9054 37.4516 44.8837 37.4516C44.8837 37.4516 44.8729 37.4624 44.8512 37.4839C44.8294 37.4839 44.7969 37.4946 44.7535 37.5161C44.7535 37.5161 44.7535 37.5269 44.7535 37.5484C44.7318 37.5484 44.7101 37.5591 44.6884 37.5807C44.6884 37.5807 44.6775 37.5914 44.6558 37.6129C44.6558 37.6344 44.6449 37.6559 44.6232 37.6774C44.6015 37.6989 44.5907 37.7097 44.5907 37.7097C44.5907 37.7312 44.5798 37.7527 44.5581 37.7742C44.5581 37.7957 44.5473 37.8172 44.5256 37.8387C44.5256 37.8602 44.5256 37.8817 44.5256 37.9032C44.5039 37.9032 44.493 37.914 44.493 37.9355C44.493 37.957 44.4822 37.9785 44.4604 38C44.4604 38.0215 44.4604 38.0323 44.4604 38.0323C44.4604 38.0538 44.4604 38.0645 44.4604 38.0645C44.4387 38.0645 44.4279 38.0753 44.4279 38.0968C44.4279 38.1183 44.4279 38.129 44.4279 38.129V41.7742ZM44.4604 47.5161H45.4372V47.4839L45.4046 43.871C45.2419 43.4516 45.1116 43.2581 44.9814 43.1936C44.9597 43.1936 44.938 43.1936 44.9163 43.1936C44.8946 43.1936 44.8729 43.1936 44.8512 43.1936C44.7535 43.2258 44.6558 43.3548 44.5907 43.4516C44.5907 43.4731 44.5798 43.4946 44.5581 43.5161C44.5581 43.5376 44.5581 43.5484 44.5581 43.5484C44.5581 43.5484 44.5581 43.5591 44.5581 43.5807C44.5364 43.6022 44.5256 43.6237 44.5256 43.6452C44.5039 43.6452 44.493 43.6559 44.493 43.6774C44.493 43.6989 44.4822 43.7204 44.4604 43.7419C44.4604 43.8065 44.4279 43.871 44.4279 43.871L44.4604 47.5161ZM44.493 53.2258H45.4698L45.4372 49.6129C45.4155 49.5484 45.3938 49.4946 45.3721 49.4516C45.3721 49.4301 45.3721 49.4194 45.3721 49.4194C45.2093 49.0645 45.0791 48.9355 44.9488 48.9355C44.9271 48.9355 44.9163 48.9355 44.9163 48.9355C44.8729 48.9355 44.8403 48.9462 44.8186 48.9677C44.7969 48.9893 44.786 49 44.786 49C44.7643 49 44.7535 49.0108 44.7535 49.0323C44.7535 49.0323 44.7426 49.043 44.7209 49.0645C44.6992 49.086 44.6775 49.1075 44.6558 49.129C44.6558 49.1505 44.6558 49.172 44.6558 49.1936C44.6341 49.2151 44.6232 49.2366 44.6232 49.2581C44.6015 49.2581 44.5907 49.2688 44.5907 49.2903C44.569 49.3118 44.5581 49.3333 44.5581 49.3548C44.5581 49.3764 44.5581 49.3871 44.5581 49.3871C44.5364 49.3871 44.5256 49.3978 44.5256 49.4194C44.5256 49.4194 44.5256 49.4301 44.5256 49.4516C44.5256 49.4731 44.5256 49.4839 44.5256 49.4839C44.5256 49.4839 44.5147 49.4839 44.493 49.4839C44.493 49.4839 44.493 49.4946 44.493 49.5161C44.493 49.5376 44.493 49.5484 44.493 49.5484C44.493 49.5484 44.493 49.5591 44.493 49.5806C44.493 49.5806 44.4822 49.5806 44.4604 49.5806C44.4604 49.6022 44.4604 49.6129 44.4604 49.6129L44.493 53.2258ZM45.5023 58.9355L45.4698 55.2903C45.4481 55.2473 45.4263 55.1936 45.4046 55.129C45.4046 55.129 45.4046 55.1183 45.4046 55.0968C45.2419 54.7742 45.1116 54.6452 45.0139 54.6129C44.9922 54.6129 44.9814 54.6129 44.9814 54.6129C44.9597 54.6129 44.938 54.6237 44.9163 54.6452C44.8512 54.6667 44.7969 54.7097 44.7535 54.7742C44.7318 54.7957 44.7209 54.8172 44.7209 54.8387C44.6992 54.8602 44.6884 54.8817 44.6884 54.9032C44.6667 54.9247 44.6558 54.9355 44.6558 54.9355C44.6341 54.957 44.6232 54.9785 44.6232 55C44.6232 55.0215 44.6124 55.043 44.5907 55.0645C44.5907 55.0645 44.5907 55.0753 44.5907 55.0968C44.569 55.1183 44.5581 55.129 44.5581 55.129C44.5581 55.129 44.5581 55.1398 44.5581 55.1613C44.5581 55.1828 44.5581 55.1936 44.5581 55.1936C44.5364 55.2151 44.5256 55.2258 44.5256 55.2258C44.5256 55.2473 44.5256 55.2581 44.5256 55.2581C44.5256 55.2581 44.5256 55.2688 44.5256 55.2903V58.9355H45.5023ZM48.0744 15.4194H49.0186V13.3871H48.0744V15.4194ZM48.0744 18.2581L49.0186 18.2258V16.1935L48.0744 16.2258V18.2581ZM48.107 21.0645H49.0512V20.3871L49.0186 19.7097V19.0323H48.0744V19.7097L48.107 20.3871V21.0645ZM48.107 23.1936H49.0512V21.8387H48.107V23.1936ZM48.107 26H49.0512V24.6452H48.107V26ZM48.107 28.8387L49.0512 28.8065V27.4516H48.107V28.8387ZM48.1395 31.6452H49.0512V30.2903H48.107L48.1395 31.6452ZM49.1163 34.4516L49.0837 33.0968H48.1721V34.4516H49.1163ZM48.1721 37.2903H49.1163V35.9355H48.1721V37.2903ZM49.1163 40.0968V38.7419H48.1721V40.0968H49.1163ZM48.2372 42.9032H49.1814L49.1488 41.5484H48.2372V42.9032ZM48.2372 48.5161H49.1814V47.1613H48.2372V48.5161ZM48.2698 51.3226H49.1814V49.9677H48.2372L48.2698 51.3226ZM48.2698 54.129H49.214V52.7742H48.2698V54.129ZM48.2698 56.9678L48.986 56.9355H49.214V55.5806L48.2698 55.6129V56.9678ZM49.214 59.7419V58.3871L48.2698 58.4194V59.7742L49.214 59.7419ZM51.3953 15.4194H52.3395V13.3871L51.3953 13.4194V15.4194ZM51.4279 18.2258H52.3721V17.5484L52.3395 16.8387V16.1935H51.3953L51.4279 16.871V18.2258ZM51.4279 21.0323H52.3721V19H51.4279V21.0323ZM51.4279 23.1936L52.1442 23.1613H52.3721V21.8065L51.4279 21.8387V23.1936ZM51.4279 26H52.3721V24.6129L51.4279 24.6452V26ZM51.4604 28.8065H52.4046L52.3721 27.4194L51.4279 27.4516L51.4604 28.8065ZM51.493 31.6129H52.4372V30.2581H51.493V31.6129ZM51.493 34.4194H52.4372V33.0645H51.493V34.4194ZM51.493 37.2258H52.4372V35.871H51.493V37.2258ZM51.493 40.0323H52.4372V38.6774H51.493V40.0323ZM51.5256 42.8387H52.4698L52.4372 41.4839H51.493L51.5256 42.8387ZM51.5581 45.6452H52.5023V44.2903H51.5581V45.6452ZM52.5023 48.4516V47.0968H51.5581V48.4516H52.5023ZM51.5581 51.2903H52.5023V49.9032L51.5581 49.9355V51.2903ZM52.5349 54.0968L52.5023 52.7419H51.5581L51.5907 54.0968H52.5349ZM51.5907 56.9032H52.5349V55.5484H51.5907V56.9032ZM52.5349 59.7097V58.3548H51.5907V59.7097H52.5349ZM54.9442 58.3548V59.7097H55.8884V58.3548H54.9442ZM55.8232 55.5161L54.8791 55.5484V56.9032H55.8232V55.5161ZM55.8232 52.6774L54.8791 52.7097V54.0645H55.5953L55.8232 54.0323V52.6774ZM55.8232 49.871H54.8791V51.2581L55.8232 51.2258V49.871ZM55.8232 47.0645H54.8791V48.4516L55.8232 48.4194V47.0645ZM55.7907 44.2581H54.8465L54.8791 45.6129H55.8232L55.7907 44.2581ZM55.7581 41.4516H54.814V42.8064H55.7581V41.4516ZM55.7581 38.6452H54.814V40H55.7581V38.6452ZM55.7581 35.8387H54.814V37.1936H55.7581V35.8387ZM55.7581 33.0323H54.814V34.3871H55.7581V33.0323ZM55.7256 30.2258H54.7814L54.814 31.5806H55.7581L55.7256 30.2258ZM55.693 27.4194H54.7488V28.7742H55.693V27.4194ZM55.693 24.6129H54.7488V25.9677H55.693V24.6129ZM55.6605 19H54.7163V19.6452L54.7488 20.3548V21.0323L55.693 21V20.3548L55.6605 19.6452V19ZM54.7163 13.3871V15.4194H55.6605V13.3871H54.7163Z" fill="white"/>
</g>
</svg>
