<svg width="35" height="64" viewBox="0 0 35 64" fill="none" xmlns="http://www.w3.org/2000/svg">
<path opacity="0.6" fill-rule="evenodd" clip-rule="evenodd" d="M32.1451 25.823C32.1451 25.9034 32.1451 25.9839 32.1451 26.0643C32.139 26.1015 32.136 26.1386 32.136 26.1757C32.136 26.2809 32.1329 26.3831 32.1268 26.4821C32.1268 26.5099 32.1268 26.5285 32.1268 26.5564C32.1207 26.6244 32.1146 26.6894 32.1085 26.7513C32.1085 26.7792 32.1085 26.807 32.0994 26.8441C32.0994 26.8875 32.0963 26.9277 32.0902 26.9648C32.0902 26.9958 32.0872 27.0205 32.0811 27.0391C32.0811 27.0762 32.078 27.1103 32.0719 27.1412C32.0719 27.1598 32.0719 27.1753 32.0719 27.1876C32.0658 27.2186 32.0627 27.2402 32.0627 27.2526C32.0566 27.265 32.0536 27.2743 32.0536 27.2805C32.0536 27.299 32.0536 27.3083 32.0536 27.3083C31.8157 25.6002 29.9307 24.1427 29.9307 24.1427L30.2418 23.465C30.2418 23.465 29.9765 23.5485 29.3176 23.9477C29.3115 23.9229 29.3024 23.892 29.2902 23.8549C29.2841 23.8363 29.278 23.8146 29.2719 23.7899C29.2658 23.7713 29.2597 23.7528 29.2536 23.7342C29.2475 23.7094 29.2383 23.6816 29.2261 23.6506C29.22 23.6321 29.2109 23.6135 29.1987 23.5949C29.1865 23.564 29.1743 23.5299 29.1621 23.4928C28.8693 22.8151 28.2837 21.8032 28.2837 21.8032L28.4301 21.3855C28.4301 21.3855 28.3111 21.4412 27.9634 21.6454C27.939 21.5835 27.9054 21.5185 27.8627 21.4505C27.8505 21.4257 27.8384 21.404 27.8262 21.3855C27.7957 21.336 27.7652 21.2834 27.7346 21.2277C27.1399 20.2715 25.9686 18.9068 25.9686 18.9068L26.1974 18.2105L25.685 18.7768L25.0811 18.1641L25.1268 17.3193C25.1268 17.3193 25.1268 17.3193 24.7608 17.9784C24.6876 17.9599 24.5961 17.9227 24.5046 17.8763L24.8523 18.5354L24.5869 18.6561C24.6235 18.7428 24.6632 18.8356 24.7059 18.9346C24.712 18.9346 24.715 18.9377 24.715 18.9439C25.3098 20.355 26.2431 23.14 26.2431 23.14L26.0144 23.3071V23.3164L25.9503 23.3628C25.9564 23.3814 25.9625 23.4 25.9686 23.4185C25.9686 23.4247 25.9686 23.4309 25.9686 23.4371C25.9869 23.499 26.0022 23.5578 26.0144 23.6135C26.0144 23.6197 26.0144 23.6228 26.0144 23.6228C26.051 23.7589 26.0845 23.8951 26.115 24.0313C26.115 24.0374 26.115 24.0436 26.115 24.0498C26.3529 25.0896 26.5451 26.1665 26.6915 27.0669C27.5059 27.3083 28.2928 27.7539 28.7778 28.0603C28.7778 28.0541 28.7778 28.051 28.7778 28.051C28.7839 28.0572 28.7869 28.0603 28.7869 28.0603C28.9333 28.1531 29.0431 28.2274 29.1255 28.2831C29.1255 28.2831 29.1285 28.2862 29.1346 28.2924C29.1712 28.3171 29.1987 28.3357 29.217 28.3481C29.217 28.3481 29.22 28.3512 29.2261 28.3573C29.2444 28.3666 29.2536 28.3759 29.2536 28.3759L29.1346 28.6544C29.1346 28.6544 29.1346 28.6544 29.6013 28.5616C30.9739 29.9727 31.3765 31.4395 31.468 32.4049C31.4863 32.4699 31.4954 32.5163 31.4954 32.5163C31.4954 32.5163 31.4863 32.4792 31.468 32.4142C31.532 33.0919 31.4588 33.5282 31.4588 33.5282C31.4131 33.2219 30.7817 32.1636 30.7817 32.1636C30.7817 32.1636 30.8549 32.3771 30.9007 32.9341C30.8397 32.8598 30.7756 32.7887 30.7085 32.7206C30.6902 32.702 30.6627 32.6742 30.6353 32.6556C30.5926 32.6123 30.5468 32.5689 30.498 32.5256C30.4675 32.5009 30.434 32.4761 30.3974 32.4514C30.3547 32.4142 30.3089 32.3771 30.2601 32.34C30.2235 32.3152 30.1839 32.2904 30.1412 32.2657C30.0985 32.2347 30.0558 32.2038 30.0131 32.1729C29.9643 32.1481 29.9185 32.1233 29.8758 32.0986C29.8331 32.0738 29.7904 32.0491 29.7477 32.0243C29.6989 31.9996 29.6501 31.9748 29.6013 31.95C29.5647 31.9315 29.5281 31.9129 29.4915 31.8943C29.4305 31.8634 29.3726 31.8356 29.3176 31.8108C29.2871 31.7984 29.2566 31.786 29.2261 31.7737C29.1651 31.7427 29.1011 31.7149 29.034 31.6901C28.2379 31.3652 27.5425 31.2167 27.5425 31.2167V30.7525C27.5425 30.7525 27.5425 30.8453 27.2863 31.2631C27.2497 31.2569 27.2131 31.2476 27.1765 31.2352C27.3229 32.2935 27.3778 33.324 27.3961 34.0017L27.9451 34.2338L27.8811 35.0879C27.8811 35.0879 28.0366 34.93 28.1556 34.5216C28.5856 34.8372 29.9216 36.0905 29.9216 36.0905V36.6196C29.9216 36.6196 29.9216 36.6196 30.1686 36.304C30.4889 36.5082 31.0562 37.2602 31.2758 37.5573C31.2941 37.582 31.3094 37.6037 31.3216 37.6222C31.3277 37.6284 31.3307 37.6315 31.3307 37.6315C31.3582 37.6687 31.3673 37.6872 31.3673 37.6872L31.3124 38.1607C31.3124 38.1607 31.3124 38.1607 31.651 38.0957C32.3281 41.0386 31.5229 42.9881 31.5229 42.9881C31.0654 41.6048 30.2876 41.7998 30.2876 41.7998L30.1961 41.447C30.1961 41.447 30.1961 41.447 29.949 41.7998C29.8453 41.6513 29.7447 41.512 29.6471 41.382C29.6105 41.3325 29.5739 41.2861 29.5373 41.2428C29.4702 41.1623 29.4031 41.0819 29.336 41.0014C29.2933 40.9519 29.2506 40.9024 29.2078 40.8529C29.1468 40.7848 29.0858 40.7167 29.0248 40.6487C28.9821 40.6053 28.9394 40.562 28.8967 40.5187C28.8357 40.4568 28.7778 40.398 28.7229 40.3423C28.6802 40.299 28.6375 40.2557 28.5948 40.2123C28.5338 40.1566 28.4758 40.104 28.4209 40.0545C28.3782 40.0174 28.3386 39.9802 28.302 39.9431C28.241 39.8936 28.183 39.8472 28.1281 39.8039C28.0915 39.7729 28.0549 39.742 28.0183 39.711C27.8353 39.5687 27.6645 39.4418 27.5059 39.3304C27.515 39.5439 27.515 39.6646 27.515 39.6646L27.1033 39.8317L27.0484 39.8503C27.0484 39.8626 27.0484 39.8719 27.0484 39.8781C27.0545 39.8967 27.0606 39.9153 27.0667 39.9338C27.0728 39.9586 27.0789 39.9864 27.085 40.0174C27.085 40.0359 27.088 40.0545 27.0941 40.0731C27.1002 40.1102 27.1063 40.1442 27.1124 40.1752C27.1185 40.1938 27.1216 40.2123 27.1216 40.2309C27.1277 40.2557 27.1338 40.2804 27.1399 40.3052C27.1338 40.3052 27.1307 40.3052 27.1307 40.3052C27.149 40.4104 27.1673 40.5218 27.1856 40.6394C27.1856 40.6517 27.1856 40.661 27.1856 40.6672C27.2039 40.7972 27.2222 40.9333 27.2405 41.0757C27.2405 41.0819 27.2405 41.085 27.2405 41.085C27.2527 41.2211 27.2649 41.3573 27.2771 41.4934C27.2832 41.5182 27.2863 41.543 27.2863 41.5677C27.2985 41.6915 27.3107 41.8122 27.3229 41.9298C27.3229 41.9669 27.3229 42.0009 27.3229 42.0319C27.3351 42.1433 27.3442 42.2547 27.3503 42.3661C27.3564 42.4094 27.3595 42.4527 27.3595 42.4961C27.3656 42.6075 27.3747 42.7158 27.3869 42.821C27.3869 42.8395 27.3869 42.8581 27.3869 42.8767C27.4418 43.7679 27.4601 44.4734 27.4601 44.4734L27.0392 44.5199L26.8013 44.5477C26.8074 44.5601 26.8105 44.5725 26.8105 44.5848C26.8227 44.6653 26.8379 44.7458 26.8562 44.8262C26.8562 44.8386 26.8593 44.8541 26.8654 44.8726V44.8819C27.1399 46.5529 26.9935 48.2704 26.9935 48.2704L26.4444 48.159C26.4566 48.1961 26.4688 48.2363 26.481 48.2797C26.4993 48.3632 26.5268 48.4375 26.5451 48.521C27.0575 50.5634 26.6732 53.0978 26.6732 53.0978H26.6C26.6 53.0978 26.6 53.1009 26.6 53.107C26.6 53.1194 26.597 53.1318 26.5909 53.1442C26.5451 54.5181 26.3621 56.4398 26.2614 57.396C26.2797 57.6374 26.2889 57.9159 26.2889 58.2315C26.719 57.9066 27.0575 57.7766 27.0575 57.7766C27.0575 57.7766 26.6549 58.3522 26.2706 59.0856C26.2645 59.2156 26.2584 59.3455 26.2523 59.4755C26.8379 59.0206 27.4418 59.0578 27.4418 59.0578C27.4418 59.0578 26.7922 59.5962 26.2157 60.1625C26.2157 60.2739 26.2096 60.3853 26.1974 60.4967C27.2588 60.1346 28.1739 60.3296 28.1739 60.3296C27.1216 60.4224 26.2889 61.36 26.2889 61.36C26.2889 61.36 26.966 61.1465 28.1098 61.2394C27.3869 61.2672 26.481 61.8706 26.0784 62.177C26.0784 62.2141 26.0754 62.2544 26.0693 62.2977C26.3621 62.2513 26.9203 62.1956 27.5059 62.3812C27.085 62.3441 26.5085 62.5669 26.0601 62.7897C28.2745 62.9847 30.0863 63.718 27.5974 63.5881C24.7699 63.4488 24.1843 63.4303 25.3373 63.8202C26.4902 64.2101 21.7686 63.8852 18.3373 63.6066C14.915 63.3189 10.5961 63.7273 12.9386 63.2724C14.1281 63.0404 15.0614 62.9475 15.6928 62.9197C15.519 62.4091 14.9974 61.2394 13.7804 61.2394C13.8719 61.2115 13.9542 61.1837 14.0366 61.1744C14.0549 61.1651 14.0732 61.1651 14.0915 61.1651C14.1403 61.1589 14.1861 61.1558 14.2288 61.1558C14.2288 61.1558 14.2318 61.1558 14.2379 61.1558C14.4118 61.1465 14.5856 61.1837 14.7412 61.2394C14.7534 61.2456 14.7686 61.2517 14.7869 61.2579C14.8235 61.2703 14.8632 61.2889 14.9059 61.3136C14.9242 61.3198 14.9425 61.326 14.9608 61.3322C14.9974 61.357 15.034 61.3786 15.0706 61.3972C15.0889 61.4096 15.1072 61.4219 15.1255 61.4343C15.156 61.4591 15.1895 61.4838 15.2261 61.5086C15.2444 61.521 15.2627 61.5333 15.281 61.5457C15.3115 61.5705 15.3421 61.5952 15.3726 61.62C15.3909 61.6386 15.4061 61.654 15.4183 61.6664C15.4488 61.6912 15.4793 61.719 15.5098 61.75C15.522 61.7623 15.5373 61.7778 15.5556 61.7964C15.58 61.8211 15.6044 61.849 15.6288 61.8799C15.6471 61.8923 15.6623 61.9078 15.6745 61.9263C15.6989 61.9573 15.7233 61.9851 15.7477 62.0099C15.7599 62.0285 15.7721 62.0439 15.7843 62.0563C15.8026 62.0873 15.824 62.1151 15.8484 62.1399C15.8606 62.1584 15.8697 62.177 15.8758 62.1956C15.8941 62.2203 15.9124 62.2451 15.9307 62.2698C15.9429 62.2884 15.9521 62.3039 15.9582 62.3162C15.9765 62.341 15.9917 62.3658 16.0039 62.3905C16.0161 62.4091 16.0253 62.4245 16.0314 62.4369C16.0436 62.4555 16.0527 62.4741 16.0588 62.4926C16.0771 62.5298 16.0924 62.5607 16.1046 62.5855C15.9124 61.5179 15.2353 60.9237 15.2353 60.9237C15.2353 60.9237 16.132 61.0815 16.4706 61.9913C16.5346 61.1465 15.0797 59.949 15.0797 59.949C15.0797 59.949 16.3516 60.1718 16.6536 61.1465C16.6536 61.1465 16.3516 59.5126 15.7935 59.2341C16.6262 59.392 16.8092 60.5524 16.8092 60.5524C16.8092 60.5524 16.9647 59.5776 16.5072 58.64C17.2758 59.7354 17.2758 60.5153 17.2758 60.5153C17.2758 60.5153 17.2819 60.5029 17.2941 60.4781L17.6052 59.1413H17.3673L17.7699 53.9611C17.6906 53.9426 17.5991 53.9209 17.4954 53.8961C17.7608 52.7543 17.8706 50.3591 17.9072 48.9202C17.9072 48.6603 17.9163 48.4375 17.9163 48.2518C17.8431 48.2425 17.7699 48.2332 17.6784 48.224C17.7425 46.7293 17.4954 44.6405 17.3216 43.443C17.3155 43.3873 17.3094 43.3316 17.3033 43.2759C17.2972 43.2387 17.2911 43.2016 17.285 43.1645C17.2789 43.1335 17.2758 43.1057 17.2758 43.0809C17.2667 43.0531 17.2667 43.0345 17.2575 43.0159C17.166 43.0438 17.0654 43.0716 16.9373 43.1088C16.9373 41.9112 16.3882 40.0731 16.0405 39.0426C16.0344 39.0302 16.0314 39.0179 16.0314 39.0055C16.0009 38.9188 15.9734 38.8384 15.949 38.7641C15.885 38.792 15.8301 38.8198 15.766 38.8477C15.5647 38.1235 15.0706 36.7867 14.8144 36.0905L13.9634 37.288L13.1582 36.8239L13.5608 37.5573L12.9111 39.2283L12.481 39.089L12.7739 39.5811L12.1059 42.1619H11.4013L11.8588 42.5703L11.5843 42.821L11.749 43.1181L11.6392 45.671L10.6967 45.7174L11.2641 46.0795L10.8614 46.3765L11.3739 46.5993L11.6392 49.2266L11.2092 49.143L11.4013 49.3658L11.0993 49.7186L11.4013 49.8021C11.4013 49.8021 11.5843 51.2039 11.7216 51.696C11.7216 51.696 9.50719 49.3751 9.04052 48.224C9.26928 47.7969 9.26928 47.7969 9.26928 47.7969L8.83007 47.7783C8.83007 47.7783 7.96993 46.3858 7.83268 45.4018C8.13464 44.9283 8.13464 44.9283 8.13464 44.9283L7.71373 45.1233L7.55817 44.3713L7.83268 43.9443L7.43922 44.1114C7.43922 44.1114 7.42091 44.065 7.40261 43.9814C7.28366 43.5822 6.93595 42.3104 6.95425 41.5213C7.39347 40.5558 7.39346 40.5558 7.39346 40.5558L6.9268 40.7693C6.9268 40.7693 6.9268 40.757 6.9268 40.7322C6.9268 40.398 6.95425 37.7151 7.25621 36.6753C7.43007 36.5454 7.55817 36.4525 7.65883 36.3783L6.27712 36.9631L6.14902 36.8703L5.96602 37.1859L5.71896 36.7774L5.81046 37.4644C5.22484 37.6872 3.74248 38.8755 3.74248 38.8755L3.33987 38.6249L3.67843 39.2283C3.67843 39.2283 3.58693 39.2747 3.44052 39.3861C3.43442 39.3923 3.42832 39.3954 3.42222 39.3954C3.39172 39.4201 3.35817 39.448 3.32157 39.4789C3.30937 39.4913 3.29717 39.5006 3.28496 39.5068C3.24836 39.5377 3.21177 39.5718 3.17517 39.6089C3.16296 39.6151 3.15381 39.6244 3.14771 39.6368C3.04401 39.7296 2.9281 39.841 2.8 39.971C2.7878 39.9833 2.7756 39.9957 2.7634 40.0081C2.7085 40.07 2.65359 40.1319 2.59869 40.1938C2.58649 40.2123 2.57124 40.2278 2.55294 40.2402C2.41873 40.4011 2.27233 40.5837 2.11372 40.7879C2.09542 40.8065 2.08017 40.8281 2.06797 40.8529C2.00087 40.9395 1.93682 41.0293 1.87582 41.1221C1.85752 41.1469 1.83921 41.1716 1.82091 41.1964C1.65621 41.4316 1.48845 41.6946 1.31764 41.9855C1.29324 42.0226 1.26884 42.0597 1.24444 42.0969C1.18344 42.2083 1.11939 42.3228 1.05229 42.4404C1.02789 42.4899 1.00349 42.5363 0.979086 42.5796C0.887583 42.7405 0.799128 42.9076 0.713725 43.0809C0.707624 43.0624 0.704576 43.0438 0.704576 43.0252C0.704576 43.0624 0.713725 43.0809 0.713725 43.0809C0.713725 43.0809 0.704573 43.0252 0.695423 42.9045C0.695423 42.9045 0.695423 42.8952 0.695423 42.886C0.689323 42.7746 0.686275 42.6632 0.686275 42.5518C0.680174 42.4899 0.677121 42.4311 0.677121 42.3754C0.671021 42.264 0.667973 42.1526 0.667973 42.0412C0.667973 41.9793 0.667973 41.9174 0.667973 41.8555C0.667973 41.7441 0.667973 41.6389 0.667973 41.5399C0.667973 41.4842 0.671021 41.4316 0.677121 41.382C0.677121 41.2397 0.680174 41.1035 0.686275 40.9736C0.686275 40.9612 0.689323 40.9488 0.695423 40.9364C0.701523 40.7941 0.710672 40.6548 0.722873 40.5187C0.722873 40.4754 0.725926 40.432 0.732026 40.3887C0.744227 40.2959 0.753376 40.2061 0.759476 40.1195C0.765576 40.0762 0.771678 40.0298 0.777778 39.9802C0.789978 39.8936 0.802175 39.81 0.814376 39.7296C0.820476 39.6925 0.826577 39.6553 0.832678 39.6182C0.850978 39.5068 0.869282 39.3985 0.887583 39.2933C0.893683 39.2871 0.896731 39.284 0.896731 39.284C0.915032 39.1726 0.936384 39.0643 0.960784 38.9591C0.966885 38.9343 0.972986 38.9095 0.979086 38.8848C1.00349 38.8105 1.02483 38.7363 1.04313 38.662C1.04923 38.6372 1.05534 38.6094 1.06144 38.5784C1.08584 38.5104 1.10719 38.4423 1.12549 38.3742C1.13159 38.3494 1.13769 38.3278 1.14379 38.3092C1.20479 38.1359 1.26274 37.975 1.31764 37.8265C1.32374 37.8203 1.3268 37.8141 1.3268 37.8079C1.3573 37.7398 1.38475 37.6749 1.40915 37.613C1.41525 37.6068 1.42135 37.5975 1.42745 37.5851C1.45795 37.5232 1.4854 37.4644 1.5098 37.4087C1.5098 37.4087 1.51285 37.4056 1.51895 37.3994C1.85751 36.7496 2.15948 36.4989 2.15948 36.4989L2.06797 36.2761L3.23921 35.4592L3.12026 35.1807L3.64183 35.1157C3.64183 35.1157 3.64183 35.1157 3.58693 34.7444C7.0183 31.8572 10.7516 32.5163 10.7516 32.5163L10.7333 32.5442C10.7882 32.5318 10.8431 32.5194 10.898 32.5071C10.8736 32.4947 10.8462 32.4854 10.8157 32.4792C10.8218 32.4792 10.8248 32.4792 10.8248 32.4792C10.3399 32.3028 9.35163 31.9686 8.95817 31.9222C9.11372 30.8175 9.11372 30.8175 9.11372 30.8175L8.50065 31.6994L7.44836 31.5137L7.51242 30.7618L7.16471 31.4116L5.62745 31.2909L5.49935 30.5018L5.34379 31.1981L4.60261 31.3838L4.26405 30.474L4.10849 31.7922L2.53464 32.1357L2.47059 31.4487L2.19608 32.3214L1.66536 32.3864L1.48235 31.6994L1.35425 32.5163C1.35425 32.5163 0.338562 32.8598 0 33.3333C0.118954 31.4116 1.70196 29.3785 2.8732 28.4966C2.93725 29.0629 2.93725 29.0629 2.93725 29.0629L3.39477 28.2831L5.03268 27.8375L4.97778 28.3759L5.38039 27.6889C5.38039 27.6889 6.12157 27.429 6.86275 27.429C6.73464 27.8096 6.64314 27.9303 6.64314 27.9303L7.51242 27.3733C7.51242 27.3733 8.2719 27.4383 9.21438 27.6518C9.23268 27.658 9.25098 27.6611 9.26928 27.6611C9.34248 27.6797 9.41874 27.6982 9.49804 27.7168C9.54074 27.7292 9.58345 27.7385 9.62615 27.7446C9.69325 27.7632 9.76035 27.7818 9.82745 27.8003C9.88235 27.8189 9.93726 27.8344 9.99216 27.8468C10.0532 27.8653 10.1142 27.8839 10.1752 27.9025C10.2301 27.921 10.288 27.9427 10.349 27.9674C10.4039 27.9798 10.4588 27.9953 10.5137 28.0139C10.5808 28.0386 10.6449 28.0634 10.7059 28.0881C10.7547 28.1067 10.8035 28.1253 10.8523 28.1438C10.9194 28.1748 10.9895 28.2057 11.0627 28.2367C11.0993 28.2552 11.1359 28.2738 11.1725 28.2924V28.2831C11.1786 28.2893 11.1848 28.2924 11.1909 28.2924C11.2366 28.3202 11.2824 28.3481 11.3373 28.3666C11.3922 28.3945 11.4379 28.4223 11.4928 28.4502C11.5904 28.5059 11.685 28.5647 11.7765 28.6266C11.6209 28.9701 11.6209 28.9701 11.6209 28.9701L12.234 28.7844L12.1425 29.1557C12.1425 29.1557 12.5817 29.3878 13.1124 29.7963C13.1124 29.7777 13.1094 29.7561 13.1033 29.7313C13.0392 29.035 12.8471 27.5775 12.298 26.742C12.3041 26.7358 12.3102 26.7296 12.3163 26.7235C12.6366 26.4357 12.6366 26.4264 12.6366 26.4264L12.1791 26.3057L11.8405 25.1174L12.2706 24.7089L11.685 24.6718L11.1909 22.8523L11.5294 22.4809H11.0627L10.8157 20.782C10.8157 20.782 13.3778 21.4783 14.6497 23.5764C14.4941 24.0498 14.4941 24.0498 14.4941 24.0498L14.8967 23.9848L15.2719 24.9225L15.2078 25.2103L15.519 25.3031L16.068 26.7142L15.6379 26.9277H16.1595C16.1595 26.9277 16.2327 27.1969 16.2967 27.6332C16.2967 27.6394 16.2967 27.6456 16.2967 27.6518C16.315 27.8065 16.3333 27.9829 16.3516 28.181C16.3577 28.1933 16.3608 28.2026 16.3608 28.2088C16.3669 28.3078 16.373 28.41 16.3791 28.5152C16.3791 28.5214 16.3791 28.5275 16.3791 28.5337C16.3852 28.6389 16.3913 28.7473 16.3974 28.8587C16.3974 28.8648 16.3974 28.871 16.3974 28.8772C16.3974 28.9886 16.3974 29.1062 16.3974 29.23C16.3974 29.2424 16.3974 29.2547 16.3974 29.2671C16.3974 29.4404 16.3913 29.6199 16.3791 29.8056C16.8091 29.0629 17.1752 28.7287 17.1752 28.7287L17.3582 29.2207C17.3582 29.2207 17.4314 28.9979 17.532 28.5152C16.7543 26.4914 16.5987 24.2726 16.5987 24.2726L16.2967 24.1612L16.6353 23.5392C16.6353 23.5392 16.6353 23.5392 16.3699 23.5021C16.3638 23.4897 16.3608 23.4742 16.3608 23.4557C16.3425 23.3133 16.3242 23.1772 16.3059 23.0472C16.3059 23.0163 16.3028 22.9822 16.2967 22.9451C16.2906 22.8399 16.2845 22.7409 16.2784 22.648C16.2784 22.6109 16.2784 22.5768 16.2784 22.5459C16.2784 22.4407 16.2784 22.3386 16.2784 22.2395C16.2784 22.2334 16.2784 22.2272 16.2784 22.221C16.2845 22.1158 16.2937 22.0198 16.3059 21.9332C16.312 21.9146 16.315 21.8992 16.315 21.8868C16.3272 21.8187 16.3394 21.7537 16.3516 21.6918C16.3577 21.6733 16.3608 21.6547 16.3608 21.6361C16.3791 21.5804 16.3974 21.5278 16.4157 21.4783C16.4157 21.4659 16.4187 21.4566 16.4248 21.4505C16.4614 21.3298 16.5072 21.2462 16.5529 21.172C16.5529 21.172 16.556 21.172 16.5621 21.172C16.6627 21.0141 16.7451 20.9677 16.7451 20.9677L16.5163 20.9306L16.9739 20.6242C16.9739 20.6242 16.9739 20.6242 16.4797 20.5035C16.6719 19.3895 17.5778 17.6257 17.5778 17.6257L17.468 17.3564L18.0353 17.013C18.0353 17.013 18.0353 17.013 17.6967 16.9758C18.319 15.8432 19.0601 15.2491 19.7647 14.952C19.7708 14.9458 19.78 14.9427 19.7922 14.9427C19.8532 14.9118 19.9172 14.887 19.9843 14.8685C20.0026 14.8623 20.024 14.8561 20.0484 14.8499C20.1033 14.8313 20.1582 14.8128 20.2131 14.7942C19.7922 14.7942 19.481 14.8035 19.481 14.8035L19.3529 14.4507C19.3529 14.4507 19.3529 14.4507 19.1425 14.9335C19.051 14.9273 18.9625 14.9242 18.8771 14.9242C18.8527 14.9242 18.8283 14.9242 18.8039 14.9242C18.7185 14.9242 18.6362 14.9273 18.5569 14.9335C17.6601 14.9984 16.9464 15.3234 16.9464 15.3234L16.7359 15.017C16.7359 15.017 16.7359 15.017 16.6536 15.6297C15.7935 15.8525 14.1556 17.0687 14.1556 17.0687L13.8536 16.8087C13.8536 16.8087 13.8536 16.8087 13.8536 17.245C13.4693 17.4214 12.9935 17.8949 12.9935 17.8949L12.481 17.2915L12.7373 18.2012L12.6641 18.2662L10.7242 20.0765L10.2941 19.9465L10.5503 20.4664L9.38823 22.0817L9.00392 21.8218L9.30589 22.4716C9.30589 22.4716 8.09804 23.4464 7.35686 25.3959C5.49934 22.0724 7.16471 19.1853 7.16471 19.1853C7.16471 19.1853 7.18301 19.1853 7.19216 19.1853C7.19826 19.1853 7.20131 19.1853 7.20131 19.1853C7.21351 19.1791 7.22876 19.1729 7.24706 19.1667C7.25316 19.1667 7.25926 19.1636 7.26536 19.1574C7.28976 19.1512 7.31111 19.1389 7.32941 19.1203C7.32941 19.1203 7.33246 19.1172 7.33856 19.111C7.36297 19.0925 7.38126 19.0646 7.39346 19.0275C7.42092 18.9346 7.40262 18.7861 7.29281 18.554C7.34771 18.4364 7.40262 18.3188 7.45752 18.2012C7.50632 18.1084 7.55512 18.0187 7.60392 17.932C7.61612 17.9135 7.62832 17.8918 7.64052 17.867C7.68933 17.7804 7.74118 17.6937 7.79608 17.6071C7.80218 17.5885 7.81133 17.57 7.82353 17.5514C7.87843 17.4709 7.93333 17.3936 7.98824 17.3193C7.99434 17.3007 8.00349 17.2822 8.01569 17.2636C8.07059 17.1893 8.12549 17.1151 8.18039 17.0408C8.19259 17.0284 8.20479 17.013 8.21699 16.9944C8.2719 16.9263 8.3268 16.8582 8.3817 16.7902C8.3939 16.7778 8.40305 16.7654 8.40915 16.753C8.46405 16.6849 8.51896 16.6231 8.57386 16.5674C8.58606 16.555 8.59521 16.5426 8.60131 16.5302C8.66231 16.4683 8.72026 16.4095 8.77516 16.3538C8.77516 16.3476 8.77822 16.3415 8.78432 16.3353C9.29673 15.8154 9.7085 15.5462 9.7085 15.5462L10.1386 15.7968C10.1386 15.7968 10.1386 15.7968 10.0105 15.1748C10.6967 14.7292 12.6732 13.6059 12.6732 13.6059L13.4144 14.1072C13.4144 14.1072 13.4144 14.1072 13.0392 13.476C15.2078 12.2227 16.315 12.1577 16.315 12.1577L16.6902 12.5383C16.6902 12.5383 16.6902 12.5383 16.6902 12.037C17.8248 12.0556 18.749 12.2041 19.5085 12.4084C19.5085 12.4084 19.5055 12.4084 19.4994 12.4084C19.5177 12.4146 19.5329 12.4176 19.5451 12.4176C19.6976 12.461 19.8471 12.5074 19.9935 12.5569C20.0179 12.5693 20.0423 12.5786 20.0667 12.5847C20.2009 12.6343 20.3259 12.6838 20.4418 12.7333C20.4601 12.7395 20.4754 12.7457 20.4876 12.7519C20.6218 12.8076 20.7468 12.8663 20.8627 12.9282C20.881 12.9406 20.8994 12.9499 20.9177 12.9561C21.1556 13.0799 21.363 13.2067 21.5399 13.3367C21.5582 13.3491 21.5734 13.3615 21.5856 13.3738C21.6771 13.4357 21.7625 13.5007 21.8418 13.5688C21.8418 13.5688 21.8449 13.5719 21.851 13.5781C21.8937 13.6152 21.9364 13.6523 21.9791 13.6895C21.485 12.9097 20.7621 11.8699 20.2405 11.5636C20.4601 11.2479 20.4601 11.2479 20.4601 11.2479L19.966 11.3129C19.966 11.3129 19.9569 11.3036 19.9569 11.2943C19.9508 11.282 19.9416 11.2665 19.9294 11.2479C19.9294 11.2417 19.9264 11.2356 19.9203 11.2294C19.8745 11.1551 19.8196 11.053 19.7373 10.9137C19.7312 10.9075 19.7281 10.8983 19.7281 10.8859C19.3987 10.3474 18.8222 9.44694 18.3556 9.14987C18.8497 8.67641 18.8497 8.67641 18.8497 8.67641L18.2641 8.89922C18.2641 8.89922 18.261 8.89612 18.2549 8.88993C18.2549 8.88374 18.2549 8.88065 18.2549 8.88065C18.2488 8.87446 18.2427 8.86518 18.2366 8.8528C18.2305 8.84661 18.2244 8.84042 18.2183 8.83423C18.2122 8.82804 18.2031 8.81876 18.1909 8.80638C18.1848 8.80019 18.1787 8.79091 18.1726 8.77853C18.1604 8.76615 18.1482 8.75687 18.136 8.75068C18.1238 8.7383 18.1115 8.72592 18.0993 8.71355C18.081 8.70736 18.0627 8.69807 18.0444 8.6857C18.0261 8.67332 18.0109 8.66094 17.9987 8.64856C17.9743 8.63618 17.9499 8.62381 17.9255 8.61143C17.9072 8.60524 17.8889 8.59905 17.8706 8.59286C17.8401 8.58048 17.8065 8.5681 17.7699 8.55573C17.7516 8.54954 17.7333 8.54335 17.715 8.53716C17.654 8.51859 17.59 8.50312 17.5229 8.49074C18.1451 7.92445 18.1085 7.73878 18.1085 7.73878L16.9373 8.26794C16.9373 8.26794 15.5464 6.89399 15.1438 6.64333C15.5464 6.26271 15.6654 6.10489 15.6654 6.10489L14.6222 6.5505L12.8837 5.51075L13.1673 5.13941L12.4261 5.41792C12.4261 5.41792 10.8157 4.69381 9.36078 5.0373C9.47059 4.87019 9.60785 4.70309 9.7634 4.52671C10.7699 3.43126 12.7922 2.37294 15.7935 2.75356C15.6379 3.22702 15.6105 3.38484 15.6105 3.38484L16.132 2.87425C16.132 2.87425 17.1569 3.03207 18.6026 4.1368C18.3007 4.63811 18.3007 4.63811 18.3007 4.63811L18.7582 4.50814C18.7582 4.50814 19.1882 4.82378 19.5634 5.4829C19.3438 5.76141 19.3438 5.76141 19.3438 5.76141L20.1216 5.69642C20.1216 5.69642 20.9817 6.95897 21.5948 8.1194C21.6009 8.05751 21.6039 7.99872 21.6039 7.94302C21.6039 7.90588 21.6039 7.87185 21.6039 7.8409C21.61 7.71093 21.6192 7.58715 21.6314 7.46956C21.6314 7.451 21.6344 7.43243 21.6405 7.41386C21.6466 7.31484 21.6558 7.222 21.668 7.13536C21.6741 7.09822 21.6802 7.06418 21.6863 7.03324C21.6924 6.95278 21.7015 6.87852 21.7137 6.81044C21.7198 6.77949 21.7259 6.75164 21.732 6.72689C21.7503 6.64024 21.7686 6.55669 21.7869 6.47623C21.793 6.44529 21.7991 6.41434 21.8052 6.3834C21.8174 6.33389 21.8296 6.28437 21.8418 6.23486C21.854 6.20392 21.8632 6.17297 21.8693 6.14203C21.8815 6.0987 21.8937 6.05848 21.9059 6.02134C21.915 6.00278 21.9242 5.97492 21.9242 5.95636C22.1072 5.44577 22.281 5.23225 22.281 5.23225L22.6562 5.66857C22.6562 5.66857 22.6837 5.51075 22.5007 5.00944C23.1503 3.50552 24.0745 2.72571 24.0745 2.72571L24.2941 3.22702C24.2941 3.22702 24.2941 3.21774 24.3033 3.19917C24.3033 3.18989 24.3033 3.18989 24.3033 3.18989C24.3216 3.1249 24.3673 2.9578 24.4588 2.69786C24.4954 2.61431 24.532 2.51219 24.5686 2.41008C25.1908 1.62098 27.149 0.692636 27.149 0.692636L27.3778 0.859738C27.3778 0.859738 27.3778 0.859738 27.3503 0.479116C30.1137 -0.0871748 31.4771 0.00565978 31.4771 0.00565978C30.5255 0.209896 29.5464 2.32652 29.5464 2.32652L29.1804 1.98304C29.1804 1.98304 29.1804 1.98304 29.4092 2.48434C28.8418 2.81855 27.7346 4.38745 27.7346 4.38745L27.2954 4.1368C27.2954 4.1368 27.2954 4.1368 27.634 4.48029C26.9477 5.1487 26.3529 6.18845 26.0876 6.6619C26.0052 6.829 25.9503 6.93112 25.9503 6.93112L25.2183 6.829L25.7307 7.06109L24.9438 9.65118L24.4314 9.83684L24.9438 9.89255L24.8431 10.2825L25.9595 9.51192C25.9595 9.51192 25.9595 9.51192 26.1059 9.79043C26.1242 9.72544 26.1516 9.66046 26.1882 9.60476C26.1943 9.59238 26.2035 9.58 26.2157 9.56763C26.295 9.44385 26.3956 9.33244 26.5177 9.23342C26.5299 9.22723 26.5421 9.21795 26.5543 9.20557C26.6214 9.15606 26.6885 9.10964 26.7556 9.06632C26.8349 9.02299 26.9142 8.97967 26.9935 8.93635C27.0057 8.93635 27.0148 8.93325 27.0209 8.92707C27.0514 8.91469 27.0819 8.89921 27.1124 8.88065C27.1124 8.88684 27.1124 8.88993 27.1124 8.88993C28.0549 8.46289 29.2994 8.33292 29.2994 8.33292L29.2078 8.51859C29.2078 8.51859 29.2994 8.33292 29.8575 8.05442C30.8092 8.15654 31.5961 8.36077 32.2366 8.60214C32.2366 8.59596 32.2366 8.59286 32.2366 8.59286C32.261 8.60524 32.2824 8.61452 32.3007 8.62071C32.3861 8.65166 32.4715 8.6857 32.5569 8.72283C32.6179 8.74759 32.6789 8.77544 32.7399 8.80638C32.8222 8.83423 32.8954 8.87136 32.9686 8.9085C33.0235 8.93635 33.0876 8.9642 33.1425 9.00133C33.2584 9.06322 33.3682 9.12511 33.4719 9.187C33.5207 9.21795 33.5695 9.24889 33.6183 9.27984C33.6732 9.31697 33.7281 9.3541 33.783 9.39124C33.8257 9.42218 33.8684 9.45313 33.9111 9.48407C33.9599 9.52121 34.0057 9.55834 34.0484 9.59547C34.0911 9.62642 34.1307 9.65736 34.1673 9.68831C34.2283 9.74401 34.2863 9.79662 34.3412 9.84613C34.3778 9.88326 34.4144 9.9173 34.451 9.94825C34.4815 9.97919 34.5089 10.0101 34.5333 10.0411C34.5638 10.072 34.5913 10.103 34.6157 10.1339C34.6401 10.1587 34.6614 10.1834 34.6797 10.2082C34.7041 10.2391 34.7255 10.267 34.7438 10.2917C34.7621 10.3165 34.7804 10.3382 34.7987 10.3567C34.8292 10.4 34.8567 10.4403 34.8811 10.4774C34.8902 10.496 34.8993 10.5053 34.9085 10.5238C34.9207 10.5424 34.9329 10.561 34.9451 10.5795C34.9512 10.5919 34.9573 10.6043 34.9634 10.6167C34.9756 10.629 34.9817 10.6414 34.9817 10.6538C34.9878 10.66 34.9909 10.6662 34.9909 10.6724C34.997 10.6847 35 10.6909 35 10.6909C34.8719 10.6538 34.7529 10.6259 34.6248 10.6074C34.5821 10.6012 34.5394 10.595 34.4967 10.5888C34.4052 10.5764 34.3168 10.5671 34.2314 10.561C34.1887 10.5548 34.146 10.5517 34.1033 10.5517C33.9874 10.5455 33.8745 10.5455 33.7647 10.5517C33.722 10.5517 33.6793 10.5548 33.6366 10.561C33.5634 10.561 33.4902 10.564 33.417 10.5702C33.3621 10.5764 33.3102 10.5826 33.2614 10.5888C33.1943 10.6012 33.1303 10.6136 33.0693 10.6259C33.0266 10.6321 32.9839 10.6383 32.9412 10.6445C32.8436 10.6631 32.7521 10.6816 32.6667 10.7002C32.6301 10.7126 32.5904 10.725 32.5477 10.7373C32.4928 10.7497 32.4379 10.7652 32.383 10.7838C32.3525 10.7899 32.322 10.7992 32.2915 10.8116C32.2183 10.8302 32.1451 10.858 32.0719 10.8766C31.7882 10.9787 31.6144 11.0623 31.6144 11.0623L31.4771 10.6909C31.4771 10.6909 31.4771 10.6909 31.3399 11.35C30.7359 11.4429 29.7203 11.8606 29.7203 11.8606L29.2994 11.5357C29.2994 11.5357 29.2994 11.5357 29.4366 12.1948C28.9791 12.297 28.2196 12.8447 27.8902 13.0953C27.7895 13.1789 27.7255 13.2253 27.7255 13.2253L27.2588 12.7054C27.2588 12.7054 27.2588 12.7054 27.3503 13.4667C26.8928 13.6245 26.5085 13.9401 26.2157 14.2465C26.1242 14.3455 26.0449 14.4383 25.9778 14.525C25.9717 14.5312 25.9656 14.5374 25.9595 14.5436C25.9595 14.5436 25.9595 14.5467 25.9595 14.5528C25.9656 14.5528 25.9717 14.5528 25.9778 14.5528C26.0083 14.5652 26.0357 14.5745 26.0601 14.5807C26.1272 14.6054 26.1913 14.6302 26.2523 14.655C26.2645 14.655 26.2736 14.6581 26.2797 14.6642C26.5726 14.7849 26.7281 14.887 26.7281 14.887V15.2305L27.2588 15.017C27.5974 15.3884 29.0248 17.0872 29.0248 17.0872L28.9333 17.5236C28.9333 17.5236 28.9333 17.5236 29.3634 17.4957C30.4431 18.6561 30.9647 20.3736 30.9647 20.3736L30.8732 20.6614C30.8732 20.6614 30.8732 20.6614 31.2484 20.7542C31.4497 21.3019 31.6052 21.8311 31.7333 22.3509C31.7455 22.4066 31.7577 22.4593 31.7699 22.5088C31.7882 22.5954 31.8065 22.679 31.8248 22.7594C31.8492 22.8708 31.8706 22.9791 31.8889 23.0843C31.9011 23.1586 31.9163 23.2329 31.9346 23.3071C31.9529 23.4371 31.9713 23.5609 31.9896 23.6785C31.9957 23.7342 32.0017 23.7868 32.0078 23.8363C32.0322 24.0034 32.0536 24.1643 32.0719 24.319C32.0719 24.384 32.0811 24.449 32.0811 24.5047C32.0933 24.6037 32.1024 24.7028 32.1085 24.8018C32.1146 24.8637 32.1176 24.9256 32.1176 24.9875C32.1237 25.0741 32.1299 25.1607 32.136 25.2474C32.136 25.3093 32.136 25.3681 32.136 25.4238C32.1421 25.5042 32.1451 25.5847 32.1451 25.6651C32.1451 25.7147 32.1451 25.7673 32.1451 25.823ZM15.0889 33.5468L15.098 33.5839C15.1163 33.5468 15.1377 33.5097 15.1621 33.4725C15.1682 33.4416 15.1743 33.4137 15.1804 33.389C15.1804 33.389 15.1773 33.389 15.1712 33.389L15.1072 33.2869C15.1072 33.3054 15.1072 33.3271 15.1072 33.3518C15.1011 33.4137 15.095 33.4787 15.0889 33.5468ZM15.1346 33.7232L15.2078 33.9553C15.2139 33.9429 15.2231 33.9305 15.2353 33.9181L15.1346 33.7232ZM21.851 62.0934C21.8571 62.143 21.8601 62.1801 21.8601 62.2048C21.8601 62.1739 21.8601 62.1306 21.8601 62.0749L21.851 62.0934ZM22.5922 14.1165C22.5861 14.1908 22.5769 14.2682 22.5647 14.3486V14.3393C22.5769 14.3269 22.5891 14.3177 22.6013 14.3115C22.6013 14.3115 22.6013 14.3084 22.6013 14.3022C22.6135 14.296 22.6196 14.2929 22.6196 14.2929L22.7386 14.525C22.7203 14.4786 22.7111 14.4322 22.6928 14.3857C22.6684 14.3115 22.6349 14.2124 22.5922 14.0887C22.5922 14.0949 22.5922 14.1041 22.5922 14.1165ZM17.9804 28.2459C18.6392 27.9025 19.3987 27.5033 19.3987 27.5033L19.4902 28.116C19.4902 28.116 19.5817 27.9953 19.9569 27.4383C21.2745 26.937 23.1503 26.9184 23.1503 26.9184L23.2693 27.364C23.2693 27.364 23.2693 27.364 23.617 26.8256C23.8366 26.7977 24.0928 26.7792 24.3399 26.7699C24.285 25.6651 24.1752 24.5883 24.0928 23.9199C24.0867 23.8518 24.0806 23.7868 24.0745 23.7249C23.983 23.7528 23.8915 23.7806 23.7634 23.8177C23.7909 22.6295 23.315 20.8006 23.0131 19.7609C23.0009 19.7237 22.9917 19.6897 22.9856 19.6587C22.9673 19.603 22.949 19.5473 22.9307 19.4916C22.9307 19.4793 22.9277 19.4669 22.9216 19.4545C22.8667 19.4824 22.8118 19.5009 22.7477 19.5381C22.6928 19.2967 22.6105 18.9996 22.5098 18.684L22.4275 18.8604L21.8144 18.3962L22.1987 19.046L20.8719 22.0075L20.1856 21.7754L20.5699 22.1189L20.149 23.0472L19.5085 23.3907L19.8105 23.5392L19.3895 24.8203L19.1699 25.498L18.8222 25.3866L19.051 25.7301C19.051 25.7301 18.566 26.1386 17.9804 28.2459ZM16.8458 32.2843C16.736 32.34 16.6292 32.3957 16.5255 32.4514C16.5072 32.4637 16.4858 32.4761 16.4614 32.4885C16.434 32.4978 16.4157 32.5163 16.3882 32.5349C16.4309 32.5102 16.4736 32.4885 16.5163 32.4699C16.5407 32.4575 16.5682 32.4483 16.5987 32.4421C16.678 32.4049 16.7573 32.3709 16.8366 32.34C16.861 32.3338 16.8885 32.3245 16.919 32.3121C16.98 32.2935 17.041 32.2719 17.102 32.2471C17.1325 32.2409 17.163 32.2316 17.1935 32.2193C17.2667 32.1945 17.3399 32.1729 17.4131 32.1543C17.4253 32.1481 17.4405 32.1419 17.4588 32.1357C17.5442 32.111 17.6296 32.0893 17.715 32.0707C17.7394 32.0645 17.7638 32.0584 17.7882 32.0522C17.8614 32.0336 17.9346 32.015 18.0078 31.9965C18.0261 31.9903 18.0414 31.9872 18.0536 31.9872C19.1059 31.7458 20.0209 31.6901 20.0209 31.6901L19.9477 32.145C19.9477 32.145 19.9477 32.145 20.4601 31.7087C21.5765 31.6994 22.9033 31.9222 22.9033 31.9222L22.7111 32.3585L23.3699 31.9593L24.4039 32.1636C24.4314 31.8386 24.4588 31.5044 24.4771 31.1702C24.1386 31.1981 23.7176 31.2259 23.4157 31.2538C22.766 31.3373 22.2078 31.4302 22.2078 31.4302L21.9516 31.0588L21.9699 31.5787L20.3686 31.6437L20.2405 31.4209C20.2222 31.4147 20.2009 31.4116 20.1765 31.4116C20.1765 31.4487 20.1673 31.5137 20.1673 31.5973C18.7582 31.5601 17.6601 31.8851 16.8458 32.2843ZM16.7268 35.682L17.9804 37.8172L17.7059 37.9379C17.7486 38.0183 17.7913 38.105 17.834 38.1978C17.8401 38.2102 17.8462 38.2257 17.8523 38.2442C17.9011 38.3433 17.9529 38.4485 18.0078 38.5599C18.0139 38.5784 18.02 38.5939 18.0261 38.6063C18.081 38.7301 18.1359 38.8569 18.1909 38.9869C18.197 38.9993 18.203 39.0086 18.2091 39.0148C18.2641 39.1447 18.319 39.2778 18.3739 39.414C18.3861 39.4387 18.3952 39.4635 18.4013 39.4882C18.4501 39.6058 18.4989 39.7234 18.5477 39.841C18.566 39.8781 18.5843 39.9184 18.6026 39.9617C18.6392 40.0545 18.6758 40.1473 18.7124 40.2402C18.7948 40.4258 18.868 40.6115 18.9412 40.7879C18.9412 40.7879 18.9412 40.791 18.9412 40.7972C19.2889 41.6791 19.5634 42.3939 19.5634 42.3939L19.2614 42.6167C19.2675 42.6353 19.2706 42.6508 19.2706 42.6632C19.2767 42.6755 19.2828 42.6879 19.2889 42.7003C19.3011 42.7622 19.3163 42.821 19.3346 42.8767C19.3712 42.9943 19.4048 43.115 19.4353 43.2387C19.4414 43.2573 19.4475 43.2759 19.4536 43.2944C19.4536 43.3006 19.4536 43.3037 19.4536 43.3037C20.1033 45.7824 20.4876 48.4468 20.4876 48.4468L20.2314 48.4282C20.2314 48.4344 20.2314 48.4375 20.2314 48.4375C21.0183 50.6841 21.0457 54.0261 21.0457 54.0261L20.8811 54.0818C20.8872 54.1189 20.8902 54.1561 20.8902 54.1932C20.8963 54.2118 20.8993 54.2273 20.8993 54.2396C20.9176 54.3696 20.9359 54.512 20.9542 54.6667C21.0641 55.6414 21.1556 56.9504 21.2105 57.8509L21.2837 57.5724H21.2288L22.4183 52.8657L22.5281 52.4386C22.4183 52.4077 22.2933 52.3706 22.1529 52.3272C22.6654 51.3896 23.132 49.338 23.3791 48.1033C23.4248 47.8805 23.4706 47.6855 23.498 47.5277C23.3699 47.4998 23.2327 47.472 23.068 47.4349C23.6445 46.3487 23.8 44.622 23.8458 44.0278C23.6994 44.0185 23.5255 44 23.315 43.9814C23.919 42.9881 24.0654 41.2706 24.102 40.2587C24.1081 40.1969 24.1111 40.1381 24.1111 40.0824C24.1111 40.0762 24.1111 40.0731 24.1111 40.0731C24.1111 39.9926 24.1111 39.9184 24.1111 39.8503H23.8641L24.0745 37.5758L23.5163 37.1766L23.4889 37.1581L23.4523 36.4989L23.1503 37.0931L22.3725 36.9631L22.281 36.369L21.8784 37.0652L19.5909 35.9327L19.3438 35.1807L19.1882 36.0905L18.0811 35.812L17.7974 34.9579L17.3673 35.9605L16.7268 35.682ZM20.1307 62.8083C20.1429 62.8083 20.1521 62.8083 20.1582 62.8083C20.1582 62.8083 20.1582 62.8052 20.1582 62.799C20.1582 62.7897 20.1399 62.799 20.1307 62.8083ZM21.4758 8.64856H21.5948C21.5948 8.60524 21.5948 8.56192 21.5948 8.51859C21.4758 8.64856 21.4758 8.64856 21.4758 8.64856Z" fill="white"/>
</svg>
