<svg width="770" height="130" viewBox="0 0 770 130" fill="none" xmlns="http://www.w3.org/2000/svg">
<path d="M3.64608 14.9617C4.43987 10.4007 8.26056 6.98087 12.8813 6.69538L121.25 0L237.5 7.18232L353.75 10.7735L470 7.18232L586.25 3.59116L702.5 7.18232L818.75 14.3646L925.756 7.75344C930.972 7.43118 935.557 11.1794 936.277 16.3554L938.808 34.5326C938.935 35.4475 938.935 36.3757 938.808 37.2906L935 64.6409L931.192 91.9912C931.065 92.9061 931.065 93.8342 931.192 94.7492L933.52 111.471C934.32 117.216 930.081 122.434 924.294 122.827L818.75 130L702.5 122.099L586.25 117.79L470 122.099L353.75 115.635L237.5 122.099L121.25 130L16.0776 122.852C10.156 122.45 5.88608 117.008 6.90376 111.161L9.70159 95.0848C9.89905 93.9502 9.89905 92.7901 9.70159 91.6556L5 64.6409L0.298408 37.6262C0.100953 36.4917 0.100953 35.3315 0.298408 34.197L3.64608 14.9617Z" fill="#BC603B"/>
</svg>
