<svg width="95" height="71" viewBox="0 0 95 71" fill="none" xmlns="http://www.w3.org/2000/svg">
<path d="M80.0785 42.6543C80.0785 42.6543 88.9782 52.8685 89.6167 54.4474C90.0911 56.0573 88.0236 65.796 87.6954 65.8581C87.2031 65.9511 83.522 67.1571 84.1115 70.2749L89.2606 69.6412L90.8572 67.2997L94.2644 54.7583L86.3724 32.7963L78.9925 36.9111L80.0785 42.6543Z" fill="#281203"/>
<path d="M39.8008 41.5072C38.8383 42.7089 38.2661 44.1768 37.6939 45.6447C36.9783 47.253 36.3069 48.7963 35.6799 50.2745C35.4759 50.9929 35.1077 51.7424 35.2318 52.3988C35.3559 53.0551 35.6132 53.5163 35.9014 54.1417C37.4135 56.745 41.9764 62.0008 39.8474 65.1227C39.1821 66.0983 37.4392 66.7678 37.6564 67.9164C39.4835 68.5907 41.6477 68.3514 43.5237 67.4868C43.8519 67.4248 43.9848 67.2296 44.1179 67.0345C44.5481 66.6133 44.393 65.7928 44.1359 65.3315C42.8856 61.7155 41.6899 58.0892 40.5491 54.4526C40.1367 53.1709 39.6934 51.7251 39.7733 50.3503C40.0574 48.257 41.6142 46.6029 42.8117 44.8469C43.9783 42.9267 44.7235 40.5763 43.5307 38.7623C41.9208 39.2367 40.7322 40.1413 39.8008 41.5072Z" fill="#281203"/>
<path d="M84.6398 13.7485C86.9073 16.1524 89.1201 18.5667 91.2782 20.9912C91.9566 21.8827 92.768 22.579 93.3134 23.6656C94.085 25.0494 94.3953 26.6904 94.3464 28.2292C94.5236 30.0653 94.4036 32.1274 93.5342 33.8214C91.9995 36.4911 88.3806 38.0252 87.9546 41.165C87.9146 41.8524 87.9677 43.0321 87.1783 43.3513C86.4199 43.8347 85.4443 43.1694 85.2891 42.3489C85.134 41.5285 85.6352 40.5839 86.1985 39.9675C87.396 38.2114 89.0149 36.8855 90.4386 35.4266C91.8623 33.9677 93.0599 32.2116 93.1488 29.9853C93.1446 27.2667 90.8741 25.1467 88.9629 23.1286C87.0517 21.1106 85.0474 18.6003 85.7306 15.9218" fill="#281203"/>
<path d="M0.409831 3.33209C0.706986 3.10594 1.00402 2.87983 1.62936 2.59163C3.80254 1.50086 7.72298 2.45916 10.2864 1.63452C11.5371 1.05811 12.9518 0.450663 14.3887 0.858801C16.9032 1.57304 17.0315 4.94795 17.3638 7.60445C17.6473 11.7998 19.8598 16.3103 23.8732 17.7609C31.2126 20.622 42.8859 13.1459 44.9265 5.96162C45.6408 3.44714 46.497 -0.113953 49.0825 0.0769844C50.2622 0.0238756 51.2998 1.01738 52.1734 2.04191C56.3861 6.3441 61.1793 14.6156 68.1421 12.7891C71.526 11.8093 74.5687 9.02448 78.1697 9.19334C80.8883 9.18915 83.4248 10.9189 85.0389 13.1631C88.4311 17.6204 90.0447 26.1532 87.7957 31.3373C84.6774 38.2155 82.4285 43.3996 82.5741 51.3602C82.7203 53.0321 82.6712 54.571 82.2941 56.1719C81.4468 58.8816 79.1006 60.8549 77.699 63.3294C76.8606 65.1875 76.6787 66.9215 76.7229 68.9527C73.8372 69.2717 70.9546 69.3069 68.075 69.0582C68.257 67.3242 69.6497 65.7012 71.4547 65.3599C71.947 65.2668 72.3061 65.3689 72.7673 65.1117C73.0645 64.8856 73.1976 64.6904 73.2996 64.3312C74.8964 61.9897 78.5601 56.1982 78.0016 53.2445C77.8464 52.4241 77.168 51.5326 76.6846 50.7742C73.8615 47.2291 71.0382 43.6839 68.215 40.1387C65.7274 36.87 59.8954 40.1823 56.7067 41.2951C52.7285 42.7272 48.9011 42.2612 44.7057 42.5446C43.5261 42.5977 42.3774 42.8149 41.517 43.6574C39.7961 45.3425 39.4632 48.9747 38.3588 51.223C37.0192 54.0257 35.7505 56.3051 35.1914 59.64C34.9014 62.3009 34.6011 64.9071 34.2904 67.4586C34.1884 67.8178 34.1175 68.3411 33.8204 68.5673C33.5232 68.7934 33.1949 68.8555 32.8357 68.7535C30.9346 68.8863 29.078 68.9542 27.2656 68.957C26.5782 68.917 25.8908 68.877 25.6336 68.4158C25.3454 67.7904 25.9086 67.174 26.3698 66.9168C26.9952 66.6286 27.6517 66.5045 28.3081 66.3804C29.5898 65.968 30.4191 64.9614 30.8582 63.6887C31.3284 62.58 31.4084 61.2052 31.5194 59.9944C32.5403 50.1137 34.2265 39.2574 31.3492 29.434C30.9796 29.2772 30.5555 29.1309 30.0765 28.9949C27.593 28.4447 25.0385 28.4178 22.524 27.7036C15.832 25.5698 14.2938 19.2323 10.7554 13.103C9.53158 11.125 5.82834 11.3153 3.87714 9.98467C2.93257 9.48345 0.724341 7.69156 0.711214 5.82449C0.729106 4.12151 -0.0203838 3.75336 0.409831 3.33209Z" fill="#281203"/>
</svg>
