<svg width="55" height="61" viewBox="0 0 55 61" fill="none" xmlns="http://www.w3.org/2000/svg">
<path d="M13.5499 41.8475C13.5499 41.8475 8.95813 49.0187 8.72885 50.1653C8.51086 51.2067 10.7451 57.0922 10.9663 57.0096C11.2811 57.0436 13.6722 57.515 13.6673 59.5378L10.264 59.596L9.14033 58.1967L5.80501 50.7013L8.63559 36.2048L13.6307 38.129L13.5499 41.8475Z" fill="white"/>
<path d="M30.7164 41.1466C30.7713 41.2945 30.8262 41.4425 30.8811 41.5904C31.48 42.933 31.614 44.6513 31.8755 46.1704C32.476 49.1461 32.8279 52.1305 32.9311 55.1234C33.0392 56.0935 33.1361 57.1689 33.8255 57.6693C34.5149 58.1698 35.6805 58.1893 35.8113 58.9488C34.7764 59.6889 33.4606 60.0792 32.2013 59.9431C31.9914 59.9204 31.8865 59.9091 31.6879 59.7812C31.3957 59.5366 31.3359 59.1042 31.3811 58.6831C31.4248 54.3217 30.4079 49.9521 28.3899 46.0068C27.9669 45.0027 26.1426 43.2082 26.698 41.9903C27.1033 41.1821 28.4643 40.3708 29.1731 39.7019C29.8624 40.2024 30.3532 40.5749 30.7164 41.1466Z" fill="white"/>
<path d="M51.767 13.1777C53.84 12.6562 55.017 12.5704 54.9993 10.7582C55.0413 9.37831 53.1782 9.92242 52.3273 9.93698C50.2995 10.0373 49.1452 9.91257 47.2305 8.96023C46.2263 8.42575 45.0009 7.97388 43.8837 8.49211C42.9877 8.92774 42.5485 10.0517 42.3418 10.9878C42.2287 12.0405 42.4305 13.1272 42.3288 14.0747C42.1801 18.4248 37.3559 25.7839 32.3721 23.7544C30.551 22.9187 29.2514 21.1808 28.7202 19.2066C28.2489 17.6648 27.7404 15.48 26.1437 15.5205C25.2928 15.535 24.7003 16.11 24.1078 16.6849C21.4713 19.4882 18.4585 24.8068 14.0252 23.5823C11.8553 23.0283 9.92612 21.2224 7.69976 21.1948C5.9981 21.2239 4.39326 22.3284 3.27923 23.8054C0.668527 27.357 0.826574 32.8052 1.43512 37.0241C2.74904 46.5374 -0.970768 49.5432 0.249707 52.0179C0.942277 53.4771 1.2974 55.1129 1.66385 56.6434C1.86833 57.3754 2.06903 58.1425 2.26597 58.9447C2.40803 59.599 2.30631 60.5465 3.01829 60.8364C3.22064 60.9293 3.39554 60.9482 3.54299 60.8931C4.17264 60.9611 4.77108 60.9903 5.3383 60.9806C5.863 61.0373 6.29408 60.9774 6.64282 60.6956C6.3506 60.451 6.30217 59.9134 6.00995 59.6688C5.91632 59.5522 5.71774 59.4243 5.50786 59.4016C5.23555 59.3012 4.96326 59.2007 4.69096 59.1003C4.58602 59.089 4.38742 58.961 4.29378 58.8444C4.0952 58.7164 4.11782 58.5059 4.02418 58.3893C3.53559 56.3487 3.11698 54.3156 2.76831 52.29C2.69728 51.9629 2.71985 51.7524 2.75376 51.4365C2.77637 51.226 2.83023 51.0543 2.91526 50.9215C3.51589 49.2826 3.90662 47.6209 4.82207 46.016C5.72622 44.5163 6.82892 43.1446 8.03658 41.7842C8.65172 40.9987 9.37179 40.2246 10.3615 39.9056C12.131 39.2449 14.0005 40.6183 15.7167 41.4427C19.7673 43.2648 24.4606 42.0681 28.8794 42.4391C29.5091 42.5071 30.3486 42.5978 30.8168 43.1809C31.2027 43.5421 31.3673 43.9858 31.532 44.4296C31.8387 45.5276 32.1842 46.5944 32.5684 47.6298C32.7928 48.506 33.2609 49.089 32.9267 50.2243C32.7087 51.2657 31.5915 51.7839 30.5114 52.9451C29.3037 54.3055 28.2042 56.636 27.1951 58.1243C26.9513 58.4175 26.8125 58.7219 26.8948 58.9438C27.0821 59.177 27.2919 59.1997 27.3969 59.211C28.4237 59.535 29.5006 59.7224 30.6275 59.7731C30.9536 59.7019 31.5009 59.5481 31.4298 59.2209C31.3475 58.999 31.149 58.871 31.044 58.8597C30.6469 58.6038 30.2147 58.3441 29.7476 58.0807C30.7535 55.6336 32.9508 53.9541 34.5411 51.9962C36.3639 49.8503 36.7176 47.5457 36.3818 44.7406C35.8895 40.4278 36.6501 34.3334 38.77 30.4093C40.3458 27.5978 42.9403 26.1743 43.8155 22.9676C44.4274 21.2234 45.7966 19.348 46.6071 17.7317C47.7292 15.1907 49.2516 13.8643 51.767 13.1777Z" fill="white"/>
<path d="M19.7426 0.984773C18.4042 1.58559 18.0021 3.35245 17.3305 4.66427C16.3811 6.58503 14.3453 7.74948 13.01 9.30907C10.8159 11.9473 10.2216 15.5037 9.75496 18.8611C9.5741 20.5454 9.38193 22.335 9.73707 23.9707C10.0809 25.7118 10.8558 27.3929 12.3508 28.2998C13.4373 29.0562 14.9065 29.215 16.1771 29.2458C18.602 29.4013 21.4322 28.7487 22.4042 26.6174C23.1097 24.9898 22.5786 23.0156 21.6875 21.4284C20.9126 19.7473 19.8003 18.2427 19.6776 16.4191C21.2355 18.7173 23.7008 20.4745 26.3953 21.0851C26.0757 20.7666 25.7211 20.4443 25.3314 20.1182C24.2788 19.0461 23.11 18.0678 22.2898 16.8078C20.3574 14.0432 19.8683 10.6891 19.3679 7.44026C21.0582 7.51642 22.6744 6.30664 23.0538 4.75026C23.5495 3.09996 22.6923 1.19697 21.1747 0.500527" fill="white"/>
<path d="M23.1458 0.926433C22.0479 0.275345 21.6508 0.0194666 20.4851 0C19.2032 0.0744641 16.1066 1.23071 16.3649 1.79108C16.6119 2.45672 26.6781 4.6094 27.0382 4.22233C27.3046 3.71866 24.5471 1.71681 23.1458 0.926433Z" fill="white"/>
<path d="M45.8515 14.8812C44.7083 21.5731 43.8605 29.4684 37.5091 33.2548C29.7966 37.8525 23.2679 30.438 18.402 25.333C18.2147 25.0998 17.9709 25.3929 18.0532 25.6148C22.199 31.4939 29.0055 38.2994 36.8261 34.6718C44.2043 31.2094 45.8061 22.2242 46.2713 14.9265C46.2939 14.716 45.8742 14.6706 45.8515 14.8812Z" fill="white"/>
</svg>
