<svg width="450" height="110" viewBox="0 0 450 110" fill="none" xmlns="http://www.w3.org/2000/svg">
<path d="M1.59976 14.157C2.06385 9.44875 5.76392 5.70997 10.4671 5.19691L57.0226 0.118299C57.7434 0.0396661 58.4706 0.0396661 59.1915 0.118299L113.818 6.07735L169.529 9.11602L225.24 6.07735L280.95 3.03867L336.661 6.07735L391.288 12.0364C392.009 12.115 392.736 12.115 393.457 12.0364L437.84 7.19478C443.447 6.58313 448.45 10.7269 448.893 16.3497L449.938 29.6006C449.979 30.1239 449.979 30.6496 449.938 31.1729L448.083 54.6961L446.228 78.2194C446.187 78.7427 446.187 79.2684 446.228 79.7916L447.328 93.7439C447.75 99.0917 443.877 103.82 438.551 104.459L393.564 109.857C392.772 109.952 391.972 109.952 391.181 109.857L336.661 103.315L280.95 99.6685L226.056 103.261C225.513 103.297 224.967 103.288 224.426 103.235L170.506 97.9412C169.856 97.8774 169.201 97.8774 168.552 97.9412L113.818 103.315L59.2984 109.857C58.507 109.952 57.7071 109.952 56.9156 109.857L12.1169 104.481C6.71533 103.833 2.82289 98.9858 3.35656 93.5717L4.69564 79.9865C4.75995 79.3341 4.75995 78.677 4.69564 78.0246L2.39617 54.6961L0.0966909 31.3677C0.0323861 30.7153 0.0323862 30.0582 0.096691 29.4058L1.59976 14.157Z" fill="#BC603B"/>
</svg>
