<svg width="300" height="90" viewBox="0 0 300 90" fill="none" xmlns="http://www.w3.org/2000/svg">
<path d="M0.951656 13.013C1.32852 8.32072 4.92687 4.52663 9.5926 3.90199L37.4111 0.177653C38.2918 0.0597437 39.1843 0.0597437 40.065 0.177653L75.8786 4.97238L113.019 7.45856L150.16 4.97238L187.3 2.48619L224.441 4.97238L260.255 9.7671C261.135 9.88501 262.028 9.88501 262.908 9.7671L288.103 6.3941C293.845 5.62526 299.038 9.88241 299.409 15.6645L300 24.8619L298.722 44.7514L297.444 64.6409L298.131 75.338C298.465 80.5323 294.758 85.1141 289.609 85.8725L263.038 89.7854C262.072 89.9277 261.091 89.9277 260.125 89.7854L224.441 84.5304L188.101 81.6113C187.568 81.5685 187.033 81.5685 186.5 81.6113L151.16 84.45C150.495 84.5035 149.826 84.4902 149.163 84.4103L114.215 80.1994C113.421 80.1036 112.618 80.1036 111.823 80.1994L75.8786 84.5304L40.195 89.7854C39.2289 89.9277 38.2472 89.9277 37.2811 89.7854L10.8577 85.8941C5.6474 85.1268 1.92517 80.4499 2.3468 75.2003L3.13059 65.4415C3.17339 64.9086 3.17339 64.3732 3.13059 63.8403L1.59744 44.7514L0.0642995 25.6625C0.0215021 25.1296 0.0215021 24.5942 0.0642995 24.0613L0.951656 13.013Z" fill="#BC603B"/>
</svg>
