<svg width="108" height="119" viewBox="0 0 108 119" fill="none" xmlns="http://www.w3.org/2000/svg">
<path d="M81.3929 81.6369C81.3929 81.6369 90.4095 95.6266 90.8597 97.8635C91.2878 99.895 86.9005 111.377 86.4662 111.215C85.848 111.282 81.1528 112.201 81.1624 116.147L87.8453 116.261L90.0517 113.531L96.6011 98.9091L91.0428 70.629L81.2342 74.3828L81.3929 81.6369Z" fill="#281203"/>
<path d="M47.6841 80.2696C47.5763 80.5581 47.4685 80.8468 47.3607 81.1353C46.1847 83.7545 45.9216 87.1066 45.4081 90.0702C44.2289 95.8752 43.538 101.697 43.3353 107.536C43.1229 109.428 42.9327 111.526 41.579 112.502C40.2254 113.479 37.9365 113.517 37.6797 114.999C39.7119 116.442 42.2956 117.204 44.7684 116.938C45.1805 116.894 45.3866 116.872 45.7765 116.622C46.3503 116.145 46.4676 115.302 46.3789 114.48C46.293 105.972 48.29 97.4475 52.2526 89.7509C53.0831 87.7921 56.6654 84.2913 55.5748 81.9155C54.779 80.3389 52.1065 78.7561 50.7147 77.4512C49.3611 78.4276 48.3974 79.1543 47.6841 80.2696Z" fill="#281203"/>
<path d="M6.34842 25.7072C2.2778 24.69 -0.0334091 24.5227 0.00136566 20.9872C-0.081131 18.2954 3.57744 19.3569 5.24815 19.3852C9.22998 19.581 11.4966 19.3376 15.2565 17.4798C17.2283 16.4371 19.6345 15.5556 21.8284 16.5666C23.5879 17.4164 24.4503 19.609 24.8561 21.4352C25.0781 23.4888 24.6819 25.6089 24.8817 27.4571C25.1736 35.9434 34.6466 50.2996 44.433 46.3406C48.009 44.7102 50.561 41.32 51.6039 37.4686C52.5295 34.4608 53.528 30.1988 56.6634 30.2777C58.3341 30.3061 59.4976 31.4276 60.6611 32.5492C65.8382 38.018 71.7543 48.3935 80.4597 46.0047C84.7205 44.9241 88.5087 41.4011 92.8805 41.3473C96.2219 41.4041 99.3732 43.5588 101.561 46.4401C106.687 53.3687 106.377 63.997 105.182 72.2274C102.602 90.786 109.906 96.6498 107.51 101.478C106.15 104.324 105.452 107.515 104.733 110.501C104.331 111.929 103.937 113.426 103.55 114.991C103.272 116.267 103.471 118.115 102.073 118.681C101.676 118.862 101.332 118.899 101.043 118.791C99.8065 118.924 98.6313 118.981 97.5175 118.962C96.4872 119.073 95.6407 118.956 94.9559 118.406C95.5297 117.929 95.6248 116.88 96.1986 116.403C96.3825 116.176 96.7724 115.926 97.1846 115.882C97.7193 115.686 98.254 115.49 98.7887 115.294C98.9947 115.272 99.3847 115.022 99.5686 114.795C99.9585 114.545 99.9141 114.135 100.098 113.907C101.057 109.926 101.879 105.96 102.564 102.008C102.704 101.37 102.659 100.96 102.593 100.343C102.548 99.9327 102.442 99.5978 102.275 99.3387C101.096 96.1414 100.329 92.8999 98.5312 89.7689C96.7558 86.8433 94.5905 84.1673 92.2191 81.5135C91.0112 79.9812 89.5972 78.471 87.6538 77.8486C84.1792 76.5597 80.5081 79.2389 77.1382 80.8471C69.1842 84.4017 59.9682 82.0672 51.2913 82.791C50.0549 82.9237 48.4063 83.1007 47.487 84.2381C46.7293 84.9427 46.406 85.8083 46.0827 86.674C45.4804 88.8162 44.802 90.8973 44.0476 92.9172C43.6069 94.6265 42.6876 95.7638 43.3439 97.9786C43.772 100.01 45.9658 101.021 48.0868 103.286C50.4582 105.94 52.6172 110.487 54.5987 113.39C55.0774 113.962 55.3501 114.556 55.1884 114.989C54.8207 115.444 54.4085 115.488 54.2025 115.51C52.1862 116.142 50.0716 116.508 47.8588 116.607C47.2184 116.468 46.1438 116.168 46.2833 115.529C46.4449 115.096 46.8348 114.847 47.0408 114.825C47.8207 114.325 48.6692 113.819 49.5865 113.305C47.6113 108.531 43.2966 105.255 40.1738 101.435C36.5945 97.2489 35.9 92.7531 36.5593 87.2809C37.526 78.8673 36.0325 66.9783 31.8698 59.323C28.7755 53.8383 23.6808 51.0613 21.9624 44.8057C20.7608 41.403 18.0722 37.7445 16.4807 34.5914C14.2772 29.6343 11.2877 27.0467 6.34842 25.7072Z" fill="#281203"/>
<path d="M69.2327 1.92111C71.8608 3.0932 72.6503 6.54003 73.9692 9.09914C75.8334 12.8462 79.8311 15.1178 82.453 18.1603C86.7615 23.3069 87.9284 30.245 88.8448 36.7945C89.2 40.0803 89.5773 43.5715 88.8799 46.7626C88.2048 50.159 86.6831 53.4385 83.7475 55.2079C81.614 56.6834 78.729 56.9931 76.2341 57.0532C71.4724 57.3566 65.9149 56.0836 64.0063 51.9258C62.6209 48.7506 63.6638 44.8992 65.4137 41.8029C66.9353 38.5234 69.1195 35.5882 69.3603 32.0306C66.3011 36.514 61.4603 39.942 56.1692 41.1333C56.7969 40.5119 57.4932 39.8832 58.2583 39.2471C60.3252 37.1554 62.6204 35.2471 64.2309 32.789C68.0255 27.3957 68.9859 20.8525 69.9685 14.5146C66.6493 14.6632 63.4758 12.3031 62.7307 9.26691C61.7573 6.04746 63.4407 2.33508 66.4206 0.976438" fill="#281203"/>
<path d="M62.5501 1.8073C64.7059 0.537148 65.4858 0.0379758 67.7747 0C70.2919 0.145266 76.3725 2.40089 75.8653 3.49408C75.3803 4.79262 55.6138 8.9921 54.9069 8.23701C54.3837 7.25444 59.7984 3.34919 62.5501 1.8073Z" fill="#281203"/>
<path d="M17.9642 29.0305C20.2091 42.0853 21.8739 57.4876 34.3459 64.8741C49.4903 73.8433 62.3104 59.379 71.8652 49.4202C72.2329 48.9652 72.7118 49.537 72.5501 49.9699C64.4092 61.4389 51.0438 74.7152 35.6869 67.6385C21.1988 60.884 18.0535 43.3554 17.1401 29.119C17.0957 28.7082 17.9198 28.6198 17.9642 29.0305Z" fill="#281203"/>
</svg>
