<svg width="150" height="40" viewBox="0 0 150 40" fill="none" xmlns="http://www.w3.org/2000/svg">
<path d="M0.0801102 10.1631C0.499025 5.52681 4.10577 1.81639 8.72834 1.26629L18.1873 0.140628C18.9723 0.0472057 19.7657 0.0472056 20.5507 0.140628L37.9393 2.20994L56.5096 3.31492L75.0799 2.20994L93.6502 1.10497L112.22 2.20994L129.609 4.27926C130.394 4.37268 131.187 4.37268 131.972 4.27926L141.128 3.18966C145.612 2.65607 149.633 5.97539 149.959 10.479V10.479C149.986 10.859 149.986 11.2404 149.959 11.6204L149.361 19.8895L148.768 28.1003C148.737 28.5191 148.737 28.9395 148.768 29.3583V29.3583C149.101 33.968 145.781 38.0377 141.198 38.6376L132.089 39.8301C131.227 39.9429 130.354 39.9429 129.493 39.8301L112.22 37.5691L94.3624 36.2939C93.8882 36.2601 93.4122 36.2601 92.9379 36.2939L75.9699 37.5055C75.3777 37.5478 74.783 37.5373 74.1927 37.474L57.5745 35.6942C56.8666 35.6183 56.1526 35.6183 55.4446 35.6942L37.9393 37.5691L20.667 39.8301C19.8053 39.9429 18.9327 39.9429 18.071 39.8301L8.84289 38.6221C4.34904 38.0338 1.12094 34.003 1.52878 29.4892V29.4892C1.57446 28.9836 1.57446 28.475 1.52878 27.9694L0.798722 19.8895L0.0801102 11.9363C0.0268119 11.3465 0.026812 10.753 0.0801102 10.1631V10.1631Z" fill="#BC603B"/>
</svg>
