<svg width="939" height="130" viewBox="0 0 939 130" fill="none" xmlns="http://www.w3.org/2000/svg">
<path d="M237.469 7.68137L237.477 7.68184L237.485 7.68208L353.735 11.2732L353.75 11.2737L353.765 11.2732L470.015 7.68208L586.25 4.0914L702.469 7.68137L702.485 7.68208L818.719 14.8637L818.75 14.8656L818.781 14.8637L925.787 8.25249C930.742 7.94634 935.097 11.5072 935.782 16.4244L938.313 34.6015C938.434 35.4707 938.434 36.3525 938.313 37.2217L934.505 64.5719L930.697 91.9222C930.563 92.8829 930.563 93.8575 930.697 94.8181L933.025 111.54C933.785 116.998 929.757 121.955 924.26 122.328L818.75 129.499L702.534 121.601L702.526 121.6L702.518 121.6L586.268 117.29L586.25 117.29L586.232 117.29L470.005 121.599L353.778 115.136L353.75 115.135L353.722 115.136L237.472 121.6L237.466 121.601L121.25 129.499L16.1115 122.353C10.4859 121.971 6.42956 116.801 7.39636 111.246L10.1942 95.1705C10.4015 93.9792 10.4015 92.7611 10.1942 91.5698L5.4926 64.5552L0.791004 37.5405C0.603422 36.4627 0.603422 35.3605 0.791004 34.2827L4.13868 15.0475C4.89278 10.7145 8.52244 7.46565 12.9122 7.19443L121.25 0.500953L237.469 7.68137Z" stroke="#FFE601"/>
</svg>
