<svg width="680" height="120" viewBox="0 0 680 120" fill="none" xmlns="http://www.w3.org/2000/svg">
<path d="M2.5308 14.6135C3.16709 9.95338 6.9649 6.36648 11.6538 5.99722L87.0211 0.0618285C87.5437 0.0206731 88.0687 0.0206733 88.5913 0.0618287L171.991 6.62983L256.177 9.94475L340.362 6.62983L424.547 3.31492L508.733 6.62983L592.133 13.1978C592.656 13.239 593.181 13.239 593.703 13.1978L667.431 7.39157C672.819 6.9672 677.57 10.9016 678.157 16.2749L679.881 32.0633C679.96 32.7851 679.96 33.5133 679.881 34.235L677.103 59.6685L674.325 85.102C674.246 85.8238 674.246 86.5519 674.325 87.2737L675.993 102.541C676.602 108.119 672.505 113.106 666.915 113.59L593.781 119.925C593.207 119.975 592.629 119.975 592.055 119.925L508.733 112.707L424.547 108.729L340.362 112.707L256.177 106.74L171.991 112.707L88.6692 119.925C88.0949 119.975 87.5174 119.975 86.9431 119.925L14.0871 113.614C8.39212 113.121 4.26875 107.962 5.04207 102.298L7.05704 87.5407C7.17961 86.6429 7.17961 85.7327 7.05704 84.835L3.62087 59.6685L0.18471 34.502C0.0621386 33.6043 0.0621386 32.6941 0.18471 31.7964L2.5308 14.6135Z" fill="#BC603B"/>
</svg>
