<svg width="1267" height="121" viewBox="0 0 1267 121" fill="none" xmlns="http://www.w3.org/2000/svg">
<path d="M420.393 83.6369C420.393 83.6369 429.409 97.6266 429.86 99.8635C430.288 101.895 425.9 113.377 425.466 113.215C424.848 113.282 420.153 114.201 420.162 118.147L426.845 118.261L429.052 115.531L435.601 100.909L430.043 72.629L420.234 76.3828L420.393 83.6369Z" fill="#281203"/>
<path d="M386.684 82.2696C386.576 82.5581 386.469 82.8468 386.361 83.1353C385.185 85.7545 384.922 89.1066 384.408 92.0702C383.229 97.8752 382.538 103.697 382.335 109.536C382.123 111.428 381.933 113.526 380.579 114.502C379.225 115.479 376.936 115.517 376.68 116.999C378.712 118.442 381.296 119.204 383.768 118.938C384.181 118.894 384.387 118.872 384.777 118.622C385.35 118.145 385.468 117.302 385.379 116.48C385.293 107.972 387.29 99.4475 391.253 91.7509C392.083 89.7921 395.665 86.2913 394.575 83.9155C393.779 82.3389 391.106 80.7561 389.715 79.4512C388.361 80.4276 387.397 81.1543 386.684 82.2696Z" fill="#281203"/>
<path d="M345.348 27.7072C341.278 26.69 338.967 26.5227 339.001 22.9872C338.919 20.2954 342.577 21.3569 344.248 21.3852C348.23 21.581 350.497 21.3376 354.256 19.4798C356.228 18.4371 358.635 17.5556 360.828 18.5666C362.588 19.4164 363.45 21.609 363.856 23.4352C364.078 25.4888 363.682 27.6089 363.882 29.4571C364.174 37.9434 373.647 52.2996 383.433 48.3406C387.009 46.7102 389.561 43.32 390.604 39.4686C391.53 36.4608 392.528 32.1988 395.663 32.2777C397.334 32.3061 398.498 33.4276 399.661 34.5492C404.838 40.018 410.754 50.3935 419.46 48.0047C423.72 46.9241 427.509 43.4011 431.88 43.3473C435.222 43.4041 438.373 45.5588 440.561 48.4401C445.687 55.3687 445.377 65.997 444.182 74.2274C441.602 92.786 448.906 98.6498 446.51 103.478C445.15 106.324 444.452 109.515 443.733 112.501C443.331 113.929 442.937 115.426 442.55 116.991C442.272 118.267 442.471 120.115 441.073 120.681C440.676 120.862 440.332 120.899 440.043 120.791C438.806 120.924 437.631 120.981 436.518 120.962C435.487 121.073 434.641 120.956 433.956 120.406C434.53 119.929 434.625 118.88 435.199 118.403C435.383 118.176 435.772 117.926 436.185 117.882C436.719 117.686 437.254 117.49 437.789 117.294C437.995 117.272 438.385 117.022 438.569 116.795C438.959 116.545 438.914 116.135 439.098 115.907C440.057 111.926 440.879 107.96 441.564 104.008C441.704 103.37 441.659 102.96 441.593 102.343C441.548 101.933 441.442 101.598 441.275 101.339C440.096 98.1414 439.329 94.8999 437.531 91.7689C435.756 88.8433 433.59 86.1673 431.219 83.5135C430.011 81.9812 428.597 80.471 426.654 79.8486C423.179 78.5597 419.508 81.2389 416.138 82.8471C408.184 86.4017 398.968 84.0672 390.291 84.791C389.055 84.9237 387.406 85.1007 386.487 86.2381C385.729 86.9427 385.406 87.8083 385.083 88.674C384.48 90.8162 383.802 92.8973 383.048 94.9172C382.607 96.6265 381.688 97.7638 382.344 99.9786C382.772 102.01 384.966 103.021 387.087 105.286C389.458 107.94 391.617 112.487 393.599 115.39C394.077 115.962 394.35 116.556 394.188 116.989C393.821 117.444 393.409 117.488 393.202 117.51C391.186 118.142 389.072 118.508 386.859 118.607C386.218 118.468 385.144 118.168 385.283 117.529C385.445 117.096 385.835 116.847 386.041 116.825C386.821 116.325 387.669 115.819 388.586 115.305C386.611 110.531 382.297 107.255 379.174 103.435C375.594 99.2489 374.9 94.7531 375.559 89.2809C376.526 80.8673 375.033 68.9783 370.87 61.323C367.775 55.8383 362.681 53.0613 360.962 46.8057C359.761 43.403 357.072 39.7445 355.481 36.5914C353.277 31.6343 350.288 29.0467 345.348 27.7072Z" fill="#281203"/>
<path d="M408.233 3.92111C410.861 5.0932 411.65 8.54003 412.969 11.0991C414.833 14.8462 418.831 17.1178 421.453 20.1603C425.762 25.3069 426.928 32.245 427.845 38.7945C428.2 42.0803 428.577 45.5715 427.88 48.7626C427.205 52.159 425.683 55.4385 422.748 57.2079C420.614 58.6834 417.729 58.9931 415.234 59.0532C410.472 59.3566 404.915 58.0836 403.006 53.9258C401.621 50.7506 402.664 46.8992 404.414 43.8029C405.935 40.5234 408.119 37.5882 408.36 34.0306C405.301 38.514 400.46 41.942 395.169 43.1333C395.797 42.5119 396.493 41.8832 397.258 41.2471C399.325 39.1554 401.62 37.2471 403.231 34.789C407.025 29.3957 407.986 22.8525 408.969 16.5146C405.649 16.6632 402.476 14.3031 401.731 11.2669C400.757 8.04746 402.441 4.33508 405.421 2.97644" fill="#281203"/>
<path d="M401.55 3.8073C403.706 2.53715 404.486 2.03798 406.775 2C409.292 2.14527 415.372 4.40089 414.865 5.49408C414.38 6.79262 394.614 10.9921 393.907 10.237C393.384 9.25444 398.798 5.34919 401.55 3.8073Z" fill="#281203"/>
<path d="M356.964 31.0305C359.209 44.0853 360.874 59.4876 373.346 66.8741C388.49 75.8433 401.31 61.379 410.865 51.4202C411.233 50.9652 411.712 51.537 411.55 51.9699C403.409 63.4389 390.044 76.7152 374.687 69.6385C360.199 62.884 357.053 45.3554 356.14 31.119C356.096 30.7082 356.92 30.6198 356.964 31.0305Z" fill="#281203"/>
<path d="M1240.39 81.6369C1240.39 81.6369 1249.41 95.6266 1249.86 97.8635C1250.29 99.895 1245.9 111.377 1245.47 111.215C1244.85 111.282 1240.15 112.201 1240.16 116.147L1246.85 116.261L1249.05 113.531L1255.6 98.9091L1250.04 70.629L1240.23 74.3828L1240.39 81.6369Z" fill="#281203"/>
<path d="M1206.68 80.2696C1206.58 80.5581 1206.47 80.8468 1206.36 81.1353C1205.18 83.7545 1204.92 87.1066 1204.41 90.0702C1203.23 95.8752 1202.54 101.697 1202.34 107.536C1202.12 109.428 1201.93 111.526 1200.58 112.502C1199.23 113.479 1196.94 113.517 1196.68 114.999C1198.71 116.442 1201.3 117.204 1203.77 116.938C1204.18 116.894 1204.39 116.872 1204.78 116.622C1205.35 116.145 1205.47 115.302 1205.38 114.48C1205.29 105.972 1207.29 97.4475 1211.25 89.7509C1212.08 87.7921 1215.67 84.2913 1214.57 81.9155C1213.78 80.3389 1211.11 78.7561 1209.71 77.4512C1208.36 78.4276 1207.4 79.1543 1206.68 80.2696Z" fill="#281203"/>
<path d="M1165.35 25.7072C1161.28 24.69 1158.97 24.5227 1159 20.9872C1158.92 18.2954 1162.58 19.3569 1164.25 19.3852C1168.23 19.581 1170.5 19.3376 1174.26 17.4798C1176.23 16.4371 1178.63 15.5556 1180.83 16.5666C1182.59 17.4164 1183.45 19.609 1183.86 21.4352C1184.08 23.4888 1183.68 25.6089 1183.88 27.4571C1184.17 35.9434 1193.65 50.2996 1203.43 46.3406C1207.01 44.7102 1209.56 41.32 1210.6 37.4686C1211.53 34.4608 1212.53 30.1988 1215.66 30.2777C1217.33 30.3061 1218.5 31.4276 1219.66 32.5492C1224.84 38.018 1230.75 48.3935 1239.46 46.0047C1243.72 44.9241 1247.51 41.4011 1251.88 41.3473C1255.22 41.4041 1258.37 43.5588 1260.56 46.4401C1265.69 53.3687 1265.38 63.997 1264.18 72.2274C1261.6 90.786 1268.91 96.6498 1266.51 101.478C1265.15 104.324 1264.45 107.515 1263.73 110.501C1263.33 111.929 1262.94 113.426 1262.55 114.991C1262.27 116.267 1262.47 118.115 1261.07 118.681C1260.68 118.862 1260.33 118.899 1260.04 118.791C1258.81 118.924 1257.63 118.981 1256.52 118.962C1255.49 119.073 1254.64 118.956 1253.96 118.406C1254.53 117.929 1254.62 116.88 1255.2 116.403C1255.38 116.176 1255.77 115.926 1256.18 115.882C1256.72 115.686 1257.25 115.49 1257.79 115.294C1257.99 115.272 1258.38 115.022 1258.57 114.795C1258.96 114.545 1258.91 114.135 1259.1 113.907C1260.06 109.926 1260.88 105.96 1261.56 102.008C1261.7 101.37 1261.66 100.96 1261.59 100.343C1261.55 99.9327 1261.44 99.5978 1261.28 99.3387C1260.1 96.1414 1259.33 92.8999 1257.53 89.7689C1255.76 86.8433 1253.59 84.1673 1251.22 81.5135C1250.01 79.9812 1248.6 78.471 1246.65 77.8486C1243.18 76.5597 1239.51 79.2389 1236.14 80.8471C1228.18 84.4017 1218.97 82.0672 1210.29 82.791C1209.05 82.9237 1207.41 83.1007 1206.49 84.2381C1205.73 84.9427 1205.41 85.8083 1205.08 86.674C1204.48 88.8162 1203.8 90.8973 1203.05 92.9172C1202.61 94.6265 1201.69 95.7638 1202.34 97.9786C1202.77 100.01 1204.97 101.021 1207.09 103.286C1209.46 105.94 1211.62 110.487 1213.6 113.39C1214.08 113.962 1214.35 114.556 1214.19 114.989C1213.82 115.444 1213.41 115.488 1213.2 115.51C1211.19 116.142 1209.07 116.508 1206.86 116.607C1206.22 116.468 1205.14 116.168 1205.28 115.529C1205.44 115.096 1205.83 114.847 1206.04 114.825C1206.82 114.325 1207.67 113.819 1208.59 113.305C1206.61 108.531 1202.3 105.255 1199.17 101.435C1195.59 97.2489 1194.9 92.7531 1195.56 87.2809C1196.53 78.8673 1195.03 66.9783 1190.87 59.323C1187.78 53.8383 1182.68 51.0613 1180.96 44.8057C1179.76 41.403 1177.07 37.7445 1175.48 34.5914C1173.28 29.6343 1170.29 27.0467 1165.35 25.7072Z" fill="#281203"/>
<path d="M1228.23 1.92111C1230.86 3.0932 1231.65 6.54003 1232.97 9.09914C1234.83 12.8462 1238.83 15.1178 1241.45 18.1603C1245.76 23.3069 1246.93 30.245 1247.84 36.7945C1248.2 40.0803 1248.58 43.5715 1247.88 46.7626C1247.2 50.159 1245.68 53.4385 1242.75 55.2079C1240.61 56.6834 1237.73 56.9931 1235.23 57.0532C1230.47 57.3566 1224.91 56.0836 1223.01 51.9258C1221.62 48.7506 1222.66 44.8992 1224.41 41.8029C1225.94 38.5234 1228.12 35.5882 1228.36 32.0306C1225.3 36.514 1220.46 39.942 1215.17 41.1333C1215.8 40.5119 1216.49 39.8832 1217.26 39.2471C1219.33 37.1554 1221.62 35.2471 1223.23 32.789C1227.03 27.3957 1227.99 20.8525 1228.97 14.5146C1225.65 14.6632 1222.48 12.3031 1221.73 9.26691C1220.76 6.04746 1222.44 2.33508 1225.42 0.976438" fill="#281203"/>
<path d="M1221.55 1.8073C1223.71 0.537148 1224.49 0.0379758 1226.77 0C1229.29 0.145266 1235.37 2.40089 1234.87 3.49408C1234.38 4.79262 1214.61 8.9921 1213.91 8.23701C1213.38 7.25444 1218.8 3.34919 1221.55 1.8073Z" fill="#281203"/>
<path d="M1176.96 29.0305C1179.21 42.0853 1180.87 57.4876 1193.35 64.8741C1208.49 73.8433 1221.31 59.379 1230.87 49.4202C1231.23 48.9652 1231.71 49.537 1231.55 49.9699C1223.41 61.4389 1210.04 74.7152 1194.69 67.6385C1180.2 60.884 1177.05 43.3554 1176.14 29.119C1176.1 28.7082 1176.92 28.6198 1176.96 29.0305Z" fill="#281203"/>
<path d="M64.0012 80.6176C64.0012 80.6176 70.8069 88.4285 71.2952 89.6358C71.6579 90.8669 70.0769 98.3141 69.8259 98.3616C69.4495 98.4328 66.6345 99.355 67.0853 101.739L71.0228 101.255L72.2438 99.464L74.8493 89.8736L68.8142 73.0792L63.1708 76.2258L64.0012 80.6176Z" fill="#281203"/>
<path d="M33.2008 79.7404C32.4648 80.6594 32.0273 81.7819 31.5897 82.9044C31.0425 84.1343 30.529 85.3144 30.0496 86.4448C29.8936 86.9942 29.612 87.5673 29.7069 88.0692C29.8019 88.5712 29.9986 88.9238 30.219 89.402C31.3753 91.3929 34.8645 95.4119 33.2365 97.7993C32.7277 98.5453 31.3949 99.0572 31.561 99.9356C32.9582 100.451 34.6132 100.268 36.0478 99.6071C36.2987 99.5597 36.4003 99.4104 36.5021 99.2612C36.8311 98.9391 36.7125 98.3117 36.5159 97.9589C35.5598 95.1938 34.6455 92.4208 33.773 89.6398C33.4577 88.6597 33.1187 87.5541 33.1798 86.5028C33.397 84.9021 34.5875 83.6372 35.5033 82.2943C36.3954 80.8259 36.9652 79.0286 36.0531 77.6414C34.822 78.0042 33.9131 78.696 33.2008 79.7404Z" fill="#281203"/>
<path d="M67.4893 58.5134C69.2232 60.3516 70.9154 62.1978 72.5657 64.0519C73.0845 64.7336 73.705 65.266 74.122 66.097C74.712 67.1551 74.9494 68.41 74.912 69.5868C75.0475 70.9908 74.9557 72.5677 74.2909 73.8631C73.1173 75.9046 70.3499 77.0777 70.0241 79.4788C69.9935 80.0044 70.0341 80.9066 69.4305 81.1507C68.8505 81.5203 68.1045 81.0115 67.9858 80.3841C67.8672 79.7567 68.2505 79.0344 68.6812 78.563C69.597 77.2202 70.8349 76.2063 71.9236 75.0906C73.0124 73.975 73.9282 72.6321 73.9961 70.9296C73.9929 68.8507 72.2567 67.2295 70.7952 65.6863C69.3337 64.1431 67.801 62.2235 68.3235 60.1752" fill="#281203"/>
<path d="M3.0785 50.5479C3.30573 50.3749 3.53287 50.202 4.01108 49.9816C5.67291 49.1475 8.67087 49.8803 10.6311 49.2497C11.5875 48.8089 12.6694 48.3444 13.7682 48.6565C15.691 49.2027 15.7891 51.7835 16.0433 53.8149C16.26 57.0232 17.9519 60.4723 21.0209 61.5816C26.6334 63.7695 35.56 58.0525 37.1205 52.5587C37.6667 50.6358 38.3214 47.9127 40.2986 48.0587C41.2007 48.0181 41.9941 48.7778 42.6622 49.5613C45.8836 52.8512 49.549 59.1764 54.8735 57.7796C57.4612 57.0304 59.7879 54.9008 62.5416 55.03C64.6205 55.0268 66.5602 56.3495 67.7945 58.0657C70.3885 61.4742 71.6224 67.9992 69.9027 71.9635C67.5181 77.2233 65.7983 81.1876 65.9097 87.275C66.0215 88.5536 65.9839 89.7304 65.6956 90.9546C65.0476 93.0266 63.2535 94.5356 62.1816 96.4279C61.5406 97.8488 61.4015 99.1748 61.4352 100.728C59.2286 100.972 57.0242 100.999 54.8221 100.809C54.9613 99.4828 56.0263 98.2417 57.4066 97.9807C57.7831 97.9095 58.0577 97.9875 58.4104 97.7909C58.6376 97.6179 58.7394 97.4687 58.8174 97.194C60.0385 95.4035 62.8401 90.9747 62.413 88.716C62.2944 88.0886 61.7756 87.4069 61.406 86.827C59.2471 84.116 57.0881 81.405 54.9292 78.6939C53.0269 76.1944 48.5672 78.7273 46.1288 79.5783C43.0867 80.6734 40.1599 80.317 36.9517 80.5338C36.0496 80.5744 35.1712 80.7404 34.5132 81.3847C33.1972 82.6733 32.9427 85.4508 32.0981 87.1702C31.0737 89.3134 30.1036 91.0564 29.676 93.6067C29.4543 95.6414 29.2246 97.6344 28.987 99.5855C28.909 99.8602 28.8548 100.26 28.6276 100.433C28.4004 100.606 28.1493 100.654 27.8746 100.576C26.4208 100.677 25.0011 100.729 23.6151 100.731C23.0895 100.701 22.5638 100.67 22.3671 100.317C22.1468 99.8393 22.5775 99.3679 22.9302 99.1712C23.4084 98.9508 23.9104 98.8559 24.4123 98.761C25.3924 98.4457 26.0266 97.6759 26.3624 96.7027C26.722 95.8549 26.7832 94.8035 26.8681 93.8777C27.6488 86.3219 28.9381 78.02 26.7379 70.508C26.4553 70.3882 26.1309 70.2763 25.7647 70.1722C23.8655 69.7515 21.9121 69.731 19.9892 69.1848C14.8719 67.5531 13.6956 62.7068 10.9898 58.0197C10.0539 56.5071 7.22204 56.6526 5.72995 55.6351C5.00763 55.2518 3.319 53.8816 3.30896 52.4538C3.32265 51.1515 2.7495 50.87 3.0785 50.5479Z" fill="#281203"/>
<path d="M866.077 89.6543C866.077 89.6543 874.977 99.8685 875.616 101.447C876.09 103.057 874.023 112.796 873.694 112.858C873.202 112.951 869.521 114.157 870.111 117.275L875.26 116.641L876.856 114.3L880.263 101.758L872.371 79.7963L864.991 83.9111L866.077 89.6543Z" fill="#281203"/>
<path d="M825.8 88.5072C824.837 89.7089 824.265 91.1768 823.693 92.6447C822.977 94.253 822.306 95.7963 821.679 97.2745C821.475 97.9929 821.107 98.7424 821.231 99.3988C821.355 100.055 821.612 100.516 821.9 101.142C823.413 103.745 827.975 109.001 825.846 112.123C825.181 113.098 823.438 113.768 823.655 114.916C825.482 115.591 827.647 115.351 829.523 114.487C829.851 114.425 829.984 114.23 830.117 114.035C830.547 113.613 830.392 112.793 830.135 112.332C828.885 108.716 827.689 105.089 826.548 101.453C826.136 100.171 825.692 98.7251 825.772 97.3503C826.056 95.257 827.613 93.6029 828.811 91.8469C829.977 89.9267 830.723 87.5763 829.53 85.7623C827.92 86.2367 826.731 87.1413 825.8 88.5072Z" fill="#281203"/>
<path d="M870.639 60.7485C872.906 63.1524 875.119 65.5667 877.277 67.9912C877.956 68.8827 878.767 69.579 879.312 70.6656C880.084 72.0494 880.394 73.6904 880.345 75.2292C880.523 77.0653 880.403 79.1274 879.533 80.8214C877.999 83.4911 874.38 85.0252 873.954 88.165C873.914 88.8524 873.967 90.0321 873.177 90.3513C872.419 90.8347 871.443 90.1694 871.288 89.3489C871.133 88.5285 871.634 87.5839 872.197 86.9675C873.395 85.2114 875.014 83.8855 876.438 82.4266C877.861 80.9677 879.059 79.2116 879.148 76.9853C879.144 74.2667 876.873 72.1467 874.962 70.1286C873.051 68.1106 871.046 65.6003 871.73 62.9218" fill="#281203"/>
<path d="M786.409 50.3321C786.706 50.1059 787.003 49.8798 787.628 49.5916C789.802 48.5009 793.722 49.4592 796.285 48.6345C797.536 48.0581 798.951 47.4507 800.388 47.8588C802.902 48.573 803.03 51.9479 803.363 54.6044C803.646 58.7998 805.859 63.3103 809.872 64.7609C817.212 67.622 828.885 60.1459 830.926 52.9616C831.64 50.4471 832.496 46.886 835.082 47.077C836.261 47.0239 837.299 48.0174 838.172 49.0419C842.385 53.3441 847.178 61.6156 854.141 59.7891C857.525 58.8093 860.568 56.0245 864.169 56.1933C866.887 56.1892 869.424 57.9189 871.038 60.1631C874.43 64.6204 876.044 73.1532 873.795 78.3373C870.676 85.2155 868.428 90.3996 868.573 98.3602C868.719 100.032 868.67 101.571 868.293 103.172C867.446 105.882 865.1 107.855 863.698 110.329C862.86 112.187 862.678 113.922 862.722 115.953C859.836 116.272 856.954 116.307 854.074 116.058C854.256 114.324 855.649 112.701 857.454 112.36C857.946 112.267 858.305 112.369 858.766 112.112C859.063 111.886 859.197 111.69 859.299 111.331C860.895 108.99 864.559 103.198 864.001 100.245C863.845 99.4241 863.167 98.5326 862.684 97.7742C859.86 94.2291 857.037 90.6839 854.214 87.1387C851.726 83.87 845.894 87.1823 842.706 88.2951C838.727 89.7272 834.9 89.2612 830.705 89.5446C829.525 89.5977 828.376 89.8149 827.516 90.6574C825.795 92.3425 825.462 95.9747 824.358 98.223C823.018 101.026 821.75 103.305 821.19 106.64C820.9 109.301 820.6 111.907 820.289 114.459C820.187 114.818 820.117 115.341 819.819 115.567C819.522 115.793 819.194 115.856 818.835 115.753C816.934 115.886 815.077 115.954 813.265 115.957C812.577 115.917 811.89 115.877 811.633 115.416C811.344 114.79 811.908 114.174 812.369 113.917C812.994 113.629 813.651 113.504 814.307 113.38C815.589 112.968 816.418 111.961 816.857 110.689C817.327 109.58 817.407 108.205 817.518 106.994C818.539 97.1137 820.225 86.2574 817.348 76.434C816.979 76.2772 816.554 76.1309 816.076 75.9949C813.592 75.4447 811.038 75.4178 808.523 74.7036C801.831 72.5698 800.293 66.2323 796.754 60.103C795.531 58.125 791.827 58.3153 789.876 56.9847C788.932 56.4834 786.723 54.6916 786.71 52.8245C786.728 51.1215 785.979 50.7534 786.409 50.3321Z" fill="#281203"/>
</svg>
