<svg width="36" height="45" viewBox="0 0 36 45" fill="none" xmlns="http://www.w3.org/2000/svg">
<g opacity="0.9">
<path d="M14.9264 44.2297C14.9264 44.2297 18.2754 45.9629 21.8245 44.2297C21.8245 44.2297 22.8492 22.7468 23.574 17.84C24.5237 11.2242 24.3488 2.14286 18.1005 2.14286C11.8272 2.14286 11.0774 7.07415 12.8019 20.3056C14.1266 30.4855 14.9264 44.2297 14.9264 44.2297Z" fill="white"/>
<path d="M20.3579 34.1484C20.374 34.1484 20.4705 34.1647 20.6474 34.1974C20.8404 34.222 21.1298 34.271 21.5158 34.3201C21.8776 34.3691 22.3359 34.4182 22.8666 34.4427C23.3731 34.4673 23.9521 34.4673 24.5069 34.4182C24.7722 34.3937 25.0617 34.3691 25.3029 34.2956C25.5441 34.2465 25.7371 34.1729 25.8336 34.0993C25.8818 34.0748 25.9059 34.0503 25.9059 34.0503C25.8818 34.0503 25.8336 34.0748 25.7853 34.1239C25.7692 34.1239 25.7612 34.132 25.7612 34.1484C25.6165 34.3691 25.713 34.222 25.6888 34.2465L25.713 34.222L25.7371 34.1974V34.1484H25.7612C25.7612 34.1239 25.7612 34.1484 25.7371 34.1484C25.7371 34.1647 25.729 34.1893 25.713 34.222L25.6888 34.2465V34.271C25.6888 34.2547 25.6888 34.2383 25.6888 34.222C25.713 34.1484 25.7612 34.0012 25.7853 33.8295C25.8818 33.5106 25.9542 33.0936 26.0265 32.6767C26.0909 32.2515 26.1472 31.81 26.1954 31.3521C26.316 30.4445 26.3884 29.4879 26.4849 28.5313C26.7984 24.7048 26.9432 20.7801 27.0397 17.8612C27.0879 16.3895 27.112 15.163 27.1361 14.329C27.1361 13.4705 27.1603 12.98 27.1603 12.98V12.9554C27.1844 11.0912 28.7041 9.59497 30.5373 9.64403C32.3947 9.66856 33.842 11.2139 33.8179 13.0781C33.8179 13.1517 33.7938 13.2253 33.7938 13.2743C33.7938 13.2743 33.7696 13.7649 33.6973 14.6479C33.6249 15.5064 33.5284 16.7574 33.4078 18.2537C33.1666 21.2217 32.8048 25.1953 32.25 29.1936C32.1052 30.1992 31.9605 31.2049 31.7917 32.2351C31.6952 32.7257 31.5987 33.2326 31.5022 33.7559C31.3816 34.271 31.261 34.7861 31.0921 35.3503C31.0198 35.6201 30.9233 35.9145 30.7785 36.2579L30.6579 36.5277L30.6097 36.6258L30.5614 36.7484L30.4408 36.9447L30.4167 36.9937V37.0183L30.3926 37.0428L30.272 37.239C30.2077 37.3371 30.1353 37.4353 30.0549 37.5334C29.7172 37.9504 29.3553 38.2692 28.9935 38.5145C28.6317 38.7598 28.2699 38.9315 27.9563 39.0787C27.2809 39.3485 26.702 39.4712 26.1472 39.5447C25.6165 39.6183 25.134 39.6429 24.6757 39.6429C23.7832 39.6429 23.0354 39.5447 22.36 39.4712C21.7087 39.373 21.1539 39.2749 20.6715 39.1768C20.2132 39.0542 19.8755 38.9806 19.6101 38.907C19.3448 38.8334 19.2001 38.8089 19.2001 38.8089C17.9457 38.4655 17.198 37.1409 17.5357 35.8654C17.8734 34.639 19.0312 33.9031 20.2373 34.1239L20.3579 34.1484Z" fill="white"/>
<path d="M15.4294 35.0579C15.4132 35.0579 15.3238 35.0746 15.1613 35.1078C14.9988 35.1244 14.7712 35.1494 14.4787 35.1826C13.8937 35.2574 13.0649 35.3322 12.0411 35.3571C11.5292 35.3571 10.9442 35.3571 10.3104 35.3073C9.67667 35.2325 8.96976 35.1327 8.1166 34.8585C7.70221 34.7089 7.23906 34.5343 6.72717 34.1852C6.48341 34.0107 6.21527 33.8112 5.94713 33.537C5.81713 33.404 5.69525 33.2544 5.58149 33.0881L5.48399 32.9635L5.38649 32.7889L5.31336 32.6892C5.28899 32.6643 5.19148 32.4897 5.11835 32.3401L4.99647 32.1157L4.92335 31.9412L4.77709 31.642L4.67959 31.3428C4.58208 31.1433 4.53333 30.9937 4.4602 30.7942L4.28957 30.2706C4.09456 29.5974 3.92393 28.9241 3.75329 28.3008C3.60704 27.6525 3.46891 27.0375 3.33891 26.4557C3.09515 25.2588 2.90014 24.1617 2.72951 23.2142C2.55887 22.2667 2.43699 21.4688 2.36387 20.9203C2.26636 20.3468 2.21761 20.0476 2.21761 20.0476C1.94947 18.1526 3.21703 16.4072 5.04523 16.108C6.8978 15.8337 8.60412 17.1303 8.87225 19.0253C8.8885 19.1417 8.90476 19.258 8.92101 19.3744V19.3993C8.92101 19.3993 8.92101 19.6985 8.94539 20.2221C8.96976 20.7458 9.01851 21.4938 9.06727 22.3914C9.14039 23.289 9.21352 24.3363 9.3354 25.4334C9.40853 26.0069 9.45728 26.5554 9.53041 27.1289C9.62791 27.6774 9.70104 28.226 9.79855 28.7496L9.89605 29.1236C9.92042 29.2234 9.9448 29.348 9.96917 29.4478L9.99355 29.5974L10.0423 29.722V29.747C10.0179 29.722 9.96918 29.6722 10.0423 29.7719L10.0911 29.8716L10.1154 29.8966V29.9215C10.0911 29.8716 10.1886 30.0462 10.0423 29.8218L10.0179 29.7719C9.98543 29.7387 9.95293 29.7054 9.92043 29.6722C9.87167 29.6389 9.83917 29.6223 9.82292 29.6223C9.79855 29.6223 9.84729 29.6722 9.96917 29.722C10.1886 29.8467 10.5786 29.9464 10.9686 30.0212C11.3586 30.096 11.773 30.1459 12.163 30.1958C12.943 30.2457 13.65 30.2457 14.1131 30.2457C14.3569 30.229 14.5356 30.2207 14.6494 30.2207C14.7631 30.2207 14.82 30.2207 14.82 30.2207L14.9419 30.1958C16.2582 30.1459 17.3795 31.1682 17.4526 32.5147C17.5014 33.7863 16.6238 34.8585 15.4294 35.0579Z" fill="white"/>
<path fill-rule="evenodd" clip-rule="evenodd" d="M19.6364 0.409779C19.3559 1.40138 18.8957 2.3715 18.4206 3.21429L17.4545 2.49362C17.9006 1.70241 18.3038 0.840454 18.5415 0L19.6364 0.409779Z" fill="white"/>
<path fill-rule="evenodd" clip-rule="evenodd" d="M16.1587 0C16.3606 0.824662 16.933 1.7771 17.4545 2.52264L16.7431 3.21429C16.2168 2.46187 15.5319 1.35996 15.2727 0.301469L16.1587 0Z" fill="white"/>
<path fill-rule="evenodd" clip-rule="evenodd" d="M12.2443 2.84899C12.5148 3.55336 12.778 4.23865 13.0909 4.87936L12.064 5.35714C11.728 4.66903 11.4403 3.91963 11.1658 3.20449C11.0793 2.97917 10.9941 2.75725 10.9091 2.54172L11.9707 2.14286C12.0641 2.37971 12.1546 2.6154 12.2443 2.84899Z" fill="white"/>
<path fill-rule="evenodd" clip-rule="evenodd" d="M11.4151 5.50484C11.917 5.50077 12.2463 5.48464 12.5066 5.35714L13.0909 6.03188C12.5409 6.30128 11.9056 6.30626 11.4552 6.3098C11.4456 6.30987 11.4361 6.30995 11.4267 6.31002C10.9005 6.31429 10.6229 6.32644 10.426 6.42857L9.81818 5.76568C10.3085 5.5114 10.9145 5.50784 11.3405 5.50534C11.3661 5.50519 11.391 5.50504 11.4151 5.50484Z" fill="white"/>
<path fill-rule="evenodd" clip-rule="evenodd" d="M11.9924 11.5608C12.3935 11.7938 12.7661 11.9106 13.0909 11.9171L13.0524 12.8571C12.3053 12.8422 11.6495 12.585 11.1307 12.2837C10.6057 11.9787 10.159 11.5929 9.81818 11.2386L10.9366 10.7143C11.2331 11.0225 11.5976 11.3314 11.9924 11.5608Z" fill="white"/>
<path fill-rule="evenodd" clip-rule="evenodd" d="M11.7585 13.3932C12.0246 13.2066 12.2469 13.0506 12.4439 12.8571L13.0909 13.7943C12.8305 14.05 12.5461 14.2493 12.2995 14.422C12.2869 14.4308 12.2744 14.4396 12.262 14.4483C11.9953 14.6354 11.77 14.7975 11.5724 15L10.9091 14.0793C11.1853 13.7962 11.4864 13.584 11.7461 13.4019C11.7503 13.399 11.7544 13.3961 11.7585 13.3932Z" fill="white"/>
<path fill-rule="evenodd" clip-rule="evenodd" d="M5.80864 17.1429L4.36364 16.9091L5.10045 13.9286L6.54545 14.1624L5.80864 17.1429Z" fill="white"/>
<path fill-rule="evenodd" clip-rule="evenodd" d="M3.10681 15C3.24321 15.8171 3.78447 16.5817 4.36364 17.2116L3.77011 18.2143C3.18005 17.5725 2.39618 16.5678 2.18182 15.2837L3.10681 15Z" fill="white"/>
<path fill-rule="evenodd" clip-rule="evenodd" d="M1.80894 21.9223C2.33861 22.1563 2.90642 22.3866 3.27273 22.4956L2.83354 23.5714C2.37036 23.4336 1.73001 23.1702 1.19577 22.9342C0.67004 22.702 0.169522 22.4618 0 22.3598L0.768706 21.4286C0.851635 21.4785 1.27077 21.6846 1.80894 21.9223Z" fill="white"/>
<path fill-rule="evenodd" clip-rule="evenodd" d="M1.86629 25.2287C2.22021 24.9671 2.6897 24.6531 3.26057 24.6429L3.27273 25.7158C2.93983 25.7218 2.6361 25.9038 2.29713 26.1543C2.25249 26.1873 2.20522 26.223 2.15653 26.2599C2.03577 26.3511 1.9063 26.449 1.78658 26.5281C1.61441 26.6417 1.40911 26.7544 1.18466 26.7857L1.09091 25.7192C1.15767 25.7098 1.25111 25.6701 1.39149 25.5775C1.48862 25.5134 1.58331 25.4417 1.69295 25.3588C1.74649 25.3182 1.8036 25.275 1.86629 25.2287Z" fill="white"/>
<path fill-rule="evenodd" clip-rule="evenodd" d="M9.78511 22.3699C9.37243 22.8032 8.88458 23.2454 8.24296 23.5714L7.63636 22.559C8.09348 22.3267 8.46892 21.9982 8.84105 21.6074C8.99847 21.4421 9.14883 21.2729 9.30601 21.0959C9.33591 21.0622 9.36606 21.0283 9.39656 20.9941C9.58359 20.784 9.78136 20.565 9.99302 20.3571L10.9091 21.148C10.7283 21.3255 10.5533 21.5186 10.3676 21.7272C10.3391 21.7592 10.3103 21.7916 10.2812 21.8244C10.1242 22.0012 9.95807 22.1882 9.78511 22.3699Z" fill="white"/>
<path fill-rule="evenodd" clip-rule="evenodd" d="M10.1714 24.6429C9.69567 24.1696 9.27265 23.8086 8.72727 23.5971L9.09604 22.5C9.85354 22.7939 10.4077 23.2882 10.9091 23.787L10.1714 24.6429Z" fill="white"/>
<path fill-rule="evenodd" clip-rule="evenodd" d="M22.5218 3.98185C22.4456 4.42138 22.359 4.92119 22.1816 5.35714L20.7273 5.03026C20.8656 4.69051 20.9354 4.29093 21.015 3.83565C21.0247 3.7801 21.0346 3.72372 21.0447 3.66652C21.1316 3.17684 21.242 2.60933 21.5192 2.14286L22.9091 2.59894C22.7337 2.89417 22.6421 3.30121 22.5511 3.81406C22.5414 3.8688 22.5317 3.92482 22.5218 3.98185Z" fill="white"/>
<path fill-rule="evenodd" clip-rule="evenodd" d="M21.8182 6.42857V5.35714H25.0909V6.42857H21.8182Z" fill="white"/>
<path fill-rule="evenodd" clip-rule="evenodd" d="M24.3118 13.928C24.0259 14.3278 23.6696 14.7771 23.1738 15L22.9091 13.722C23.1935 13.5941 23.4224 13.3294 23.6875 12.9588C23.732 12.8966 23.7787 12.8293 23.8276 12.7588C24.0475 12.4422 24.3122 12.0612 24.6199 11.7857L25.0909 12.9276C24.8802 13.1163 24.7081 13.3626 24.4946 13.6684C24.4372 13.7506 24.3768 13.8371 24.3118 13.928Z" fill="white"/>
<path fill-rule="evenodd" clip-rule="evenodd" d="M25.2644 17.1429C24.7733 16.7038 23.9574 16.4312 22.9091 16.1095L23.3291 15L23.3438 15.0045C24.3104 15.3011 25.4398 15.6477 26.1818 16.3111L25.2644 17.1429Z" fill="white"/>
<path fill-rule="evenodd" clip-rule="evenodd" d="M23.7416 22.5188C23.4041 22.8726 23.0337 23.2609 22.6386 23.5714L21.8182 22.7001C22.1385 22.4483 22.4389 22.134 22.7784 21.7787C22.8437 21.7104 22.9104 21.6406 22.979 21.5695C23.3832 21.15 23.8487 20.6883 24.3983 20.3571L25.0909 21.3167C24.6969 21.5541 24.3289 21.908 23.9232 22.329C23.8638 22.3907 23.8032 22.4542 23.7416 22.5188Z" fill="white"/>
<path fill-rule="evenodd" clip-rule="evenodd" d="M24.2711 24.5841C23.4485 24.4694 22.6603 24.3595 21.8182 24.2876L22.0697 23.5714C22.994 23.6503 23.8642 23.7719 24.6842 23.8864C24.8211 23.9055 24.9567 23.9244 25.0909 23.9429L24.6938 24.6429C24.5516 24.6233 24.4109 24.6036 24.2711 24.5841Z" fill="white"/>
<path fill-rule="evenodd" clip-rule="evenodd" d="M31.4583 9.1559C31.5261 9.61575 31.5982 10.1052 31.6364 10.5999L30.9117 10.7143C30.8777 10.2737 30.8133 9.83622 30.7447 9.36987C30.7364 9.31356 30.7281 9.25682 30.7197 9.1996C30.6438 8.68008 30.5674 8.1259 30.5455 7.55745L31.2735 7.5C31.292 7.98148 31.3574 8.46652 31.4334 8.98622C31.4416 9.04229 31.4499 9.09887 31.4583 9.1559Z" fill="white"/>
<path fill-rule="evenodd" clip-rule="evenodd" d="M34.6691 9.4927C33.8677 9.87658 33.1073 10.2409 32.5698 10.7143L31.6364 10.0889C32.3036 9.50121 33.2276 9.06024 34.0013 8.69102C34.0866 8.65032 34.17 8.61049 34.2511 8.57143L34.9091 9.3775C34.8288 9.41618 34.7487 9.45453 34.6691 9.4927Z" fill="white"/>
<path fill-rule="evenodd" clip-rule="evenodd" d="M34.6512 17.2343C34.28 17.5615 33.8682 17.9245 33.4233 18.2143L32.7273 17.0633C33.0871 16.8291 33.424 16.5326 33.8063 16.1961C33.8505 16.1572 33.8953 16.1177 33.9409 16.0778C34.3622 15.7082 34.8399 15.3007 35.3882 15L36 16.2014C35.5909 16.4257 35.2097 16.7439 34.7863 17.1154C34.7419 17.1543 34.6969 17.194 34.6512 17.2343Z" fill="white"/>
<path fill-rule="evenodd" clip-rule="evenodd" d="M34.2303 19.2857C33.6373 18.9231 33.0753 18.371 32.7273 17.7982L33.8331 17.1429C34.069 17.5313 34.4803 17.9405 34.9091 18.2027L34.2303 19.2857Z" fill="white"/>
<path fill-rule="evenodd" clip-rule="evenodd" d="M26.239 27.0708C26.5453 27.2231 26.9076 27.3017 27.177 27.2429L27.2727 28.8987C26.8687 28.9868 26.3973 28.8694 26.0263 28.6849C25.8392 28.5919 25.6584 28.4724 25.512 28.3309C25.4396 28.261 25.3614 28.1721 25.2926 28.0592C25.2329 27.9613 25.1273 27.7602 25.0909 27.4448L25.9278 27.08C25.9148 26.9668 25.8903 26.8897 25.8753 26.8499C25.8602 26.8097 25.8479 26.7894 25.846 26.7863C25.8487 26.7899 25.8629 26.809 25.8941 26.8392C25.9686 26.9113 26.0874 26.9954 26.239 27.0708Z" fill="white"/>
<path fill-rule="evenodd" clip-rule="evenodd" d="M24 30.4598C24.6903 29.3488 25.9858 28.8329 27.2727 28.9431L27.1514 30.1627C26.3141 30.091 25.5459 30.4241 25.1437 31.0714L24 30.4598Z" fill="white"/>
<path fill-rule="evenodd" clip-rule="evenodd" d="M3.92676 31.3808C4.35703 31.5096 4.88045 31.563 5.33462 31.5103L5.45455 33.1872C4.85146 33.2572 4.18548 33.1879 3.62456 33.0201C3.34367 32.936 3.06855 32.8211 2.83171 32.6702C2.61173 32.5301 2.34387 32.3083 2.18182 31.9571L3.32108 31.1037C3.31097 31.0818 3.30414 31.0714 3.30414 31.0714C3.30414 31.0714 3.33338 31.1072 3.42283 31.1642C3.54116 31.2396 3.71207 31.3165 3.92676 31.3808Z" fill="white"/>
<path fill-rule="evenodd" clip-rule="evenodd" d="M5.02497 33.1128C5.18451 32.7582 5.34503 32.4014 5.47155 32.1429L6.54545 32.7027C6.42784 32.9431 6.28262 33.2659 6.12867 33.6082C6.05101 33.7808 5.97114 33.9584 5.89147 34.1328C5.77591 34.3858 5.66127 34.6308 5.56075 34.8278C5.51067 34.9259 5.46033 35.0196 5.41225 35.0998C5.37284 35.1654 5.306 35.2722 5.21917 35.3571L4.39161 34.4558C4.37323 34.4737 4.36364 34.4864 4.36364 34.4864C4.36364 34.4864 4.37201 34.4749 4.38944 34.4458C4.41664 34.4005 4.45232 34.3352 4.49623 34.2491C4.5837 34.0777 4.68896 33.8534 4.80325 33.6032C4.87448 33.4473 4.94962 33.2803 5.02497 33.1128Z" fill="white"/>
<path fill-rule="evenodd" clip-rule="evenodd" d="M34.3909 24.6063C33.8111 24.9723 33.2601 25.3201 32.7502 25.7143L31.6364 25.0744C32.1998 24.6389 32.8226 24.2459 33.4114 23.8744C33.5739 23.772 33.7337 23.6711 33.8891 23.5714L34.9091 24.2773C34.7341 24.3896 34.5613 24.4987 34.3909 24.6063Z" fill="white"/>
<path fill-rule="evenodd" clip-rule="evenodd" d="M34.3169 28.9286C33.9499 28.4765 33.3719 28.1797 32.7273 27.8882L33.0075 26.7857C33.6257 27.0653 34.3847 27.4274 34.9091 28.0735L34.3169 28.9286Z" fill="white"/>
</g>
</svg>
