<svg width="67" height="49" viewBox="0 0 67 49" fill="none" xmlns="http://www.w3.org/2000/svg">
<path d="M10.2718 28.6602C10.2718 28.6602 3.73244 35.4805 3.23257 36.5618C2.84531 37.6708 3.92451 44.5605 4.14972 44.6159C4.48753 44.6991 6.99512 45.6779 6.47327 47.8377L2.92751 47.2055L1.90592 45.5087L0 36.6089L6.2676 21.5321L11.2331 24.6817L10.2718 28.6602Z" fill="white"/>
<path d="M38.2296 29.3345C38.853 30.2107 39.1962 31.2587 39.5395 32.3067C39.9771 33.4582 40.3864 34.5626 40.7672 35.6199C40.8825 36.13 41.1105 36.6679 41.0006 37.1226C40.8907 37.5773 40.6957 37.8905 40.4732 38.3175C39.3307 40.0836 35.9772 43.5936 37.3394 45.856C37.7651 46.563 38.9488 47.0952 38.7565 47.891C37.4657 48.2957 35.9744 48.049 34.7055 47.3752C34.4803 47.3198 34.3953 47.1784 34.3102 47.037C34.0273 46.7265 34.1646 46.1581 34.3596 45.8448C35.3575 43.3606 36.3179 40.8673 37.2407 38.3646C37.573 37.483 37.9328 36.4876 37.9274 35.5228C37.8065 34.0478 36.7876 32.8334 36.0214 31.5608C35.2826 30.1746 34.8515 28.5027 35.7441 27.2773C36.8426 27.6682 37.6336 28.3448 38.2296 29.3345Z" fill="white"/>
<path d="M8.16033 8.26847C6.50145 9.86726 4.88008 11.4753 3.29627 13.0926C2.79367 13.6914 2.20597 14.1489 1.7885 14.8891C1.20349 15.829 0.928779 16.9658 0.906791 18.0443C0.717268 19.3224 0.72554 20.7696 1.26657 21.9867C2.23329 23.9109 4.68581 25.117 4.86704 27.3294C4.86978 27.8119 4.79013 28.6353 5.32568 28.8876C5.83377 29.2536 6.53411 28.8239 6.67144 28.2555C6.80877 27.6872 6.4957 27.0079 6.12768 26.556C5.36144 25.2834 4.28761 24.2963 3.35383 23.2234C2.42006 22.1504 1.65382 20.8778 1.67307 19.3168C1.77471 17.4149 3.42535 16.0148 4.82331 14.6729C6.22127 13.331 7.70159 11.6482 7.32535 9.749" fill="white"/>
<path d="M66.9177 4.06894C66.7199 3.89981 66.5223 3.73072 66.0993 3.50614C64.6327 2.66327 61.8807 3.19002 60.134 2.51904C59.2881 2.06988 58.3296 1.59299 57.3189 1.82587C55.5502 2.2334 55.3387 4.59002 55.0118 6.43651C54.663 9.36151 52.9657 12.4362 50.1314 13.304C44.9406 15.0367 37.1215 9.37784 35.9681 4.2764C35.5644 2.4909 35.1003 -0.0320918 33.3014 0.00669605C32.4857 -0.0737192 31.7304 0.583362 31.0877 1.26816C28.0117 4.1238 24.3891 9.73537 19.6295 8.2021C17.3198 7.39249 15.3121 5.33247 12.8101 5.31857C10.9261 5.21596 9.10521 6.33323 7.905 7.84423C5.39196 10.8385 3.96369 16.7495 5.3341 20.4591C7.24555 25.3859 8.61595 29.0956 8.22587 34.66C8.06381 35.8244 8.04191 36.9029 8.24513 38.0369C8.73397 39.9638 10.2884 41.4305 11.17 43.2132C11.6836 44.5441 11.7467 45.764 11.6423 47.1835C13.6307 47.5125 15.6273 47.6428 17.6322 47.5745C17.5691 46.3546 16.6627 45.1679 15.4241 44.8629C15.0863 44.7797 14.8337 44.838 14.5234 44.6411C14.3256 44.472 14.2405 44.3306 14.1828 44.0755C13.1611 42.3787 10.8322 38.1922 11.3266 36.1461C11.4639 35.5777 11.9665 34.9789 12.3291 34.466C14.4146 32.089 16.5001 29.7121 18.5856 27.3352C20.4285 25.1394 24.3503 27.6707 26.5199 28.5663C29.2252 29.7141 31.8948 29.5284 34.7923 29.8806C35.608 29.961 36.3962 30.155 36.962 30.7761C38.0935 32.0182 38.1922 34.5717 38.8761 36.1853C39.7027 38.1954 40.4992 39.8367 40.7656 42.1906C40.8699 44.063 40.9835 45.8975 41.1061 47.6941C41.1638 47.9491 41.1939 48.3179 41.3916 48.487C41.5893 48.6561 41.8147 48.7116 42.0673 48.6534C43.3801 48.8161 44.6645 48.9316 45.9205 49C46.3984 48.9972 46.8763 48.9945 47.0713 48.6812C47.2937 48.2542 46.9258 47.8022 46.6154 47.6054C46.1925 47.3808 45.742 47.2699 45.2916 47.159C44.4182 46.8235 43.88 46.0888 43.6218 45.1822C43.3362 44.3893 43.3307 43.4244 43.2978 42.5732C42.9491 35.6225 42.1748 27.9649 44.5258 21.1972C44.7876 21.1011 45.0869 21.0142 45.4238 20.9366C47.1651 20.6428 48.9366 20.7176 50.7053 20.3101C55.421 19.0625 56.7172 14.6848 59.3923 10.526C60.3124 9.18692 62.8722 9.45587 64.2729 8.59642C64.9458 8.28036 66.5413 7.1076 66.6183 5.80175C66.6677 4.60957 67.2006 4.37946 66.9177 4.06894Z" fill="white"/>
</svg>
