<svg width="48" height="89" viewBox="0 0 48 89" fill="none" xmlns="http://www.w3.org/2000/svg">
<path opacity="0.3" fill-rule="evenodd" clip-rule="evenodd" d="M3.91529 35.9101C3.91529 36.0219 3.91529 36.1338 3.91529 36.2457C3.92365 36.2974 3.92783 36.349 3.92783 36.4006C3.92783 36.5469 3.93201 36.689 3.94038 36.8267C3.94038 36.8654 3.94038 36.8912 3.94038 36.9299C3.94875 37.0246 3.95712 37.115 3.96549 37.201C3.96549 37.2398 3.96548 37.2785 3.97803 37.3301C3.97803 37.3904 3.98221 37.4463 3.99058 37.498C3.99058 37.541 3.99476 37.5754 4.00312 37.6012C4.00312 37.6529 4.00732 37.7002 4.01569 37.7433C4.01569 37.7691 4.01569 37.7906 4.01569 37.8078C4.02405 37.8508 4.02823 37.881 4.02823 37.8982C4.0366 37.9154 4.04078 37.9283 4.04078 37.9369C4.04078 37.9627 4.04078 37.9756 4.04078 37.9756C4.36705 35.6002 6.95214 33.5734 6.95214 33.5734L6.52549 32.631C6.52549 32.631 6.88941 32.7472 7.79294 33.3023C7.8013 33.2679 7.81384 33.2248 7.83058 33.1732C7.83894 33.1474 7.84732 33.1172 7.85568 33.0828C7.86405 33.057 7.87241 33.0312 7.88078 33.0054C7.88914 32.9709 7.9017 32.9322 7.91843 32.8892C7.92679 32.8633 7.93933 32.8375 7.95607 32.8117C7.9728 32.7687 7.98953 32.7213 8.00627 32.6697C8.40783 31.7273 9.21097 30.3201 9.21097 30.3201L9.01019 29.7392C9.01019 29.7392 9.17332 29.8166 9.65018 30.1006C9.68365 30.0146 9.72967 29.9242 9.78824 29.8295C9.80497 29.7951 9.82169 29.765 9.83842 29.7392C9.88025 29.6703 9.92208 29.5972 9.96391 29.5197C10.7796 28.19 12.3859 26.2923 12.3859 26.2923L12.0722 25.324L12.7749 26.1115L13.6031 25.2595L13.5404 24.0847C13.5404 24.0847 13.5404 24.0847 14.0423 25.0013C14.1427 24.9754 14.2682 24.9238 14.3937 24.8593L13.9169 25.7759L14.2808 25.9437C14.2306 26.0642 14.1762 26.1933 14.1176 26.331C14.1093 26.331 14.1051 26.3353 14.1051 26.3439C13.2894 28.3062 12.0094 32.1791 12.0094 32.1791L12.3231 32.4115V32.4244L12.411 32.489C12.4026 32.5148 12.3942 32.5406 12.3859 32.5664C12.3859 32.575 12.3859 32.5836 12.3859 32.5922C12.3608 32.6783 12.3399 32.7601 12.3231 32.8375C12.3231 32.8461 12.3231 32.8504 12.3231 32.8504C12.2729 33.0398 12.2269 33.2291 12.1851 33.4185C12.1851 33.4271 12.1851 33.4357 12.1851 33.4443C11.8588 34.8902 11.5953 36.3877 11.3945 37.64C10.2776 37.9756 9.19843 38.5953 8.53333 39.0213C8.53333 39.0127 8.53333 39.0084 8.53333 39.0084C8.52497 39.017 8.52077 39.0213 8.52077 39.0213C8.31999 39.1504 8.16941 39.2537 8.05647 39.3312C8.05647 39.3312 8.05229 39.3355 8.04392 39.3441C7.99372 39.3785 7.95607 39.4043 7.93097 39.4215C7.93097 39.4215 7.92679 39.4258 7.91843 39.4344C7.89333 39.4474 7.88078 39.4603 7.88078 39.4603L8.04392 39.8476C8.04392 39.8476 8.04392 39.8476 7.40392 39.7185C5.52157 41.6807 4.96941 43.7205 4.84392 45.0631C4.81882 45.1535 4.80627 45.218 4.80627 45.218C4.80627 45.218 4.81882 45.1664 4.84392 45.076C4.75608 46.0184 4.85646 46.6252 4.85646 46.6252C4.91921 46.1992 5.7851 44.7275 5.7851 44.7275C5.7851 44.7275 5.6847 45.0244 5.62195 45.799C5.70561 45.6957 5.79345 45.5967 5.88548 45.5021C5.91058 45.4762 5.94823 45.4375 5.98588 45.4117C6.04444 45.3514 6.10718 45.2912 6.17411 45.2309C6.21594 45.1965 6.26195 45.1621 6.31215 45.1277C6.37071 45.076 6.43346 45.0244 6.50038 44.9727C6.55058 44.9383 6.60496 44.9039 6.66353 44.8695C6.72209 44.8264 6.78065 44.7834 6.83922 44.7404C6.90614 44.7059 6.96889 44.6715 7.02745 44.6371C7.08601 44.6027 7.14456 44.5682 7.20313 44.5338C7.27005 44.4994 7.33699 44.465 7.40392 44.4305C7.45412 44.4047 7.50431 44.3789 7.5545 44.3531C7.63816 44.31 7.71764 44.2713 7.79294 44.2369C7.83477 44.2197 7.8766 44.2025 7.91843 44.1853C8.00209 44.1422 8.08993 44.1035 8.18196 44.0691C9.27372 43.6172 10.2275 43.4107 10.2275 43.4107V42.7652C10.2275 42.7652 10.2274 42.8943 10.5788 43.4752C10.629 43.4666 10.6792 43.4537 10.7294 43.4365C10.5286 44.9082 10.4533 46.3412 10.4282 47.2836L9.67529 47.6064L9.76313 48.7941C9.76313 48.7941 9.5498 48.5746 9.38666 48.0066C8.79685 48.4455 6.96471 50.1883 6.96471 50.1883V50.9242C6.96471 50.9242 6.9647 50.9242 6.62587 50.4852C6.18666 50.7693 5.40862 51.815 5.10744 52.2281C5.08235 52.2625 5.06143 52.2926 5.0447 52.3184C5.03633 52.327 5.03215 52.3313 5.03215 52.3313C4.99451 52.383 4.98195 52.4088 4.98195 52.4088L5.05725 53.0672C5.05725 53.0672 5.05725 53.0672 4.59294 52.9768C3.66431 57.0692 4.76863 59.7803 4.76863 59.7803C5.39608 57.8567 6.46275 58.1278 6.46275 58.1278L6.58824 57.6373C6.58824 57.6373 6.58823 57.6373 6.92705 58.1278C7.06928 57.9213 7.20732 57.7276 7.34118 57.5469C7.39137 57.4781 7.44156 57.4135 7.49176 57.3533C7.58379 57.2414 7.67581 57.1295 7.76783 57.0176C7.82639 56.9488 7.88496 56.8799 7.94352 56.811C8.02718 56.7164 8.11084 56.6217 8.1945 56.527C8.25306 56.4668 8.31163 56.4065 8.37019 56.3463C8.45385 56.2602 8.53333 56.1785 8.60863 56.101C8.66719 56.0408 8.72575 55.9805 8.78431 55.9203C8.86797 55.8428 8.94744 55.7697 9.02273 55.7008C9.0813 55.6492 9.13568 55.5975 9.18588 55.5459C9.26954 55.477 9.34902 55.4125 9.42431 55.3522C9.47451 55.3092 9.5247 55.2662 9.57489 55.2231C9.82587 55.0252 10.0601 54.8488 10.2776 54.6938C10.2651 54.9908 10.2651 55.1586 10.2651 55.1586L10.8298 55.391L10.9051 55.4168C10.9051 55.434 10.9051 55.4469 10.9051 55.4555C10.8967 55.4813 10.8884 55.5072 10.88 55.533C10.8716 55.5674 10.8633 55.6061 10.8549 55.6492C10.8549 55.675 10.8507 55.7008 10.8423 55.7266C10.834 55.7783 10.8256 55.8256 10.8172 55.8686C10.8089 55.8945 10.8047 55.9203 10.8047 55.9461C10.7963 55.9805 10.788 56.0149 10.7796 56.0494C10.788 56.0494 10.7922 56.0494 10.7922 56.0494C10.7671 56.1957 10.7419 56.3506 10.7169 56.5141C10.7169 56.5313 10.7169 56.5442 10.7169 56.5529C10.6918 56.7336 10.6667 56.9229 10.6416 57.1209C10.6416 57.1295 10.6416 57.1338 10.6416 57.1338C10.6248 57.3231 10.6081 57.5125 10.5914 57.7018C10.583 57.7363 10.5788 57.7707 10.5788 57.8051C10.5621 57.9772 10.5453 58.1451 10.5286 58.3086C10.5286 58.3602 10.5286 58.4076 10.5286 58.4506C10.5119 58.6055 10.4993 58.7604 10.491 58.9153C10.4826 58.9756 10.4784 59.0358 10.4784 59.0961C10.4701 59.251 10.4575 59.4016 10.4408 59.5479C10.4408 59.5737 10.4408 59.5996 10.4408 59.6254C10.3655 60.8647 10.3404 61.8459 10.3404 61.8459L10.9176 61.9104L11.2439 61.9492C11.2356 61.9664 11.2314 61.9836 11.2314 62.0008C11.2146 62.1127 11.1937 62.2246 11.1686 62.3364C11.1686 62.3537 11.1644 62.3752 11.1561 62.401V62.4139C10.7796 64.7377 10.9804 67.126 10.9804 67.126L11.7333 66.9711C11.7166 67.0227 11.6999 67.0786 11.6831 67.1389C11.658 67.2551 11.6204 67.3584 11.5953 67.4746C10.8925 70.3147 11.4196 73.8391 11.4196 73.8391H11.52C11.52 73.8391 11.52 73.8434 11.52 73.852C11.52 73.8692 11.5242 73.8864 11.5325 73.9036C11.5953 75.8143 11.8463 78.4866 11.9843 79.8163C11.9592 80.152 11.9467 80.5393 11.9467 80.9782C11.3569 80.5264 10.8925 80.3456 10.8925 80.3456C10.8925 80.3456 11.4447 81.146 11.9718 82.1659C11.9801 82.3467 11.9885 82.5274 11.9969 82.7081C11.1937 82.0756 10.3655 82.1272 10.3655 82.1272C10.3655 82.1272 11.2565 82.876 12.0471 83.6635C12.0471 83.8184 12.0554 83.9733 12.0722 84.1282C10.6165 83.6247 9.36157 83.8958 9.36157 83.8958C10.8047 84.0249 11.9467 85.3288 11.9467 85.3288C11.9467 85.3288 11.018 85.0319 9.4494 85.161C10.4408 85.1997 11.6831 86.0389 12.2353 86.4649C12.2353 86.5165 12.2395 86.5725 12.2478 86.6327C11.8463 86.5682 11.0808 86.4907 10.2776 86.7489C10.8549 86.6973 11.6455 87.0071 12.2604 87.3169C9.22352 87.588 6.73881 88.6079 10.1521 88.4272C14.0298 88.2335 14.8329 88.2077 13.2518 88.7499C11.6706 89.2921 18.1459 88.8403 22.8518 88.453C27.5451 88.0528 33.4682 88.6208 30.2557 87.9882C28.6243 87.6655 27.3443 87.5364 26.4784 87.4977C26.7169 86.7876 27.4322 85.161 29.1012 85.161C28.9757 85.1223 28.8627 85.0835 28.7498 85.0706C28.7247 85.0577 28.6996 85.0577 28.6745 85.0577C28.6076 85.0491 28.5448 85.0448 28.4863 85.0448C28.4863 85.0448 28.4821 85.0448 28.4737 85.0448C28.2353 85.0319 27.9969 85.0835 27.7835 85.161C27.7668 85.1696 27.7459 85.1782 27.7208 85.1868C27.6706 85.204 27.6162 85.2298 27.5576 85.2643C27.5325 85.2729 27.5074 85.2815 27.4823 85.2901C27.4322 85.3245 27.382 85.3546 27.3318 85.3805C27.3067 85.3977 27.2816 85.4149 27.2565 85.4321C27.2146 85.4665 27.1686 85.501 27.1184 85.5354C27.0933 85.5526 27.0682 85.5698 27.0431 85.587C27.0013 85.6214 26.9595 85.6559 26.9176 85.6903C26.8925 85.7161 26.8716 85.7376 26.8549 85.7548C26.8131 85.7893 26.7712 85.828 26.7294 85.871C26.7127 85.8882 26.6918 85.9098 26.6667 85.9356C26.6332 85.97 26.5997 86.0087 26.5663 86.0518C26.5412 86.069 26.5203 86.0905 26.5035 86.1163C26.4701 86.1594 26.4366 86.1981 26.4031 86.2325C26.3864 86.2583 26.3697 86.2798 26.3529 86.2971C26.3278 86.3401 26.2986 86.3788 26.2651 86.4132C26.2484 86.4391 26.2358 86.4649 26.2275 86.4907C26.2024 86.5251 26.1772 86.5596 26.1521 86.594C26.1354 86.6198 26.1229 86.6413 26.1145 86.6585C26.0894 86.693 26.0685 86.7274 26.0518 86.7618C26.035 86.7876 26.0225 86.8091 26.0141 86.8264C25.9974 86.8522 25.9848 86.878 25.9765 86.9038C25.9514 86.9555 25.9305 86.9985 25.9137 87.0329C26.1773 85.5483 27.1059 84.7221 27.1059 84.7221C27.1059 84.7221 25.8761 84.9415 25.4118 86.2067C25.3239 85.0319 27.3192 83.3665 27.3192 83.3665C27.3192 83.3665 25.5749 83.6764 25.1608 85.0319C25.1608 85.0319 25.5749 82.7598 26.3404 82.3725C25.1984 82.5919 24.9474 84.2057 24.9474 84.2057C24.9474 84.2057 24.7341 82.8501 25.3616 81.5462C24.3075 83.0696 24.3074 84.154 24.3074 84.154C24.3074 84.154 24.2991 84.1368 24.2824 84.1024L23.8557 82.2434H24.182L23.6298 75.0397C23.7386 75.0139 23.864 74.9838 24.0063 74.9493C23.6423 73.3614 23.4918 70.0307 23.4416 68.0297C23.4416 67.6682 23.429 67.3584 23.429 67.1002C23.5294 67.0873 23.6298 67.0743 23.7553 67.0614C23.6674 64.983 24.0063 62.0783 24.2447 60.4129C24.2531 60.3354 24.2614 60.258 24.2698 60.1805C24.2782 60.1289 24.2865 60.0772 24.2949 60.0256C24.3033 59.9826 24.3074 59.9438 24.3074 59.9094C24.32 59.8707 24.32 59.8449 24.3325 59.819C24.458 59.8578 24.5961 59.8965 24.7718 59.9481C24.7718 58.2828 25.5247 55.7266 26.0016 54.2936C26.0099 54.2764 26.0141 54.2592 26.0141 54.242C26.0559 54.1215 26.0936 54.0096 26.1271 53.9063C26.2149 53.9451 26.2902 53.9838 26.378 54.0225C26.6541 53.0156 27.3318 51.1565 27.6831 50.1883L28.8502 51.8537L29.9545 51.2082L29.4023 52.2281L30.2933 54.5518L30.8831 54.3582L30.4816 55.0424L31.3976 58.6313H32.3639L31.7365 59.1994L32.1129 59.5479L31.8871 59.961L32.0376 63.5112L33.3302 63.5758L32.5522 64.0793L33.1043 64.4924L32.4016 64.8022L32.0376 68.4557L32.6274 68.3395L32.3639 68.6493L32.778 69.1399L32.3639 69.2561C32.3639 69.2561 32.1129 71.2055 31.9247 71.8897C31.9247 71.8897 34.9616 68.6623 35.6016 67.0614C35.2878 66.4676 35.2878 66.4676 35.2878 66.4676L35.8902 66.4418C35.8902 66.4418 37.0698 64.5053 37.258 63.1369C36.8439 62.4785 36.8439 62.4785 36.8439 62.4785L37.4212 62.7496L37.6345 61.7039L37.258 61.11L37.7976 61.3424C37.7976 61.3424 37.8227 61.2778 37.8478 61.1617C38.011 60.6065 38.4878 58.8379 38.4627 57.7406C37.8604 56.3979 37.8604 56.3979 37.8604 56.3979L38.5004 56.6949C38.5004 56.6949 38.5004 56.6776 38.5004 56.6432C38.5004 56.1785 38.4627 52.4475 38.0486 51.0016C37.8102 50.8209 37.6345 50.6918 37.4965 50.5885L39.3914 51.4018L39.5671 51.2727L39.818 51.7117L40.1569 51.1436L40.0314 52.099C40.8345 52.4088 42.8675 54.0613 42.8675 54.0613L43.4196 53.7127L42.9553 54.5518C42.9553 54.5518 43.0808 54.6164 43.2816 54.7713C43.2899 54.7799 43.2983 54.7842 43.3067 54.7842C43.3485 54.8186 43.3945 54.8574 43.4447 54.9004C43.4614 54.9176 43.4782 54.9305 43.4949 54.9391C43.5451 54.9822 43.5953 55.0295 43.6455 55.0811C43.6622 55.0897 43.6748 55.1027 43.6831 55.1199C43.8254 55.249 43.9843 55.4039 44.16 55.5846C44.1767 55.6018 44.1935 55.619 44.2102 55.6363C44.2855 55.7223 44.3608 55.8084 44.4361 55.8945C44.4528 55.9203 44.4737 55.9418 44.4988 55.959C44.6829 56.1828 44.8837 56.4367 45.1012 56.7207C45.1263 56.7465 45.1472 56.7766 45.1639 56.811C45.256 56.9315 45.3438 57.0563 45.4275 57.1854C45.4525 57.2199 45.4777 57.2543 45.5027 57.2887C45.7286 57.6158 45.9587 57.9815 46.1929 58.386C46.2264 58.4377 46.2599 58.4893 46.2933 58.541C46.377 58.6959 46.4648 58.8551 46.5569 59.0186C46.5903 59.0875 46.6238 59.152 46.6573 59.2123C46.7827 59.436 46.9041 59.6684 47.0212 59.9094C47.0295 59.8836 47.0337 59.8578 47.0337 59.8319C47.0337 59.8836 47.0212 59.9094 47.0212 59.9094C47.0212 59.9094 47.0337 59.8319 47.0463 59.6641C47.0463 59.6641 47.0463 59.6512 47.0463 59.6383C47.0546 59.4834 47.0588 59.3285 47.0588 59.1735C47.0672 59.0875 47.0714 59.0057 47.0714 58.9283C47.0797 58.7733 47.0839 58.6184 47.0839 58.4635C47.0839 58.3774 47.0839 58.2914 47.0839 58.2053C47.0839 58.0504 47.0839 57.9041 47.0839 57.7664C47.0839 57.6889 47.0797 57.6158 47.0714 57.5469C47.0714 57.349 47.0672 57.1596 47.0588 56.9789C47.0588 56.9617 47.0546 56.9445 47.0463 56.9272C47.0379 56.7293 47.0254 56.5356 47.0086 56.3463C47.0086 56.286 47.0044 56.2258 46.9961 56.1656C46.9793 56.0365 46.9668 55.9117 46.9584 55.7912C46.9501 55.7309 46.9417 55.6664 46.9333 55.5975C46.9166 55.477 46.8999 55.3608 46.8831 55.249C46.8748 55.1973 46.8664 55.1457 46.858 55.094C46.8329 54.9391 46.8078 54.7885 46.7827 54.6422C46.7744 54.6336 46.7702 54.6293 46.7702 54.6293C46.7451 54.4744 46.7158 54.3238 46.6824 54.1774C46.674 54.143 46.6656 54.1086 46.6573 54.0742C46.6238 53.9709 46.5945 53.8676 46.5694 53.7643C46.5611 53.7299 46.5527 53.6912 46.5443 53.6481C46.5109 53.5535 46.4816 53.4588 46.4565 53.3641C46.4481 53.3297 46.4397 53.2996 46.4314 53.2738C46.3477 53.0328 46.2682 52.809 46.1929 52.6024C46.1846 52.5938 46.1804 52.5852 46.1804 52.5766C46.1386 52.482 46.1009 52.3916 46.0675 52.3055C46.0591 52.2969 46.0507 52.284 46.0424 52.2668C46.0005 52.1807 45.9629 52.099 45.9294 52.0215C45.9294 52.0215 45.9252 52.0172 45.9169 52.0086C45.4526 51.1049 45.0384 50.7563 45.0384 50.7563L45.1639 50.4465L43.5577 49.3104L43.7208 48.9232L43.0055 48.8328C43.0055 48.8328 43.0055 48.8328 43.0808 48.3164C38.3749 44.3014 33.2549 45.218 33.2549 45.218L33.28 45.2568C33.2047 45.2396 33.1294 45.2223 33.0541 45.2051C33.0876 45.1879 33.1252 45.175 33.1671 45.1664C33.1587 45.1664 33.1545 45.1664 33.1545 45.1664C33.8196 44.9211 35.1749 44.4564 35.7145 44.3918C35.5012 42.8555 35.5012 42.8555 35.5012 42.8555L36.342 44.082L37.7851 43.8238L37.6973 42.7781L38.1741 43.6818L40.2824 43.5139L40.458 42.4166L40.6714 43.3848L41.6878 43.643L42.1522 42.3779L42.3655 44.2111L44.5239 44.6887L44.6118 43.7334L44.9882 44.9469L45.7161 45.0373L45.9671 44.082L46.1427 45.218C46.1427 45.218 47.5357 45.6957 48 46.3541C47.8369 43.6818 45.6659 40.8545 44.0596 39.6281C43.9718 40.4156 43.9718 40.4156 43.9718 40.4156L43.3443 39.3312L41.098 38.7115L41.1733 39.4603L40.6212 38.5049C40.6212 38.5049 39.6047 38.1435 38.5882 38.1435C38.7639 38.6728 38.8894 38.8406 38.8894 38.8406L37.6973 38.066C37.6973 38.066 36.6557 38.1564 35.3631 38.4533C35.338 38.4619 35.3129 38.4662 35.2878 38.4662C35.1875 38.492 35.0829 38.5178 34.9741 38.5437C34.9156 38.5609 34.857 38.5738 34.7984 38.5824C34.7064 38.6082 34.6144 38.634 34.5224 38.6599C34.4471 38.6857 34.3718 38.7072 34.2965 38.7244C34.2128 38.7502 34.1291 38.776 34.0455 38.8019C33.9702 38.8277 33.8907 38.8578 33.8071 38.8922C33.7318 38.9094 33.6565 38.931 33.5812 38.9568C33.4892 38.9912 33.4013 39.0256 33.3176 39.0601C33.2507 39.0859 33.1838 39.1117 33.1169 39.1375C33.0248 39.1805 32.9286 39.2236 32.8282 39.2666C32.778 39.2924 32.7278 39.3183 32.6776 39.3441V39.3312C32.6693 39.3398 32.6609 39.3441 32.6525 39.3441C32.5898 39.3828 32.5271 39.4215 32.4518 39.4474C32.3765 39.4861 32.3137 39.5248 32.2384 39.5635C32.1046 39.641 31.9749 39.7228 31.8494 39.8088C32.0627 40.2865 32.0627 40.2865 32.0627 40.2865L31.222 40.0283L31.3474 40.5447C31.3474 40.5447 30.7451 40.8674 30.0173 41.4355C30.0173 41.4096 30.0214 41.3795 30.0298 41.3451C30.1176 40.3769 30.3812 38.35 31.1341 37.1881C31.1258 37.1795 31.1174 37.1709 31.109 37.1623C30.6698 36.7621 30.6698 36.7492 30.6698 36.7492L31.2973 36.5814L31.7616 34.9289L31.1718 34.3609L31.9749 34.3092L32.6525 31.7789L32.1882 31.2625H32.8282L33.1671 28.9C33.1671 28.9 29.6533 29.8683 27.909 32.7859C28.1224 33.4443 28.1224 33.4443 28.1224 33.4443L27.5702 33.3539L27.0557 34.6578L27.1435 35.058L26.7169 35.1871L25.9639 37.1494L26.5537 37.4463H25.8384C25.8384 37.4463 25.738 37.8207 25.6502 38.4275C25.6502 38.4361 25.6502 38.4447 25.6502 38.4533C25.6251 38.6685 25.6 38.9137 25.5749 39.1892C25.5665 39.2064 25.5624 39.2193 25.5624 39.2279C25.554 39.3656 25.5456 39.5076 25.5373 39.6539C25.5373 39.6625 25.5373 39.6711 25.5373 39.6797C25.5289 39.826 25.5205 39.9767 25.5122 40.1316C25.5122 40.1402 25.5122 40.1488 25.5122 40.1574C25.5122 40.3123 25.5122 40.4758 25.5122 40.648C25.5122 40.6652 25.5122 40.6824 25.5122 40.6996C25.5122 40.9406 25.5205 41.1902 25.5373 41.4484C24.9475 40.4156 24.4455 39.9508 24.4455 39.9508L24.1945 40.6351C24.1945 40.6351 24.0941 40.3252 23.9561 39.6539C25.0227 36.8396 25.2361 33.7541 25.2361 33.7541L25.6502 33.5992L25.1859 32.7342C25.1859 32.7342 25.1859 32.7342 25.5498 32.6826C25.5582 32.6654 25.5624 32.6439 25.5624 32.6181C25.5874 32.4201 25.6125 32.2308 25.6376 32.05C25.6376 32.007 25.6418 31.9597 25.6502 31.908C25.6586 31.7617 25.6669 31.624 25.6753 31.4949C25.6753 31.4433 25.6753 31.3959 25.6753 31.3529C25.6753 31.2066 25.6753 31.0646 25.6753 30.9269C25.6753 30.9183 25.6753 30.9097 25.6753 30.9011C25.6669 30.7547 25.6544 30.6213 25.6376 30.5008C25.6293 30.475 25.6251 30.4535 25.6251 30.4363C25.6084 30.3416 25.5916 30.2513 25.5749 30.1652C25.5665 30.1394 25.5624 30.1136 25.5624 30.0877C25.5373 30.0103 25.5122 29.9371 25.4871 29.8683C25.4871 29.8511 25.4829 29.8381 25.4745 29.8295C25.4243 29.6617 25.3616 29.5455 25.2988 29.4422C25.2988 29.4422 25.2946 29.4422 25.2863 29.4422C25.1482 29.2228 25.0353 29.1582 25.0353 29.1582L25.349 29.1066L24.7216 28.6806C24.7216 28.6806 24.7216 28.6806 25.3992 28.5127C25.1357 26.9636 23.8933 24.5107 23.8933 24.5107L24.0439 24.1363L23.2659 23.6586C23.2659 23.6586 23.2659 23.6586 23.7302 23.607C22.8769 22.032 21.8604 21.2058 20.8941 20.7927C20.8858 20.7841 20.8732 20.7798 20.8565 20.7798C20.7728 20.7367 20.685 20.7023 20.5929 20.6765C20.5678 20.6679 20.5386 20.6593 20.5051 20.6507C20.4298 20.6248 20.3545 20.599 20.2792 20.5732C20.8565 20.5732 21.2831 20.5861 21.2831 20.5861L21.4588 20.0955C21.4588 20.0955 21.4588 20.0955 21.7474 20.7668C21.8729 20.7582 21.9942 20.7539 22.1114 20.7539C22.1448 20.7539 22.1783 20.7539 22.2118 20.7539C22.3289 20.7539 22.4418 20.7582 22.5506 20.7668C23.7804 20.8572 24.7592 21.3091 24.7592 21.3091L25.0478 20.883C25.0478 20.883 25.0478 20.883 25.1608 21.7351C26.3404 22.0449 28.5867 23.7361 28.5867 23.7361L29.0008 23.3746C29.0008 23.3746 29.0008 23.3746 29.0008 23.9814C29.5278 24.2267 30.1804 24.8851 30.1804 24.8851L30.8831 24.0459L30.5318 25.3111L30.6322 25.4015L33.2925 27.9189L33.8824 27.7381L33.531 28.4611L35.1247 30.7074L35.6518 30.3459L35.2376 31.2496C35.2376 31.2496 36.8941 32.6052 37.9106 35.3162C40.458 30.6945 38.1741 26.6795 38.1741 26.6795C38.1741 26.6795 38.149 26.6795 38.1365 26.6795C38.1281 26.6795 38.1239 26.6795 38.1239 26.6795C38.1072 26.6709 38.0863 26.6623 38.0612 26.6537C38.0528 26.6537 38.0444 26.6494 38.0361 26.6408C38.0026 26.6322 37.9733 26.615 37.9482 26.5892C37.9482 26.5892 37.944 26.5849 37.9357 26.5763C37.9022 26.5504 37.8771 26.5117 37.8604 26.4601C37.8227 26.331 37.8478 26.1244 37.9984 25.8017C37.9231 25.6382 37.8478 25.4746 37.7725 25.3111C37.7056 25.182 37.6387 25.0572 37.5718 24.9367C37.555 24.9109 37.5383 24.8808 37.5216 24.8464C37.4546 24.7259 37.3835 24.6054 37.3082 24.4849C37.2999 24.4591 37.2873 24.4332 37.2706 24.4074C37.1953 24.2955 37.12 24.188 37.0447 24.0847C37.0363 24.0589 37.0238 24.033 37.0071 24.0072C36.9318 23.9039 36.8565 23.8007 36.7812 23.6974C36.7644 23.6802 36.7477 23.6586 36.731 23.6328C36.6557 23.5382 36.5804 23.4435 36.5051 23.3488C36.4884 23.3316 36.4758 23.3144 36.4675 23.2972C36.3922 23.2025 36.3169 23.1164 36.2416 23.039C36.2248 23.0218 36.2123 23.0046 36.2039 22.9873C36.1203 22.9013 36.0408 22.8195 35.9655 22.7421C35.9655 22.7334 35.9613 22.7248 35.9529 22.7162C35.2502 21.9933 34.6855 21.6189 34.6855 21.6189L34.0957 21.9675C34.0957 21.9675 34.0957 21.9675 34.2714 21.1025C33.3302 20.4828 30.6196 18.9207 30.6196 18.9207L29.6031 19.6179C29.6031 19.6179 29.6031 19.6179 30.1176 18.74C27.1435 16.9972 25.6251 16.9068 25.6251 16.9068L25.1106 17.4361C25.1106 17.4361 25.1106 17.4361 25.1106 16.739C23.5545 16.7648 22.2871 16.9714 21.2455 17.2554C21.2455 17.2554 21.2497 17.2554 21.258 17.2554C21.2329 17.264 21.212 17.2683 21.1953 17.2683C20.9861 17.3285 20.7812 17.3931 20.5804 17.4619C20.5469 17.4792 20.5135 17.4921 20.48 17.5007C20.2959 17.5695 20.1244 17.6384 19.9655 17.7072C19.9404 17.7158 19.9195 17.7244 19.9027 17.733C19.7187 17.8105 19.5472 17.8923 19.3882 17.9783C19.3631 17.9955 19.338 18.0085 19.3129 18.0171C18.9867 18.1892 18.7022 18.3656 18.4596 18.5464C18.4345 18.5636 18.4136 18.5808 18.3969 18.598C18.2714 18.6841 18.1542 18.7744 18.0455 18.8691C18.0455 18.8691 18.0413 18.8734 18.0329 18.882C17.9744 18.9337 17.9158 18.9853 17.8572 19.0369C18.5349 17.9525 19.5263 16.5066 20.2416 16.0806C19.9404 15.6417 19.9404 15.6417 19.9404 15.6417L20.618 15.732C20.618 15.732 20.6306 15.7191 20.6306 15.7062C20.6389 15.689 20.6515 15.6675 20.6682 15.6417C20.6682 15.633 20.6724 15.6244 20.6808 15.6158C20.7435 15.5126 20.8188 15.3705 20.9318 15.1769C20.9401 15.1683 20.9443 15.1554 20.9443 15.1382C21.3961 14.3894 22.1867 13.1372 22.8267 12.724C22.149 12.0656 22.149 12.0656 22.149 12.0656L22.9521 12.3755C22.9521 12.3755 22.9563 12.3712 22.9647 12.3626C22.9647 12.354 22.9647 12.3497 22.9647 12.3497C22.9731 12.341 22.9814 12.3281 22.9898 12.3109C22.9982 12.3023 23.0065 12.2937 23.0149 12.2851C23.0233 12.2765 23.0358 12.2636 23.0525 12.2464C23.0609 12.2378 23.0693 12.2249 23.0776 12.2076C23.0944 12.1904 23.1111 12.1775 23.1278 12.1689C23.1446 12.1517 23.1613 12.1345 23.178 12.1173C23.2031 12.1087 23.2282 12.0958 23.2533 12.0785C23.2784 12.0613 23.2993 12.0441 23.3161 12.0269C23.3495 12.0097 23.383 11.9925 23.4165 11.9753C23.4416 11.9667 23.4667 11.9581 23.4918 11.9494C23.5336 11.9322 23.5796 11.915 23.6298 11.8978C23.6549 11.8892 23.68 11.8806 23.7051 11.872C23.7887 11.8462 23.8766 11.8247 23.9686 11.8074C23.1153 11.0199 23.1655 10.7617 23.1655 10.7617L24.7718 11.4976C24.7718 11.4976 26.6792 9.58695 27.2314 9.23839C26.6792 8.70908 26.5161 8.48962 26.5161 8.48962L27.9467 9.10929L30.331 7.66339L29.942 7.147L30.9584 7.53429C30.9584 7.53429 33.1671 6.52733 35.1624 7.00499C35.0118 6.77261 34.8235 6.54024 34.6102 6.29495C33.2298 4.77159 30.4565 3.29987 26.3404 3.82918C26.5537 4.48758 26.5914 4.70704 26.5914 4.70704L25.8761 3.997C25.8761 3.997 24.4706 4.21647 22.4878 5.75274C22.902 6.44987 22.902 6.44987 22.902 6.44987L22.2745 6.26913C22.2745 6.26913 21.6847 6.70806 21.1702 7.62466C21.4714 8.01195 21.4714 8.01195 21.4714 8.01195L20.4047 7.92159C20.4047 7.92159 19.2251 9.67732 18.3843 11.291C18.376 11.205 18.3718 11.1232 18.3718 11.0458C18.3718 10.9941 18.3718 10.9468 18.3718 10.9038C18.3634 10.723 18.3508 10.5509 18.3341 10.3874C18.3341 10.3615 18.3299 10.3357 18.3216 10.3099C18.3132 10.1722 18.3006 10.0431 18.2839 9.92261C18.2756 9.87097 18.2672 9.82363 18.2588 9.7806C18.2505 9.66871 18.2379 9.56544 18.2212 9.47076C18.2128 9.42773 18.2044 9.389 18.1961 9.35458C18.171 9.23408 18.1459 9.1179 18.1208 9.00601C18.1124 8.96298 18.104 8.91995 18.0957 8.87691C18.079 8.80806 18.0622 8.73921 18.0455 8.67036C18.0288 8.62732 18.0162 8.58429 18.0078 8.54126C17.9911 8.48101 17.9744 8.42507 17.9576 8.37343C17.9451 8.34761 17.9325 8.30888 17.9325 8.28306C17.6816 7.57302 17.4431 7.2761 17.4431 7.2761L16.9286 7.88286C16.9286 7.88286 16.891 7.66339 17.142 6.96626C16.251 4.87487 14.9835 3.79045 14.9835 3.79045L14.6824 4.48758C14.6824 4.48758 14.6823 4.47467 14.6698 4.44885C14.6698 4.43594 14.6698 4.43594 14.6698 4.43594C14.6447 4.34557 14.582 4.11319 14.4565 3.75172C14.4063 3.63553 14.3561 3.49352 14.3059 3.35151C13.4526 2.25418 10.7671 0.963197 10.7671 0.963197L10.4533 1.19557C10.4533 1.19557 10.4533 1.19557 10.491 0.666271C6.70117 -0.121227 4.83137 0.00787063 4.83137 0.00787063C6.13647 0.291887 7.47921 3.23532 7.47921 3.23532L7.98117 2.75766C7.98117 2.75766 7.98117 2.75766 7.66745 3.45479C8.44549 3.91954 9.96391 6.1013 9.96391 6.1013L10.5663 5.75274C10.5663 5.75274 10.5663 5.75274 10.102 6.2304C11.0431 7.15991 11.8588 8.60581 12.2227 9.26421C12.3357 9.49658 12.411 9.63859 12.411 9.63859L13.4149 9.49658L12.7121 9.81933L13.7914 13.4212L14.4941 13.6794L13.7914 13.7568L13.9294 14.299L12.3984 13.2275C12.3984 13.2275 12.3984 13.2275 12.1976 13.6148C12.1725 13.5244 12.1349 13.4341 12.0847 13.3566C12.0763 13.3394 12.0638 13.3222 12.0471 13.305C11.9383 13.1328 11.8003 12.9779 11.6329 12.8402C11.6162 12.8316 11.5995 12.8187 11.5827 12.8015C11.4907 12.7326 11.3987 12.6681 11.3067 12.6078C11.1979 12.5476 11.0892 12.4874 10.9804 12.4271C10.9637 12.4271 10.9511 12.4228 10.9427 12.4142C10.9009 12.397 10.8591 12.3755 10.8172 12.3497C10.8172 12.3583 10.8172 12.3626 10.8172 12.3626C9.5247 11.7687 7.81803 11.588 7.81803 11.588L7.94352 11.8462C7.94352 11.8462 7.81803 11.588 7.05254 11.2007C5.74745 11.3427 4.66823 11.6267 3.7898 11.9624C3.7898 11.9538 3.7898 11.9494 3.7898 11.9494C3.75633 11.9667 3.72706 11.9796 3.70196 11.9882C3.58484 12.0312 3.46771 12.0785 3.35058 12.1302C3.26692 12.1646 3.18326 12.2033 3.0996 12.2464C2.98666 12.2851 2.88627 12.3367 2.78588 12.3884C2.71058 12.4271 2.62274 12.4658 2.54744 12.5175C2.38849 12.6035 2.2379 12.6896 2.09568 12.7757C2.02875 12.8187 1.96183 12.8617 1.8949 12.9048C1.8196 12.9564 1.7443 13.0081 1.66901 13.0597C1.61045 13.1027 1.55188 13.1458 1.49332 13.1888C1.42639 13.2404 1.36365 13.2921 1.30509 13.3437C1.24652 13.3867 1.19215 13.4298 1.14196 13.4728C1.0583 13.5503 0.978817 13.6234 0.903523 13.6923C0.853326 13.7439 0.803137 13.7912 0.75294 13.8343C0.71111 13.8773 0.67346 13.9203 0.639996 13.9634C0.598166 14.0064 0.560516 14.0494 0.527052 14.0925C0.493588 14.1269 0.464313 14.1613 0.439215 14.1958C0.405751 14.2388 0.376461 14.2775 0.351363 14.3119C0.326264 14.3464 0.30117 14.3765 0.276071 14.4023C0.234241 14.4626 0.196591 14.5185 0.163127 14.5701C0.150578 14.596 0.138038 14.6089 0.125489 14.6347C0.108757 14.6605 0.0920222 14.6863 0.0752902 14.7121C0.0669242 14.7294 0.058549 14.7466 0.050183 14.7638C0.0334509 14.781 0.025091 14.7982 0.025091 14.8154C0.016725 14.824 0.0125451 14.8326 0.0125451 14.8412C0.00417906 14.8585 -8.7905e-07 14.8671 -8.7905e-07 14.8671C0.175685 14.8154 0.33882 14.7767 0.514506 14.7509C0.573068 14.7423 0.631633 14.7337 0.690195 14.7251C0.815686 14.7078 0.93698 14.6949 1.0541 14.6863C1.11267 14.6777 1.17123 14.6734 1.22979 14.6734C1.38875 14.6648 1.54353 14.6648 1.69412 14.6734C1.75268 14.6734 1.81123 14.6777 1.86979 14.6863C1.97018 14.6863 2.07058 14.6906 2.17097 14.6992C2.24626 14.7078 2.31739 14.7165 2.38431 14.7251C2.47634 14.7423 2.56418 14.7595 2.64784 14.7767C2.7064 14.7853 2.76497 14.7939 2.82353 14.8025C2.95739 14.8283 3.08288 14.8542 3.2 14.88C3.2502 14.8972 3.30457 14.9144 3.36313 14.9316C3.43842 14.9488 3.51372 14.9703 3.58902 14.9962C3.63085 15.0048 3.67268 15.0177 3.71451 15.0349C3.8149 15.0607 3.91529 15.0994 4.01569 15.1253C4.40471 15.2673 4.64314 15.3835 4.64314 15.3835L4.83137 14.8671C4.83137 14.8671 4.83137 14.8671 5.01961 15.7837C5.84784 15.9128 7.24078 16.4937 7.24078 16.4937L7.81803 16.0419C7.81803 16.0419 7.81803 16.0419 7.6298 16.9585C8.25725 17.1005 9.29882 17.8621 9.75058 18.2107C9.88862 18.3269 9.97647 18.3914 9.97647 18.3914L10.6165 17.6685C10.6165 17.6685 10.6165 17.6685 10.491 18.7271C11.1184 18.9466 11.6455 19.3855 12.0471 19.8115C12.1726 19.9492 12.2813 20.0783 12.3733 20.1988C12.3817 20.2074 12.3901 20.216 12.3984 20.2246C12.3984 20.2246 12.3984 20.2289 12.3984 20.2375C12.3901 20.2375 12.3817 20.2375 12.3733 20.2375C12.3315 20.2548 12.2939 20.2677 12.2604 20.2763C12.1684 20.3107 12.0805 20.3451 11.9969 20.3796C11.9801 20.3796 11.9676 20.3839 11.9592 20.3925C11.5576 20.5603 11.3443 20.7023 11.3443 20.7023V21.18L10.6165 20.883C10.1522 21.3994 8.1945 23.7619 8.1945 23.7619L8.31999 24.3687C8.31999 24.3687 8.32 24.3687 7.73019 24.33C6.24941 25.9437 5.53411 28.332 5.53411 28.332L5.6596 28.7322C5.6596 28.7322 5.65961 28.7322 5.1451 28.8613C4.86902 29.623 4.65568 30.3588 4.47999 31.0818C4.46326 31.1592 4.44653 31.2324 4.42979 31.3013C4.4047 31.4217 4.3796 31.5379 4.3545 31.6498C4.32104 31.8047 4.29176 31.9554 4.26667 32.1017C4.24993 32.2049 4.22902 32.3082 4.20392 32.4115C4.17882 32.5922 4.15371 32.7644 4.12862 32.9279C4.12025 33.0054 4.11189 33.0785 4.10352 33.1474C4.07006 33.3797 4.04078 33.6035 4.01569 33.8187C4.01569 33.909 4.00312 33.9994 4.00312 34.0769C3.98639 34.2146 3.97385 34.3523 3.96549 34.49C3.95712 34.576 3.95294 34.6621 3.95294 34.7482C3.94457 34.8687 3.9362 34.9892 3.92783 35.1097C3.92783 35.1957 3.92783 35.2775 3.92783 35.3549C3.91947 35.4668 3.91529 35.5787 3.91529 35.6906C3.91529 35.7594 3.91529 35.8326 3.91529 35.9101ZM27.3067 46.651L27.2941 46.7027C27.269 46.651 27.2397 46.5994 27.2063 46.5477C27.1979 46.5047 27.1895 46.466 27.1812 46.4316C27.1812 46.4316 27.1854 46.4316 27.1937 46.4316L27.2816 46.2896C27.2816 46.3154 27.2816 46.3455 27.2816 46.3799C27.2899 46.466 27.2983 46.5564 27.3067 46.651ZM27.2439 46.8963L27.1435 47.2191C27.1352 47.2018 27.1226 47.1846 27.1059 47.1674L27.2439 46.8963ZM18.0329 86.3487C18.0246 86.4176 18.0204 86.4692 18.0204 86.5036C18.0204 86.4606 18.0204 86.4003 18.0204 86.3229L18.0329 86.3487ZM17.0165 19.6308C17.0248 19.7341 17.0374 19.8416 17.0541 19.9535V19.9406C17.0374 19.9234 17.0207 19.9105 17.0039 19.9019C17.0039 19.9019 17.0039 19.8976 17.0039 19.889C16.9872 19.8804 16.9788 19.8761 16.9788 19.8761L16.8157 20.1988C16.8408 20.1343 16.8533 20.0697 16.8784 20.0052C16.9119 19.9019 16.9579 19.7642 17.0165 19.5921C17.0165 19.6007 17.0165 19.6136 17.0165 19.6308ZM23.3412 39.2795C22.4377 38.8019 21.3961 38.2467 21.3961 38.2467L21.2706 39.0988C21.2706 39.0988 21.1451 38.931 20.6306 38.1564C18.8235 37.4592 16.251 37.4334 16.251 37.4334L16.0878 38.0531C16.0878 38.0531 16.0878 38.0531 15.611 37.3043C15.3098 37.2656 14.9584 37.2398 14.6196 37.2269C14.6949 35.6906 14.8455 34.1931 14.9584 33.2636C14.9668 33.1689 14.9752 33.0785 14.9835 32.9924C15.109 33.0312 15.2345 33.0699 15.4102 33.1215C15.3725 31.4691 16.0251 28.9259 16.4392 27.48C16.4559 27.4283 16.4685 27.381 16.4769 27.3379C16.502 27.2605 16.527 27.183 16.5521 27.1056C16.5521 27.0884 16.5563 27.0711 16.5647 27.0539C16.64 27.0927 16.7153 27.1185 16.8031 27.1701C16.8784 26.8345 16.9914 26.4213 17.1294 25.9824L17.2423 26.2277L18.0831 25.5822L17.5561 26.4859L19.3757 30.6041L20.3169 30.2814L19.7898 30.759L20.3671 32.05L21.2455 32.5277L20.8314 32.7342L21.4086 34.5158L21.7098 35.4582L22.1867 35.3033L21.8729 35.781C21.8729 35.781 22.538 36.349 23.3412 39.2795ZM24.8972 44.8953C25.0478 44.9727 25.1942 45.0502 25.3365 45.1277C25.3616 45.1449 25.3909 45.1621 25.4243 45.1793C25.462 45.1922 25.4871 45.218 25.5247 45.2439C25.4661 45.2094 25.4076 45.1793 25.349 45.1535C25.3156 45.1363 25.2779 45.1234 25.2361 45.1148C25.1273 45.0631 25.0186 45.0158 24.9098 44.9727C24.8763 44.9641 24.8387 44.9512 24.7969 44.934C24.7132 44.9082 24.6295 44.8781 24.5459 44.8437C24.5041 44.835 24.4622 44.8221 24.4204 44.8049C24.32 44.7705 24.2196 44.7404 24.1192 44.7146C24.1025 44.7059 24.0816 44.6973 24.0565 44.6887C23.9393 44.6543 23.8222 44.6242 23.7051 44.5984C23.6716 44.5898 23.6382 44.5812 23.6047 44.5725C23.5043 44.5467 23.4039 44.5209 23.3035 44.4951C23.2784 44.4865 23.2575 44.4822 23.2408 44.4822C21.7976 44.1465 20.5427 44.0691 20.5427 44.0691L20.6431 44.7016C20.6431 44.7016 20.6431 44.7016 19.9404 44.0949C18.4094 44.082 16.5898 44.3918 16.5898 44.3918L16.8533 44.9986L15.9498 44.4434L14.5318 44.7275C14.4941 44.2756 14.4565 43.8109 14.4314 43.3461C14.8957 43.3848 15.4729 43.4236 15.8871 43.4623C16.778 43.5785 17.5435 43.7076 17.5435 43.7076L17.8949 43.1912L17.8698 43.9141L20.0659 44.0045L20.2416 43.6947C20.2667 43.6861 20.296 43.6818 20.3294 43.6818C20.3294 43.7334 20.342 43.8238 20.342 43.94C22.2745 43.8883 23.7804 44.3402 24.8972 44.8953ZM25.0604 49.6203L23.3412 52.5895L23.7177 52.7574C23.6591 52.8693 23.6005 52.9897 23.542 53.1188C23.5336 53.1361 23.5252 53.1576 23.5169 53.1834C23.4499 53.3211 23.3788 53.4674 23.3035 53.6223C23.2952 53.6481 23.2868 53.6697 23.2784 53.6869C23.2031 53.859 23.1278 54.0354 23.0525 54.2162C23.0442 54.2334 23.0358 54.2463 23.0275 54.2549C22.9522 54.4356 22.8769 54.6207 22.8016 54.81C22.7848 54.8445 22.7723 54.8789 22.7639 54.9133C22.697 55.0768 22.6301 55.2404 22.5631 55.4039C22.538 55.4555 22.5129 55.5115 22.4878 55.5717C22.4376 55.7008 22.3875 55.8299 22.3373 55.959C22.2243 56.2172 22.1239 56.4754 22.0235 56.7207C22.0235 56.7207 22.0235 56.725 22.0235 56.7336C21.5467 57.96 21.1702 58.9541 21.1702 58.9541L21.5843 59.2639C21.576 59.2897 21.5718 59.3113 21.5718 59.3285C21.5634 59.3457 21.555 59.3629 21.5467 59.3801C21.5299 59.4662 21.509 59.5479 21.4839 59.6254C21.4337 59.7889 21.3877 59.9567 21.3459 60.1289C21.3375 60.1547 21.3291 60.1805 21.3208 60.2063C21.3208 60.2149 21.3208 60.2192 21.3208 60.2192C20.4298 63.6662 19.9027 67.3713 19.9027 67.3713L20.2541 67.3455C20.2541 67.3541 20.2541 67.3584 20.2541 67.3584C19.1749 70.4825 19.1373 75.1301 19.1373 75.1301L19.3631 75.2075C19.3548 75.2592 19.3506 75.3108 19.3506 75.3624C19.3422 75.3883 19.338 75.4098 19.338 75.427C19.3129 75.6077 19.2878 75.8057 19.2627 76.0209C19.1122 77.3764 18.9867 79.1967 18.9114 80.4489L18.811 80.0616H18.8863L17.2549 73.5163L17.1043 72.9225C17.2549 72.8795 17.4264 72.8278 17.6188 72.7676C16.9161 71.4637 16.2761 68.6106 15.9373 66.8936C15.8745 66.5838 15.8118 66.3127 15.7741 66.0932C15.9498 66.0545 16.138 66.0157 16.3639 65.9641C15.5733 64.4537 15.36 62.0524 15.2972 61.2262C15.498 61.2133 15.7365 61.1875 16.0251 61.1617C15.1969 59.7803 14.9961 57.392 14.9459 55.9848C14.9375 55.8988 14.9333 55.817 14.9333 55.7395C14.9333 55.7309 14.9333 55.7266 14.9333 55.7266C14.9333 55.6147 14.9333 55.5115 14.9333 55.4168H15.2722L14.9835 52.2539L15.749 51.6988L15.7867 51.6729L15.8369 50.7563L16.251 51.5826L17.3176 51.4018L17.4431 50.5756L17.9953 51.5438L21.1325 49.9688L21.4714 48.9232L21.6847 50.1883L23.2031 49.801L23.5922 48.6133L24.182 50.0076L25.0604 49.6203ZM20.3922 87.3428C20.3754 87.3428 20.3629 87.3428 20.3545 87.3428C20.3545 87.3428 20.3545 87.3385 20.3545 87.3298C20.3545 87.3169 20.3796 87.3298 20.3922 87.3428ZM18.5474 12.0269H18.3843C18.3843 11.9667 18.3843 11.9064 18.3843 11.8462C18.5475 12.0269 18.5474 12.0269 18.5474 12.0269Z" fill="#281203"/>
</svg>
