<svg width="111" height="114" viewBox="0 0 111 114" fill="none" xmlns="http://www.w3.org/2000/svg">
<g opacity="0.5">
<path d="M98.2997 0L98.2518 17.0499H95.1367L95.0887 23.2107H91.0151V30.9476H90.44V30.1835H88.475V41.2158H87.5165L87.2769 113.857H90.0566L90.2962 32.7625H91.7819L91.5422 113.857H93.0279L93.2676 32.7625H95.1846L94.945 113.857H96.3827L96.6224 32.7625H98.5394L98.2997 113.857H99.7375L100.025 32.7625H101.942L101.702 113.857H103.14L103.38 32.7625H105.297L105.057 113.857H106.495L106.783 32.7625H108.7L108.46 113.857H110.76L111 39.0189V30.9476H107.501L107.549 23.2107H103.955V17.0499H100.121L100.217 0H98.2997Z" fill="#281203"/>
<path fill-rule="evenodd" clip-rule="evenodd" d="M48.0257 44.5588H44.2396L44 114H49.3676L49.5593 38.1114H49.799L49.5593 114L78.5063 113.952L78.746 38.1114H78.9377L78.698 113.952H81.286L81.4777 51.4839L81.5736 50.3854H80.4234L80.4713 36.6787H48.0257V44.5588ZM44.8147 95.6607V92.5086H47.7382V95.6607H44.8147ZM44.9585 53.2987V50.2899H47.882V53.2987H44.9585ZM44.8147 109.797V106.836H47.7382V109.797H44.8147ZM44.9106 81.5241V78.6586H47.834V81.5241H44.9106ZM44.9585 63.6146V60.749H47.9299L47.882 63.6146H44.9585ZM44.9585 67.4353V64.5697H47.9299L47.882 67.3875L44.9585 67.4353ZM44.9585 77.7511V74.9334H47.882V77.7511H44.9585ZM44.8627 105.929V103.207H47.834L47.7861 105.929H44.8627ZM45.0543 49.3825V46.6602H48.0257L47.9778 49.3825H45.0543ZM44.9585 91.6012V89.0699H47.882V91.6012H44.9585ZM67.2918 61.8475V59.5551H69.4005V61.8475H67.2918ZM67.2918 53.5375V51.2451H69.4005V53.5375H67.2918ZM67.2438 66.0025V63.7101H69.3526V66.0025H67.2438ZM67.2918 49.3825V47.09H69.4005V49.3825H67.2918ZM67.2918 41.0724L67.3397 38.78H69.4005V41.0724H67.2918ZM71.2217 61.8475V59.5551H73.3304V61.8475H71.2217ZM59.2882 53.5375V51.2451H61.3969V53.5375H59.2882ZM59.2403 61.8475V59.5551H61.349V61.8475H59.2403ZM71.2217 53.5375V51.2451H73.3304V53.5375H71.2217ZM51.2847 53.5375V51.2451H53.3934V53.5375H51.2847ZM51.2367 61.8475V59.5551H53.3455V61.8475H51.2367ZM67.1959 57.6925V55.4001H69.3046V57.6925H67.1959ZM59.2403 49.3825V47.09H61.349V49.3825H59.2403ZM51.1888 66.0025L51.2367 63.7101H53.2975V66.0025H51.1888ZM71.1737 49.3825V47.09H73.2825V49.3825H71.1737ZM51.2367 49.3825V47.09H53.3455V49.3825H51.2367ZM71.1258 66.0025V63.7101H73.2345L73.1866 66.0025H71.1258ZM59.1924 66.0025V63.7101H61.3011V66.0025H59.1924ZM71.2217 41.0724V38.78H73.3304V41.0724H71.2217ZM51.2847 41.0724V38.78H53.3934V41.0724H51.2847ZM59.2403 41.0724V38.78H61.349V41.0724H59.2403ZM51.1888 57.6925L51.2367 55.4001H53.2975V57.6925H51.1888ZM59.1924 57.6925V55.4001H61.3011L61.2532 57.6925H59.1924ZM71.1737 57.6925V55.4001H73.2825V57.6925H71.1737ZM59.2403 45.2275V42.935H61.349V45.2275H59.2403ZM71.1737 45.2275V42.935H73.2825V45.2275H71.1737ZM51.2367 45.2275V42.935H53.3455V45.2275H51.2367ZM67.1001 78.4675V76.1751H69.2088L69.1609 78.4675H67.1001ZM67.0521 103.398V101.105H69.1609V103.398H67.0521ZM67.0521 90.9325L67.1001 88.6401H69.1609V90.9325H67.0521ZM67.1001 86.7775V84.4851H69.2088L69.1609 86.7775H67.1001ZM67.148 82.6225V80.3301H69.2567L69.2088 82.6225H67.148ZM71.0779 103.398V101.105H73.1866V103.398H71.0779ZM59.1444 103.398V101.105H61.2532L61.2052 103.398H59.1444ZM51.1888 103.398V101.105H53.2975V103.398H51.1888ZM59.2403 78.4675V76.1751H61.349V78.4675H59.2403ZM71.1737 78.4675V76.1751H73.2825V78.4675H71.1737ZM51.2367 78.4675V76.1751H53.3455V78.4675H51.2367ZM67.0521 111.708L67.1001 109.415H69.1609V111.708H67.0521ZM67.1001 107.553V105.26H69.1609V107.553H67.1001ZM67.1959 74.3125L67.2438 72.0201H69.3046V74.3125H67.1959ZM67.148 99.2426V96.9501H69.2567L69.2088 99.2426H67.148ZM59.2403 82.6225V80.3301H61.349V82.6225H59.2403ZM51.2847 82.6225V80.3301H53.3934L53.3455 82.6225H51.2847ZM59.2882 86.7775V84.4851H61.3969L61.349 86.7775H59.2882ZM59.2882 90.9325V88.6401H61.3969V90.9325H59.2882ZM71.2696 86.7775V84.4851H73.3783L73.3304 86.7775H71.2696ZM71.2696 90.9325V88.6401H73.3783V90.9325H71.2696ZM71.3175 82.6225V80.3301H73.3783V82.6225H71.3175ZM51.3805 90.9325V88.6401H53.4892V90.9325H51.3805ZM51.3805 86.7775V84.4851H53.4892V86.7775H51.3805ZM59.3361 95.0875V92.7951H61.4449V95.0875H59.3361ZM71.3175 74.3125V72.0201H73.4262V74.3125H71.3175ZM51.2847 107.553V105.26H53.3934V107.553H51.2847ZM51.3326 95.0875V92.7951H53.4413V95.0875H51.3326ZM71.1737 111.708L71.2217 109.415H73.2825V111.708H71.1737ZM51.3805 74.3125V72.0201H53.4892V74.3125H51.3805ZM59.2403 107.553V105.26H61.349V107.553H59.2403ZM51.2367 111.708V109.415H53.3455V111.708H51.2367ZM59.3361 74.3125V72.0201H61.3969V74.3125H59.3361ZM59.2403 111.708V109.415H61.349V111.708H59.2403ZM71.2217 95.0875V92.7951H73.3304V95.0875H71.2217ZM51.3805 70.1575V67.8651H53.4892V70.1575H51.3805ZM71.2217 99.2426V96.9501H73.3304L73.2825 99.2426H71.2217ZM51.3326 99.2426V96.9501H53.4413L53.3934 99.2426H51.3326ZM59.3361 99.2426V96.9501H61.4449V99.2426H59.3361ZM59.3841 70.1575L59.432 67.8651H61.4928V70.1575H59.3841ZM71.3654 70.1097V67.8651H73.4742V70.1097H71.3654ZM55.4542 61.8475V59.5551H57.515V61.8475H55.4542ZM63.4577 53.5375V51.2451H65.5665V53.5375H63.4577ZM75.3912 61.8475V59.5551H77.4999L77.452 61.8475H75.3912ZM75.4391 53.4897V51.2451H77.5478V53.4897H75.4391ZM63.4577 61.8475V59.5551H65.5665L65.5185 61.8475H63.4577ZM55.55 49.3825V47.09H57.6587V49.3825H55.55ZM75.3912 66.0025V63.7101H77.4999V66.0025H75.3912ZM63.5057 49.3347V47.09H65.6144L65.5665 49.3347H63.5057ZM75.487 49.3347V47.09L77.5958 47.0423V49.3347H75.487ZM55.5021 66.0025V63.7101H57.6108L57.5629 66.0025H55.5021ZM55.598 41.0247V38.78L57.7067 38.7323V41.0247H55.598ZM75.535 41.0247V38.7323H77.5958V41.0247H75.535ZM63.6015 41.0247V38.7323H65.7102V41.0247H63.6015ZM55.55 57.6925V55.4001H57.6587V57.6447L55.55 57.6925ZM63.5057 57.6925V55.4478H65.6144V57.6925H63.5057ZM55.55 45.2275L55.598 42.935H57.6587V45.2275H55.55ZM75.487 45.2275V42.935H77.5958V45.2275H75.487ZM63.5057 45.2275V42.935H65.6144V45.2275H63.5057ZM75.2953 103.445V101.153H77.3561V103.445H75.2953ZM63.3619 103.445V101.153H65.4706V103.445H63.3619ZM75.3912 78.4675V76.2229H77.4999L77.452 78.4675H75.3912ZM63.4577 78.4675V76.2229H65.5665V78.4675H63.4577ZM55.4542 78.4675V76.2229H57.5629V78.4675H55.4542ZM55.3583 103.445L55.4063 101.153H57.467V103.445H55.3583ZM63.3619 90.9325V88.6879H65.4706V90.9325H63.3619ZM55.4063 90.9325V88.6879H57.515L57.467 90.9325H55.4063ZM55.4542 82.6225V80.3779H57.5629V82.6225H55.4542ZM75.3433 86.7775V84.5329H77.452V86.7775H75.3433ZM63.3619 86.7775L63.4098 84.5329H65.4706V86.7775H63.3619ZM63.3619 82.6225L63.4098 80.3779H65.4706V82.6225H63.3619ZM75.2953 90.9325V88.6879H77.4041V90.9325H75.2953ZM75.2953 82.6225L75.3433 80.3301H77.4041V82.6225H75.2953ZM55.4063 74.3125V72.0678L57.515 72.0201V74.3125H55.4063ZM75.2474 95.0875V92.8429H77.3561V95.0875H75.2474ZM63.3619 74.3125V72.0201H65.4706L65.4227 74.3125H63.3619ZM55.3104 111.708V109.463H57.3712V111.708H55.3104ZM63.3619 95.0875V92.8429H65.4706L65.4227 95.0875H63.3619ZM63.314 111.708L63.3619 109.463H65.4227V111.708H63.314ZM75.3912 74.3125V72.0201H77.4999V74.3125H75.3912ZM75.2953 107.553V105.308H77.3561V107.553H75.2953ZM63.3619 107.553V105.308H65.4706V107.553H63.3619ZM75.2953 111.708V109.463H77.4041L77.3561 111.708H75.2953ZM75.4391 70.1575V67.8651H77.5478V70.1575H75.4391ZM63.4098 99.2426V96.9979H65.4706V99.2426H63.4098ZM75.3912 99.2426V96.9979H77.4999L77.452 99.2426H75.3912ZM63.5536 70.1575V67.8651H65.6623V70.1575H63.5536ZM55.4542 99.2426V96.9979H57.5629V99.2426H55.4542ZM55.55 70.1575V67.8651H57.6587V70.1575H55.55Z" fill="#281203"/>
<path fill-rule="evenodd" clip-rule="evenodd" d="M12.1365 113.822L12.5489 25.9552L14.3163 26.0145L13.9039 113.822H18.4403L18.8527 26.0145H20.5613L20.2078 113.882H24.8031L25.2155 32.7689L25.9814 32.8282L25.6279 113.882H27.9256L27.9845 112.341C28.2791 111.571 28.4558 111.275 28.6326 111.156C28.6719 111.156 28.6915 111.156 28.6915 111.156C28.7308 111.117 28.7504 111.097 28.7504 111.097C29.3396 111.215 29.6341 112.104 29.693 112.282C29.693 112.321 29.693 112.341 29.693 112.341V113.941H30.9302V112.341C31.3426 111.393 31.5783 111.156 31.7551 111.097C32.2853 111.215 32.5799 112.104 32.6388 112.341V113.941L38 114V113.111H36.8806V112.578H38V109.438H36.9395V108.905H38V105.764H36.9395V105.231H38V102.091H36.9395V101.558H38V98.4174H36.9395V97.8841H38V94.7439H36.9985V94.2107H38V91.0704H36.9985V90.5372H38V87.397H36.9985V86.8637H38V83.7235H37.0574V83.1903H38V80.05H37.0574V79.5168H38V72.7031H37.0574V72.1699H38V69.0296H37.1163V68.4964H38V65.5932H35.9969C36.0362 65.2772 36.0558 64.9809 36.0558 64.7044C36.0558 64.3489 36.0362 63.9934 35.9969 63.6379C35.9969 63.5984 35.9969 63.5589 35.9969 63.5194C35.9969 63.4799 35.9773 63.4207 35.938 63.3417C35.938 63.0652 35.9184 62.8084 35.8791 62.5714C35.8398 62.4924 35.8202 62.4134 35.8202 62.3344C35.7416 62.0579 35.6631 61.7814 35.5845 61.505C35.5845 61.4655 35.5845 61.4062 35.5845 61.3272C35.506 61.0902 35.4078 60.8532 35.2899 60.6162C35.2507 60.5767 35.231 60.5174 35.231 60.4384C35.1132 60.2015 34.9954 59.9842 34.8775 59.7867C34.8775 59.7472 34.8579 59.7275 34.8186 59.7275C34.7008 59.4905 34.5633 59.2732 34.4062 59.0757C34.4062 59.0362 34.3866 59.0165 34.3473 59.0165C34.2295 58.819 34.092 58.6412 33.9349 58.4832C33.9349 58.4437 33.9152 58.424 33.876 58.424C33.7189 58.2265 33.5421 58.0487 33.3458 57.8907C33.3065 57.8512 33.2672 57.8117 33.2279 57.7722C32.953 57.5747 32.678 57.397 32.4031 57.239C32.4031 57.1995 32.3835 57.1797 32.3442 57.1797C32.3049 57.1402 32.2853 57.1205 32.2853 57.1205C32.2853 57.1205 32.2656 57.1205 32.2264 57.1205C32.2264 57.1205 32.2264 57.1007 32.2264 57.0612C32.1871 57.0612 32.1675 57.0612 32.1675 57.0612C32.0496 56.9822 31.9318 56.923 31.814 56.8835C31.7747 56.844 31.7354 56.8242 31.6962 56.8242C31.6962 56.8242 31.6765 56.8045 31.6372 56.765C31.4016 56.6465 31.1659 56.5477 30.9302 56.4687C30.8517 56.4292 30.7731 56.4095 30.6946 56.4095C30.5375 56.3305 30.3607 56.2712 30.1644 56.2317C30.0072 56.1527 29.8305 56.0935 29.6341 56.054C29.6341 56.054 29.6145 56.054 29.5752 56.054C29.5752 56.054 29.5556 56.054 29.5163 56.054C29.477 56.054 29.4574 56.0342 29.4574 55.9947C29.4574 55.9947 29.4377 55.9947 29.3985 55.9947C29.3985 55.9947 29.3788 55.9947 29.3396 55.9947C29.261 55.9947 29.1628 55.975 29.045 55.9355C29.045 55.9355 29.0253 55.9355 28.9861 55.9355C28.9075 55.9355 28.829 55.9157 28.7504 55.8762C28.7111 55.8762 28.6719 55.8762 28.6326 55.8762C28.5933 55.8762 28.554 55.8762 28.5147 55.8762C28.4362 55.8762 28.3773 55.8565 28.338 55.817C28.2987 55.817 28.2594 55.817 28.2202 55.817C28.1809 55.817 28.1416 55.817 28.1023 55.817C28.0631 55.817 28.0238 55.817 27.9845 55.817C27.9452 55.817 27.9256 55.817 27.9256 55.817L28.0434 31.2284H25.3923L25.4512 24.1185H22.8L10.7814 24H7.60001V29.2732H6.42172V31.3469L6.36282 32.2949V39.7011L1.88528 39.6419V35.9684L1.94421 35.0204V29.214H0.235672V32.9467L0.176773 35.9684H0V113.763L12.1365 113.822ZM1.59071 111.571L6.00931 111.63V113.171H1.53181L1.59071 111.571ZM1.64964 107.897H6.12715L6.06824 109.497L1.64964 109.438V107.897ZM1.64964 104.224L6.12715 104.283V105.824H1.64964V104.224ZM1.64964 100.55H6.12715V102.15H6.06824L1.94421 102.091H1.64964V100.55ZM1.64964 96.8769L6.12715 96.9361V98.4766H1.64964V96.8769ZM1.64964 93.2034H6.12715V94.8032H1.64964V93.2034ZM1.70854 89.53H6.12715V91.1297L2.00311 91.0704H1.64964L1.70854 89.53ZM1.76744 85.8565L6.18605 85.9157V87.4562H1.76744V85.8565ZM1.76744 82.183H6.24498L6.18605 83.7827L1.76744 83.7235V82.183ZM1.76744 78.5096L6.24498 78.5688V80.1093H1.76744V78.5096ZM1.76744 74.8361H6.24498V76.4358L2.06201 76.3766H1.76744V74.8361ZM1.76744 71.1626L6.24498 71.2219V72.7624H1.76744V71.1626ZM1.76744 67.4891H6.24498V69.0889L2.12096 69.0296H1.76744V67.4891ZM1.82638 63.8157L6.24498 63.8749V65.4154H1.82638V63.8157ZM1.82638 60.1422H6.30389L6.24498 61.7419H1.82638V60.1422ZM1.82638 56.4095L6.30389 56.4687V58.0685L1.82638 58.0092V56.4095ZM1.82638 52.736H6.30389V54.3358H1.82638V52.736ZM1.82638 49.0626H6.30389V50.6623L2.17986 50.603H1.82638V49.0626ZM1.88528 45.3891L6.30389 45.4483V46.9888H1.82638L1.88528 45.3891ZM6.36282 41.7156V43.3153L1.94421 43.2561V41.7156H6.36282ZM32.8745 66.4227H31.107L31.1659 59.7867C31.2052 59.6682 31.2445 59.5695 31.2837 59.4905C31.2837 59.451 31.3034 59.4312 31.3426 59.4312C31.5783 58.7795 31.814 58.5425 32.0496 58.5425C32.0889 58.5425 32.1282 58.5425 32.1675 58.5425C32.246 58.582 32.3049 58.6215 32.3442 58.661C32.3835 58.7005 32.4031 58.7202 32.4031 58.7202C32.4424 58.7597 32.462 58.7795 32.462 58.7795C32.462 58.7795 32.4817 58.7992 32.5209 58.8387C32.5209 58.8782 32.5406 58.9177 32.5799 58.9572C32.5799 58.9572 32.5995 58.977 32.6388 59.0165C32.6388 59.056 32.6584 59.0955 32.6977 59.135C32.6977 59.1745 32.6977 59.214 32.6977 59.2535C32.737 59.2535 32.7566 59.2732 32.7566 59.3127C32.7959 59.3522 32.8155 59.3917 32.8155 59.4312C32.8155 59.4707 32.8155 59.4905 32.8155 59.4905C32.8155 59.4905 32.8155 59.5102 32.8155 59.5497C32.8548 59.5497 32.8745 59.5497 32.8745 59.5497C32.8745 59.5892 32.8745 59.609 32.8745 59.609C32.8745 59.609 32.8745 59.6287 32.8745 59.6682C32.8745 59.6682 32.8941 59.688 32.9333 59.7275C32.9333 59.767 32.9333 59.7867 32.9333 59.7867L32.8745 66.4227ZM32.8155 76.9098H31.0481L31.107 70.2146C31.1463 70.1356 31.1855 70.0369 31.2248 69.9184C31.2248 69.9184 31.2248 69.8986 31.2248 69.8591C31.5194 69.2666 31.755 69.0296 31.9318 68.9704C31.9711 68.9704 31.9907 68.9704 31.9907 68.9704C31.9907 69.0099 32.0104 69.0296 32.0496 69.0296C32.0496 69.0296 32.0693 69.0296 32.1085 69.0296C32.1478 69.0296 32.1871 69.0494 32.2264 69.0889C32.2264 69.0889 32.246 69.1086 32.2853 69.1481C32.3246 69.1876 32.3442 69.2074 32.3442 69.2074C32.3835 69.2469 32.4031 69.2864 32.4031 69.3259C32.4424 69.3259 32.462 69.3259 32.462 69.3259C32.462 69.3654 32.4817 69.3851 32.5209 69.3851C32.5209 69.4246 32.5209 69.4641 32.5209 69.5036C32.5602 69.5431 32.5799 69.5826 32.5799 69.6221C32.6191 69.6221 32.6388 69.6419 32.6388 69.6814C32.678 69.7209 32.6977 69.7604 32.6977 69.7999C32.6977 69.8394 32.7173 69.8789 32.7566 69.9184C32.7566 69.9184 32.7566 69.9381 32.7566 69.9776C32.7566 70.0171 32.7762 70.0369 32.8155 70.0369C32.8155 70.0764 32.8155 70.0961 32.8155 70.0961C32.8155 70.0961 32.8155 70.1159 32.8155 70.1554C32.8155 70.1554 32.8155 70.1751 32.8155 70.2146V76.9098ZM32.8155 87.397H31.0481L31.107 80.7018C31.107 80.6228 31.1266 80.5438 31.1659 80.4648C31.4016 79.8723 31.6372 79.576 31.8729 79.4575C31.9122 79.4575 31.9514 79.4575 31.9907 79.4575C31.9907 79.4575 32.0104 79.4575 32.0496 79.4575C32.0889 79.497 32.1085 79.5168 32.1085 79.5168C32.1478 79.5168 32.1675 79.5168 32.1675 79.5168C32.2067 79.5563 32.2264 79.576 32.2264 79.576C32.2656 79.6156 32.3049 79.655 32.3442 79.6945C32.3442 79.6945 32.3638 79.7143 32.4031 79.7538C32.4031 79.7933 32.4228 79.8328 32.462 79.8723C32.5013 79.9118 32.5209 79.9315 32.5209 79.9315C32.5209 79.971 32.5406 80.0105 32.5799 80.05C32.5799 80.0895 32.5799 80.1093 32.5799 80.1093C32.6191 80.1093 32.6388 80.129 32.6388 80.1685C32.6388 80.1685 32.6388 80.1883 32.6388 80.2278C32.6388 80.2278 32.6584 80.2475 32.6977 80.287C32.6977 80.287 32.6977 80.3068 32.6977 80.3463C32.7566 80.524 32.8155 80.7018 32.8155 80.7018V87.397ZM32.7566 97.9434L30.9892 97.8841L31.0481 91.2482C31.0873 91.1297 31.1266 91.0309 31.1659 90.9519C31.1659 90.9124 31.1855 90.8927 31.2248 90.8927C31.4605 90.2409 31.6961 90.004 31.9318 90.004C31.9711 90.004 32.0104 90.004 32.0496 90.004C32.1282 90.0434 32.1871 90.083 32.2264 90.1225C32.2656 90.162 32.3049 90.2015 32.3442 90.241C32.3442 90.241 32.3638 90.2607 32.4031 90.3002C32.4031 90.3002 32.4031 90.3199 32.4031 90.3595C32.4031 90.3595 32.4228 90.3792 32.462 90.4187C32.462 90.4582 32.4817 90.478 32.5209 90.478C32.5209 90.5175 32.5406 90.5569 32.5799 90.5964C32.5799 90.6359 32.5799 90.6755 32.5799 90.715C32.6191 90.715 32.6388 90.7347 32.6388 90.7742C32.6388 90.8137 32.6388 90.8335 32.6388 90.8335C32.678 90.873 32.6977 90.8927 32.6977 90.8927C32.6977 90.9322 32.6977 90.9519 32.6977 90.9519C32.737 91.0309 32.7566 91.0902 32.7566 91.1297C32.7566 91.1297 32.7566 91.1494 32.7566 91.1889C32.7959 91.1889 32.8155 91.1889 32.8155 91.1889C32.8155 91.2284 32.8155 91.2482 32.8155 91.2482L32.7566 97.8841V97.9434ZM30.9892 108.431L31.0481 101.735C31.0873 101.577 31.1266 101.439 31.1659 101.321C31.4016 100.787 31.6372 100.55 31.814 100.491C31.8532 100.491 31.8925 100.491 31.9318 100.491C31.9318 100.491 31.9514 100.491 31.9907 100.491C32.1086 100.531 32.2264 100.61 32.3442 100.728C32.3442 100.768 32.3442 100.787 32.3442 100.787C32.3835 100.827 32.4031 100.866 32.4031 100.906C32.4031 100.906 32.4228 100.926 32.462 100.965C32.5013 101.005 32.5209 101.044 32.5209 101.084C32.5209 101.123 32.5406 101.143 32.5799 101.143C32.5799 101.143 32.5799 101.163 32.5799 101.202C32.5799 101.242 32.5995 101.281 32.6388 101.321C32.6388 101.36 32.6388 101.38 32.6388 101.38C32.678 101.419 32.6977 101.459 32.6977 101.498C32.6977 101.538 32.6977 101.558 32.6977 101.558C32.6977 101.597 32.7173 101.617 32.7566 101.617C32.7566 101.656 32.7566 101.676 32.7566 101.676C32.7566 101.716 32.7566 101.735 32.7566 101.735V108.431H30.9892ZM29.9876 66.3634H28.2202L28.2791 59.7275C28.3183 59.609 28.3576 59.5102 28.3969 59.4312C28.3969 59.3917 28.3969 59.372 28.3969 59.372C28.6915 58.7202 28.9271 58.4832 29.1039 58.4832C29.1432 58.4832 29.1628 58.4832 29.1628 58.4832C29.2021 58.4832 29.2217 58.4832 29.2217 58.4832C29.3396 58.5227 29.4574 58.6017 29.5752 58.7202C29.5752 58.7202 29.5752 58.74 29.5752 58.7795C29.6145 58.7795 29.6341 58.7992 29.6341 58.8387C29.6734 58.8782 29.693 58.9177 29.693 58.9572C29.7323 58.9967 29.7519 59.0362 29.7519 59.0757C29.7912 59.0757 29.8109 59.0955 29.8109 59.135C29.8109 59.1745 29.8305 59.214 29.8698 59.2535C29.8698 59.293 29.8698 59.3127 29.8698 59.3127C29.8698 59.3127 29.8698 59.3325 29.8698 59.372C29.909 59.4115 29.9287 59.4312 29.9287 59.4312C29.9287 59.4707 29.9287 59.4905 29.9287 59.4905C29.9287 59.4905 29.9287 59.5102 29.9287 59.5497C29.968 59.5497 29.9876 59.5695 29.9876 59.609C29.9876 59.6485 29.9876 59.688 29.9876 59.7275V66.3634ZM29.9876 76.8506H28.2202L28.2791 70.1554C28.3183 70.0764 28.3576 69.9776 28.3969 69.8591C28.3969 69.8591 28.3969 69.8394 28.3969 69.7999C28.6326 69.2074 28.9271 68.9704 29.1039 68.9111C29.1039 68.9111 29.1235 68.9111 29.1628 68.9111C29.1628 68.9111 29.1824 68.9309 29.2217 68.9704C29.261 68.9704 29.3199 68.9901 29.3985 69.0296C29.3985 69.0296 29.3985 69.0494 29.3985 69.0889C29.4377 69.0889 29.477 69.1086 29.5163 69.1481C29.5163 69.1481 29.5359 69.1679 29.5752 69.2074C29.5752 69.2469 29.5949 69.2864 29.6341 69.3259C29.6734 69.3654 29.693 69.3851 29.693 69.3851C29.693 69.4246 29.7127 69.4641 29.7519 69.5036C29.7519 69.5431 29.7716 69.5826 29.8109 69.6221C29.8109 69.6616 29.8109 69.7011 29.8109 69.7406C29.8502 69.7406 29.8698 69.7604 29.8698 69.7999C29.8698 69.8394 29.8894 69.8789 29.9287 69.9184C29.9287 69.9579 29.9287 69.9776 29.9287 69.9776C29.9287 70.0171 29.9287 70.0369 29.9287 70.0369C29.968 70.0369 29.9876 70.0566 29.9876 70.0961C29.9876 70.1356 29.9876 70.1554 29.9876 70.1554V76.8506ZM29.9287 87.397H28.1613V87.3377L28.2202 80.7018C28.5147 79.9315 28.7504 79.576 28.9861 79.4575C29.0253 79.4575 29.0646 79.4575 29.1039 79.4575C29.1432 79.4575 29.1824 79.4575 29.2217 79.4575C29.3985 79.5168 29.5752 79.7538 29.693 79.9315C29.693 79.971 29.7127 80.0105 29.7519 80.05C29.7519 80.0895 29.7519 80.1093 29.7519 80.1093C29.7519 80.1093 29.7519 80.129 29.7519 80.1685C29.7912 80.208 29.8109 80.2475 29.8109 80.287C29.8502 80.287 29.8698 80.3068 29.8698 80.3463C29.8698 80.3858 29.8894 80.4253 29.9287 80.4648C29.9287 80.5833 29.9876 80.7018 29.9876 80.7018L29.9287 87.397ZM29.8698 97.8841H28.1023L28.1613 91.2482C28.2005 91.1297 28.2398 91.0309 28.2791 90.9519C28.2791 90.9124 28.2791 90.8927 28.2791 90.8927C28.5736 90.2409 28.8093 90.004 29.045 90.004C29.0843 90.004 29.1039 90.004 29.1039 90.004C29.1824 90.004 29.2413 90.0237 29.2806 90.0632C29.3199 90.1027 29.3396 90.1225 29.3396 90.1225C29.3788 90.1225 29.3985 90.1422 29.3985 90.1817C29.3985 90.1817 29.4181 90.2015 29.4574 90.241C29.4966 90.2805 29.5359 90.3199 29.5752 90.3595C29.5752 90.3989 29.5752 90.4385 29.5752 90.478C29.6145 90.5175 29.6341 90.5569 29.6341 90.5964C29.6734 90.5964 29.693 90.6162 29.693 90.6557C29.7323 90.6952 29.7519 90.7347 29.7519 90.7742C29.7519 90.8137 29.7519 90.8335 29.7519 90.8335C29.7912 90.8335 29.8109 90.8532 29.8109 90.8927C29.8109 90.8927 29.8109 90.9124 29.8109 90.9519C29.8109 90.9914 29.8109 91.0112 29.8109 91.0112C29.8109 91.0112 29.8305 91.0112 29.8698 91.0112C29.8698 91.0112 29.8698 91.031 29.8698 91.0704C29.8698 91.1099 29.8698 91.1297 29.8698 91.1297C29.8698 91.1297 29.8698 91.1494 29.8698 91.1889C29.8698 91.1889 29.8894 91.1889 29.9287 91.1889C29.9287 91.2284 29.9287 91.2482 29.9287 91.2482L29.8698 97.8841ZM28.0434 108.371L28.1023 101.676C28.1416 101.597 28.1809 101.498 28.2202 101.38C28.2202 101.38 28.2202 101.36 28.2202 101.321C28.5147 100.728 28.7504 100.491 28.9272 100.432C28.9664 100.432 28.9861 100.432 28.9861 100.432C29.0253 100.432 29.0646 100.452 29.1039 100.491C29.2217 100.531 29.3199 100.61 29.3985 100.728C29.4377 100.768 29.4574 100.807 29.4574 100.847C29.4966 100.886 29.5163 100.926 29.5163 100.965C29.5556 101.005 29.5752 101.024 29.5752 101.024C29.6145 101.064 29.6341 101.103 29.6341 101.143C29.6341 101.182 29.6538 101.222 29.693 101.261C29.693 101.261 29.693 101.281 29.693 101.321C29.7323 101.36 29.7519 101.38 29.7519 101.38C29.7519 101.38 29.7519 101.4 29.7519 101.439C29.7519 101.479 29.7519 101.498 29.7519 101.498C29.7912 101.538 29.8109 101.558 29.8109 101.558C29.8109 101.597 29.8109 101.617 29.8109 101.617C29.8109 101.617 29.8109 101.637 29.8109 101.676V108.371H28.0434ZM23.3892 28.4437H21.6806V24.711H23.3892V28.4437ZM23.3892 33.6577L21.6806 33.5984V29.8657L23.3892 29.9249V33.6577ZM23.3303 38.8124H21.6217V37.5681L21.6806 36.3239V35.0797H23.3892V36.3239L23.3303 37.5681V38.8124ZM23.3303 42.7228H21.6217V40.2344H23.3303V42.7228ZM23.3303 47.8776H21.6217V45.3891H23.3303V47.8776ZM23.3303 53.0915L21.6217 53.0323V50.5438H23.3303V53.0915ZM23.2713 58.2462H21.6217V55.7577H23.3303L23.2713 58.2462ZM21.5039 63.4009L21.5628 60.9125H23.2124V63.4009H21.5039ZM23.2124 68.6149H21.5039V66.1264H23.2124V68.6149ZM21.5039 73.7696V71.2811H23.2124V73.7696H21.5039ZM23.0946 78.9243H21.3861L21.445 76.4358H23.0946V78.9243ZM23.0946 89.2337H21.3861V86.7452H23.0946V89.2337ZM23.0357 94.3884H21.3861V91.8999H23.0946L23.0357 94.3884ZM23.0357 99.5431H21.3271V97.0547H23.0357V99.5431ZM23.0357 104.757L21.7395 104.698H21.3271V102.209L23.0357 102.269V104.757ZM21.3271 109.853V107.364L23.0357 107.423V109.912L21.3271 109.853ZM17.3798 28.4437H15.6713V24.711L17.3798 24.7703V28.4437ZM17.3209 33.5984H15.6124V32.3542L15.6713 31.0507V29.8657H17.3798L17.3209 31.1099V33.5984ZM17.3209 38.7531H15.6124V35.0204H17.3209V38.7531ZM17.3209 42.7228L16.0248 42.6636H15.6124V40.1751L17.3209 40.2344V42.7228ZM17.3209 47.8776H15.6124V45.3298L17.3209 45.3891V47.8776ZM17.262 53.0323H15.5535L15.6124 50.4845L17.3209 50.5438L17.262 53.0323ZM17.2031 58.187H15.4946V55.6985H17.2031V58.187ZM17.2031 63.3417H15.4946V60.8532H17.2031V63.3417ZM17.2031 68.4964H15.4946V66.0079H17.2031V68.4964ZM17.2031 73.6511H15.4946V71.1626H17.2031V73.6511ZM17.1442 78.8058H15.4357L15.4946 76.3173H17.2031L17.1442 78.8058ZM17.0853 83.9605H15.3768V81.472H17.0853V83.9605ZM15.3768 89.1152V86.6267H17.0853V89.1152H15.3768ZM17.0853 94.3292H15.3768V91.7814L17.0853 91.8407V94.3292ZM15.3178 99.4839L15.3768 96.9954H17.0853L17.0264 99.4839H15.3178ZM17.0264 104.639H15.3178V102.15H17.0264V104.639ZM15.3178 109.793V107.305H17.0264V109.793H15.3178ZM10.9582 107.305V109.793H9.24962V107.305H10.9582ZM9.36745 102.091L11.076 102.15V104.639H9.36745V102.091ZM9.36745 96.8769L11.076 96.9361V99.4246H9.77987L9.36745 99.3654V96.8769ZM9.36745 91.7222H11.076V94.2699L9.36745 94.2107V91.7222ZM9.36745 86.5675H11.076V89.1152L9.36745 89.056V86.5675ZM9.42636 81.4128H11.1349L11.076 83.9013H9.36745L9.42636 81.4128ZM9.48529 76.2581H11.1938V78.7465H9.48529V76.2581ZM9.48529 71.1034H11.1938V73.5918H9.48529V71.1034ZM9.48529 65.9487H11.1938V68.4371H9.48529V65.9487ZM9.48529 60.7939H11.1938V63.2824H9.48529V60.7939ZM9.54419 55.6392H11.2527L11.1938 58.1277H9.48529L9.54419 55.6392ZM9.60313 50.4845H11.3116V52.973H9.60313V50.4845ZM9.60313 45.3298H11.3116V47.8183H9.60313V45.3298ZM9.66203 35.0204H11.3706V36.2054L11.3116 37.5089V38.7531L9.60313 38.6939V37.5089L9.66203 36.2054V35.0204ZM11.3706 24.711V28.4437H9.66203V24.711H11.3706Z" fill="#281203"/>
</g>
</svg>
