<svg width="85" height="83" viewBox="0 0 85 83" fill="none" xmlns="http://www.w3.org/2000/svg">
<path d="M17.399 48.5596C17.399 48.5596 10.2806 56.7294 9.76991 57.9922C9.39048 59.2799 11.0441 67.0693 11.3066 67.1189C11.7004 67.1934 14.6447 68.158 14.1732 70.6517L10.0548 70.1448L8.77767 68.272L6.05249 58.2409L12.3648 40.6748L18.2676 43.966L17.399 48.5596Z" fill="#211E00"/>
<path d="M49.6146 47.6421C50.3845 48.6033 50.8421 49.7774 51.2998 50.9515C51.8722 52.2379 52.4092 53.4722 52.9106 54.6546C53.0739 55.2292 53.3683 55.8287 53.269 56.3537C53.1698 56.8786 52.964 57.2475 52.7335 57.7477C51.5241 59.83 47.8745 64.0337 49.5773 66.5308C50.1095 67.3111 51.5035 67.8465 51.3298 68.7653C49.8684 69.3046 48.1374 69.1132 46.6369 68.4217C46.3744 68.372 46.2681 68.216 46.1617 68.0599C45.8176 67.723 45.9415 67.0667 46.1473 66.6978C47.1473 63.8056 48.1036 60.9051 49.0161 57.9964C49.3459 56.9712 49.7005 55.8148 49.6366 54.7152C49.4094 53.0409 48.1642 51.7179 47.2063 50.3133C46.2733 48.7775 45.6772 46.8976 46.6313 45.4467C47.9189 45.8261 48.8696 46.5497 49.6146 47.6421Z" fill="#211E00"/>
<path d="M13.7506 25.4397C11.937 27.3624 10.1671 29.2934 8.44101 31.2327C7.89836 31.9457 7.24934 32.5027 6.81312 33.3718C6.19601 34.4785 5.94777 35.7911 5.98691 37.0219C5.84516 38.4905 5.94114 40.1398 6.63651 41.4948C7.86402 43.6301 10.7586 44.8571 11.0993 47.3685C11.1313 47.9183 11.0889 48.8618 11.7203 49.1172C12.3269 49.5038 13.1072 48.9716 13.2313 48.3154C13.3554 47.6592 12.9545 46.9037 12.504 46.4107C11.5461 45.0061 10.2513 43.9456 9.11253 42.7787C7.97379 41.6118 7.01592 40.2071 6.94481 38.4265C6.94816 36.2521 8.76416 34.5564 10.2928 32.9423C11.8215 31.3282 13.4246 29.3204 12.8781 27.1779" fill="#211E00"/>
<path d="M81.121 17.1082C80.8834 16.9273 80.6458 16.7465 80.1456 16.516C78.4074 15.6435 75.2717 16.41 73.2214 15.7504C72.221 15.2894 71.0895 14.8035 69.9402 15.13C67.929 15.7013 67.8264 18.4006 67.5606 20.5254C67.3339 23.881 65.5642 27.4887 62.3542 28.6489C56.4838 30.9374 47.1471 24.9577 45.5148 19.2114C44.9436 17.2002 44.2587 14.3519 42.1908 14.5047C41.2472 14.4622 40.4173 15.2568 39.7186 16.0763C36.3491 19.5173 32.5153 26.1332 26.9461 24.6723C24.2395 23.8886 21.8059 21.6612 18.9256 21.7963C16.7512 21.7929 14.7224 23.1765 13.4314 24.9715C10.7182 28.5366 9.4276 35.3614 11.2264 39.5079C13.7206 45.0093 15.5193 49.1558 15.4029 55.5229C15.2859 56.8602 15.3252 58.0911 15.6268 59.3716C16.3045 61.5388 18.1811 63.1172 19.3022 65.0964C19.9727 66.5826 20.1182 67.9695 20.0829 69.5941C22.3909 69.8493 24.6966 69.8774 26.9998 69.6786C26.8543 68.2916 25.7403 66.9935 24.2966 66.7205C23.9028 66.646 23.6156 66.7277 23.2467 66.522C23.009 66.3411 22.9026 66.185 22.821 65.8977C21.5438 64.0249 18.6134 59.3926 19.0602 57.0301C19.1842 56.3739 19.7269 55.6609 20.1135 55.0543C22.3716 52.2187 24.6297 49.3831 26.8878 46.5476C28.8775 43.9331 33.5422 46.5824 36.0926 47.4725C39.2746 48.618 42.3358 48.2452 45.6915 48.4719C46.635 48.5144 47.5537 48.6881 48.2419 49.362C49.6184 50.7098 49.8846 53.6149 50.768 55.4133C51.8394 57.655 52.8542 59.4781 53.3014 62.1455C53.5333 64.2738 53.7736 66.3583 54.0221 68.3991C54.1037 68.6864 54.1603 69.105 54.398 69.2859C54.6357 69.4668 54.8983 69.5164 55.1856 69.4348C56.7062 69.5411 58.1911 69.5953 59.6408 69.5975C60.1906 69.5656 60.7404 69.5336 60.9461 69.1647C61.1766 68.6645 60.7261 68.1714 60.3572 67.9657C59.857 67.7352 59.3319 67.6359 58.807 67.5367C57.7818 67.2069 57.1185 66.4018 56.7672 65.3838C56.3912 64.497 56.3271 63.3973 56.2384 62.429C55.4218 54.526 54.0732 45.8427 56.3746 37.9855C56.6701 37.8602 57.0094 37.7431 57.3925 37.6343C59.3788 37.1943 61.4221 37.1728 63.4333 36.6015C68.7858 34.8948 70.0161 29.8258 72.8462 24.9234C73.8251 23.3413 76.7871 23.4935 78.3478 22.4292C79.1033 22.0283 80.8695 20.5951 80.88 19.1017C80.8657 17.7396 81.4651 17.4452 81.121 17.1082Z" fill="#211E00"/>
</svg>
