<svg width="60" height="60" viewBox="0 0 60 60" fill="none" xmlns="http://www.w3.org/2000/svg">
<circle cx="30" cy="30" r="26" fill="#1951FE" stroke="white" stroke-width="2"/>
<path fill-rule="evenodd" clip-rule="evenodd" d="M39.6079 32.5369C39.1476 32.8232 38.6057 32.859 38.1937 32.63C37.6705 32.339 37.3825 31.6585 37.3825 30.7089V27.8727C37.3825 26.5028 36.8329 25.5283 35.9138 25.2649C34.3568 24.818 33.185 26.6966 32.7444 27.4007L29.9974 31.7888V26.4256C29.9662 25.1913 29.5599 24.453 28.7871 24.2305C28.2764 24.0833 27.5115 24.1426 26.7688 25.2624L20.6142 34.9984C19.7902 33.4574 19.3607 31.7415 19.3629 29.9997C19.3629 24.1344 24.1334 19.3643 29.9974 19.3643C35.8614 19.3643 40.6313 24.136 40.6313 29.9997C40.6313 30.01 40.6339 30.0187 40.6344 30.0279C40.635 30.0371 40.6344 30.0473 40.6344 30.0575C40.69 31.1932 40.3168 32.0967 39.6094 32.5369H39.6079ZM42.9942 30.0008V29.9716V29.9425C42.9605 22.7989 37.1438 17 29.9969 17C22.8308 17 17 22.8316 17 30.0003C17 37.1689 22.8308 43 29.9974 43C33.2844 43.0006 36.4467 41.7599 38.8336 39.5333C39.0642 39.3183 39.2 39.0227 39.2117 38.7102C39.2235 38.3976 39.1102 38.093 38.8964 37.8618C38.6879 37.6355 38.3968 37.5001 38.0871 37.4852C37.7773 37.4703 37.4742 37.5773 37.2444 37.7825L37.2268 37.7984C35.2742 39.6205 32.6868 40.6357 29.9974 40.6352C26.8575 40.6352 24.0327 39.2658 22.0845 37.0948L27.6345 28.316V32.3636C27.6345 34.3066 28.4 34.9365 29.0414 35.1201C29.6829 35.3036 30.6653 35.1784 31.696 33.5299L34.7492 28.654C34.8473 28.4965 34.9371 28.361 35.0196 28.2449V30.7105C35.0196 32.5282 35.7586 33.9829 37.0467 34.6988C38.2077 35.344 39.6676 35.2857 40.8571 34.5454C42.2983 33.6465 43.0752 31.9934 42.9942 30.0008Z" fill="white"/>
</svg>
