<svg width="1267" height="121" viewBox="0 0 1267 121" fill="none" xmlns="http://www.w3.org/2000/svg">
<path d="M846.607 83.6369C846.607 83.6369 837.591 97.6266 837.14 99.8635C836.712 101.895 841.1 113.377 841.534 113.215C842.152 113.282 846.847 114.201 846.838 118.147L840.155 118.261L837.948 115.531L831.399 100.909L836.957 72.629L846.766 76.3828L846.607 83.6369Z" fill="#281203"/>
<path d="M880.316 82.2696C880.424 82.5581 880.531 82.8468 880.639 83.1353C881.815 85.7545 882.078 89.1066 882.592 92.0702C883.771 97.8752 884.462 103.697 884.665 109.536C884.877 111.428 885.067 113.526 886.421 114.502C887.775 115.479 890.064 115.517 890.32 116.999C888.288 118.442 885.704 119.204 883.232 118.938C882.819 118.894 882.613 118.872 882.223 118.622C881.65 118.145 881.532 117.302 881.621 116.48C881.707 107.972 879.71 99.4475 875.747 91.7509C874.917 89.7921 871.335 86.2913 872.425 83.9155C873.221 82.3389 875.894 80.7561 877.285 79.4512C878.639 80.4276 879.603 81.1543 880.316 82.2696Z" fill="#281203"/>
<path d="M921.652 27.7072C925.722 26.69 928.033 26.5227 927.999 22.9872C928.081 20.2954 924.423 21.3569 922.752 21.3852C918.77 21.581 916.503 21.3376 912.744 19.4798C910.772 18.4371 908.365 17.5556 906.172 18.5666C904.412 19.4164 903.55 21.609 903.144 23.4352C902.922 25.4888 903.318 27.6089 903.118 29.4571C902.826 37.9434 893.353 52.2996 883.567 48.3406C879.991 46.7102 877.439 43.32 876.396 39.4686C875.47 36.4608 874.472 32.1988 871.337 32.2777C869.666 32.3061 868.502 33.4276 867.339 34.5492C862.162 40.018 856.246 50.3935 847.54 48.0047C843.28 46.9241 839.491 43.4011 835.12 43.3473C831.778 43.4041 828.627 45.5588 826.439 48.4401C821.313 55.3687 821.623 65.997 822.818 74.2274C825.398 92.786 818.094 98.6498 820.49 103.478C821.85 106.324 822.548 109.515 823.267 112.501C823.669 113.929 824.063 115.426 824.45 116.991C824.728 118.267 824.529 120.115 825.927 120.681C826.324 120.862 826.668 120.899 826.957 120.791C828.194 120.924 829.369 120.981 830.482 120.962C831.513 121.073 832.359 120.956 833.044 120.406C832.47 119.929 832.375 118.88 831.801 118.403C831.617 118.176 831.228 117.926 830.815 117.882C830.281 117.686 829.746 117.49 829.211 117.294C829.005 117.272 828.615 117.022 828.431 116.795C828.041 116.545 828.086 116.135 827.902 115.907C826.943 111.926 826.121 107.96 825.436 104.008C825.296 103.37 825.341 102.96 825.407 102.343C825.452 101.933 825.558 101.598 825.725 101.339C826.904 98.1414 827.671 94.8999 829.469 91.7689C831.244 88.8433 833.41 86.1673 835.781 83.5135C836.989 81.9812 838.403 80.471 840.346 79.8486C843.821 78.5597 847.492 81.2389 850.862 82.8471C858.816 86.4017 868.032 84.0672 876.709 84.791C877.945 84.9237 879.594 85.1007 880.513 86.2381C881.271 86.9427 881.594 87.8083 881.917 88.674C882.52 90.8162 883.198 92.8973 883.952 94.9172C884.393 96.6265 885.312 97.7638 884.656 99.9786C884.228 102.01 882.034 103.021 879.913 105.286C877.542 107.94 875.383 112.487 873.401 115.39C872.923 115.962 872.65 116.556 872.812 116.989C873.179 117.444 873.591 117.488 873.798 117.51C875.814 118.142 877.928 118.508 880.141 118.607C880.782 118.468 881.856 118.168 881.717 117.529C881.555 117.096 881.165 116.847 880.959 116.825C880.179 116.325 879.331 115.819 878.414 115.305C880.389 110.531 884.703 107.255 887.826 103.435C891.406 99.2489 892.1 94.7531 891.441 89.2809C890.474 80.8673 891.967 68.9783 896.13 61.323C899.225 55.8383 904.319 53.0613 906.038 46.8057C907.239 43.403 909.928 39.7445 911.519 36.5914C913.723 31.6343 916.712 29.0467 921.652 27.7072Z" fill="#281203"/>
<path d="M858.767 3.92111C856.139 5.0932 855.35 8.54003 854.031 11.0991C852.167 14.8462 848.169 17.1178 845.547 20.1603C841.238 25.3069 840.072 32.245 839.155 38.7945C838.8 42.0803 838.423 45.5715 839.12 48.7626C839.795 52.159 841.317 55.4385 844.252 57.2079C846.386 58.6834 849.271 58.9931 851.766 59.0532C856.528 59.3566 862.085 58.0836 863.994 53.9258C865.379 50.7506 864.336 46.8992 862.586 43.8029C861.065 40.5234 858.881 37.5882 858.64 34.0306C861.699 38.514 866.54 41.942 871.831 43.1333C871.203 42.5119 870.507 41.8832 869.742 41.2471C867.675 39.1554 865.38 37.2471 863.769 34.789C859.975 29.3957 859.014 22.8525 858.031 16.5146C861.351 16.6632 864.524 14.3031 865.269 11.2669C866.243 8.04746 864.559 4.33508 861.579 2.97644" fill="#281203"/>
<path d="M865.45 3.8073C863.294 2.53715 862.514 2.03798 860.225 2C857.708 2.14527 851.628 4.40089 852.135 5.49408C852.62 6.79262 872.386 10.9921 873.093 10.237C873.616 9.25444 868.202 5.34919 865.45 3.8073Z" fill="#281203"/>
<path d="M910.036 31.0305C907.791 44.0853 906.126 59.4876 893.654 66.8741C878.51 75.8433 865.69 61.379 856.135 51.4202C855.767 50.9652 855.288 51.537 855.45 51.9699C863.591 63.4389 876.956 76.7152 892.313 69.6385C906.801 62.884 909.947 45.3554 910.86 31.119C910.904 30.7082 910.08 30.6198 910.036 31.0305Z" fill="#281203"/>
<path d="M26.6071 81.6369C26.6071 81.6369 17.5905 95.6266 17.1403 97.8635C16.7122 99.895 21.0995 111.377 21.5338 111.215C22.152 111.282 26.8472 112.201 26.8376 116.147L20.1547 116.261L17.9483 113.531L11.3989 98.9091L16.9572 70.629L26.7658 74.3828L26.6071 81.6369Z" fill="#281203"/>
<path d="M60.3159 80.2696C60.4237 80.5582 60.5315 80.8468 60.6393 81.1353C61.8153 83.7546 62.0784 87.1066 62.5919 90.0702C63.7711 95.8752 64.462 101.697 64.6647 107.536C64.8771 109.428 65.0673 111.526 66.421 112.502C67.7746 113.479 70.0635 113.517 70.3203 114.999C68.2881 116.442 65.7044 117.204 63.2316 116.938C62.8195 116.894 62.6134 116.872 62.2235 116.622C61.6497 116.145 61.5324 115.302 61.6211 114.48C61.707 105.972 59.71 97.4475 55.7474 89.7509C54.9169 87.7921 51.3346 84.2914 52.4252 81.9155C53.221 80.3389 55.8935 78.7561 57.2853 77.4513C58.6389 78.4276 59.6026 79.1543 60.3159 80.2696Z" fill="#281203"/>
<path d="M101.652 25.7072C105.722 24.69 108.033 24.5227 107.999 20.9872C108.081 18.2954 104.423 19.3569 102.752 19.3853C98.77 19.581 96.5034 19.3376 92.7435 17.4798C90.7717 16.4371 88.3654 15.5556 86.1716 16.5666C84.4121 17.4164 83.5497 19.609 83.1439 21.4352C82.9219 23.4888 83.3181 25.6089 83.1183 27.4572C82.8264 35.9434 73.3534 50.2997 63.567 46.3406C59.991 44.7102 57.439 41.32 56.3961 37.4686C55.4705 34.4608 54.472 30.1988 51.3366 30.2777C49.6659 30.3061 48.5024 31.4276 47.3389 32.5492C42.1618 38.0181 36.2457 48.3935 27.5403 46.0047C23.2795 44.9241 19.4913 41.4011 15.1195 41.3473C11.7781 41.4041 8.62676 43.5588 6.43921 46.4401C1.31274 53.3687 1.62309 63.997 2.81805 72.2274C5.39811 90.7861 -1.90624 96.6498 0.490333 101.478C1.85029 104.324 2.54763 107.515 3.26719 110.501C3.66871 111.929 4.06282 113.426 4.44955 114.991C4.72849 116.267 4.52876 118.115 5.92682 118.681C6.32416 118.862 6.6676 118.899 6.95715 118.791C8.19354 118.924 9.36866 118.981 10.4825 118.962C11.5128 119.073 12.3593 118.956 13.0441 118.406C12.4703 117.929 12.3752 116.88 11.8014 116.403C11.6175 116.176 11.2276 115.926 10.8154 115.882C10.2807 115.686 9.74604 115.49 9.21133 115.294C9.00527 115.272 8.61529 115.022 8.43142 114.795C8.04149 114.545 8.0859 114.135 7.90203 113.907C6.94262 109.926 6.12061 105.96 5.43594 102.008C5.29647 101.37 5.34079 100.96 5.40738 100.343C5.45177 99.9327 5.55753 99.5978 5.72451 99.3388C6.90392 96.1414 7.67118 92.8999 9.4688 89.7689C11.2442 86.8433 13.4095 84.1673 15.7809 81.5135C16.9888 79.9812 18.4028 78.471 20.3462 77.8486C23.8208 76.5597 27.4919 79.2389 30.8618 80.8472C38.8158 84.4017 48.0318 82.0672 56.7087 82.791C57.9451 82.9237 59.5937 83.1007 60.513 84.2381C61.2707 84.9427 61.594 85.8084 61.9173 86.674C62.5196 88.8162 63.198 90.8973 63.9524 92.9172C64.3931 94.6265 65.3124 95.7638 64.6561 97.9786C64.228 100.01 62.0342 101.021 59.9132 103.286C57.5418 105.94 55.3828 110.487 53.4013 113.39C52.9226 113.962 52.6499 114.556 52.8116 114.989C53.1793 115.444 53.5915 115.488 53.7975 115.51C55.8138 116.142 57.9284 116.508 60.1412 116.607C60.7816 116.468 61.8562 116.168 61.7167 115.529C61.5551 115.096 61.1652 114.847 60.9592 114.825C60.1793 114.325 59.3308 113.819 58.4135 113.305C60.3887 108.531 64.7034 105.255 67.8262 101.435C71.4055 97.249 72.1 92.7531 71.4407 87.2809C70.474 78.8673 71.9675 66.9783 76.1302 59.3231C79.2245 53.8383 84.3192 51.0613 86.0376 44.8057C87.2392 41.403 89.9278 37.7445 91.5193 34.5914C93.7228 29.6343 96.7123 27.0467 101.652 25.7072Z" fill="#281203"/>
<path d="M38.7673 1.92111C36.1392 3.0932 35.3497 6.54003 34.0308 9.09915C32.1666 12.8462 28.1689 15.1178 25.547 18.1603C21.2385 23.3069 20.0716 30.245 19.1552 36.7945C18.8 40.0803 18.4227 43.5715 19.1201 46.7626C19.7952 50.159 21.3169 53.4385 24.2525 55.2079C26.386 56.6834 29.271 56.9931 31.7659 57.0532C36.5276 57.3567 42.0851 56.0836 43.9937 51.9258C45.3791 48.7506 44.3362 44.8992 42.5863 41.8029C41.0647 38.5234 38.8805 35.5882 38.6397 32.0307C41.6989 36.514 46.5397 39.942 51.8308 41.1333C51.2031 40.5119 50.5068 39.8832 49.7417 39.2471C47.6748 37.1554 45.3796 35.2471 43.7691 32.789C39.9745 27.3957 39.0141 20.8525 38.0315 14.5146C41.3507 14.6632 44.5242 12.3031 45.2693 9.26691C46.2427 6.04746 44.5593 2.33508 41.5794 0.976438" fill="#281203"/>
<path d="M45.4499 1.8073C43.2941 0.537148 42.5142 0.0379758 40.2253 0C37.7081 0.145266 31.6275 2.40089 32.1347 3.49408C32.6197 4.79262 52.3862 8.9921 53.0931 8.23701C53.6163 7.25444 48.2016 3.34919 45.4499 1.8073Z" fill="#281203"/>
<path d="M90.0358 29.0305C87.7909 42.0853 86.1261 57.4876 73.6541 64.8741C58.5097 73.8433 45.6896 59.379 36.1348 49.4202C35.7671 48.9652 35.2882 49.537 35.4499 49.9699C43.5908 61.4389 56.9562 74.7152 72.3131 67.6385C86.8013 60.884 89.9465 43.3554 90.8599 29.119C90.9043 28.7083 90.0802 28.6198 90.0358 29.0305Z" fill="#281203"/>
<path d="M1203 80.6176C1203 80.6176 1196.19 88.4285 1195.7 89.6358C1195.34 90.8669 1196.92 98.3141 1197.17 98.3616C1197.55 98.4328 1200.37 99.355 1199.91 101.739L1195.98 101.255L1194.76 99.464L1192.15 89.8736L1198.19 73.0792L1203.83 76.2258L1203 80.6176Z" fill="#281203"/>
<path d="M1233.8 79.7404C1234.54 80.6594 1234.97 81.7819 1235.41 82.9044C1235.96 84.1343 1236.47 85.3144 1236.95 86.4448C1237.11 86.9942 1237.39 87.5673 1237.29 88.0692C1237.2 88.5712 1237 88.9238 1236.78 89.402C1235.62 91.3929 1232.14 95.4119 1233.76 97.7993C1234.27 98.5453 1235.61 99.0572 1235.44 99.9356C1234.04 100.451 1232.39 100.268 1230.95 99.6071C1230.7 99.5597 1230.6 99.4104 1230.5 99.2612C1230.17 98.9391 1230.29 98.3117 1230.48 97.9589C1231.44 95.1938 1232.35 92.4208 1233.23 89.6398C1233.54 88.6597 1233.88 87.5541 1233.82 86.5028C1233.6 84.9021 1232.41 83.6372 1231.5 82.2943C1230.6 80.8259 1230.03 79.0286 1230.95 77.6414C1232.18 78.0042 1233.09 78.696 1233.8 79.7404Z" fill="#281203"/>
<path d="M1199.51 58.5134C1197.78 60.3516 1196.08 62.1978 1194.43 64.0519C1193.92 64.7336 1193.3 65.266 1192.88 66.097C1192.29 67.1551 1192.05 68.41 1192.09 69.5868C1191.95 70.9908 1192.04 72.5677 1192.71 73.8631C1193.88 75.9046 1196.65 77.0777 1196.98 79.4788C1197.01 80.0044 1196.97 80.9066 1197.57 81.1507C1198.15 81.5203 1198.9 81.0115 1199.01 80.3841C1199.13 79.7567 1198.75 79.0344 1198.32 78.563C1197.4 77.2202 1196.17 76.2063 1195.08 75.0906C1193.99 73.975 1193.07 72.6321 1193 70.9296C1193.01 68.8507 1194.74 67.2295 1196.2 65.6863C1197.67 64.1431 1199.2 62.2235 1198.68 60.1752" fill="#281203"/>
<path d="M1263.92 50.5479C1263.69 50.3749 1263.47 50.202 1262.99 49.9816C1261.33 49.1475 1258.33 49.8803 1256.37 49.2497C1255.41 48.8089 1254.33 48.3444 1253.23 48.6565C1251.31 49.2027 1251.21 51.7835 1250.96 53.8149C1250.74 57.0232 1249.05 60.4723 1245.98 61.5816C1240.37 63.7695 1231.44 58.0525 1229.88 52.5587C1229.33 50.6358 1228.68 47.9127 1226.7 48.0587C1225.8 48.0181 1225.01 48.7778 1224.34 49.5613C1221.12 52.8512 1217.45 59.1764 1212.13 57.7796C1209.54 57.0304 1207.21 54.9008 1204.46 55.03C1202.38 55.0268 1200.44 56.3495 1199.21 58.0657C1196.61 61.4742 1195.38 67.9992 1197.1 71.9635C1199.48 77.2233 1201.2 81.1876 1201.09 87.275C1200.98 88.5536 1201.02 89.7304 1201.3 90.9546C1201.95 93.0266 1203.75 94.5356 1204.82 96.4279C1205.46 97.8488 1205.6 99.1748 1205.56 100.728C1207.77 100.972 1209.98 100.999 1212.18 100.809C1212.04 99.4828 1210.97 98.2417 1209.59 97.9807C1209.22 97.9095 1208.94 97.9875 1208.59 97.7909C1208.36 97.6179 1208.26 97.4687 1208.18 97.194C1206.96 95.4035 1204.16 90.9747 1204.59 88.716C1204.71 88.0886 1205.22 87.4069 1205.59 86.827C1207.75 84.116 1209.91 81.405 1212.07 78.6939C1213.97 76.1944 1218.43 78.7273 1220.87 79.5783C1223.91 80.6734 1226.84 80.317 1230.05 80.5338C1230.95 80.5744 1231.83 80.7404 1232.49 81.3847C1233.8 82.6733 1234.06 85.4508 1234.9 87.1702C1235.93 89.3134 1236.9 91.0564 1237.32 93.6067C1237.55 95.6414 1237.78 97.6344 1238.01 99.5855C1238.09 99.8602 1238.15 100.26 1238.37 100.433C1238.6 100.606 1238.85 100.654 1239.13 100.576C1240.58 100.677 1242 100.729 1243.38 100.731C1243.91 100.701 1244.44 100.67 1244.63 100.317C1244.85 99.8393 1244.42 99.3679 1244.07 99.1712C1243.59 98.9508 1243.09 98.8559 1242.59 98.761C1241.61 98.4457 1240.97 97.6759 1240.64 96.7027C1240.28 95.8549 1240.22 94.8035 1240.13 93.8777C1239.35 86.3219 1238.06 78.02 1240.26 70.508C1240.54 70.3882 1240.87 70.2763 1241.24 70.1722C1243.13 69.7515 1245.09 69.731 1247.01 69.1848C1252.13 67.5531 1253.3 62.7068 1256.01 58.0197C1256.95 56.5071 1259.78 56.6526 1261.27 55.6351C1261.99 55.2518 1263.68 53.8816 1263.69 52.4538C1263.68 51.1515 1264.25 50.87 1263.92 50.5479Z" fill="#281203"/>
<path d="M400.922 89.6543C400.922 89.6543 392.022 99.8685 391.383 101.447C390.909 103.057 392.976 112.796 393.305 112.858C393.797 112.951 397.478 114.157 396.888 117.275L391.739 116.641L390.143 114.3L386.736 101.758L394.628 79.7963L402.008 83.9111L400.922 89.6543Z" fill="#281203"/>
<path d="M441.199 88.5072C442.162 89.7089 442.734 91.1768 443.306 92.6447C444.022 94.253 444.693 95.7963 445.32 97.2745C445.524 97.9929 445.892 98.7424 445.768 99.3988C445.644 100.055 445.387 100.516 445.099 101.142C443.587 103.745 439.024 109.001 441.153 112.123C441.818 113.098 443.561 113.768 443.344 114.916C441.517 115.591 439.352 115.351 437.476 114.487C437.148 114.425 437.015 114.23 436.882 114.035C436.452 113.613 436.607 112.793 436.864 112.332C438.114 108.716 439.31 105.089 440.451 101.453C440.863 100.171 441.307 98.7251 441.227 97.3503C440.943 95.257 439.386 93.6029 438.188 91.8469C437.022 89.9267 436.276 87.5763 437.469 85.7623C439.079 86.2367 440.268 87.1413 441.199 88.5072Z" fill="#281203"/>
<path d="M396.36 60.7485C394.093 63.1524 391.88 65.5667 389.722 67.9912C389.043 68.8827 388.232 69.579 387.687 70.6656C386.915 72.0494 386.605 73.6904 386.654 75.2292C386.476 77.0653 386.596 79.1274 387.466 80.8214C389 83.4911 392.619 85.0252 393.045 88.165C393.085 88.8524 393.032 90.0321 393.822 90.3513C394.58 90.8347 395.556 90.1694 395.711 89.3489C395.866 88.5285 395.365 87.5839 394.802 86.9675C393.604 85.2114 391.985 83.8855 390.561 82.4266C389.138 80.9677 387.94 79.2116 387.851 76.9853C387.855 74.2667 390.126 72.1467 392.037 70.1286C393.948 68.1106 395.953 65.6003 395.269 62.9218" fill="#281203"/>
<path d="M480.59 50.3321C480.293 50.1059 479.996 49.8798 479.371 49.5916C477.197 48.5009 473.277 49.4592 470.714 48.6345C469.463 48.0581 468.048 47.4507 466.611 47.8588C464.097 48.573 463.969 51.9479 463.636 54.6044C463.353 58.7998 461.14 63.3103 457.127 64.7609C449.787 67.622 438.114 60.1459 436.073 52.9616C435.359 50.4471 434.503 46.886 431.918 47.077C430.738 47.0239 429.7 48.0174 428.827 49.0419C424.614 53.3441 419.821 61.6156 412.858 59.7891C409.474 58.8093 406.431 56.0245 402.83 56.1933C400.112 56.1892 397.575 57.9189 395.961 60.1631C392.569 64.6204 390.955 73.1532 393.204 78.3373C396.323 85.2155 398.572 90.3996 398.426 98.3602C398.28 100.032 398.329 101.571 398.706 103.172C399.553 105.882 401.899 107.855 403.301 110.329C404.139 112.187 404.321 113.922 404.277 115.953C407.163 116.272 410.045 116.307 412.925 116.058C412.743 114.324 411.35 112.701 409.545 112.36C409.053 112.267 408.694 112.369 408.233 112.112C407.936 111.886 407.802 111.69 407.7 111.331C406.104 108.99 402.44 103.198 402.998 100.245C403.154 99.4241 403.832 98.5326 404.315 97.7742C407.139 94.2291 409.962 90.6839 412.785 87.1387C415.273 83.87 421.105 87.1823 424.293 88.2951C428.272 89.7272 432.099 89.2612 436.294 89.5446C437.474 89.5977 438.623 89.8149 439.483 90.6574C441.204 92.3425 441.537 95.9747 442.641 98.223C443.981 101.026 445.249 103.305 445.809 106.64C446.099 109.301 446.399 111.907 446.71 114.459C446.812 114.818 446.882 115.341 447.18 115.567C447.477 115.793 447.805 115.856 448.164 115.753C450.065 115.886 451.922 115.954 453.734 115.957C454.422 115.917 455.109 115.877 455.366 115.416C455.655 114.79 455.091 114.174 454.63 113.917C454.005 113.629 453.348 113.504 452.692 113.38C451.41 112.968 450.581 111.961 450.142 110.689C449.672 109.58 449.592 108.205 449.481 106.994C448.46 97.1137 446.774 86.2574 449.651 76.434C450.02 76.2772 450.445 76.1309 450.923 75.9949C453.407 75.4447 455.962 75.4178 458.476 74.7036C465.168 72.5698 466.706 66.2323 470.245 60.103C471.468 58.125 475.172 58.3153 477.123 56.9847C478.067 56.4834 480.276 54.6916 480.289 52.8245C480.271 51.1215 481.02 50.7534 480.59 50.3321Z" fill="#281203"/>
</svg>
