<svg width="111" height="114" viewBox="0 0 111 114" fill="none" xmlns="http://www.w3.org/2000/svg">
<g opacity="0.5">
<path d="M12.7003 0L12.7482 17.0499H15.8633L15.9113 23.2107H19.9849V30.9476H20.56V30.1835H22.525V41.2158H23.4835L23.7231 113.857H20.9434L20.7038 32.7625H19.2181L19.4578 113.857H17.9721L17.7324 32.7625H15.8154L16.055 113.857H14.6173L14.3776 32.7625H12.4606L12.7003 113.857H11.2625L10.9749 32.7625H9.05793L9.29756 113.857H7.85979L7.62016 32.7625H5.70314L5.94277 113.857H4.50501L4.21745 32.7625H2.30043L2.54006 113.857H0.239627L0 39.0189V30.9476H3.49857L3.45064 23.2107H7.04505V17.0499H10.8791L10.7832 0H12.7003Z" fill="#281203"/>
<path fill-rule="evenodd" clip-rule="evenodd" d="M62.9743 44.5588H66.7604L67 114H61.6324L61.4407 38.1114H61.201L61.4407 114L32.4937 113.952L32.254 38.1114H32.0623L32.302 113.952H29.714L29.5223 51.4839L29.4264 50.3854H30.5766L30.5287 36.6787H62.9743V44.5588ZM66.1853 95.6607V92.5086H63.2618V95.6607H66.1853ZM66.0415 53.2987V50.2899H63.118V53.2987H66.0415ZM66.1853 109.797V106.836H63.2618V109.797H66.1853ZM66.0894 81.5241V78.6586H63.166V81.5241H66.0894ZM66.0415 63.6146V60.749H63.0701L63.118 63.6146H66.0415ZM66.0415 67.4353V64.5697H63.0701L63.118 67.3875L66.0415 67.4353ZM66.0415 77.7511V74.9334H63.118V77.7511H66.0415ZM66.1373 105.929V103.207H63.166L63.2139 105.929H66.1373ZM65.9457 49.3825V46.6602H62.9743L63.0222 49.3825H65.9457ZM66.0415 91.6012V89.0699H63.118V91.6012H66.0415ZM43.7082 61.8475V59.5551H41.5995V61.8475H43.7082ZM43.7082 53.5375V51.2451H41.5995V53.5375H43.7082ZM43.7562 66.0025V63.7101H41.6474V66.0025H43.7562ZM43.7082 49.3825V47.09H41.5995V49.3825H43.7082ZM43.7082 41.0724L43.6603 38.78H41.5995V41.0724H43.7082ZM39.7783 61.8475V59.5551H37.6696V61.8475H39.7783ZM51.7118 53.5375V51.2451H49.6031V53.5375H51.7118ZM51.7597 61.8475V59.5551H49.651V61.8475H51.7597ZM39.7783 53.5375V51.2451H37.6696V53.5375H39.7783ZM59.7153 53.5375V51.2451H57.6066V53.5375H59.7153ZM59.7633 61.8475V59.5551H57.6545V61.8475H59.7633ZM43.8041 57.6925V55.4001H41.6954V57.6925H43.8041ZM51.7597 49.3825V47.09H49.651V49.3825H51.7597ZM59.8112 66.0025L59.7633 63.7101H57.7025V66.0025H59.8112ZM39.8263 49.3825V47.09H37.7175V49.3825H39.8263ZM59.7633 49.3825V47.09H57.6545V49.3825H59.7633ZM39.8742 66.0025V63.7101H37.7655L37.8134 66.0025H39.8742ZM51.8076 66.0025V63.7101H49.6989V66.0025H51.8076ZM39.7783 41.0724V38.78H37.6696V41.0724H39.7783ZM59.7153 41.0724V38.78H57.6066V41.0724H59.7153ZM51.7597 41.0724V38.78H49.651V41.0724H51.7597ZM59.8112 57.6925L59.7633 55.4001H57.7025V57.6925H59.8112ZM51.8076 57.6925V55.4001H49.6989L49.7468 57.6925H51.8076ZM39.8263 57.6925V55.4001H37.7175V57.6925H39.8263ZM51.7597 45.2275V42.935H49.651V45.2275H51.7597ZM39.8263 45.2275V42.935H37.7175V45.2275H39.8263ZM59.7633 45.2275V42.935H57.6545V45.2275H59.7633ZM43.8999 78.4675V76.1751H41.7912L41.8391 78.4675H43.8999ZM43.9479 103.398V101.105H41.8391V103.398H43.9479ZM43.9479 90.9325L43.8999 88.6401H41.8391V90.9325H43.9479ZM43.8999 86.7775V84.4851H41.7912L41.8391 86.7775H43.8999ZM43.852 82.6225V80.3301H41.7433L41.7912 82.6225H43.852ZM39.9221 103.398V101.105H37.8134V103.398H39.9221ZM51.8556 103.398V101.105H49.7468L49.7948 103.398H51.8556ZM59.8112 103.398V101.105H57.7025V103.398H59.8112ZM51.7597 78.4675V76.1751H49.651V78.4675H51.7597ZM39.8263 78.4675V76.1751H37.7175V78.4675H39.8263ZM59.7633 78.4675V76.1751H57.6545V78.4675H59.7633ZM43.9479 111.708L43.8999 109.415H41.8391V111.708H43.9479ZM43.8999 107.553V105.26H41.8391V107.553H43.8999ZM43.8041 74.3125L43.7562 72.0201H41.6954V74.3125H43.8041ZM43.852 99.2426V96.9501H41.7433L41.7912 99.2426H43.852ZM51.7597 82.6225V80.3301H49.651V82.6225H51.7597ZM59.7153 82.6225V80.3301H57.6066L57.6545 82.6225H59.7153ZM51.7118 86.7775V84.4851H49.6031L49.651 86.7775H51.7118ZM51.7118 90.9325V88.6401H49.6031V90.9325H51.7118ZM39.7304 86.7775V84.4851H37.6217L37.6696 86.7775H39.7304ZM39.7304 90.9325V88.6401H37.6217V90.9325H39.7304ZM39.6825 82.6225V80.3301H37.6217V82.6225H39.6825ZM59.6195 90.9325V88.6401H57.5108V90.9325H59.6195ZM59.6195 86.7775V84.4851H57.5108V86.7775H59.6195ZM51.6639 95.0875V92.7951H49.5551V95.0875H51.6639ZM39.6825 74.3125V72.0201H37.5738V74.3125H39.6825ZM59.7153 107.553V105.26H57.6066V107.553H59.7153ZM59.6674 95.0875V92.7951H57.5587V95.0875H59.6674ZM39.8263 111.708L39.7783 109.415H37.7175V111.708H39.8263ZM59.6195 74.3125V72.0201H57.5108V74.3125H59.6195ZM51.7597 107.553V105.26H49.651V107.553H51.7597ZM59.7633 111.708V109.415H57.6545V111.708H59.7633ZM51.6639 74.3125V72.0201H49.6031V74.3125H51.6639ZM51.7597 111.708V109.415H49.651V111.708H51.7597ZM39.7783 95.0875V92.7951H37.6696V95.0875H39.7783ZM59.6195 70.1575V67.8651H57.5108V70.1575H59.6195ZM39.7783 99.2426V96.9501H37.6696L37.7175 99.2426H39.7783ZM59.6674 99.2426V96.9501H57.5587L57.6066 99.2426H59.6674ZM51.6639 99.2426V96.9501H49.5551V99.2426H51.6639ZM51.6159 70.1575L51.568 67.8651H49.5072V70.1575H51.6159ZM39.6346 70.1097V67.8651H37.5258V70.1097H39.6346ZM55.5458 61.8475V59.5551H53.485V61.8475H55.5458ZM47.5423 53.5375V51.2451H45.4335V53.5375H47.5423ZM35.6088 61.8475V59.5551H33.5001L33.548 61.8475H35.6088ZM35.5609 53.4897V51.2451H33.4522V53.4897H35.5609ZM47.5423 61.8475V59.5551H45.4335L45.4815 61.8475H47.5423ZM55.45 49.3825V47.09H53.3413V49.3825H55.45ZM35.6088 66.0025V63.7101H33.5001V66.0025H35.6088ZM47.4943 49.3347V47.09H45.3856L45.4335 49.3347H47.4943ZM35.513 49.3347V47.09L33.4042 47.0423V49.3347H35.513ZM55.4979 66.0025V63.7101H53.3892L53.4371 66.0025H55.4979ZM55.402 41.0247V38.78L53.2933 38.7323V41.0247H55.402ZM35.465 41.0247V38.7323H33.4042V41.0247H35.465ZM47.3985 41.0247V38.7323H45.2898V41.0247H47.3985ZM55.45 57.6925V55.4001H53.3413V57.6447L55.45 57.6925ZM47.4943 57.6925V55.4478H45.3856V57.6925H47.4943ZM55.45 45.2275L55.402 42.935H53.3413V45.2275H55.45ZM35.513 45.2275V42.935H33.4042V45.2275H35.513ZM47.4943 45.2275V42.935H45.3856V45.2275H47.4943ZM35.7047 103.445V101.153H33.6439V103.445H35.7047ZM47.6381 103.445V101.153H45.5294V103.445H47.6381ZM35.6088 78.4675V76.2229H33.5001L33.548 78.4675H35.6088ZM47.5423 78.4675V76.2229H45.4335V78.4675H47.5423ZM55.5458 78.4675V76.2229H53.4371V78.4675H55.5458ZM55.6417 103.445L55.5937 101.153H53.533V103.445H55.6417ZM47.6381 90.9325V88.6879H45.5294V90.9325H47.6381ZM55.5937 90.9325V88.6879H53.485L53.533 90.9325H55.5937ZM55.5458 82.6225V80.3779H53.4371V82.6225H55.5458ZM35.6567 86.7775V84.5329H33.548V86.7775H35.6567ZM47.6381 86.7775L47.5902 84.5329H45.5294V86.7775H47.6381ZM47.6381 82.6225L47.5902 80.3779H45.5294V82.6225H47.6381ZM35.7047 90.9325V88.6879H33.5959V90.9325H35.7047ZM35.7047 82.6225L35.6567 80.3301H33.5959V82.6225H35.7047ZM55.5937 74.3125V72.0678L53.485 72.0201V74.3125H55.5937ZM35.7526 95.0875V92.8429H33.6439V95.0875H35.7526ZM47.6381 74.3125V72.0201H45.5294L45.5773 74.3125H47.6381ZM55.6896 111.708V109.463H53.6288V111.708H55.6896ZM47.6381 95.0875V92.8429H45.5294L45.5773 95.0875H47.6381ZM47.686 111.708L47.6381 109.463H45.5773V111.708H47.686ZM35.6088 74.3125V72.0201H33.5001V74.3125H35.6088ZM35.7047 107.553V105.308H33.6439V107.553H35.7047ZM47.6381 107.553V105.308H45.5294V107.553H47.6381ZM35.7047 111.708V109.463H33.5959L33.6439 111.708H35.7047ZM35.5609 70.1575V67.8651H33.4522V70.1575H35.5609ZM47.5902 99.2426V96.9979H45.5294V99.2426H47.5902ZM35.6088 99.2426V96.9979H33.5001L33.548 99.2426H35.6088ZM47.4464 70.1575V67.8651H45.3377V70.1575H47.4464ZM55.5458 99.2426V96.9979H53.4371V99.2426H55.5458ZM55.45 70.1575V67.8651H53.3413V70.1575H55.45Z" fill="#281203"/>
<path fill-rule="evenodd" clip-rule="evenodd" d="M98.8635 113.822L98.4511 25.9552L96.6837 26.0145L97.0961 113.822H92.5597L92.1473 26.0145H90.4387L90.7922 113.882H86.1969L85.7845 32.7689L85.0186 32.8282L85.3721 113.882H83.0744L83.0155 112.341C82.7209 111.571 82.5442 111.275 82.3674 111.156C82.3281 111.156 82.3085 111.156 82.3085 111.156C82.2692 111.117 82.2496 111.097 82.2496 111.097C81.6604 111.215 81.3659 112.104 81.307 112.282C81.307 112.321 81.307 112.341 81.307 112.341V113.941H80.0698V112.341C79.6574 111.393 79.4217 111.156 79.2449 111.097C78.7147 111.215 78.4201 112.104 78.3612 112.341V113.941L73 114V113.111H74.1194V112.578H73V109.438H74.0605V108.905H73V105.764H74.0605V105.231H73V102.091H74.0605V101.558H73V98.4174H74.0605V97.8841H73V94.7439H74.0015V94.2107H73V91.0704H74.0015V90.5372H73V87.397H74.0015V86.8637H73V83.7235H73.9426V83.1903H73V80.05H73.9426V79.5168H73V72.7031H73.9426V72.1699H73V69.0296H73.8837V68.4964H73V65.5932H75.0031C74.9638 65.2772 74.9442 64.9809 74.9442 64.7044C74.9442 64.3489 74.9638 63.9934 75.0031 63.6379C75.0031 63.5984 75.0031 63.5589 75.0031 63.5194C75.0031 63.4799 75.0227 63.4207 75.062 63.3417C75.062 63.0652 75.0816 62.8084 75.1209 62.5714C75.1602 62.4924 75.1798 62.4134 75.1798 62.3344C75.2584 62.0579 75.3369 61.7814 75.4155 61.505C75.4155 61.4655 75.4155 61.4062 75.4155 61.3272C75.494 61.0902 75.5922 60.8532 75.7101 60.6162C75.7493 60.5767 75.769 60.5174 75.769 60.4384C75.8868 60.2015 76.0046 59.9842 76.1225 59.7867C76.1225 59.7472 76.1421 59.7275 76.1814 59.7275C76.2992 59.4905 76.4367 59.2732 76.5938 59.0757C76.5938 59.0362 76.6134 59.0165 76.6527 59.0165C76.7705 58.819 76.908 58.6412 77.0651 58.4832C77.0651 58.4437 77.0848 58.424 77.124 58.424C77.2811 58.2265 77.4579 58.0487 77.6542 57.8907C77.6935 57.8512 77.7328 57.8117 77.7721 57.7722C78.047 57.5747 78.322 57.397 78.5969 57.239C78.5969 57.1995 78.6165 57.1797 78.6558 57.1797C78.6951 57.1402 78.7147 57.1205 78.7147 57.1205C78.7147 57.1205 78.7344 57.1205 78.7736 57.1205C78.7736 57.1205 78.7736 57.1007 78.7736 57.0612C78.8129 57.0612 78.8325 57.0612 78.8325 57.0612C78.9504 56.9822 79.0682 56.923 79.186 56.8835C79.2253 56.844 79.2646 56.8242 79.3038 56.8242C79.3038 56.8242 79.3235 56.8045 79.3628 56.765C79.5984 56.6465 79.8341 56.5477 80.0698 56.4687C80.1483 56.4292 80.2269 56.4095 80.3054 56.4095C80.4625 56.3305 80.6393 56.2712 80.8356 56.2317C80.9928 56.1527 81.1695 56.0935 81.3659 56.054C81.3659 56.054 81.3855 56.054 81.4248 56.054C81.4248 56.054 81.4444 56.054 81.4837 56.054C81.523 56.054 81.5426 56.0342 81.5426 55.9947C81.5426 55.9947 81.5623 55.9947 81.6015 55.9947C81.6015 55.9947 81.6212 55.9947 81.6604 55.9947C81.739 55.9947 81.8372 55.975 81.955 55.9355C81.955 55.9355 81.9747 55.9355 82.0139 55.9355C82.0925 55.9355 82.171 55.9157 82.2496 55.8762C82.2889 55.8762 82.3281 55.8762 82.3674 55.8762C82.4067 55.8762 82.446 55.8762 82.4853 55.8762C82.5638 55.8762 82.6227 55.8565 82.662 55.817C82.7013 55.817 82.7406 55.817 82.7798 55.817C82.8191 55.817 82.8584 55.817 82.8977 55.817C82.9369 55.817 82.9762 55.817 83.0155 55.817C83.0548 55.817 83.0744 55.817 83.0744 55.817L82.9566 31.2284H85.6077L85.5488 24.1185H88.2L100.219 24H103.4V29.2732H104.578V31.3469L104.637 32.2949V39.7011L109.115 39.6419V35.9684L109.056 35.0204V29.214H110.764V32.9467L110.823 35.9684H111V113.763L98.8635 113.822ZM109.409 111.571L104.991 111.63V113.171H109.468L109.409 111.571ZM109.35 107.897H104.873L104.932 109.497L109.35 109.438V107.897ZM109.35 104.224L104.873 104.283V105.824H109.35V104.224ZM109.35 100.55H104.873V102.15H104.932L109.056 102.091H109.35V100.55ZM109.35 96.8769L104.873 96.9361V98.4766H109.35V96.8769ZM109.35 93.2034H104.873V94.8032H109.35V93.2034ZM109.291 89.53H104.873V91.1297L108.997 91.0704H109.35L109.291 89.53ZM109.233 85.8565L104.814 85.9157V87.4562H109.233V85.8565ZM109.233 82.183H104.755L104.814 83.7827L109.233 83.7235V82.183ZM109.233 78.5096L104.755 78.5688V80.1093H109.233V78.5096ZM109.233 74.8361H104.755V76.4358L108.938 76.3766H109.233V74.8361ZM109.233 71.1626L104.755 71.2219V72.7624H109.233V71.1626ZM109.233 67.4891H104.755V69.0889L108.879 69.0296H109.233V67.4891ZM109.174 63.8157L104.755 63.8749V65.4154H109.174V63.8157ZM109.174 60.1422H104.696L104.755 61.7419H109.174V60.1422ZM109.174 56.4095L104.696 56.4687V58.0685L109.174 58.0092V56.4095ZM109.174 52.736H104.696V54.3358H109.174V52.736ZM109.174 49.0626H104.696V50.6623L108.82 50.603H109.174V49.0626ZM109.115 45.3891L104.696 45.4483V46.9888H109.174L109.115 45.3891ZM104.637 41.7156V43.3153L109.056 43.2561V41.7156H104.637ZM78.1255 66.4227H79.893L79.8341 59.7867C79.7948 59.6682 79.7555 59.5695 79.7163 59.4905C79.7163 59.451 79.6966 59.4312 79.6574 59.4312C79.4217 58.7795 79.186 58.5425 78.9504 58.5425C78.9111 58.5425 78.8718 58.5425 78.8325 58.5425C78.754 58.582 78.6951 58.6215 78.6558 58.661C78.6165 58.7005 78.5969 58.7202 78.5969 58.7202C78.5576 58.7597 78.538 58.7795 78.538 58.7795C78.538 58.7795 78.5183 58.7992 78.4791 58.8387C78.4791 58.8782 78.4594 58.9177 78.4201 58.9572C78.4201 58.9572 78.4005 58.977 78.3612 59.0165C78.3612 59.056 78.3416 59.0955 78.3023 59.135C78.3023 59.1745 78.3023 59.214 78.3023 59.2535C78.263 59.2535 78.2434 59.2732 78.2434 59.3127C78.2041 59.3522 78.1845 59.3917 78.1845 59.4312C78.1845 59.4707 78.1845 59.4905 78.1845 59.4905C78.1845 59.4905 78.1845 59.5102 78.1845 59.5497C78.1452 59.5497 78.1255 59.5497 78.1255 59.5497C78.1255 59.5892 78.1255 59.609 78.1255 59.609C78.1255 59.609 78.1255 59.6287 78.1255 59.6682C78.1255 59.6682 78.1059 59.688 78.0667 59.7275C78.0667 59.767 78.0667 59.7867 78.0667 59.7867L78.1255 66.4227ZM78.1845 76.9098H79.9519L79.893 70.2146C79.8537 70.1356 79.8145 70.0369 79.7752 69.9184C79.7752 69.9184 79.7752 69.8986 79.7752 69.8591C79.4806 69.2666 79.245 69.0296 79.0682 68.9704C79.0289 68.9704 79.0093 68.9704 79.0093 68.9704C79.0093 69.0099 78.9896 69.0296 78.9504 69.0296C78.9504 69.0296 78.9307 69.0296 78.8915 69.0296C78.8522 69.0296 78.8129 69.0494 78.7736 69.0889C78.7736 69.0889 78.754 69.1086 78.7147 69.1481C78.6754 69.1876 78.6558 69.2074 78.6558 69.2074C78.6165 69.2469 78.5969 69.2864 78.5969 69.3259C78.5576 69.3259 78.538 69.3259 78.538 69.3259C78.538 69.3654 78.5183 69.3851 78.4791 69.3851C78.4791 69.4246 78.4791 69.4641 78.4791 69.5036C78.4398 69.5431 78.4201 69.5826 78.4201 69.6221C78.3809 69.6221 78.3612 69.6419 78.3612 69.6814C78.322 69.7209 78.3023 69.7604 78.3023 69.7999C78.3023 69.8394 78.2827 69.8789 78.2434 69.9184C78.2434 69.9184 78.2434 69.9381 78.2434 69.9776C78.2434 70.0171 78.2238 70.0369 78.1845 70.0369C78.1845 70.0764 78.1845 70.0961 78.1845 70.0961C78.1845 70.0961 78.1845 70.1159 78.1845 70.1554C78.1845 70.1554 78.1845 70.1751 78.1845 70.2146V76.9098ZM78.1845 87.397H79.9519L79.893 80.7018C79.893 80.6228 79.8734 80.5438 79.8341 80.4648C79.5984 79.8723 79.3628 79.576 79.1271 79.4575C79.0878 79.4575 79.0486 79.4575 79.0093 79.4575C79.0093 79.4575 78.9896 79.4575 78.9504 79.4575C78.9111 79.497 78.8915 79.5168 78.8915 79.5168C78.8522 79.5168 78.8325 79.5168 78.8325 79.5168C78.7933 79.5563 78.7736 79.576 78.7736 79.576C78.7344 79.6156 78.6951 79.655 78.6558 79.6945C78.6558 79.6945 78.6362 79.7143 78.5969 79.7538C78.5969 79.7933 78.5772 79.8328 78.538 79.8723C78.4987 79.9118 78.4791 79.9315 78.4791 79.9315C78.4791 79.971 78.4594 80.0105 78.4201 80.05C78.4201 80.0895 78.4201 80.1093 78.4201 80.1093C78.3809 80.1093 78.3612 80.129 78.3612 80.1685C78.3612 80.1685 78.3612 80.1883 78.3612 80.2278C78.3612 80.2278 78.3416 80.2475 78.3023 80.287C78.3023 80.287 78.3023 80.3068 78.3023 80.3463C78.2434 80.524 78.1845 80.7018 78.1845 80.7018V87.397ZM78.2434 97.9434L80.0108 97.8841L79.9519 91.2482C79.9127 91.1297 79.8734 91.0309 79.8341 90.9519C79.8341 90.9124 79.8145 90.8927 79.7752 90.8927C79.5395 90.2409 79.3039 90.004 79.0682 90.004C79.0289 90.004 78.9896 90.004 78.9504 90.004C78.8718 90.0434 78.8129 90.083 78.7736 90.1225C78.7344 90.162 78.6951 90.2015 78.6558 90.241C78.6558 90.241 78.6362 90.2607 78.5969 90.3002C78.5969 90.3002 78.5969 90.3199 78.5969 90.3595C78.5969 90.3595 78.5772 90.3792 78.538 90.4187C78.538 90.4582 78.5183 90.478 78.4791 90.478C78.4791 90.5175 78.4594 90.5569 78.4201 90.5964C78.4201 90.6359 78.4201 90.6755 78.4201 90.715C78.3809 90.715 78.3612 90.7347 78.3612 90.7742C78.3612 90.8137 78.3612 90.8335 78.3612 90.8335C78.322 90.873 78.3023 90.8927 78.3023 90.8927C78.3023 90.9322 78.3023 90.9519 78.3023 90.9519C78.263 91.0309 78.2434 91.0902 78.2434 91.1297C78.2434 91.1297 78.2434 91.1494 78.2434 91.1889C78.2041 91.1889 78.1845 91.1889 78.1845 91.1889C78.1845 91.2284 78.1845 91.2482 78.1845 91.2482L78.2434 97.8841V97.9434ZM80.0108 108.431L79.9519 101.735C79.9127 101.577 79.8734 101.439 79.8341 101.321C79.5984 100.787 79.3628 100.55 79.186 100.491C79.1468 100.491 79.1075 100.491 79.0682 100.491C79.0682 100.491 79.0486 100.491 79.0093 100.491C78.8914 100.531 78.7736 100.61 78.6558 100.728C78.6558 100.768 78.6558 100.787 78.6558 100.787C78.6165 100.827 78.5969 100.866 78.5969 100.906C78.5969 100.906 78.5772 100.926 78.538 100.965C78.4987 101.005 78.4791 101.044 78.4791 101.084C78.4791 101.123 78.4594 101.143 78.4201 101.143C78.4201 101.143 78.4201 101.163 78.4201 101.202C78.4201 101.242 78.4005 101.281 78.3612 101.321C78.3612 101.36 78.3612 101.38 78.3612 101.38C78.322 101.419 78.3023 101.459 78.3023 101.498C78.3023 101.538 78.3023 101.558 78.3023 101.558C78.3023 101.597 78.2827 101.617 78.2434 101.617C78.2434 101.656 78.2434 101.676 78.2434 101.676C78.2434 101.716 78.2434 101.735 78.2434 101.735V108.431H80.0108ZM81.0124 66.3634H82.7798L82.7209 59.7275C82.6817 59.609 82.6424 59.5102 82.6031 59.4312C82.6031 59.3917 82.6031 59.372 82.6031 59.372C82.3085 58.7202 82.0729 58.4832 81.8961 58.4832C81.8568 58.4832 81.8372 58.4832 81.8372 58.4832C81.7979 58.4832 81.7783 58.4832 81.7783 58.4832C81.6604 58.5227 81.5426 58.6017 81.4248 58.7202C81.4248 58.7202 81.4248 58.74 81.4248 58.7795C81.3855 58.7795 81.3659 58.7992 81.3659 58.8387C81.3266 58.8782 81.307 58.9177 81.307 58.9572C81.2677 58.9967 81.2481 59.0362 81.2481 59.0757C81.2088 59.0757 81.1891 59.0955 81.1891 59.135C81.1891 59.1745 81.1695 59.214 81.1302 59.2535C81.1302 59.293 81.1302 59.3127 81.1302 59.3127C81.1302 59.3127 81.1302 59.3325 81.1302 59.372C81.091 59.4115 81.0713 59.4312 81.0713 59.4312C81.0713 59.4707 81.0713 59.4905 81.0713 59.4905C81.0713 59.4905 81.0713 59.5102 81.0713 59.5497C81.032 59.5497 81.0124 59.5695 81.0124 59.609C81.0124 59.6485 81.0124 59.688 81.0124 59.7275V66.3634ZM81.0124 76.8506H82.7798L82.7209 70.1554C82.6817 70.0764 82.6424 69.9776 82.6031 69.8591C82.6031 69.8591 82.6031 69.8394 82.6031 69.7999C82.3674 69.2074 82.0729 68.9704 81.8961 68.9111C81.8961 68.9111 81.8765 68.9111 81.8372 68.9111C81.8372 68.9111 81.8176 68.9309 81.7783 68.9704C81.739 68.9704 81.6801 68.9901 81.6015 69.0296C81.6015 69.0296 81.6015 69.0494 81.6015 69.0889C81.5623 69.0889 81.523 69.1086 81.4837 69.1481C81.4837 69.1481 81.4641 69.1679 81.4248 69.2074C81.4248 69.2469 81.4051 69.2864 81.3659 69.3259C81.3266 69.3654 81.307 69.3851 81.307 69.3851C81.307 69.4246 81.2873 69.4641 81.2481 69.5036C81.2481 69.5431 81.2284 69.5826 81.1891 69.6221C81.1891 69.6616 81.1891 69.7011 81.1891 69.7406C81.1498 69.7406 81.1302 69.7604 81.1302 69.7999C81.1302 69.8394 81.1106 69.8789 81.0713 69.9184C81.0713 69.9579 81.0713 69.9776 81.0713 69.9776C81.0713 70.0171 81.0713 70.0369 81.0713 70.0369C81.032 70.0369 81.0124 70.0566 81.0124 70.0961C81.0124 70.1356 81.0124 70.1554 81.0124 70.1554V76.8506ZM81.0713 87.397H82.8387V87.3377L82.7798 80.7018C82.4853 79.9315 82.2496 79.576 82.0139 79.4575C81.9747 79.4575 81.9354 79.4575 81.8961 79.4575C81.8568 79.4575 81.8176 79.4575 81.7783 79.4575C81.6015 79.5168 81.4248 79.7538 81.307 79.9315C81.307 79.971 81.2873 80.0105 81.2481 80.05C81.2481 80.0895 81.2481 80.1093 81.2481 80.1093C81.2481 80.1093 81.2481 80.129 81.2481 80.1685C81.2088 80.208 81.1891 80.2475 81.1891 80.287C81.1498 80.287 81.1302 80.3068 81.1302 80.3463C81.1302 80.3858 81.1106 80.4253 81.0713 80.4648C81.0713 80.5833 81.0124 80.7018 81.0124 80.7018L81.0713 87.397ZM81.1302 97.8841H82.8977L82.8387 91.2482C82.7995 91.1297 82.7602 91.0309 82.7209 90.9519C82.7209 90.9124 82.7209 90.8927 82.7209 90.8927C82.4264 90.2409 82.1907 90.004 81.955 90.004C81.9157 90.004 81.8961 90.004 81.8961 90.004C81.8176 90.004 81.7587 90.0237 81.7194 90.0632C81.6801 90.1027 81.6604 90.1225 81.6604 90.1225C81.6212 90.1225 81.6015 90.1422 81.6015 90.1817C81.6015 90.1817 81.5819 90.2015 81.5426 90.241C81.5034 90.2805 81.4641 90.3199 81.4248 90.3595C81.4248 90.3989 81.4248 90.4385 81.4248 90.478C81.3855 90.5175 81.3659 90.5569 81.3659 90.5964C81.3266 90.5964 81.307 90.6162 81.307 90.6557C81.2677 90.6952 81.2481 90.7347 81.2481 90.7742C81.2481 90.8137 81.2481 90.8335 81.2481 90.8335C81.2088 90.8335 81.1891 90.8532 81.1891 90.8927C81.1891 90.8927 81.1891 90.9124 81.1891 90.9519C81.1891 90.9914 81.1891 91.0112 81.1891 91.0112C81.1891 91.0112 81.1695 91.0112 81.1302 91.0112C81.1302 91.0112 81.1302 91.031 81.1302 91.0704C81.1302 91.1099 81.1302 91.1297 81.1302 91.1297C81.1302 91.1297 81.1302 91.1494 81.1302 91.1889C81.1302 91.1889 81.1106 91.1889 81.0713 91.1889C81.0713 91.2284 81.0713 91.2482 81.0713 91.2482L81.1302 97.8841ZM82.9566 108.371L82.8977 101.676C82.8584 101.597 82.8191 101.498 82.7798 101.38C82.7798 101.38 82.7798 101.36 82.7798 101.321C82.4853 100.728 82.2496 100.491 82.0728 100.432C82.0336 100.432 82.0139 100.432 82.0139 100.432C81.9747 100.432 81.9354 100.452 81.8961 100.491C81.7783 100.531 81.6801 100.61 81.6015 100.728C81.5623 100.768 81.5426 100.807 81.5426 100.847C81.5034 100.886 81.4837 100.926 81.4837 100.965C81.4444 101.005 81.4248 101.024 81.4248 101.024C81.3855 101.064 81.3659 101.103 81.3659 101.143C81.3659 101.182 81.3462 101.222 81.307 101.261C81.307 101.261 81.307 101.281 81.307 101.321C81.2677 101.36 81.2481 101.38 81.2481 101.38C81.2481 101.38 81.2481 101.4 81.2481 101.439C81.2481 101.479 81.2481 101.498 81.2481 101.498C81.2088 101.538 81.1891 101.558 81.1891 101.558C81.1891 101.597 81.1891 101.617 81.1891 101.617C81.1891 101.617 81.1891 101.637 81.1891 101.676V108.371H82.9566ZM87.6108 28.4437H89.3194V24.711H87.6108V28.4437ZM87.6108 33.6577L89.3194 33.5984V29.8657L87.6108 29.9249V33.6577ZM87.6697 38.8124H89.3783V37.5681L89.3194 36.3239V35.0797H87.6108V36.3239L87.6697 37.5681V38.8124ZM87.6697 42.7228H89.3783V40.2344H87.6697V42.7228ZM87.6697 47.8776H89.3783V45.3891H87.6697V47.8776ZM87.6697 53.0915L89.3783 53.0323V50.5438H87.6697V53.0915ZM87.7287 58.2462H89.3783V55.7577H87.6697L87.7287 58.2462ZM89.4961 63.4009L89.4372 60.9125H87.7876V63.4009H89.4961ZM87.7876 68.6149H89.4961V66.1264H87.7876V68.6149ZM89.4961 73.7696V71.2811H87.7876V73.7696H89.4961ZM87.9054 78.9243H89.6139L89.555 76.4358H87.9054V78.9243ZM87.9054 89.2337H89.6139V86.7452H87.9054V89.2337ZM87.9643 94.3884H89.6139V91.8999H87.9054L87.9643 94.3884ZM87.9643 99.5431H89.6729V97.0547H87.9643V99.5431ZM87.9643 104.757L89.2605 104.698H89.6729V102.209L87.9643 102.269V104.757ZM89.6729 109.853V107.364L87.9643 107.423V109.912L89.6729 109.853ZM93.6202 28.4437H95.3287V24.711L93.6202 24.7703V28.4437ZM93.6791 33.5984H95.3876V32.3542L95.3287 31.0507V29.8657H93.6202L93.6791 31.1099V33.5984ZM93.6791 38.7531H95.3876V35.0204H93.6791V38.7531ZM93.6791 42.7228L94.9752 42.6636H95.3876V40.1751L93.6791 40.2344V42.7228ZM93.6791 47.8776H95.3876V45.3298L93.6791 45.3891V47.8776ZM93.738 53.0323H95.4465L95.3876 50.4845L93.6791 50.5438L93.738 53.0323ZM93.7969 58.187H95.5054V55.6985H93.7969V58.187ZM93.7969 63.3417H95.5054V60.8532H93.7969V63.3417ZM93.7969 68.4964H95.5054V66.0079H93.7969V68.4964ZM93.7969 73.6511H95.5054V71.1626H93.7969V73.6511ZM93.8558 78.8058H95.5643L95.5054 76.3173H93.7969L93.8558 78.8058ZM93.9147 83.9605H95.6232V81.472H93.9147V83.9605ZM95.6232 89.1152V86.6267H93.9147V89.1152H95.6232ZM93.9147 94.3292H95.6232V91.7814L93.9147 91.8407V94.3292ZM95.6822 99.4839L95.6232 96.9954H93.9147L93.9736 99.4839H95.6822ZM93.9736 104.639H95.6822V102.15H93.9736V104.639ZM95.6822 109.793V107.305H93.9736V109.793H95.6822ZM100.042 107.305V109.793H101.75V107.305H100.042ZM101.633 102.091L99.924 102.15V104.639H101.633V102.091ZM101.633 96.8769L99.924 96.9361V99.4246H101.22L101.633 99.3654V96.8769ZM101.633 91.7222H99.924V94.2699L101.633 94.2107V91.7222ZM101.633 86.5675H99.924V89.1152L101.633 89.056V86.5675ZM101.574 81.4128H99.8651L99.924 83.9013H101.633L101.574 81.4128ZM101.515 76.2581H99.8062V78.7465H101.515V76.2581ZM101.515 71.1034H99.8062V73.5918H101.515V71.1034ZM101.515 65.9487H99.8062V68.4371H101.515V65.9487ZM101.515 60.7939H99.8062V63.2824H101.515V60.7939ZM101.456 55.6392H99.7473L99.8062 58.1277H101.515L101.456 55.6392ZM101.397 50.4845H99.6884V52.973H101.397V50.4845ZM101.397 45.3298H99.6884V47.8183H101.397V45.3298ZM101.338 35.0204H99.6294V36.2054L99.6884 37.5089V38.7531L101.397 38.6939V37.5089L101.338 36.2054V35.0204ZM99.6294 24.711V28.4437H101.338V24.711H99.6294Z" fill="#281203"/>
</g>
</svg>
