<svg width="40" height="51" viewBox="0 0 40 51" fill="none" xmlns="http://www.w3.org/2000/svg">
<g opacity="0.9">
<path d="M16.5848 50.1269C16.5848 50.1269 20.306 52.0913 24.2494 50.1269C24.2494 50.1269 25.388 25.7797 26.1933 20.2186C27.2486 12.7208 27.0542 2.42857 20.1117 2.42857C13.1413 2.42857 12.3082 8.01737 14.2244 23.013C15.6962 34.5503 16.5848 50.1269 16.5848 50.1269Z" fill="white"/>
<path d="M22.6199 38.7015C22.6378 38.7015 22.745 38.72 22.9415 38.7571C23.156 38.7849 23.4776 38.8405 23.9064 38.8961C24.3084 38.9517 24.8177 39.0073 25.4073 39.0351C25.9702 39.0629 26.6134 39.0629 27.2299 39.0073C27.5247 38.9795 27.8463 38.9517 28.1143 38.8683C28.3823 38.8127 28.5968 38.7293 28.704 38.6459C28.7576 38.6181 28.7844 38.5903 28.7844 38.5903C28.7576 38.5903 28.704 38.6181 28.6504 38.6737C28.6325 38.6737 28.6236 38.683 28.6236 38.7015C28.4627 38.9517 28.57 38.7849 28.5432 38.8127L28.57 38.7849L28.5968 38.7571V38.7015H28.6236C28.6236 38.6737 28.6236 38.7015 28.5968 38.7015C28.5968 38.72 28.5878 38.7478 28.57 38.7849L28.5432 38.8127V38.8405C28.5432 38.822 28.5432 38.8034 28.5432 38.7849C28.57 38.7015 28.6236 38.5347 28.6504 38.3401C28.7576 37.9787 28.838 37.5061 28.9184 37.0335C28.9899 36.5517 29.0524 36.0513 29.106 35.5324C29.24 34.5038 29.3204 33.4196 29.4276 32.3354C29.776 27.9987 29.9369 23.5508 30.0441 20.2427C30.0977 18.5747 30.1245 17.1848 30.1513 16.2396C30.1513 15.2666 30.1781 14.7106 30.1781 14.7106V14.6828C30.2049 12.5701 31.8934 10.8743 33.9304 10.9299C35.9941 10.9577 37.6022 12.7091 37.5754 14.8218C37.5754 14.9052 37.5486 14.9886 37.5486 15.0442C37.5486 15.0442 37.5218 15.6002 37.4414 16.601C37.361 17.574 37.2538 18.9917 37.1198 20.6875C36.8518 24.0512 36.4497 28.5547 35.8333 33.086C35.6725 34.2258 35.5117 35.3656 35.3241 36.5331C35.2169 37.0891 35.1097 37.6637 35.0024 38.2567C34.8684 38.8405 34.7344 39.4243 34.5468 40.0637C34.4664 40.3695 34.3592 40.7031 34.1984 41.0922L34.0644 41.398L34.0108 41.5092L33.9572 41.6482L33.8231 41.8706L33.7964 41.9262V41.954L33.7695 41.9818L33.6355 42.2042C33.5641 42.3154 33.4837 42.4266 33.3943 42.5378C33.0191 43.0104 32.6171 43.3718 32.215 43.6498C31.813 43.9278 31.411 44.1224 31.0625 44.2892C30.3121 44.595 29.6688 44.734 29.0524 44.8174C28.4628 44.9008 27.9267 44.9286 27.4175 44.9286C26.4258 44.9286 25.5949 44.8174 24.8445 44.734C24.1208 44.6228 23.5044 44.5116 22.9683 44.4004C22.4591 44.2614 22.0839 44.178 21.7891 44.0946C21.4942 44.0112 21.3334 43.9834 21.3334 43.9834C19.9397 43.5942 19.1088 42.093 19.4841 40.6475C19.8593 39.2575 21.1458 38.4235 22.4859 38.6737L22.6199 38.7015Z" fill="white"/>
<path d="M17.1438 39.7323C17.1257 39.7323 17.0264 39.7512 16.8459 39.7888C16.6653 39.8077 16.4125 39.8359 16.0875 39.8736C15.4375 39.9584 14.5166 40.0432 13.379 40.0714C12.8103 40.0714 12.1602 40.0714 11.456 40.0149C10.7519 39.9301 9.9664 39.8171 9.01845 39.5063C8.55801 39.3367 8.04341 39.1389 7.47463 38.7433C7.20379 38.5455 6.90586 38.3194 6.60793 38.0085C6.46348 37.8578 6.32805 37.6883 6.20166 37.4999L6.09332 37.3586L5.98499 37.1608L5.90374 37.0478C5.87665 37.0195 5.76831 36.8217 5.68706 36.6521L5.55163 36.3978L5.47038 36.2L5.30788 35.8609L5.19954 35.5218C5.0912 35.2957 5.03704 35.1262 4.95578 34.9001L4.76619 34.3067C4.54951 33.5437 4.35992 32.7807 4.17033 32.0742C4.00782 31.3395 3.85435 30.6425 3.7099 29.9831C3.43905 28.6267 3.22238 27.3833 3.03278 26.3095C2.84319 25.2356 2.70777 24.3314 2.62652 23.7097C2.51818 23.0597 2.46401 22.7206 2.46401 22.7206C2.16608 20.573 3.57447 18.5949 5.60581 18.2558C7.66423 17.9449 9.56013 19.4144 9.85806 21.562C9.87612 21.6939 9.89418 21.8258 9.91223 21.9576V21.9859C9.91223 21.9859 9.91223 22.325 9.93932 22.9184C9.9664 23.5119 10.0206 24.3596 10.0747 25.3769C10.156 26.3942 10.2372 27.5811 10.3727 28.8245C10.4539 29.4744 10.5081 30.0961 10.5893 30.7461C10.6977 31.3678 10.7789 31.9895 10.8873 32.5829L10.9956 33.0068C11.0227 33.1198 11.0498 33.2611 11.0769 33.3741L11.1039 33.5437L11.1581 33.685V33.7132C11.131 33.685 11.0769 33.6285 11.1581 33.7415L11.2123 33.8545L11.2394 33.8828V33.911C11.2123 33.8545 11.3206 34.0523 11.1581 33.798L11.131 33.7415C11.0949 33.7038 11.0588 33.6661 11.0227 33.6285C10.9685 33.5908 10.9324 33.5719 10.9144 33.5719C10.8873 33.5719 10.9414 33.6285 11.0769 33.685C11.3206 33.8263 11.754 33.9393 12.1873 34.0241C12.6207 34.1089 13.0811 34.1654 13.5145 34.2219C14.3812 34.2784 15.1666 34.2784 15.6812 34.2784C15.9521 34.2596 16.1507 34.2502 16.2771 34.2502C16.4035 34.2502 16.4667 34.2502 16.4667 34.2502L16.6021 34.2219C18.0647 34.1654 19.3105 35.324 19.3918 36.8499C19.446 38.2911 18.4709 39.5063 17.1438 39.7323Z" fill="white"/>
<path fill-rule="evenodd" clip-rule="evenodd" d="M21.8182 0.464416C21.5066 1.58824 20.9952 2.6877 20.4673 3.64286L19.3939 2.8261C19.8895 1.92939 20.3376 0.952515 20.6017 0L21.8182 0.464416Z" fill="white"/>
<path fill-rule="evenodd" clip-rule="evenodd" d="M17.9541 0C18.1784 0.934617 18.8145 2.01405 19.3939 2.85899L18.6035 3.64286C18.0187 2.79011 17.2576 1.54128 16.9697 0.341665L17.9541 0Z" fill="white"/>
<path fill-rule="evenodd" clip-rule="evenodd" d="M13.6048 3.22886C13.9054 4.02714 14.1978 4.80381 14.5455 5.52995L13.4045 6.07143C13.0311 5.29157 12.7115 4.44224 12.4064 3.63175C12.3103 3.37639 12.2156 3.12489 12.1212 2.88062L13.3008 2.42857C13.4046 2.69701 13.5052 2.96412 13.6048 3.22886Z" fill="white"/>
<path fill-rule="evenodd" clip-rule="evenodd" d="M12.6835 6.23882C13.2411 6.23421 13.607 6.21592 13.8962 6.07143L14.5455 6.83613C13.9344 7.14145 13.2284 7.1471 12.7279 7.1511C12.7173 7.15119 12.7068 7.15127 12.6963 7.15136C12.1117 7.1562 11.8032 7.16997 11.5844 7.28571L10.9091 6.53444C11.4539 6.24626 12.1273 6.24222 12.6006 6.23938C12.629 6.23921 12.6566 6.23904 12.6835 6.23882Z" fill="white"/>
<path fill-rule="evenodd" clip-rule="evenodd" d="M13.3249 13.1022C13.7705 13.3663 14.1845 13.4987 14.5455 13.506L14.5027 14.5714C13.6726 14.5545 12.9439 14.263 12.3675 13.9215C11.7841 13.5758 11.2878 13.1386 10.9091 12.7371L12.1517 12.1429C12.4812 12.4922 12.8863 12.8423 13.3249 13.1022Z" fill="white"/>
<path fill-rule="evenodd" clip-rule="evenodd" d="M13.065 15.1789C13.3606 14.9675 13.6077 14.7907 13.8266 14.5714L14.5455 15.6335C14.2561 15.9234 13.9401 16.1492 13.6662 16.3449C13.6522 16.3549 13.6383 16.3649 13.6245 16.3747C13.3281 16.5867 13.0778 16.7704 12.8582 17L12.1212 15.9565C12.4281 15.6357 12.7627 15.3952 13.0512 15.1888C13.0558 15.1855 13.0604 15.1822 13.065 15.1789Z" fill="white"/>
<path fill-rule="evenodd" clip-rule="evenodd" d="M6.45405 19.4286L4.84849 19.1636L5.66716 15.7857L7.27273 16.0507L6.45405 19.4286Z" fill="white"/>
<path fill-rule="evenodd" clip-rule="evenodd" d="M3.45201 17C3.60357 17.926 4.20497 18.7926 4.84849 19.5065L4.18902 20.6429C3.53339 19.9155 2.66243 18.7768 2.42424 17.3216L3.45201 17Z" fill="white"/>
<path fill-rule="evenodd" clip-rule="evenodd" d="M2.00994 24.8453C2.59845 25.1104 3.22935 25.3715 3.63636 25.495L3.14837 26.7143C2.63374 26.5581 1.92223 26.2596 1.32863 25.9921C0.744488 25.7289 0.188358 25.4568 0 25.3412L0.854118 24.2857C0.946261 24.3423 1.41196 24.5759 2.00994 24.8453Z" fill="white"/>
<path fill-rule="evenodd" clip-rule="evenodd" d="M2.07366 28.5925C2.4669 28.296 2.98856 27.9402 3.62286 27.9286L3.63636 29.1446C3.26648 29.1514 2.929 29.3576 2.55237 29.6415C2.50277 29.6789 2.45024 29.7194 2.39614 29.7612C2.26197 29.8646 2.11811 29.9756 1.98509 30.0651C1.79379 30.1939 1.56568 30.3216 1.31628 30.3571L1.21212 29.1484C1.2863 29.1378 1.39013 29.0928 1.54611 28.9878C1.65402 28.9151 1.75924 28.8339 1.88105 28.7399C1.94055 28.694 2.004 28.645 2.07366 28.5925Z" fill="white"/>
<path fill-rule="evenodd" clip-rule="evenodd" d="M10.8723 25.3525C10.4138 25.8436 9.87175 26.3448 9.15885 26.7143L8.48485 25.5668C8.99276 25.3036 9.40991 24.9312 9.82339 24.4884C9.9983 24.3011 10.1654 24.1092 10.34 23.9087C10.3732 23.8705 10.4067 23.8321 10.4406 23.7933C10.6484 23.5552 10.8682 23.307 11.1034 23.0714L12.1212 23.9677C11.9204 24.1689 11.7259 24.3877 11.5195 24.6242C11.4879 24.6604 11.4559 24.6972 11.4236 24.7343C11.2491 24.9347 11.0645 25.1467 10.8723 25.3525Z" fill="white"/>
<path fill-rule="evenodd" clip-rule="evenodd" d="M11.3016 27.9286C10.773 27.3922 10.3029 26.9831 9.69697 26.7433L10.1067 25.5C10.9484 25.833 11.5641 26.3933 12.1212 26.9586L11.3016 27.9286Z" fill="white"/>
<path fill-rule="evenodd" clip-rule="evenodd" d="M25.0242 4.51277C24.9396 5.0109 24.8434 5.57735 24.6462 6.07143L23.0303 5.70096C23.1839 5.31591 23.2616 4.86305 23.35 4.34707C23.3608 4.28411 23.3718 4.22022 23.383 4.15539C23.4795 3.60042 23.6022 2.95724 23.9102 2.42857L25.4545 2.94546C25.2596 3.28006 25.1578 3.74137 25.0568 4.3226C25.046 4.38464 25.0352 4.44813 25.0242 4.51277Z" fill="white"/>
<path fill-rule="evenodd" clip-rule="evenodd" d="M24.2424 7.28571V6.07143H27.8788V7.28571H24.2424Z" fill="white"/>
<path fill-rule="evenodd" clip-rule="evenodd" d="M27.0131 15.7851C26.6954 16.2381 26.2995 16.7474 25.7487 17L25.4545 15.5516C25.7706 15.4066 26.0249 15.1067 26.3194 14.6866C26.3688 14.6161 26.4208 14.5398 26.4752 14.46C26.7195 14.1012 27.0135 13.6694 27.3555 13.3571L27.8788 14.6513C27.6446 14.8651 27.4535 15.1443 27.2162 15.4909C27.1524 15.584 27.0853 15.6821 27.0131 15.7851Z" fill="white"/>
<path fill-rule="evenodd" clip-rule="evenodd" d="M28.0715 19.4286C27.5259 18.931 26.6193 18.622 25.4545 18.2575L25.9213 17L25.9375 17.0051C27.0115 17.3412 28.2664 17.734 29.0909 18.4859L28.0715 19.4286Z" fill="white"/>
<path fill-rule="evenodd" clip-rule="evenodd" d="M26.3795 25.5214C26.0046 25.9223 25.593 26.3624 25.154 26.7143L24.2424 25.7267C24.5983 25.4414 24.9321 25.0852 25.3094 24.6825C25.3819 24.6052 25.456 24.5261 25.5322 24.4454C25.9813 23.97 26.4986 23.4467 27.1092 23.0714L27.8788 24.1589C27.441 24.428 27.0321 24.8291 26.5814 25.3062C26.5154 25.3761 26.448 25.4481 26.3795 25.5214Z" fill="white"/>
<path fill-rule="evenodd" clip-rule="evenodd" d="M26.9679 27.862C26.0539 27.732 25.1781 27.6074 24.2424 27.5259L24.5219 26.7143C25.5489 26.8037 26.5158 26.9414 27.4268 27.0712C27.579 27.0929 27.7297 27.1143 27.8788 27.1353L27.4375 27.9286C27.2796 27.9064 27.1232 27.8841 26.9679 27.862Z" fill="white"/>
<path fill-rule="evenodd" clip-rule="evenodd" d="M34.9537 10.3767C35.029 10.8978 35.1091 11.4525 35.1515 12.0132L34.3463 12.1429C34.3085 11.6435 34.237 11.1477 34.1608 10.6192C34.1516 10.5554 34.1423 10.4911 34.133 10.4262C34.0486 9.83742 33.9638 9.20936 33.9394 8.56511L34.7483 8.5C34.7689 9.04568 34.8416 9.59539 34.926 10.1844C34.9351 10.2479 34.9444 10.3121 34.9537 10.3767Z" fill="white"/>
<path fill-rule="evenodd" clip-rule="evenodd" d="M38.5212 10.7584C37.6308 11.1935 36.7859 11.6063 36.1886 12.1429L35.1515 11.4341C35.8929 10.768 36.9196 10.2683 37.7792 9.84983C37.874 9.8037 37.9667 9.75855 38.0568 9.71429L38.7879 10.6278C38.6987 10.6717 38.6097 10.7151 38.5212 10.7584Z" fill="white"/>
<path fill-rule="evenodd" clip-rule="evenodd" d="M38.5014 19.5321C38.0889 19.903 37.6314 20.3145 37.1369 20.6429L36.3636 19.3385C36.7634 19.0729 37.1378 18.7369 37.5626 18.3556C37.6117 18.3115 37.6615 18.2668 37.7121 18.2215C38.1802 17.8026 38.711 17.3408 39.3203 17L40 18.3615C39.5455 18.6157 39.1219 18.9764 38.6514 19.3974C38.6021 19.4416 38.5521 19.4866 38.5014 19.5321Z" fill="white"/>
<path fill-rule="evenodd" clip-rule="evenodd" d="M38.0337 21.8571C37.3747 21.4462 36.7503 20.8205 36.3636 20.1713L37.5923 19.4286C37.8545 19.8688 38.3114 20.3326 38.7879 20.6298L38.0337 21.8571Z" fill="white"/>
<path fill-rule="evenodd" clip-rule="evenodd" d="M29.1544 30.6802C29.4948 30.8529 29.8973 30.9419 30.1966 30.8753L30.303 32.7518C29.8541 32.8518 29.3304 32.7187 28.9181 32.5096C28.7102 32.4042 28.5093 32.2688 28.3466 32.1084C28.2663 32.0292 28.1793 31.9284 28.1028 31.8004C28.0366 31.6895 27.9193 31.4616 27.8788 31.1041L28.8087 30.6907C28.7942 30.5624 28.767 30.4749 28.7503 30.4299C28.7335 30.3844 28.7199 30.3613 28.7178 30.3578C28.7207 30.3619 28.7365 30.3836 28.7712 30.4178C28.854 30.4994 28.986 30.5948 29.1544 30.6802Z" fill="white"/>
<path fill-rule="evenodd" clip-rule="evenodd" d="M26.6667 34.5211C27.4336 33.2619 28.8731 32.6773 30.303 32.8022L30.1682 34.1844C29.2379 34.1031 28.3844 34.4806 27.9374 35.2143L26.6667 34.5211Z" fill="white"/>
<path fill-rule="evenodd" clip-rule="evenodd" d="M4.36307 35.5649C4.84114 35.7108 5.42272 35.7714 5.92736 35.7117L6.06061 37.6122C5.39051 37.6915 4.65053 37.613 4.02729 37.4227C3.71518 37.3274 3.40951 37.1973 3.14634 37.0263C2.90192 36.8674 2.6043 36.6161 2.42424 36.2181L3.69009 35.2509C3.67885 35.226 3.67127 35.2143 3.67127 35.2143C3.67127 35.2143 3.70376 35.2548 3.80315 35.3194C3.93462 35.4049 4.12453 35.4921 4.36307 35.5649Z" fill="white"/>
<path fill-rule="evenodd" clip-rule="evenodd" d="M5.5833 37.5278C5.76057 37.1259 5.93893 36.7216 6.0795 36.4286L7.27273 37.0631C7.14204 37.3355 6.98068 37.7014 6.80963 38.0893C6.72335 38.2849 6.6346 38.4862 6.54607 38.6839C6.41768 38.9706 6.2903 39.2482 6.17861 39.4715C6.12296 39.5827 6.06704 39.6889 6.01361 39.7797C5.96983 39.8541 5.89556 39.9752 5.79908 40.0714L4.87957 39.0499C4.85915 39.0702 4.84849 39.0845 4.84849 39.0845C4.84849 39.0845 4.85778 39.0716 4.87716 39.0386C4.90738 38.9872 4.94702 38.9132 4.99581 38.8157C5.093 38.6214 5.20996 38.3672 5.33694 38.0836C5.41609 37.9069 5.49957 37.7177 5.5833 37.5278Z" fill="white"/>
<path fill-rule="evenodd" clip-rule="evenodd" d="M38.2121 27.8871C37.5679 28.3019 36.9557 28.6961 36.3891 29.1429L35.1515 28.4177C35.7776 27.924 36.4696 27.4787 37.1238 27.0577C37.3043 26.9415 37.4819 26.8272 37.6545 26.7143L38.7879 27.5143C38.5934 27.6416 38.4014 27.7652 38.2121 27.8871Z" fill="white"/>
<path fill-rule="evenodd" clip-rule="evenodd" d="M38.1299 32.7857C37.7221 32.2733 37.0799 31.937 36.3636 31.6066L36.675 30.3571C37.3619 30.674 38.2052 31.0844 38.7879 31.8166L38.1299 32.7857Z" fill="white"/>
</g>
</svg>
