<svg width="64" height="48" viewBox="0 0 64 48" fill="none" xmlns="http://www.w3.org/2000/svg">
<path d="M10.2462 28.9941C10.2462 28.9941 4.33101 35.783 3.90665 36.8324C3.59135 37.9024 4.9655 44.3752 5.18362 44.4165C5.51081 44.4783 7.95751 45.2799 7.56567 47.3521L4.14335 46.9309L3.08212 45.3746L0.81756 37.039L6.06296 22.442L10.968 25.1769L10.2462 28.9941Z" fill="white"/>
<path d="M37.0167 28.2317C37.6564 29.0304 38.0367 30.0061 38.417 30.9817C38.8927 32.0506 39.3389 33.0764 39.7556 34.0589C39.8912 34.5364 40.1359 35.0345 40.0534 35.4708C39.9709 35.907 39.7999 36.2135 39.6084 36.6292C38.6034 38.3595 35.5707 41.8527 36.9857 43.9277C37.4279 44.5762 38.5863 45.0211 38.442 45.7845C37.2276 46.2327 35.7892 46.0737 34.5423 45.499C34.3241 45.4578 34.2358 45.3281 34.1474 45.1984C33.8614 44.9184 33.9645 44.3731 34.1354 44.0665C34.9664 41.6631 35.7611 39.2529 36.5194 36.8358C36.7934 35.9839 37.0881 35.023 37.0349 34.1092C36.8462 32.718 35.8114 31.6186 35.0155 30.4514C34.2401 29.1752 33.7448 27.613 34.5376 26.4073C35.6076 26.7226 36.3976 27.3239 37.0167 28.2317Z" fill="white"/>
<path d="M7.21453 9.78198C5.70747 11.3797 4.23672 12.9843 2.80237 14.5958C2.35144 15.1883 1.81211 15.6512 1.44962 16.3734C0.936824 17.2931 0.730542 18.3837 0.76306 19.4065C0.645269 20.6269 0.725031 21.9975 1.30287 23.1234C2.3229 24.8978 4.72821 25.9174 5.01138 28.0043C5.03795 28.4612 5.00266 29.2452 5.52735 29.4574C6.03142 29.7787 6.67985 29.3365 6.78297 28.7912C6.88609 28.2458 6.55296 27.6181 6.17858 27.2084C5.38261 26.0412 4.30666 25.1599 3.36039 24.1903C2.41412 23.2206 1.61815 22.0534 1.55906 20.5737C1.56184 18.7668 3.07089 17.3577 4.34119 16.0164C5.61148 14.6752 6.94362 13.0067 6.48952 11.2264" fill="white"/>
<path d="M63.1978 2.85871C63.0003 2.7084 62.8029 2.55811 62.3872 2.36656C60.9429 1.64158 58.3371 2.27852 56.6334 1.73042C55.8021 1.34731 54.8618 0.943572 53.9068 1.21484C52.2355 1.68956 52.1503 3.93268 51.9294 5.69832C51.741 8.48677 50.2704 11.4846 47.603 12.4488C42.7248 14.3504 34.9662 9.38142 33.6099 4.60642C33.1351 2.93517 32.5661 0.568302 30.8476 0.695208C30.0636 0.659909 29.3739 1.32024 28.7933 2.00119C25.9933 4.86063 22.8075 10.3583 18.1797 9.14427C15.9306 8.49306 13.9083 6.64214 11.5149 6.75437C9.70797 6.75159 8.02208 7.90129 6.94929 9.39288C4.69464 12.3554 3.6222 18.0267 5.11695 21.4723C7.18954 26.0439 8.68428 29.4895 8.5875 34.7805C8.49033 35.8917 8.52293 36.9145 8.77358 37.9786C9.33674 39.7795 10.8961 41.0911 11.8277 42.7358C12.3849 43.9708 12.5058 45.1233 12.4765 46.4733C14.3944 46.6853 16.3104 46.7087 18.2243 46.5435C18.1034 45.391 17.1777 44.3122 15.978 44.0854C15.6508 44.0235 15.4121 44.0913 15.1056 43.9204C14.9081 43.7701 14.8196 43.6404 14.7518 43.4016C13.6905 41.8454 11.2554 37.996 11.6266 36.0329C11.7297 35.4876 12.1807 34.8951 12.5019 34.391C14.3783 32.0347 16.2548 29.6784 18.1312 27.3221C19.7846 25.1496 23.6608 27.3511 25.7802 28.0908C28.4243 29.0426 30.9682 28.7328 33.7566 28.9212C34.5407 28.9565 35.3041 29.1009 35.876 29.6609C37.0198 30.7809 37.241 33.195 37.9751 34.6893C38.8655 36.5521 39.7087 38.0671 40.0803 40.2837C40.273 42.0522 40.4727 43.7844 40.6792 45.4802C40.747 45.719 40.7941 46.0668 40.9916 46.2171C41.1891 46.3675 41.4073 46.4087 41.6461 46.3409C42.9096 46.4292 44.1436 46.4743 45.3482 46.4761C45.8051 46.4496 46.262 46.423 46.4329 46.1164C46.6244 45.7008 46.2501 45.2911 45.9435 45.1201C45.5279 44.9286 45.0916 44.8461 44.6553 44.7636C43.8034 44.4896 43.2522 43.8205 42.9603 42.9746C42.6478 42.2377 42.5946 41.3239 42.5209 40.5192C41.8423 33.952 40.7216 26.7364 42.634 20.2073C42.8797 20.1031 43.1616 20.0058 43.4799 19.9154C45.1305 19.5498 46.8284 19.5319 48.4997 19.0572C52.9475 17.639 53.9698 13.4268 56.3216 9.35295C57.1351 8.03824 59.5964 8.16473 60.8933 7.28033C61.5211 6.94719 62.9888 5.75622 62.9975 4.51527C62.9856 3.38339 63.4837 3.1387 63.1978 2.85871Z" fill="white"/>
</svg>
