<svg width="48" height="89" viewBox="0 0 48 89" fill="none" xmlns="http://www.w3.org/2000/svg">
<path opacity="0.3" fill-rule="evenodd" clip-rule="evenodd" d="M44.0847 35.9101C44.0847 36.0219 44.0847 36.1338 44.0847 36.2457C44.0763 36.2974 44.0722 36.349 44.0722 36.4006C44.0722 36.5469 44.068 36.689 44.0596 36.8267C44.0596 36.8654 44.0596 36.8912 44.0596 36.9299C44.0513 37.0246 44.0429 37.115 44.0345 37.201C44.0345 37.2398 44.0345 37.2785 44.022 37.3301C44.022 37.3904 44.0178 37.4463 44.0094 37.498C44.0094 37.541 44.0052 37.5754 43.9969 37.6012C43.9969 37.6529 43.9927 37.7002 43.9843 37.7433C43.9843 37.7691 43.9843 37.7906 43.9843 37.8078C43.9759 37.8508 43.9718 37.881 43.9718 37.8982C43.9634 37.9154 43.9592 37.9283 43.9592 37.9369C43.9592 37.9627 43.9592 37.9756 43.9592 37.9756C43.6329 35.6002 41.0479 33.5734 41.0479 33.5734L41.4745 32.631C41.4745 32.631 41.1106 32.7472 40.2071 33.3023C40.1987 33.2679 40.1862 33.2248 40.1694 33.1732C40.1611 33.1474 40.1527 33.1172 40.1443 33.0828C40.136 33.057 40.1276 33.0312 40.1192 33.0054C40.1109 32.9709 40.0983 32.9322 40.0816 32.8892C40.0732 32.8633 40.0607 32.8375 40.0439 32.8117C40.0272 32.7687 40.0105 32.7213 39.9937 32.6697C39.5922 31.7273 38.789 30.3201 38.789 30.3201L38.9898 29.7392C38.9898 29.7392 38.8267 29.8166 38.3498 30.1006C38.3164 30.0146 38.2703 29.9242 38.2118 29.8295C38.195 29.7951 38.1783 29.765 38.1616 29.7392C38.1197 29.6703 38.0779 29.5972 38.0361 29.5197C37.2204 28.19 35.6141 26.2922 35.6141 26.2922L35.9278 25.324L35.2251 26.1115L34.3969 25.2595L34.4596 24.0847C34.4596 24.0847 34.4596 24.0847 33.9577 25.0013C33.8573 24.9754 33.7318 24.9238 33.6063 24.8593L34.0831 25.7759L33.7192 25.9437C33.7694 26.0642 33.8238 26.1933 33.8824 26.331C33.8907 26.331 33.8949 26.3353 33.8949 26.3439C34.7106 28.3062 35.9906 32.1791 35.9906 32.1791L35.6769 32.4115V32.4244L35.589 32.489C35.5974 32.5148 35.6058 32.5406 35.6141 32.5664C35.6141 32.575 35.6141 32.5836 35.6141 32.5922C35.6392 32.6783 35.6601 32.7601 35.6769 32.8375C35.6769 32.8461 35.6769 32.8504 35.6769 32.8504C35.7271 33.0398 35.7731 33.2291 35.8149 33.4185C35.8149 33.4271 35.8149 33.4357 35.8149 33.4443C36.1412 34.8902 36.4047 36.3877 36.6055 37.64C37.7224 37.9756 38.8016 38.5953 39.4667 39.0213C39.4667 39.0127 39.4667 39.0084 39.4667 39.0084C39.475 39.017 39.4792 39.0213 39.4792 39.0213C39.68 39.1504 39.8306 39.2537 39.9435 39.3312C39.9435 39.3312 39.9477 39.3355 39.9561 39.3441C40.0063 39.3785 40.0439 39.4043 40.069 39.4215C40.069 39.4215 40.0732 39.4258 40.0816 39.4344C40.1067 39.4474 40.1192 39.4603 40.1192 39.4603L39.9561 39.8476C39.9561 39.8476 39.9561 39.8476 40.5961 39.7185C42.4784 41.6807 43.0306 43.7205 43.1561 45.0631C43.1812 45.1535 43.1937 45.218 43.1937 45.218C43.1937 45.218 43.1812 45.1664 43.1561 45.076C43.2439 46.0184 43.1435 46.6252 43.1435 46.6252C43.0808 46.1992 42.2149 44.7275 42.2149 44.7275C42.2149 44.7275 42.3153 45.0244 42.378 45.799C42.2944 45.6957 42.2065 45.5967 42.1145 45.5021C42.0894 45.4762 42.0518 45.4375 42.0141 45.4117C41.9556 45.3514 41.8928 45.2912 41.8259 45.2309C41.7841 45.1965 41.738 45.1621 41.6879 45.1277C41.6293 45.076 41.5665 45.0244 41.4996 44.9727C41.4494 44.9383 41.395 44.9039 41.3365 44.8695C41.2779 44.8264 41.2193 44.7834 41.1608 44.7404C41.0939 44.7059 41.0311 44.6715 40.9725 44.6371C40.914 44.6027 40.8554 44.5682 40.7969 44.5338C40.7299 44.4994 40.663 44.465 40.5961 44.4305C40.5459 44.4047 40.4957 44.3789 40.4455 44.3531C40.3618 44.31 40.2824 44.2713 40.2071 44.2369C40.1652 44.2197 40.1234 44.2025 40.0816 44.1852C39.9979 44.1422 39.9101 44.1035 39.818 44.0691C38.7263 43.6172 37.7725 43.4107 37.7725 43.4107V42.7652C37.7725 42.7652 37.7726 42.8943 37.4212 43.4752C37.371 43.4666 37.3208 43.4537 37.2706 43.4365C37.4714 44.9082 37.5467 46.3412 37.5718 47.2836L38.3247 47.6063L38.2369 48.7941C38.2369 48.7941 38.4502 48.5746 38.6133 48.0066C39.2031 48.4455 41.0353 50.1883 41.0353 50.1883V50.9242C41.0353 50.9242 41.0353 50.9242 41.3741 50.4852C41.8133 50.7693 42.5914 51.815 42.8926 52.2281C42.9177 52.2625 42.9386 52.2926 42.9553 52.3184C42.9637 52.327 42.9678 52.3313 42.9678 52.3313C43.0055 52.383 43.018 52.4088 43.018 52.4088L42.9428 53.0672C42.9428 53.0672 42.9427 53.0672 43.4071 52.9768C44.3357 57.0692 43.2314 59.7803 43.2314 59.7803C42.6039 57.8567 41.5373 58.1278 41.5373 58.1278L41.4118 57.6373C41.4118 57.6373 41.4118 57.6373 41.0729 58.1278C40.9307 57.9213 40.7927 57.7276 40.6588 57.5469C40.6086 57.4781 40.5584 57.4135 40.5082 57.3533C40.4162 57.2414 40.3242 57.1295 40.2322 57.0176C40.1736 56.9488 40.115 56.8799 40.0565 56.8111C39.9728 56.7164 39.8892 56.6217 39.8055 56.527C39.7469 56.4668 39.6884 56.4065 39.6298 56.3463C39.5462 56.2602 39.4667 56.1785 39.3914 56.101C39.3328 56.0408 39.2742 55.9805 39.2157 55.9203C39.132 55.8428 39.0526 55.7697 38.9773 55.7008C38.9187 55.6492 38.8643 55.5975 38.8141 55.5459C38.7305 55.477 38.651 55.4125 38.5757 55.3522C38.5255 55.3092 38.4753 55.2662 38.4251 55.2231C38.1741 55.0252 37.9399 54.8488 37.7224 54.6938C37.7349 54.9908 37.7349 55.1586 37.7349 55.1586L37.1702 55.391L37.0949 55.4168C37.0949 55.434 37.0949 55.4469 37.0949 55.4555C37.1033 55.4813 37.1116 55.5072 37.12 55.533C37.1284 55.5674 37.1367 55.6061 37.1451 55.6492C37.1451 55.675 37.1493 55.7008 37.1577 55.7266C37.166 55.7783 37.1744 55.8256 37.1828 55.8686C37.1911 55.8944 37.1953 55.9203 37.1953 55.9461C37.2037 55.9805 37.212 56.0149 37.2204 56.0494C37.212 56.0494 37.2078 56.0494 37.2078 56.0494C37.2329 56.1957 37.2581 56.3506 37.2831 56.5141C37.2831 56.5313 37.2831 56.5442 37.2831 56.5529C37.3082 56.7336 37.3333 56.9229 37.3584 57.1209C37.3584 57.1295 37.3584 57.1338 37.3584 57.1338C37.3752 57.3231 37.3919 57.5125 37.4086 57.7018C37.417 57.7363 37.4212 57.7707 37.4212 57.8051C37.4379 57.9772 37.4547 58.1451 37.4714 58.3086C37.4714 58.3602 37.4714 58.4076 37.4714 58.4506C37.4881 58.6055 37.5007 58.7604 37.509 58.9153C37.5174 58.9756 37.5216 59.0358 37.5216 59.0961C37.5299 59.251 37.5425 59.4016 37.5592 59.5479C37.5592 59.5737 37.5592 59.5996 37.5592 59.6254C37.6345 60.8647 37.6596 61.8459 37.6596 61.8459L37.0824 61.9104L36.7561 61.9492C36.7644 61.9664 36.7686 61.9836 36.7686 62.0008C36.7854 62.1127 36.8063 62.2246 36.8314 62.3364C36.8314 62.3537 36.8356 62.3752 36.8439 62.401V62.4139C37.2204 64.7377 37.0196 67.126 37.0196 67.126L36.2667 66.9711C36.2834 67.0227 36.3001 67.0786 36.3169 67.1389C36.342 67.2551 36.3796 67.3584 36.4047 67.4746C37.1075 70.3147 36.5804 73.8391 36.5804 73.8391H36.48C36.48 73.8391 36.48 73.8434 36.48 73.852C36.48 73.8692 36.4758 73.8864 36.4675 73.9036C36.4047 75.8143 36.1537 78.4866 36.0157 79.8163C36.0408 80.152 36.0533 80.5393 36.0533 80.9782C36.6431 80.5264 37.1075 80.3456 37.1075 80.3456C37.1075 80.3456 36.5553 81.146 36.0282 82.1659C36.0199 82.3467 36.0115 82.5274 36.0031 82.7081C36.8063 82.0755 37.6345 82.1272 37.6345 82.1272C37.6345 82.1272 36.7435 82.876 35.9529 83.6635C35.9529 83.8184 35.9446 83.9733 35.9278 84.1282C37.3835 83.6247 38.6384 83.8958 38.6384 83.8958C37.1953 84.0249 36.0533 85.3288 36.0533 85.3288C36.0533 85.3288 36.982 85.0319 38.5506 85.161C37.5592 85.1997 36.3169 86.0389 35.7647 86.4649C35.7647 86.5165 35.7605 86.5725 35.7522 86.6327C36.1537 86.5682 36.9192 86.4907 37.7224 86.7489C37.1451 86.6973 36.3545 87.0071 35.7396 87.3169C38.7765 87.588 41.2612 88.6079 37.8479 88.4272C33.9702 88.2335 33.1671 88.2077 34.7482 88.7499C36.3294 89.2921 29.8541 88.8403 25.1482 88.453C20.4549 88.0528 14.5318 88.6208 17.7443 87.9882C19.3757 87.6655 20.6557 87.5364 21.5216 87.4977C21.2831 86.7876 20.5678 85.161 18.8988 85.161C19.0243 85.1223 19.1373 85.0835 19.2502 85.0706C19.2753 85.0577 19.3004 85.0577 19.3255 85.0577C19.3924 85.0491 19.4552 85.0448 19.5137 85.0448C19.5137 85.0448 19.5179 85.0448 19.5263 85.0448C19.7647 85.0319 20.0031 85.0835 20.2165 85.161C20.2332 85.1696 20.2541 85.1782 20.2792 85.1868C20.3294 85.204 20.3838 85.2298 20.4424 85.2643C20.4675 85.2729 20.4926 85.2815 20.5177 85.2901C20.5678 85.3245 20.618 85.3546 20.6682 85.3805C20.6933 85.3977 20.7184 85.4149 20.7435 85.4321C20.7854 85.4665 20.8314 85.501 20.8816 85.5354C20.9067 85.5526 20.9318 85.5698 20.9569 85.587C20.9987 85.6214 21.0405 85.6559 21.0824 85.6903C21.1075 85.7161 21.1284 85.7376 21.1451 85.7548C21.1869 85.7893 21.2288 85.828 21.2706 85.871C21.2873 85.8882 21.3082 85.9098 21.3333 85.9356C21.3668 85.97 21.4003 86.0087 21.4337 86.0518C21.4588 86.069 21.4797 86.0905 21.4965 86.1163C21.5299 86.1594 21.5634 86.1981 21.5969 86.2325C21.6136 86.2583 21.6303 86.2798 21.6471 86.2971C21.6722 86.3401 21.7014 86.3788 21.7349 86.4133C21.7516 86.4391 21.7642 86.4649 21.7725 86.4907C21.7976 86.5251 21.8228 86.5596 21.8479 86.594C21.8646 86.6198 21.8771 86.6413 21.8855 86.6585C21.9106 86.693 21.9315 86.7274 21.9482 86.7618C21.965 86.7876 21.9775 86.8091 21.9859 86.8264C22.0026 86.8522 22.0152 86.878 22.0235 86.9038C22.0486 86.9555 22.0695 86.9985 22.0863 87.0329C21.8227 85.5483 20.8941 84.7221 20.8941 84.7221C20.8941 84.7221 22.1239 84.9415 22.5882 86.2067C22.6761 85.0319 20.6808 83.3665 20.6808 83.3665C20.6808 83.3665 22.4251 83.6764 22.8392 85.0319C22.8392 85.0319 22.4251 82.7598 21.6596 82.3725C22.8016 82.5919 23.0526 84.2057 23.0526 84.2057C23.0526 84.2057 23.2659 82.8501 22.6384 81.5462C23.6925 83.0696 23.6926 84.154 23.6926 84.154C23.6926 84.154 23.7009 84.1368 23.7176 84.1024L24.1443 82.2434H23.818L24.3702 75.0397C24.2614 75.0139 24.136 74.9838 23.9937 74.9493C24.3577 73.3614 24.5082 70.0307 24.5584 68.0297C24.5584 67.6682 24.571 67.3584 24.571 67.1002C24.4706 67.0873 24.3702 67.0743 24.2447 67.0614C24.3326 64.983 23.9937 62.0783 23.7553 60.4129C23.7469 60.3354 23.7386 60.258 23.7302 60.1805C23.7218 60.1289 23.7135 60.0772 23.7051 60.0256C23.6967 59.9826 23.6926 59.9438 23.6926 59.9094C23.68 59.8707 23.68 59.8449 23.6675 59.819C23.542 59.8578 23.4039 59.8965 23.2282 59.9481C23.2282 58.2828 22.4753 55.7266 21.9984 54.2936C21.9901 54.2764 21.9859 54.2592 21.9859 54.242C21.9441 54.1215 21.9064 54.0096 21.8729 53.9063C21.7851 53.9451 21.7098 53.9838 21.622 54.0225C21.3459 53.0156 20.6682 51.1565 20.3169 50.1883L19.1498 51.8537L18.0455 51.2082L18.5977 52.2281L17.7067 54.5518L17.1169 54.3582L17.5184 55.0424L16.6024 58.6313H15.6361L16.2635 59.1994L15.8871 59.5479L16.1129 59.961L15.9624 63.5112L14.6698 63.5758L15.4478 64.0793L14.8957 64.4924L15.5984 64.8022L15.9624 68.4557L15.3726 68.3395L15.6361 68.6493L15.222 69.1399L15.6361 69.2561C15.6361 69.2561 15.8871 71.2055 16.0753 71.8897C16.0753 71.8897 13.0384 68.6623 12.3984 67.0614C12.7122 66.4676 12.7122 66.4676 12.7122 66.4676L12.1098 66.4418C12.1098 66.4418 10.9302 64.5053 10.742 63.1369C11.1561 62.4785 11.1561 62.4785 11.1561 62.4785L10.5788 62.7496L10.3655 61.7039L10.742 61.11L10.2024 61.3424C10.2024 61.3424 10.1773 61.2778 10.1522 61.1617C9.98902 60.6065 9.51216 58.8379 9.53726 57.7406C10.1396 56.3979 10.1396 56.3979 10.1396 56.3979L9.49961 56.6949C9.49961 56.6949 9.49961 56.6776 9.49961 56.6432C9.49961 56.1785 9.53726 52.4475 9.95137 51.0016C10.1898 50.8209 10.3655 50.6918 10.5035 50.5885L8.60863 51.4018L8.43294 51.2727L8.18196 51.7117L7.84314 51.1436L7.96863 52.099C7.16549 52.4088 5.13255 54.0613 5.13255 54.0613L4.58039 53.7127L5.04471 54.5518C5.04471 54.5518 4.91921 54.6164 4.71843 54.7713C4.71006 54.7799 4.7017 54.7842 4.69333 54.7842C4.6515 54.8186 4.60549 54.8574 4.55529 54.9004C4.53856 54.9176 4.52183 54.9305 4.50509 54.9391C4.4549 54.9822 4.40471 55.0295 4.35451 55.0811C4.33778 55.0897 4.32522 55.1027 4.31686 55.1199C4.17464 55.249 4.01568 55.4039 3.84 55.5846C3.82327 55.6018 3.80654 55.619 3.78981 55.6363C3.71451 55.7223 3.63921 55.8084 3.56392 55.8945C3.54719 55.9203 3.52627 55.9418 3.50117 55.959C3.31712 56.1828 3.11634 56.4367 2.89882 56.7207C2.87372 56.7465 2.85281 56.7766 2.83608 56.8111C2.74405 56.9315 2.65621 57.0563 2.57255 57.1854C2.54745 57.2199 2.52235 57.2543 2.49725 57.2887C2.27137 57.6158 2.0413 57.9815 1.80705 58.386C1.77359 58.4377 1.74013 58.4893 1.70666 58.541C1.623 58.6959 1.53516 58.8551 1.44314 59.0186C1.40967 59.0875 1.37621 59.152 1.34275 59.2123C1.21726 59.436 1.09595 59.6684 0.978822 59.9094C0.970456 59.8836 0.966276 59.8578 0.966276 59.8319C0.966276 59.8836 0.978822 59.9094 0.978822 59.9094C0.978822 59.9094 0.966272 59.8319 0.953723 59.6641C0.953723 59.6641 0.953723 59.6512 0.953723 59.6383C0.945357 59.4834 0.941177 59.3285 0.941177 59.1735C0.932811 59.0875 0.928623 59.0057 0.928623 58.9283C0.920257 58.7733 0.916077 58.6184 0.916077 58.4635C0.916077 58.3774 0.916077 58.2914 0.916077 58.2053C0.916077 58.0504 0.916077 57.9041 0.916077 57.7664C0.916077 57.6889 0.920257 57.6158 0.928623 57.5469C0.928623 57.349 0.932811 57.1596 0.941177 56.9789C0.941177 56.9617 0.945357 56.9445 0.953723 56.9272C0.962089 56.7293 0.974636 56.5356 0.991368 56.3463C0.991368 56.286 0.995556 56.2258 1.00392 56.1656C1.02065 56.0365 1.0332 55.9117 1.04157 55.7912C1.04993 55.7309 1.0583 55.6664 1.06667 55.5975C1.0834 55.477 1.10013 55.3608 1.11686 55.249C1.12522 55.1973 1.13359 55.1457 1.14196 55.094C1.16706 54.9391 1.19216 54.7885 1.21726 54.6422C1.22562 54.6336 1.2298 54.6293 1.2298 54.6293C1.2549 54.4744 1.28418 54.3238 1.31765 54.1774C1.32601 54.143 1.33438 54.1086 1.34275 54.0742C1.37621 53.9709 1.40549 53.8676 1.43058 53.7643C1.43895 53.7299 1.44732 53.6912 1.45568 53.6481C1.48915 53.5535 1.51843 53.4588 1.54353 53.3641C1.55189 53.3297 1.56026 53.2996 1.56863 53.2738C1.65229 53.0328 1.73176 52.809 1.80705 52.6025C1.81542 52.5938 1.81961 52.5852 1.81961 52.5766C1.86144 52.482 1.89908 52.3916 1.93254 52.3055C1.94091 52.2969 1.94928 52.284 1.95764 52.2668C1.99947 52.1807 2.03712 52.099 2.07059 52.0215C2.07059 52.0215 2.07477 52.0172 2.08313 52.0086C2.54745 51.1049 2.96157 50.7563 2.96157 50.7563L2.83608 50.4465L4.44235 49.3104L4.27921 48.9232L4.99451 48.8328C4.99451 48.8328 4.99451 48.8328 4.91922 48.3164C9.6251 44.3014 14.7451 45.218 14.7451 45.218L14.72 45.2568C14.7953 45.2396 14.8706 45.2223 14.9459 45.2051C14.9124 45.1879 14.8748 45.175 14.8329 45.1664C14.8413 45.1664 14.8455 45.1664 14.8455 45.1664C14.1804 44.9211 12.8251 44.4564 12.2855 44.3918C12.4988 42.8555 12.4988 42.8555 12.4988 42.8555L11.658 44.082L10.2149 43.8238L10.3027 42.7781L9.82588 43.6818L7.71765 43.5139L7.54196 42.4166L7.32862 43.3848L6.31216 43.643L5.84784 42.3779L5.63451 44.2111L3.47608 44.6887L3.38824 43.7334L3.01177 44.9469L2.28392 45.0373L2.03294 44.082L1.85725 45.218C1.85725 45.218 0.464314 45.6957 0 46.3541C0.163137 43.6818 2.33411 40.8545 3.94039 39.6281C4.02823 40.4156 4.02823 40.4156 4.02823 40.4156L4.65568 39.3312L6.90196 38.7115L6.82666 39.4603L7.37882 38.5049C7.37882 38.5049 8.3953 38.1435 9.41177 38.1435C9.23608 38.6728 9.11059 38.8406 9.11059 38.8406L10.3027 38.066C10.3027 38.066 11.3443 38.1564 12.6369 38.4533C12.662 38.4619 12.6871 38.4662 12.7122 38.4662C12.8125 38.492 12.9171 38.5178 13.0259 38.5437C13.0844 38.5609 13.143 38.5738 13.2016 38.5824C13.2936 38.6082 13.3856 38.634 13.4776 38.6599C13.5529 38.6857 13.6282 38.7072 13.7035 38.7244C13.7872 38.7502 13.8709 38.776 13.9545 38.8019C14.0298 38.8277 14.1093 38.8578 14.1929 38.8922C14.2682 38.9094 14.3435 38.931 14.4188 38.9568C14.5108 38.9912 14.5987 39.0256 14.6824 39.0601C14.7493 39.0859 14.8162 39.1117 14.8831 39.1375C14.9752 39.1805 15.0714 39.2236 15.1718 39.2666C15.222 39.2924 15.2722 39.3183 15.3224 39.3441V39.3312C15.3307 39.3398 15.3391 39.3441 15.3475 39.3441C15.4102 39.3828 15.4729 39.4215 15.5482 39.4473C15.6235 39.4861 15.6863 39.5248 15.7616 39.5635C15.8954 39.641 16.0251 39.7228 16.1506 39.8088C15.9373 40.2865 15.9373 40.2865 15.9373 40.2865L16.778 40.0283L16.6526 40.5447C16.6526 40.5447 17.2549 40.8674 17.9827 41.4355C17.9827 41.4096 17.9786 41.3795 17.9702 41.3451C17.8824 40.3769 17.6188 38.35 16.8659 37.1881C16.8742 37.1795 16.8826 37.1709 16.891 37.1623C17.3302 36.7621 17.3302 36.7492 17.3302 36.7492L16.7027 36.5814L16.2384 34.9289L16.8282 34.3609L16.0251 34.3092L15.3475 31.7789L15.8118 31.2625H15.1718L14.8329 28.9C14.8329 28.9 18.3467 29.8683 20.091 32.7859C19.8776 33.4443 19.8776 33.4443 19.8776 33.4443L20.4298 33.3539L20.9443 34.6578L20.8565 35.058L21.2831 35.1871L22.0361 37.1494L21.4463 37.4463H22.1616C22.1616 37.4463 22.262 37.8207 22.3498 38.4275C22.3498 38.4361 22.3498 38.4447 22.3498 38.4533C22.3749 38.6685 22.4 38.9137 22.4251 39.1892C22.4335 39.2064 22.4376 39.2193 22.4376 39.2279C22.446 39.3656 22.4544 39.5076 22.4627 39.6539C22.4627 39.6625 22.4627 39.6711 22.4627 39.6797C22.4711 39.826 22.4795 39.9767 22.4878 40.1316C22.4878 40.1402 22.4878 40.1488 22.4878 40.1574C22.4878 40.3123 22.4878 40.4758 22.4878 40.648C22.4878 40.6652 22.4878 40.6824 22.4878 40.6996C22.4878 40.9406 22.4795 41.1902 22.4627 41.4484C23.0525 40.4156 23.5545 39.9508 23.5545 39.9508L23.8055 40.6351C23.8055 40.6351 23.9059 40.3252 24.0439 39.6539C22.9773 36.8396 22.7639 33.7541 22.7639 33.7541L22.3498 33.5992L22.8141 32.7342C22.8141 32.7342 22.8141 32.7342 22.4502 32.6826C22.4418 32.6654 22.4376 32.6439 22.4376 32.6181C22.4126 32.4201 22.3875 32.2308 22.3624 32.05C22.3624 32.007 22.3582 31.9597 22.3498 31.908C22.3414 31.7617 22.3331 31.624 22.3247 31.4949C22.3247 31.4433 22.3247 31.3959 22.3247 31.3529C22.3247 31.2066 22.3247 31.0646 22.3247 30.9269C22.3247 30.9183 22.3247 30.9097 22.3247 30.9011C22.3331 30.7547 22.3456 30.6213 22.3624 30.5008C22.3707 30.475 22.3749 30.4535 22.3749 30.4363C22.3916 30.3416 22.4084 30.2513 22.4251 30.1652C22.4335 30.1394 22.4376 30.1136 22.4376 30.0877C22.4627 30.0103 22.4878 29.9371 22.5129 29.8683C22.5129 29.8511 22.5171 29.8381 22.5255 29.8295C22.5757 29.6617 22.6384 29.5455 22.7012 29.4422C22.7012 29.4422 22.7054 29.4422 22.7137 29.4422C22.8518 29.2228 22.9647 29.1582 22.9647 29.1582L22.651 29.1066L23.2784 28.6806C23.2784 28.6806 23.2784 28.6806 22.6008 28.5127C22.8643 26.9636 24.1067 24.5107 24.1067 24.5107L23.9561 24.1363L24.7341 23.6586C24.7341 23.6586 24.7341 23.6586 24.2698 23.607C25.1231 22.032 26.1396 21.2058 27.1059 20.7927C27.1142 20.7841 27.1268 20.7798 27.1435 20.7798C27.2272 20.7367 27.315 20.7023 27.4071 20.6765C27.4322 20.6679 27.4614 20.6593 27.4949 20.6507C27.5702 20.6248 27.6455 20.599 27.7208 20.5732C27.1435 20.5732 26.7169 20.5861 26.7169 20.5861L26.5412 20.0955C26.5412 20.0955 26.5412 20.0955 26.2526 20.7668C26.1271 20.7582 26.0058 20.7539 25.8886 20.7539C25.8552 20.7539 25.8217 20.7539 25.7882 20.7539C25.6711 20.7539 25.5582 20.7582 25.4494 20.7668C24.2196 20.8572 23.2408 21.3091 23.2408 21.3091L22.9522 20.883C22.9522 20.883 22.9522 20.883 22.8392 21.7351C21.6596 22.0449 19.4133 23.7361 19.4133 23.7361L18.9992 23.3746C18.9992 23.3746 18.9992 23.3746 18.9992 23.9814C18.4722 24.2267 17.8196 24.8851 17.8196 24.8851L17.1169 24.0459L17.4682 25.3111L17.3678 25.4015L14.7075 27.9189L14.1177 27.7381L14.469 28.4611L12.8753 30.7074L12.3482 30.3459L12.7624 31.2496C12.7624 31.2496 11.1059 32.6052 10.0894 35.3162C7.54196 30.6945 9.82588 26.6795 9.82588 26.6795C9.82588 26.6795 9.85098 26.6795 9.86353 26.6795C9.87189 26.6795 9.87608 26.6795 9.87608 26.6795C9.89281 26.6709 9.91373 26.6623 9.93883 26.6537C9.94719 26.6537 9.95555 26.6494 9.96392 26.6408C9.99738 26.6322 10.0267 26.615 10.0518 26.5892C10.0518 26.5892 10.056 26.5849 10.0643 26.5763C10.0978 26.5504 10.1229 26.5117 10.1396 26.4601C10.1773 26.331 10.1522 26.1244 10.0016 25.8017C10.0769 25.6382 10.1522 25.4746 10.2275 25.3111C10.2944 25.182 10.3613 25.0572 10.4282 24.9367C10.445 24.9109 10.4617 24.8808 10.4784 24.8464C10.5454 24.7259 10.6165 24.6054 10.6918 24.4849C10.7001 24.4591 10.7127 24.4332 10.7294 24.4074C10.8047 24.2955 10.88 24.188 10.9553 24.0847C10.9637 24.0589 10.9762 24.033 10.9929 24.0072C11.0682 23.9039 11.1435 23.8007 11.2188 23.6974C11.2356 23.6802 11.2523 23.6586 11.269 23.6328C11.3443 23.5382 11.4196 23.4435 11.4949 23.3488C11.5116 23.3316 11.5242 23.3144 11.5325 23.2972C11.6078 23.2025 11.6831 23.1164 11.7584 23.039C11.7752 23.0218 11.7877 23.0046 11.7961 22.9873C11.8797 22.9013 11.9592 22.8195 12.0345 22.7421C12.0345 22.7334 12.0387 22.7248 12.0471 22.7162C12.7498 21.9933 13.3145 21.6189 13.3145 21.6189L13.9043 21.9675C13.9043 21.9675 13.9043 21.9675 13.7286 21.1025C14.6698 20.4828 17.3804 18.9207 17.3804 18.9207L18.3969 19.6179C18.3969 19.6179 18.3969 19.6179 17.8824 18.74C20.8565 16.9972 22.3749 16.9068 22.3749 16.9068L22.8894 17.4361C22.8894 17.4361 22.8894 17.4361 22.8894 16.739C24.4455 16.7648 25.7129 16.9714 26.7545 17.2554C26.7545 17.2554 26.7503 17.2554 26.742 17.2554C26.7671 17.264 26.788 17.2683 26.8047 17.2683C27.0139 17.3285 27.2188 17.3931 27.4196 17.4619C27.4531 17.4792 27.4865 17.4921 27.52 17.5007C27.7041 17.5695 27.8756 17.6384 28.0345 17.7072C28.0596 17.7158 28.0805 17.7244 28.0973 17.733C28.2813 17.8105 28.4528 17.8923 28.6118 17.9783C28.6369 17.9955 28.662 18.0085 28.6871 18.0171C29.0133 18.1892 29.2978 18.3656 29.5404 18.5464C29.5655 18.5636 29.5864 18.5808 29.6031 18.598C29.7286 18.6841 29.8458 18.7744 29.9545 18.8691C29.9545 18.8691 29.9587 18.8734 29.9671 18.882C30.0256 18.9337 30.0842 18.9853 30.1428 19.0369C29.4651 17.9525 28.4737 16.5066 27.7584 16.0806C28.0596 15.6417 28.0596 15.6417 28.0596 15.6417L27.382 15.732C27.382 15.732 27.3694 15.7191 27.3694 15.7062C27.3611 15.689 27.3485 15.6675 27.3318 15.6417C27.3318 15.633 27.3276 15.6244 27.3192 15.6158C27.2565 15.5126 27.1812 15.3705 27.0682 15.1769C27.0599 15.1683 27.0557 15.1554 27.0557 15.1382C26.6039 14.3894 25.8133 13.1372 25.1733 12.724C25.851 12.0656 25.851 12.0656 25.851 12.0656L25.0479 12.3755C25.0479 12.3755 25.0437 12.3712 25.0353 12.3626C25.0353 12.354 25.0353 12.3497 25.0353 12.3497C25.0269 12.341 25.0186 12.3281 25.0102 12.3109C25.0018 12.3023 24.9935 12.2937 24.9851 12.2851C24.9767 12.2765 24.9642 12.2636 24.9475 12.2464C24.9391 12.2378 24.9307 12.2249 24.9224 12.2076C24.9056 12.1904 24.8889 12.1775 24.8722 12.1689C24.8554 12.1517 24.8387 12.1345 24.822 12.1173C24.7969 12.1087 24.7718 12.0958 24.7467 12.0785C24.7216 12.0613 24.7007 12.0441 24.6839 12.0269C24.6505 12.0097 24.617 11.9925 24.5835 11.9753C24.5584 11.9667 24.5333 11.9581 24.5082 11.9494C24.4664 11.9322 24.4204 11.915 24.3702 11.8978C24.3451 11.8892 24.32 11.8806 24.2949 11.872C24.2113 11.8462 24.1234 11.8247 24.0314 11.8074C24.8847 11.0199 24.8345 10.7617 24.8345 10.7617L23.2282 11.4976C23.2282 11.4976 21.3208 9.58695 20.7686 9.23839C21.3208 8.70908 21.4839 8.48962 21.4839 8.48962L20.0533 9.10929L17.669 7.66339L18.058 7.147L17.0416 7.53429C17.0416 7.53429 14.8329 6.52733 12.8376 7.00499C12.9882 6.77261 13.1765 6.54024 13.3898 6.29495C14.7702 4.77159 17.5435 3.29987 21.6596 3.82918C21.4463 4.48758 21.4086 4.70704 21.4086 4.70704L22.1239 3.997C22.1239 3.997 23.5294 4.21647 25.5122 5.75274C25.098 6.44987 25.098 6.44987 25.098 6.44987L25.7255 6.26913C25.7255 6.26913 26.3153 6.70806 26.8298 7.62466C26.5286 8.01195 26.5286 8.01195 26.5286 8.01195L27.5953 7.92159C27.5953 7.92159 28.7749 9.67732 29.6157 11.291C29.6241 11.205 29.6282 11.1232 29.6282 11.0458C29.6282 10.9941 29.6282 10.9468 29.6282 10.9038C29.6366 10.723 29.6492 10.5509 29.6659 10.3874C29.6659 10.3615 29.6701 10.3357 29.6784 10.3099C29.6868 10.1722 29.6993 10.0431 29.7161 9.92261C29.7244 9.87097 29.7328 9.82363 29.7412 9.7806C29.7495 9.66871 29.7621 9.56544 29.7788 9.47076C29.7872 9.42773 29.7956 9.389 29.8039 9.35458C29.829 9.23408 29.8541 9.1179 29.8792 9.00601C29.8876 8.96298 29.896 8.91995 29.9043 8.87691C29.921 8.80806 29.9378 8.73921 29.9545 8.67035C29.9712 8.62732 29.9838 8.58429 29.9922 8.54126C30.0089 8.48101 30.0256 8.42507 30.0424 8.37343C30.0549 8.34761 30.0675 8.30888 30.0675 8.28306C30.3184 7.57302 30.5569 7.2761 30.5569 7.2761L31.0714 7.88286C31.0714 7.88286 31.109 7.66339 30.858 6.96626C31.749 4.87487 33.0165 3.79045 33.0165 3.79045L33.3176 4.48758C33.3176 4.48758 33.3177 4.47467 33.3302 4.44885C33.3302 4.43594 33.3302 4.43594 33.3302 4.43594C33.3553 4.34557 33.418 4.11319 33.5435 3.75172C33.5937 3.63553 33.6439 3.49352 33.6941 3.35151C34.5474 2.25418 37.2329 0.963197 37.2329 0.963197L37.5467 1.19557C37.5467 1.19557 37.5467 1.19557 37.509 0.666271C41.2988 -0.121227 43.1686 0.00787063 43.1686 0.00787063C41.8635 0.291887 40.5208 3.23532 40.5208 3.23532L40.0188 2.75766C40.0188 2.75766 40.0188 2.75766 40.3326 3.45479C39.5545 3.91954 38.0361 6.1013 38.0361 6.1013L37.4337 5.75274C37.4337 5.75274 37.4337 5.75274 37.898 6.2304C36.9569 7.15991 36.1412 8.60581 35.7773 9.26421C35.6643 9.49658 35.589 9.63859 35.589 9.63859L34.5851 9.49658L35.2878 9.81933L34.2086 13.4212L33.5059 13.6794L34.2086 13.7568L34.0706 14.299L35.6016 13.2275C35.6016 13.2275 35.6016 13.2275 35.8024 13.6148C35.8275 13.5244 35.8651 13.4341 35.9153 13.3566C35.9237 13.3394 35.9362 13.3222 35.9529 13.305C36.0617 13.1328 36.1997 12.9779 36.3671 12.8402C36.3838 12.8316 36.4005 12.8187 36.4173 12.8015C36.5093 12.7326 36.6013 12.6681 36.6933 12.6078C36.8021 12.5476 36.9108 12.4874 37.0196 12.4271C37.0363 12.4271 37.0489 12.4228 37.0573 12.4142C37.0991 12.397 37.1409 12.3755 37.1828 12.3497C37.1828 12.3583 37.1828 12.3626 37.1828 12.3626C38.4753 11.7687 40.182 11.588 40.182 11.588L40.0565 11.8462C40.0565 11.8462 40.182 11.588 40.9475 11.2007C42.2526 11.3427 43.3318 11.6267 44.2102 11.9624C44.2102 11.9538 44.2102 11.9494 44.2102 11.9494C44.2437 11.9667 44.2729 11.9796 44.298 11.9882C44.4152 12.0312 44.5323 12.0785 44.6494 12.1302C44.7331 12.1646 44.8167 12.2033 44.9004 12.2464C45.0133 12.2851 45.1137 12.3367 45.2141 12.3884C45.2894 12.4271 45.3773 12.4658 45.4526 12.5175C45.6115 12.6035 45.7621 12.6896 45.9043 12.7757C45.9712 12.8187 46.0382 12.8617 46.1051 12.9048C46.1804 12.9564 46.2557 13.0081 46.331 13.0597C46.3896 13.1027 46.4481 13.1458 46.5067 13.1888C46.5736 13.2404 46.6364 13.2921 46.6949 13.3437C46.7535 13.3867 46.8078 13.4298 46.858 13.4728C46.9417 13.5503 47.0212 13.6234 47.0965 13.6923C47.1467 13.7439 47.1969 13.7912 47.2471 13.8343C47.2889 13.8773 47.3265 13.9203 47.36 13.9634C47.4018 14.0064 47.4395 14.0494 47.4729 14.0925C47.5064 14.1269 47.5357 14.1613 47.5608 14.1958C47.5942 14.2388 47.6235 14.2775 47.6486 14.3119C47.6737 14.3464 47.6988 14.3765 47.7239 14.4023C47.7658 14.4626 47.8034 14.5185 47.8369 14.5701C47.8494 14.596 47.862 14.6089 47.8745 14.6347C47.8912 14.6605 47.908 14.6863 47.9247 14.7121C47.9331 14.7294 47.9415 14.7466 47.9498 14.7638C47.9665 14.781 47.9749 14.7982 47.9749 14.8154C47.9833 14.824 47.9875 14.8326 47.9875 14.8412C47.9958 14.8585 48 14.8671 48 14.8671C47.8243 14.8154 47.6612 14.7767 47.4855 14.7509C47.4269 14.7423 47.3684 14.7337 47.3098 14.7251C47.1843 14.7078 47.063 14.6949 46.9459 14.6863C46.8873 14.6777 46.8288 14.6734 46.7702 14.6734C46.6113 14.6648 46.4565 14.6648 46.3059 14.6734C46.2473 14.6734 46.1888 14.6777 46.1302 14.6863C46.0298 14.6863 45.9294 14.6906 45.829 14.6992C45.7537 14.7078 45.6826 14.7165 45.6157 14.7251C45.5237 14.7423 45.4358 14.7595 45.3522 14.7767C45.2936 14.7853 45.235 14.7939 45.1765 14.8025C45.0426 14.8283 44.9171 14.8542 44.8 14.88C44.7498 14.8972 44.6954 14.9144 44.6369 14.9316C44.5616 14.9488 44.4863 14.9703 44.411 14.9962C44.3692 15.0048 44.3273 15.0177 44.2855 15.0349C44.1851 15.0607 44.0847 15.0994 43.9843 15.1253C43.5953 15.2673 43.3569 15.3835 43.3569 15.3835L43.1686 14.8671C43.1686 14.8671 43.1686 14.8671 42.9804 15.7837C42.1522 15.9128 40.7592 16.4937 40.7592 16.4937L40.182 16.0419C40.182 16.0419 40.182 16.0419 40.3702 16.9585C39.7428 17.1005 38.7012 17.8621 38.2494 18.2107C38.1114 18.3269 38.0235 18.3914 38.0235 18.3914L37.3835 17.6685C37.3835 17.6685 37.3835 17.6685 37.509 18.7271C36.8816 18.9466 36.3545 19.3855 35.9529 19.8115C35.8274 19.9492 35.7187 20.0783 35.6267 20.1988C35.6183 20.2074 35.6099 20.216 35.6016 20.2246C35.6016 20.2246 35.6016 20.2289 35.6016 20.2375C35.6099 20.2375 35.6183 20.2375 35.6267 20.2375C35.6685 20.2548 35.7061 20.2677 35.7396 20.2763C35.8316 20.3107 35.9195 20.3451 36.0031 20.3796C36.0199 20.3796 36.0324 20.3839 36.0408 20.3925C36.4424 20.5603 36.6557 20.7023 36.6557 20.7023V21.18L37.3835 20.883C37.8478 21.3994 39.8055 23.7619 39.8055 23.7619L39.68 24.3687C39.68 24.3687 39.68 24.3687 40.2698 24.33C41.7506 25.9437 42.4659 28.332 42.4659 28.332L42.3404 28.7322C42.3404 28.7322 42.3404 28.7322 42.8549 28.8613C43.131 29.623 43.3443 30.3588 43.52 31.0818C43.5367 31.1592 43.5535 31.2324 43.5702 31.3013C43.5953 31.4217 43.6204 31.5379 43.6455 31.6498C43.679 31.8047 43.7082 31.9554 43.7333 32.1017C43.7501 32.2049 43.771 32.3082 43.7961 32.4115C43.8212 32.5922 43.8463 32.7644 43.8714 32.9279C43.8797 33.0054 43.8881 33.0785 43.8965 33.1474C43.9299 33.3797 43.9592 33.6035 43.9843 33.8187C43.9843 33.909 43.9969 33.9994 43.9969 34.0769C44.0136 34.2146 44.0261 34.3523 44.0345 34.49C44.0429 34.576 44.0471 34.6621 44.0471 34.7482C44.0554 34.8687 44.0638 34.9892 44.0722 35.1097C44.0722 35.1957 44.0722 35.2775 44.0722 35.3549C44.0805 35.4668 44.0847 35.5787 44.0847 35.6906C44.0847 35.7594 44.0847 35.8326 44.0847 35.9101ZM20.6933 46.651L20.7059 46.7027C20.731 46.651 20.7603 46.5994 20.7937 46.5477C20.8021 46.5047 20.8105 46.466 20.8188 46.4316C20.8188 46.4316 20.8146 46.4316 20.8063 46.4316L20.7184 46.2896C20.7184 46.3154 20.7184 46.3455 20.7184 46.3799C20.7101 46.466 20.7017 46.5564 20.6933 46.651ZM20.7561 46.8963L20.8565 47.2191C20.8648 47.2018 20.8774 47.1846 20.8941 47.1674L20.7561 46.8963ZM29.9671 86.3487C29.9754 86.4176 29.9796 86.4692 29.9796 86.5036C29.9796 86.4606 29.9796 86.4003 29.9796 86.3229L29.9671 86.3487ZM30.9835 19.6308C30.9752 19.7341 30.9626 19.8416 30.9459 19.9535V19.9406C30.9626 19.9234 30.9793 19.9105 30.9961 19.9019C30.9961 19.9019 30.9961 19.8976 30.9961 19.889C31.0128 19.8804 31.0212 19.8761 31.0212 19.8761L31.1843 20.1988C31.1592 20.1343 31.1467 20.0697 31.1216 20.0052C31.0881 19.9019 31.0421 19.7642 30.9835 19.5921C30.9835 19.6007 30.9835 19.6136 30.9835 19.6308ZM24.6588 39.2795C25.5624 38.8019 26.6039 38.2467 26.6039 38.2467L26.7294 39.0988C26.7294 39.0988 26.8549 38.931 27.3694 38.1564C29.1765 37.4592 31.749 37.4334 31.749 37.4334L31.9122 38.0531C31.9122 38.0531 31.9122 38.0531 32.389 37.3043C32.6902 37.2656 33.0416 37.2398 33.3804 37.2269C33.3051 35.6906 33.1545 34.1931 33.0416 33.2635C33.0332 33.1689 33.0248 33.0785 33.0165 32.9924C32.891 33.0312 32.7655 33.0699 32.5898 33.1215C32.6275 31.4691 31.9749 28.9259 31.5608 27.48C31.544 27.4283 31.5315 27.381 31.5231 27.3379C31.498 27.2605 31.473 27.183 31.4479 27.1056C31.4479 27.0884 31.4437 27.0711 31.4353 27.0539C31.36 27.0927 31.2847 27.1185 31.1969 27.1701C31.1216 26.8345 31.0086 26.4213 30.8706 25.9824L30.7577 26.2277L29.9169 25.5822L30.4439 26.4859L28.6243 30.6041L27.6831 30.2814L28.2102 30.759L27.6329 32.05L26.7545 32.5277L27.1686 32.7342L26.5914 34.5158L26.2902 35.4582L25.8133 35.3033L26.1271 35.781C26.1271 35.781 25.462 36.349 24.6588 39.2795ZM23.1028 44.8953C22.9522 44.9727 22.8058 45.0502 22.6635 45.1277C22.6384 45.1449 22.6091 45.1621 22.5757 45.1793C22.538 45.1922 22.513 45.218 22.4753 45.2439C22.5339 45.2094 22.5924 45.1793 22.651 45.1535C22.6844 45.1363 22.7221 45.1234 22.7639 45.1148C22.8727 45.0631 22.9814 45.0158 23.0902 44.9727C23.1237 44.9641 23.1613 44.9512 23.2031 44.934C23.2868 44.9082 23.3705 44.8781 23.4541 44.8437C23.4959 44.835 23.5378 44.8221 23.5796 44.8049C23.68 44.7705 23.7804 44.7404 23.8808 44.7146C23.8975 44.7059 23.9184 44.6973 23.9435 44.6887C24.0607 44.6543 24.1778 44.6242 24.2949 44.5984C24.3284 44.5898 24.3618 44.5812 24.3953 44.5725C24.4957 44.5467 24.5961 44.5209 24.6965 44.4951C24.7216 44.4865 24.7425 44.4822 24.7592 44.4822C26.2024 44.1465 27.4573 44.0691 27.4573 44.0691L27.3569 44.7016C27.3569 44.7016 27.3569 44.7016 28.0596 44.0949C29.5906 44.082 31.4102 44.3918 31.4102 44.3918L31.1467 44.9986L32.0502 44.4434L33.4682 44.7275C33.5059 44.2756 33.5435 43.8109 33.5686 43.3461C33.1043 43.3848 32.5271 43.4236 32.1129 43.4623C31.222 43.5785 30.4565 43.7076 30.4565 43.7076L30.1051 43.1912L30.1302 43.9141L27.9341 44.0045L27.7584 43.6947C27.7333 43.6861 27.704 43.6818 27.6706 43.6818C27.6706 43.7334 27.658 43.8238 27.658 43.94C25.7255 43.8883 24.2196 44.3402 23.1028 44.8953ZM22.9396 49.6203L24.6588 52.5895L24.2824 52.7574C24.3409 52.8693 24.3995 52.9897 24.458 53.1188C24.4664 53.1361 24.4748 53.1576 24.4831 53.1834C24.5501 53.3211 24.6212 53.4674 24.6965 53.6223C24.7048 53.6481 24.7132 53.6697 24.7216 53.6869C24.7969 53.859 24.8722 54.0354 24.9475 54.2162C24.9558 54.2334 24.9642 54.2463 24.9725 54.2549C25.0478 54.4356 25.1231 54.6207 25.1984 54.81C25.2152 54.8445 25.2277 54.8789 25.2361 54.9133C25.303 55.0768 25.3699 55.2404 25.4369 55.4039C25.462 55.4555 25.4871 55.5115 25.5122 55.5717C25.5624 55.7008 25.6125 55.8299 25.6627 55.959C25.7757 56.2172 25.8761 56.4754 25.9765 56.7207C25.9765 56.7207 25.9765 56.725 25.9765 56.7336C26.4533 57.96 26.8298 58.9541 26.8298 58.9541L26.4157 59.2639C26.424 59.2897 26.4282 59.3113 26.4282 59.3285C26.4366 59.3457 26.445 59.3629 26.4533 59.3801C26.4701 59.4662 26.491 59.5479 26.5161 59.6254C26.5663 59.7889 26.6123 59.9567 26.6541 60.1289C26.6625 60.1547 26.6709 60.1805 26.6792 60.2063C26.6792 60.2149 26.6792 60.2192 26.6792 60.2192C27.5702 63.6662 28.0973 67.3713 28.0973 67.3713L27.7459 67.3455C27.7459 67.3541 27.7459 67.3584 27.7459 67.3584C28.8251 70.4825 28.8627 75.1301 28.8627 75.1301L28.6369 75.2075C28.6452 75.2592 28.6494 75.3108 28.6494 75.3624C28.6578 75.3883 28.662 75.4098 28.662 75.427C28.6871 75.6077 28.7122 75.8057 28.7373 76.0209C28.8878 77.3764 29.0133 79.1967 29.0886 80.4489L29.189 80.0616H29.1137L30.7451 73.5163L30.8957 72.9225C30.7451 72.8795 30.5736 72.8278 30.3812 72.7676C31.0839 71.4637 31.7239 68.6106 32.0627 66.8936C32.1255 66.5838 32.1882 66.3127 32.2259 66.0932C32.0502 66.0545 31.862 66.0157 31.6361 65.9641C32.4267 64.4537 32.64 62.0524 32.7028 61.2262C32.502 61.2133 32.2635 61.1875 31.9749 61.1617C32.8031 59.7803 33.0039 57.392 33.0541 55.9848C33.0625 55.8988 33.0667 55.817 33.0667 55.7395C33.0667 55.7309 33.0667 55.7266 33.0667 55.7266C33.0667 55.6147 33.0667 55.5115 33.0667 55.4168H32.7278L33.0165 52.2539L32.251 51.6988L32.2133 51.6729L32.1631 50.7563L31.749 51.5826L30.6824 51.4018L30.5569 50.5756L30.0047 51.5438L26.8675 49.9688L26.5286 48.9232L26.3153 50.1883L24.7969 49.801L24.4078 48.6133L23.818 50.0076L22.9396 49.6203ZM27.6078 87.3428C27.6246 87.3428 27.6371 87.3428 27.6455 87.3428C27.6455 87.3428 27.6455 87.3384 27.6455 87.3298C27.6455 87.3169 27.6204 87.3298 27.6078 87.3428ZM29.4526 12.0269H29.6157C29.6157 11.9667 29.6157 11.9064 29.6157 11.8462C29.4525 12.0269 29.4526 12.0269 29.4526 12.0269Z" fill="white"/>
</svg>
