<svg width="28" height="52" viewBox="0 0 28 52" fill="none" xmlns="http://www.w3.org/2000/svg">
<path fill-rule="evenodd" clip-rule="evenodd" d="M25.7161 20.9812C25.7161 21.0465 25.7161 21.1119 25.7161 21.1773C25.7112 21.2074 25.7088 21.2376 25.7088 21.2678C25.7088 21.3533 25.7063 21.4362 25.7014 21.5167C25.7014 21.5393 25.7014 21.5544 25.7014 21.577C25.6966 21.6324 25.6917 21.6852 25.6868 21.7354C25.6868 21.7581 25.6868 21.7807 25.6795 21.8109C25.6795 21.8461 25.677 21.8788 25.6722 21.9089C25.6722 21.9341 25.6697 21.9542 25.6648 21.9693C25.6648 21.9994 25.6624 22.0271 25.6575 22.0522C25.6575 22.0673 25.6575 22.0799 25.6575 22.09C25.6526 22.1151 25.6502 22.1327 25.6502 22.1428C25.6453 22.1528 25.6429 22.1604 25.6429 22.1654C25.6429 22.1805 25.6429 22.188 25.6429 22.188C25.4526 20.8001 23.9446 19.6159 23.9446 19.6159L24.1935 19.0653C24.1935 19.0653 23.9812 19.1332 23.4541 19.4575C23.4492 19.4374 23.4419 19.4123 23.4322 19.3821C23.4273 19.367 23.4224 19.3494 23.4175 19.3293C23.4126 19.3142 23.4078 19.2991 23.4029 19.284C23.398 19.2639 23.3907 19.2413 23.3809 19.2161C23.376 19.2011 23.3687 19.186 23.359 19.1709C23.3492 19.1457 23.3394 19.1181 23.3297 19.0879C23.0954 18.5373 22.6269 17.7151 22.6269 17.7151L22.7441 17.3757C22.7441 17.3757 22.6489 17.421 22.3707 17.5869C22.3512 17.5366 22.3244 17.4838 22.2902 17.4285C22.2804 17.4084 22.2707 17.3908 22.2609 17.3757C22.2365 17.3355 22.2121 17.2927 22.1877 17.2475C21.7119 16.4706 20.7749 15.3618 20.7749 15.3618L20.9579 14.7961L20.548 15.2562L20.0648 14.7583L20.1014 14.0719C20.1014 14.0719 20.1014 14.0719 19.8086 14.6075C19.7501 14.5924 19.6769 14.5622 19.6037 14.5245L19.8818 15.0601L19.6695 15.1581C19.6988 15.2285 19.7305 15.3039 19.7647 15.3844C19.7696 15.3844 19.772 15.3869 19.772 15.3919C20.2478 16.5384 20.9945 18.8013 20.9945 18.8013L20.8115 18.9371V18.9446L20.7603 18.9823C20.7651 18.9974 20.77 19.0125 20.7749 19.0276C20.7749 19.0326 20.7749 19.0376 20.7749 19.0427C20.7895 19.0929 20.8017 19.1407 20.8115 19.186C20.8115 19.191 20.8115 19.1935 20.8115 19.1935C20.8408 19.3041 20.8676 19.4148 20.892 19.5254C20.892 19.5304 20.892 19.5355 20.892 19.5405C21.0824 20.3853 21.2361 21.2602 21.3532 21.9919C22.0047 22.188 22.6342 22.5501 23.0222 22.799C23.0222 22.7939 23.0222 22.7914 23.0222 22.7914C23.0271 22.7965 23.0295 22.799 23.0295 22.799C23.1467 22.8744 23.2345 22.9347 23.3004 22.98C23.3004 22.98 23.3028 22.9825 23.3077 22.9875C23.337 23.0077 23.359 23.0227 23.3736 23.0328C23.3736 23.0328 23.376 23.0353 23.3809 23.0403C23.3956 23.0479 23.4029 23.0554 23.4029 23.0554L23.3077 23.2817C23.3077 23.2817 23.3077 23.2817 23.681 23.2063C24.7791 24.3528 25.1012 25.5446 25.1744 26.329C25.189 26.3818 25.1963 26.4195 25.1963 26.4195C25.1963 26.4195 25.189 26.3894 25.1744 26.3366C25.2256 26.8872 25.1671 27.2417 25.1671 27.2417C25.1305 26.9928 24.6254 26.1329 24.6254 26.1329C24.6254 26.1329 24.6839 26.3064 24.7205 26.759C24.6717 26.6986 24.6205 26.6408 24.5668 26.5855C24.5522 26.5704 24.5302 26.5478 24.5082 26.5327C24.4741 26.4975 24.4375 26.4623 24.3984 26.4271C24.374 26.407 24.3472 26.3868 24.3179 26.3667C24.2838 26.3366 24.2472 26.3064 24.2081 26.2762C24.1788 26.2561 24.1471 26.236 24.1129 26.2159C24.0788 26.1907 24.0446 26.1656 24.0105 26.1404C23.9714 26.1203 23.9348 26.1002 23.9007 26.0801C23.8665 26.06 23.8323 26.0399 23.7982 26.0198C23.7591 25.9996 23.7201 25.9795 23.681 25.9594C23.6518 25.9443 23.6225 25.9292 23.5932 25.9142C23.5444 25.889 23.498 25.8664 23.4541 25.8463C23.4297 25.8362 23.4053 25.8262 23.3809 25.8161C23.3321 25.791 23.2809 25.7683 23.2272 25.7482C22.5903 25.4842 22.034 25.3635 22.034 25.3635V24.9864C22.034 24.9864 22.034 25.0618 21.829 25.4012C21.7997 25.3962 21.7705 25.3887 21.7412 25.3786C21.8583 26.2385 21.9022 27.0758 21.9169 27.6264L22.3561 27.8149L22.3048 28.5089C22.3048 28.5089 22.4293 28.3807 22.5244 28.0488C22.8685 28.3052 23.9373 29.3235 23.9373 29.3235V29.7534C23.9373 29.7534 23.9373 29.7535 24.1349 29.497C24.3911 29.6629 24.845 30.2739 25.0207 30.5153C25.0353 30.5354 25.0475 30.553 25.0573 30.5681C25.0621 30.5731 25.0646 30.5756 25.0646 30.5756C25.0865 30.6058 25.0939 30.6209 25.0939 30.6209L25.0499 31.0056C25.0499 31.0056 25.0499 31.0056 25.3208 30.9528C25.8625 33.3438 25.2183 34.9278 25.2183 34.9278C24.8523 33.8039 24.2301 33.9623 24.2301 33.9623L24.1569 33.6757C24.1569 33.6757 24.1569 33.6757 23.9592 33.9623C23.8763 33.8417 23.7957 33.7285 23.7176 33.6229C23.6884 33.5827 23.6591 33.545 23.6298 33.5098C23.5761 33.4444 23.5224 33.379 23.4688 33.3137C23.4346 33.2734 23.4004 33.2332 23.3663 33.193C23.3175 33.1377 23.2687 33.0823 23.2199 33.027C23.1857 32.9918 23.1515 32.9566 23.1174 32.9214C23.0686 32.8711 23.0222 32.8234 22.9783 32.7781C22.9441 32.7429 22.91 32.7077 22.8758 32.6725C22.827 32.6273 22.7807 32.5845 22.7367 32.5443C22.7026 32.5141 22.6709 32.4839 22.6416 32.4538C22.5928 32.4135 22.5464 32.3758 22.5025 32.3406C22.4732 32.3155 22.4439 32.2903 22.4146 32.2652C22.2682 32.1495 22.1316 32.0465 22.0047 31.956C22.012 32.1294 22.012 32.2275 22.012 32.2275L21.6826 32.3633L21.6387 32.3783C21.6387 32.3884 21.6387 32.3959 21.6387 32.401C21.6436 32.4161 21.6485 32.4311 21.6533 32.4462C21.6582 32.4663 21.6631 32.489 21.668 32.5141C21.668 32.5292 21.6704 32.5443 21.6753 32.5594C21.6802 32.5895 21.6851 32.6172 21.6899 32.6423C21.6948 32.6574 21.6973 32.6725 21.6973 32.6876C21.7021 32.7077 21.707 32.7278 21.7119 32.7479C21.707 32.7479 21.7046 32.7479 21.7046 32.7479C21.7192 32.8334 21.7339 32.9239 21.7485 33.0195C21.7485 33.0295 21.7485 33.0371 21.7485 33.0421C21.7631 33.1477 21.7778 33.2583 21.7924 33.374C21.7924 33.379 21.7924 33.3815 21.7924 33.3815C21.8022 33.4922 21.8119 33.6028 21.8217 33.7134C21.8266 33.7335 21.829 33.7537 21.829 33.7738C21.8388 33.8743 21.8485 33.9724 21.8583 34.0679C21.8583 34.0981 21.8583 34.1258 21.8583 34.1509C21.8681 34.2414 21.8754 34.3319 21.8803 34.4224C21.8851 34.4576 21.8876 34.4928 21.8876 34.528C21.8925 34.6186 21.8998 34.7066 21.9095 34.792C21.9095 34.8071 21.9095 34.8222 21.9095 34.8373C21.9535 35.5614 21.9681 36.1347 21.9681 36.1347L21.6314 36.1724L21.441 36.195C21.4459 36.2051 21.4484 36.2151 21.4484 36.2252C21.4581 36.2906 21.4703 36.3559 21.485 36.4213C21.485 36.4314 21.4874 36.4439 21.4923 36.459V36.4666C21.7119 37.8243 21.5948 39.2197 21.5948 39.2197L21.1556 39.1292C21.1653 39.1593 21.1751 39.192 21.1848 39.2272C21.1995 39.2951 21.2214 39.3554 21.2361 39.4233C21.646 41.0828 21.3386 43.1419 21.3386 43.1419H21.28C21.28 43.1419 21.28 43.1445 21.28 43.1495C21.28 43.1595 21.2776 43.1696 21.2727 43.1797C21.2361 44.296 21.0897 45.8574 21.0091 46.6343C21.0238 46.8304 21.0311 47.0567 21.0311 47.3131C21.3752 47.0491 21.646 46.9435 21.646 46.9435C21.646 46.9435 21.3239 47.4112 21.0165 48.0071C21.0116 48.1127 21.0067 48.2183 21.0018 48.3239C21.4703 47.9543 21.9535 47.9844 21.9535 47.9844C21.9535 47.9844 21.4337 48.4219 20.9725 48.882C20.9725 48.9725 20.9677 49.063 20.9579 49.1536C21.8071 48.8594 22.5391 49.0178 22.5391 49.0178C21.6973 49.0932 21.0311 49.855 21.0311 49.855C21.0311 49.855 21.5728 49.6816 22.4878 49.757C21.9095 49.7796 21.1848 50.2699 20.8627 50.5188C20.8627 50.549 20.8603 50.5817 20.8554 50.6169C21.0897 50.5791 21.5362 50.5339 22.0047 50.6848C21.668 50.6546 21.2068 50.8356 20.8481 51.0166C22.6196 51.175 24.069 51.7709 22.0779 51.6653C19.816 51.5522 19.3475 51.5371 20.2698 51.8539C21.1922 52.1707 17.4149 51.9067 14.6698 51.6804C11.932 51.4466 8.47686 51.7785 10.3508 51.4089C11.3025 51.2203 12.0491 51.1449 12.5542 51.1222C12.4152 50.7074 11.9979 49.757 11.0243 49.757C11.0975 49.7344 11.1634 49.7117 11.2293 49.7042C11.2439 49.6966 11.2586 49.6966 11.2732 49.6966C11.3122 49.6916 11.3488 49.6891 11.383 49.6891C11.383 49.6891 11.3854 49.6891 11.3903 49.6891C11.5294 49.6816 11.6685 49.7117 11.7929 49.757C11.8027 49.762 11.8149 49.767 11.8295 49.7721C11.8588 49.7821 11.8905 49.7972 11.9247 49.8173C11.9393 49.8224 11.954 49.8274 11.9686 49.8324C11.9979 49.8525 12.0272 49.8701 12.0565 49.8852C12.0711 49.8953 12.0858 49.9053 12.1004 49.9154C12.1248 49.9355 12.1516 49.9556 12.1809 49.9757C12.1956 49.9858 12.2102 49.9958 12.2248 50.0059C12.2492 50.026 12.2736 50.0461 12.298 50.0662C12.3127 50.0813 12.3249 50.0939 12.3346 50.104C12.359 50.1241 12.3834 50.1467 12.4078 50.1718C12.4176 50.1819 12.4298 50.1945 12.4444 50.2096C12.464 50.2297 12.4835 50.2523 12.503 50.2774C12.5176 50.2875 12.5298 50.3001 12.5396 50.3152C12.5591 50.3403 12.5787 50.3629 12.5982 50.383C12.6079 50.3981 12.6177 50.4107 12.6274 50.4208C12.6421 50.4459 12.6592 50.4685 12.6787 50.4886C12.6885 50.5037 12.6958 50.5188 12.7007 50.5339C12.7153 50.554 12.7299 50.5741 12.7446 50.5942C12.7543 50.6093 12.7617 50.6219 12.7665 50.632C12.7812 50.6521 12.7934 50.6722 12.8031 50.6923C12.8129 50.7074 12.8202 50.7199 12.8251 50.73C12.8349 50.7451 12.8422 50.7602 12.8471 50.7753C12.8617 50.8054 12.8739 50.8306 12.8837 50.8507C12.7299 49.9833 12.1882 49.5005 12.1882 49.5005C12.1882 49.5005 12.9056 49.6288 13.1765 50.368C13.2277 49.6816 12.0638 48.7085 12.0638 48.7085C12.0638 48.7085 13.0813 48.8896 13.3229 49.6816C13.3229 49.6816 13.0813 48.354 12.6348 48.1277C13.3009 48.256 13.4473 49.1988 13.4473 49.1988C13.4473 49.1988 13.5718 48.4068 13.2058 47.645C13.8207 48.5351 13.8207 49.1686 13.8207 49.1686C13.8207 49.1686 13.8255 49.1586 13.8353 49.1385L14.0842 48.0523H13.8939L14.216 43.8434C14.1525 43.8283 14.0793 43.8107 13.9963 43.7906C14.2086 42.8629 14.2965 40.9168 14.3258 39.7477C14.3258 39.5365 14.3331 39.3554 14.3331 39.2046C14.2745 39.197 14.216 39.1895 14.1427 39.182C14.194 37.9676 13.9963 36.2704 13.8573 35.2974C13.8524 35.2522 13.8475 35.2069 13.8426 35.1616C13.8377 35.1315 13.8329 35.1013 13.828 35.0711C13.8231 35.046 13.8207 35.0234 13.8207 35.0032C13.8133 34.9806 13.8133 34.9655 13.806 34.9504C13.7328 34.9731 13.6523 34.9957 13.5498 35.0259C13.5498 34.0529 13.1106 32.5594 12.8324 31.7221C12.8275 31.7121 12.8251 31.702 12.8251 31.692C12.8007 31.6216 12.7787 31.5562 12.7592 31.4958C12.708 31.5185 12.6641 31.5411 12.6128 31.5637C12.4518 30.9754 12.0565 29.8892 11.8515 29.3235L11.1707 30.2965L10.5265 29.9194L10.8486 30.5153L10.3289 31.873L9.98484 31.7598L10.2191 32.1596L9.68471 34.2565H9.12105L9.48706 34.5884L9.26745 34.792L9.39921 35.0334L9.31137 37.1077L8.55738 37.1454L9.01124 37.4396L8.68915 37.6809L9.09909 37.862L9.31137 39.9966L8.96732 39.9287L9.12105 40.1097L8.87948 40.3964L9.12105 40.4642C9.12105 40.4642 9.26745 41.6032 9.37725 42.003C9.37725 42.003 7.60575 40.1173 7.23242 39.182C7.41543 38.835 7.41543 38.835 7.41543 38.835L7.06405 38.8199C7.06405 38.8199 6.37595 37.6885 6.26614 36.8889C6.50771 36.5043 6.50771 36.5043 6.50771 36.5043L6.17098 36.6627L6.04654 36.0517L6.26614 35.7047L5.95137 35.8405C5.95137 35.8405 5.93673 35.8028 5.92209 35.7349C5.82693 35.4106 5.54876 34.3772 5.5634 33.7361C5.91477 32.9516 5.91477 32.9516 5.91477 32.9516L5.54144 33.1251C5.54144 33.1251 5.54144 33.115 5.54144 33.0949C5.54144 32.8234 5.5634 30.6435 5.80497 29.7987C5.94405 29.6931 6.04654 29.6177 6.12706 29.5573L5.0217 30.0325L4.91922 29.9571L4.77281 30.2136L4.57516 29.8817L4.64837 30.4398C4.17987 30.6209 2.99398 31.5864 2.99398 31.5864L2.6719 31.3827L2.94275 31.873C2.94275 31.873 2.86954 31.9107 2.75242 32.0012C2.74754 32.0062 2.74266 32.0087 2.73778 32.0087C2.71337 32.0289 2.68654 32.0515 2.65725 32.0766C2.64749 32.0867 2.63773 32.0942 2.62797 32.0993C2.59869 32.1244 2.56941 32.1521 2.54013 32.1822C2.53037 32.1873 2.52305 32.1948 2.51817 32.2049C2.4352 32.2803 2.34248 32.3708 2.24 32.4764C2.23024 32.4865 2.22048 32.4965 2.21072 32.5066C2.1668 32.5569 2.12287 32.6071 2.07895 32.6574C2.06919 32.6725 2.05699 32.6851 2.04235 32.6951C1.93499 32.8259 1.81786 32.9742 1.69098 33.1402C1.67634 33.1553 1.66414 33.1729 1.65438 33.193C1.6007 33.2634 1.54946 33.3363 1.50065 33.4117C1.48601 33.4318 1.47137 33.4519 1.45673 33.4721C1.32496 33.6631 1.19076 33.8769 1.05412 34.1132C1.03459 34.1434 1.01507 34.1735 0.995554 34.2037C0.946752 34.2942 0.895512 34.3873 0.84183 34.4828C0.822309 34.523 0.80279 34.5607 0.783269 34.5959C0.710066 34.7267 0.639302 34.8624 0.57098 35.0032C0.566099 34.9882 0.563661 34.9731 0.563661 34.958C0.563661 34.9882 0.57098 35.0032 0.57098 35.0032C0.57098 35.0032 0.563658 34.958 0.556338 34.8599C0.556338 34.8599 0.556338 34.8524 0.556338 34.8448C0.551458 34.7543 0.54902 34.6638 0.54902 34.5733C0.54414 34.523 0.541697 34.4752 0.541697 34.43C0.536817 34.3395 0.534378 34.249 0.534378 34.1585C0.534378 34.1082 0.534378 34.0579 0.534378 34.0076C0.534378 33.9171 0.534378 33.8316 0.534378 33.7511C0.534378 33.7059 0.536817 33.6631 0.541697 33.6229C0.541697 33.5073 0.54414 33.3966 0.54902 33.291C0.54902 33.281 0.551458 33.2709 0.556338 33.2609C0.561218 33.1452 0.568538 33.0321 0.578298 32.9214C0.578298 32.8862 0.580741 32.851 0.585621 32.8158C0.595381 32.7404 0.602701 32.6675 0.607581 32.5971C0.612461 32.5619 0.617342 32.5242 0.622222 32.4839C0.631983 32.4135 0.64174 32.3457 0.651501 32.2803C0.656381 32.2501 0.661262 32.2199 0.666142 32.1898C0.680783 32.0993 0.695426 32.0113 0.710066 31.9258C0.714947 31.9207 0.717385 31.9182 0.717385 31.9182C0.732025 31.8277 0.749107 31.7397 0.768628 31.6542C0.773508 31.6341 0.778389 31.614 0.783269 31.5939C0.80279 31.5336 0.819867 31.4732 0.834507 31.4129C0.839387 31.3928 0.844268 31.3701 0.849149 31.345C0.868669 31.2897 0.885751 31.2344 0.900391 31.179C0.905272 31.1589 0.910153 31.1413 0.915033 31.1262C0.963835 30.9854 1.01019 30.8547 1.05412 30.734C1.059 30.729 1.06144 30.724 1.06144 30.7189C1.08584 30.6636 1.1078 30.6108 1.12732 30.5605C1.1322 30.5555 1.13708 30.548 1.14196 30.5379C1.16636 30.4876 1.18832 30.4398 1.20784 30.3946C1.20784 30.3946 1.21028 30.3921 1.21516 30.387C1.48601 29.859 1.72758 29.6554 1.72758 29.6554L1.65438 29.4744L2.59137 28.8106L2.49621 28.5843L2.91346 28.5315C2.91346 28.5315 2.91347 28.5315 2.86954 28.2298C5.61464 25.884 8.60131 26.4195 8.60131 26.4195L8.58667 26.4422C8.63059 26.4321 8.67451 26.422 8.71843 26.412C8.69891 26.4019 8.67695 26.3944 8.65255 26.3894C8.65743 26.3894 8.65987 26.3894 8.65987 26.3894C8.2719 26.246 7.48131 25.9745 7.16653 25.9368C7.29098 25.0392 7.29098 25.0392 7.29098 25.0392L6.80052 25.7558L5.95869 25.6049L6.00993 24.9939L5.73176 25.5219L4.50196 25.4239L4.39948 24.7827L4.27503 25.3484L3.68209 25.4993L3.41124 24.7601L3.2868 25.8312L2.02771 26.1103L1.97647 25.5521L1.75686 26.2611L1.33229 26.3139L1.18588 25.7558L1.0834 26.4195C1.0834 26.4195 0.27085 26.6986 0 27.0833C0.0951634 25.5219 1.36157 23.8701 2.29856 23.1535C2.3498 23.6136 2.3498 23.6136 2.3498 23.6136L2.71582 22.98L4.02614 22.6179L3.98222 23.0554L4.30431 22.4973C4.30431 22.4973 4.89726 22.2861 5.4902 22.2861C5.38771 22.5953 5.31451 22.6934 5.31451 22.6934L6.00993 22.2408C6.00993 22.2408 6.61752 22.2936 7.37151 22.4671C7.38615 22.4721 7.40078 22.4746 7.41543 22.4746C7.47399 22.4897 7.53499 22.5048 7.59843 22.5199C7.63259 22.53 7.66676 22.5375 7.70092 22.5425C7.7546 22.5576 7.80828 22.5727 7.86196 22.5878C7.90588 22.6029 7.94981 22.6154 7.99373 22.6255C8.04253 22.6406 8.09133 22.6557 8.14013 22.6707C8.18405 22.6858 8.23041 22.7034 8.27922 22.7235C8.32314 22.7336 8.36706 22.7462 8.41098 22.7613C8.46466 22.7814 8.51591 22.8015 8.56471 22.8216C8.60375 22.8367 8.64279 22.8518 8.68183 22.8669C8.73551 22.892 8.79163 22.9171 8.85019 22.9423C8.87948 22.9574 8.90876 22.9725 8.93804 22.9875V22.98C8.94292 22.985 8.9478 22.9875 8.95268 22.9875C8.98928 23.0102 9.02588 23.0328 9.0698 23.0479C9.11372 23.0705 9.15033 23.0931 9.19425 23.1158C9.27233 23.161 9.34798 23.2088 9.42118 23.2591C9.29673 23.5382 9.29673 23.5382 9.29673 23.5382L9.78719 23.3873L9.71399 23.689C9.71399 23.689 10.0654 23.8776 10.4899 24.2095C10.4899 24.1944 10.4875 24.1768 10.4826 24.1567C10.4314 23.591 10.2776 22.4068 9.83843 21.7279C9.84331 21.7229 9.84819 21.7178 9.85307 21.7128C10.1093 21.479 10.1093 21.4714 10.1093 21.4714L9.74327 21.3734L9.47242 20.4079L9.81647 20.076L9.34798 20.0458L8.95268 18.5675L9.22353 18.2657H8.85019L8.65255 16.8854C8.65255 16.8854 10.7022 17.4511 11.7197 19.1558C11.5953 19.5405 11.5953 19.5405 11.5953 19.5405L11.9174 19.4877L12.2175 20.2495L12.1663 20.4833L12.4152 20.5588L12.8544 21.7053L12.5103 21.8788H12.9276C12.9276 21.8788 12.9861 22.0975 13.0374 22.452C13.0374 22.457 13.0374 22.4621 13.0374 22.4671C13.052 22.5928 13.0667 22.7361 13.0813 22.897C13.0862 22.9071 13.0886 22.9146 13.0886 22.9197C13.0935 23.0001 13.0984 23.0831 13.1033 23.1686C13.1033 23.1736 13.1033 23.1786 13.1033 23.1837C13.1081 23.2691 13.113 23.3571 13.1179 23.4477C13.1179 23.4527 13.1179 23.4577 13.1179 23.4627C13.1179 23.5533 13.1179 23.6488 13.1179 23.7494C13.1179 23.7594 13.1179 23.7695 13.1179 23.7795C13.1179 23.9203 13.113 24.0662 13.1033 24.217C13.4473 23.6136 13.7401 23.3421 13.7401 23.3421L13.8865 23.7418C13.8865 23.7418 13.9451 23.5608 14.0256 23.1686C13.4034 21.5242 13.279 19.7215 13.279 19.7215L13.0374 19.631L13.3082 19.1256C13.3082 19.1256 13.3082 19.1256 13.0959 19.0955C13.0911 19.0854 13.0886 19.0728 13.0886 19.0577C13.074 18.9421 13.0593 18.8315 13.0447 18.7259C13.0447 18.7007 13.0423 18.6731 13.0374 18.6429C13.0325 18.5574 13.0276 18.4769 13.0227 18.4015C13.0227 18.3713 13.0227 18.3437 13.0227 18.3185C13.0227 18.2331 13.0227 18.1501 13.0227 18.0696C13.0227 18.0646 13.0227 18.0596 13.0227 18.0545C13.0276 17.9691 13.0349 17.8911 13.0447 17.8207C13.0496 17.8056 13.052 17.7931 13.052 17.783C13.0618 17.7277 13.0715 17.6749 13.0813 17.6246C13.0862 17.6095 13.0886 17.5944 13.0886 17.5794C13.1033 17.5341 13.1179 17.4914 13.1325 17.4511C13.1325 17.4411 13.135 17.4335 13.1399 17.4285C13.1691 17.3304 13.2058 17.2626 13.2424 17.2022C13.2424 17.2022 13.2448 17.2022 13.2497 17.2022C13.3302 17.074 13.3961 17.0363 13.3961 17.0363L13.2131 17.0061L13.5791 16.7572C13.5791 16.7572 13.5791 16.7572 13.1838 16.6591C13.3375 15.754 14.0622 14.3209 14.0622 14.3209L13.9744 14.1021L14.4282 13.823C14.4282 13.823 14.4282 13.823 14.1574 13.7929C14.6552 12.8726 15.2481 12.3899 15.8118 12.1485C15.8166 12.1435 15.824 12.141 15.8337 12.141C15.8825 12.1158 15.9338 12.0957 15.9875 12.0806C16.0021 12.0756 16.0192 12.0706 16.0387 12.0656C16.0826 12.0505 16.1265 12.0354 16.1705 12.0203C15.8337 12.0203 15.5848 12.0278 15.5848 12.0278L15.4824 11.7412C15.4824 11.7412 15.4824 11.7412 15.314 12.1334C15.2408 12.1284 15.17 12.1259 15.1017 12.1259C15.0822 12.1259 15.0627 12.1259 15.0431 12.1259C14.9748 12.1259 14.9089 12.1284 14.8455 12.1334C14.1281 12.1862 13.5571 12.4502 13.5571 12.4502L13.3888 12.2013C13.3888 12.2013 13.3888 12.2013 13.3229 12.6992C12.6348 12.8802 11.3244 13.8683 11.3244 13.8683L11.0829 13.6571C11.0829 13.6571 11.0829 13.6571 11.0829 14.0116C10.7754 14.1549 10.3948 14.5396 10.3948 14.5396L9.98484 14.0493L10.1898 14.7885L10.1312 14.8413L8.57935 16.3122L8.2353 16.2066L8.44026 16.629L7.51059 17.9414L7.20314 17.7302L7.44471 18.2582C7.44471 18.2582 6.47843 19.0502 5.88549 20.6342C4.39948 17.9339 5.73176 15.588 5.73176 15.588C5.73176 15.588 5.7464 15.588 5.75372 15.588C5.7586 15.588 5.76105 15.588 5.76105 15.588C5.77081 15.583 5.78301 15.578 5.79765 15.573C5.80253 15.573 5.80741 15.5704 5.81229 15.5654C5.83181 15.5604 5.84889 15.5503 5.86353 15.5352C5.86353 15.5352 5.86597 15.5327 5.87085 15.5277C5.89037 15.5126 5.90501 15.49 5.91477 15.4598C5.93673 15.3844 5.92209 15.2637 5.83425 15.0751C5.87817 14.9796 5.92209 14.8841 5.96601 14.7885C6.00506 14.7131 6.04409 14.6402 6.08314 14.5698C6.0929 14.5547 6.10266 14.5371 6.11242 14.517C6.15146 14.4466 6.19294 14.3762 6.23686 14.3058C6.24174 14.2907 6.24906 14.2756 6.25882 14.2605C6.30275 14.1951 6.34667 14.1323 6.39059 14.0719C6.39547 14.0569 6.40279 14.0418 6.41255 14.0267C6.45647 13.9663 6.50039 13.906 6.54431 13.8457C6.55407 13.8356 6.56383 13.823 6.57359 13.8079C6.61752 13.7526 6.66144 13.6973 6.70536 13.642C6.71512 13.6319 6.72244 13.6219 6.72732 13.6118C6.77124 13.5565 6.81517 13.5062 6.85909 13.461C6.86885 13.4509 6.87617 13.4409 6.88105 13.4308C6.92985 13.3805 6.97621 13.3327 7.02013 13.2875C7.02013 13.2825 7.02257 13.2774 7.02745 13.2724C7.43739 12.85 7.7668 12.6313 7.7668 12.6313L8.11085 12.8349C8.11085 12.8349 8.11085 12.8349 8.00836 12.3296C8.55738 11.9675 10.1386 11.0548 10.1386 11.0548L10.7315 11.4621C10.7315 11.4621 10.7315 11.4621 10.4314 10.9492C12.1663 9.93094 13.052 9.87814 13.052 9.87814L13.3522 10.1874C13.3522 10.1874 13.3522 10.1874 13.3522 9.78008C14.2599 9.79517 14.9992 9.91585 15.6068 10.0818C15.6068 10.0818 15.6044 10.0818 15.5995 10.0818C15.6141 10.0868 15.6263 10.0893 15.6361 10.0893C15.7581 10.1245 15.8776 10.1623 15.9948 10.2025C16.0143 10.2125 16.0338 10.2201 16.0533 10.2251C16.1607 10.2653 16.2607 10.3056 16.3535 10.3458C16.3681 10.3508 16.3803 10.3559 16.3901 10.3609C16.4974 10.4061 16.5975 10.4539 16.6902 10.5042C16.7048 10.5143 16.7195 10.5218 16.7341 10.5268C16.9244 10.6274 17.0904 10.7305 17.2319 10.8361C17.2465 10.8461 17.2587 10.8562 17.2685 10.8662C17.3417 10.9165 17.41 10.9693 17.4735 11.0246C17.4735 11.0246 17.4759 11.0272 17.4808 11.0322C17.5149 11.0624 17.5491 11.0925 17.5833 11.1227C17.188 10.4891 16.6097 9.64431 16.1924 9.3954C16.3681 9.13894 16.3681 9.13894 16.3681 9.13894L15.9728 9.19174C15.9728 9.19174 15.9655 9.1842 15.9655 9.17666C15.9606 9.1666 15.9533 9.15403 15.9435 9.13894C15.9435 9.13392 15.9411 9.12889 15.9362 9.12386C15.8996 9.06352 15.8557 8.98055 15.7898 8.8674C15.7849 8.86237 15.7825 8.85483 15.7825 8.84477C15.519 8.40729 15.0578 7.67564 14.6844 7.43427C15.0797 7.04959 15.0797 7.04959 15.0797 7.04959L14.6112 7.23061C14.6112 7.23061 14.6088 7.2281 14.6039 7.22307C14.6039 7.21804 14.6039 7.21553 14.6039 7.21553C14.599 7.2105 14.5942 7.20296 14.5893 7.1929C14.5844 7.18787 14.5795 7.18284 14.5746 7.17781C14.5698 7.17278 14.5624 7.16524 14.5527 7.15518C14.5478 7.15016 14.5429 7.14261 14.538 7.13256C14.5283 7.1225 14.5185 7.11496 14.5088 7.10993C14.499 7.09987 14.4892 7.08981 14.4795 7.07976C14.4648 7.07473 14.4502 7.06718 14.4356 7.05713C14.4209 7.04707 14.4087 7.03701 14.399 7.02696C14.3794 7.0169 14.3599 7.00684 14.3404 6.99679C14.3258 6.99176 14.3111 6.98673 14.2965 6.9817C14.2721 6.97164 14.2452 6.96159 14.216 6.95153C14.2013 6.9465 14.1867 6.94147 14.172 6.93644C14.1232 6.92136 14.072 6.90879 14.0183 6.89873C14.5161 6.43862 14.4868 6.28776 14.4868 6.28776L13.5498 6.7177C13.5498 6.7177 12.4371 5.60137 12.115 5.39771C12.4371 5.08845 12.5323 4.96023 12.5323 4.96023L11.6978 5.32228L10.3069 4.47749L10.5339 4.17577L9.94092 4.40206C9.94092 4.40206 8.65255 3.81372 7.48863 4.0928C7.57647 3.95703 7.68628 3.82126 7.81072 3.67795C8.61595 2.7879 10.2337 1.92802 12.6348 2.23727C12.5103 2.62195 12.4884 2.75018 12.4884 2.75018L12.9056 2.33533C12.9056 2.33533 13.7255 2.46356 14.8821 3.36115C14.6405 3.76846 14.6405 3.76846 14.6405 3.76846L15.0065 3.66286C15.0065 3.66286 15.3506 3.91932 15.6507 4.45486C15.475 4.68114 15.475 4.68114 15.475 4.68114L16.0973 4.62834C16.0973 4.62834 16.7854 5.65416 17.2758 6.59702C17.2807 6.54673 17.2831 6.49896 17.2831 6.4537C17.2831 6.42353 17.2831 6.39587 17.2831 6.37073C17.288 6.26513 17.2953 6.16456 17.3051 6.06902C17.3051 6.05393 17.3075 6.03885 17.3124 6.02376C17.3173 5.94331 17.3246 5.86788 17.3344 5.79748C17.3393 5.76731 17.3441 5.73965 17.349 5.71451C17.3539 5.64914 17.3612 5.58879 17.371 5.53348C17.3759 5.50834 17.3807 5.48571 17.3856 5.46559C17.4003 5.3952 17.4149 5.32731 17.4295 5.26194C17.4344 5.2368 17.4393 5.21165 17.4442 5.18651C17.4539 5.14628 17.4637 5.10605 17.4735 5.06583C17.4832 5.04068 17.4905 5.01554 17.4954 4.9904C17.5052 4.9552 17.5149 4.92251 17.5247 4.89234C17.532 4.87726 17.5394 4.85463 17.5394 4.83954C17.6858 4.42469 17.8248 4.2512 17.8248 4.2512L18.125 4.60571C18.125 4.60571 18.1469 4.47749 18.0005 4.07017C18.5203 2.84824 19.2596 2.21464 19.2596 2.21464L19.4353 2.62195C19.4353 2.62195 19.4353 2.61441 19.4426 2.59933C19.4426 2.59178 19.4426 2.59178 19.4426 2.59178C19.4573 2.53898 19.4939 2.40321 19.5671 2.19201C19.5963 2.12413 19.6256 2.04116 19.6549 1.95819C20.1527 1.31705 21.7192 0.562767 21.7192 0.562767L21.9022 0.698537C21.9022 0.698537 21.9022 0.698537 21.8803 0.389282C24.091 -0.0708295 25.1817 0.00459857 25.1817 0.00459857C24.4204 0.17054 23.6371 1.8903 23.6371 1.8903L23.3443 1.61122C23.3443 1.61122 23.3443 1.61122 23.5273 2.01853C23.0735 2.29007 22.1877 3.56481 22.1877 3.56481L21.8363 3.36115C21.8363 3.36115 21.8363 3.36115 22.1072 3.64023C21.5582 4.18332 21.0824 5.02811 20.8701 5.4128C20.8042 5.54857 20.7603 5.63154 20.7603 5.63154L20.1746 5.54857L20.5846 5.73714L19.955 7.84158L19.5451 7.99244L19.955 8.03769L19.8745 8.35449L20.7676 7.72844C20.7676 7.72844 20.7676 7.72844 20.8847 7.95472C20.8993 7.90192 20.9213 7.84912 20.9506 7.80387C20.9555 7.79381 20.9628 7.78375 20.9725 7.7737C21.036 7.67312 21.1165 7.58261 21.2141 7.50215C21.2239 7.49713 21.2336 7.48958 21.2434 7.47953C21.2971 7.4393 21.3508 7.40158 21.4044 7.36638C21.4679 7.33118 21.5313 7.29598 21.5948 7.26078C21.6045 7.26078 21.6119 7.25827 21.6167 7.25324C21.6411 7.24318 21.6655 7.23061 21.6899 7.21553C21.6899 7.22056 21.6899 7.22307 21.6899 7.22307C22.4439 6.8761 23.4395 6.7705 23.4395 6.7705L23.3663 6.92136C23.3663 6.92136 23.4395 6.7705 23.886 6.54422C24.6473 6.62719 25.2769 6.79313 25.7893 6.98924C25.7893 6.98421 25.7893 6.9817 25.7893 6.9817C25.8088 6.99176 25.8259 6.9993 25.8405 7.00433C25.9088 7.02947 25.9772 7.05713 26.0455 7.0873C26.0943 7.10741 26.1431 7.13004 26.1919 7.15518C26.2578 7.17781 26.3163 7.20798 26.3749 7.23816C26.4188 7.26078 26.4701 7.28341 26.514 7.31358C26.6067 7.36387 26.6946 7.41415 26.7775 7.46444C26.8166 7.48958 26.8556 7.51473 26.8946 7.53987C26.9386 7.57004 26.9825 7.60021 27.0264 7.63038C27.0606 7.65552 27.0947 7.68067 27.1289 7.70581C27.1679 7.73598 27.2045 7.76615 27.2387 7.79632C27.2729 7.82147 27.3046 7.84661 27.3339 7.87175C27.3827 7.91701 27.429 7.95975 27.4729 7.99998C27.5022 8.03015 27.5315 8.05781 27.5608 8.08295C27.5852 8.10809 27.6071 8.13324 27.6267 8.15838C27.6511 8.18352 27.673 8.20866 27.6926 8.23381C27.7121 8.25392 27.7291 8.27404 27.7438 8.29415C27.7633 8.31929 27.7804 8.34192 27.795 8.36203C27.8097 8.38215 27.8243 8.39975 27.839 8.41483C27.8634 8.45003 27.8853 8.48272 27.9048 8.51289C27.9122 8.52798 27.9195 8.53552 27.9268 8.5506C27.9366 8.56569 27.9463 8.58078 27.9561 8.59586C27.961 8.60592 27.9658 8.61598 27.9707 8.62603C27.9805 8.63609 27.9854 8.64615 27.9854 8.6562C27.9902 8.66123 27.9927 8.66626 27.9927 8.67129C27.9976 8.68135 28 8.68638 28 8.68638C27.8975 8.6562 27.8024 8.63358 27.6999 8.61849C27.6657 8.61346 27.6315 8.60843 27.5974 8.6034C27.5242 8.59335 27.4534 8.5858 27.3851 8.58078C27.3509 8.57575 27.3168 8.57323 27.2826 8.57323C27.1899 8.5682 27.0996 8.5682 27.0118 8.57323C26.9776 8.57323 26.9434 8.57575 26.9093 8.58078C26.8507 8.58078 26.7922 8.58329 26.7336 8.58832C26.6897 8.59335 26.6482 8.59838 26.6091 8.6034C26.5555 8.61346 26.5042 8.62352 26.4554 8.63358C26.4213 8.6386 26.3871 8.64363 26.3529 8.64866C26.2749 8.66375 26.2017 8.67883 26.1333 8.69392C26.1041 8.70398 26.0723 8.71403 26.0382 8.72409C25.9943 8.73415 25.9503 8.74672 25.9064 8.7618C25.882 8.76683 25.8576 8.77437 25.8332 8.78443C25.7746 8.79952 25.7161 8.82215 25.6575 8.83723C25.4306 8.9202 25.2915 8.98809 25.2915 8.98809L25.1817 8.68638C25.1817 8.68638 25.1817 8.68638 25.0719 9.22192C24.5888 9.29734 23.7762 9.63677 23.7762 9.63677L23.4395 9.37277C23.4395 9.37277 23.4395 9.37277 23.5493 9.90831C23.1833 9.99128 22.5757 10.4363 22.3122 10.64C22.2316 10.7078 22.1804 10.7456 22.1804 10.7456L21.8071 10.3232C21.8071 10.3232 21.8071 10.3232 21.8803 10.9417C21.5142 11.0699 21.2068 11.3264 20.9725 11.5753C20.8993 11.6557 20.8359 11.7312 20.7822 11.8016C20.7773 11.8066 20.7725 11.8116 20.7676 11.8166C20.7676 11.8166 20.7676 11.8192 20.7676 11.8242C20.7725 11.8242 20.7773 11.8242 20.7822 11.8242C20.8066 11.8342 20.8286 11.8418 20.8481 11.8468C20.9018 11.8669 20.953 11.887 21.0018 11.9072C21.0116 11.9072 21.0189 11.9097 21.0238 11.9147C21.258 12.0128 21.3825 12.0957 21.3825 12.0957V12.3748L21.8071 12.2013C22.0779 12.503 23.2199 13.8834 23.2199 13.8834L23.1467 14.2379C23.1467 14.2379 23.1467 14.2379 23.4907 14.2153C24.3545 15.1581 24.7718 16.5535 24.7718 16.5535L24.6986 16.7874C24.6986 16.7874 24.6986 16.7874 24.9987 16.8628C25.1597 17.3078 25.2842 17.7377 25.3867 18.1601C25.3964 18.2054 25.4062 18.2481 25.416 18.2884C25.4306 18.3588 25.4452 18.4267 25.4599 18.492C25.4794 18.5825 25.4965 18.6705 25.5111 18.756C25.5209 18.8164 25.5331 18.8767 25.5477 18.9371C25.5624 19.0427 25.577 19.1432 25.5916 19.2388C25.5965 19.284 25.6014 19.3268 25.6063 19.367C25.6258 19.5028 25.6429 19.6335 25.6575 19.7592C25.6575 19.812 25.6648 19.8648 25.6648 19.9101C25.6746 19.9905 25.6819 20.071 25.6868 20.1515C25.6917 20.2017 25.6941 20.252 25.6941 20.3023C25.699 20.3727 25.7039 20.4431 25.7088 20.5135C25.7088 20.5638 25.7088 20.6116 25.7088 20.6568C25.7136 20.7222 25.7161 20.7876 25.7161 20.8529C25.7161 20.8932 25.7161 20.9359 25.7161 20.9812ZM12.0711 27.2568L12.0784 27.2869C12.0931 27.2568 12.1102 27.2266 12.1297 27.1964C12.1346 27.1713 12.1394 27.1487 12.1443 27.1286C12.1443 27.1286 12.1419 27.1286 12.137 27.1286L12.0858 27.0456C12.0858 27.0607 12.0858 27.0783 12.0858 27.0984C12.0809 27.1487 12.076 27.2015 12.0711 27.2568ZM12.1077 27.4001L12.1663 27.5887C12.1712 27.5786 12.1785 27.5685 12.1882 27.5585L12.1077 27.4001ZM17.4808 50.4509C17.4857 50.4912 17.4881 50.5213 17.4881 50.5414C17.4881 50.5163 17.4881 50.4811 17.4881 50.4358L17.4808 50.4509ZM18.0737 11.4697C18.0688 11.53 18.0615 11.5929 18.0518 11.6582V11.6507C18.0615 11.6406 18.0713 11.6331 18.081 11.6281C18.081 11.6281 18.081 11.6256 18.081 11.6205C18.0908 11.6155 18.0957 11.613 18.0957 11.613L18.1908 11.8016C18.1762 11.7638 18.1689 11.7261 18.1542 11.6884C18.1347 11.6281 18.1079 11.5476 18.0737 11.447C18.0737 11.4521 18.0737 11.4596 18.0737 11.4697ZM14.3843 22.9498C14.9114 22.6707 15.519 22.3464 15.519 22.3464L15.5922 22.8442C15.5922 22.8442 15.6654 22.7462 15.9655 22.2936C17.0196 21.8863 18.5203 21.8712 18.5203 21.8712L18.6154 22.2333C18.6154 22.2333 18.6154 22.2333 18.8936 21.7958C19.0693 21.7732 19.2742 21.7581 19.4719 21.7505C19.428 20.8529 19.3401 19.978 19.2743 19.4349C19.2694 19.3796 19.2645 19.3268 19.2596 19.2765C19.1864 19.2991 19.1132 19.3217 19.0107 19.3519C19.0327 18.3864 18.652 16.9005 18.4105 16.0557C18.4007 16.0255 18.3934 15.9979 18.3885 15.9727C18.3739 15.9275 18.3592 15.8822 18.3446 15.837C18.3446 15.8269 18.3421 15.8168 18.3373 15.8068C18.2933 15.8294 18.2494 15.8445 18.1982 15.8747C18.1543 15.6786 18.0884 15.4372 18.0078 15.1807L17.942 15.324L17.4515 14.9469L17.759 15.4749L16.6975 17.8811L16.1485 17.6925L16.4559 17.9716L16.1192 18.7259L15.6068 19.0049L15.8484 19.1256L15.5116 20.1665L15.3359 20.7172L15.0578 20.6266L15.2408 20.9057C15.2408 20.9057 14.8528 21.2376 14.3843 22.9498ZM13.4766 26.231C13.3888 26.2762 13.3034 26.3215 13.2204 26.3667C13.2058 26.3768 13.1887 26.3868 13.1691 26.3969C13.1472 26.4044 13.1326 26.4195 13.1106 26.4346C13.1448 26.4145 13.1789 26.3969 13.2131 26.3818C13.2326 26.3718 13.2546 26.3642 13.279 26.3592C13.3424 26.329 13.4058 26.3014 13.4693 26.2762C13.4888 26.2712 13.5108 26.2636 13.5352 26.2536C13.584 26.2385 13.6328 26.2209 13.6816 26.2008C13.706 26.1958 13.7304 26.1882 13.7548 26.1782C13.8133 26.158 13.8719 26.1404 13.9305 26.1254C13.9402 26.1203 13.9524 26.1153 13.9671 26.1103C14.0354 26.0902 14.1037 26.0726 14.172 26.0575C14.1916 26.0524 14.2111 26.0474 14.2306 26.0424C14.2891 26.0273 14.3477 26.0122 14.4063 25.9971C14.4209 25.9921 14.4331 25.9896 14.4429 25.9896C15.2847 25.7935 16.0167 25.7482 16.0167 25.7482L15.9582 26.1178C15.9582 26.1178 15.9582 26.1178 16.3681 25.7633C17.2612 25.7558 18.3226 25.9368 18.3226 25.9368L18.1689 26.2913L18.6959 25.967L19.5231 26.1329C19.5451 25.8689 19.5671 25.5974 19.5817 25.3258C19.3108 25.3484 18.9741 25.3711 18.7325 25.3937C18.2128 25.4616 17.7663 25.537 17.7663 25.537L17.5613 25.2353L17.576 25.6577L16.2949 25.7105L16.1924 25.5295C16.1778 25.5244 16.1607 25.5219 16.1412 25.5219C16.1412 25.5521 16.1339 25.6049 16.1339 25.6728C15.0065 25.6426 14.1281 25.9066 13.4766 26.231ZM13.3814 28.9916L14.3843 30.7265L14.1647 30.8245C14.1989 30.8899 14.233 30.9603 14.2672 31.0357C14.2721 31.0458 14.277 31.0584 14.2818 31.0734C14.3209 31.1539 14.3624 31.2394 14.4063 31.3299C14.4112 31.345 14.416 31.3576 14.4209 31.3676C14.4648 31.4682 14.5088 31.5713 14.5527 31.6769C14.5576 31.6869 14.5624 31.6945 14.5673 31.6995C14.6112 31.8051 14.6552 31.9132 14.6991 32.0238C14.7088 32.044 14.7162 32.0641 14.7211 32.0842C14.7601 32.1797 14.7991 32.2753 14.8382 32.3708C14.8528 32.401 14.8675 32.4337 14.8821 32.4689C14.9114 32.5443 14.9407 32.6197 14.9699 32.6951C15.0358 32.846 15.0944 32.9969 15.1529 33.1402C15.1529 33.1402 15.1529 33.1427 15.1529 33.1477C15.4311 33.8643 15.6507 34.4451 15.6507 34.4451L15.4091 34.6261C15.414 34.6412 15.4165 34.6538 15.4165 34.6638C15.4214 34.6739 15.4262 34.6839 15.4311 34.694C15.4409 34.7443 15.4531 34.792 15.4677 34.8373C15.497 34.9328 15.5238 35.0309 15.5482 35.1315C15.5531 35.1466 15.558 35.1616 15.5629 35.1767C15.5629 35.1818 15.5629 35.1843 15.5629 35.1843C16.0826 37.1982 16.3901 39.363 16.3901 39.363L16.1851 39.3479C16.1851 39.3529 16.1851 39.3554 16.1851 39.3554C16.8146 41.1808 16.8366 43.8962 16.8366 43.8962L16.7048 43.9415C16.7097 43.9716 16.7122 44.0018 16.7122 44.032C16.717 44.0471 16.7195 44.0596 16.7195 44.0697C16.7341 44.1753 16.7488 44.291 16.7634 44.4167C16.8512 45.2087 16.9244 46.2722 16.9684 47.0039L17.0269 46.7776H16.983L17.9346 42.9534L18.0225 42.6064C17.9346 42.5813 17.8346 42.5511 17.7224 42.5159C18.1323 41.7541 18.5056 40.0871 18.7033 39.0839C18.7399 38.9029 18.7765 38.7445 18.7984 38.6163C18.6959 38.5936 18.5861 38.571 18.4544 38.5408C18.9156 37.6583 19.04 36.2554 19.0766 35.7726C18.9595 35.7651 18.8204 35.75 18.652 35.7349C19.1352 34.9278 19.2523 33.5324 19.2816 32.7102C19.2864 32.6599 19.2889 32.6122 19.2889 32.5669C19.2889 32.5619 19.2889 32.5594 19.2889 32.5594C19.2889 32.494 19.2889 32.4337 19.2889 32.3783H19.0912L19.2596 30.5304L18.8131 30.206L18.7911 30.1909L18.7618 29.6554L18.5203 30.1381L17.898 30.0325L17.8248 29.5498L17.5028 30.1155L15.6727 29.1953L15.475 28.5843L15.3506 29.3235L14.4648 29.0972L14.2379 28.4033L13.8939 29.2179L13.3814 28.9916ZM16.1046 51.0317C16.1143 51.0317 16.1217 51.0317 16.1265 51.0317C16.1265 51.0317 16.1265 51.0292 16.1265 51.0242C16.1265 51.0166 16.1119 51.0242 16.1046 51.0317ZM17.1807 7.02696H17.2758C17.2758 6.99176 17.2758 6.95656 17.2758 6.92136C17.1807 7.02696 17.1807 7.02696 17.1807 7.02696Z" fill="white"/>
</svg>
