<svg width="58" height="60" viewBox="0 0 58 60" fill="none" xmlns="http://www.w3.org/2000/svg">
<path d="M6.63617 0L6.66121 8.97361H8.28895L8.314 12.2162H10.4426V16.2882H10.7431V15.8861H11.7698V21.6925H12.2707L12.3959 59.9246H10.9434L10.8182 17.2434H10.0419L10.1671 59.9246H9.3908L9.26559 17.2434H8.26391L8.38912 59.9246H7.63785L7.51264 17.2434H6.51096L6.63617 59.9246H5.8849L5.73466 17.2434H4.73297L4.85818 59.9246H4.10692L3.98171 17.2434H2.98002L3.10523 59.9246H2.35397L2.20371 17.2434H1.20203L1.32724 59.9246H0.125211L0 20.5362V16.2882H1.82808L1.80304 12.2162H3.6812V8.97361H5.68457L5.63448 0H6.63617Z" fill="white"/>
<path fill-rule="evenodd" clip-rule="evenodd" d="M32.9055 23.452H34.8838L35.009 60H32.2043L32.1041 20.0586H31.9789L32.1041 60L16.9787 59.9749L16.8535 20.0586H16.7533L16.8785 59.9749H15.5262L15.4261 27.0968L15.376 26.5186H15.977L15.9519 19.3046H32.9055V23.452ZM34.5833 50.3477V48.6887H33.0557V50.3477H34.5833ZM34.5082 28.0519V26.4684H32.9806V28.0519H34.5082ZM34.5833 57.788V56.2296H33.0557V57.788H34.5833ZM34.5332 42.9074V41.3992H33.0056V42.9074H34.5332ZM34.5082 33.4813V31.9732H32.9556L32.9806 33.4813H34.5082ZM34.5082 35.4922V33.9841H32.9556L32.9806 35.4671L34.5082 35.4922ZM34.5082 40.9217V39.4386H32.9806V40.9217H34.5082ZM34.5583 55.752V54.3192H33.0056L33.0307 55.752H34.5583ZM34.4581 25.9908V24.558H32.9055L32.9305 25.9908H34.4581ZM34.5082 48.2111V46.8789H32.9806V48.2111H34.5082ZM22.8385 32.5513V31.3448H21.7367V32.5513H22.8385ZM22.8385 28.1776V26.9711H21.7367V28.1776H22.8385ZM22.8636 34.7382V33.5316H21.7617V34.7382H22.8636ZM22.8385 25.9908V24.7842H21.7367V25.9908H22.8385ZM22.8385 21.6171L22.8135 20.4105H21.7367V21.6171H22.8385ZM20.7851 32.5513V31.3448H19.6832V32.5513H20.7851ZM27.0206 28.1776V26.9711H25.9187V28.1776H27.0206ZM27.0456 32.5513V31.3448H25.9438V32.5513H27.0456ZM20.7851 28.1776V26.9711H19.6832V28.1776H20.7851ZM31.2026 28.1776V26.9711H30.1008V28.1776H31.2026ZM31.2277 32.5513V31.3448H30.1258V32.5513H31.2277ZM22.8886 30.3645V29.1579H21.7868V30.3645H22.8886ZM27.0456 25.9908V24.7842H25.9438V25.9908H27.0456ZM31.2527 34.7382L31.2277 33.5316H30.1508V34.7382H31.2527ZM20.8101 25.9908V24.7842H19.7083V25.9908H20.8101ZM31.2277 25.9908V24.7842H30.1258V25.9908H31.2277ZM20.8352 34.7382V33.5316H19.7333L19.7584 34.7382H20.8352ZM27.0707 34.7382V33.5316H25.9688V34.7382H27.0707ZM20.7851 21.6171V20.4105H19.6832V21.6171H20.7851ZM31.2026 21.6171V20.4105H30.1008V21.6171H31.2026ZM27.0456 21.6171V20.4105H25.9438V21.6171H27.0456ZM31.2527 30.3645L31.2277 29.1579H30.1508V30.3645H31.2527ZM27.0707 30.3645V29.1579H25.9688L25.9938 30.3645H27.0707ZM20.8101 30.3645V29.1579H19.7083V30.3645H20.8101ZM27.0456 23.8039V22.5974H25.9438V23.8039H27.0456ZM20.8101 23.8039V22.5974H19.7083V23.8039H20.8101ZM31.2277 23.8039V22.5974H30.1258V23.8039H31.2277ZM22.9387 41.2987V40.0922H21.8368L21.8619 41.2987H22.9387ZM22.9637 54.4198V53.2132H21.8619V54.4198H22.9637ZM22.9637 47.8592L22.9387 46.6527H21.8619V47.8592H22.9637ZM22.9387 45.6724V44.4658H21.8368L21.8619 45.6724H22.9387ZM22.9137 43.4855V42.279H21.8118L21.8368 43.4855H22.9137ZM20.8602 54.4198V53.2132H19.7584V54.4198H20.8602ZM27.0957 54.4198V53.2132H25.9938L26.0189 54.4198H27.0957ZM31.2527 54.4198V53.2132H30.1508V54.4198H31.2527ZM27.0456 41.2987V40.0922H25.9438V41.2987H27.0456ZM20.8101 41.2987V40.0922H19.7083V41.2987H20.8101ZM31.2277 41.2987V40.0922H30.1258V41.2987H31.2277ZM22.9637 58.7935L22.9387 57.5869H21.8619V58.7935H22.9637ZM22.9387 56.6066V55.4001H21.8619V56.6066H22.9387ZM22.8886 39.1118L22.8636 37.9053H21.7868V39.1118H22.8886ZM22.9137 52.2329V51.0264H21.8118L21.8368 52.2329H22.9137ZM27.0456 43.4855V42.279H25.9438V43.4855H27.0456ZM31.2026 43.4855V42.279H30.1008L30.1258 43.4855H31.2026ZM27.0206 45.6724V44.4658H25.9187L25.9438 45.6724H27.0206ZM27.0206 47.8592V46.6527H25.9187V47.8592H27.0206ZM20.76 45.6724V44.4658H19.6582L19.6832 45.6724H20.76ZM20.76 47.8592V46.6527H19.6582V47.8592H20.76ZM20.735 43.4855V42.279H19.6582V43.4855H20.735ZM31.1525 47.8592V46.6527H30.0507V47.8592H31.1525ZM31.1525 45.6724V44.4658H30.0507V45.6724H31.1525ZM26.9955 50.0461V48.8395H25.8937V50.0461H26.9955ZM20.735 39.1118V37.9053H19.6331V39.1118H20.735ZM31.2026 56.6066V55.4001H30.1008V56.6066H31.2026ZM31.1776 50.0461V48.8395H30.0757V50.0461H31.1776ZM20.8101 58.7935L20.7851 57.5869H19.7083V58.7935H20.8101ZM31.1525 39.1118V37.9053H30.0507V39.1118H31.1525ZM27.0456 56.6066V55.4001H25.9438V56.6066H27.0456ZM31.2277 58.7935V57.5869H30.1258V58.7935H31.2277ZM26.9955 39.1118V37.9053H25.9187V39.1118H26.9955ZM27.0456 58.7935V57.5869H25.9438V58.7935H27.0456ZM20.7851 50.0461V48.8395H19.6832V50.0461H20.7851ZM31.1525 36.925V35.7185H30.0507V36.925H31.1525ZM20.7851 52.2329V51.0264H19.6832L19.7083 52.2329H20.7851ZM31.1776 52.2329V51.0264H30.0757L30.1008 52.2329H31.1776ZM26.9955 52.2329V51.0264H25.8937V52.2329H26.9955ZM26.9705 36.925L26.9454 35.7185H25.8686V36.925H26.9705ZM20.7099 36.8999V35.7185H19.6081V36.8999H20.7099ZM29.0239 32.5513V31.3448H27.9471V32.5513H29.0239ZM24.8419 28.1776V26.9711H23.7401V28.1776H24.8419ZM18.6064 32.5513V31.3448H17.5046L17.5296 32.5513H18.6064ZM18.5814 28.1525V26.9711H17.4795V28.1525H18.5814ZM24.8419 32.5513V31.3448H23.7401L23.7651 32.5513H24.8419ZM28.9739 25.9908V24.7842H27.872V25.9908H28.9739ZM18.6064 34.7382V33.5316H17.5046V34.7382H18.6064ZM24.8169 25.9656V24.7842H23.715L23.7401 25.9656H24.8169ZM18.5563 25.9656V24.7842L17.4545 24.7591V25.9656H18.5563ZM28.9989 34.7382V33.5316H27.897L27.9221 34.7382H28.9989ZM28.9488 21.5919V20.4105L27.847 20.3854V21.5919H28.9488ZM18.5313 21.5919V20.3854H17.4545V21.5919H18.5313ZM24.7668 21.5919V20.3854H23.6649V21.5919H24.7668ZM28.9739 30.3645V29.1579H27.872V30.3393L28.9739 30.3645ZM24.8169 30.3645V29.1831H23.715V30.3645H24.8169ZM28.9739 23.8039L28.9488 22.5974H27.872V23.8039H28.9739ZM18.5563 23.8039V22.5974H17.4545V23.8039H18.5563ZM24.8169 23.8039V22.5974H23.715V23.8039H24.8169ZM18.6565 54.4449V53.2384H17.5797V54.4449H18.6565ZM24.892 54.4449V53.2384H23.7901V54.4449H24.892ZM18.6064 41.2987V40.1173H17.5046L17.5296 41.2987H18.6064ZM24.8419 41.2987V40.1173H23.7401V41.2987H24.8419ZM29.0239 41.2987V40.1173H27.9221V41.2987H29.0239ZM29.074 54.4449L29.049 53.2384H27.9722V54.4449H29.074ZM24.892 47.8592V46.6778H23.7901V47.8592H24.892ZM29.049 47.8592V46.6778H27.9471L27.9722 47.8592H29.049ZM29.0239 43.4855V42.3041H27.9221V43.4855H29.0239ZM18.6315 45.6724V44.491H17.5296V45.6724H18.6315ZM24.892 45.6724L24.8669 44.491H23.7901V45.6724H24.892ZM24.892 43.4855L24.8669 42.3041H23.7901V43.4855H24.892ZM18.6565 47.8592V46.6778H17.5546V47.8592H18.6565ZM18.6565 43.4855L18.6315 42.279H17.5546V43.4855H18.6565ZM29.049 39.1118V37.9304L27.9471 37.9053V39.1118H29.049ZM18.6815 50.0461V48.8647H17.5797V50.0461H18.6815ZM24.892 39.1118V37.9053H23.7901L23.8152 39.1118H24.892ZM29.0991 58.7935V57.6121H28.0223V58.7935H29.0991ZM24.892 50.0461V48.8647H23.7901L23.8152 50.0461H24.892ZM24.917 58.7935L24.892 57.6121H23.8152V58.7935H24.917ZM18.6064 39.1118V37.9053H17.5046V39.1118H18.6064ZM18.6565 56.6066V55.4252H17.5797V56.6066H18.6565ZM24.892 56.6066V55.4252H23.7901V56.6066H24.892ZM18.6565 58.7935V57.6121H17.5546L17.5797 58.7935H18.6565ZM18.5814 36.925V35.7185H17.4795V36.925H18.5814ZM24.8669 52.2329V51.0515H23.7901V52.2329H24.8669ZM18.6064 52.2329V51.0515H17.5046L17.5296 52.2329H18.6064ZM24.7918 36.925V35.7185H23.69V36.925H24.7918ZM29.0239 52.2329V51.0515H27.9221V52.2329H29.0239ZM28.9739 36.925V35.7185H27.872V36.925H28.9739Z" fill="white"/>
<path fill-rule="evenodd" clip-rule="evenodd" d="M51.6584 59.9065L51.4429 13.6607L50.5194 13.6918L50.7349 59.9065H48.3645L48.149 13.6918H47.2563L47.441 59.9376H45.0398L44.8243 17.2468L44.4241 17.278L44.6088 59.9376H43.4082L43.3775 59.1269C43.2235 58.7215 43.1312 58.5655 43.0388 58.5032C43.0183 58.5032 43.0081 58.5032 43.0081 58.5032C42.9875 58.4824 42.9773 58.472 42.9773 58.472C42.6694 58.5344 42.5155 59.0021 42.4847 59.0957C42.4847 59.1165 42.4847 59.1269 42.4847 59.1269V59.9688H41.8383V59.1269C41.6228 58.6279 41.4996 58.5032 41.4073 58.472C41.1302 58.5344 40.9763 59.0021 40.9455 59.1269V59.9688L38.1441 60V59.5322H38.729V59.2516H38.1441V57.5988H38.6983V57.3182H38.1441V55.6654H38.6983V55.3848H38.1441V53.732H38.6983V53.4514H38.1441V51.7986H38.6983V51.518H38.1441V49.8652H38.6675V49.5846H38.1441V47.9318H38.6675V47.6512H38.1441V45.9984H38.6675V45.7178H38.1441V44.065H38.6367V43.7843H38.1441V42.1316H38.6367V41.8509H38.1441V38.2648H38.6367V37.9841H38.1441V36.3314H38.6059V36.0507H38.1441V34.5227H39.1908C39.1703 34.3564 39.16 34.2005 39.16 34.055C39.16 33.8679 39.1703 33.6807 39.1908 33.4936C39.1908 33.4729 39.1908 33.4521 39.1908 33.4313C39.1908 33.4105 39.2011 33.3793 39.2216 33.3377C39.2216 33.1922 39.2318 33.0571 39.2524 32.9323C39.2729 32.8908 39.2831 32.8492 39.2831 32.8076C39.3242 32.6621 39.3652 32.5166 39.4063 32.371C39.4063 32.3502 39.4063 32.319 39.4063 32.2775C39.4473 32.1527 39.4986 32.028 39.5602 31.9033C39.5807 31.8825 39.591 31.8513 39.591 31.8097C39.6526 31.685 39.7141 31.5706 39.7757 31.4667C39.7757 31.4459 39.786 31.4355 39.8065 31.4355C39.8681 31.3108 39.9399 31.1964 40.022 31.0925C40.022 31.0717 40.0322 31.0613 40.0528 31.0613C40.1143 30.9574 40.1862 30.8638 40.2682 30.7806C40.2682 30.7599 40.2785 30.7495 40.299 30.7495C40.3811 30.6455 40.4735 30.552 40.5761 30.4688C40.5966 30.448 40.6171 30.4272 40.6377 30.4064C40.7813 30.3025 40.925 30.2089 41.0686 30.1258C41.0686 30.105 41.0789 30.0946 41.0994 30.0946C41.1199 30.0738 41.1302 30.0634 41.1302 30.0634C41.1302 30.0634 41.1405 30.0634 41.161 30.0634C41.161 30.0634 41.161 30.053 41.161 30.0322C41.1815 30.0322 41.1918 30.0322 41.1918 30.0322C41.2533 29.9907 41.3149 29.9595 41.3765 29.9387C41.397 29.9179 41.4175 29.9075 41.438 29.9075C41.438 29.9075 41.4483 29.8971 41.4688 29.8763C41.592 29.8139 41.7151 29.762 41.8383 29.7204C41.8793 29.6996 41.9203 29.6892 41.9614 29.6892C42.0435 29.6476 42.1358 29.6164 42.2384 29.5956C42.3205 29.5541 42.4129 29.5229 42.5155 29.5021C42.5155 29.5021 42.5258 29.5021 42.5463 29.5021C42.5463 29.5021 42.5565 29.5021 42.5771 29.5021C42.5976 29.5021 42.6079 29.4917 42.6079 29.4709C42.6079 29.4709 42.6181 29.4709 42.6386 29.4709C42.6386 29.4709 42.6489 29.4709 42.6694 29.4709C42.7105 29.4709 42.7618 29.4605 42.8233 29.4397C42.8233 29.4397 42.8336 29.4397 42.8541 29.4397C42.8952 29.4397 42.9362 29.4293 42.9773 29.4086C42.9978 29.4086 43.0183 29.4086 43.0388 29.4086C43.0594 29.4086 43.0799 29.4086 43.1004 29.4086C43.1415 29.4086 43.1722 29.3982 43.1928 29.3774C43.2133 29.3774 43.2338 29.3774 43.2543 29.3774C43.2748 29.3774 43.2954 29.3774 43.3159 29.3774C43.3364 29.3774 43.3569 29.3774 43.3775 29.3774C43.398 29.3774 43.4082 29.3774 43.4082 29.3774L43.3467 16.436H44.732L44.7012 12.694H46.0865L52.3665 12.6316H54.0288V15.4069H54.6445V16.4984L54.6753 16.9973V20.8953L57.0149 20.8641V18.9307L56.9841 18.4318V15.3758H57.8769V17.3404L57.9076 18.9307H58V59.8753L51.6584 59.9065ZM57.1688 58.7215L54.86 58.7526V59.5634H57.1996L57.1688 58.7215ZM57.138 56.7881H54.7984L54.8292 57.63L57.138 57.5988V56.7881ZM57.138 54.8546L54.7984 54.8858V55.6966H57.138V54.8546ZM57.138 52.9212H54.7984V53.7632H54.8292L56.9841 53.732H57.138V52.9212ZM57.138 50.9878L54.7984 51.019V51.8298H57.138V50.9878ZM57.138 49.0544H54.7984V49.8964H57.138V49.0544ZM57.1072 47.121H54.7984V47.963L56.9533 47.9318H57.138L57.1072 47.121ZM57.0765 45.1876L54.7676 45.2188V46.0296H57.0765V45.1876ZM57.0765 43.2542H54.7369L54.7676 44.0962L57.0765 44.065V43.2542ZM57.0765 41.3208L54.7369 41.352V42.1628H57.0765V41.3208ZM57.0765 39.3874H54.7369V40.2294L56.9226 40.1982H57.0765V39.3874ZM57.0765 37.454L54.7369 37.4852V38.296H57.0765V37.454ZM57.0765 35.5206H54.7369V36.3626L56.8918 36.3314H57.0765V35.5206ZM57.0457 33.5872L54.7369 33.6184V34.4292H57.0457V33.5872ZM57.0457 31.6538H54.7061L54.7369 32.4958H57.0457V31.6538ZM57.0457 29.6892L54.7061 29.7204V30.5624L57.0457 30.5312V29.6892ZM57.0457 27.7558H54.7061V28.5978H57.0457V27.7558ZM57.0457 25.8224H54.7061V26.6644L56.861 26.6332H57.0457V25.8224ZM57.0149 23.889L54.7061 23.9202V24.731H57.0457L57.0149 23.889ZM54.6753 21.9556V22.7976L56.9841 22.7664V21.9556H54.6753ZM40.8224 34.9593H41.7459L41.7151 31.4667C41.6946 31.4043 41.6741 31.3523 41.6535 31.3108C41.6535 31.29 41.6433 31.2796 41.6228 31.2796C41.4996 30.9366 41.3765 30.8118 41.2533 30.8118C41.2328 30.8118 41.2123 30.8118 41.1918 30.8118C41.1507 30.8326 41.1199 30.8534 41.0994 30.8742C41.0789 30.895 41.0686 30.9054 41.0686 30.9054C41.0481 30.9262 41.0379 30.9366 41.0379 30.9366C41.0379 30.9366 41.0276 30.947 41.0071 30.9677C41.0071 30.9885 40.9968 31.0093 40.9763 31.0301C40.9763 31.0301 40.966 31.0405 40.9455 31.0613C40.9455 31.0821 40.9352 31.1029 40.9147 31.1237C40.9147 31.1445 40.9147 31.1652 40.9147 31.186C40.8942 31.186 40.8839 31.1964 40.8839 31.2172C40.8634 31.238 40.8532 31.2588 40.8532 31.2796C40.8532 31.3004 40.8532 31.3108 40.8532 31.3108C40.8532 31.3108 40.8532 31.3212 40.8532 31.342C40.8326 31.342 40.8224 31.342 40.8224 31.342C40.8224 31.3627 40.8224 31.3731 40.8224 31.3731C40.8224 31.3731 40.8224 31.3835 40.8224 31.4043C40.8224 31.4043 40.8121 31.4147 40.7916 31.4355C40.7916 31.4563 40.7916 31.4667 40.7916 31.4667L40.8224 34.9593ZM40.8532 40.4789H41.7767L41.7459 36.9551C41.7254 36.9135 41.7049 36.8615 41.6843 36.7991C41.6843 36.7991 41.6843 36.7887 41.6843 36.768C41.5304 36.4561 41.4073 36.3314 41.3149 36.3002C41.2944 36.3002 41.2841 36.3002 41.2841 36.3002C41.2841 36.321 41.2739 36.3314 41.2533 36.3314C41.2533 36.3314 41.2431 36.3314 41.2226 36.3314C41.202 36.3314 41.1815 36.3418 41.161 36.3626C41.161 36.3626 41.1507 36.373 41.1302 36.3938C41.1097 36.4145 41.0994 36.4249 41.0994 36.4249C41.0789 36.4457 41.0686 36.4665 41.0686 36.4873C41.0481 36.4873 41.0379 36.4873 41.0379 36.4873C41.0379 36.5081 41.0276 36.5185 41.0071 36.5185C41.0071 36.5393 41.0071 36.5601 41.0071 36.5809C40.9866 36.6017 40.9763 36.6224 40.9763 36.6432C40.9558 36.6432 40.9455 36.6536 40.9455 36.6744C40.925 36.6952 40.9147 36.716 40.9147 36.7368C40.9147 36.7576 40.9045 36.7784 40.8839 36.7991C40.8839 36.7991 40.8839 36.8095 40.8839 36.8303C40.8839 36.8511 40.8737 36.8615 40.8532 36.8615C40.8532 36.8823 40.8532 36.8927 40.8532 36.8927C40.8532 36.8927 40.8532 36.9031 40.8532 36.9239C40.8532 36.9239 40.8532 36.9343 40.8532 36.9551V40.4789ZM40.8532 45.9984H41.7767L41.7459 42.4746C41.7459 42.433 41.7356 42.3915 41.7151 42.3499C41.592 42.0381 41.4688 41.8821 41.3457 41.8198C41.3252 41.8198 41.3046 41.8198 41.2841 41.8198C41.2841 41.8198 41.2739 41.8198 41.2533 41.8198C41.2328 41.8406 41.2226 41.8509 41.2226 41.8509C41.202 41.8509 41.1918 41.8509 41.1918 41.8509C41.1713 41.8717 41.161 41.8821 41.161 41.8821C41.1405 41.9029 41.1199 41.9237 41.0994 41.9445C41.0994 41.9445 41.0892 41.9549 41.0686 41.9757C41.0686 41.9965 41.0584 42.0173 41.0379 42.0381C41.0173 42.0588 41.0071 42.0692 41.0071 42.0692C41.0071 42.09 40.9968 42.1108 40.9763 42.1316C40.9763 42.1524 40.9763 42.1628 40.9763 42.1628C40.9558 42.1628 40.9455 42.1732 40.9455 42.194C40.9455 42.194 40.9455 42.2044 40.9455 42.2252C40.9455 42.2252 40.9352 42.2355 40.9147 42.2563C40.9147 42.2563 40.9147 42.2667 40.9147 42.2875C40.8839 42.3811 40.8532 42.4746 40.8532 42.4746V45.9984ZM40.8839 51.5492L41.8075 51.518L41.7767 48.0254C41.7562 47.963 41.7356 47.911 41.7151 47.8694C41.7151 47.8487 41.7049 47.8383 41.6843 47.8383C41.5612 47.4952 41.4381 47.3705 41.3149 47.3705C41.2944 47.3705 41.2739 47.3705 41.2533 47.3705C41.2123 47.3913 41.1815 47.4121 41.161 47.4329C41.1405 47.4537 41.1199 47.4745 41.0994 47.4952C41.0994 47.4952 41.0892 47.5056 41.0686 47.5264C41.0686 47.5264 41.0686 47.5368 41.0686 47.5576C41.0686 47.5576 41.0584 47.568 41.0379 47.5888C41.0379 47.6096 41.0276 47.62 41.0071 47.62C41.0071 47.6408 40.9968 47.6616 40.9763 47.6823C40.9763 47.7031 40.9763 47.7239 40.9763 47.7447C40.9558 47.7447 40.9455 47.7551 40.9455 47.7759C40.9455 47.7967 40.9455 47.8071 40.9455 47.8071C40.925 47.8279 40.9147 47.8383 40.9147 47.8383C40.9147 47.859 40.9147 47.8694 40.9147 47.8694C40.8942 47.911 40.8839 47.9422 40.8839 47.963C40.8839 47.963 40.8839 47.9734 40.8839 47.9942C40.8634 47.9942 40.8532 47.9942 40.8532 47.9942C40.8532 48.015 40.8532 48.0254 40.8532 48.0254L40.8839 51.518V51.5492ZM41.8075 57.0687L41.7767 53.5449C41.7562 53.4618 41.7356 53.389 41.7151 53.3266C41.592 53.046 41.4688 52.9212 41.3765 52.8901C41.356 52.8901 41.3354 52.8901 41.3149 52.8901C41.3149 52.8901 41.3046 52.8901 41.2841 52.8901C41.2226 52.9109 41.161 52.9524 41.0994 53.0148C41.0994 53.0356 41.0994 53.046 41.0994 53.046C41.0789 53.0668 41.0686 53.0876 41.0686 53.1084C41.0686 53.1084 41.0584 53.1187 41.0379 53.1395C41.0173 53.1603 41.0071 53.1811 41.0071 53.2019C41.0071 53.2227 40.9968 53.2331 40.9763 53.2331C40.9763 53.2331 40.9763 53.2435 40.9763 53.2643C40.9763 53.2851 40.966 53.3058 40.9455 53.3266C40.9455 53.3474 40.9455 53.3578 40.9455 53.3578C40.925 53.3786 40.9147 53.3994 40.9147 53.4202C40.9147 53.441 40.9147 53.4514 40.9147 53.4514C40.9147 53.4722 40.9045 53.4826 40.8839 53.4826C40.8839 53.5033 40.8839 53.5137 40.8839 53.5137C40.8839 53.5345 40.8839 53.5449 40.8839 53.5449V57.0687H41.8075ZM42.3308 34.9281H43.2543L43.2235 31.4355C43.203 31.3731 43.1825 31.3212 43.162 31.2796C43.162 31.2588 43.162 31.2484 43.162 31.2484C43.0081 30.9054 42.8849 30.7806 42.7926 30.7806C42.772 30.7806 42.7618 30.7806 42.7618 30.7806C42.7413 30.7806 42.731 30.7806 42.731 30.7806C42.6694 30.8014 42.6079 30.843 42.5463 30.9054C42.5463 30.9054 42.5463 30.9158 42.5463 30.9366C42.5258 30.9366 42.5155 30.947 42.5155 30.9677C42.495 30.9885 42.4847 31.0093 42.4847 31.0301C42.4642 31.0509 42.4539 31.0717 42.4539 31.0925C42.4334 31.0925 42.4231 31.1029 42.4231 31.1237C42.4231 31.1445 42.4129 31.1652 42.3924 31.186C42.3924 31.2068 42.3924 31.2172 42.3924 31.2172C42.3924 31.2172 42.3924 31.2276 42.3924 31.2484C42.3718 31.2692 42.3616 31.2796 42.3616 31.2796C42.3616 31.3004 42.3616 31.3108 42.3616 31.3108C42.3616 31.3108 42.3616 31.3212 42.3616 31.342C42.3411 31.342 42.3308 31.3523 42.3308 31.3731C42.3308 31.3939 42.3308 31.4147 42.3308 31.4355V34.9281ZM42.3308 40.4477H43.2543L43.2235 36.9239C43.203 36.8823 43.1825 36.8303 43.162 36.768C43.162 36.768 43.162 36.7576 43.162 36.7368C43.0388 36.4249 42.8849 36.3002 42.7926 36.269C42.7926 36.269 42.7823 36.269 42.7618 36.269C42.7618 36.269 42.7515 36.2794 42.731 36.3002C42.7105 36.3002 42.6797 36.3106 42.6386 36.3314C42.6386 36.3314 42.6386 36.3418 42.6386 36.3626C42.6181 36.3626 42.5976 36.373 42.5771 36.3938C42.5771 36.3938 42.5668 36.4041 42.5463 36.4249C42.5463 36.4457 42.536 36.4665 42.5155 36.4873C42.495 36.5081 42.4847 36.5185 42.4847 36.5185C42.4847 36.5393 42.4745 36.5601 42.4539 36.5809C42.4539 36.6017 42.4437 36.6224 42.4231 36.6432C42.4231 36.664 42.4231 36.6848 42.4231 36.7056C42.4026 36.7056 42.3924 36.716 42.3924 36.7368C42.3924 36.7576 42.3821 36.7784 42.3616 36.7991C42.3616 36.8199 42.3616 36.8303 42.3616 36.8303C42.3616 36.8511 42.3616 36.8615 42.3616 36.8615C42.3411 36.8615 42.3308 36.8719 42.3308 36.8927C42.3308 36.9135 42.3308 36.9239 42.3308 36.9239V40.4477ZM42.3616 45.9984H43.2851V45.9672L43.2543 42.4746C43.1004 42.0692 42.9773 41.8821 42.8541 41.8198C42.8336 41.8198 42.8131 41.8198 42.7926 41.8198C42.772 41.8198 42.7515 41.8198 42.731 41.8198C42.6386 41.8509 42.5463 41.9757 42.4847 42.0692C42.4847 42.09 42.4745 42.1108 42.4539 42.1316C42.4539 42.1524 42.4539 42.1628 42.4539 42.1628C42.4539 42.1628 42.4539 42.1732 42.4539 42.194C42.4334 42.2148 42.4231 42.2355 42.4231 42.2563C42.4026 42.2563 42.3924 42.2667 42.3924 42.2875C42.3924 42.3083 42.3821 42.3291 42.3616 42.3499C42.3616 42.4123 42.3308 42.4746 42.3308 42.4746L42.3616 45.9984ZM42.3924 51.518H43.3159L43.2851 48.0254C43.2646 47.963 43.2441 47.911 43.2235 47.8694C43.2235 47.8487 43.2235 47.8383 43.2235 47.8383C43.0696 47.4952 42.9465 47.3705 42.8233 47.3705C42.8028 47.3705 42.7926 47.3705 42.7926 47.3705C42.7515 47.3705 42.7207 47.3809 42.7002 47.4017C42.6797 47.4225 42.6694 47.4329 42.6694 47.4329C42.6489 47.4329 42.6386 47.4433 42.6386 47.4641C42.6386 47.4641 42.6284 47.4745 42.6079 47.4952C42.5873 47.516 42.5668 47.5368 42.5463 47.5576C42.5463 47.5784 42.5463 47.5992 42.5463 47.62C42.5258 47.6408 42.5155 47.6616 42.5155 47.6823C42.495 47.6823 42.4847 47.6927 42.4847 47.7135C42.4642 47.7343 42.4539 47.7551 42.4539 47.7759C42.4539 47.7967 42.4539 47.8071 42.4539 47.8071C42.4334 47.8071 42.4231 47.8175 42.4231 47.8383C42.4231 47.8383 42.4231 47.8487 42.4231 47.8694C42.4231 47.8902 42.4231 47.9006 42.4231 47.9006C42.4231 47.9006 42.4129 47.9006 42.3924 47.9006C42.3924 47.9006 42.3924 47.911 42.3924 47.9318C42.3924 47.9526 42.3924 47.963 42.3924 47.963C42.3924 47.963 42.3924 47.9734 42.3924 47.9942C42.3924 47.9942 42.3821 47.9942 42.3616 47.9942C42.3616 48.015 42.3616 48.0254 42.3616 48.0254L42.3924 51.518ZM43.3467 57.0375L43.3159 53.5137C43.2954 53.4722 43.2748 53.4202 43.2543 53.3578C43.2543 53.3578 43.2543 53.3474 43.2543 53.3266C43.1004 53.0148 42.9773 52.8901 42.8849 52.8589C42.8644 52.8589 42.8541 52.8589 42.8541 52.8589C42.8336 52.8589 42.8131 52.8693 42.7926 52.8901C42.731 52.9109 42.6797 52.9524 42.6386 53.0148C42.6181 53.0356 42.6079 53.0564 42.6079 53.0772C42.5873 53.098 42.5771 53.1187 42.5771 53.1395C42.5565 53.1603 42.5463 53.1707 42.5463 53.1707C42.5258 53.1915 42.5155 53.2123 42.5155 53.2331C42.5155 53.2539 42.5052 53.2747 42.4847 53.2955C42.4847 53.2955 42.4847 53.3058 42.4847 53.3266C42.4642 53.3474 42.4539 53.3578 42.4539 53.3578C42.4539 53.3578 42.4539 53.3682 42.4539 53.389C42.4539 53.4098 42.4539 53.4202 42.4539 53.4202C42.4334 53.441 42.4231 53.4514 42.4231 53.4514C42.4231 53.4722 42.4231 53.4826 42.4231 53.4826C42.4231 53.4826 42.4231 53.493 42.4231 53.5137V57.0375H43.3467ZM45.7786 14.9704H46.6714V13.0058H45.7786V14.9704ZM45.7786 17.7146L46.6714 17.6834V15.7188L45.7786 15.75V17.7146ZM45.8094 20.4276H46.7022V19.7727L46.6714 19.1178V18.463H45.7786V19.1178L45.8094 19.7727V20.4276ZM45.8094 22.4857H46.7022V21.176H45.8094V22.4857ZM45.8094 25.1987H46.7022V23.889H45.8094V25.1987ZM45.8094 27.9429L46.7022 27.9117V26.602H45.8094V27.9429ZM45.8402 30.6559H46.7022V29.3462H45.8094L45.8402 30.6559ZM46.7637 33.3689L46.7329 32.0592H45.871V33.3689H46.7637ZM45.871 36.1131H46.7637V34.8034H45.871V36.1131ZM46.7637 38.8261V37.5164H45.871V38.8261H46.7637ZM45.9326 41.5391H46.8253L46.7945 40.2294H45.9326V41.5391ZM45.9326 46.9651H46.8253V45.6554H45.9326V46.9651ZM45.9633 49.6781H46.8253V48.3684H45.9326L45.9633 49.6781ZM45.9633 52.3911H46.8561V51.0814H45.9633V52.3911ZM45.9633 55.1353L46.6406 55.1041H46.8561V53.7944L45.9633 53.8256V55.1353ZM46.8561 57.8171V56.5074L45.9633 56.5386V57.8483L46.8561 57.8171ZM48.9186 14.9704H49.8114V13.0058L48.9186 13.037V14.9704ZM48.9494 17.6834H49.8422V17.0285L49.8114 16.3425V15.7188H48.9186L48.9494 16.3737V17.6834ZM48.9494 20.3964H49.8422V18.4318H48.9494V20.3964ZM48.9494 22.4857L49.6267 22.4545H49.8422V21.1448L48.9494 21.176V22.4857ZM48.9494 25.1987H49.8422V23.8578L48.9494 23.889V25.1987ZM48.9802 27.9117H49.8729L49.8422 26.5708L48.9494 26.602L48.9802 27.9117ZM49.011 30.6247H49.9037V29.315H49.011V30.6247ZM49.011 33.3377H49.9037V32.028H49.011V33.3377ZM49.011 36.0507H49.9037V34.741H49.011V36.0507ZM49.011 38.7637H49.9037V37.454H49.011V38.7637ZM49.0418 41.4767H49.9345L49.9037 40.167H49.011L49.0418 41.4767ZM49.0726 44.1897H49.9653V42.88H49.0726V44.1897ZM49.9653 46.9027V45.593H49.0726V46.9027H49.9653ZM49.0726 49.6469H49.9653V48.306L49.0726 48.3372V49.6469ZM49.9961 52.3599L49.9653 51.0502H49.0726L49.1033 52.3599H49.9961ZM49.1033 55.0729H49.9961V53.7632H49.1033V55.0729ZM49.9961 57.7859V56.4762H49.1033V57.7859H49.9961ZM52.2741 56.4762V57.7859H53.1669V56.4762H52.2741ZM53.1053 53.732L52.2125 53.7632V55.0729H53.1053V53.732ZM53.1053 50.9878L52.2125 51.019V52.3288H52.8898L53.1053 52.2976V50.9878ZM53.1053 48.2748H52.2125V49.6157L53.1053 49.5846V48.2748ZM53.1053 45.5618H52.2125V46.9027L53.1053 46.8716V45.5618ZM53.0745 42.8488H52.1818L52.2125 44.1586H53.1053L53.0745 42.8488ZM53.0437 40.1358H52.151V41.4456H53.0437V40.1358ZM53.0437 37.4228H52.151V38.7326H53.0437V37.4228ZM53.0437 34.7098H52.151V36.0195H53.0437V34.7098ZM53.0437 31.9968H52.151V33.3065H53.0437V31.9968ZM53.0129 29.2838H52.1202L52.151 30.5935H53.0437L53.0129 29.2838ZM52.9821 26.5708H52.0894V27.8805H52.9821V26.5708ZM52.9821 23.8578H52.0894V25.1675H52.9821V23.8578ZM52.9514 18.4318H52.0586V19.0555L52.0894 19.7415V20.3964L52.9821 20.3652V19.7415L52.9514 19.0555V18.4318ZM52.0586 13.0058V14.9704H52.9514V13.0058H52.0586Z" fill="white"/>
</svg>
