<svg width="223" height="223" viewBox="0 0 223 223" fill="none" xmlns="http://www.w3.org/2000/svg">
<path opacity="0.1" d="M222.948 111.474C222.948 49.8999 173.048 0 111.474 0C49.8999 0 0 49.8999 0 111.474C0 173.048 49.8999 223 111.474 223C173.048 223 222.948 173.048 222.948 111.474Z" fill="white"/>
<path opacity="0.1" d="M194.744 111.474C194.744 65.5004 157.448 28.2046 111.474 28.2046C65.4999 28.2046 28.2041 65.5004 28.2041 111.474C28.2041 157.5 65.4999 194.796 111.474 194.796C157.448 194.796 194.744 157.5 194.744 111.474Z" fill="white"/>
<path opacity="0.1" d="M176.096 111.474C176.096 75.7795 147.169 46.8521 111.475 46.8521C75.78 46.8521 46.8525 75.7795 46.8525 111.474C46.8525 147.168 75.78 176.096 111.475 176.096C147.169 176.096 176.096 147.168 176.096 111.474Z" fill="white"/>
<path d="M163.337 111.474C163.337 82.8567 140.092 59.6631 111.474 59.6631C82.8566 59.6631 59.6113 82.8567 59.6113 111.474C59.6113 140.144 82.8566 163.337 111.474 163.337C140.092 163.337 163.337 140.144 163.337 111.474Z" fill="url(#paint0_linear_183_920)"/>
<path d="M112.146 82.8048C112.146 78.0524 108.323 74.1782 103.571 74.1782C98.8186 74.1782 94.9443 78.0524 94.9443 82.8048C94.9443 87.5572 98.8186 91.3798 103.571 91.3798C108.323 91.3798 112.146 87.5572 112.146 82.8048Z" fill="#FFE4BF"/>
<path d="M131 121.753C122.839 121.753 116.227 128.417 116.227 136.579C116.227 144.74 122.839 151.352 131 151.352C139.214 151.352 145.826 144.74 145.826 136.579C145.826 128.417 139.214 121.753 131 121.753Z" fill="#FFE4BF"/>
<path d="M161.322 114.573C156.57 114.573 152.695 118.396 152.695 123.148C152.695 127.229 155.536 130.587 159.307 131.517C161.477 126.299 162.82 120.669 163.233 114.78C162.613 114.642 161.976 114.573 161.322 114.573Z" fill="#FFE4BF"/>
<path d="M96.8037 118.861C96.8037 121.237 98.7666 123.148 101.091 123.148C103.467 123.148 105.43 121.237 105.43 118.861C105.43 116.485 103.467 114.573 101.091 114.573C98.7666 114.573 96.8037 116.485 96.8037 118.861Z" fill="#FFE4BF"/>
<path d="M134.513 65.2419C127.539 61.8326 119.739 59.8696 111.474 59.8696C106.05 59.8696 100.833 60.6961 95.9258 62.2458C99.9033 69.3744 107.497 74.1784 116.227 74.1784C123.665 74.1784 130.277 70.7174 134.513 65.2419Z" fill="#FFE4BF"/>
<path d="M107.135 163.13C108.737 159.514 109.563 155.537 109.563 151.352C109.563 135.029 96.3392 121.753 80.0158 121.753C73.3522 121.753 67.1534 123.975 62.2461 127.694C68.5998 147.065 86.0596 161.425 107.135 163.13Z" fill="#FFE4BF"/>
<path d="M125.577 111.474C125.577 106.721 121.702 102.899 116.95 102.899C112.198 102.899 108.375 106.721 108.375 111.474C108.375 116.226 112.198 120.1 116.95 120.1C121.702 120.1 125.577 116.226 125.577 111.474Z" fill="#FFE4BF"/>
<path d="M83.1145 99.7483C85.439 99.7483 87.402 97.837 87.402 95.4608C87.402 93.0846 85.439 91.1733 83.1145 91.1733C80.7383 91.1733 78.7754 93.0846 78.7754 95.4608C78.7754 97.837 80.7383 99.7483 83.1145 99.7483Z" fill="#FFE4BF"/>
<path d="M141.633 71C135.843 75.0799 132 81.7789 132 89.3845C132 101.876 142.35 112 155.058 112C157.825 112 160.54 111.496 163 110.64C162.539 94.3206 154.238 79.9152 141.633 71Z" fill="#FFE4BF"/>
<path opacity="0.5" d="M111.5 61.4336C83.2878 61.4336 60.4104 84.9027 60.0513 114C60.0171 113.752 60 113.504 60 113.257C60 83.8407 83.0827 60 111.5 60C139.917 60 163 83.8407 163 113.257C163 113.504 162.983 113.752 162.949 114C162.59 84.9027 139.712 61.4336 111.5 61.4336Z" fill="white"/>
<defs>
<linearGradient id="paint0_linear_183_920" x1="41508.4" y1="23396.7" x2="62336.5" y2="23396.7" gradientUnits="userSpaceOnUse">
<stop stop-color="#FFF2D4"/>
<stop offset="1" stop-color="#FFF2D4"/>
</linearGradient>
</defs>
</svg>
