<svg width="126" height="139" viewBox="0 0 126 139" fill="none" xmlns="http://www.w3.org/2000/svg">
<path d="M31.0416 95.3573C31.0416 95.3573 20.5223 111.698 19.997 114.311C19.4976 116.684 24.6161 130.095 25.1228 129.907C25.844 129.985 31.3218 131.059 31.3106 135.668L23.5138 135.801L20.9397 132.612L13.2987 115.532L19.7834 82.4994L31.2268 86.8841L31.0416 95.3573Z" fill="#230C4A"/>
<path d="M70.3685 93.7603C70.4943 94.0973 70.6201 94.4345 70.7458 94.7715C72.1179 97.8309 72.4249 101.746 73.0239 105.208C74.3996 111.989 75.2056 118.789 75.4422 125.609C75.6899 127.82 75.9118 130.27 77.4911 131.41C79.0704 132.551 81.7408 132.595 82.0403 134.326C79.6695 136.012 76.6551 136.902 73.7702 136.592C73.2894 136.54 73.049 136.514 72.5941 136.223C71.9246 135.665 71.7877 134.68 71.8913 133.721C71.9915 123.782 69.6617 113.825 65.0387 104.835C64.0697 102.547 59.8904 98.458 61.1628 95.6828C62.0912 93.8413 65.2091 91.9924 66.8328 90.4683C68.4121 91.6087 69.5364 92.4575 70.3685 93.7603Z" fill="#230C4A"/>
<path d="M118.594 30.0278C123.343 28.8396 126.039 28.6441 125.998 24.5145C126.095 21.3702 121.826 22.6101 119.877 22.6433C115.232 22.872 112.587 22.5877 108.201 20.4176C105.9 19.1997 103.093 18.17 100.534 19.3509C98.4808 20.3435 97.4747 22.9047 97.0012 25.0378C96.7422 27.4365 97.2044 29.9129 96.9714 32.0718C96.6308 41.9843 85.579 58.7534 74.1615 54.1289C69.9895 52.2245 67.0122 48.2645 65.7955 43.7659C64.7156 40.2525 63.5507 35.2742 59.8927 35.3664C57.9436 35.3995 56.5862 36.7096 55.2287 38.0196C49.1887 44.4076 42.2867 56.5269 32.1303 53.7366C27.1594 52.4743 22.7398 48.3593 17.6395 48.2964C13.7411 48.3627 10.0646 50.8796 7.51242 54.2452C1.53153 62.3382 1.89361 74.7528 3.28772 84.3664C6.2978 106.044 -2.22394 112.893 0.572056 118.533C2.15867 121.858 2.97223 125.585 3.81172 129.073C4.28017 130.741 4.73996 132.489 5.19114 134.317C5.51657 135.808 5.28356 137.967 6.91463 138.627C7.37818 138.839 7.77886 138.882 8.11667 138.756C9.55913 138.911 10.9301 138.978 12.2296 138.956C13.4316 139.085 14.4192 138.948 15.2181 138.306C14.5487 137.749 14.4377 136.524 13.7683 135.967C13.5537 135.701 13.0988 135.409 12.618 135.358C11.9942 135.129 11.3704 134.9 10.7466 134.671C10.5061 134.645 10.0512 134.354 9.83666 134.088C9.38174 133.796 9.43355 133.317 9.21904 133.051C8.09972 128.401 7.14071 123.768 6.34194 119.153C6.17922 118.407 6.23092 117.928 6.30861 117.208C6.3604 116.728 6.48379 116.337 6.67859 116.034C8.05458 112.3 8.94971 108.513 11.0469 104.856C13.1182 101.439 15.6444 98.3131 18.4111 95.2132C19.8203 93.4234 21.4699 91.6594 23.7372 90.9324C27.7909 89.4268 32.0739 92.5564 36.0054 94.4349C45.2852 98.5869 56.0371 95.86 66.1602 96.7054C67.6026 96.8605 69.526 97.0672 70.5985 98.3958C71.4825 99.2188 71.8597 100.23 72.2369 101.241C72.9396 103.743 73.731 106.174 74.6112 108.534C75.1252 110.53 76.1977 111.859 75.4321 114.446C74.9327 116.819 72.3732 117.999 69.8988 120.645C67.1321 123.745 64.6133 129.056 62.3015 132.447C61.743 133.115 61.4249 133.809 61.6135 134.315C62.0425 134.846 62.5234 134.898 62.7638 134.924C65.1161 135.662 67.5831 136.089 70.1648 136.204C70.9119 136.042 72.1656 135.691 72.0029 134.946C71.8143 134.44 71.3594 134.149 71.119 134.123C70.2092 133.54 69.2192 132.948 68.1491 132.348C70.4535 126.772 75.4873 122.945 79.1306 118.483C83.3065 113.593 84.1166 108.342 83.3475 101.95C82.2197 92.1223 83.9621 78.2351 88.8186 69.2933C92.4286 62.8868 98.3724 59.643 100.377 52.336C101.779 48.3614 104.916 44.0881 106.773 40.4051C109.343 34.6149 112.831 31.5924 118.594 30.0278Z" fill="#230C4A"/>
<path d="M45.2286 2.24399C42.1624 3.61306 41.2413 7.63919 39.7026 10.6284C37.5277 15.0052 32.8637 17.6587 29.8048 21.2125C24.7782 27.2241 23.4168 35.3282 22.3477 42.9785C21.9334 46.8165 21.4931 50.8944 22.3067 54.6218C23.0944 58.5891 24.8697 62.4198 28.2946 64.4865C30.7837 66.21 34.1495 66.5718 37.0603 66.642C42.6156 66.9964 49.0992 65.5094 51.3259 60.6528C52.9423 56.944 51.7256 52.4453 49.684 48.8286C47.9088 44.9979 45.3606 41.5694 45.0797 37.414C48.6487 42.6508 54.2963 46.655 60.4693 48.0464C59.737 47.3206 58.9246 46.5862 58.032 45.8432C55.6206 43.4001 52.9428 41.171 51.064 38.2998C46.6369 32 45.5164 24.3571 44.3701 16.954C48.2425 17.1276 51.9449 14.3709 52.8142 10.8244C53.9498 7.06384 51.9859 2.72753 48.5093 1.14055" fill="#230C4A"/>
<path d="M53.0249 2.11105C50.5098 0.627425 49.5999 0.0443583 46.9295 0C43.9928 0.16968 36.8988 2.8044 37.4905 4.08132C38.0563 5.5981 61.1172 10.5034 61.942 9.62139C62.5523 8.47367 56.2352 3.91208 53.0249 2.11105Z" fill="#230C4A"/>
<path d="M105.042 33.9096C102.423 49.1584 100.48 67.1494 85.9298 75.7773C68.2613 86.254 53.3046 69.3587 42.1573 57.7261C41.7282 57.1947 41.1696 57.8626 41.3582 58.3682C50.8559 71.7647 66.4489 87.2724 84.3652 79.0063C101.268 71.1166 104.938 50.642 106.003 34.0129C106.055 33.5332 105.094 33.4298 105.042 33.9096Z" fill="#230C4A"/>
</svg>
