<svg width="152" height="167" viewBox="0 0 152 167" fill="none" xmlns="http://www.w3.org/2000/svg">
<path d="M37.447 114.566C37.447 114.566 24.757 134.199 24.1234 137.338C23.5209 140.189 29.6956 156.302 30.3069 156.075C31.1769 156.169 37.785 157.459 37.7715 162.997L28.3659 163.156L25.2606 159.325L16.0429 138.805L23.8656 99.118L37.6704 104.386L37.447 114.566Z" fill="#230C4A"/>
<path d="M84.889 112.647C85.0407 113.052 85.1925 113.457 85.3441 113.862C86.9994 117.538 87.3697 122.242 88.0924 126.401C89.7519 134.548 90.7243 142.718 91.0096 150.912C91.3085 153.567 91.5762 156.511 93.4814 157.882C95.3865 159.252 98.608 159.305 98.9693 161.384C96.1092 163.411 92.4729 164.479 88.9926 164.107C88.4126 164.044 88.1226 164.014 87.5738 163.663C86.7662 162.994 86.6011 161.81 86.7261 160.657C86.8469 148.717 84.0363 136.754 78.4593 125.953C77.2904 123.204 72.2487 118.291 73.7836 114.957C74.9036 112.745 78.6649 110.523 80.6237 108.692C82.5289 110.062 83.8852 111.082 84.889 112.647Z" fill="#230C4A"/>
<path d="M143.065 36.0765C148.794 34.649 152.047 34.4142 151.998 29.4527C152.114 25.675 146.965 27.1647 144.614 27.2045C139.01 27.4793 135.82 27.1377 130.528 24.5305C127.753 23.0672 124.366 21.8301 121.279 23.2489C118.802 24.4415 117.588 27.5186 117.017 30.0813C116.705 32.9633 117.263 35.9385 116.981 38.5323C116.571 50.4416 103.238 70.5886 89.4647 65.0326C84.4318 62.7446 80.8401 57.9869 79.3723 52.582C78.0696 48.3609 76.6643 42.3798 72.2515 42.4905C69.9002 42.5304 68.2627 44.1043 66.6251 45.6783C59.3388 53.3531 51.0125 67.9136 38.7604 64.5613C32.7638 63.0447 27.4322 58.1007 21.2793 58.0252C16.5766 58.1049 12.1414 61.1287 9.0626 65.1723C1.84757 74.8955 2.28435 89.8109 3.96614 101.361C7.59734 127.406 -2.68285 135.635 0.690099 142.41C2.60411 146.405 3.58555 150.883 4.59827 155.073C5.16337 157.077 5.71804 159.177 6.26232 161.373C6.65491 163.165 6.37382 165.758 8.34146 166.552C8.90066 166.806 9.38403 166.858 9.79154 166.707C11.5316 166.894 13.1855 166.974 14.7531 166.947C16.2032 167.102 17.3946 166.938 18.3583 166.167C17.5508 165.497 17.4169 164.025 16.6093 163.356C16.3505 163.036 15.8018 162.686 15.2217 162.624C14.4692 162.349 13.7167 162.074 12.9641 161.799C12.6741 161.768 12.1252 161.418 11.8664 161.099C11.3177 160.748 11.3802 160.172 11.1214 159.853C9.77109 154.266 8.61419 148.7 7.65059 143.155C7.45429 142.259 7.51666 141.683 7.61039 140.818C7.67287 140.242 7.82171 139.772 8.05671 139.408C9.71663 134.921 10.7965 130.372 13.3265 125.978C15.8252 121.873 18.8726 118.117 22.2102 114.393C23.9102 112.242 25.9002 110.123 28.6353 109.25C33.5256 107.441 38.6923 111.201 43.4351 113.458C54.6297 118.446 67.6003 115.17 79.8123 116.186C81.5524 116.372 83.8726 116.62 85.1665 118.217C86.2328 119.205 86.6879 120.42 87.1429 121.635C87.9906 124.641 88.9453 127.562 90.0071 130.396C90.6273 132.795 91.9211 134.391 90.9974 137.499C90.395 140.35 87.3074 141.769 84.3223 144.948C80.9848 148.672 77.9462 155.053 75.1574 159.127C74.4837 159.93 74.0999 160.763 74.3274 161.371C74.845 162.009 75.425 162.071 75.715 162.102C78.5527 162.989 81.5288 163.502 84.6432 163.641C85.5445 163.446 87.0569 163.025 86.8606 162.129C86.6331 161.522 86.0844 161.172 85.7944 161.14C84.6968 160.44 83.5026 159.729 82.2116 159.008C84.9915 152.308 91.0641 147.711 95.4591 142.35C100.497 136.475 101.474 130.166 100.546 122.487C99.1856 110.679 101.288 93.9947 107.146 83.2517C111.501 75.5546 118.671 71.6575 121.09 62.8785C122.781 58.1033 126.565 52.9692 128.805 48.5443C131.906 41.5876 136.114 37.9563 143.065 36.0765Z" fill="#230C4A"/>
<path d="M54.5614 2.69602C50.8626 4.34087 49.7514 9.17802 47.8952 12.7694C45.2715 18.0279 39.6451 21.2158 35.955 25.4855C29.8912 32.7081 28.2489 42.4447 26.9592 51.636C26.4593 56.2472 25.9282 61.1466 26.9097 65.6248C27.8599 70.3912 30.0016 74.9936 34.1331 77.4766C37.1359 79.5473 41.1962 79.9819 44.7076 80.0663C51.4093 80.4921 59.2308 78.7055 61.917 72.8707C63.8669 68.4147 62.3991 63.0098 59.9363 58.6646C57.7948 54.0622 54.7208 49.9431 54.3818 44.9506C58.6873 51.2423 65.5003 56.0531 72.9471 57.7248C72.0637 56.8528 71.0836 55.9705 70.0069 55.0778C67.0978 52.1425 63.8675 49.4644 61.601 46.0148C56.2604 38.4461 54.9087 29.2636 53.5258 20.3692C58.1973 20.5777 62.6637 17.2657 63.7124 13.0048C65.0823 8.48677 62.7132 3.27696 58.5191 1.3703" fill="#230C4A"/>
<path d="M63.9665 2.5363C60.9325 0.753812 59.8348 0.0532937 56.6134 0C53.0707 0.203861 44.5128 3.36932 45.2266 4.90345C45.9092 6.72578 73.7287 12.6192 74.7237 11.5595C75.4599 10.1806 67.8393 4.70012 63.9665 2.5363Z" fill="#230C4A"/>
<path d="M126.717 40.7403C123.558 59.0608 121.214 80.6759 103.661 91.0417C82.3469 103.629 64.3039 83.3302 50.8564 69.3544C50.3388 68.7159 49.6649 69.5183 49.8925 70.1258C61.35 86.221 80.1606 104.852 101.774 94.9212C122.165 85.4422 126.591 60.8433 127.877 40.8644C127.939 40.288 126.779 40.1639 126.717 40.7403Z" fill="#230C4A"/>
</svg>
