<svg width="1920" height="731" viewBox="0 0 1920 731" fill="none" xmlns="http://www.w3.org/2000/svg">
<g clip-path="url(#clip0_183_918)">
<path d="M1920 724H0V22L100.621 32.9006C193.097 42.9189 286.515 40.1225 378.227 24.5906C451.188 12.2343 525.286 7.92859 599.188 11.7511L720 18L840 31.5L960 50C1119.09 69.223 1282.38 63.8965 1440 35C1597.03 0.977636 1761.41 -3.7708 1920 22V724Z" fill="url(#paint0_linear_183_918)"/>
<path opacity="0.1" d="M1585.95 166.474C1585.95 104.9 1536.05 55 1474.47 55C1412.9 55 1363 104.9 1363 166.474C1363 228.048 1412.9 278 1474.47 278C1536.05 278 1585.95 228.048 1585.95 166.474Z" fill="white"/>
<path opacity="0.1" d="M1557.74 166.474C1557.74 120.5 1520.45 83.2046 1474.47 83.2046C1428.5 83.2046 1391.2 120.5 1391.2 166.474C1391.2 212.5 1428.5 249.796 1474.47 249.796C1520.45 249.796 1557.74 212.5 1557.74 166.474Z" fill="white"/>
<path opacity="0.1" d="M1539.1 166.474C1539.1 130.78 1510.17 101.852 1474.47 101.852C1438.78 101.852 1409.85 130.78 1409.85 166.474C1409.85 202.168 1438.78 231.096 1474.47 231.096C1510.17 231.096 1539.1 202.168 1539.1 166.474Z" fill="white"/>
<path d="M1526.34 166.474C1526.34 137.857 1503.09 114.663 1474.47 114.663C1445.86 114.663 1422.61 137.857 1422.61 166.474C1422.61 195.144 1445.86 218.337 1474.47 218.337C1503.09 218.337 1526.34 195.144 1526.34 166.474Z" fill="url(#paint1_linear_183_918)"/>
<path d="M1475.15 137.805C1475.15 133.052 1471.32 129.178 1466.57 129.178C1461.82 129.178 1457.94 133.052 1457.94 137.805C1457.94 142.557 1461.82 146.38 1466.57 146.38C1471.32 146.38 1475.15 142.557 1475.15 137.805Z" fill="#FFE4BF"/>
<path d="M1494 176.753C1485.84 176.753 1479.23 183.417 1479.23 191.579C1479.23 199.74 1485.84 206.352 1494 206.352C1502.21 206.352 1508.83 199.74 1508.83 191.579C1508.83 183.417 1502.21 176.753 1494 176.753Z" fill="#FFE4BF"/>
<path d="M1524.32 169.573C1519.57 169.573 1515.7 173.396 1515.7 178.148C1515.7 182.229 1518.54 185.587 1522.31 186.517C1524.48 181.299 1525.82 175.669 1526.23 169.78C1525.61 169.642 1524.98 169.573 1524.32 169.573Z" fill="#FFE4BF"/>
<path d="M1459.8 173.861C1459.8 176.237 1461.77 178.148 1464.09 178.148C1466.47 178.148 1468.43 176.237 1468.43 173.861C1468.43 171.485 1466.47 169.573 1464.09 169.573C1461.77 169.573 1459.8 171.485 1459.8 173.861Z" fill="#FFE4BF"/>
<path d="M1497.51 120.242C1490.54 116.833 1482.74 114.87 1474.47 114.87C1469.05 114.87 1463.83 115.696 1458.93 117.246C1462.9 124.374 1470.5 129.178 1479.23 129.178C1486.67 129.178 1493.28 125.717 1497.51 120.242Z" fill="#FFE4BF"/>
<path d="M1470.14 218.13C1471.74 214.514 1472.56 210.537 1472.56 206.352C1472.56 190.029 1459.34 176.753 1443.02 176.753C1436.35 176.753 1430.15 178.975 1425.25 182.694C1431.6 202.065 1449.06 216.425 1470.14 218.13Z" fill="#FFE4BF"/>
<path d="M1488.58 166.474C1488.58 161.721 1484.7 157.899 1479.95 157.899C1475.2 157.899 1471.38 161.721 1471.38 166.474C1471.38 171.226 1475.2 175.1 1479.95 175.1C1484.7 175.1 1488.58 171.226 1488.58 166.474Z" fill="#FFE4BF"/>
<path d="M1446.11 154.748C1448.44 154.748 1450.4 152.837 1450.4 150.461C1450.4 148.085 1448.44 146.173 1446.11 146.173C1443.74 146.173 1441.78 148.085 1441.78 150.461C1441.78 152.837 1443.74 154.748 1446.11 154.748Z" fill="#FFE4BF"/>
<path d="M1504.63 126C1498.84 130.08 1495 136.779 1495 144.385C1495 156.876 1505.35 167 1518.06 167C1520.82 167 1523.54 166.496 1526 165.64C1525.54 149.321 1517.24 134.915 1504.63 126Z" fill="#FFE4BF"/>
<path opacity="0.5" d="M1474.5 116.434C1446.29 116.434 1423.41 139.903 1423.05 169C1423.02 168.752 1423 168.504 1423 168.257C1423 138.841 1446.08 115 1474.5 115C1502.92 115 1526 138.841 1526 168.257C1526 168.504 1525.98 168.752 1525.95 169C1525.59 139.903 1502.71 116.434 1474.5 116.434Z" fill="white"/>
<path opacity="0.2" d="M1365.3 227C1348.19 227 1332.97 235.277 1323.32 247.895C1307.84 238.94 1289.9 233.92 1270.75 233.92C1212.6 233.92 1165.45 280.73 1164.91 338.666C1151.46 344.5 1140.05 354.405 1132.3 366.752C1120.62 358.747 1106.49 354.133 1091.27 354.133C1051.2 354.133 1018.73 386.561 1018.73 426.587C1018.73 430.205 1019 433.778 1019.54 437.306C1006.5 430.929 991.961 427.401 976.473 427.401C957.181 427.401 939.111 432.964 923.895 442.598C911.667 383.712 859.361 339.615 796.866 339.615C737.495 339.615 687.634 379.234 672.01 433.507C664.266 429.572 655.571 427.401 646.197 427.401C614.678 427.401 589 452.909 589 484.523C589 516.001 614.678 541.645 646.197 541.645C659.647 541.645 672.01 537.032 681.792 529.298C703.394 570.681 746.869 598.902 796.866 598.902C831.374 598.902 862.758 585.47 885.99 563.49C900.935 598.631 935.85 623.325 976.473 623.325C1030.68 623.325 1074.56 579.5 1074.56 525.363C1074.56 515.051 1072.93 505.147 1069.94 495.785C1076.74 497.82 1083.8 498.905 1091.27 498.905C1117.22 498.905 1139.91 485.337 1152.82 464.849C1164.5 472.855 1178.5 477.468 1193.71 477.468C1219.53 477.468 1242.08 464.171 1254.85 444.09C1260.01 444.814 1265.31 445.176 1270.75 445.176C1329.17 445.176 1376.58 397.958 1376.58 339.615C1376.49 336.902 1376.35 334.233 1376.17 331.61C1400.22 326.59 1418.15 305.288 1418.15 279.78C1418.15 250.609 1394.51 227 1365.3 227Z" fill="#EFD2FF"/>
<path opacity="0.2" d="M646.2 429.188C655.575 429.188 664.27 431.499 672.015 435.306C687.639 381.06 737.503 341.225 796.877 341.225C859.375 341.225 911.684 385.546 923.912 444.415C939.129 434.762 957.2 429.188 976.493 429.188C991.982 429.188 1006.52 432.859 1019.56 439.113C1019.43 438.433 1019.43 437.617 1019.29 436.801C1006.38 430.547 991.846 427.013 976.493 427.013C957.2 427.013 939.129 432.587 923.912 442.24C911.684 383.235 859.375 339.05 796.877 339.05C737.503 339.05 687.639 378.749 672.015 433.131C664.27 429.188 655.575 427.013 646.2 427.013C614.679 427.013 589 452.572 589 484.25C589 484.522 589.136 484.929 589.136 485.337C589.679 454.204 615.086 429.188 646.2 429.188Z" fill="#EFD2FF"/>
<path opacity="0.2" d="M1365.11 227C1347.99 227 1332.78 235.27 1323.13 247.878C1307.64 238.93 1289.71 233.914 1270.55 233.914C1212.4 233.914 1165.26 280.686 1164.71 338.575C1151.26 344.404 1139.85 354.301 1132.11 366.638C1120.42 358.639 1106.29 354.029 1091.08 354.029C1051 354.029 1018.53 386.431 1018.53 426.424C1018.53 426.695 1018.53 426.966 1018.53 427.238C1019.34 387.922 1051.4 356.199 1091.08 356.199C1106.29 356.199 1120.42 360.944 1132.11 368.942C1139.85 356.47 1151.26 346.573 1164.71 340.744C1165.26 282.855 1212.4 236.083 1270.55 236.083C1289.71 236.083 1307.64 241.235 1323.13 250.047C1332.78 237.439 1347.99 229.305 1365.11 229.305C1393.92 229.305 1417.42 252.352 1417.96 280.957C1417.96 280.596 1417.96 280.189 1417.96 279.737C1417.96 250.589 1394.32 227 1365.11 227Z" fill="#EFD2FF"/>
<path d="M1411.4 39.7998L1411.8 43.3998L1415.4 43.7998L1411.8 44.1998L1411.4 47.7998L1411 44.1998L1407.4 43.7998L1411 43.3998L1411.4 39.7998Z" fill="#FF75BF"/>
<path d="M411.3 29L411.7 32.6L415.3 33L411.7 33.4L411.3 37L410.9 33.4L407.3 33L410.9 32.6L411.3 29Z" fill="#FF75BF"/>
<path d="M1177 230.3L1178.4 242.8L1190.8 244.2L1178.4 245.6L1177 258L1175.6 245.6L1163.2 244.2L1175.6 242.8L1177 230.3Z" fill="#B2206E"/>
<path d="M176.9 219.5L178.3 232L190.7 233.4L178.3 234.8L176.9 247.2L175.5 234.8L163.1 233.4L175.5 232L176.9 219.5Z" fill="#B2206E"/>
<path d="M1657.5 89.7002L1658.9 102.2L1671.3 103.6L1658.9 105L1657.5 117.4L1656.1 105L1643.7 103.6L1656.1 102.2L1657.5 89.7002Z" fill="#B2206E"/>
<path d="M657.4 78.9004L658.8 91.4004L671.2 92.8004L658.8 94.2004L657.4 106.6L656 94.2004L643.6 92.8004L656 91.4004L657.4 78.9004Z" fill="#B2206E"/>
<path d="M1574.2 306.9L1575.5 319.4L1588 320.8L1575.5 322.2L1574.2 334.6L1572.8 322.2L1560.3 320.8L1572.8 319.4L1574.2 306.9Z" fill="#B2206E"/>
<path d="M574.099 296.1L575.399 308.6L587.899 310L575.399 311.4L574.099 323.8L572.699 311.4L560.199 310L572.699 308.6L574.099 296.1Z" fill="#B2206E"/>
<path d="M1735.3 422L1736.7 434.5L1749.2 435.9L1736.7 437.3L1735.3 449.7L1734 437.3L1721.5 435.9L1734 434.5L1735.3 422Z" fill="#B2206E"/>
<path d="M735.2 411.2L736.6 423.7L749.1 425.1L736.6 426.5L735.2 438.9L733.9 426.5L721.4 425.1L733.9 423.7L735.2 411.2Z" fill="#B2206E"/>
<path d="M1910 117.3L1911.4 129.8L1923.8 131.1L1911.4 132.5L1910 145L1908.6 132.5L1896.1 131.1L1908.6 129.8L1910 117.3Z" fill="#B2206E"/>
<path d="M909.9 106.5L911.3 119L923.7 120.3L911.3 121.7L909.9 134.2L908.5 121.7L896 120.3L908.5 119L909.9 106.5Z" fill="#B2206E"/>
<path d="M1055.4 60.8999L1056.8 73.2999L1069.2 74.6999L1056.8 76.0999L1055.4 88.5999L1054 76.0999L1041.6 74.6999L1054 73.2999L1055.4 60.8999Z" fill="#B2206E"/>
<path d="M55.3 50.1001L56.7 62.5001L69.1 63.9001L56.7 65.3001L55.3 77.8001L53.9 65.3001L41.5 63.9001L53.9 62.5001L55.3 50.1001Z" fill="#B2206E"/>
<path d="M1055.4 182.4L1056 188L1061.6 188.6L1056 189.2L1055.4 194.8L1054.8 189.2L1049.2 188.6L1054.8 188L1055.4 182.4Z" fill="#B2206E"/>
<path d="M55.2996 171.6L55.8996 177.2L61.4996 177.8L55.8996 178.4L55.2996 184L54.6996 178.4L49.0996 177.8L54.6996 177.2L55.2996 171.6Z" fill="#B2206E"/>
<path d="M1035.3 362.4L1036.7 374.8L1049.2 376.2L1036.7 377.6L1035.3 390.1L1033.9 377.6L1021.5 376.2L1033.9 374.8L1035.3 362.4Z" fill="#850D39"/>
<path d="M35.2004 351.6L36.6004 364L49.1004 365.4L36.6004 366.8L35.2004 379.3L33.8004 366.8L21.4004 365.4L33.8004 364L35.2004 351.6Z" fill="#850D39"/>
<path d="M1128.7 142.4L1129.4 149.2L1136.3 150L1129.4 150.8L1128.7 157.6L1127.9 150.8L1121.1 150L1127.9 149.2L1128.7 142.4Z" fill="#850D39"/>
<path d="M128.6 131.6L129.3 138.4L136.2 139.2L129.3 140L128.6 146.8L127.8 140L121 139.2L127.8 138.4L128.6 131.6Z" fill="#850D39"/>
<path d="M1113.4 292L1114.2 298.8L1121.1 299.6L1114.2 300.3L1113.4 307.2L1112.7 300.3L1105.8 299.6L1112.7 298.8L1113.4 292Z" fill="#FF75BF"/>
<path d="M113.299 281.2L114.099 288L120.999 288.8L114.099 289.5L113.299 296.4L112.599 289.5L105.699 288.8L112.599 288L113.299 281.2Z" fill="#FF75BF"/>
<path d="M1271.6 137.6L1272.8 148.8L1284 150L1272.8 151.2L1271.6 162.4L1270.3 151.2L1259.1 150L1270.3 148.8L1271.6 137.6Z" fill="#FF75BF"/>
<path d="M271.5 126.801L272.7 138.001L283.9 139.201L272.7 140.401L271.5 151.601L270.2 140.401L259 139.201L270.2 138.001L271.5 126.801Z" fill="#FF75BF"/>
<path d="M1510.5 62.2998L1511.8 73.4998L1522.9 74.6998L1511.8 75.9998L1510.5 87.1998L1509.3 75.9998L1498.1 74.6998L1509.3 73.4998L1510.5 62.2998Z" fill="#FF75BF"/>
<path d="M510.4 51.5L511.7 62.7L522.8 63.9L511.7 65.2L510.4 76.4L509.2 65.2L498 63.9L509.2 62.7L510.4 51.5Z" fill="#FF75BF"/>
<path d="M1400.2 155.5L1401.4 166.7L1412.6 168L1401.4 169.2L1400.2 180.4L1398.9 169.2L1387.7 168L1398.9 166.7L1400.2 155.5Z" fill="#FF75BF"/>
<path d="M400.1 144.7L401.3 155.9L412.5 157.2L401.3 158.4L400.1 169.6L398.8 158.4L387.6 157.2L398.8 155.9L400.1 144.7Z" fill="#FF75BF"/>
<path d="M1098.2 213.8L1099 220.7L1105.8 221.4L1099 222.2L1098.2 229.1L1097.4 222.2L1090.6 221.4L1097.4 220.7L1098.2 213.8Z" fill="#FF75BF"/>
<path d="M98.1 203L98.9 209.9L105.7 210.6L98.9 211.4L98.1 218.3L97.3 211.4L90.5 210.6L97.3 209.9L98.1 203Z" fill="#FF75BF"/>
<path d="M1027.7 256.8L1028.1 260.4L1031.7 260.8L1028.1 261.2L1027.7 264.8L1027.3 261.2L1023.7 260.8L1027.3 260.4L1027.7 256.8Z" fill="#FF75BF"/>
<path d="M27.5996 246L27.9996 249.6L31.5996 250L27.9996 250.4L27.5996 254L27.1996 250.4L23.5996 250L27.1996 249.6L27.5996 246Z" fill="#FF75BF"/>
<path d="M1113.4 370.1L1113.8 373.7L1117.4 374.1L1113.8 374.5L1113.4 378.1L1113 374.5L1109.4 374.1L1113 373.7L1113.4 370.1Z" fill="#FF75BF"/>
<path d="M113.3 359.301L113.7 362.901L117.3 363.301L113.7 363.701L113.3 367.301L112.9 363.701L109.3 363.301L112.9 362.901L113.3 359.301Z" fill="#FF75BF"/>
<path d="M1251.6 252.8L1252 256.4L1255.6 256.8L1252 257.2L1251.6 260.8L1251.2 257.2L1247.6 256.8L1251.2 256.4L1251.6 252.8Z" fill="#FF75BF"/>
<path d="M251.5 242L251.9 245.6L255.5 246L251.9 246.4L251.5 250L251.1 246.4L247.5 246L251.1 245.6L251.5 242Z" fill="#FF75BF"/>
<path d="M1184.6 130.8L1185 134.4L1188.6 134.8L1185 135.2L1184.6 138.8L1184.2 135.2L1180.6 134.8L1184.2 134.4L1184.6 130.8Z" fill="#FF75BF"/>
<path d="M184.5 120L184.9 123.6L188.5 124L184.9 124.4L184.5 128L184.1 124.4L180.5 124L184.1 123.6L184.5 120Z" fill="#FF75BF"/>
<path d="M1121.1 58.2998L1121.5 61.8998L1125 62.2998L1121.5 62.6998L1121.1 66.2998L1120.7 62.6998L1117.1 62.2998L1120.7 61.8998L1121.1 58.2998Z" fill="#FF75BF"/>
<path d="M121 47.5L121.4 51.1L124.9 51.5L121.4 51.9L121 55.5L120.6 51.9L117 51.5L120.6 51.1L121 47.5Z" fill="#FF75BF"/>
<path d="M1090.6 103.6L1091 107.2L1094.6 107.6L1091 108L1090.6 111.5L1090.2 108L1086.6 107.6L1090.2 107.2L1090.6 103.6Z" fill="#FF75BF"/>
<path d="M90.5 92.8008L90.9 96.4008L94.5 96.8008L90.9 97.2008L90.5 100.701L90.1 97.2008L86.5 96.8008L90.1 96.4008L90.5 92.8008Z" fill="#FF75BF"/>
<path d="M997.1 49.2998L997.5 52.8998L1001.1 53.2998L997.5 53.6998L997.1 57.2998L996.7 53.6998L993.1 53.2998L996.7 52.8998L997.1 49.2998Z" fill="#FF75BF"/>
<path d="M-3 38.5L-2.6 42.1L1 42.5L-2.6 42.9L-3 46.5L-3.4 42.9L-7 42.5L-3.4 42.1L-3 38.5Z" fill="#FF75BF"/>
<path d="M1001.1 123.2L1001.5 126.8L1005.1 127.2L1001.5 127.6L1001.1 131.1L1000.7 127.6L997.1 127.2L1000.7 126.8L1001.1 123.2Z" fill="#FF75BF"/>
<path d="M1 112.4L1.4 116L5 116.4L1.4 116.8L1 120.3L0.600002 116.8L-3 116.4L0.600002 116L1 112.4Z" fill="#FF75BF"/>
<path d="M1244 58.2998L1244.4 61.8998L1248 62.2998L1244.4 62.6998L1244 66.2998L1243.6 62.6998L1240 62.2998L1243.6 61.8998L1244 58.2998Z" fill="#FF75BF"/>
<path d="M243.9 47.5L244.3 51.1L247.9 51.5L244.3 51.9L243.9 55.5L243.5 51.9L239.9 51.5L243.5 51.1L243.9 47.5Z" fill="#FF75BF"/>
<path d="M1294.3 95.5996L1294.7 99.1996L1298.3 99.5996L1294.7 99.9996L1294.3 103.6L1293.9 99.9996L1290.3 99.5996L1293.9 99.1996L1294.3 95.5996Z" fill="#FF75BF"/>
<path d="M294.199 84.8003L294.599 88.4003L298.199 88.8003L294.599 89.2003L294.199 92.8003L293.799 89.2003L290.199 88.8003L293.799 88.4003L294.199 84.8003Z" fill="#FF75BF"/>
<path d="M1789.9 54.2998L1790.3 57.8998L1793.9 58.2998L1790.3 58.6998L1789.9 62.2998L1789.5 58.6998L1785.9 58.2998L1789.5 57.8998L1789.9 54.2998Z" fill="#FF75BF"/>
<path d="M789.8 43.5L790.2 47.1L793.8 47.5L790.2 47.9L789.8 51.5L789.4 47.9L785.8 47.5L789.4 47.1L789.8 43.5Z" fill="#FF75BF"/>
<path d="M1564.3 62.2998L1564.7 65.8998L1568.3 66.2998L1564.7 66.6998L1564.3 70.2998L1563.9 66.6998L1560.3 66.2998L1563.9 65.8998L1564.3 62.2998Z" fill="#FF75BF"/>
<path d="M564.199 51.5L564.599 55.1L568.199 55.5L564.599 55.9L564.199 59.5L563.799 55.9L560.199 55.5L563.799 55.1L564.199 51.5Z" fill="#FF75BF"/>
<path d="M1844.4 95.5996L1844.8 99.1996L1848.4 99.5996L1844.8 99.9996L1844.4 103.6L1844 99.9996L1840.4 99.5996L1844 99.1996L1844.4 95.5996Z" fill="#FF75BF"/>
<path d="M844.3 84.8003L844.7 88.4003L848.3 88.8003L844.7 89.2003L844.3 92.8003L843.9 89.2003L840.3 88.8003L843.9 88.4003L844.3 84.8003Z" fill="#FF75BF"/>
<path d="M1923.8 56.8999L1924.2 60.4999L1927.8 60.8999L1924.2 61.2999L1923.8 64.8999L1923.4 61.2999L1919.8 60.8999L1923.4 60.4999L1923.8 56.8999Z" fill="#FF75BF"/>
<path d="M923.699 46.1001L924.099 49.7001L927.699 50.1001L924.099 50.5001L923.699 54.1001L923.299 50.5001L919.699 50.1001L923.299 49.7001L923.699 46.1001Z" fill="#FF75BF"/>
<path d="M1231.5 84.6001L1231.9 88.2001L1235.5 88.6001L1231.9 89.0001L1231.5 92.6001L1231.1 89.0001L1227.5 88.6001L1231.1 88.2001L1231.5 84.6001Z" fill="#FF75BF"/>
<path d="M231.4 73.8003L231.8 77.4003L235.4 77.8003L231.8 78.2003L231.4 81.8003L231 78.2003L227.4 77.8003L231 77.4003L231.4 73.8003Z" fill="#FF75BF"/>
<path d="M1797.9 99.5996L1798.3 103.2L1801.9 103.6L1798.3 104L1797.9 107.6L1797.5 104L1793.9 103.6L1797.5 103.2L1797.9 99.5996Z" fill="#FF75BF"/>
<path d="M797.8 88.8008L798.2 92.4008L801.8 92.8008L798.2 93.2008L797.8 96.8008L797.4 93.2008L793.8 92.8008L797.4 92.4008L797.8 88.8008Z" fill="#FF75BF"/>
<path d="M1694.9 70.7002L1695.3 74.3002L1698.9 74.7002L1695.3 75.1002L1694.9 78.7002L1694.5 75.1002L1690.9 74.7002L1694.5 74.3002L1694.9 70.7002Z" fill="#FF75BF"/>
<path d="M694.8 59.9004L695.2 63.5004L698.8 63.9004L695.2 64.3004L694.8 67.9004L694.4 64.3004L690.8 63.9004L694.4 63.5004L694.8 59.9004Z" fill="#FF75BF"/>
<path d="M1574.2 123.2L1574.6 126.8L1578.1 127.2L1574.6 127.6L1574.2 131.1L1573.8 127.6L1570.2 127.2L1573.8 126.8L1574.2 123.2Z" fill="#FF75BF"/>
<path d="M574.1 112.4L574.5 116L578 116.4L574.5 116.8L574.1 120.3L573.7 116.8L570.1 116.4L573.7 116L574.1 112.4Z" fill="#FF75BF"/>
<path d="M1464 80.6001L1464.4 84.2001L1468 84.6001L1464.4 85.0001L1464 88.6001L1463.6 85.0001L1460 84.6001L1463.6 84.2001L1464 80.6001Z" fill="#FF75BF"/>
<path d="M463.9 69.8003L464.3 73.4003L467.9 73.8003L464.3 74.2003L463.9 77.8003L463.5 74.2003L459.9 73.8003L463.5 73.4003L463.9 69.8003Z" fill="#FF75BF"/>
<path d="M1383.7 114.6L1383.9 117.1L1386.4 117.4L1383.9 117.7L1383.7 120.2L1383.4 117.7L1380.9 117.4L1383.4 117.1L1383.7 114.6Z" fill="#FF75BF"/>
<path d="M383.6 103.801L383.8 106.301L386.3 106.601L383.8 106.901L383.6 109.401L383.3 106.901L380.8 106.601L383.3 106.301L383.6 103.801Z" fill="#FF75BF"/>
<path d="M1464 46.5L1464.3 49L1466.8 49.3L1464.3 49.6L1464 52.1L1463.7 49.6L1461.2 49.3L1463.7 49L1464 46.5Z" fill="#FF75BF"/>
<path d="M463.9 35.7002L464.2 38.2002L466.7 38.5002L464.2 38.8002L463.9 41.3002L463.6 38.8002L461.1 38.5002L463.6 38.2002L463.9 35.7002Z" fill="#FF75BF"/>
<path d="M1724.3 52.8999L1724.6 55.3999L1727 55.6999L1724.6 55.9999L1724.3 58.4999L1724 55.9999L1721.5 55.6999L1724 55.3999L1724.3 52.8999Z" fill="#FF75BF"/>
<path d="M724.2 42.1001L724.5 44.6001L726.9 44.9001L724.5 45.2001L724.2 47.7001L723.9 45.2001L721.4 44.9001L723.9 44.6001L724.2 42.1001Z" fill="#FF75BF"/>
<path d="M1606.4 55.7002L1606.7 58.2002L1609.1 58.5002L1606.7 58.8002L1606.4 61.3002L1606.1 58.8002L1603.6 58.5002L1606.1 58.2002L1606.4 55.7002Z" fill="#FF75BF"/>
<path d="M606.3 44.9004L606.6 47.4004L609 47.7004L606.6 48.0004L606.3 50.5004L606 48.0004L603.5 47.7004L606 47.4004L606.3 44.9004Z" fill="#FF75BF"/>
<path d="M1709.8 120.4L1710.1 122.9L1712.6 123.2L1710.1 123.4L1709.8 125.9L1709.6 123.4L1707.1 123.2L1709.6 122.9L1709.8 120.4Z" fill="#FF75BF"/>
<path d="M709.7 109.6L710 112.1L712.5 112.4L710 112.6L709.7 115.1L709.5 112.6L707 112.4L709.5 112.1L709.7 109.6Z" fill="#FF75BF"/>
<path d="M1861.5 58.1001L1861.8 60.6001L1864.3 60.9001L1861.8 61.2001L1861.5 63.7001L1861.2 61.2001L1858.8 60.9001L1861.2 60.6001L1861.5 58.1001Z" fill="#FF75BF"/>
<path d="M861.399 47.3003L861.699 49.8003L864.199 50.1003L861.699 50.4003L861.399 52.9003L861.099 50.4003L858.699 50.1003L861.099 49.8003L861.399 47.3003Z" fill="#FF75BF"/>
<path d="M1184.6 54.5L1184.9 57L1187.4 57.3L1184.9 57.6L1184.6 60L1184.3 57.6L1181.8 57.3L1184.3 57L1184.6 54.5Z" fill="#FF75BF"/>
<path d="M184.499 43.7002L184.799 46.2002L187.299 46.5002L184.799 46.8002L184.499 49.2002L184.199 46.8002L181.699 46.5002L184.199 46.2002L184.499 43.7002Z" fill="#FF75BF"/>
<path d="M1021.5 54.1001L1021.8 56.6001L1024.3 56.9001L1021.8 57.2001L1021.5 59.7001L1021.2 57.2001L1018.7 56.9001L1021.2 56.6001L1021.5 54.1001Z" fill="#FF75BF"/>
<path d="M21.3996 43.3003L21.6996 45.8003L24.1996 46.1003L21.6996 46.4003L21.3996 48.9003L21.0996 46.4003L18.5996 46.1003L21.0996 45.8003L21.3996 43.3003Z" fill="#FF75BF"/>
<path d="M1204.3 175.6L1204.5 178.1L1207 178.4L1204.5 178.7L1204.3 181.2L1204 178.7L1201.5 178.4L1204 178.1L1204.3 175.6Z" fill="#FF75BF"/>
<path d="M204.2 164.801L204.4 167.301L206.9 167.601L204.4 167.901L204.2 170.401L203.9 167.901L201.4 167.601L203.9 167.301L204.2 164.801Z" fill="#FF75BF"/>
<path d="M1125 118L1125.3 120.5L1127.8 120.7L1125.3 121L1125 123.5L1124.8 121L1122.3 120.7L1124.8 120.5L1125 118Z" fill="#FF75BF"/>
<path d="M124.899 107.2L125.199 109.7L127.699 109.9L125.199 110.2L124.899 112.7L124.699 110.2L122.199 109.9L124.699 109.7L124.899 107.2Z" fill="#FF75BF"/>
<path d="M1420 77.7998L1420.3 80.2998L1422.8 80.5998L1420.3 80.8998L1420 83.3998L1419.7 80.8998L1417.3 80.5998L1419.7 80.2998L1420 77.7998Z" fill="#FF75BF"/>
<path d="M419.899 67L420.199 69.5L422.699 69.8L420.199 70.1L419.899 72.6L419.599 70.1L417.199 69.8L419.599 69.5L419.899 67Z" fill="#FF75BF"/>
<path d="M1358.9 74.7002L1359.3 78.3002L1362.9 78.7002L1359.3 79.1002L1358.9 82.7002L1358.5 79.1002L1355 78.7002L1358.5 78.3002L1358.9 74.7002Z" fill="#FF75BF"/>
<path d="M358.8 63.9004L359.2 67.5004L362.8 67.9004L359.2 68.3004L358.8 71.9004L358.4 68.3004L354.9 67.9004L358.4 67.5004L358.8 63.9004Z" fill="#FF75BF"/>
<path d="M1574.2 418L1574.6 421.6L1578.1 422L1574.6 422.4L1574.2 426L1573.8 422.4L1570.2 422L1573.8 421.6L1574.2 418Z" fill="#FF75BF"/>
<path d="M574.1 407.2L574.5 410.8L578 411.2L574.5 411.6L574.1 415.2L573.7 411.6L570.1 411.2L573.7 410.8L574.1 407.2Z" fill="#FF75BF"/>
<path d="M1653.5 178.4L1653.9 182L1657.5 182.4L1653.9 182.8L1653.5 186.4L1653.1 182.8L1649.5 182.4L1653.1 182L1653.5 178.4Z" fill="#FF75BF"/>
<path d="M653.4 167.6L653.8 171.2L657.4 171.6L653.8 172L653.4 175.6L653 172L649.4 171.6L653 171.2L653.4 167.6Z" fill="#FF75BF"/>
<path d="M1865.5 295.6L1865.9 299.2L1869.5 299.6L1865.9 300L1865.5 303.6L1865.1 300L1861.5 299.6L1865.1 299.2L1865.5 295.6Z" fill="#FF75BF"/>
<path d="M865.4 284.801L865.8 288.401L869.4 288.801L865.8 289.201L865.4 292.801L865 289.201L861.4 288.801L865 288.401L865.4 284.801Z" fill="#FF75BF"/>
<path d="M1889.5 431.9L1889.9 435.5L1893.5 435.9L1889.9 436.3L1889.5 439.9L1889.1 436.3L1885.5 435.9L1889.1 435.5L1889.5 431.9Z" fill="#FF75BF"/>
<path d="M889.4 421.1L889.8 424.7L893.4 425.1L889.8 425.5L889.4 429.1L889 425.5L885.4 425.1L889 424.7L889.4 421.1Z" fill="#FF75BF"/>
<path d="M1436 445.7L1436.4 449.3L1440 449.7L1436.4 450.1L1436 453.7L1435.6 450.1L1432 449.7L1435.6 449.3L1436 445.7Z" fill="#FF75BF"/>
<path d="M435.9 434.9L436.3 438.5L439.9 438.9L436.3 439.3L435.9 442.9L435.5 439.3L431.9 438.9L435.5 438.5L435.9 434.9Z" fill="#FF75BF"/>
<path d="M1343.6 356.8L1344 360.4L1347.5 360.8L1344 361.2L1343.6 364.8L1343.2 361.2L1339.6 360.8L1343.2 360.4L1343.6 356.8Z" fill="#FF75BF"/>
<path d="M343.5 346L343.9 349.6L347.4 350L343.9 350.4L343.5 354L343.1 350.4L339.5 350L343.1 349.6L343.5 346Z" fill="#FF75BF"/>
<path d="M1645.5 370.1L1645.9 373.7L1649.5 374.1L1645.9 374.5L1645.5 378.1L1645.1 374.5L1641.5 374.1L1645.1 373.7L1645.5 370.1Z" fill="#FF75BF"/>
<path d="M645.4 359.301L645.8 362.901L649.4 363.301L645.8 363.701L645.4 367.301L645 363.701L641.4 363.301L645 362.901L645.4 359.301Z" fill="#FF75BF"/>
<path d="M1641.5 542L1641.9 545.6L1645.5 546L1641.9 546.4L1641.5 550L1641.1 546.4L1637.5 546L1641.1 545.6L1641.5 542Z" fill="#FF75BF"/>
<path d="M641.4 531.2L641.8 534.8L645.4 535.2L641.8 535.6L641.4 539.2L641 535.6L637.4 535.2L641 534.8L641.4 531.2Z" fill="#FF75BF"/>
<path d="M1251.6 203.7L1252.4 210.5L1259.2 211.3L1252.4 212.1L1251.6 218.9L1250.8 212.1L1244 211.3L1250.8 210.5L1251.6 203.7Z" fill="#850D39"/>
<path d="M251.5 192.9L252.3 199.7L259.1 200.5L252.3 201.3L251.5 208.1L250.7 201.3L243.9 200.5L250.7 199.7L251.5 192.9Z" fill="#850D39"/>
<path d="M1709.8 230.5L1710.6 237.3L1717.5 238.1L1710.6 238.8L1709.8 245.7L1709.1 238.8L1702.2 238.1L1709.1 237.3L1709.8 230.5Z" fill="#850D39"/>
<path d="M709.7 219.7L710.5 226.5L717.4 227.3L710.5 228L709.7 234.9L709 228L702.1 227.3L709 226.5L709.7 219.7Z" fill="#850D39"/>
<path d="M1624.3 275.6L1625.1 282.4L1632 283.2L1625.1 283.9L1624.3 290.8L1623.6 283.9L1616.7 283.2L1623.6 282.4L1624.3 275.6Z" fill="#850D39"/>
<path d="M624.2 264.801L625 271.601L631.9 272.401L625 273.101L624.2 280.001L623.5 273.101L616.6 272.401L623.5 271.601L624.2 264.801Z" fill="#850D39"/>
<path d="M1177 414.4L1177.8 421.3L1184.6 422L1177.8 422.8L1177 429.7L1176.2 422.8L1169.4 422L1176.2 421.3L1177 414.4Z" fill="#850D39"/>
<path d="M176.9 403.6L177.7 410.5L184.5 411.2L177.7 412L176.9 418.9L176.1 412L169.3 411.2L176.1 410.5L176.9 403.6Z" fill="#850D39"/>
<path d="M1326.1 127.2L1326.9 134L1333.7 134.8L1326.9 135.5L1326.1 142.4L1325.4 135.5L1318.5 134.8L1325.4 134L1326.1 127.2Z" fill="#850D39"/>
<path d="M326 116.4L326.8 123.2L333.6 124L326.8 124.7L326 131.6L325.3 124.7L318.4 124L325.3 123.2L326 116.4Z" fill="#850D39"/>
<path d="M1326.1 53.2998L1326.9 60.0998L1333.7 60.8998L1326.9 61.6998L1326.1 68.4998L1325.4 61.6998L1318.5 60.8998L1325.4 60.0998L1326.1 53.2998Z" fill="#850D39"/>
<path d="M326 42.5L326.8 49.3L333.6 50.1L326.8 50.9L326 57.7L325.3 50.9L318.4 50.1L325.3 49.3L326 42.5Z" fill="#850D39"/>
<path d="M1177 81L1177.8 87.8L1184.6 88.6L1177.8 89.3L1177 96.2L1176.2 89.3L1169.4 88.6L1176.2 87.8L1177 81Z" fill="#850D39"/>
<path d="M176.9 70.2002L177.7 77.0002L184.5 77.8002L177.7 78.5002L176.9 85.4002L176.1 78.5002L169.3 77.8002L176.1 77.0002L176.9 70.2002Z" fill="#850D39"/>
<path d="M1258 305.9L1258.3 309L1261.4 309.4L1258.3 309.7L1258 312.8L1257.7 309.7L1254.6 309.4L1257.7 309L1258 305.9Z" fill="#850D39"/>
<path d="M257.9 295.1L258.2 298.2L261.3 298.6L258.2 298.9L257.9 302L257.6 298.9L254.5 298.6L257.6 298.2L257.9 295.1Z" fill="#850D39"/>
<path d="M1513.9 476.6L1514.3 479.7L1517.4 480L1514.3 480.3L1513.9 483.4L1513.6 480.3L1510.5 480L1513.6 479.7L1513.9 476.6Z" fill="#850D39"/>
<path d="M513.8 465.801L514.2 468.901L517.3 469.201L514.2 469.501L513.8 472.601L513.5 469.501L510.4 469.201L513.5 468.901L513.8 465.801Z" fill="#850D39"/>
<path d="M1687.5 309.4L1687.8 312.4L1690.9 312.8L1687.8 313.1L1687.5 316.2L1687.2 313.1L1684.1 312.8L1687.2 312.4L1687.5 309.4Z" fill="#850D39"/>
<path d="M687.4 298.6L687.7 301.6L690.8 302L687.7 302.3L687.4 305.4L687.1 302.3L684 302L687.1 301.6L687.4 298.6Z" fill="#850D39"/>
<path d="M1294.3 411L1294.6 414.1L1297.7 414.4L1294.6 414.8L1294.3 417.8L1293.9 414.8L1290.8 414.4L1293.9 414.1L1294.3 411Z" fill="#B2206E"/>
<path d="M294.199 400.2L294.499 403.3L297.599 403.6L294.499 404L294.199 407L293.799 404L290.699 403.6L293.799 403.3L294.199 400.2Z" fill="#B2206E"/>
<path d="M1764.2 185.2L1764.4 188.3L1767.5 188.7L1764.4 189L1764 192L1763.7 188.9L1760.7 188.5L1763.7 188.3L1764.2 185.2Z" fill="#B2206E"/>
<path d="M764.1 174.4L764.3 177.5L767.4 177.9L764.3 178.2L763.9 181.2L763.6 178.1L760.6 177.7L763.6 177.5L764.1 174.4Z" fill="#B2206E"/>
<path d="M1760.8 113.9L1761 117L1764.1 117.4L1761 117.7L1760.6 120.7L1760.3 117.6L1757.2 117.2L1760.3 117L1760.8 113.9Z" fill="#B2206E"/>
<path d="M760.7 103.1L760.9 106.2L764 106.6L760.9 106.9L760.5 109.9L760.2 106.8L757.1 106.4L760.2 106.2L760.7 103.1Z" fill="#B2206E"/>
<path d="M1159.7 309.4L1160.1 312.4L1163.2 312.8L1160.1 313.1L1159.7 316.2L1159.4 313.1L1156.3 312.8L1159.4 312.4L1159.7 309.4Z" fill="#B2206E"/>
<path d="M159.599 298.6L159.999 301.6L163.099 302L159.999 302.3L159.599 305.4L159.299 302.3L156.199 302L159.299 301.6L159.599 298.6Z" fill="#B2206E"/>
<path d="M1305.6 277.3L1305.9 280.4L1309 280.7L1305.9 281.1L1305.6 284.1L1305.2 281.1L1302.1 280.7L1305.2 280.4L1305.6 277.3Z" fill="#B2206E"/>
<path d="M305.5 266.5L305.8 269.6L308.9 269.9L305.8 270.3L305.5 273.3L305.1 270.3L302 269.9L305.1 269.6L305.5 266.5Z" fill="#B2206E"/>
<path d="M-7 412C-7 412 266.802 508.945 804 490.838C725.193 531.943 512.279 531.282 512.279 531.282L-7 504.848V412Z" fill="#1A0B23"/>
<path d="M1920 446.295C1920 446.295 1748.5 423.567 1392.19 443.52C1035.7 463.407 540.653 548.242 -7 462.681V612L1920 540.644V446.295Z" fill="#360E3C"/>
<path d="M1920 471.412C1920 471.412 1748.5 448.674 1392.19 468.636C1035.7 488.597 540.653 619.601 -7 534.006V731H1920V471.412Z" fill="#0F0B1F"/>
<path opacity="0.6" fill-rule="evenodd" clip-rule="evenodd" d="M1482.48 349.276C1482.48 349.52 1482.48 349.764 1482.48 350.008C1482.5 350.12 1482.51 350.233 1482.51 350.345C1482.51 350.664 1482.52 350.974 1482.54 351.274C1482.54 351.358 1482.54 351.415 1482.54 351.499C1482.56 351.705 1482.57 351.902 1482.59 352.09C1482.59 352.174 1482.59 352.259 1482.62 352.371C1482.62 352.503 1482.63 352.625 1482.65 352.737C1482.65 352.831 1482.66 352.906 1482.67 352.962C1482.67 353.075 1482.68 353.178 1482.7 353.272C1482.7 353.328 1482.7 353.375 1482.7 353.413C1482.72 353.506 1482.73 353.572 1482.73 353.609C1482.75 353.647 1482.76 353.675 1482.76 353.694C1482.76 353.75 1482.76 353.778 1482.76 353.778C1483.46 348.6 1489.06 344.182 1489.06 344.182L1488.14 342.128C1488.14 342.128 1488.93 342.381 1490.88 343.591C1490.9 343.516 1490.93 343.423 1490.97 343.31C1490.98 343.254 1491 343.188 1491.02 343.113C1491.04 343.057 1491.06 343.001 1491.08 342.944C1491.09 342.869 1491.12 342.785 1491.16 342.691C1491.17 342.635 1491.2 342.578 1491.24 342.522C1491.27 342.428 1491.31 342.325 1491.35 342.213C1492.22 340.158 1493.96 337.091 1493.96 337.091L1493.52 335.825C1493.52 335.825 1493.88 335.994 1494.91 336.613C1494.98 336.425 1495.08 336.228 1495.21 336.022C1495.24 335.947 1495.28 335.881 1495.32 335.825C1495.41 335.675 1495.5 335.515 1495.59 335.346C1497.36 332.448 1500.84 328.311 1500.84 328.311L1500.16 326.201L1501.68 327.917L1503.47 326.06L1503.34 323.499C1503.34 323.499 1503.34 323.499 1504.43 325.497C1504.64 325.441 1504.91 325.328 1505.19 325.188L1504.15 327.186L1504.94 327.551C1504.83 327.814 1504.72 328.095 1504.59 328.396C1504.57 328.396 1504.56 328.405 1504.56 328.424C1502.79 332.701 1500.02 341.143 1500.02 341.143L1500.7 341.65V341.678L1500.89 341.819C1500.87 341.875 1500.85 341.931 1500.84 341.987C1500.84 342.006 1500.84 342.025 1500.84 342.044C1500.78 342.231 1500.74 342.41 1500.7 342.578C1500.7 342.597 1500.7 342.607 1500.7 342.607C1500.59 343.019 1500.49 343.432 1500.4 343.845C1500.4 343.864 1500.4 343.882 1500.4 343.901C1499.69 347.053 1499.12 350.317 1498.69 353.047C1496.27 353.778 1493.93 355.129 1492.49 356.058C1492.49 356.039 1492.49 356.03 1492.49 356.03C1492.47 356.048 1492.46 356.058 1492.46 356.058C1492.03 356.339 1491.7 356.564 1491.46 356.733C1491.46 356.733 1491.45 356.742 1491.43 356.761C1491.32 356.836 1491.24 356.893 1491.18 356.93C1491.18 356.93 1491.17 356.939 1491.16 356.958C1491.1 356.986 1491.08 357.015 1491.08 357.015L1491.43 357.859C1491.43 357.859 1491.43 357.859 1490.04 357.577C1485.96 361.855 1484.77 366.301 1484.5 369.227C1484.44 369.424 1484.41 369.565 1484.41 369.565C1484.41 369.565 1484.44 369.453 1484.5 369.256C1484.3 371.31 1484.52 372.632 1484.52 372.632C1484.66 371.704 1486.53 368.496 1486.53 368.496C1486.53 368.496 1486.32 369.143 1486.18 370.831C1486.36 370.606 1486.55 370.391 1486.75 370.184C1486.81 370.128 1486.89 370.044 1486.97 369.987C1487.1 369.856 1487.23 369.725 1487.38 369.593C1487.47 369.518 1487.57 369.443 1487.68 369.368C1487.8 369.256 1487.94 369.143 1488.08 369.03C1488.19 368.955 1488.31 368.88 1488.44 368.805C1488.56 368.712 1488.69 368.618 1488.82 368.524C1488.96 368.449 1489.1 368.374 1489.23 368.299C1489.35 368.224 1489.48 368.149 1489.61 368.074C1489.75 367.999 1489.9 367.924 1490.04 367.849C1490.15 367.792 1490.26 367.736 1490.37 367.68C1490.55 367.586 1490.72 367.502 1490.88 367.426C1490.98 367.389 1491.07 367.351 1491.16 367.314C1491.34 367.22 1491.53 367.136 1491.73 367.061C1494.09 366.076 1496.16 365.625 1496.16 365.625V364.218C1496.16 364.218 1496.16 364.5 1496.92 365.766C1497.03 365.747 1497.14 365.719 1497.25 365.682C1496.81 368.89 1496.65 372.013 1496.59 374.068L1494.96 374.771L1495.15 377.36C1495.15 377.36 1494.69 376.882 1494.34 375.644C1493.06 376.6 1489.09 380.399 1489.09 380.399V382.003C1489.09 382.003 1489.09 382.003 1488.36 381.046C1487.4 381.666 1485.72 383.945 1485.07 384.845C1485.01 384.92 1484.97 384.986 1484.93 385.042C1484.91 385.061 1484.9 385.071 1484.9 385.071C1484.82 385.183 1484.79 385.239 1484.79 385.239L1484.96 386.675C1484.96 386.675 1484.96 386.675 1483.95 386.478C1481.94 395.398 1484.33 401.308 1484.33 401.308C1485.69 397.115 1488 397.706 1488 397.706L1488.27 396.636C1488.27 396.636 1488.27 396.636 1489.01 397.706C1489.32 397.255 1489.62 396.833 1489.91 396.439C1490.01 396.289 1490.12 396.149 1490.23 396.017C1490.43 395.773 1490.63 395.529 1490.83 395.286C1490.96 395.135 1491.08 394.985 1491.21 394.835C1491.39 394.629 1491.57 394.423 1491.75 394.216C1491.88 394.085 1492.01 393.954 1492.14 393.822C1492.32 393.635 1492.49 393.456 1492.65 393.288C1492.78 393.156 1492.91 393.025 1493.03 392.894C1493.21 392.725 1493.39 392.565 1493.55 392.415C1493.68 392.303 1493.79 392.19 1493.9 392.078C1494.08 391.927 1494.26 391.787 1494.42 391.655C1494.53 391.562 1494.64 391.468 1494.75 391.374C1495.29 390.943 1495.8 390.558 1496.27 390.22C1496.24 390.868 1496.24 391.233 1496.24 391.233L1497.46 391.74L1497.63 391.796C1497.63 391.834 1497.63 391.862 1497.63 391.881C1497.61 391.937 1497.59 391.993 1497.57 392.049C1497.56 392.124 1497.54 392.209 1497.52 392.303C1497.52 392.359 1497.51 392.415 1497.49 392.472C1497.47 392.584 1497.46 392.687 1497.44 392.781C1497.42 392.837 1497.41 392.894 1497.41 392.95C1497.39 393.025 1497.37 393.1 1497.36 393.175C1497.37 393.175 1497.38 393.175 1497.38 393.175C1497.33 393.494 1497.27 393.832 1497.22 394.188C1497.22 394.226 1497.22 394.254 1497.22 394.273C1497.17 394.666 1497.11 395.079 1497.06 395.511C1497.06 395.529 1497.06 395.539 1497.06 395.539C1497.02 395.952 1496.98 396.364 1496.95 396.777C1496.93 396.852 1496.92 396.927 1496.92 397.002C1496.88 397.377 1496.85 397.743 1496.81 398.1C1496.81 398.212 1496.81 398.315 1496.81 398.409C1496.78 398.747 1496.75 399.085 1496.73 399.422C1496.71 399.554 1496.7 399.685 1496.7 399.816C1496.69 400.154 1496.66 400.482 1496.62 400.801C1496.62 400.857 1496.62 400.914 1496.62 400.97C1496.46 403.671 1496.4 405.81 1496.4 405.81L1497.65 405.951L1498.36 406.035C1498.34 406.073 1498.33 406.11 1498.33 406.148C1498.3 406.392 1498.25 406.636 1498.2 406.879C1498.2 406.917 1498.19 406.964 1498.17 407.02V407.048C1497.36 412.114 1497.79 417.32 1497.79 417.32L1499.42 416.982C1499.39 417.094 1499.35 417.216 1499.31 417.348C1499.26 417.601 1499.18 417.826 1499.12 418.079C1497.6 424.27 1498.74 431.953 1498.74 431.953H1498.96C1498.96 431.953 1498.96 431.962 1498.96 431.981C1498.96 432.018 1498.97 432.056 1498.99 432.093C1499.12 436.258 1499.67 442.083 1499.97 444.982C1499.91 445.713 1499.88 446.558 1499.88 447.514C1498.61 446.529 1497.6 446.135 1497.6 446.135C1497.6 446.135 1498.8 447.88 1499.94 450.103C1499.96 450.497 1499.98 450.891 1499.99 451.285C1498.25 449.906 1496.46 450.019 1496.46 450.019C1496.46 450.019 1498.39 451.651 1500.1 453.368C1500.1 453.705 1500.12 454.043 1500.16 454.381C1497 453.283 1494.28 453.874 1494.28 453.874C1497.41 454.155 1499.88 456.998 1499.88 456.998C1499.88 456.998 1497.87 456.35 1494.47 456.632C1496.62 456.716 1499.31 458.545 1500.51 459.474C1500.51 459.587 1500.52 459.709 1500.54 459.84C1499.67 459.699 1498.01 459.53 1496.27 460.093C1497.52 459.981 1499.23 460.656 1500.56 461.331C1493.98 461.922 1488.6 464.145 1496 463.751C1504.4 463.329 1506.14 463.273 1502.71 464.455C1499.29 465.637 1513.32 464.652 1523.51 463.808C1533.68 462.935 1546.51 464.173 1539.55 462.795C1536.02 462.091 1533.25 461.81 1531.37 461.725C1531.89 460.178 1533.44 456.632 1537.05 456.632C1536.78 456.547 1536.54 456.463 1536.29 456.435C1536.24 456.407 1536.18 456.407 1536.13 456.407C1535.98 456.388 1535.85 456.379 1535.72 456.379C1535.72 456.379 1535.71 456.379 1535.69 456.379C1535.18 456.35 1534.66 456.463 1534.2 456.632C1534.16 456.651 1534.12 456.669 1534.06 456.688C1533.95 456.726 1533.84 456.782 1533.71 456.857C1533.65 456.876 1533.6 456.894 1533.55 456.913C1533.44 456.988 1533.33 457.054 1533.22 457.11C1533.16 457.148 1533.11 457.185 1533.06 457.223C1532.97 457.298 1532.87 457.373 1532.76 457.448C1532.7 457.485 1532.65 457.523 1532.59 457.56C1532.5 457.636 1532.41 457.711 1532.32 457.786C1532.27 457.842 1532.22 457.889 1532.19 457.926C1532.09 458.001 1532 458.086 1531.91 458.18C1531.88 458.217 1531.83 458.264 1531.78 458.32C1531.71 458.395 1531.63 458.48 1531.56 458.574C1531.51 458.611 1531.46 458.658 1531.42 458.714C1531.35 458.808 1531.28 458.892 1531.21 458.967C1531.17 459.024 1531.13 459.071 1531.1 459.108C1531.04 459.202 1530.98 459.286 1530.91 459.361C1530.87 459.418 1530.84 459.474 1530.83 459.53C1530.77 459.605 1530.72 459.68 1530.66 459.755C1530.63 459.812 1530.6 459.859 1530.58 459.896C1530.53 459.971 1530.48 460.046 1530.45 460.121C1530.41 460.178 1530.38 460.224 1530.36 460.262C1530.33 460.318 1530.3 460.375 1530.28 460.431C1530.23 460.543 1530.18 460.637 1530.15 460.712C1530.72 457.476 1532.73 455.675 1532.73 455.675C1532.73 455.675 1530.06 456.153 1529.06 458.911C1528.87 456.35 1533.19 452.72 1533.19 452.72C1533.19 452.72 1529.41 453.396 1528.52 456.35C1528.52 456.35 1529.41 451.398 1531.07 450.553C1528.6 451.032 1528.05 454.549 1528.05 454.549C1528.05 454.549 1527.59 451.595 1528.95 448.752C1526.67 452.073 1526.67 454.437 1526.67 454.437C1526.67 454.437 1526.65 454.399 1526.61 454.324L1525.69 450.272H1526.39L1525.2 434.57C1525.43 434.513 1525.71 434.448 1526.01 434.373C1525.23 430.911 1524.9 423.651 1524.79 419.289C1524.79 418.501 1524.76 417.826 1524.76 417.263C1524.98 417.235 1525.2 417.207 1525.47 417.179C1525.28 412.648 1526.01 406.317 1526.53 402.687C1526.55 402.518 1526.57 402.349 1526.58 402.18C1526.6 402.067 1526.62 401.955 1526.64 401.842C1526.66 401.749 1526.67 401.664 1526.67 401.589C1526.69 401.505 1526.69 401.448 1526.72 401.392C1526.99 401.476 1527.29 401.561 1527.67 401.673C1527.67 398.043 1529.3 392.472 1530.34 389.348C1530.35 389.31 1530.36 389.273 1530.36 389.235C1530.45 388.973 1530.54 388.729 1530.61 388.504C1530.8 388.588 1530.96 388.673 1531.15 388.757C1531.75 386.562 1533.22 382.51 1533.98 380.399L1536.51 384.029L1538.9 382.622L1537.71 384.845L1539.64 389.911L1540.91 389.489L1540.04 390.98L1542.03 398.803H1544.12L1542.76 400.041L1543.58 400.801L1543.09 401.702L1543.41 409.44L1546.22 409.581L1544.53 410.678L1545.73 411.579L1544.2 412.254L1543.41 420.218L1544.69 419.965L1544.12 420.64L1545.02 421.709L1544.12 421.963C1544.12 421.963 1543.58 426.212 1543.17 427.703C1543.17 427.703 1549.75 420.668 1551.14 417.179C1550.46 415.884 1550.46 415.884 1550.46 415.884L1551.76 415.828C1551.76 415.828 1554.32 411.607 1554.73 408.624C1553.83 407.189 1553.83 407.189 1553.83 407.189L1555.08 407.78L1555.54 405.501L1554.73 404.206L1555.89 404.713C1555.89 404.713 1555.95 404.572 1556 404.319C1556.36 403.109 1557.39 399.253 1557.34 396.861C1556.03 393.935 1556.03 393.935 1556.03 393.935L1557.42 394.582C1557.42 394.582 1557.42 394.545 1557.42 394.469C1557.42 393.456 1557.34 385.324 1556.44 382.172C1555.92 381.778 1555.54 381.497 1555.24 381.272L1559.35 383.044L1559.73 382.763L1560.27 383.72L1561.01 382.482L1560.73 384.564C1562.47 385.239 1566.88 388.841 1566.88 388.841L1568.08 388.082L1567.07 389.911C1567.07 389.911 1567.34 390.051 1567.78 390.389C1567.79 390.408 1567.81 390.417 1567.83 390.417C1567.92 390.492 1568.02 390.577 1568.13 390.671C1568.17 390.708 1568.2 390.736 1568.24 390.755C1568.35 390.849 1568.46 390.952 1568.57 391.064C1568.6 391.083 1568.63 391.111 1568.65 391.149C1568.95 391.43 1569.3 391.768 1569.68 392.162C1569.72 392.199 1569.75 392.237 1569.79 392.275C1569.95 392.462 1570.12 392.65 1570.28 392.837C1570.31 392.894 1570.36 392.941 1570.41 392.978C1570.81 393.466 1571.25 394.019 1571.72 394.638C1571.77 394.695 1571.82 394.76 1571.86 394.835C1572.05 395.098 1572.24 395.37 1572.43 395.651C1572.48 395.726 1572.53 395.801 1572.59 395.877C1573.08 396.589 1573.58 397.387 1574.08 398.268C1574.16 398.381 1574.23 398.494 1574.3 398.606C1574.48 398.944 1574.67 399.291 1574.87 399.647C1574.95 399.797 1575.02 399.938 1575.09 400.069C1575.36 400.557 1575.63 401.064 1575.88 401.589C1575.9 401.533 1575.91 401.476 1575.91 401.42C1575.91 401.533 1575.88 401.589 1575.88 401.589C1575.88 401.589 1575.91 401.42 1575.93 401.054C1575.93 401.054 1575.93 401.026 1575.93 400.998C1575.95 400.66 1575.96 400.323 1575.96 399.985C1575.98 399.797 1575.99 399.619 1575.99 399.45C1576.01 399.113 1576.02 398.775 1576.02 398.437C1576.02 398.25 1576.02 398.062 1576.02 397.874C1576.02 397.537 1576.02 397.218 1576.02 396.918C1576.02 396.749 1576.01 396.589 1575.99 396.439C1575.99 396.008 1575.98 395.595 1575.96 395.201C1575.96 395.164 1575.95 395.126 1575.93 395.089C1575.92 394.657 1575.89 394.235 1575.85 393.822C1575.85 393.691 1575.84 393.56 1575.82 393.428C1575.79 393.147 1575.76 392.875 1575.74 392.612C1575.73 392.481 1575.71 392.34 1575.69 392.19C1575.65 391.927 1575.62 391.674 1575.58 391.43C1575.56 391.318 1575.54 391.205 1575.53 391.093C1575.47 390.755 1575.42 390.427 1575.36 390.108C1575.34 390.089 1575.34 390.08 1575.34 390.08C1575.28 389.742 1575.22 389.414 1575.15 389.095C1575.13 389.02 1575.11 388.945 1575.09 388.87C1575.02 388.644 1574.95 388.419 1574.9 388.194C1574.88 388.119 1574.86 388.035 1574.85 387.941C1574.77 387.735 1574.71 387.528 1574.66 387.322C1574.64 387.247 1574.62 387.181 1574.6 387.125C1574.42 386.6 1574.25 386.112 1574.08 385.662C1574.07 385.643 1574.06 385.624 1574.06 385.605C1573.97 385.399 1573.89 385.202 1573.81 385.014C1573.79 384.996 1573.78 384.967 1573.76 384.93C1573.67 384.742 1573.59 384.564 1573.51 384.395C1573.51 384.395 1573.5 384.386 1573.49 384.367C1572.48 382.397 1571.58 381.637 1571.58 381.637L1571.86 380.962L1568.37 378.486L1568.73 377.641L1567.18 377.444C1567.18 377.444 1567.18 377.444 1567.34 376.319C1557.15 367.567 1546.05 369.565 1546.05 369.565L1546.11 369.65C1545.94 369.612 1545.78 369.575 1545.62 369.537C1545.69 369.499 1545.77 369.471 1545.86 369.453C1545.84 369.453 1545.83 369.453 1545.83 369.453C1547.28 368.918 1550.21 367.905 1551.38 367.764C1550.92 364.415 1550.92 364.415 1550.92 364.415L1552.74 367.089L1555.87 366.526L1555.68 364.247L1556.71 366.216L1561.28 365.851L1561.66 363.459L1562.12 365.569L1564.32 366.132L1565.33 363.374L1565.79 367.37L1570.47 368.411L1570.66 366.329L1571.47 368.974L1573.05 369.171L1573.6 367.089L1573.98 369.565C1573.98 369.565 1576.99 370.606 1578 372.042C1577.65 366.216 1572.94 360.054 1569.46 357.38C1569.27 359.097 1569.27 359.097 1569.27 359.097L1567.91 356.733L1563.05 355.382L1563.21 357.015L1562.01 354.932C1562.01 354.932 1559.81 354.144 1557.61 354.144C1557.99 355.298 1558.26 355.664 1558.26 355.664L1555.68 353.975C1555.68 353.975 1553.42 354.172 1550.62 354.82C1550.57 354.838 1550.51 354.848 1550.46 354.848C1550.24 354.904 1550.01 354.96 1549.78 355.017C1549.65 355.054 1549.52 355.082 1549.4 355.101C1549.2 355.157 1549 355.214 1548.8 355.27C1548.64 355.326 1548.47 355.373 1548.31 355.41C1548.13 355.467 1547.95 355.523 1547.77 355.579C1547.6 355.636 1547.43 355.701 1547.25 355.776C1547.09 355.814 1546.92 355.861 1546.76 355.917C1546.56 355.992 1546.37 356.067 1546.19 356.142C1546.04 356.198 1545.9 356.255 1545.75 356.311C1545.55 356.405 1545.35 356.499 1545.13 356.592C1545.02 356.649 1544.91 356.705 1544.8 356.761V356.733C1544.78 356.752 1544.77 356.761 1544.75 356.761C1544.61 356.846 1544.48 356.93 1544.31 356.986C1544.15 357.071 1544.01 357.155 1543.85 357.24C1543.56 357.408 1543.28 357.587 1543.01 357.774C1543.47 358.815 1543.47 358.815 1543.47 358.815L1541.65 358.253L1541.92 359.378C1541.92 359.378 1540.61 360.082 1539.04 361.32C1539.04 361.264 1539.05 361.198 1539.06 361.123C1539.25 359.012 1539.83 354.594 1541.46 352.062C1541.44 352.043 1541.42 352.024 1541.4 352.005C1540.45 351.133 1540.45 351.105 1540.45 351.105L1541.81 350.739L1542.82 347.137L1541.54 345.899L1543.28 345.786L1544.75 340.271L1543.74 339.145H1545.13L1545.86 333.996C1545.86 333.996 1538.25 336.106 1534.47 342.466C1534.93 343.901 1534.93 343.901 1534.93 343.901L1533.74 343.704L1532.62 346.546L1532.81 347.419L1531.89 347.7L1530.26 351.977L1531.53 352.625H1529.98C1529.98 352.625 1529.77 353.441 1529.58 354.763C1529.58 354.782 1529.58 354.801 1529.58 354.82C1529.52 355.289 1529.47 355.823 1529.41 356.424C1529.39 356.461 1529.39 356.489 1529.39 356.508C1529.37 356.808 1529.35 357.118 1529.33 357.437C1529.33 357.455 1529.33 357.474 1529.33 357.493C1529.31 357.812 1529.29 358.14 1529.28 358.478C1529.28 358.497 1529.28 358.515 1529.28 358.534C1529.28 358.872 1529.28 359.228 1529.28 359.603C1529.28 359.641 1529.28 359.678 1529.28 359.716C1529.28 360.241 1529.29 360.785 1529.33 361.348C1528.05 359.097 1526.97 358.084 1526.97 358.084L1526.42 359.575C1526.42 359.575 1526.2 358.9 1525.9 357.437C1528.22 351.302 1528.68 344.576 1528.68 344.576L1529.58 344.239L1528.57 342.353C1528.57 342.353 1528.57 342.353 1529.36 342.241C1529.38 342.203 1529.39 342.156 1529.39 342.1C1529.44 341.669 1529.49 341.256 1529.55 340.862C1529.55 340.768 1529.56 340.665 1529.58 340.552C1529.59 340.233 1529.61 339.933 1529.63 339.652C1529.63 339.539 1529.63 339.436 1529.63 339.342C1529.63 339.023 1529.63 338.714 1529.63 338.414C1529.63 338.395 1529.63 338.376 1529.63 338.357C1529.61 338.038 1529.58 337.748 1529.55 337.485C1529.53 337.429 1529.52 337.382 1529.52 337.344C1529.48 337.138 1529.45 336.941 1529.41 336.753C1529.39 336.697 1529.39 336.641 1529.39 336.585C1529.33 336.416 1529.28 336.256 1529.22 336.106C1529.22 336.069 1529.21 336.04 1529.19 336.022C1529.09 335.656 1528.95 335.403 1528.81 335.177C1528.81 335.177 1528.81 335.177 1528.79 335.177C1528.49 334.699 1528.24 334.558 1528.24 334.558L1528.92 334.446L1527.56 333.517C1527.56 333.517 1527.56 333.517 1529.03 333.151C1528.46 329.775 1525.77 324.428 1525.77 324.428L1526.1 323.612L1524.41 322.571C1524.41 322.571 1524.41 322.571 1525.42 322.458C1523.57 319.025 1521.36 317.224 1519.27 316.323C1519.25 316.305 1519.23 316.295 1519.19 316.295C1519.01 316.201 1518.82 316.126 1518.62 316.07C1518.56 316.051 1518.5 316.033 1518.43 316.014C1518.26 315.958 1518.1 315.901 1517.94 315.845C1519.19 315.845 1520.11 315.873 1520.11 315.873L1520.49 314.804C1520.49 314.804 1520.49 314.804 1521.12 316.267C1521.39 316.248 1521.65 316.239 1521.91 316.239C1521.98 316.239 1522.05 316.239 1522.13 316.239C1522.38 316.239 1522.62 316.248 1522.86 316.267C1525.52 316.464 1527.64 317.449 1527.64 317.449L1528.27 316.52C1528.27 316.52 1528.27 316.52 1528.52 318.378C1531.07 319.053 1535.94 322.739 1535.94 322.739L1536.84 321.951C1536.84 321.951 1536.84 321.951 1536.84 323.274C1537.98 323.809 1539.39 325.244 1539.39 325.244L1540.91 323.415L1540.15 326.173L1540.37 326.37L1546.13 331.857L1547.41 331.463L1546.65 333.039L1550.1 337.935L1551.25 337.147L1550.35 339.117C1550.35 339.117 1553.94 342.072 1556.14 347.981C1561.66 337.907 1556.71 329.155 1556.71 329.155C1556.71 329.155 1556.66 329.155 1556.63 329.155C1556.61 329.155 1556.6 329.155 1556.6 329.155C1556.57 329.137 1556.52 329.118 1556.47 329.099C1556.45 329.099 1556.43 329.09 1556.41 329.071C1556.34 329.052 1556.28 329.015 1556.22 328.958C1556.22 328.958 1556.21 328.949 1556.19 328.93C1556.12 328.874 1556.07 328.79 1556.03 328.677C1555.95 328.396 1556 327.945 1556.33 327.242C1556.17 326.885 1556 326.529 1555.84 326.173C1555.7 325.891 1555.55 325.619 1555.41 325.356C1555.37 325.3 1555.33 325.235 1555.3 325.159C1555.15 324.897 1555 324.634 1554.83 324.372C1554.82 324.315 1554.79 324.259 1554.75 324.203C1554.59 323.959 1554.43 323.724 1554.26 323.499C1554.25 323.443 1554.22 323.387 1554.18 323.33C1554.02 323.105 1553.86 322.88 1553.69 322.655C1553.66 322.617 1553.62 322.571 1553.58 322.514C1553.42 322.308 1553.26 322.102 1553.09 321.895C1553.06 321.858 1553.03 321.82 1553.01 321.783C1552.85 321.576 1552.69 321.389 1552.52 321.22C1552.49 321.182 1552.46 321.145 1552.44 321.107C1552.26 320.92 1552.09 320.741 1551.93 320.573C1551.93 320.554 1551.92 320.535 1551.9 320.516C1550.38 318.94 1549.15 318.124 1549.15 318.124L1547.87 318.884C1547.87 318.884 1547.87 318.884 1548.25 316.999C1546.22 315.648 1540.34 312.243 1540.34 312.243L1538.14 313.763C1538.14 313.763 1538.14 313.763 1539.25 311.849C1532.81 308.05 1529.52 307.853 1529.52 307.853L1528.41 309.007C1528.41 309.007 1528.41 309.007 1528.41 307.487C1525.03 307.544 1522.29 307.994 1520.03 308.613C1520.03 308.613 1520.04 308.613 1520.06 308.613C1520 308.632 1519.96 308.641 1519.92 308.641C1519.47 308.772 1519.03 308.913 1518.59 309.063C1518.52 309.101 1518.45 309.129 1518.37 309.148C1517.97 309.298 1517.6 309.448 1517.26 309.598C1517.2 309.617 1517.16 309.635 1517.12 309.654C1516.72 309.823 1516.35 310.001 1516.01 310.189C1515.95 310.226 1515.9 310.254 1515.84 310.273C1515.14 310.648 1514.52 311.033 1514 311.427C1513.94 311.464 1513.9 311.502 1513.86 311.539C1513.59 311.727 1513.33 311.924 1513.1 312.13C1513.1 312.13 1513.09 312.14 1513.07 312.159C1512.94 312.271 1512.82 312.384 1512.69 312.496C1514.16 310.132 1516.31 306.981 1517.86 306.052C1517.2 305.095 1517.2 305.095 1517.2 305.095L1518.67 305.292C1518.67 305.292 1518.7 305.264 1518.7 305.236C1518.72 305.198 1518.74 305.152 1518.78 305.095C1518.78 305.077 1518.79 305.058 1518.81 305.039C1518.94 304.814 1519.11 304.504 1519.35 304.082C1519.37 304.063 1519.38 304.035 1519.38 303.998C1520.36 302.366 1522.07 299.636 1523.46 298.736C1521.99 297.3 1521.99 297.3 1521.99 297.3L1523.73 297.976C1523.73 297.976 1523.74 297.966 1523.76 297.948C1523.76 297.929 1523.76 297.919 1523.76 297.919C1523.77 297.901 1523.79 297.873 1523.81 297.835C1523.83 297.816 1523.85 297.798 1523.87 297.779C1523.88 297.76 1523.91 297.732 1523.95 297.694C1523.97 297.676 1523.98 297.647 1524 297.61C1524.04 297.572 1524.07 297.544 1524.11 297.526C1524.15 297.488 1524.18 297.45 1524.22 297.413C1524.27 297.394 1524.33 297.366 1524.38 297.329C1524.44 297.291 1524.48 297.253 1524.52 297.216C1524.59 297.178 1524.66 297.141 1524.74 297.103C1524.79 297.085 1524.84 297.066 1524.9 297.047C1524.99 297.01 1525.09 296.972 1525.2 296.935C1525.25 296.916 1525.31 296.897 1525.36 296.878C1525.54 296.822 1525.73 296.775 1525.93 296.738C1524.08 295.021 1524.19 294.458 1524.19 294.458L1527.67 296.062C1527.67 296.062 1531.8 291.897 1533 291.138C1531.8 289.984 1531.45 289.505 1531.45 289.505L1534.55 290.856L1539.72 287.704L1538.87 286.579L1541.08 287.423C1541.08 287.423 1545.86 285.228 1550.19 286.269C1549.86 285.763 1549.45 285.256 1548.99 284.722C1546 281.401 1539.99 278.193 1531.07 279.347C1531.53 280.782 1531.61 281.26 1531.61 281.26L1530.06 279.713C1530.06 279.713 1527.02 280.191 1522.72 283.54C1523.62 285.059 1523.62 285.059 1523.62 285.059L1522.26 284.665C1522.26 284.665 1520.98 285.622 1519.87 287.62C1520.52 288.464 1520.52 288.464 1520.52 288.464L1518.21 288.267C1518.21 288.267 1515.65 292.094 1513.83 295.612C1513.81 295.424 1513.81 295.246 1513.81 295.077C1513.81 294.965 1513.81 294.862 1513.81 294.768C1513.79 294.374 1513.76 293.999 1513.72 293.642C1513.72 293.586 1513.71 293.53 1513.7 293.473C1513.68 293.173 1513.65 292.892 1513.62 292.629C1513.6 292.516 1513.58 292.413 1513.56 292.32C1513.54 292.076 1513.52 291.851 1513.48 291.644C1513.46 291.55 1513.44 291.466 1513.42 291.391C1513.37 291.128 1513.32 290.875 1513.26 290.631C1513.24 290.537 1513.23 290.443 1513.21 290.35C1513.17 290.2 1513.13 290.05 1513.1 289.899C1513.06 289.806 1513.04 289.712 1513.02 289.618C1512.98 289.487 1512.94 289.365 1512.91 289.252C1512.88 289.196 1512.85 289.111 1512.85 289.055C1512.31 287.507 1511.79 286.86 1511.79 286.86L1510.68 288.183C1510.68 288.183 1510.6 287.704 1511.14 286.185C1509.21 281.626 1506.46 279.262 1506.46 279.262L1505.81 280.782C1505.81 280.782 1505.81 280.754 1505.78 280.697C1505.78 280.669 1505.78 280.669 1505.78 280.669C1505.73 280.472 1505.59 279.966 1505.32 279.178C1505.21 278.925 1505.1 278.615 1505 278.306C1503.15 275.914 1497.33 273.1 1497.33 273.1L1496.65 273.606C1496.65 273.606 1496.65 273.606 1496.73 272.452C1488.52 270.736 1484.47 271.017 1484.47 271.017C1487.3 271.636 1490.2 278.052 1490.2 278.052L1491.29 277.011C1491.29 277.011 1491.29 277.011 1490.61 278.531C1492.3 279.544 1495.59 284.299 1495.59 284.299L1496.89 283.54C1496.89 283.54 1496.89 283.54 1495.89 284.581C1497.93 286.607 1499.69 289.759 1500.48 291.194C1500.73 291.7 1500.89 292.01 1500.89 292.01L1503.07 291.7L1501.54 292.404L1503.88 300.255L1505.4 300.818L1503.88 300.987L1504.18 302.169L1500.86 299.833C1500.86 299.833 1500.86 299.833 1500.43 300.677C1500.37 300.48 1500.29 300.283 1500.18 300.114C1500.17 300.077 1500.14 300.039 1500.1 300.002C1499.87 299.627 1499.57 299.289 1499.2 298.989C1499.17 298.97 1499.13 298.942 1499.1 298.904C1498.9 298.754 1498.7 298.614 1498.5 298.482C1498.26 298.351 1498.03 298.22 1497.79 298.088C1497.75 298.088 1497.73 298.079 1497.71 298.06C1497.62 298.023 1497.53 297.976 1497.44 297.919C1497.44 297.938 1497.44 297.948 1497.44 297.948C1494.64 296.653 1490.94 296.259 1490.94 296.259L1491.21 296.822C1491.21 296.822 1490.94 296.259 1489.28 295.415C1486.45 295.725 1484.11 296.344 1482.21 297.075C1482.21 297.056 1482.21 297.047 1482.21 297.047C1482.14 297.085 1482.08 297.113 1482.02 297.132C1481.77 297.225 1481.51 297.329 1481.26 297.441C1481.08 297.516 1480.9 297.601 1480.72 297.694C1480.47 297.779 1480.25 297.891 1480.04 298.004C1479.87 298.088 1479.68 298.173 1479.52 298.285C1479.18 298.473 1478.85 298.66 1478.54 298.848C1478.4 298.942 1478.25 299.036 1478.11 299.13C1477.94 299.242 1477.78 299.355 1477.62 299.467C1477.49 299.561 1477.36 299.655 1477.24 299.749C1477.09 299.861 1476.95 299.974 1476.83 300.086C1476.7 300.18 1476.58 300.274 1476.47 300.368C1476.29 300.537 1476.12 300.696 1475.96 300.846C1475.85 300.959 1475.74 301.062 1475.63 301.156C1475.54 301.249 1475.46 301.343 1475.39 301.437C1475.3 301.531 1475.21 301.625 1475.14 301.718C1475.07 301.793 1475.01 301.869 1474.95 301.944C1474.88 302.037 1474.82 302.122 1474.76 302.197C1474.71 302.272 1474.65 302.338 1474.6 302.394C1474.51 302.525 1474.43 302.647 1474.35 302.76C1474.33 302.816 1474.3 302.844 1474.27 302.9C1474.24 302.957 1474.2 303.013 1474.16 303.069C1474.15 303.107 1474.13 303.144 1474.11 303.182C1474.07 303.219 1474.05 303.257 1474.05 303.294C1474.04 303.313 1474.03 303.332 1474.03 303.351C1474.01 303.388 1474 303.407 1474 303.407C1474.38 303.294 1474.73 303.21 1475.11 303.154C1475.24 303.135 1475.37 303.116 1475.5 303.097C1475.77 303.06 1476.03 303.032 1476.28 303.013C1476.41 302.994 1476.54 302.985 1476.66 302.985C1477.01 302.966 1477.34 302.966 1477.67 302.985C1477.8 302.985 1477.92 302.994 1478.05 303.013C1478.27 303.013 1478.49 303.022 1478.7 303.041C1478.87 303.06 1479.02 303.079 1479.17 303.097C1479.37 303.135 1479.56 303.172 1479.74 303.21C1479.86 303.229 1479.99 303.247 1480.12 303.266C1480.41 303.322 1480.68 303.379 1480.93 303.435C1481.04 303.473 1481.16 303.51 1481.29 303.548C1481.45 303.585 1481.61 303.632 1481.78 303.688C1481.87 303.707 1481.96 303.735 1482.05 303.773C1482.27 303.829 1482.48 303.913 1482.7 303.97C1483.54 304.279 1484.06 304.532 1484.06 304.532L1484.47 303.407C1484.47 303.407 1484.47 303.407 1484.88 305.405C1486.67 305.686 1489.69 306.953 1489.69 306.953L1490.94 305.968C1490.94 305.968 1490.94 305.968 1490.53 307.966C1491.89 308.275 1494.15 309.935 1495.13 310.695C1495.43 310.949 1495.62 311.089 1495.62 311.089L1497 309.513C1497 309.513 1497 309.513 1496.73 311.821C1498.09 312.299 1499.23 313.256 1500.1 314.185C1500.37 314.485 1500.61 314.766 1500.81 315.029C1500.83 315.048 1500.85 315.066 1500.86 315.085C1500.86 315.085 1500.86 315.095 1500.86 315.113C1500.85 315.113 1500.83 315.113 1500.81 315.113C1500.72 315.151 1500.64 315.179 1500.56 315.198C1500.36 315.273 1500.17 315.348 1499.99 315.423C1499.96 315.423 1499.93 315.432 1499.91 315.451C1499.04 315.817 1498.58 316.126 1498.58 316.126V317.168L1497 316.52C1496 317.646 1491.75 322.796 1491.75 322.796L1492.03 324.118C1492.03 324.118 1492.03 324.118 1490.75 324.034C1487.54 327.551 1485.99 332.757 1485.99 332.757L1486.26 333.63C1486.26 333.63 1486.26 333.63 1485.15 333.911C1484.55 335.571 1484.09 337.175 1483.71 338.751C1483.67 338.92 1483.63 339.08 1483.6 339.23C1483.54 339.492 1483.49 339.746 1483.43 339.99C1483.36 340.327 1483.3 340.655 1483.24 340.974C1483.21 341.2 1483.16 341.425 1483.11 341.65C1483.05 342.044 1483 342.419 1482.95 342.775C1482.93 342.944 1482.91 343.104 1482.89 343.254C1482.82 343.76 1482.76 344.248 1482.7 344.717C1482.7 344.914 1482.67 345.111 1482.67 345.28C1482.64 345.58 1482.61 345.88 1482.59 346.18C1482.57 346.368 1482.56 346.556 1482.56 346.743C1482.55 347.006 1482.53 347.269 1482.51 347.531C1482.51 347.719 1482.51 347.897 1482.51 348.066C1482.49 348.31 1482.48 348.554 1482.48 348.797C1482.48 348.948 1482.48 349.107 1482.48 349.276ZM1533.16 372.689L1533.14 372.801C1533.08 372.689 1533.02 372.576 1532.95 372.464C1532.93 372.37 1532.91 372.285 1532.89 372.21C1532.89 372.21 1532.9 372.21 1532.92 372.21L1533.11 371.901C1533.11 371.957 1533.11 372.023 1533.11 372.098C1533.13 372.285 1533.15 372.482 1533.16 372.689ZM1533.03 373.223L1532.81 373.927C1532.79 373.889 1532.77 373.852 1532.73 373.814L1533.03 373.223ZM1513.07 459.221C1513.05 459.371 1513.04 459.483 1513.04 459.558C1513.04 459.465 1513.04 459.333 1513.04 459.164L1513.07 459.221ZM1510.87 313.791C1510.89 314.016 1510.91 314.25 1510.95 314.494V314.466C1510.91 314.429 1510.88 314.4 1510.84 314.382C1510.84 314.382 1510.84 314.372 1510.84 314.354C1510.81 314.335 1510.79 314.325 1510.79 314.325L1510.43 315.029C1510.49 314.888 1510.52 314.747 1510.57 314.607C1510.64 314.382 1510.74 314.081 1510.87 313.706C1510.87 313.725 1510.87 313.753 1510.87 313.791ZM1524.57 356.621C1522.61 355.579 1520.36 354.369 1520.36 354.369L1520.09 356.227C1520.09 356.227 1519.81 355.861 1518.7 354.172C1514.78 352.653 1509.21 352.596 1509.21 352.596L1508.86 353.947C1508.86 353.947 1508.86 353.947 1507.82 352.315C1507.17 352.231 1506.41 352.174 1505.68 352.146C1505.84 348.797 1506.17 345.533 1506.41 343.507C1506.43 343.301 1506.45 343.104 1506.46 342.916C1506.74 343.001 1507.01 343.085 1507.39 343.198C1507.31 339.596 1508.72 334.052 1509.62 330.9C1509.65 330.788 1509.68 330.684 1509.7 330.591C1509.75 330.422 1509.81 330.253 1509.86 330.084C1509.86 330.047 1509.87 330.009 1509.89 329.971C1510.05 330.056 1510.22 330.112 1510.41 330.225C1510.57 329.493 1510.81 328.593 1511.11 327.636L1511.36 328.17L1513.18 326.763L1512.04 328.733L1515.98 337.71L1518.02 337.007L1516.88 338.048L1518.13 340.862L1520.03 341.903L1519.13 342.353L1520.39 346.237L1521.04 348.291L1522.07 347.953L1521.39 348.994C1521.39 348.994 1522.83 350.233 1524.57 356.621ZM1527.94 368.862C1528.27 369.03 1528.59 369.199 1528.9 369.368C1528.95 369.406 1529.01 369.443 1529.09 369.481C1529.17 369.509 1529.22 369.565 1529.3 369.621C1529.18 369.546 1529.05 369.481 1528.92 369.424C1528.85 369.387 1528.77 369.359 1528.68 369.34C1528.44 369.227 1528.21 369.124 1527.97 369.03C1527.9 369.012 1527.82 368.984 1527.73 368.946C1527.55 368.89 1527.36 368.824 1527.18 368.749C1527.09 368.73 1527 368.702 1526.91 368.665C1526.69 368.59 1526.48 368.524 1526.26 368.468C1526.22 368.449 1526.18 368.43 1526.12 368.411C1525.87 368.336 1525.61 368.271 1525.36 368.214C1525.29 368.196 1525.22 368.177 1525.14 368.158C1524.93 368.102 1524.71 368.046 1524.49 367.989C1524.44 367.971 1524.39 367.961 1524.36 367.961C1521.23 367.229 1518.51 367.061 1518.51 367.061L1518.73 368.44C1518.73 368.44 1518.73 368.44 1517.2 367.117C1513.89 367.089 1509.94 367.764 1509.94 367.764L1510.52 369.087L1508.56 367.877L1505.49 368.496C1505.4 367.511 1505.32 366.498 1505.27 365.485C1506.27 365.569 1507.52 365.654 1508.42 365.738C1510.35 365.991 1512.01 366.273 1512.01 366.273L1512.77 365.147L1512.72 366.723L1517.48 366.92L1517.86 366.245C1517.91 366.226 1517.97 366.216 1518.05 366.216C1518.05 366.329 1518.07 366.526 1518.07 366.779C1522.26 366.667 1525.52 367.652 1527.94 368.862ZM1528.3 379.161L1524.57 385.633L1525.39 385.999C1525.26 386.243 1525.13 386.506 1525.01 386.787C1524.99 386.825 1524.97 386.872 1524.95 386.928C1524.81 387.228 1524.65 387.547 1524.49 387.885C1524.47 387.941 1524.45 387.988 1524.44 388.025C1524.27 388.401 1524.11 388.785 1523.95 389.179C1523.93 389.217 1523.91 389.245 1523.89 389.263C1523.73 389.657 1523.57 390.061 1523.4 390.474C1523.37 390.549 1523.34 390.624 1523.32 390.699C1523.18 391.055 1523.03 391.412 1522.89 391.768C1522.83 391.881 1522.78 392.003 1522.72 392.134C1522.61 392.415 1522.51 392.697 1522.4 392.978C1522.15 393.541 1521.94 394.104 1521.72 394.638C1521.72 394.638 1521.72 394.648 1521.72 394.666C1520.68 397.34 1519.87 399.507 1519.87 399.507L1520.77 400.182C1520.75 400.238 1520.74 400.285 1520.74 400.323C1520.72 400.36 1520.7 400.398 1520.68 400.435C1520.65 400.623 1520.6 400.801 1520.55 400.97C1520.44 401.326 1520.34 401.692 1520.25 402.067C1520.23 402.124 1520.21 402.18 1520.2 402.236C1520.2 402.255 1520.2 402.264 1520.2 402.264C1518.26 409.778 1517.12 417.854 1517.12 417.854L1517.88 417.798C1517.88 417.817 1517.88 417.826 1517.88 417.826C1515.55 424.636 1515.46 434.767 1515.46 434.767L1515.95 434.936C1515.94 435.048 1515.93 435.161 1515.93 435.273C1515.91 435.329 1515.9 435.376 1515.9 435.414C1515.84 435.808 1515.79 436.239 1515.74 436.708C1515.41 439.663 1515.14 443.631 1514.97 446.361L1514.76 445.516H1514.92L1511.39 431.249L1511.06 429.955C1511.39 429.861 1511.76 429.748 1512.17 429.617C1510.65 426.775 1509.26 420.556 1508.53 416.813C1508.39 416.138 1508.26 415.547 1508.18 415.068C1508.56 414.984 1508.97 414.899 1509.46 414.787C1507.74 411.494 1507.28 406.26 1507.14 404.459C1507.58 404.431 1508.1 404.375 1508.72 404.319C1506.93 401.308 1506.49 396.102 1506.38 393.034C1506.36 392.847 1506.36 392.668 1506.36 392.5C1506.36 392.481 1506.36 392.472 1506.36 392.472C1506.36 392.228 1506.36 392.003 1506.36 391.796H1507.09L1506.46 384.902L1508.12 383.692L1508.2 383.635L1508.31 381.637L1509.21 383.438L1511.52 383.044L1511.79 381.243L1512.99 383.354L1519.79 379.921L1520.52 377.641L1520.98 380.399L1524.27 379.555L1525.12 376.966L1526.39 380.005L1528.3 379.161ZM1518.18 461.388C1518.15 461.388 1518.12 461.388 1518.1 461.388C1518.1 461.388 1518.1 461.378 1518.1 461.359C1518.1 461.331 1518.16 461.359 1518.18 461.388ZM1514.19 297.216H1513.83C1513.83 297.085 1513.83 296.953 1513.83 296.822C1514.19 297.216 1514.19 297.216 1514.19 297.216Z" fill="#3E2E59"/>
<path opacity="0.6" fill-rule="evenodd" clip-rule="evenodd" d="M432.525 475.119C432.525 475.306 432.525 475.494 432.525 475.681C432.539 475.767 432.546 475.854 432.546 475.94C432.546 476.185 432.553 476.423 432.567 476.654C432.567 476.718 432.567 476.762 432.567 476.827C432.581 476.985 432.595 477.136 432.609 477.28C432.609 477.345 432.609 477.41 432.63 477.497C432.63 477.597 432.637 477.691 432.651 477.777C432.651 477.85 432.658 477.907 432.672 477.95C432.672 478.037 432.679 478.116 432.693 478.188C432.693 478.231 432.693 478.267 432.693 478.296C432.707 478.368 432.714 478.419 432.714 478.448C432.728 478.476 432.735 478.498 432.735 478.512C432.735 478.556 432.735 478.577 432.735 478.577C433.278 474.6 437.587 471.207 437.587 471.207L436.876 469.629C436.876 469.629 437.482 469.824 438.988 470.753C439.002 470.696 439.023 470.624 439.051 470.537C439.065 470.494 439.079 470.443 439.093 470.386C439.107 470.343 439.121 470.299 439.135 470.256C439.149 470.199 439.169 470.134 439.197 470.062C439.211 470.018 439.232 469.975 439.26 469.932C439.288 469.86 439.316 469.781 439.344 469.694C440.013 468.116 441.352 465.761 441.352 465.761L441.017 464.788C441.017 464.788 441.289 464.918 442.084 465.393C442.139 465.249 442.216 465.098 442.314 464.939C442.342 464.882 442.369 464.831 442.397 464.788C442.467 464.673 442.537 464.55 442.607 464.421C443.966 462.194 446.643 459.017 446.643 459.017L446.12 457.396L447.291 458.715L448.672 457.288L448.567 455.322C448.567 455.322 448.567 455.322 449.404 456.856C449.571 456.813 449.78 456.726 449.99 456.618L449.195 458.153L449.801 458.434C449.718 458.636 449.627 458.852 449.529 459.082C449.515 459.082 449.508 459.089 449.508 459.104C448.149 462.389 446.016 468.873 446.016 468.873L446.539 469.262V469.284L446.685 469.392C446.671 469.435 446.657 469.478 446.643 469.521C446.643 469.536 446.643 469.55 446.643 469.565C446.601 469.709 446.566 469.846 446.539 469.975C446.539 469.99 446.539 469.997 446.539 469.997C446.455 470.314 446.378 470.631 446.308 470.948C446.308 470.962 446.308 470.977 446.308 470.991C445.765 473.412 445.325 475.919 444.991 478.015C443.129 478.577 441.331 479.615 440.222 480.328C440.222 480.313 440.222 480.306 440.222 480.306C440.208 480.321 440.201 480.328 440.201 480.328C439.867 480.544 439.616 480.717 439.427 480.847C439.427 480.847 439.42 480.854 439.407 480.868C439.323 480.926 439.26 480.969 439.218 480.998C439.218 480.998 439.211 481.005 439.197 481.019C439.156 481.041 439.135 481.063 439.135 481.063L439.407 481.711C439.407 481.711 439.407 481.711 438.34 481.495C435.203 484.78 434.282 488.195 434.073 490.443C434.031 490.594 434.01 490.702 434.01 490.702C434.01 490.702 434.031 490.616 434.073 490.464C433.927 492.042 434.094 493.058 434.094 493.058C434.199 492.345 435.642 489.881 435.642 489.881C435.642 489.881 435.474 490.378 435.37 491.675C435.509 491.502 435.656 491.336 435.809 491.178C435.851 491.134 435.914 491.07 435.976 491.026C436.074 490.925 436.179 490.825 436.29 490.724C436.36 490.666 436.437 490.608 436.52 490.551C436.618 490.464 436.722 490.378 436.834 490.291C436.918 490.234 437.008 490.176 437.106 490.119C437.203 490.047 437.301 489.974 437.399 489.902C437.51 489.845 437.615 489.787 437.712 489.73C437.81 489.672 437.908 489.614 438.005 489.557C438.117 489.499 438.228 489.441 438.34 489.384C438.424 489.34 438.507 489.297 438.591 489.254C438.73 489.182 438.863 489.117 438.988 489.06C439.058 489.031 439.128 489.002 439.197 488.973C439.337 488.901 439.483 488.836 439.637 488.779C441.456 488.022 443.046 487.676 443.046 487.676V486.596C443.046 486.596 443.046 486.812 443.631 487.784C443.715 487.77 443.799 487.748 443.882 487.719C443.548 490.183 443.422 492.582 443.38 494.16L442.125 494.701L442.272 496.689C442.272 496.689 441.916 496.321 441.644 495.371C440.661 496.105 437.608 499.023 437.608 499.023V500.255C437.608 500.255 437.608 500.255 437.043 499.52C436.311 499.996 435.014 501.746 434.512 502.438C434.471 502.496 434.436 502.546 434.408 502.589C434.394 502.604 434.387 502.611 434.387 502.611C434.324 502.697 434.303 502.741 434.303 502.741L434.429 503.843C434.429 503.843 434.429 503.843 433.655 503.692C432.107 510.543 433.948 515.082 433.948 515.082C434.993 511.861 436.771 512.315 436.771 512.315L436.98 511.494C436.98 511.494 436.98 511.494 437.545 512.315C437.782 511.969 438.012 511.645 438.235 511.343C438.319 511.227 438.403 511.119 438.486 511.018C438.64 510.831 438.793 510.644 438.946 510.456C439.044 510.341 439.142 510.226 439.239 510.111C439.379 509.952 439.518 509.794 439.658 509.635C439.755 509.534 439.853 509.433 439.95 509.333C440.09 509.188 440.222 509.052 440.348 508.922C440.445 508.821 440.543 508.72 440.641 508.619C440.78 508.49 440.912 508.367 441.038 508.252C441.135 508.165 441.226 508.079 441.31 507.993C441.449 507.877 441.582 507.769 441.707 507.668C441.791 507.596 441.874 507.524 441.958 507.452C442.376 507.121 442.767 506.825 443.129 506.566C443.108 507.063 443.108 507.344 443.108 507.344L444.05 507.733L444.175 507.776C444.175 507.805 444.175 507.827 444.175 507.841C444.161 507.884 444.147 507.928 444.133 507.971C444.119 508.029 444.105 508.093 444.092 508.165C444.092 508.209 444.085 508.252 444.071 508.295C444.057 508.382 444.043 508.461 444.029 508.533C444.015 508.576 444.008 508.619 444.008 508.663C443.994 508.72 443.98 508.778 443.966 508.835C443.98 508.835 443.987 508.835 443.987 508.835C443.945 509.08 443.903 509.34 443.861 509.614C443.861 509.642 443.861 509.664 443.861 509.678C443.82 509.981 443.778 510.298 443.736 510.629C443.736 510.644 443.736 510.651 443.736 510.651C443.708 510.968 443.68 511.285 443.652 511.602C443.638 511.66 443.631 511.717 443.631 511.775C443.603 512.063 443.576 512.344 443.548 512.618C443.548 512.704 443.548 512.783 443.548 512.855C443.52 513.115 443.499 513.374 443.485 513.634C443.471 513.734 443.464 513.835 443.464 513.936C443.45 514.195 443.429 514.448 443.401 514.693C443.401 514.736 443.401 514.779 443.401 514.822C443.276 516.897 443.234 518.54 443.234 518.54L444.196 518.648L444.74 518.713C444.726 518.741 444.719 518.77 444.719 518.799C444.691 518.986 444.656 519.174 444.614 519.361C444.614 519.39 444.607 519.426 444.593 519.469V519.491C443.966 523.381 444.301 527.379 444.301 527.379L445.556 527.12C445.528 527.207 445.5 527.3 445.472 527.401C445.43 527.596 445.367 527.768 445.325 527.963C444.154 532.718 445.033 538.618 445.033 538.618H445.2C445.2 538.618 445.2 538.625 445.2 538.64C445.2 538.669 445.207 538.697 445.221 538.726C445.325 541.925 445.744 546.399 445.974 548.625C445.932 549.187 445.911 549.835 445.911 550.57C444.928 549.814 444.154 549.511 444.154 549.511C444.154 549.511 445.074 550.851 445.953 552.559C445.967 552.861 445.981 553.164 445.995 553.466C444.656 552.407 443.276 552.494 443.276 552.494C443.276 552.494 444.761 553.747 446.078 555.066C446.078 555.325 446.092 555.584 446.12 555.844C443.694 555.001 441.603 555.455 441.603 555.455C444.008 555.671 445.911 557.854 445.911 557.854C445.911 557.854 444.363 557.357 441.749 557.573C443.401 557.638 445.472 559.043 446.392 559.756C446.392 559.842 446.399 559.936 446.413 560.037C445.744 559.929 444.468 559.799 443.129 560.231C444.091 560.145 445.409 560.664 446.434 561.182C441.373 561.636 437.231 563.344 442.92 563.041C449.383 562.717 450.722 562.674 448.086 563.581C445.451 564.489 456.243 563.733 464.086 563.084C471.909 562.414 481.78 563.365 476.426 562.306C473.707 561.766 471.574 561.55 470.131 561.485C470.528 560.296 471.72 557.573 474.502 557.573C474.293 557.508 474.105 557.443 473.916 557.422C473.875 557.4 473.833 557.4 473.791 557.4C473.679 557.386 473.575 557.378 473.477 557.378C473.477 557.378 473.47 557.378 473.456 557.378C473.059 557.357 472.661 557.443 472.306 557.573C472.278 557.587 472.243 557.602 472.201 557.616C472.118 557.645 472.027 557.688 471.929 557.746C471.888 557.76 471.846 557.775 471.804 557.789C471.72 557.847 471.637 557.897 471.553 557.94C471.511 557.969 471.469 557.998 471.427 558.027C471.358 558.084 471.281 558.142 471.197 558.2C471.156 558.228 471.114 558.257 471.072 558.286C471.002 558.344 470.932 558.401 470.863 558.459C470.821 558.502 470.786 558.538 470.758 558.567C470.688 558.625 470.619 558.69 470.549 558.762C470.521 558.79 470.486 558.826 470.444 558.87C470.389 558.927 470.333 558.992 470.277 559.064C470.235 559.093 470.2 559.129 470.173 559.172C470.117 559.244 470.061 559.309 470.005 559.367C469.977 559.41 469.949 559.446 469.922 559.475C469.88 559.547 469.831 559.612 469.775 559.669C469.747 559.713 469.726 559.756 469.712 559.799C469.671 559.857 469.629 559.914 469.587 559.972C469.559 560.015 469.538 560.051 469.524 560.08C469.482 560.138 469.447 560.195 469.42 560.253C469.392 560.296 469.371 560.332 469.357 560.361C469.329 560.404 469.308 560.447 469.294 560.491C469.252 560.577 469.217 560.649 469.19 560.707C469.629 558.221 471.176 556.838 471.176 556.838C471.176 556.838 469.127 557.205 468.353 559.324C468.207 557.357 471.532 554.569 471.532 554.569C471.532 554.569 468.625 555.087 467.935 557.357C467.935 557.357 468.625 553.553 469.901 552.904C467.997 553.272 467.579 555.974 467.579 555.974C467.579 555.974 467.224 553.704 468.269 551.521C466.512 554.072 466.512 555.887 466.512 555.887C466.512 555.887 466.498 555.858 466.471 555.801L465.759 552.688H466.303L465.383 540.628C465.564 540.585 465.773 540.535 466.01 540.477C465.404 537.819 465.153 532.242 465.069 528.892C465.069 528.287 465.048 527.768 465.048 527.336C465.216 527.315 465.383 527.293 465.592 527.271C465.446 523.792 466.01 518.929 466.408 516.141C466.422 516.011 466.436 515.881 466.45 515.752C466.464 515.665 466.478 515.579 466.492 515.492C466.505 515.42 466.512 515.355 466.512 515.298C466.533 515.233 466.533 515.19 466.554 515.146C466.763 515.211 466.993 515.276 467.286 515.363C467.286 512.575 468.541 508.295 469.336 505.896C469.35 505.867 469.357 505.838 469.357 505.81C469.427 505.608 469.489 505.421 469.545 505.248C469.692 505.313 469.817 505.377 469.963 505.442C470.424 503.756 471.553 500.644 472.139 499.023L474.084 501.811L475.924 500.731L475.004 502.438L476.489 506.328L477.472 506.004L476.803 507.15L478.329 513.158H479.94L478.894 514.109L479.522 514.693L479.145 515.384L479.396 521.328L481.55 521.436L480.254 522.279L481.174 522.97L480.003 523.489L479.396 529.606L480.379 529.411L479.94 529.93L480.63 530.751L479.94 530.946C479.94 530.946 479.522 534.209 479.208 535.355C479.208 535.355 484.269 529.951 485.336 527.271C484.813 526.277 484.813 526.277 484.813 526.277L485.817 526.234C485.817 526.234 487.783 522.992 488.097 520.701C487.407 519.599 487.407 519.599 487.407 519.599L488.369 520.053L488.724 518.302L488.097 517.308L488.996 517.697C488.996 517.697 489.038 517.589 489.08 517.394C489.352 516.465 490.146 513.504 490.105 511.667C489.101 509.419 489.101 509.419 489.101 509.419L490.167 509.916C490.167 509.916 490.167 509.887 490.167 509.83C490.167 509.052 490.105 502.805 489.414 500.385C489.017 500.082 488.724 499.866 488.494 499.693L491.652 501.055L491.945 500.839L492.363 501.573L492.928 500.622L492.719 502.222C494.058 502.741 497.446 505.507 497.446 505.507L498.366 504.923L497.592 506.328C497.592 506.328 497.801 506.436 498.136 506.696C498.15 506.71 498.164 506.717 498.178 506.717C498.248 506.775 498.324 506.84 498.408 506.912C498.436 506.941 498.464 506.962 498.492 506.977C498.575 507.049 498.659 507.128 498.742 507.214C498.77 507.229 498.791 507.251 498.805 507.279C499.042 507.495 499.307 507.755 499.6 508.057C499.628 508.086 499.656 508.115 499.684 508.144C499.809 508.288 499.935 508.432 500.06 508.576C500.088 508.619 500.123 508.655 500.165 508.684C500.471 509.059 500.806 509.484 501.169 509.959C501.21 510.003 501.245 510.053 501.273 510.111C501.427 510.312 501.573 510.521 501.712 510.737C501.754 510.795 501.796 510.853 501.838 510.91C502.214 511.458 502.598 512.07 502.988 512.747C503.044 512.834 503.1 512.92 503.156 513.007C503.295 513.266 503.441 513.533 503.595 513.806C503.651 513.922 503.706 514.03 503.762 514.131C503.971 514.505 504.173 514.894 504.369 515.298C504.383 515.255 504.39 515.211 504.39 515.168C504.39 515.255 504.369 515.298 504.369 515.298C504.369 515.298 504.39 515.168 504.41 514.887C504.41 514.887 504.41 514.866 504.41 514.844C504.424 514.585 504.431 514.325 504.431 514.066C504.445 513.922 504.452 513.785 504.452 513.655C504.466 513.396 504.473 513.136 504.473 512.877C504.473 512.733 504.473 512.589 504.473 512.445C504.473 512.185 504.473 511.941 504.473 511.71C504.473 511.58 504.466 511.458 504.452 511.343C504.452 511.011 504.445 510.694 504.431 510.392C504.431 510.363 504.424 510.334 504.41 510.305C504.397 509.974 504.376 509.65 504.348 509.333C504.348 509.232 504.341 509.131 504.327 509.03C504.299 508.814 504.278 508.605 504.264 508.403C504.25 508.302 504.236 508.194 504.222 508.079C504.194 507.877 504.166 507.683 504.139 507.495C504.125 507.409 504.111 507.323 504.097 507.236C504.055 506.977 504.013 506.725 503.971 506.48C503.957 506.465 503.95 506.458 503.95 506.458C503.908 506.199 503.86 505.947 503.804 505.702C503.79 505.644 503.776 505.586 503.762 505.529C503.706 505.356 503.658 505.183 503.616 505.01C503.602 504.952 503.588 504.887 503.574 504.815C503.518 504.657 503.469 504.498 503.427 504.34C503.414 504.282 503.4 504.232 503.386 504.189C503.246 503.785 503.114 503.411 502.988 503.065C502.974 503.05 502.967 503.036 502.967 503.022C502.898 502.863 502.835 502.712 502.779 502.568C502.765 502.553 502.751 502.532 502.737 502.503C502.668 502.359 502.605 502.222 502.549 502.092C502.549 502.092 502.542 502.085 502.528 502.071C501.754 500.558 501.064 499.974 501.064 499.974L501.273 499.455L498.596 497.553L498.868 496.905L497.676 496.754C497.676 496.754 497.676 496.754 497.801 495.889C489.958 489.168 481.425 490.702 481.425 490.702L481.467 490.767C481.341 490.738 481.216 490.709 481.09 490.68C481.146 490.652 481.209 490.63 481.278 490.616C481.264 490.616 481.258 490.616 481.258 490.616C482.366 490.205 484.625 489.427 485.524 489.319C485.169 486.747 485.169 486.747 485.169 486.747L486.57 488.8L488.975 488.368L488.829 486.617L489.624 488.13L493.137 487.849L493.43 486.012L493.786 487.633L495.48 488.065L496.254 485.947L496.609 489.016L500.207 489.816L500.353 488.217L500.98 490.248L502.193 490.4L502.612 488.8L502.905 490.702C502.905 490.702 505.226 491.502 506 492.604C505.728 488.13 502.11 483.397 499.433 481.344C499.286 482.662 499.286 482.662 499.286 482.662L498.241 480.847L494.497 479.809L494.622 481.063L493.702 479.463C493.702 479.463 492.008 478.858 490.314 478.858C490.607 479.744 490.816 480.025 490.816 480.025L488.829 478.728C488.829 478.728 487.093 478.88 484.939 479.377C484.897 479.391 484.855 479.398 484.813 479.398C484.646 479.442 484.471 479.485 484.29 479.528C484.193 479.557 484.095 479.579 483.997 479.593C483.844 479.636 483.691 479.679 483.537 479.723C483.412 479.766 483.286 479.802 483.161 479.831C483.021 479.874 482.882 479.917 482.742 479.96C482.617 480.004 482.485 480.054 482.345 480.112C482.22 480.141 482.094 480.177 481.969 480.22C481.815 480.277 481.669 480.335 481.529 480.393C481.418 480.436 481.306 480.479 481.195 480.522C481.041 480.594 480.881 480.666 480.714 480.738C480.63 480.782 480.546 480.825 480.463 480.868V480.847C480.449 480.861 480.435 480.868 480.421 480.868C480.316 480.933 480.212 480.998 480.086 481.041C479.961 481.106 479.856 481.171 479.731 481.236C479.508 481.365 479.291 481.502 479.082 481.646C479.438 482.446 479.438 482.446 479.438 482.446L478.037 482.014L478.246 482.878C478.246 482.878 477.242 483.419 476.029 484.369C476.029 484.326 476.036 484.276 476.05 484.218C476.196 482.597 476.635 479.204 477.89 477.259C477.876 477.244 477.862 477.23 477.848 477.216C477.116 476.546 477.116 476.524 477.116 476.524L478.162 476.243L478.936 473.476L477.953 472.526L479.291 472.439L480.421 468.203L479.647 467.338H480.714L481.278 463.383C481.278 463.383 475.422 465.004 472.515 469.889C472.871 470.991 472.871 470.991 472.871 470.991L471.95 470.84L471.093 473.023L471.239 473.693L470.528 473.909L469.273 477.194L470.256 477.691H469.064C469.064 477.691 468.897 478.318 468.75 479.334C468.75 479.348 468.75 479.362 468.75 479.377C468.708 479.737 468.667 480.148 468.625 480.609C468.611 480.638 468.604 480.659 468.604 480.674C468.59 480.904 468.576 481.142 468.562 481.387C468.562 481.401 468.562 481.416 468.562 481.43C468.548 481.675 468.534 481.927 468.52 482.187C468.52 482.201 468.52 482.215 468.52 482.23C468.52 482.489 468.52 482.763 468.52 483.051C468.52 483.08 468.52 483.109 468.52 483.138C468.52 483.541 468.534 483.959 468.562 484.391C467.579 482.662 466.742 481.884 466.742 481.884L466.324 483.029C466.324 483.029 466.157 482.511 465.927 481.387C467.705 476.675 468.06 471.51 468.06 471.51L468.75 471.25L467.976 469.802C467.976 469.802 467.976 469.802 468.583 469.716C468.597 469.687 468.604 469.651 468.604 469.608C468.646 469.276 468.688 468.959 468.729 468.657C468.729 468.585 468.736 468.505 468.75 468.419C468.764 468.174 468.778 467.944 468.792 467.727C468.792 467.641 468.792 467.562 468.792 467.49C468.792 467.245 468.792 467.007 468.792 466.776C468.792 466.762 468.792 466.748 468.792 466.733C468.778 466.488 468.757 466.265 468.729 466.063C468.715 466.02 468.708 465.984 468.708 465.955C468.681 465.797 468.653 465.645 468.625 465.501C468.611 465.458 468.604 465.415 468.604 465.372C468.562 465.242 468.52 465.119 468.478 465.004C468.478 464.975 468.471 464.954 468.458 464.939C468.374 464.658 468.269 464.464 468.165 464.291C468.165 464.291 468.158 464.291 468.144 464.291C467.914 463.924 467.725 463.815 467.725 463.815L468.248 463.729L467.203 463.016C467.203 463.016 467.203 463.016 468.332 462.735C467.893 460.141 465.822 456.035 465.822 456.035L466.073 455.408L464.776 454.608C464.776 454.608 464.776 454.608 465.55 454.522C464.128 451.885 462.434 450.502 460.824 449.81C460.81 449.796 460.789 449.789 460.761 449.789C460.621 449.717 460.475 449.659 460.322 449.616C460.28 449.601 460.231 449.587 460.175 449.572C460.05 449.529 459.924 449.486 459.799 449.443C460.761 449.443 461.472 449.464 461.472 449.464L461.765 448.643C461.765 448.643 461.765 448.643 462.246 449.767C462.455 449.753 462.657 449.745 462.852 449.745C462.908 449.745 462.964 449.745 463.02 449.745C463.215 449.745 463.403 449.753 463.584 449.767C465.634 449.918 467.265 450.675 467.265 450.675L467.746 449.961C467.746 449.961 467.746 449.961 467.935 451.388C469.901 451.907 473.644 454.738 473.644 454.738L474.335 454.133C474.335 454.133 474.335 454.133 474.335 455.149C475.213 455.559 476.301 456.662 476.301 456.662L477.472 455.257L476.886 457.375L477.054 457.526L481.488 461.741L482.471 461.438L481.885 462.648L484.541 466.409L485.42 465.804L484.729 467.317C484.729 467.317 487.49 469.586 489.184 474.125C493.43 466.387 489.624 459.666 489.624 459.666C489.624 459.666 489.582 459.666 489.561 459.666C489.547 459.666 489.54 459.666 489.54 459.666C489.512 459.651 489.477 459.637 489.435 459.623C489.421 459.623 489.407 459.615 489.393 459.601C489.338 459.587 489.289 459.558 489.247 459.514C489.247 459.514 489.24 459.507 489.226 459.493C489.17 459.45 489.129 459.385 489.101 459.298C489.038 459.082 489.08 458.736 489.331 458.196C489.205 457.922 489.08 457.649 488.954 457.375C488.843 457.159 488.731 456.95 488.62 456.748C488.592 456.705 488.564 456.654 488.536 456.597C488.424 456.395 488.306 456.193 488.18 455.992C488.166 455.948 488.146 455.905 488.118 455.862C487.992 455.675 487.867 455.494 487.741 455.322C487.727 455.278 487.706 455.235 487.678 455.192C487.553 455.019 487.427 454.846 487.302 454.673C487.274 454.644 487.246 454.608 487.218 454.565C487.093 454.407 486.967 454.248 486.842 454.09C486.814 454.061 486.793 454.032 486.779 454.003C486.654 453.845 486.528 453.701 486.403 453.571C486.375 453.542 486.354 453.513 486.34 453.484C486.2 453.34 486.068 453.203 485.942 453.074C485.942 453.059 485.936 453.045 485.922 453.031C484.75 451.82 483.809 451.193 483.809 451.193L482.826 451.777C482.826 451.777 482.826 451.777 483.119 450.329C481.55 449.291 477.033 446.676 477.033 446.676L475.339 447.843C475.339 447.843 475.339 447.843 476.196 446.374C471.239 443.456 468.708 443.305 468.708 443.305L467.851 444.191C467.851 444.191 467.851 444.191 467.851 443.024C465.258 443.067 463.145 443.413 461.409 443.888C461.409 443.888 461.416 443.888 461.43 443.888C461.388 443.903 461.353 443.91 461.325 443.91C460.977 444.011 460.635 444.119 460.301 444.234C460.245 444.263 460.189 444.284 460.133 444.299C459.827 444.414 459.541 444.529 459.276 444.645C459.234 444.659 459.199 444.673 459.171 444.688C458.864 444.818 458.579 444.954 458.314 445.099C458.272 445.127 458.23 445.149 458.188 445.163C457.644 445.452 457.17 445.747 456.766 446.05C456.724 446.078 456.689 446.107 456.661 446.136C456.452 446.28 456.257 446.431 456.076 446.59C456.076 446.59 456.069 446.597 456.055 446.611C455.957 446.698 455.86 446.784 455.762 446.871C456.891 445.055 458.544 442.635 459.736 441.921C459.234 441.187 459.234 441.187 459.234 441.187L460.363 441.338C460.363 441.338 460.384 441.316 460.384 441.295C460.398 441.266 460.419 441.23 460.447 441.187C460.447 441.172 460.454 441.158 460.468 441.143C460.573 440.97 460.698 440.733 460.886 440.409C460.9 440.394 460.907 440.372 460.907 440.344C461.66 439.09 462.978 436.994 464.044 436.302C462.915 435.2 462.915 435.2 462.915 435.2L464.254 435.718C464.254 435.718 464.261 435.711 464.275 435.697C464.275 435.682 464.275 435.675 464.275 435.675C464.288 435.661 464.302 435.639 464.316 435.61C464.33 435.596 464.344 435.582 464.358 435.567C464.372 435.553 464.393 435.531 464.421 435.502C464.435 435.488 464.449 435.466 464.463 435.438C464.491 435.409 464.519 435.387 464.546 435.373C464.574 435.344 464.602 435.315 464.63 435.286C464.672 435.272 464.714 435.25 464.756 435.221C464.797 435.193 464.832 435.164 464.86 435.135C464.916 435.106 464.972 435.077 465.027 435.048C465.069 435.034 465.111 435.02 465.153 435.005C465.223 434.976 465.299 434.948 465.383 434.919C465.425 434.904 465.467 434.89 465.508 434.876C465.648 434.832 465.794 434.796 465.948 434.768C464.525 433.449 464.609 433.017 464.609 433.017L467.286 434.249C467.286 434.249 470.465 431.05 471.386 430.467C470.465 429.58 470.193 429.213 470.193 429.213L472.578 430.25L476.552 427.83L475.903 426.965L477.597 427.614C477.597 427.614 481.278 425.928 484.604 426.727C484.353 426.338 484.039 425.949 483.684 425.539C481.383 422.988 476.761 420.525 469.901 421.411C470.256 422.513 470.319 422.88 470.319 422.88L469.127 421.692C469.127 421.692 466.784 422.059 463.48 424.631C464.17 425.798 464.17 425.798 464.17 425.798L463.124 425.496C463.124 425.496 462.141 426.23 461.284 427.765C461.786 428.413 461.786 428.413 461.786 428.413L460.008 428.262C460.008 428.262 458.042 431.201 456.641 433.903C456.627 433.759 456.62 433.622 456.62 433.492C456.62 433.406 456.62 433.327 456.62 433.255C456.606 432.952 456.585 432.664 456.557 432.39C456.557 432.347 456.55 432.304 456.536 432.26C456.522 432.03 456.501 431.814 456.473 431.612C456.459 431.526 456.445 431.446 456.431 431.374C456.417 431.187 456.397 431.014 456.369 430.856C456.355 430.784 456.341 430.719 456.327 430.661C456.285 430.459 456.243 430.265 456.201 430.077C456.187 430.005 456.173 429.933 456.159 429.861C456.132 429.746 456.104 429.631 456.076 429.516C456.048 429.443 456.027 429.371 456.013 429.299C455.985 429.199 455.957 429.105 455.929 429.018C455.908 428.975 455.888 428.91 455.888 428.867C455.469 427.678 455.072 427.181 455.072 427.181L454.214 428.197C454.214 428.197 454.152 427.83 454.57 426.663C453.085 423.161 450.973 421.346 450.973 421.346L450.471 422.513C450.471 422.513 450.471 422.491 450.45 422.448C450.45 422.426 450.45 422.426 450.45 422.426C450.408 422.275 450.303 421.886 450.094 421.281C450.01 421.086 449.927 420.849 449.843 420.611C448.421 418.774 443.945 416.613 443.945 416.613L443.422 417.002C443.422 417.002 443.422 417.002 443.485 416.115C437.169 414.797 434.052 415.013 434.052 415.013C436.227 415.489 438.465 420.416 438.465 420.416L439.302 419.617C439.302 419.617 439.302 419.617 438.779 420.784C440.076 421.562 442.607 425.215 442.607 425.215L443.61 424.631C443.61 424.631 443.61 424.631 442.837 425.431C444.405 426.987 445.765 429.407 446.371 430.51C446.559 430.899 446.685 431.137 446.685 431.137L448.358 430.899L447.187 431.439L448.986 437.469L450.157 437.901L448.986 438.031L449.216 438.939L446.664 437.145C446.664 437.145 446.664 437.145 446.329 437.793C446.288 437.642 446.225 437.491 446.141 437.361C446.127 437.332 446.106 437.303 446.078 437.275C445.897 436.986 445.667 436.727 445.388 436.497C445.36 436.482 445.332 436.461 445.305 436.432C445.151 436.316 444.998 436.208 444.844 436.108C444.663 436.007 444.482 435.906 444.301 435.805C444.273 435.805 444.252 435.798 444.238 435.783C444.168 435.755 444.098 435.718 444.029 435.675C444.029 435.69 444.029 435.697 444.029 435.697C441.875 434.703 439.03 434.4 439.03 434.4L439.239 434.832C439.239 434.832 439.03 434.4 437.754 433.752C435.579 433.989 433.78 434.465 432.316 435.027C432.316 435.012 432.316 435.005 432.316 435.005C432.261 435.034 432.212 435.056 432.17 435.07C431.975 435.142 431.78 435.221 431.584 435.308C431.445 435.365 431.305 435.43 431.166 435.502C430.978 435.567 430.81 435.654 430.643 435.74C430.518 435.805 430.371 435.87 430.246 435.956C429.981 436.1 429.73 436.244 429.493 436.388C429.381 436.461 429.27 436.533 429.158 436.605C429.033 436.691 428.907 436.778 428.782 436.864C428.684 436.936 428.586 437.008 428.489 437.08C428.377 437.167 428.273 437.253 428.175 437.339C428.078 437.412 427.987 437.484 427.903 437.556C427.764 437.685 427.631 437.808 427.506 437.923C427.422 438.009 427.339 438.089 427.255 438.161C427.185 438.233 427.122 438.305 427.067 438.377C426.997 438.449 426.934 438.521 426.878 438.593C426.823 438.651 426.774 438.708 426.732 438.766C426.676 438.838 426.627 438.903 426.586 438.96C426.544 439.018 426.502 439.069 426.46 439.112C426.39 439.213 426.328 439.306 426.272 439.393C426.251 439.436 426.23 439.458 426.209 439.501C426.181 439.544 426.153 439.587 426.125 439.63C426.112 439.659 426.098 439.688 426.084 439.717C426.056 439.746 426.042 439.775 426.042 439.803C426.028 439.818 426.021 439.832 426.021 439.847C426.007 439.875 426 439.89 426 439.89C426.293 439.803 426.565 439.739 426.858 439.695C426.955 439.681 427.053 439.666 427.15 439.652C427.359 439.623 427.562 439.602 427.757 439.587C427.854 439.573 427.952 439.566 428.05 439.566C428.315 439.551 428.573 439.551 428.824 439.566C428.921 439.566 429.019 439.573 429.116 439.587C429.284 439.587 429.451 439.594 429.618 439.609C429.744 439.623 429.862 439.638 429.974 439.652C430.127 439.681 430.274 439.71 430.413 439.739C430.511 439.753 430.608 439.767 430.706 439.782C430.929 439.825 431.138 439.868 431.333 439.911C431.417 439.94 431.508 439.969 431.605 439.998C431.731 440.027 431.856 440.063 431.982 440.106C432.051 440.12 432.121 440.142 432.191 440.171C432.358 440.214 432.525 440.279 432.693 440.322C433.341 440.56 433.739 440.754 433.739 440.754L434.052 439.89C434.052 439.89 434.052 439.89 434.366 441.424C435.746 441.64 438.068 442.613 438.068 442.613L439.03 441.857C439.03 441.857 439.03 441.857 438.716 443.391C439.762 443.629 441.498 444.904 442.251 445.488C442.481 445.682 442.627 445.79 442.627 445.79L443.694 444.58C443.694 444.58 443.694 444.58 443.485 446.352C444.531 446.72 445.409 447.454 446.078 448.168C446.288 448.398 446.469 448.614 446.622 448.816C446.636 448.83 446.65 448.845 446.664 448.859C446.664 448.859 446.664 448.866 446.664 448.881C446.65 448.881 446.636 448.881 446.622 448.881C446.553 448.91 446.49 448.931 446.434 448.946C446.281 449.003 446.134 449.061 445.995 449.119C445.967 449.119 445.946 449.126 445.932 449.14C445.263 449.421 444.907 449.659 444.907 449.659V450.459L443.694 449.961C442.92 450.826 439.658 454.781 439.658 454.781L439.867 455.797C439.867 455.797 439.867 455.797 438.884 455.732C436.416 458.434 435.224 462.432 435.224 462.432L435.433 463.102C435.433 463.102 435.433 463.102 434.575 463.318C434.115 464.594 433.759 465.825 433.467 467.036C433.439 467.165 433.411 467.288 433.383 467.403C433.341 467.605 433.299 467.799 433.258 467.987C433.202 468.246 433.153 468.498 433.111 468.743C433.083 468.916 433.048 469.089 433.007 469.262C432.965 469.565 432.923 469.853 432.881 470.126C432.867 470.256 432.853 470.379 432.839 470.494C432.783 470.883 432.735 471.258 432.693 471.618C432.693 471.769 432.672 471.92 432.672 472.05C432.644 472.281 432.623 472.511 432.609 472.742C432.595 472.886 432.588 473.03 432.588 473.174C432.574 473.376 432.56 473.577 432.546 473.779C432.546 473.923 432.546 474.06 432.546 474.19C432.532 474.377 432.525 474.564 432.525 474.752C432.525 474.867 432.525 474.989 432.525 475.119ZM471.511 493.101L471.49 493.188C471.448 493.101 471.4 493.015 471.344 492.928C471.33 492.856 471.316 492.791 471.302 492.734C471.302 492.734 471.309 492.734 471.323 492.734L471.469 492.496C471.469 492.539 471.469 492.59 471.469 492.647C471.483 492.791 471.497 492.943 471.511 493.101ZM471.407 493.512L471.239 494.052C471.225 494.023 471.204 493.994 471.176 493.966L471.407 493.512ZM456.055 559.561C456.041 559.677 456.034 559.763 456.034 559.821C456.034 559.749 456.034 559.648 456.034 559.518L456.055 559.561ZM454.361 447.865C454.375 448.038 454.396 448.218 454.424 448.405V448.384C454.396 448.355 454.368 448.333 454.34 448.319C454.34 448.319 454.34 448.312 454.34 448.297C454.312 448.283 454.298 448.276 454.298 448.276L454.026 448.816C454.068 448.708 454.089 448.6 454.131 448.492C454.186 448.319 454.263 448.088 454.361 447.8C454.361 447.815 454.361 447.836 454.361 447.865ZM464.902 480.76C463.396 479.96 461.66 479.031 461.66 479.031L461.451 480.458C461.451 480.458 461.242 480.177 460.384 478.88C457.373 477.713 453.085 477.669 453.085 477.669L452.813 478.707C452.813 478.707 452.813 478.707 452.018 477.453C451.516 477.388 450.931 477.345 450.366 477.324C450.492 474.752 450.742 472.245 450.931 470.688C450.945 470.53 450.959 470.379 450.973 470.235C451.182 470.299 451.391 470.364 451.684 470.451C451.621 467.684 452.708 463.426 453.399 461.006C453.427 460.919 453.447 460.84 453.461 460.768C453.503 460.638 453.545 460.509 453.587 460.379C453.587 460.35 453.594 460.321 453.608 460.293C453.733 460.357 453.859 460.401 454.005 460.487C454.131 459.925 454.319 459.233 454.549 458.499L454.737 458.909L456.139 457.829L455.26 459.342L458.293 466.236L459.861 465.696L458.983 466.495L459.945 468.657L461.409 469.456L460.719 469.802L461.681 472.785L462.183 474.363L462.978 474.103L462.455 474.903C462.455 474.903 463.563 475.854 464.902 480.76ZM467.495 490.162C467.746 490.291 467.99 490.421 468.227 490.551C468.269 490.58 468.318 490.608 468.374 490.637C468.437 490.659 468.478 490.702 468.541 490.745C468.444 490.688 468.346 490.637 468.248 490.594C468.193 490.565 468.13 490.544 468.06 490.529C467.879 490.443 467.698 490.363 467.516 490.291C467.461 490.277 467.398 490.255 467.328 490.227C467.189 490.183 467.049 490.133 466.91 490.075C466.84 490.061 466.77 490.039 466.701 490.01C466.533 489.953 466.366 489.902 466.199 489.859C466.171 489.845 466.136 489.83 466.094 489.816C465.899 489.758 465.704 489.708 465.508 489.665C465.453 489.65 465.397 489.636 465.341 489.621C465.174 489.578 465.007 489.535 464.839 489.492C464.797 489.477 464.763 489.47 464.735 489.47C462.329 488.908 460.238 488.779 460.238 488.779L460.405 489.838C460.405 489.838 460.405 489.838 459.234 488.822C456.682 488.8 453.65 489.319 453.65 489.319L454.089 490.335L452.583 489.405L450.22 489.881C450.157 489.124 450.094 488.346 450.052 487.568C450.826 487.633 451.788 487.698 452.478 487.763C453.963 487.957 455.239 488.173 455.239 488.173L455.825 487.309L455.783 488.519L459.443 488.67L459.736 488.152C459.778 488.137 459.827 488.13 459.882 488.13C459.882 488.217 459.903 488.368 459.903 488.562C463.124 488.476 465.634 489.232 467.495 490.162ZM467.767 498.072L464.902 503.043L465.529 503.324C465.432 503.511 465.334 503.713 465.237 503.929C465.223 503.958 465.209 503.994 465.195 504.037C465.083 504.268 464.965 504.513 464.839 504.772C464.825 504.815 464.811 504.851 464.797 504.88C464.672 505.168 464.546 505.464 464.421 505.766C464.407 505.795 464.393 505.817 464.379 505.831C464.254 506.134 464.128 506.444 464.003 506.761C463.975 506.818 463.954 506.876 463.94 506.934C463.828 507.207 463.717 507.481 463.605 507.755C463.563 507.841 463.522 507.935 463.48 508.036C463.396 508.252 463.312 508.468 463.229 508.684C463.041 509.116 462.873 509.549 462.706 509.959C462.706 509.959 462.706 509.967 462.706 509.981C461.911 512.034 461.284 513.698 461.284 513.698L461.974 514.217C461.96 514.26 461.953 514.296 461.953 514.325C461.939 514.354 461.925 514.383 461.911 514.412C461.883 514.556 461.848 514.693 461.807 514.822C461.723 515.096 461.646 515.377 461.576 515.665C461.563 515.708 461.549 515.752 461.535 515.795C461.535 515.809 461.535 515.816 461.535 515.816C460.05 521.587 459.171 527.79 459.171 527.79L459.757 527.747C459.757 527.761 459.757 527.768 459.757 527.768C457.958 532.999 457.895 540.78 457.895 540.78L458.272 540.909C458.258 540.996 458.251 541.082 458.251 541.169C458.237 541.212 458.23 541.248 458.23 541.277C458.188 541.579 458.146 541.911 458.105 542.271C457.854 544.54 457.644 547.588 457.519 549.684L457.352 549.036H457.477L454.758 538.078L454.507 537.084C454.758 537.012 455.044 536.925 455.365 536.824C454.193 534.641 453.127 529.865 452.562 526.99C452.458 526.472 452.353 526.018 452.29 525.65C452.583 525.586 452.897 525.521 453.273 525.434C451.956 522.906 451.6 518.886 451.495 517.502C451.83 517.481 452.227 517.437 452.708 517.394C451.328 515.082 450.993 511.083 450.91 508.727C450.896 508.583 450.889 508.446 450.889 508.317C450.889 508.302 450.889 508.295 450.889 508.295C450.889 508.108 450.889 507.935 450.889 507.776H451.454L450.973 502.481L452.248 501.552L452.311 501.509L452.395 499.974L453.085 501.357L454.863 501.055L455.072 499.672L455.992 501.292L461.221 498.656L461.786 496.905L462.141 499.023L464.672 498.375L465.32 496.386L466.303 498.721L467.767 498.072ZM459.987 561.225C459.959 561.225 459.938 561.225 459.924 561.225C459.924 561.225 459.924 561.218 459.924 561.204C459.924 561.182 459.966 561.204 459.987 561.225ZM456.912 435.135H456.641C456.641 435.034 456.641 434.933 456.641 434.832C456.912 435.135 456.912 435.135 456.912 435.135Z" fill="#3E2E59"/>
</g>
<defs>
<linearGradient id="paint0_linear_183_918" x1="0" y1="702030" x2="0" y2="29.1941" gradientUnits="userSpaceOnUse">
<stop stop-color="#850D39"/>
<stop offset="1" stop-color="#11052F"/>
</linearGradient>
<linearGradient id="paint1_linear_183_918" x1="42871.4" y1="23451.7" x2="63699.5" y2="23451.7" gradientUnits="userSpaceOnUse">
<stop stop-color="#FFF2D4"/>
<stop offset="1" stop-color="#FFF2D4"/>
</linearGradient>
<clipPath id="clip0_183_918">
<rect width="1920" height="731" fill="white"/>
</clipPath>
</defs>
</svg>
