<svg width="122" height="90" viewBox="0 0 122 90" fill="none" xmlns="http://www.w3.org/2000/svg">
<path d="M19.1463 54.5714C19.1463 54.5714 7.75425 67.6461 6.93698 69.6671C6.32976 71.7278 8.97621 84.1937 9.3963 84.2732C10.0264 84.3923 14.7385 85.936 13.9839 89.9269L7.39283 89.1157L5.34903 86.1185L0.987729 70.065L11.0898 41.9527L20.5364 47.2199L19.1463 54.5714Z" fill="#230C4A"/>
<path d="M70.7034 53.1031C71.9354 54.6414 72.6677 56.5203 73.4002 58.3993C74.3163 60.4579 75.1757 62.4334 75.9782 64.3256C76.2394 65.2452 76.7107 66.2046 76.5518 67.0447C76.3929 67.8849 76.0636 68.4752 75.6947 69.2757C73.7592 72.6081 67.9184 79.3357 70.6437 83.3319C71.4953 84.5807 73.7263 85.4376 73.4483 86.9079C71.1095 87.771 68.3392 87.4648 65.9379 86.358C65.5178 86.2786 65.3477 86.0289 65.1773 85.7791C64.6266 85.2399 64.8251 84.1896 65.1543 83.5992C66.7547 78.9706 68.2851 74.3288 69.7455 69.6737C70.2733 68.033 70.8408 66.1824 70.7385 64.4226C70.3749 61.7432 68.3821 59.6259 66.8492 57.378C65.356 54.9201 64.402 51.9115 65.9289 49.5896C67.9896 50.1968 69.5111 51.3547 70.7034 53.1031Z" fill="#230C4A"/>
<path d="M13.3076 17.5709C10.4052 20.648 7.57266 23.7383 4.81025 26.8419C3.94181 27.983 2.90313 28.8743 2.20501 30.2652C1.21742 32.0364 0.820142 34.137 0.882768 36.1068C0.655915 38.457 0.809528 41.0966 1.92238 43.265C3.88686 46.6822 8.51923 48.646 9.06457 52.6651C9.11574 53.545 9.04778 55.0551 10.0583 55.4637C11.0291 56.0824 12.2779 55.2308 12.4765 54.1805C12.6751 53.1303 12.0335 51.9213 11.3125 51.1322C9.77953 48.8844 7.70735 47.1872 5.88494 45.3197C4.06252 43.4522 2.52957 41.2043 2.41577 38.3546C2.42113 34.8747 5.32741 32.161 7.77386 29.5778C10.2203 26.9946 12.7858 23.7814 11.9113 20.3527" fill="#230C4A"/>
<path d="M121.125 4.23743C120.745 3.94795 120.365 3.65852 119.564 3.28961C116.783 1.89338 111.764 3.12005 108.483 2.06447C106.882 1.32664 105.071 0.549088 103.232 1.07152C100.013 1.98578 99.849 6.30579 99.4235 9.70622C99.0607 15.0765 96.2286 20.8501 91.0913 22.7068C81.6966 26.3692 66.7543 16.7995 64.1422 7.60334C63.2279 4.38469 62.1319 -0.173643 58.8224 0.070764C57.3124 0.00278253 55.9842 1.27451 54.866 2.58595C49.4735 8.09292 43.338 18.6808 34.4253 16.3428C30.0938 15.0886 26.1991 11.5239 21.5896 11.7401C18.1097 11.7347 14.8628 13.9489 12.7968 16.8215C8.45457 22.5271 6.38916 33.4494 9.26789 40.0853C13.2595 48.8896 16.1382 55.5255 15.9518 65.7153C15.7647 67.8555 15.8274 69.8253 16.3102 71.8746C17.3947 75.343 20.398 77.8689 22.1921 81.0364C23.2653 83.4148 23.4981 85.6344 23.4416 88.2344C27.1353 88.6428 30.8252 88.6878 34.5113 88.3695C34.2783 86.1499 32.4955 84.0724 30.1851 83.6355C29.5549 83.5164 29.0953 83.647 28.5049 83.3178C28.1245 83.0283 27.9541 82.7785 27.8235 82.3187C25.7796 79.3216 21.0899 71.9081 21.8048 68.1273C22.0034 67.0771 22.8718 65.9361 23.4905 64.9653C27.1043 60.4273 30.7182 55.8893 34.332 51.3514C37.5163 47.1673 44.9814 51.4072 49.0632 52.8316C54.1554 54.6648 59.0546 54.0682 64.4248 54.431C65.9348 54.499 67.4052 54.777 68.5066 55.8555C70.7093 58.0125 71.1354 62.6618 72.5492 65.5398C74.2639 69.1273 75.8878 72.045 76.6035 76.3139C76.9747 79.7199 77.3592 83.0559 77.7569 86.3219C77.8875 86.7817 77.9782 87.4516 78.3585 87.7411C78.7389 88.0306 79.1592 88.11 79.619 87.9794C82.0524 88.1495 84.429 88.2363 86.7489 88.2399C87.6288 88.1887 88.5087 88.1375 88.8379 87.5471C89.2068 86.7467 88.4859 85.9576 87.8955 85.6284C87.095 85.2595 86.2547 85.1006 85.4145 84.9417C83.7739 84.4139 82.7123 83.1255 82.1502 81.4963C81.5483 80.0771 81.4459 78.3173 81.3038 76.7675C79.997 64.1198 77.8387 50.2233 81.5218 37.6489C81.9948 37.4483 82.5377 37.2609 83.1508 37.0868C86.3297 36.3826 89.5997 36.3482 92.8183 35.4339C101.384 32.7026 103.353 24.5903 107.883 16.7446C109.449 14.2126 114.189 14.4563 116.687 12.753C117.896 12.1114 120.723 9.81772 120.74 7.4278C120.717 5.24792 121.676 4.77667 121.125 4.23743Z" fill="#230C4A"/>
</svg>
