<svg width="60" height="60" viewBox="0 0 60 60" fill="none" xmlns="http://www.w3.org/2000/svg">
<circle cx="30" cy="30" r="26" fill="#EDEDED" stroke="white" stroke-width="2"/>
<path d="M45 25.15L41.4286 27.2125L37.8571 30.775V43H42.8571C44.0407 43 45 41.9928 45 40.75V25.15Z" fill="#4CAF50"/>
<path d="M15 25.15L17.5814 26.4325L22.1429 30.775V43H17.1429C15.9593 43 15 41.9928 15 40.75V25.15Z" fill="#1E88E5"/>
<path d="M37.8571 21.4L30 27.5875L22.1429 21.4L21.4286 25.75L22.1429 30.775L30 36.9625L37.8571 30.775L38.5714 25.75L37.8571 21.4Z" fill="#E53935"/>
<path d="M15 22.2235V25.15L22.1429 30.775V21.4L19.9114 19.6443C19.38 19.2258 18.7343 19 18.07 19C16.3743 19 15 20.443 15 22.2235Z" fill="#C62828"/>
<path d="M45 22.2235V25.15L37.8571 30.775V21.4L40.0886 19.6443C40.62 19.2258 41.2657 19 41.93 19C43.6257 19 45 20.443 45 22.2235Z" fill="#FBC02D"/>
</svg>
