<svg width="1920" height="1276" viewBox="0 0 1920 1276" fill="none" xmlns="http://www.w3.org/2000/svg">
<path d="M-72.4565 269.52C-73.3152 268.769 -74.1202 268.017 -74.8716 267.266C-110.292 234.099 -122.529 189.018 -124.944 142.971C-125.266 134.921 -128.647 39.2849 -135.087 38.6409C0.907455 53.3459 136.956 68.1045 273.057 82.9169C583.15 116.513 893.243 150.163 1203.34 183.866C1353.5 200.181 1503.66 216.496 1653.82 232.811C1715.33 239.466 1776.88 246.121 1838.5 252.776C1925.76 262.275 2013.34 254.708 2091.91 301.56C2099.8 306.39 2108.02 312.025 2111.56 320.558C2117.19 334.727 2107.21 351.149 2093.69 358.072C2080.32 364.995 2064.38 364.834 2049.25 364.512C1807.42 360.004 1565.65 355.55 1323.93 351.149C1210.42 349.056 1096.43 346.802 985.176 324.744C932.85 314.44 880.524 299.628 827.393 302.204C775.388 304.78 725.638 323.939 673.795 328.608C543.382 340.845 418.282 261.953 287.387 268.554C224.756 271.774 164.702 294.315 102.876 304.619C42.0171 314.601 -26.5705 310.254 -72.4565 269.52Z" fill="url(#paint0_linear_302_322)"/>
<path d="M-186.607 837.601C-186.607 749.693 -180.006 652.93 -166.643 566.471C-147.001 438.956 -141.687 307.738 -132.188 178.291C-131.383 168.631 -130.256 158.005 -123.172 151.404C-116.571 145.285 -106.75 144.48 -97.7334 143.997C69.5493 134.498 237.154 125.16 404.437 134.337C461.432 137.396 518.588 149.15 575.423 142.387C633.223 135.303 689.574 117.271 748.018 117.754C777.804 118.076 807.107 123.228 836.57 126.287C907.573 133.693 979.864 128.863 1049.26 112.119C1092.57 101.653 1134.75 86.5192 1178.7 78.952C1247.61 67.1987 1318.13 74.4439 1387.85 75.0879C1495.72 75.8929 1603.11 60.7585 1709.85 45.7852C1807.85 31.9389 1905.85 18.0926 2003.85 4.24629C2035.56 -0.261806 2075.01 -1.38879 2091.92 25.8208C2098.36 36.4471 2099.8 49.3273 2101.09 61.7246C2107.85 131.922 2118.64 207.755 2113.81 278.274C2112.04 303.874 2103.83 326.576 2103.35 352.658C2102.54 391.943 2102.38 431.389 2101.74 470.674C2099.32 622.5 2095.78 774.487 2092.24 926.314L-186.607 837.601Z" fill="url(#paint1_linear_302_322)"/>
<g opacity="0.7">
<path d="M194.971 766.377C286.099 798.578 386.565 786.503 480.913 765.089C554.17 748.667 627.427 726.126 689.252 683.299C717.428 663.657 745.12 634.193 740.773 600.222C738.358 581.062 725.961 564.801 712.115 551.277C685.71 525.677 652.382 507.162 616.478 498.628C609.072 496.857 600.056 494.281 597.963 486.875C596.353 480.757 599.895 476.088 605.53 473.029C460.788 467.072 283.845 533.083 121.07 551.115C65.1484 557.341 9.17281 562.922 -46.8564 567.86C-46.8564 589.595 -42.5094 611.331 -30.5951 629.202C-17.0708 649.65 4.66471 662.852 25.5952 675.571C52.9658 691.994 80.3364 708.416 108.19 724.355C136.044 740.295 164.541 755.59 194.971 766.377Z" fill="#F4A742"/>
<path d="M194.971 474.377C286.099 506.578 386.565 494.503 480.913 473.089C554.17 456.667 627.427 434.126 689.252 391.299C717.428 371.657 745.12 342.193 740.773 308.222C738.358 289.062 725.961 272.801 712.115 259.277C685.71 233.677 652.382 215.162 616.478 206.628C609.072 204.857 600.056 202.281 597.963 194.875C596.353 188.757 599.895 184.088 605.53 181.029C460.788 175.072 283.845 241.083 121.07 259.115C65.1484 265.341 9.17281 270.922 -46.8564 275.86C-46.8564 297.595 -42.5094 319.331 -30.5951 337.202C-17.0708 357.65 4.66471 370.852 25.5952 383.571C52.9658 399.994 80.3364 416.416 108.19 432.355C136.044 448.295 164.541 463.59 194.971 474.377Z" fill="#FF9843"/>
</g>
<path d="M-164.229 629.524C-133.96 620.347 -106.267 604.891 -74.7107 602.315C-40.8999 599.738 -7.5722 587.18 25.1115 578.164C97.6705 558.092 170.229 538.074 242.788 518.11C277.726 508.449 312.825 498.789 348.729 494.603C391.234 489.773 421.019 540.489 463.524 545.963C619.054 565.767 777.481 577.842 931.401 601.51C1062.3 621.796 1189.17 578.325 1316.84 557.072C1449.35 534.854 1586.52 529.863 1720.96 518.754C1828.83 509.898 1939.93 509.254 2042.33 544.514C2126.53 573.334 2205.42 629.846 2248.57 709.221C2293.49 791.977 2325.53 910.475 2284.64 1000.48C2256.3 1062.95 2195.28 1104 2133.29 1133.3C2009.32 1192.07 1871.98 1216.54 1735.77 1233.77C1464.32 1267.9 1189.97 1275.47 916.427 1275.47C568.499 1275.47 214.291 1262.43 -114.318 1148.12C-310.098 1080.17 16.2563 731.278 -164.229 629.524Z" fill="#F4A13D"/>
<g opacity="0.5">
<path d="M2281.09 490.964C2280.93 489.998 2223.13 490.964 2220.07 490.964C2085.47 490.964 1950.93 490.964 1816.44 490.964C1607.88 490.964 1399.38 490.964 1190.94 490.964C969.934 490.964 748.93 490.964 527.925 490.964C432.075 490.964 336.17 490.964 240.212 490.964C195.614 490.964 151.016 488.066 107.545 497.726C32.8393 514.309 -57.9667 498.853 -134.443 497.404C-121.563 441.214 -71.491 399.836 -17.3938 380.193C36.8645 360.712 95.4697 358.619 152.787 354.111C305.74 342.196 456.762 311.123 609.715 300.335C734.171 291.48 859.754 296.149 983.243 277.956C1122.19 257.67 1252.92 202.928 1391.55 184.413C1448.7 176.685 1506.83 176.202 1564.31 180.066C1671.21 187.311 1776.35 209.53 1881.8 228.367C1966.33 243.34 2052.79 256.865 2129.27 295.827C2205.74 334.951 2271.92 405.471 2281.09 490.964Z" fill="url(#paint2_linear_302_322)"/>
<path d="M35.0938 578.164L1450.15 683.299C1528.89 651.904 1584.75 625.338 1592.96 610.043C1625.17 549.827 1435.18 498.306 1435.18 461.919C1435.18 443.565 1459.65 435.193 1472.86 431.973C1445.65 432.778 1418.44 434.71 1391.55 438.413C1338.58 445.497 1288.51 463.529 1236.82 473.834C1119.61 497.018 1013.35 517.466 892.921 498.95C782.472 482.045 677.176 441.311 569.787 410.076C506.834 391.561 441.628 376.265 375.938 379.969C322.968 383.028 271.608 398.484 221.697 416.033C178.548 431.329 133.789 439.379 90.962 456.284C74.8616 462.563 59.0833 469.487 43.3049 476.571L35.0938 578.164Z" fill="url(#paint3_linear_302_322)"/>
<path d="M35.0938 286.164L1450.15 391.299C1528.89 359.904 1584.75 333.338 1592.96 318.043C1625.17 257.827 1435.18 206.306 1435.18 169.919C1435.18 151.565 1459.65 143.193 1472.86 139.973C1445.65 140.778 1418.44 142.71 1391.55 146.413C1338.58 153.497 1288.51 171.529 1236.82 181.834C1119.61 205.018 1013.35 225.466 892.921 206.95C782.472 190.045 677.176 149.311 569.787 118.076C506.834 99.5608 441.628 84.2654 375.938 87.9685C322.968 91.0276 271.608 106.484 221.697 124.033C178.548 139.329 133.789 147.379 90.962 164.284C74.8616 170.563 59.0833 177.487 43.3049 184.571L35.0938 286.164Z" fill="#FF9843"/>
</g>
<path d="M-178.88 286.325C-158.164 284.929 -137.502 283.427 -116.893 281.817C-37.4651 275.484 41.856 267.917 121.07 259.115C286.098 240.922 465.94 173.139 611.809 181.35C691.989 185.698 727.731 216.288 806.462 232.872C952.331 263.462 1113.5 270.546 1260.81 248.65C1444.36 221.44 1592.8 207.111 1777.64 223.05C1853.15 229.491 1969.39 237.38 2043.61 253.802C2105.6 267.487 2166.14 294.214 2210.9 339.295C2236.01 364.573 2255.49 396.129 2265.8 430.262C2275.3 461.98 2272.4 493.697 2282.7 524.771C2306.53 597.706 2314.26 684.809 2275.3 754.04C2239.07 818.281 2162.92 847.1 2092.24 868.031C1944.44 911.824 1793.25 942.576 1641.43 968.658C1118.17 1058.02 563.186 1087.32 72.2857 885.419C-4.35199 853.862 -79.0576 816.832 -146.518 768.692" fill="url(#paint4_linear_302_322)"/>
<path d="M-164.229 337.524C-133.96 328.347 -106.267 312.891 -74.7107 310.315C-40.8999 307.738 -7.5722 295.18 25.1115 286.164C97.6705 266.092 170.229 246.074 242.788 226.11C277.726 216.449 312.825 206.789 348.729 202.603C391.234 197.773 421.019 248.489 463.524 253.963C619.054 273.767 777.481 285.842 931.401 309.51C1062.3 329.796 1189.17 286.325 1316.84 265.072C1449.35 242.854 1586.52 237.863 1720.96 226.754C1828.83 217.898 1939.93 217.254 2042.33 252.514C2126.53 281.334 2205.42 337.846 2248.57 417.221C2293.49 499.977 2325.53 618.475 2284.64 708.476C2256.3 770.946 2195.28 812.002 2133.29 841.304C2009.32 900.071 1871.98 924.543 1735.77 941.771C1464.32 975.903 1189.97 983.471 916.427 983.471C568.499 983.471 214.291 970.429 -114.318 856.117C-310.098 788.173 16.2563 439.278 -164.229 337.524Z" fill="#FF9843"/>
<path d="M21.0869 394.519C21.0869 394.519 405.563 342.354 503.293 300.332C601.183 258.31 707.445 232.872 759.771 232.872C812.259 232.872 977.931 323.034 1120.58 349.116C1241.49 371.335 1487.99 328.186 1705.02 408.527C1922.06 488.867 2237.62 843.075 2237.62 843.075L49.1015 929.212L21.0869 394.519Z" fill="url(#paint5_linear_302_322)"/>
<path d="M399.606 516.882C399.606 516.882 1024.94 415.933 1014 362.801C1007.56 331.567 767.017 285.359 743.993 262.496C727.249 245.752 765.246 233.677 765.246 233.677L762.83 233.033C761.864 233.033 760.737 232.872 759.771 232.872C707.445 232.872 601.183 258.31 503.293 300.332C465.618 316.432 385.277 334.304 300.911 349.921L399.606 516.882Z" fill="url(#paint6_linear_302_322)"/>
<path d="M693.277 555.201C693.277 555.201 1118.33 435.414 1248.74 364.895C1379.15 294.536 1528.89 186.342 1666.06 186.342C1746.24 186.342 1832.7 278.597 1978.09 278.597C2209.93 278.597 2480.42 426.076 2480.42 454.252C2480.42 482.427 2170.97 1022.27 2170.97 1022.27L745.281 961.252L693.277 555.201Z" fill="url(#paint7_linear_302_322)"/>
<path d="M833.833 615.094C833.833 598.511 868.127 516.56 1113.17 460.37C1319.58 413.196 1471.41 438.151 1519.71 376.004C1549.98 336.88 1485.25 332.05 1485.25 293.731C1485.25 255.412 1647.06 248.328 1679.1 217.254C1696.17 200.51 1679.75 187.469 1679.75 187.469C1675.4 186.664 1670.89 186.342 1666.06 186.342C1528.89 186.342 1379.15 294.536 1248.74 364.895C1118.33 435.414 693.277 555.201 693.277 555.201L745.281 961.252L872.474 966.726C838.503 822.467 833.833 626.204 833.833 615.094Z" fill="url(#paint8_linear_302_322)"/>
<path d="M-176.626 265.717C-176.626 265.717 -40.7388 199.061 79.3699 125.643C128.959 95.3747 200.123 72.5122 229.103 72.5122C340.196 72.5122 491.378 212.263 734.01 305.001C974.711 397.256 1494.59 523.966 1542.89 652.286C1591.19 780.606 836.731 985.241 836.731 985.241L-365 961.252L-176.626 265.717Z" fill="url(#paint9_linear_302_322)"/>
<path d="M-176.626 265.717L-365 961.252L453.059 977.674C877.626 872.217 560.61 752.269 560.61 668.225C560.61 573.394 866.999 552.303 813.224 460.209C759.288 367.954 170.82 343.32 151.822 265.717C132.018 184.732 259.694 179.419 267.422 123.872C273.701 78.9523 229.103 72.5122 229.103 72.5122C200.123 72.5122 128.959 95.3747 79.3699 125.643C-40.7388 199.061 -176.626 265.717 -176.626 265.717Z" fill="url(#paint10_linear_302_322)"/>
<path d="M1337.29 54.0973C1337.29 55.7073 1336 56.9954 1334.39 56.9954C1332.78 56.9954 1331.5 55.7073 1331.5 54.0973C1331.5 52.4872 1332.78 51.1992 1334.39 51.1992C1336 51.1992 1337.29 52.4872 1337.29 54.0973Z" fill="white"/>
<path d="M787.786 174.206C787.786 175.816 786.497 177.104 785.048 177.104C783.438 177.104 782.15 175.816 782.15 174.206C782.15 172.596 783.438 171.308 785.048 171.308C786.497 171.308 787.786 172.596 787.786 174.206Z" fill="white"/>
<path opacity="0.5" d="M194.81 78.8917C194.81 80.1798 193.844 81.3068 192.556 81.3068C191.107 81.3068 190.141 80.1798 190.141 78.8917C190.141 77.6037 191.107 76.6377 192.556 76.6377C193.844 76.6377 194.81 77.6037 194.81 78.8917Z" fill="white"/>
<path opacity="0.5" d="M298.174 152.148C298.174 153.436 297.208 154.564 295.92 154.564C294.632 154.564 293.505 153.436 293.505 152.148C293.505 150.86 294.632 149.733 295.92 149.733C297.208 149.733 298.174 150.86 298.174 152.148Z" fill="white"/>
<path opacity="0.5" d="M1523.41 2.25409C1523.41 3.54212 1522.28 4.66914 1521 4.66914C1519.71 4.66914 1518.74 3.54212 1518.74 2.25409C1518.74 0.966061 1519.71 0 1521 0C1522.28 0 1523.41 0.966061 1523.41 2.25409Z" fill="white"/>
<path opacity="0.5" d="M61.9816 94.8311C61.9816 96.1191 60.8546 97.0851 59.5665 97.0851C58.2785 97.0851 57.3125 96.1191 57.3125 94.8311C57.3125 93.543 58.2785 92.416 59.5665 92.416C60.8546 92.416 61.9816 93.543 61.9816 94.8311Z" fill="white"/>
<path opacity="0.3" d="M156.813 253.097C156.813 254.385 155.847 255.512 154.559 255.512C153.271 255.512 152.144 254.385 152.144 253.097C152.144 251.809 153.271 250.682 154.559 250.682C155.847 250.682 156.813 251.809 156.813 253.097Z" fill="white"/>
<path opacity="0.3" d="M1907.57 142.81C1907.57 144.098 1906.44 145.064 1905.15 145.064C1903.86 145.064 1902.9 144.098 1902.9 142.81C1902.9 141.522 1903.86 140.395 1905.15 140.395C1906.44 140.395 1907.57 141.522 1907.57 142.81Z" fill="white"/>
<path opacity="0.3" d="M1578.15 149.733C1578.15 151.021 1577.19 152.148 1575.9 152.148C1574.61 152.148 1573.48 151.021 1573.48 149.733C1573.48 148.445 1574.61 147.479 1575.9 147.479C1577.19 147.479 1578.15 148.445 1578.15 149.733Z" fill="white"/>
<path opacity="0.3" d="M1643.2 76.6377C1643.2 77.9257 1642.23 78.8918 1640.94 78.8918C1639.66 78.8918 1638.53 77.9257 1638.53 76.6377C1638.53 75.3497 1639.66 74.2227 1640.94 74.2227C1642.23 74.2227 1643.2 75.3497 1643.2 76.6377Z" fill="white"/>
<defs>
<linearGradient id="paint0_linear_302_322" x1="1.74653e+06" y1="114070" x2="1.74653e+06" y2="180083" gradientUnits="userSpaceOnUse">
<stop stop-color="#FBE07F" stop-opacity="0"/>
<stop offset="1" stop-color="#DF4924" stop-opacity="0.05"/>
</linearGradient>
<linearGradient id="paint1_linear_302_322" x1="1.45306e+06" y1="1.00082e+06" x2="1.45306e+06" y2="469946" gradientUnits="userSpaceOnUse">
<stop stop-color="#FBE07F" stop-opacity="0"/>
<stop offset="1" stop-color="#DF4924" stop-opacity="0.05"/>
</linearGradient>
<linearGradient id="paint2_linear_302_322" x1="155426" y1="194763" x2="3.77946e+06" y2="194763" gradientUnits="userSpaceOnUse">
<stop offset="0.51" stop-color="#F9AC4B"/>
<stop offset="1" stop-color="#F9DA70"/>
</linearGradient>
<linearGradient id="paint3_linear_302_322" x1="265029" y1="171012" x2="1.77957e+06" y2="171012" gradientUnits="userSpaceOnUse">
<stop stop-color="#EDDC69" stop-opacity="0"/>
<stop offset="1" stop-color="#EE8424" stop-opacity="0.4"/>
</linearGradient>
<linearGradient id="paint4_linear_302_322" x1="91137.7" y1="530642" x2="3.91551e+06" y2="530642" gradientUnits="userSpaceOnUse">
<stop offset="0.44" stop-color="#F9B550"/>
<stop offset="1" stop-color="#F9DD85"/>
</linearGradient>
<linearGradient id="paint5_linear_302_322" x1="1.03581e+06" y1="273268" x2="1.85941e+06" y2="1.78675e+06" gradientUnits="userSpaceOnUse">
<stop offset="0.06" stop-color="#F9E185"/>
<stop offset="0.47" stop-color="#FFA23A"/>
</linearGradient>
<linearGradient id="paint6_linear_302_322" x1="242655" y1="236870" x2="303099" y2="85080" gradientUnits="userSpaceOnUse">
<stop offset="0.65" stop-color="#EF9D44"/>
<stop offset="0.94" stop-color="#F07B17"/>
</linearGradient>
<linearGradient id="paint7_linear_302_322" x1="957885" y1="919125" x2="1.48062e+06" y2="-198432" gradientUnits="userSpaceOnUse">
<stop offset="0.51" stop-color="#F9AC4B"/>
<stop offset="1" stop-color="#F9E994"/>
</linearGradient>
<linearGradient id="paint8_linear_302_322" x1="575480" y1="486288" x2="1.18862e+06" y2="486288" gradientUnits="userSpaceOnUse">
<stop offset="0.28" stop-color="#D9501C"/>
<stop offset="0.95" stop-color="#F98E2D"/>
</linearGradient>
<linearGradient id="paint9_linear_302_322" x1="-150882" y1="504082" x2="2.11509e+06" y2="504082" gradientUnits="userSpaceOnUse">
<stop offset="0.2" stop-color="#F9EA90"/>
<stop offset="0.79" stop-color="#F9B45A"/>
</linearGradient>
<linearGradient id="paint10_linear_302_322" x1="881538" y1="631514" x2="551591" y2="1.37932e+06" gradientUnits="userSpaceOnUse">
<stop stop-color="#DD6327"/>
<stop offset="0.36" stop-color="#F89F49"/>
</linearGradient>
</defs>
</svg>
