<svg width="795" height="1565" viewBox="0 0 795 1565" fill="none" xmlns="http://www.w3.org/2000/svg">
<g clip-path="url(#clip0_665_371)">
<rect width="795" height="1565" fill="#D9501C"/>
<path d="M1008.67 -0.994629V1713.35H-1.37793V-0.994629H1008.67Z" fill="url(#paint0_linear_665_371)"/>
<path style="mix-blend-mode:multiply" d="M-84.123 221.554L1232 347.536L1220.14 242.663L-118 -23L-84.123 221.554Z" fill="url(#paint1_linear_665_371)"/>
<path d="M-58.1221 685.958C-58.1221 665.298 -41.7764 388.182 -41.7764 388.182L1091.5 202.464L1100.98 729.749L-58.1221 685.958Z" fill="url(#paint2_linear_665_371)"/>
<path d="M-44.4022 862.696C-44.8539 861.648 -45.2774 860.6 -45.6726 859.552C-64.305 813.291 -70.7416 750.412 -72.012 686.186C-72.1814 674.957 -73.96 541.564 -77.3477 540.666C-5.81064 561.177 65.7546 581.762 137.348 602.422C300.466 649.282 463.584 696.217 626.702 743.226C705.692 765.982 784.682 788.738 863.672 811.495C896.024 820.777 928.405 830.059 960.814 839.341C1006.72 852.59 1052.79 842.036 1094.12 907.385C1098.27 914.122 1102.59 921.982 1104.45 933.884C1107.42 953.646 1102.17 976.552 1095.05 986.208C1088.02 995.865 1079.64 995.64 1071.68 995.191C944.468 988.903 817.288 982.69 690.137 976.552C630.428 973.632 570.466 970.488 511.943 939.723C484.418 925.35 456.893 904.69 428.945 908.283C401.589 911.876 375.419 938.6 348.148 945.112C279.547 962.18 213.741 852.141 144.886 861.349C111.94 865.84 80.35 897.279 47.828 911.652C15.8142 925.575 -20.2648 919.512 -44.4022 862.696Z" fill="url(#paint3_linear_665_371)"/>
<path d="M-104.448 1655.05C-104.448 1532.44 -100.976 1397.48 -93.9464 1276.88C-83.6139 1099.02 -80.819 916.002 -75.8221 735.45C-75.3987 721.976 -74.8058 707.155 -71.0794 697.947C-67.607 689.414 -62.4407 688.291 -57.6979 687.617C30.2977 674.368 118.463 661.343 206.458 674.143C236.439 678.41 266.505 694.803 296.402 685.371C326.806 675.49 356.449 650.339 387.192 651.013C402.86 651.462 418.274 658.648 433.773 662.915C471.123 673.245 509.15 666.508 545.652 643.153C568.434 628.556 590.624 607.446 613.745 596.892C649.993 580.498 687.089 590.604 723.761 591.502C780.505 592.625 836.995 571.516 893.146 550.631C944.695 531.318 996.245 512.005 1047.79 492.692C1064.48 486.404 1085.23 484.833 1094.12 522.785C1097.51 537.606 1098.27 555.571 1098.95 572.863C1102.51 670.775 1108.18 776.546 1105.64 874.906C1104.71 910.613 1100.39 942.277 1100.13 978.657C1099.71 1033.45 1099.63 1088.47 1099.29 1143.26C1098.02 1355.03 1096.15 1567.02 1094.29 1778.79L-104.448 1655.05Z" fill="url(#paint4_linear_665_371)"/>
<path style="mix-blend-mode:multiply" opacity="0.5" d="M1214.98 362.354L53.249 747.487L1215.49 700.103L1214.98 362.354Z" fill="url(#paint5_linear_665_371)"/>
<g style="mix-blend-mode:multiply" opacity="0.3">
<path d="M1100.64 659.009C1099.97 634.531 1098.19 610.053 1094.8 587.148C1082.77 506.079 1047.12 444.547 1014.09 466.555C993.676 480.029 975.721 517.756 966.066 567.386C960.476 596.355 956.326 632.061 944.978 643.963C924.313 665.297 906.019 586.249 883.83 589.618C869.432 592.088 859.692 627.794 850.715 657.662C841.737 687.754 828.864 712.007 815.313 698.533C811.163 694.491 807.691 686.406 803.71 680.792C790.752 662.153 768.902 666.195 756.875 688.428C744.68 711.109 737.142 772.416 724.438 784.318C710.633 797.343 690.985 778.704 678.873 778.928C652.365 779.827 633.139 787.013 610.272 816.88C610.272 816.88 998.588 816.88 1029.75 816.88C1075.32 816.88 1090.65 775.111 1098.36 723.685C1101.4 703.474 1101.24 680.792 1100.64 659.009Z" fill="url(#paint6_linear_665_371)"/>
</g>
<path d="M697.166 562.223C697.166 564.469 696.489 566.265 695.642 566.265C694.795 566.265 694.117 564.469 694.117 562.223C694.117 559.977 694.795 558.181 695.642 558.181C696.489 558.181 697.166 559.977 697.166 562.223Z" fill="white"/>
<path d="M177.408 412.434C177.408 414.68 176.73 416.477 175.883 416.477C175.121 416.477 174.443 414.68 174.443 412.434C174.443 410.189 175.121 408.392 175.883 408.392C176.73 408.392 177.408 410.189 177.408 412.434Z" fill="white"/>
<path d="M617.64 272.753C617.64 274.999 616.962 276.795 616.115 276.795C615.268 276.795 614.591 274.999 614.591 272.753C614.591 270.732 615.268 268.936 616.115 268.936C616.962 268.936 617.64 270.732 617.64 272.753Z" fill="white"/>
<path d="M27.7553 353.823C27.7553 355.844 27.0777 357.64 26.3155 357.64C25.4685 357.64 24.791 355.844 24.791 353.823C24.791 351.577 25.4685 349.78 26.3155 349.78C27.0777 349.78 27.7553 351.577 27.7553 353.823Z" fill="white"/>
<path d="M408.111 729.753C408.111 731.999 407.433 733.795 406.671 733.795C405.824 733.795 405.146 731.999 405.146 729.753C405.146 727.507 405.824 725.711 406.671 725.711C407.433 725.711 408.111 727.507 408.111 729.753Z" fill="white"/>
<path d="M299.281 146.322C299.281 150.589 298.01 153.958 296.401 153.958C294.877 153.958 293.606 150.589 293.606 146.322C293.606 142.28 294.877 138.912 296.401 138.912C298.01 138.912 299.281 142.28 299.281 146.322Z" fill="white"/>
<path d="M487.383 259.057C487.383 260.853 486.875 262.425 486.197 262.425C485.52 262.425 484.927 260.853 484.927 259.057C484.927 257.26 485.52 255.913 486.197 255.913C486.875 255.913 487.383 257.26 487.383 259.057Z" fill="white"/>
<path d="M763.312 246.03C763.312 247.827 762.719 249.399 762.041 249.399C761.364 249.399 760.855 247.827 760.855 246.03C760.855 244.234 761.364 242.662 762.041 242.662C762.719 242.662 763.312 244.234 763.312 246.03Z" fill="white"/>
<path opacity="0.5" d="M106.773 444.998C106.773 446.795 106.181 448.142 105.503 448.142C104.826 448.142 104.317 446.795 104.317 444.998C104.317 443.202 104.826 441.63 105.503 441.63C106.181 441.63 106.773 443.202 106.773 444.998Z" fill="white"/>
<path opacity="0.5" d="M96.1865 596.808C96.1865 598.605 95.6784 600.177 95.0009 600.177C94.2386 600.177 93.7305 598.605 93.7305 596.808C93.7305 595.011 94.2386 593.664 95.0009 593.664C95.6784 593.664 96.1865 595.011 96.1865 596.808Z" fill="white"/>
<path opacity="0.5" d="M150.56 698.982C150.56 700.779 150.051 702.351 149.374 702.351C148.696 702.351 148.104 700.779 148.104 698.982C148.104 697.186 148.696 695.614 149.374 695.614C150.051 695.614 150.56 697.186 150.56 698.982Z" fill="white"/>
<path opacity="0.5" d="M795.071 489.913C795.071 491.709 794.478 493.281 793.801 493.281C793.123 493.281 792.615 491.709 792.615 489.913C792.615 488.116 793.123 486.769 793.801 486.769C794.478 486.769 795.071 488.116 795.071 489.913Z" fill="white"/>
<path opacity="0.5" d="M26.3155 619.038C26.3155 620.834 25.7226 622.182 25.0451 622.182C24.3675 622.182 23.8594 620.834 23.8594 619.038C23.8594 617.241 24.3675 615.669 25.0451 615.669C25.7226 615.669 26.3155 617.241 26.3155 619.038Z" fill="white"/>
<path opacity="0.5" d="M200.444 102.531C200.444 104.328 199.852 105.9 199.174 105.9C198.496 105.9 197.988 104.328 197.988 102.531C197.988 100.735 198.496 99.3872 199.174 99.3872C199.852 99.3872 200.444 100.735 200.444 102.531Z" fill="white"/>
<path opacity="0.3" d="M106.773 208.979C106.773 210.775 106.181 212.123 105.503 212.123C104.826 212.123 104.317 210.775 104.317 208.979C104.317 207.182 104.826 205.61 105.503 205.61C106.181 205.61 106.773 207.182 106.773 208.979Z" fill="white"/>
<path opacity="0.3" d="M76.1993 839.789C76.1993 841.585 75.6911 843.157 75.0136 843.157C74.336 843.157 73.7432 841.585 73.7432 839.789C73.7432 837.992 74.336 836.42 75.0136 836.42C75.6911 836.42 76.1993 837.992 76.1993 839.789Z" fill="white"/>
<path opacity="0.3" d="M148.104 219.532C148.104 221.553 147.595 222.9 146.918 222.9C146.24 222.9 145.647 221.553 145.647 219.532C145.647 217.735 146.24 216.388 146.918 216.388C147.595 216.388 148.104 217.735 148.104 219.532Z" fill="white"/>
<path opacity="0.3" d="M347.47 50.6562C347.47 52.4527 346.962 54.0247 346.284 54.0247C345.607 54.0247 345.014 52.4527 345.014 50.6562C345.014 48.8596 345.607 47.5122 346.284 47.5122C346.962 47.5122 347.47 48.8596 347.47 50.6562Z" fill="white"/>
<path opacity="0.5" d="M398.201 208.979C398.201 210.775 397.608 212.123 396.931 212.123C396.253 212.123 395.66 210.775 395.66 208.979C395.66 207.182 396.253 205.61 396.931 205.61C397.608 205.61 398.201 207.182 398.201 208.979Z" fill="white"/>
<path opacity="0.3" d="M706.905 427.707C706.905 429.503 706.397 430.851 705.72 430.851C705.042 430.851 704.449 429.503 704.449 427.707C704.449 425.91 705.042 424.338 705.72 424.338C706.397 424.338 706.905 425.91 706.905 427.707Z" fill="white"/>
<path opacity="0.3" d="M605.528 109.942C605.528 111.739 605.02 113.086 604.343 113.086C603.665 113.086 603.072 111.739 603.072 109.942C603.072 108.146 603.665 106.574 604.343 106.574C605.02 106.574 605.528 108.146 605.528 109.942Z" fill="white"/>
<path opacity="0.5" d="M535.911 212.122C535.911 213.919 535.403 215.491 534.725 215.491C534.048 215.491 533.455 213.919 533.455 212.122C533.455 210.326 534.048 208.979 534.725 208.979C535.403 208.979 535.911 210.326 535.911 212.122Z" fill="white"/>
<path opacity="0.5" d="M694.117 276.122C694.117 277.919 693.609 279.491 692.932 279.491C692.169 279.491 691.661 277.919 691.661 276.122C691.661 274.326 692.169 272.754 692.932 272.754C693.609 272.754 694.117 274.326 694.117 276.122Z" fill="white"/>
<path opacity="0.5" d="M377.027 143.181C377.027 144.977 376.519 146.324 375.842 146.324C375.164 146.324 374.571 144.977 374.571 143.181C374.571 141.384 375.164 139.812 375.842 139.812C376.519 139.812 377.027 141.384 377.027 143.181Z" fill="white"/>
<path opacity="0.5" d="M328.244 344.394C328.244 346.19 327.736 347.538 327.058 347.538C326.296 347.538 325.788 346.19 325.788 344.394C325.788 342.597 326.296 341.025 327.058 341.025C327.736 341.025 328.244 342.597 328.244 344.394Z" fill="white"/>
<path d="M187.139 268.515L157.75 340.376C157.157 342.173 157.157 344.868 157.75 346.44C158.343 348.012 159.359 348.012 160.037 346.44L187.139 268.515Z" fill="url(#paint7_linear_665_371)"/>
<rect opacity="0.5" x="-64" y="-0.685059" width="1083.33" height="223.168" fill="url(#paint8_linear_665_371)"/>
</g>
<defs>
<linearGradient id="paint0_linear_665_371" x1="510778" y1="1.49491e+06" x2="510778" y2="186177" gradientUnits="userSpaceOnUse">
<stop offset="0.2" stop-color="#FFFF91"/>
<stop offset="1" stop-color="#FF7532"/>
</linearGradient>
<linearGradient id="paint1_linear_665_371" x1="1.08596e+06" y1="97724.5" x2="1.08596e+06" y2="36586" gradientUnits="userSpaceOnUse">
<stop stop-color="#FB4F46" stop-opacity="0.1"/>
<stop offset="1" stop-color="#DF4924" stop-opacity="0.1"/>
</linearGradient>
<linearGradient id="paint2_linear_665_371" x1="916908" y1="105238" x2="916908" y2="229044" gradientUnits="userSpaceOnUse">
<stop stop-color="#FBA146" stop-opacity="0.1"/>
<stop offset="1" stop-color="#DF4924" stop-opacity="0.05"/>
</linearGradient>
<linearGradient id="paint3_linear_665_371" x1="918719" y1="159591" x2="918719" y2="251666" gradientUnits="userSpaceOnUse">
<stop stop-color="#FBE07F" stop-opacity="0"/>
<stop offset="1" stop-color="#DF4924" stop-opacity="0.05"/>
</linearGradient>
<linearGradient id="paint4_linear_665_371" x1="764346" y1="1.39643e+06" x2="764346" y2="655967" gradientUnits="userSpaceOnUse">
<stop stop-color="#FBE07F" stop-opacity="0"/>
<stop offset="1" stop-color="#DF4924" stop-opacity="0.05"/>
</linearGradient>
<linearGradient id="paint5_linear_665_371" x1="1.06362e+06" y1="113592" x2="1.06362e+06" y2="179642" gradientUnits="userSpaceOnUse">
<stop stop-color="#FBA146" stop-opacity="0.05"/>
<stop offset="1" stop-color="#DF4924" stop-opacity="0.1"/>
</linearGradient>
<linearGradient id="paint6_linear_665_371" x1="430430" y1="120537" x2="714753" y2="120537" gradientUnits="userSpaceOnUse">
<stop offset="0.14" stop-color="#F9E675"/>
<stop offset="0.63" stop-color="#F99749"/>
</linearGradient>
<linearGradient id="paint7_linear_665_371" x1="7433.57" y1="20906.7" x2="8483.69" y2="20906.7" gradientUnits="userSpaceOnUse">
<stop stop-color="white" stop-opacity="0.7"/>
<stop offset="1" stop-color="white" stop-opacity="0.1"/>
</linearGradient>
<linearGradient id="paint8_linear_665_371" x1="477.667" y1="-0.685059" x2="477.667" y2="222.483" gradientUnits="userSpaceOnUse">
<stop stop-color="#281203"/>
<stop offset="1" stop-color="#281203" stop-opacity="0"/>
</linearGradient>
<clipPath id="clip0_665_371">
<rect width="795" height="1565" fill="white"/>
</clipPath>
</defs>
</svg>
