<svg width="144" height="56" viewBox="0 0 144 56" fill="none" xmlns="http://www.w3.org/2000/svg">
<path d="M43.2982 0.0262674C47.5728 -0.269377 51.5492 1.99723 55.5256 3.47545C61.0925 5.44641 66.7588 5.93916 72.5246 6.2348C81.2726 6.82609 87.0384 11.1622 91.1142 17.5678C91.313 17.2722 91.5118 17.1736 91.7106 16.9765C93.7982 15.2027 95.5876 13.6259 98.0728 12.4433C102.844 9.97963 108.411 9.78253 113.68 10.0782C122.826 10.4724 134.357 18.6519 143.404 14.7099C143.602 14.7099 143.801 14.6114 144 14.6114C136.843 22.6923 124.615 17.962 114.972 18.6519C113.448 18.7833 111.957 19.0132 110.499 19.3417C109.008 19.4403 107.517 19.7359 106.026 20.1301C104.236 20.7214 102.745 21.7069 101.254 22.7909C98.1722 24.4662 95.3888 26.5357 92.7047 28.8023C90.1201 29.5907 87.0384 27.9154 85.9449 25.6488C85.6798 24.7947 85.3484 24.0063 84.9508 23.2836C83.3602 19.4403 81.4714 16.0896 76.8986 14.7099C75.9045 14.4143 74.811 14.2172 73.7175 14.0201C72.127 13.4288 70.437 12.8375 68.747 12.3448C59.4026 9.68398 48.7657 7.91012 43 0.124822C43.0663 0.0591228 43.1657 0.0262674 43.2982 0.0262674Z" fill="#855A41"/>
<path d="M0.0990352 40C2.3767 40 4.25828 41.181 6.33789 42.0667C9.1107 43.1492 11.8835 43.5429 14.8544 43.9365C19.3107 44.4286 22.0835 46.7905 24.0641 50.1366C24.1301 50.0054 24.2291 49.907 24.3612 49.8414C25.4505 49.0541 26.4408 48.2667 27.7282 47.6763C30.2039 46.5937 32.9767 46.5937 35.6505 46.889C40.3049 47.381 46.0486 51.8096 50.7029 50.0382C50.7689 49.9726 50.868 49.9398 51 49.9398C47.1379 53.8763 40.9981 51.2192 36.1456 51.3176C35.3534 51.3176 34.5612 51.416 33.868 51.5144C33.0757 51.5144 32.3825 51.7112 31.4913 51.8096C30.6 52.1049 29.8078 52.4985 29.0156 53.089C27.4311 53.7779 25.9456 54.762 24.5592 55.943C23.2719 56.2382 21.6874 55.3525 21.1923 54.0731C21.0932 53.6795 20.8951 53.2858 20.7961 52.8922C20.0039 50.9239 19.1126 49.1525 16.835 48.2667C16.3728 48.1355 15.8777 48.0043 15.3495 47.8731C14.4913 47.545 13.633 47.217 12.7748 46.889C8.12041 45.3143 2.77282 44.1334 0 40C0.0660194 40 0.0990352 40 0.0990352 40Z" fill="#855A41"/>
</svg>
