<svg width="2567" height="1292" viewBox="0 0 2567 1292" fill="none" xmlns="http://www.w3.org/2000/svg">
<path d="M2141.83 15.7784V1244.88H221.701V15.7784H2141.83Z" fill="url(#paint0_linear_184_1294)"/>
<path style="mix-blend-mode:multiply" d="M64.4014 175.333L2566.4 265.656L2543.86 190.467L0 0L64.4014 175.333Z" fill="url(#paint1_linear_184_1294)"/>
<path d="M113.829 508.288C113.829 493.476 144.903 294.798 144.903 294.798L2299.29 161.648L2317.32 539.684L113.829 508.288Z" fill="url(#paint2_linear_184_1294)"/>
<path d="M139.912 634.998C139.053 634.247 138.248 633.495 137.497 632.744C102.076 599.577 89.8395 554.496 87.4245 508.449C87.1025 500.399 83.7214 404.763 77.2812 404.119C213.276 418.824 349.324 433.583 485.425 448.395C795.518 481.991 1105.61 515.641 1415.7 549.344C1565.87 565.659 1716.03 581.974 1866.19 598.289C1927.7 604.944 1989.25 611.599 2050.86 618.254C2138.13 627.753 2225.71 620.186 2304.28 667.038C2312.17 671.868 2320.38 677.503 2323.93 686.036C2329.56 700.205 2319.58 716.627 2306.05 723.55C2292.69 730.473 2276.75 730.312 2261.62 729.99C2019.79 725.482 1778.02 721.028 1536.3 716.627C1422.79 714.534 1308.8 712.28 1197.54 690.222C1145.22 679.918 1092.89 665.106 1039.76 667.682C987.757 670.258 938.007 689.417 886.163 694.087C755.75 706.323 630.651 627.431 499.755 634.032C437.124 637.252 377.07 659.793 315.245 670.097C254.385 680.079 185.798 675.732 139.912 634.998Z" fill="url(#paint3_linear_184_1294)"/>
<path d="M25.7607 1203.08C25.7607 1115.17 32.3619 1018.41 45.7252 931.949C65.3676 804.434 70.6807 673.216 80.18 543.77C80.985 534.109 82.112 523.483 89.1962 516.882C95.7973 510.764 105.619 509.959 114.635 509.476C281.917 499.976 449.522 490.638 616.805 499.815C673.8 502.875 730.956 514.628 787.791 507.866C845.591 500.781 901.942 482.749 960.387 483.232C990.172 483.554 1019.47 488.706 1048.94 491.765C1119.94 499.171 1192.23 494.341 1261.62 477.597C1304.93 467.132 1347.12 451.997 1391.07 444.43C1459.98 432.677 1530.5 439.922 1600.21 440.566C1708.09 441.371 1815.48 426.237 1922.22 411.263C2020.22 397.417 2118.22 383.571 2216.21 369.725C2247.93 365.216 2287.38 364.089 2304.28 391.299C2310.72 401.925 2312.17 414.806 2313.46 427.203C2320.22 497.4 2331.01 573.233 2326.18 643.753C2324.41 669.352 2316.2 692.054 2315.71 718.136C2314.91 757.421 2314.75 796.867 2314.1 836.152C2311.69 987.978 2308.15 1139.97 2304.61 1291.79L25.7607 1203.08Z" fill="url(#paint4_linear_184_1294)"/>
<path style="mix-blend-mode:multiply" opacity="0.5" d="M2534.03 276.279L325.549 552.4L2535 518.428L2534.03 276.279Z" fill="url(#paint5_linear_184_1294)"/>
<g style="mix-blend-mode:multiply" opacity="0.3">
<path d="M650.454 344.222C630.812 344.867 611.008 339.07 594.908 327.8C577.68 315.886 559.487 296.887 539.845 304.133C532.921 306.548 527.608 312.022 521.007 314.759C498.95 324.097 476.248 302.684 452.42 299.947C446.463 299.302 439.378 300.429 436.641 305.743C432.455 313.793 438.573 332.147 424.244 332.791C420.702 332.952 417.321 331.342 413.94 330.376C410.398 329.41 406.373 329.088 403.797 331.503C402.026 333.274 401.382 335.689 400.255 337.943C397.678 343.095 392.687 346.799 387.374 348.731C382.061 350.824 372.562 354.849 366.927 355.493C458.538 354.044 593.942 356.942 685.714 355.493C676.215 347.926 662.529 343.739 650.454 344.222Z" fill="url(#paint6_linear_184_1294)"/>
</g>
<g style="mix-blend-mode:multiply" opacity="0.3">
<path d="M2316.68 488.965C2315.39 471.415 2312.01 453.866 2305.57 437.443C2282.71 379.321 2214.93 335.206 2152.13 350.985C2113.33 360.645 2079.2 387.693 2060.85 423.275C2050.22 444.045 2042.33 469.644 2020.76 478.177C1981.47 493.473 1946.69 436.799 1904.51 439.214C1877.14 440.986 1858.63 466.585 1841.56 487.999C1824.49 509.573 1800.02 526.961 1774.26 517.301C1766.37 514.403 1759.77 508.607 1752.2 504.582C1727.57 491.219 1686.03 494.117 1663.17 510.056C1639.98 526.317 1625.65 570.271 1601.5 578.805C1575.26 588.143 1537.91 574.779 1514.88 574.94C1464.49 575.585 1427.94 580.737 1384.47 602.15C1384.47 602.15 2122.67 602.15 2181.92 602.15C2268.54 602.15 2297.68 572.203 2312.33 535.334C2318.13 520.843 2317.81 504.582 2316.68 488.965Z" fill="url(#paint7_linear_184_1294)"/>
</g>
<path d="M1549.66 419.575C1549.66 421.185 1548.37 422.473 1546.76 422.473C1545.15 422.473 1543.86 421.185 1543.86 419.575C1543.86 417.965 1545.15 416.677 1546.76 416.677C1548.37 416.677 1549.66 417.965 1549.66 419.575Z" fill="white"/>
<path d="M561.58 312.186C561.58 313.796 560.292 315.084 558.682 315.084C557.233 315.084 555.945 313.796 555.945 312.186C555.945 310.576 557.233 309.288 558.682 309.288C560.292 309.288 561.58 310.576 561.58 312.186Z" fill="white"/>
<path d="M1398.48 212.042C1398.48 213.652 1397.19 214.94 1395.58 214.94C1393.97 214.94 1392.68 213.652 1392.68 212.042C1392.68 210.593 1393.97 209.305 1395.58 209.305C1397.19 209.305 1398.48 210.593 1398.48 212.042Z" fill="white"/>
<path d="M277.087 270.164C277.087 271.613 275.799 272.901 274.35 272.901C272.74 272.901 271.452 271.613 271.452 270.164C271.452 268.554 272.74 267.266 274.35 267.266C275.799 267.266 277.087 268.554 277.087 270.164Z" fill="white"/>
<path d="M1000.15 539.684C1000.15 541.294 998.866 542.582 997.417 542.582C995.807 542.582 994.519 541.294 994.519 539.684C994.519 538.074 995.807 536.786 997.417 536.786C998.866 536.786 1000.15 538.074 1000.15 539.684Z" fill="white"/>
<path d="M793.265 121.397C793.265 124.456 790.85 126.871 787.791 126.871C784.893 126.871 782.478 124.456 782.478 121.397C782.478 118.499 784.893 116.083 787.791 116.083C790.85 116.083 793.265 118.499 793.265 121.397Z" fill="white"/>
<path d="M2016.41 242.471C2016.41 243.92 2015.12 245.208 2013.67 245.208C2012.06 245.208 2010.77 243.92 2010.77 242.471C2010.77 240.861 2012.06 239.573 2013.67 239.573C2015.12 239.573 2016.41 240.861 2016.41 242.471Z" fill="white"/>
<path d="M1150.85 202.22C1150.85 203.508 1149.89 204.635 1148.6 204.635C1147.31 204.635 1146.18 203.508 1146.18 202.22C1146.18 200.932 1147.31 199.966 1148.6 199.966C1149.89 199.966 1150.85 200.932 1150.85 202.22Z" fill="white"/>
<path d="M1675.4 192.882C1675.4 194.17 1674.28 195.297 1672.99 195.297C1671.7 195.297 1670.73 194.17 1670.73 192.882C1670.73 191.594 1671.7 190.467 1672.99 190.467C1674.28 190.467 1675.4 191.594 1675.4 192.882Z" fill="white"/>
<path opacity="0.5" d="M427.303 335.532C427.303 336.82 426.176 337.786 424.888 337.786C423.6 337.786 422.634 336.82 422.634 335.532C422.634 334.243 423.6 333.116 424.888 333.116C426.176 333.116 427.303 334.243 427.303 335.532Z" fill="white"/>
<path opacity="0.5" d="M407.178 444.37C407.178 445.658 406.212 446.785 404.924 446.785C403.475 446.785 402.509 445.658 402.509 444.37C402.509 443.082 403.475 442.116 404.924 442.116C406.212 442.116 407.178 443.082 407.178 444.37Z" fill="white"/>
<path opacity="0.5" d="M510.542 517.626C510.542 518.915 509.576 520.042 508.288 520.042C507 520.042 505.873 518.915 505.873 517.626C505.873 516.338 507 515.211 508.288 515.211C509.576 515.211 510.542 516.338 510.542 517.626Z" fill="white"/>
<path opacity="0.5" d="M1735.78 367.732C1735.78 369.02 1734.65 370.147 1733.36 370.147C1732.08 370.147 1731.11 369.02 1731.11 367.732C1731.11 366.444 1732.08 365.478 1733.36 365.478C1734.65 365.478 1735.78 366.444 1735.78 367.732Z" fill="white"/>
<path opacity="0.5" d="M274.35 460.309C274.35 461.597 273.223 462.563 271.935 462.563C270.647 462.563 269.681 461.597 269.681 460.309C269.681 459.021 270.647 457.894 271.935 457.894C273.223 457.894 274.35 459.021 274.35 460.309Z" fill="white"/>
<path opacity="0.5" d="M605.373 90.001C605.373 91.289 604.246 92.416 602.958 92.416C601.67 92.416 600.704 91.289 600.704 90.001C600.704 88.713 601.67 87.7469 602.958 87.7469C604.246 87.7469 605.373 88.713 605.373 90.001Z" fill="white"/>
<path opacity="0.3" d="M427.303 166.317C427.303 167.605 426.176 168.571 424.888 168.571C423.6 168.571 422.634 167.605 422.634 166.317C422.634 165.029 423.6 163.902 424.888 163.902C426.176 163.902 427.303 165.029 427.303 166.317Z" fill="white"/>
<path opacity="0.3" d="M369.181 618.576C369.181 619.864 368.215 620.991 366.927 620.991C365.639 620.991 364.512 619.864 364.512 618.576C364.512 617.288 365.639 616.161 366.927 616.161C368.215 616.161 369.181 617.288 369.181 618.576Z" fill="white"/>
<path opacity="0.3" d="M505.873 173.884C505.873 175.333 504.907 176.299 503.619 176.299C502.331 176.299 501.204 175.333 501.204 173.884C501.204 172.596 502.331 171.63 503.619 171.63C504.907 171.63 505.873 172.596 505.873 173.884Z" fill="white"/>
<path opacity="0.3" d="M884.875 52.8089C884.875 54.0969 883.909 55.2239 882.621 55.2239C881.333 55.2239 880.206 54.0969 880.206 52.8089C880.206 51.5208 881.333 50.5548 882.621 50.5548C883.909 50.5548 884.875 51.5208 884.875 52.8089Z" fill="white"/>
<path opacity="0.5" d="M981.316 166.317C981.316 167.605 980.189 168.571 978.901 168.571C977.613 168.571 976.486 167.605 976.486 166.317C976.486 165.029 977.613 163.902 978.901 163.902C980.189 163.902 981.316 165.029 981.316 166.317Z" fill="white"/>
<path opacity="0.3" d="M1568.17 323.134C1568.17 324.422 1567.21 325.388 1565.92 325.388C1564.63 325.388 1563.5 324.422 1563.5 323.134C1563.5 321.846 1564.63 320.719 1565.92 320.719C1567.21 320.719 1568.17 321.846 1568.17 323.134Z" fill="white"/>
<path opacity="0.3" d="M2119.93 508.288C2119.93 509.576 2118.81 510.542 2117.52 510.542C2116.23 510.542 2115.26 509.576 2115.26 508.288C2115.26 507 2116.23 505.873 2117.52 505.873C2118.81 505.873 2119.93 507 2119.93 508.288Z" fill="white"/>
<path opacity="0.3" d="M2080.81 55.2241C2080.81 56.5122 2079.68 57.4782 2078.39 57.4782C2077.11 57.4782 2076.14 56.5122 2076.14 55.2241C2076.14 53.9361 2077.11 52.8091 2078.39 52.8091C2079.68 52.8091 2080.81 53.9361 2080.81 55.2241Z" fill="white"/>
<path opacity="0.3" d="M1790.52 515.211C1790.52 516.499 1789.55 517.626 1788.27 517.626C1786.98 517.626 1785.85 516.499 1785.85 515.211C1785.85 513.923 1786.98 512.957 1788.27 512.957C1789.55 512.957 1790.52 513.923 1790.52 515.211Z" fill="white"/>
<path opacity="0.3" d="M1900.65 240.056C1900.65 241.344 1899.52 242.471 1898.23 242.471C1896.94 242.471 1895.82 241.344 1895.82 240.056C1895.82 238.768 1896.94 237.802 1898.23 237.802C1899.52 237.802 1900.65 238.768 1900.65 240.056Z" fill="white"/>
<path opacity="0.3" d="M2039.75 202.22C2039.75 203.508 2038.79 204.635 2037.5 204.635C2036.05 204.635 2035.08 203.508 2035.08 202.22C2035.08 200.932 2036.05 199.966 2037.5 199.966C2038.79 199.966 2039.75 200.932 2039.75 202.22Z" fill="white"/>
<path opacity="0.3" d="M1855.57 442.116C1855.57 443.404 1854.6 444.37 1853.31 444.37C1852.02 444.37 1850.9 443.404 1850.9 442.116C1850.9 440.828 1852.02 439.701 1853.31 439.701C1854.6 439.701 1855.57 440.828 1855.57 442.116Z" fill="white"/>
<path opacity="0.3" d="M1375.45 95.3141C1375.45 96.6021 1374.49 97.5681 1373.2 97.5681C1371.91 97.5681 1370.78 96.6021 1370.78 95.3141C1370.78 94.0261 1371.91 92.899 1373.2 92.899C1374.49 92.899 1375.45 94.0261 1375.45 95.3141Z" fill="white"/>
<path opacity="0.5" d="M1243.11 168.571C1243.11 169.859 1242.14 170.986 1240.85 170.986C1239.57 170.986 1238.44 169.859 1238.44 168.571C1238.44 167.283 1239.57 166.317 1240.85 166.317C1242.14 166.317 1243.11 167.283 1243.11 168.571Z" fill="white"/>
<path opacity="0.5" d="M1543.86 214.457C1543.86 215.745 1542.9 216.872 1541.61 216.872C1540.16 216.872 1539.19 215.745 1539.19 214.457C1539.19 213.169 1540.16 212.042 1541.61 212.042C1542.9 212.042 1543.86 213.169 1543.86 214.457Z" fill="white"/>
<path opacity="0.5" d="M941.066 119.143C941.066 120.431 940.1 121.397 938.812 121.397C937.524 121.397 936.396 120.431 936.396 119.143C936.396 117.855 937.524 116.728 938.812 116.728C940.1 116.728 941.066 117.855 941.066 119.143Z" fill="white"/>
<path opacity="0.5" d="M848.327 263.402C848.327 264.69 847.361 265.656 846.073 265.656C844.624 265.656 843.658 264.69 843.658 263.402C843.658 262.114 844.624 260.987 846.073 260.987C847.361 260.987 848.327 262.114 848.327 263.402Z" fill="white"/>
<path d="M1732.56 194.65L1676.69 246.171C1675.56 247.459 1675.56 249.391 1676.69 250.518C1677.98 251.645 1679.91 251.645 1681.04 250.518L1732.56 194.65Z" fill="url(#paint8_linear_184_1294)"/>
<rect opacity="0.5" x="221.368" y="16" width="1920" height="160" fill="url(#paint9_linear_184_1294)"/>
<defs>
<linearGradient id="paint0_linear_184_1294" x1="971231" y1="1.07179e+06" x2="971231" y2="133496" gradientUnits="userSpaceOnUse">
<stop offset="0.2" stop-color="#FFFF91"/>
<stop offset="1" stop-color="#FF7532"/>
</linearGradient>
<linearGradient id="paint1_linear_184_1294" x1="2.06467e+06" y1="70080" x2="2.06467e+06" y2="26246.8" gradientUnits="userSpaceOnUse">
<stop stop-color="#FB4F46" stop-opacity="0.1"/>
<stop offset="1" stop-color="#DF4924" stop-opacity="0.1"/>
</linearGradient>
<linearGradient id="paint2_linear_184_1294" x1="1.7433e+06" y1="75466.5" x2="1.7433e+06" y2="164229" gradientUnits="userSpaceOnUse">
<stop stop-color="#FBA146" stop-opacity="0.1"/>
<stop offset="1" stop-color="#DF4924" stop-opacity="0.05"/>
</linearGradient>
<linearGradient id="paint3_linear_184_1294" x1="1.74674e+06" y1="114435" x2="1.74674e+06" y2="180448" gradientUnits="userSpaceOnUse">
<stop stop-color="#FBE07F" stop-opacity="0"/>
<stop offset="1" stop-color="#DF4924" stop-opacity="0.05"/>
</linearGradient>
<linearGradient id="paint4_linear_184_1294" x1="1.45327e+06" y1="1.00118e+06" x2="1.45327e+06" y2="470312" gradientUnits="userSpaceOnUse">
<stop stop-color="#FBE07F" stop-opacity="0"/>
<stop offset="1" stop-color="#DF4924" stop-opacity="0.05"/>
</linearGradient>
<linearGradient id="paint5_linear_184_1294" x1="2.0222e+06" y1="81455.9" x2="2.0222e+06" y2="128811" gradientUnits="userSpaceOnUse">
<stop stop-color="#FBA146" stop-opacity="0.05"/>
<stop offset="1" stop-color="#DF4924" stop-opacity="0.1"/>
</linearGradient>
<linearGradient id="paint6_linear_184_1294" x1="78119.1" y1="17620.8" x2="141239" y2="17620.8" gradientUnits="userSpaceOnUse">
<stop offset="0.51" stop-color="#F9A65A"/>
<stop offset="1" stop-color="#F9CA69"/>
</linearGradient>
<linearGradient id="paint7_linear_184_1294" x1="818488" y1="86435.6" x2="1.35899e+06" y2="86435.6" gradientUnits="userSpaceOnUse">
<stop offset="0.14" stop-color="#F9E675"/>
<stop offset="0.63" stop-color="#F99749"/>
</linearGradient>
<linearGradient id="paint8_linear_184_1294" x1="61616.3" y1="13993" x2="63612.6" y2="13993" gradientUnits="userSpaceOnUse">
<stop stop-color="white" stop-opacity="0.7"/>
<stop offset="1" stop-color="white" stop-opacity="0.1"/>
</linearGradient>
<linearGradient id="paint9_linear_184_1294" x1="1181.37" y1="16" x2="1181.37" y2="176" gradientUnits="userSpaceOnUse">
<stop stop-color="#281203"/>
<stop offset="1" stop-color="#281203" stop-opacity="0"/>
</linearGradient>
</defs>
</svg>
