<svg width="1920" height="1295" viewBox="0 0 1920 1295" fill="none" xmlns="http://www.w3.org/2000/svg">
<g clip-path="url(#clip0_334_304)">
<g opacity="0.5">
<path d="M2272.09 800.442C2271.93 799.476 2214.13 800.442 2211.07 800.442C2076.47 800.442 1941.93 800.442 1807.44 800.442C1598.88 800.442 1390.38 800.442 1181.94 800.442C960.935 800.442 739.931 800.442 518.926 800.442C423.076 800.442 327.171 800.442 231.213 800.442C186.615 800.442 142.017 797.544 98.546 807.204C23.8403 823.787 -66.9657 808.331 -143.442 806.882C-130.562 750.691 -80.49 709.314 -26.3928 689.671C27.8654 670.19 86.4707 668.097 143.788 663.588C296.741 651.674 447.763 620.6 600.716 609.813C725.172 600.958 850.755 605.627 974.244 587.434C1113.19 567.147 1243.93 512.406 1382.55 493.891C1439.71 486.162 1497.83 485.68 1555.31 489.544C1662.21 496.789 1767.35 519.007 1872.81 537.845C1957.33 552.818 2043.79 566.342 2120.27 605.305C2196.74 644.429 2262.92 714.949 2272.09 800.442Z" fill="url(#paint0_linear_334_304)"/>
<path d="M26.0947 887.642L1441.16 992.777C1519.89 961.382 1575.75 934.816 1583.97 919.521C1616.17 859.305 1426.18 807.784 1426.18 771.397C1426.18 753.043 1450.65 744.671 1463.86 741.451C1436.65 742.256 1409.44 744.188 1382.55 747.891C1329.58 754.975 1279.51 773.007 1227.83 783.312C1110.61 806.496 1004.35 826.944 883.922 808.428C773.473 791.523 668.177 750.789 560.788 719.554C497.835 701.039 432.629 685.743 366.939 689.446C313.969 692.506 262.609 707.962 212.698 725.511C169.549 740.807 124.79 748.857 81.963 765.762C65.8626 772.041 50.0843 778.964 34.3059 786.049L26.0947 887.642Z" fill="url(#paint1_linear_334_304)"/>
<path d="M26.0947 595.642L1441.16 700.777C1519.89 669.382 1575.75 642.816 1583.97 627.521C1616.17 567.305 1426.18 515.784 1426.18 479.397C1426.18 461.043 1450.65 452.671 1463.86 449.451C1436.65 450.256 1409.44 452.188 1382.55 455.891C1329.58 462.975 1279.51 481.007 1227.83 491.312C1110.61 514.496 1004.35 534.944 883.922 516.428C773.473 499.523 668.177 458.789 560.788 427.554C497.835 409.039 432.629 393.743 366.939 397.446C313.969 400.506 262.609 415.962 212.698 433.511C169.549 448.807 124.79 456.857 81.963 473.762C65.8626 480.041 50.0843 486.964 34.3059 494.049L26.0947 595.642Z" fill="#FF9843"/>
</g>
<path d="M-187.88 595.803C-167.164 594.408 -146.502 592.905 -125.893 591.295C-46.4651 584.962 32.856 577.395 112.07 568.593C277.098 550.4 456.94 482.617 602.809 490.829C682.989 495.176 718.731 525.766 797.462 542.35C943.331 572.94 1104.5 580.024 1251.81 558.128C1435.36 530.918 1583.8 516.589 1768.64 532.528C1844.15 538.969 1960.39 546.858 2034.61 563.28C2096.6 576.965 2157.14 603.692 2201.9 648.773C2227.01 674.051 2246.49 705.607 2256.8 739.74C2266.3 771.458 2263.4 803.175 2273.7 834.249C2297.53 907.184 2305.26 994.287 2266.3 1063.52C2230.07 1127.76 2153.92 1156.58 2083.24 1177.51C1935.44 1221.3 1784.25 1252.05 1632.43 1278.14C1109.16 1367.49 554.186 1396.8 63.2857 1194.9C-13.352 1163.34 -88.0577 1126.31 -155.518 1078.17" fill="url(#paint2_linear_334_304)"/>
<g opacity="0.7">
<path d="M185.971 1075.86C277.099 1108.06 377.565 1095.98 471.913 1074.57C545.17 1058.14 618.427 1035.6 680.252 992.777C708.428 973.135 736.12 943.671 731.773 909.699C729.358 890.54 716.961 874.279 703.115 860.754C676.71 835.155 643.382 816.639 607.478 808.106C600.072 806.335 591.056 803.759 588.963 796.353C587.353 790.235 590.895 785.566 596.53 782.507C451.788 776.549 274.845 842.561 112.07 860.593C56.1484 866.819 0.172807 872.4 -55.8564 877.338C-55.8564 899.073 -51.5094 920.809 -39.5951 938.68C-26.0708 959.128 -4.33529 972.33 16.5952 985.049C43.9658 1001.47 71.3364 1017.89 99.19 1033.83C127.044 1049.77 155.541 1065.07 185.971 1075.86Z" fill="#F4A742"/>
<path d="M185.971 783.855C277.099 816.056 377.565 803.981 471.913 782.567C545.17 766.145 618.427 743.604 680.252 700.777C708.428 681.135 736.12 651.671 731.773 617.699C729.358 598.54 716.961 582.279 703.115 568.754C676.71 543.155 643.382 524.639 607.478 516.106C600.072 514.335 591.056 511.759 588.963 504.353C587.353 498.235 590.895 493.566 596.53 490.507C451.788 484.549 274.845 550.561 112.07 568.593C56.1484 574.819 0.172807 580.4 -55.8564 585.338C-55.8564 607.073 -51.5094 628.809 -39.5951 646.68C-26.0708 667.128 -4.33529 680.33 16.5952 693.049C43.9658 709.472 71.3364 725.894 99.19 741.833C127.044 757.773 155.541 773.068 185.971 783.855Z" fill="#FF9843"/>
</g>
<path d="M-173.229 939.002C-142.96 929.825 -115.267 914.369 -83.7107 911.793C-49.8999 909.217 -16.5722 896.658 16.1115 887.642C88.6705 867.57 161.229 847.552 233.788 827.588C268.726 817.927 303.825 808.267 339.729 804.081C382.234 799.251 412.019 849.967 454.524 855.441C610.054 875.245 768.481 887.32 922.401 910.988C1053.3 931.274 1180.17 887.803 1307.84 866.551C1440.35 844.332 1577.52 839.341 1711.96 828.232C1819.83 819.376 1930.93 818.732 2033.33 853.992C2117.53 882.812 2196.42 939.324 2239.57 1018.7C2284.49 1101.45 2316.53 1219.95 2275.64 1309.95C2247.3 1372.42 2186.28 1413.48 2124.29 1442.78C2000.32 1501.55 1862.98 1526.02 1726.77 1543.25C1455.32 1577.38 1180.97 1584.95 907.427 1584.95C559.499 1584.95 205.291 1571.91 -123.318 1457.59C-319.098 1389.65 7.25634 1040.76 -173.229 939.002Z" fill="#F4A13D"/>
<path d="M-173.229 647.002C-142.96 637.825 -115.267 622.369 -83.7107 619.793C-49.8999 617.217 -16.5722 604.658 16.1115 595.642C88.6705 575.57 161.229 555.552 233.788 535.588C268.726 525.927 303.825 516.267 339.729 512.081C382.234 507.251 412.019 557.967 454.524 563.441C610.054 583.245 768.481 595.32 922.401 618.988C1053.3 639.274 1180.17 595.803 1307.84 574.551C1440.35 552.332 1577.52 547.341 1711.96 536.232C1819.83 527.376 1930.93 526.732 2033.33 561.992C2117.53 590.812 2196.42 647.324 2239.57 726.699C2284.49 809.455 2316.53 927.953 2275.64 1017.95C2247.3 1080.42 2186.28 1121.48 2124.29 1150.78C2000.32 1209.55 1862.98 1234.02 1726.77 1251.25C1455.32 1285.38 1180.97 1292.95 907.427 1292.95C559.499 1292.95 205.291 1279.91 -123.318 1165.59C-319.098 1097.65 7.25634 748.756 -173.229 647.002Z" fill="#FF9843"/>
<path d="M12.0869 703.997C12.0869 703.997 396.563 651.832 494.293 609.81C592.183 567.788 698.445 542.35 750.771 542.35C803.259 542.35 968.931 632.512 1111.58 658.594C1232.49 680.813 1478.99 637.664 1696.02 718.005C1913.06 798.346 2228.62 1152.55 2228.62 1152.55L40.1015 1238.69L12.0869 703.997Z" fill="url(#paint3_linear_334_304)"/>
<path d="M390.606 826.36C390.606 826.36 1015.94 725.411 1005 672.28C998.556 641.045 758.017 594.837 734.993 571.975C718.249 555.23 756.246 543.155 756.246 543.155L753.83 542.511C752.864 542.511 751.737 542.35 750.771 542.35C698.445 542.35 592.183 567.788 494.293 609.81C456.618 625.911 376.277 643.782 291.911 659.399L390.606 826.36Z" fill="url(#paint4_linear_334_304)"/>
</g>
<defs>
<linearGradient id="paint0_linear_334_304" x1="155417" y1="195073" x2="3.77945e+06" y2="195073" gradientUnits="userSpaceOnUse">
<stop offset="0.51" stop-color="#F9AC4B"/>
<stop offset="1" stop-color="#F9DA70"/>
</linearGradient>
<linearGradient id="paint1_linear_334_304" x1="265020" y1="171322" x2="1.77956e+06" y2="171322" gradientUnits="userSpaceOnUse">
<stop stop-color="#EDDC69" stop-opacity="0"/>
<stop offset="1" stop-color="#EE8424" stop-opacity="0.4"/>
</linearGradient>
<linearGradient id="paint2_linear_334_304" x1="91128.7" y1="530951" x2="3.91551e+06" y2="530951" gradientUnits="userSpaceOnUse">
<stop offset="0.44" stop-color="#F9B550"/>
<stop offset="1" stop-color="#F9DD85"/>
</linearGradient>
<linearGradient id="paint3_linear_334_304" x1="1.0358e+06" y1="273577" x2="1.8594e+06" y2="1.78706e+06" gradientUnits="userSpaceOnUse">
<stop offset="0.06" stop-color="#F9E185"/>
<stop offset="0.47" stop-color="#FFA23A"/>
</linearGradient>
<linearGradient id="paint4_linear_334_304" x1="242646" y1="237180" x2="303090" y2="85389.5" gradientUnits="userSpaceOnUse">
<stop offset="0.65" stop-color="#EF9D44"/>
<stop offset="0.94" stop-color="#F07B17"/>
</linearGradient>
<clipPath id="clip0_334_304">
<rect width="1920" height="1295" fill="white"/>
</clipPath>
</defs>
</svg>
