<svg width="1920" height="1190" viewBox="0 0 1920 1190" fill="none" xmlns="http://www.w3.org/2000/svg">
<g clip-path="url(#clip0_184_1293)">
<rect width="1920" height="1190" fill="#D9501C"/>
<path d="M1918.83 -0.2146V1190.45H-1.29883V-0.2146H1918.83Z" fill="url(#paint0_linear_184_1293)"/>
<path style="mix-blend-mode:multiply" d="M-158.599 154.351L2343.4 241.849L2320.86 169.012L-223 -15.4998L-158.599 154.351Z" fill="url(#paint1_linear_184_1293)"/>
<path d="M-109.171 476.895C-109.171 462.546 -78.0972 270.08 -78.0972 270.08L2076.29 141.093L2094.32 507.309L-109.171 476.895Z" fill="url(#paint2_linear_184_1293)"/>
<path d="M-83.0883 599.643C-83.947 598.915 -84.7521 598.187 -85.5034 597.459C-120.924 565.329 -133.16 521.658 -135.576 477.051C-135.898 469.252 -139.279 376.607 -145.719 375.983C-9.72437 390.228 126.324 404.525 262.425 418.874C572.518 451.42 882.611 484.018 1192.7 516.667C1342.87 532.472 1493.03 548.277 1643.19 564.082C1704.7 570.528 1766.25 576.975 1827.86 583.422C1915.13 592.624 2002.71 585.293 2081.28 630.681C2089.17 635.36 2097.38 640.819 2100.93 649.085C2106.56 662.81 2096.58 678.719 2083.05 685.426C2069.69 692.132 2053.75 691.976 2038.62 691.665C1796.79 687.297 1555.02 682.982 1313.3 678.719C1199.79 676.691 1085.8 674.508 974.544 653.14C922.218 643.158 869.892 628.809 816.761 631.304C764.757 633.8 715.007 652.36 663.163 656.883C532.75 668.737 407.651 592.312 276.755 598.707C214.124 601.826 154.07 623.662 92.2446 633.644C31.3852 643.314 -37.2023 639.103 -83.0883 599.643Z" fill="url(#paint3_linear_184_1293)"/>
<path d="M-197.239 1149.96C-197.239 1064.8 -190.638 971.063 -177.275 887.308C-157.632 763.78 -152.319 636.666 -142.82 511.266C-142.015 501.908 -140.888 491.614 -133.804 485.22C-127.203 479.293 -117.381 478.513 -108.365 478.045C58.9174 468.843 226.522 459.797 393.805 468.687C450.8 471.65 507.956 483.036 564.791 476.485C622.591 469.623 678.942 452.154 737.387 452.622C767.172 452.934 796.475 457.925 825.939 460.888C896.941 468.063 969.232 463.384 1038.62 447.163C1081.93 437.025 1124.12 422.364 1168.07 415.034C1236.98 403.648 1307.5 410.666 1377.21 411.29C1485.09 412.07 1592.48 397.409 1699.22 382.904C1797.22 369.49 1895.22 356.077 1993.21 342.664C2024.93 338.297 2064.38 337.205 2081.28 363.564C2087.72 373.858 2089.17 386.335 2090.46 398.345C2097.22 466.347 2108.01 539.809 2103.18 608.123C2101.41 632.922 2093.2 654.914 2092.71 680.181C2091.91 718.237 2091.75 756.45 2091.1 794.506C2088.69 941.585 2085.15 1088.82 2081.61 1235.9L-197.239 1149.96Z" fill="url(#paint4_linear_184_1293)"/>
<path style="mix-blend-mode:multiply" opacity="0.5" d="M2311.04 252.14L102.549 519.627L2312 486.718L2311.04 252.14Z" fill="url(#paint5_linear_184_1293)"/>
<g style="mix-blend-mode:multiply" opacity="0.3">
<path d="M427.454 317.959C407.812 318.583 388.008 312.968 371.908 302.05C354.68 290.509 336.487 272.104 316.845 279.123C309.921 281.462 304.608 286.765 298.007 289.417C275.95 298.463 253.248 277.719 229.42 275.068C223.463 274.444 216.378 275.535 213.641 280.682C209.455 288.481 215.573 306.261 201.244 306.885C197.702 307.041 194.321 305.482 190.94 304.546C187.398 303.61 183.373 303.298 180.797 305.638C179.026 307.353 178.382 309.693 177.255 311.876C174.678 316.867 169.687 320.455 164.374 322.326C159.061 324.354 149.562 328.253 143.927 328.877C235.538 327.473 370.942 330.281 462.714 328.877C453.215 321.546 439.529 317.491 427.454 317.959Z" fill="url(#paint6_linear_184_1293)"/>
</g>
<g style="mix-blend-mode:multiply" opacity="0.3">
<path d="M2093.68 458.175C2092.39 441.175 2089.01 424.174 2082.57 408.265C2059.71 351.96 1991.93 309.225 1929.13 324.51C1890.33 333.868 1856.2 360.071 1837.85 394.54C1827.22 414.66 1819.33 439.459 1797.76 447.725C1758.47 462.542 1723.69 407.641 1681.51 409.981C1654.14 411.697 1635.63 436.496 1618.56 457.24C1601.49 478.139 1577.02 494.984 1551.26 485.626C1543.37 482.819 1536.77 477.204 1529.2 473.304C1504.57 460.359 1463.03 463.166 1440.17 478.607C1416.98 494.36 1402.65 536.94 1378.5 545.206C1352.26 554.252 1314.91 541.307 1291.88 541.463C1241.49 542.087 1204.94 547.078 1161.47 567.822C1161.47 567.822 1899.67 567.822 1958.92 567.822C2045.54 567.822 2074.68 538.811 2089.33 503.094C2095.13 489.057 2094.81 473.304 2093.68 458.175Z" fill="url(#paint7_linear_184_1293)"/>
</g>
<path d="M1326.66 390.956C1326.66 392.516 1325.37 393.763 1323.76 393.763C1322.15 393.763 1320.86 392.516 1320.86 390.956C1320.86 389.396 1322.15 388.148 1323.76 388.148C1325.37 388.148 1326.66 389.396 1326.66 390.956Z" fill="white"/>
<path d="M338.58 286.924C338.58 288.484 337.292 289.732 335.682 289.732C334.233 289.732 332.945 288.484 332.945 286.924C332.945 285.365 334.233 284.117 335.682 284.117C337.292 284.117 338.58 285.365 338.58 286.924Z" fill="white"/>
<path d="M1175.48 189.911C1175.48 191.471 1174.19 192.719 1172.58 192.719C1170.97 192.719 1169.68 191.471 1169.68 189.911C1169.68 188.508 1170.97 187.26 1172.58 187.26C1174.19 187.26 1175.48 188.508 1175.48 189.911Z" fill="white"/>
<path d="M54.0873 246.216C54.0873 247.62 52.7992 248.868 51.3502 248.868C49.7402 248.868 48.4521 247.62 48.4521 246.216C48.4521 244.657 49.7402 243.409 51.3502 243.409C52.7992 243.409 54.0873 244.657 54.0873 246.216Z" fill="white"/>
<path d="M777.154 507.309C777.154 508.868 775.866 510.116 774.417 510.116C772.807 510.116 771.519 508.868 771.519 507.309C771.519 505.749 772.807 504.501 774.417 504.501C775.866 504.501 777.154 505.749 777.154 507.309Z" fill="white"/>
<path d="M570.265 102.101C570.265 105.064 567.85 107.404 564.791 107.404C561.893 107.404 559.478 105.064 559.478 102.101C559.478 99.2934 561.893 96.9539 564.791 96.9539C567.85 96.9539 570.265 99.2934 570.265 102.101Z" fill="white"/>
<path d="M1793.41 219.39C1793.41 220.793 1792.12 222.041 1790.67 222.041C1789.06 222.041 1787.77 220.793 1787.77 219.39C1787.77 217.83 1789.06 216.582 1790.67 216.582C1792.12 216.582 1793.41 217.83 1793.41 219.39Z" fill="white"/>
<path d="M927.854 180.397C927.854 181.645 926.888 182.737 925.6 182.737C924.312 182.737 923.185 181.645 923.185 180.397C923.185 179.15 924.312 178.214 925.6 178.214C926.888 178.214 927.854 179.15 927.854 180.397Z" fill="white"/>
<path d="M1452.4 171.351C1452.4 172.599 1451.28 173.691 1449.99 173.691C1448.7 173.691 1447.73 172.599 1447.73 171.351C1447.73 170.104 1448.7 169.012 1449.99 169.012C1451.28 169.012 1452.4 170.104 1452.4 171.351Z" fill="white"/>
<path opacity="0.5" d="M204.303 309.54C204.303 310.788 203.176 311.724 201.888 311.724C200.6 311.724 199.634 310.788 199.634 309.54C199.634 308.292 200.6 307.2 201.888 307.2C203.176 307.2 204.303 308.292 204.303 309.54Z" fill="white"/>
<path opacity="0.5" d="M184.178 414.975C184.178 416.223 183.212 417.315 181.924 417.315C180.475 417.315 179.509 416.223 179.509 414.975C179.509 413.727 180.475 412.792 181.924 412.792C183.212 412.792 184.178 413.727 184.178 414.975Z" fill="white"/>
<path opacity="0.5" d="M287.542 485.941C287.542 487.189 286.576 488.281 285.288 488.281C284 488.281 282.873 487.189 282.873 485.941C282.873 484.693 284 483.602 285.288 483.602C286.576 483.602 287.542 484.693 287.542 485.941Z" fill="white"/>
<path opacity="0.5" d="M1512.78 340.734C1512.78 341.982 1511.65 343.073 1510.36 343.073C1509.08 343.073 1508.11 341.982 1508.11 340.734C1508.11 339.486 1509.08 338.55 1510.36 338.55C1511.65 338.55 1512.78 339.486 1512.78 340.734Z" fill="white"/>
<path opacity="0.5" d="M51.3498 430.416C51.3498 431.664 50.2227 432.6 48.9347 432.6C47.6467 432.6 46.6807 431.664 46.6807 430.416C46.6807 429.168 47.6467 428.076 48.9347 428.076C50.2227 428.076 51.3498 429.168 51.3498 430.416Z" fill="white"/>
<path opacity="0.5" d="M382.373 71.687C382.373 72.9347 381.246 74.0265 379.958 74.0265C378.67 74.0265 377.704 72.9347 377.704 71.687C377.704 70.4392 378.67 69.5034 379.958 69.5034C381.246 69.5034 382.373 70.4392 382.373 71.687Z" fill="white"/>
<path opacity="0.3" d="M204.303 145.616C204.303 146.864 203.176 147.8 201.888 147.8C200.6 147.8 199.634 146.864 199.634 145.616C199.634 144.369 200.6 143.277 201.888 143.277C203.176 143.277 204.303 144.369 204.303 145.616Z" fill="white"/>
<path opacity="0.3" d="M146.181 583.734C146.181 584.981 145.215 586.073 143.927 586.073C142.639 586.073 141.512 584.981 141.512 583.734C141.512 582.486 142.639 581.394 143.927 581.394C145.215 581.394 146.181 582.486 146.181 583.734Z" fill="white"/>
<path opacity="0.3" d="M282.873 152.947C282.873 154.35 281.907 155.286 280.619 155.286C279.331 155.286 278.204 154.35 278.204 152.947C278.204 151.699 279.331 150.763 280.619 150.763C281.907 150.763 282.873 151.699 282.873 152.947Z" fill="white"/>
<path opacity="0.3" d="M661.875 35.6579C661.875 36.9057 660.909 37.9975 659.621 37.9975C658.333 37.9975 657.206 36.9057 657.206 35.6579C657.206 34.4102 658.333 33.4744 659.621 33.4744C660.909 33.4744 661.875 34.4102 661.875 35.6579Z" fill="white"/>
<path opacity="0.5" d="M758.316 145.616C758.316 146.864 757.189 147.8 755.901 147.8C754.613 147.8 753.486 146.864 753.486 145.616C753.486 144.369 754.613 143.277 755.901 143.277C757.189 143.277 758.316 144.369 758.316 145.616Z" fill="white"/>
<path opacity="0.3" d="M1345.17 297.53C1345.17 298.778 1344.21 299.714 1342.92 299.714C1341.63 299.714 1340.5 298.778 1340.5 297.53C1340.5 296.282 1341.63 295.191 1342.92 295.191C1344.21 295.191 1345.17 296.282 1345.17 297.53Z" fill="white"/>
<path opacity="0.3" d="M1896.93 476.895C1896.93 478.142 1895.81 479.078 1894.52 479.078C1893.23 479.078 1892.26 478.142 1892.26 476.895C1892.26 475.647 1893.23 474.555 1894.52 474.555C1895.81 474.555 1896.93 475.647 1896.93 476.895Z" fill="white"/>
<path opacity="0.3" d="M1857.81 37.9975C1857.81 39.2452 1856.68 40.1811 1855.39 40.1811C1854.11 40.1811 1853.14 39.2452 1853.14 37.9975C1853.14 36.7497 1854.11 35.658 1855.39 35.658C1856.68 35.658 1857.81 36.7497 1857.81 37.9975Z" fill="white"/>
<path opacity="0.3" d="M1567.52 483.601C1567.52 484.849 1566.55 485.941 1565.27 485.941C1563.98 485.941 1562.85 484.849 1562.85 483.601C1562.85 482.354 1563.98 481.418 1565.27 481.418C1566.55 481.418 1567.52 482.354 1567.52 483.601Z" fill="white"/>
<path opacity="0.3" d="M1677.65 217.05C1677.65 218.298 1676.52 219.39 1675.23 219.39C1673.94 219.39 1672.82 218.298 1672.82 217.05C1672.82 215.803 1673.94 214.867 1675.23 214.867C1676.52 214.867 1677.65 215.803 1677.65 217.05Z" fill="white"/>
<path opacity="0.3" d="M1816.75 180.397C1816.75 181.645 1815.79 182.737 1814.5 182.737C1813.05 182.737 1812.08 181.645 1812.08 180.397C1812.08 179.15 1813.05 178.214 1814.5 178.214C1815.79 178.214 1816.75 179.15 1816.75 180.397Z" fill="white"/>
<path opacity="0.3" d="M1632.57 412.791C1632.57 414.039 1631.6 414.975 1630.31 414.975C1629.02 414.975 1627.9 414.039 1627.9 412.791C1627.9 411.544 1629.02 410.452 1630.31 410.452C1631.6 410.452 1632.57 411.544 1632.57 412.791Z" fill="white"/>
<path opacity="0.3" d="M1152.45 76.8339C1152.45 78.0817 1151.49 79.0175 1150.2 79.0175C1148.91 79.0175 1147.78 78.0817 1147.78 76.8339C1147.78 75.5862 1148.91 74.4944 1150.2 74.4944C1151.49 74.4944 1152.45 75.5862 1152.45 76.8339Z" fill="white"/>
<path opacity="0.5" d="M1020.11 147.8C1020.11 149.048 1019.14 150.14 1017.85 150.14C1016.57 150.14 1015.44 149.048 1015.44 147.8C1015.44 146.552 1016.57 145.616 1017.85 145.616C1019.14 145.616 1020.11 146.552 1020.11 147.8Z" fill="white"/>
<path opacity="0.5" d="M1320.86 192.251C1320.86 193.499 1319.9 194.59 1318.61 194.59C1317.16 194.59 1316.19 193.499 1316.19 192.251C1316.19 191.003 1317.16 189.911 1318.61 189.911C1319.9 189.911 1320.86 191.003 1320.86 192.251Z" fill="white"/>
<path opacity="0.5" d="M718.066 99.9174C718.066 101.165 717.1 102.101 715.812 102.101C714.524 102.101 713.396 101.165 713.396 99.9174C713.396 98.6697 714.524 97.5779 715.812 97.5779C717.1 97.5779 718.066 98.6697 718.066 99.9174Z" fill="white"/>
<path opacity="0.5" d="M625.327 239.666C625.327 240.913 624.361 241.849 623.073 241.849C621.624 241.849 620.658 240.913 620.658 239.666C620.658 238.418 621.624 237.326 623.073 237.326C624.361 237.326 625.327 238.418 625.327 239.666Z" fill="white"/>
<path d="M1509.56 173.064L1453.69 222.974C1452.56 224.222 1452.56 226.093 1453.69 227.185C1454.98 228.277 1456.91 228.277 1458.04 227.185L1509.56 173.064Z" fill="url(#paint8_linear_184_1293)"/>
<rect opacity="0.5" x="-1.63184" width="1920" height="160" fill="url(#paint9_linear_184_1293)"/>
</g>
<defs>
<linearGradient id="paint0_linear_184_1293" x1="971008" y1="1.03826e+06" x2="971008" y2="129306" gradientUnits="userSpaceOnUse">
<stop offset="0.2" stop-color="#FFFF91"/>
<stop offset="1" stop-color="#FF7532"/>
</linearGradient>
<linearGradient id="paint1_linear_184_1293" x1="2.06444e+06" y1="67873.2" x2="2.06444e+06" y2="25410.6" gradientUnits="userSpaceOnUse">
<stop stop-color="#FB4F46" stop-opacity="0.1"/>
<stop offset="1" stop-color="#DF4924" stop-opacity="0.1"/>
</linearGradient>
<linearGradient id="paint2_linear_184_1293" x1="1.74308e+06" y1="73091.2" x2="1.74308e+06" y2="159079" gradientUnits="userSpaceOnUse">
<stop stop-color="#FBA146" stop-opacity="0.1"/>
<stop offset="1" stop-color="#DF4924" stop-opacity="0.05"/>
</linearGradient>
<linearGradient id="paint3_linear_184_1293" x1="1.74652e+06" y1="110842" x2="1.74652e+06" y2="174790" gradientUnits="userSpaceOnUse">
<stop stop-color="#FBE07F" stop-opacity="0"/>
<stop offset="1" stop-color="#DF4924" stop-opacity="0.05"/>
</linearGradient>
<linearGradient id="paint4_linear_184_1293" x1="1.45305e+06" y1="969862" x2="1.45305e+06" y2="455590" gradientUnits="userSpaceOnUse">
<stop stop-color="#FBE07F" stop-opacity="0"/>
<stop offset="1" stop-color="#DF4924" stop-opacity="0.05"/>
</linearGradient>
<linearGradient id="paint5_linear_184_1293" x1="2.02197e+06" y1="78893.3" x2="2.02197e+06" y2="124767" gradientUnits="userSpaceOnUse">
<stop stop-color="#FBA146" stop-opacity="0.05"/>
<stop offset="1" stop-color="#DF4924" stop-opacity="0.1"/>
</linearGradient>
<linearGradient id="paint6_linear_184_1293" x1="77896.1" y1="17054.3" x2="141016" y2="17054.3" gradientUnits="userSpaceOnUse">
<stop offset="0.51" stop-color="#F9A65A"/>
<stop offset="1" stop-color="#F9CA69"/>
</linearGradient>
<linearGradient id="paint7_linear_184_1293" x1="818265" y1="83717.4" x2="1.35877e+06" y2="83717.4" gradientUnits="userSpaceOnUse">
<stop offset="0.14" stop-color="#F9E675"/>
<stop offset="0.63" stop-color="#F99749"/>
</linearGradient>
<linearGradient id="paint8_linear_184_1293" x1="61393.3" y1="13540" x2="63389.6" y2="13540" gradientUnits="userSpaceOnUse">
<stop stop-color="white" stop-opacity="0.7"/>
<stop offset="1" stop-color="white" stop-opacity="0.1"/>
</linearGradient>
<linearGradient id="paint9_linear_184_1293" x1="958.368" y1="0" x2="958.368" y2="160" gradientUnits="userSpaceOnUse">
<stop stop-color="#281203"/>
<stop offset="1" stop-color="#281203" stop-opacity="0"/>
</linearGradient>
<clipPath id="clip0_184_1293">
<rect width="1920" height="1190" fill="white"/>
</clipPath>
</defs>
</svg>
