<svg width="1920" height="1204" viewBox="0 0 1920 1204" fill="none" xmlns="http://www.w3.org/2000/svg">
<path d="M1922.83 -25.2217V1203.88H2.70215V-25.2217H1922.83Z" fill="url(#paint0_linear_652_568)"/>
<path style="mix-blend-mode:multiply" d="M-154.599 134.333L2347.4 224.656L2324.86 149.467L-219 -41L-154.599 134.333Z" fill="url(#paint1_linear_652_568)"/>
<path d="M-105.171 467.288C-105.171 452.476 -74.0972 253.797 -74.0972 253.797L2080.29 120.647L2098.32 498.684L-105.171 467.288Z" fill="url(#paint2_linear_652_568)"/>
<path d="M-79.0883 593.998C-79.947 593.247 -80.7521 592.496 -81.5034 591.744C-116.924 558.577 -129.16 513.497 -131.576 467.449C-131.898 459.399 -135.279 363.763 -141.719 363.119C-5.72437 377.824 130.324 392.583 266.425 407.395C576.518 440.991 886.611 474.641 1196.7 508.344C1346.87 524.659 1497.03 540.974 1647.19 557.289C1708.7 563.944 1770.25 570.599 1831.86 577.254C1919.13 586.753 2006.71 579.186 2085.28 626.038C2093.17 630.868 2101.38 636.503 2104.93 645.036C2110.56 659.205 2100.58 675.627 2087.05 682.55C2073.69 689.473 2057.75 689.312 2042.62 688.99C1800.79 684.482 1559.02 680.028 1317.3 675.627C1203.79 673.534 1089.8 671.28 978.544 649.223C926.218 638.918 873.892 624.106 820.761 626.682C768.757 629.258 719.007 648.418 667.163 653.087C536.75 665.323 411.651 586.431 280.755 593.032C218.124 596.252 158.07 618.793 96.2446 629.097C35.3852 639.079 -33.2023 634.732 -79.0883 593.998Z" fill="url(#paint3_linear_652_568)"/>
<path d="M-193.239 1162.08C-193.239 1074.17 -186.638 977.408 -173.275 890.949C-153.632 763.434 -148.319 632.216 -138.82 502.769C-138.015 493.109 -136.888 482.483 -129.804 475.882C-123.203 469.764 -113.381 468.958 -104.365 468.475C62.9174 458.976 230.522 449.638 397.805 458.815C454.8 461.874 511.956 473.628 568.791 466.865C626.591 459.781 682.942 441.749 741.387 442.232C771.172 442.554 800.475 447.706 829.939 450.765C900.941 458.171 973.232 453.341 1042.62 436.597C1085.93 426.131 1128.12 410.997 1172.07 403.43C1240.98 391.677 1311.5 398.922 1381.21 399.566C1489.09 400.371 1596.48 385.237 1703.22 370.263C1801.22 356.417 1899.22 342.571 1997.21 328.724C2028.93 324.216 2068.38 323.089 2085.28 350.299C2091.72 360.925 2093.17 373.805 2094.46 386.203C2101.22 456.4 2112.01 532.233 2107.18 602.752C2105.41 628.352 2097.2 651.054 2096.71 677.136C2095.91 716.421 2095.75 755.867 2095.1 795.152C2092.69 946.978 2089.15 1098.97 2085.61 1250.79L-193.239 1162.08Z" fill="url(#paint4_linear_652_568)"/>
<path style="mix-blend-mode:multiply" opacity="0.5" d="M2315.04 235.279L106.549 511.4L2316 477.428L2315.04 235.279Z" fill="url(#paint5_linear_652_568)"/>
<g style="mix-blend-mode:multiply" opacity="0.3">
<path d="M2097.68 447.965C2096.39 430.415 2093.01 412.866 2086.57 396.444C2063.71 338.321 1995.93 294.206 1933.13 309.985C1894.33 319.645 1860.2 346.693 1841.85 382.275C1831.22 403.045 1823.33 428.644 1801.76 437.177C1762.47 452.473 1727.69 395.8 1685.51 398.215C1658.14 399.986 1639.63 425.585 1622.56 446.999C1605.49 468.573 1581.02 485.962 1555.26 476.301C1547.37 473.403 1540.77 467.607 1533.2 463.582C1508.57 450.219 1467.03 453.117 1444.17 469.056C1420.98 485.318 1406.65 529.271 1382.5 537.805C1356.26 547.143 1318.91 533.78 1295.88 533.941C1245.49 534.585 1208.94 539.737 1165.47 561.15C1165.47 561.15 1903.67 561.15 1962.92 561.15C2049.54 561.15 2078.68 531.204 2093.33 494.334C2099.13 479.843 2098.81 463.582 2097.68 447.965Z" fill="url(#paint6_linear_652_568)"/>
</g>
<path d="M1330.66 378.575C1330.66 380.185 1329.37 381.473 1327.76 381.473C1326.15 381.473 1324.86 380.185 1324.86 378.575C1324.86 376.965 1326.15 375.677 1327.76 375.677C1329.37 375.677 1330.66 376.965 1330.66 378.575Z" fill="white"/>
<path d="M342.58 271.186C342.58 272.796 341.292 274.084 339.682 274.084C338.233 274.084 336.945 272.796 336.945 271.186C336.945 269.576 338.233 268.288 339.682 268.288C341.292 268.288 342.58 269.576 342.58 271.186Z" fill="white"/>
<path d="M1179.48 171.042C1179.48 172.652 1178.19 173.94 1176.58 173.94C1174.97 173.94 1173.68 172.652 1173.68 171.042C1173.68 169.593 1174.97 168.305 1176.58 168.305C1178.19 168.305 1179.48 169.593 1179.48 171.042Z" fill="white"/>
<path d="M58.0873 229.164C58.0873 230.613 56.7992 231.901 55.3502 231.901C53.7402 231.901 52.4521 230.613 52.4521 229.164C52.4521 227.554 53.7402 226.266 55.3502 226.266C56.7992 226.266 58.0873 227.554 58.0873 229.164Z" fill="white"/>
<path d="M781.155 498.684C781.155 500.294 779.867 501.582 778.418 501.582C776.808 501.582 775.52 500.294 775.52 498.684C775.52 497.074 776.808 495.786 778.418 495.786C779.867 495.786 781.155 497.074 781.155 498.684Z" fill="white"/>
<path d="M574.265 80.3966C574.265 83.4557 571.85 85.8708 568.791 85.8708C565.893 85.8708 563.478 83.4557 563.478 80.3966C563.478 77.4986 565.893 75.0835 568.791 75.0835C571.85 75.0835 574.265 77.4986 574.265 80.3966Z" fill="white"/>
<path d="M1797.41 201.471C1797.41 202.92 1796.12 204.208 1794.67 204.208C1793.06 204.208 1791.77 202.92 1791.77 201.471C1791.77 199.861 1793.06 198.573 1794.67 198.573C1796.12 198.573 1797.41 199.861 1797.41 201.471Z" fill="white"/>
<path d="M931.855 161.22C931.855 162.508 930.889 163.635 929.601 163.635C928.313 163.635 927.186 162.508 927.186 161.22C927.186 159.932 928.313 158.966 929.601 158.966C930.889 158.966 931.855 159.932 931.855 161.22Z" fill="white"/>
<path d="M1456.4 151.882C1456.4 153.17 1455.28 154.297 1453.99 154.297C1452.7 154.297 1451.73 153.17 1451.73 151.882C1451.73 150.594 1452.7 149.467 1453.99 149.467C1455.28 149.467 1456.4 150.594 1456.4 151.882Z" fill="white"/>
<path opacity="0.5" d="M208.303 294.531C208.303 295.819 207.176 296.785 205.888 296.785C204.6 296.785 203.634 295.819 203.634 294.531C203.634 293.243 204.6 292.116 205.888 292.116C207.176 292.116 208.303 293.243 208.303 294.531Z" fill="white"/>
<path opacity="0.5" d="M188.178 403.37C188.178 404.658 187.212 405.785 185.924 405.785C184.475 405.785 183.509 404.658 183.509 403.37C183.509 402.082 184.475 401.116 185.924 401.116C187.212 401.116 188.178 402.082 188.178 403.37Z" fill="white"/>
<path opacity="0.5" d="M291.542 476.626C291.542 477.915 290.576 479.042 289.288 479.042C288 479.042 286.873 477.915 286.873 476.626C286.873 475.338 288 474.211 289.288 474.211C290.576 474.211 291.542 475.338 291.542 476.626Z" fill="white"/>
<path opacity="0.5" d="M1516.78 326.732C1516.78 328.02 1515.65 329.147 1514.36 329.147C1513.08 329.147 1512.11 328.02 1512.11 326.732C1512.11 325.444 1513.08 324.478 1514.36 324.478C1515.65 324.478 1516.78 325.444 1516.78 326.732Z" fill="white"/>
<path opacity="0.5" d="M55.3498 419.309C55.3498 420.597 54.2227 421.563 52.9347 421.563C51.6467 421.563 50.6807 420.597 50.6807 419.309C50.6807 418.021 51.6467 416.894 52.9347 416.894C54.2227 416.894 55.3498 418.021 55.3498 419.309Z" fill="white"/>
<path opacity="0.5" d="M386.373 49.0011C386.373 50.2891 385.246 51.4162 383.958 51.4162C382.67 51.4162 381.704 50.2891 381.704 49.0011C381.704 47.7131 382.67 46.7471 383.958 46.7471C385.246 46.7471 386.373 47.7131 386.373 49.0011Z" fill="white"/>
<path opacity="0.3" d="M208.303 125.316C208.303 126.604 207.176 127.57 205.888 127.57C204.6 127.57 203.634 126.604 203.634 125.316C203.634 124.028 204.6 122.901 205.888 122.901C207.176 122.901 208.303 124.028 208.303 125.316Z" fill="white"/>
<path opacity="0.3" d="M150.181 577.575C150.181 578.863 149.215 579.991 147.927 579.991C146.639 579.991 145.512 578.863 145.512 577.575C145.512 576.287 146.639 575.16 147.927 575.16C149.215 575.16 150.181 576.287 150.181 577.575Z" fill="white"/>
<path opacity="0.3" d="M286.873 132.884C286.873 134.333 285.907 135.299 284.619 135.299C283.331 135.299 282.204 134.333 282.204 132.884C282.204 131.596 283.331 130.63 284.619 130.63C285.907 130.63 286.873 131.596 286.873 132.884Z" fill="white"/>
<path opacity="0.3" d="M665.876 11.8088C665.876 13.0968 664.91 14.2238 663.622 14.2238C662.334 14.2238 661.207 13.0968 661.207 11.8088C661.207 10.5207 662.334 9.55469 663.622 9.55469C664.91 9.55469 665.876 10.5207 665.876 11.8088Z" fill="white"/>
<path opacity="0.5" d="M762.317 125.316C762.317 126.604 761.19 127.57 759.902 127.57C758.614 127.57 757.487 126.604 757.487 125.316C757.487 124.028 758.614 122.901 759.902 122.901C761.19 122.901 762.317 124.028 762.317 125.316Z" fill="white"/>
<path opacity="0.3" d="M1349.17 282.134C1349.17 283.422 1348.21 284.388 1346.92 284.388C1345.63 284.388 1344.5 283.422 1344.5 282.134C1344.5 280.846 1345.63 279.719 1346.92 279.719C1348.21 279.719 1349.17 280.846 1349.17 282.134Z" fill="white"/>
<path opacity="0.3" d="M1900.93 467.288C1900.93 468.576 1899.81 469.542 1898.52 469.542C1897.23 469.542 1896.26 468.576 1896.26 467.288C1896.26 466 1897.23 464.873 1898.52 464.873C1899.81 464.873 1900.93 466 1900.93 467.288Z" fill="white"/>
<path opacity="0.3" d="M1861.81 14.2241C1861.81 15.5122 1860.68 16.4782 1859.39 16.4782C1858.11 16.4782 1857.14 15.5122 1857.14 14.2241C1857.14 12.9361 1858.11 11.8091 1859.39 11.8091C1860.68 11.8091 1861.81 12.9361 1861.81 14.2241Z" fill="white"/>
<path opacity="0.3" d="M1571.52 474.211C1571.52 475.499 1570.55 476.626 1569.27 476.626C1567.98 476.626 1566.85 475.499 1566.85 474.211C1566.85 472.923 1567.98 471.957 1569.27 471.957C1570.55 471.957 1571.52 472.923 1571.52 474.211Z" fill="white"/>
<path opacity="0.3" d="M1681.65 199.056C1681.65 200.344 1680.52 201.471 1679.23 201.471C1677.94 201.471 1676.82 200.344 1676.82 199.056C1676.82 197.768 1677.94 196.802 1679.23 196.802C1680.52 196.802 1681.65 197.768 1681.65 199.056Z" fill="white"/>
<path opacity="0.3" d="M1820.75 161.22C1820.75 162.508 1819.79 163.635 1818.5 163.635C1817.05 163.635 1816.08 162.508 1816.08 161.22C1816.08 159.932 1817.05 158.966 1818.5 158.966C1819.79 158.966 1820.75 159.932 1820.75 161.22Z" fill="white"/>
<path opacity="0.3" d="M1636.57 401.116C1636.57 402.404 1635.6 403.37 1634.31 403.37C1633.02 403.37 1631.9 402.404 1631.9 401.116C1631.9 399.828 1633.02 398.701 1634.31 398.701C1635.6 398.701 1636.57 399.828 1636.57 401.116Z" fill="white"/>
<path opacity="0.3" d="M1156.45 54.314C1156.45 55.602 1155.49 56.568 1154.2 56.568C1152.91 56.568 1151.79 55.602 1151.79 54.314C1151.79 53.026 1152.91 51.8989 1154.2 51.8989C1155.49 51.8989 1156.45 53.026 1156.45 54.314Z" fill="white"/>
<path opacity="0.5" d="M1024.11 127.571C1024.11 128.859 1023.14 129.986 1021.86 129.986C1020.57 129.986 1019.44 128.859 1019.44 127.571C1019.44 126.283 1020.57 125.317 1021.86 125.317C1023.14 125.317 1024.11 126.283 1024.11 127.571Z" fill="white"/>
<path opacity="0.5" d="M1324.86 173.457C1324.86 174.745 1323.9 175.872 1322.61 175.872C1321.16 175.872 1320.2 174.745 1320.2 173.457C1320.2 172.169 1321.16 171.042 1322.61 171.042C1323.9 171.042 1324.86 172.169 1324.86 173.457Z" fill="white"/>
<path opacity="0.5" d="M722.066 78.1426C722.066 79.4306 721.1 80.3966 719.812 80.3966C718.524 80.3966 717.396 79.4306 717.396 78.1426C717.396 76.8546 718.524 75.7275 719.812 75.7275C721.1 75.7275 722.066 76.8546 722.066 78.1426Z" fill="white"/>
<path opacity="0.5" d="M629.328 222.402C629.328 223.69 628.362 224.656 627.074 224.656C625.625 224.656 624.659 223.69 624.659 222.402C624.659 221.114 625.625 219.987 627.074 219.987C628.362 219.987 629.328 221.114 629.328 222.402Z" fill="white"/>
<path d="M1816.08 367.36L1737.03 440.455C1735.26 442.066 1735.26 444.803 1737.03 446.413C1738.64 448.184 1741.38 448.184 1742.99 446.413L1816.08 367.36Z" fill="url(#paint7_linear_652_568)"/>
<path d="M1619.08 144L1563.21 195.521C1562.09 196.809 1562.09 198.741 1563.21 199.868C1564.5 200.995 1566.43 200.995 1567.56 199.868L1619.08 144Z" fill="url(#paint8_linear_652_568)"/>
<path d="M361.082 168L305.213 219.521C304.086 220.809 304.086 222.741 305.213 223.868C306.34 224.995 308.273 224.995 309.561 223.868L361.082 168Z" fill="url(#paint9_linear_652_568)"/>
<rect opacity="0.5" x="2.36816" y="-22" width="1920" height="160" fill="url(#paint10_linear_652_568)"/>
<defs>
<linearGradient id="paint0_linear_652_568" x1="971012" y1="1.07175e+06" x2="971012" y2="133455" gradientUnits="userSpaceOnUse">
<stop offset="0.2" stop-color="#FFFF91"/>
<stop offset="1" stop-color="#FF7532"/>
</linearGradient>
<linearGradient id="paint1_linear_652_568" x1="2.06445e+06" y1="70039" x2="2.06445e+06" y2="26205.8" gradientUnits="userSpaceOnUse">
<stop stop-color="#FB4F46" stop-opacity="0.1"/>
<stop offset="1" stop-color="#DF4924" stop-opacity="0.1"/>
</linearGradient>
<linearGradient id="paint2_linear_652_568" x1="1.74308e+06" y1="75425.5" x2="1.74308e+06" y2="164188" gradientUnits="userSpaceOnUse">
<stop stop-color="#FBA146" stop-opacity="0.1"/>
<stop offset="1" stop-color="#DF4924" stop-opacity="0.05"/>
</linearGradient>
<linearGradient id="paint3_linear_652_568" x1="1.74652e+06" y1="114394" x2="1.74652e+06" y2="180407" gradientUnits="userSpaceOnUse">
<stop stop-color="#FBE07F" stop-opacity="0"/>
<stop offset="1" stop-color="#DF4924" stop-opacity="0.05"/>
</linearGradient>
<linearGradient id="paint4_linear_652_568" x1="1.45305e+06" y1="1.00114e+06" x2="1.45305e+06" y2="470271" gradientUnits="userSpaceOnUse">
<stop stop-color="#FBE07F" stop-opacity="0"/>
<stop offset="1" stop-color="#DF4924" stop-opacity="0.05"/>
</linearGradient>
<linearGradient id="paint5_linear_652_568" x1="2.02198e+06" y1="81414.9" x2="2.02198e+06" y2="128770" gradientUnits="userSpaceOnUse">
<stop stop-color="#FBA146" stop-opacity="0.05"/>
<stop offset="1" stop-color="#DF4924" stop-opacity="0.1"/>
</linearGradient>
<linearGradient id="paint6_linear_652_568" x1="818269" y1="86394.6" x2="1.35877e+06" y2="86394.6" gradientUnits="userSpaceOnUse">
<stop offset="0.14" stop-color="#F9E675"/>
<stop offset="0.63" stop-color="#F99749"/>
</linearGradient>
<linearGradient id="paint7_linear_652_568" x1="100612" y1="26250.1" x2="104623" y2="26250.1" gradientUnits="userSpaceOnUse">
<stop stop-color="white"/>
<stop offset="1" stop-color="white" stop-opacity="0.1"/>
</linearGradient>
<linearGradient id="paint8_linear_652_568" x1="61502.8" y1="13942.4" x2="63499.1" y2="13942.4" gradientUnits="userSpaceOnUse">
<stop stop-color="white" stop-opacity="0.7"/>
<stop offset="1" stop-color="white" stop-opacity="0.1"/>
</linearGradient>
<linearGradient id="paint9_linear_652_568" x1="14136.8" y1="14964.6" x2="16133.1" y2="14964.6" gradientUnits="userSpaceOnUse">
<stop stop-color="white" stop-opacity="0.7"/>
<stop offset="1" stop-color="white" stop-opacity="0.1"/>
</linearGradient>
<linearGradient id="paint10_linear_652_568" x1="962.368" y1="-22" x2="962.368" y2="138" gradientUnits="userSpaceOnUse">
<stop stop-color="#281203"/>
<stop offset="1" stop-color="#281203" stop-opacity="0"/>
</linearGradient>
</defs>
</svg>
