<svg width="368" height="125" viewBox="0 0 368 125" fill="none" xmlns="http://www.w3.org/2000/svg">
<g style="mix-blend-mode:multiply">
<path fill-rule="evenodd" clip-rule="evenodd" d="M155.472 103.294C157.618 103.509 159.765 103.777 161.912 104.099C164.005 104.26 166.098 104.743 168.03 104.743C169.479 104.904 170.767 104.582 172.055 104.099C172.27 103.992 172.431 103.885 172.538 103.777C172.699 103.616 172.538 103.294 172.377 102.972C172.216 102.811 171.894 102.65 171.572 102.65C170.123 102.006 168.674 102.167 167.064 102.006C162.234 101.362 157.565 99.9132 153.218 97.6592C158.048 95.8882 163.522 95.8882 168.513 97.0152C170.123 97.3372 171.411 97.8203 172.699 98.6253C174.094 99.484 175.49 100.235 176.885 100.879C177.368 101.04 177.69 101.201 178.173 101.362C178.656 101.362 179.3 101.362 179.783 101.201C180.642 101.094 181.501 100.933 182.359 100.718C182.52 100.718 182.681 100.718 182.681 100.557C183.003 100.235 182.842 99.9133 182.52 99.7523C182.198 99.2693 181.715 99.1083 181.232 98.9473C178.978 97.9813 176.724 97.1762 174.631 96.0492C172.699 94.9221 170.606 93.9561 169.157 92.3461C175.168 91.4874 181.179 91.1117 187.189 91.2191C188.799 91.2191 190.409 91.3801 191.859 91.8631C193.952 92.6681 195.401 94.2781 197.011 95.5662C197.762 96.2102 198.567 96.7469 199.426 97.1762C200.392 97.6592 201.197 98.4643 202.324 98.6253C202.968 98.7863 203.773 98.7862 204.417 98.7862C205.168 98.6789 205.92 98.5715 206.671 98.4642C206.886 98.4642 207.1 98.4642 207.315 98.4642C207.529 98.5715 207.744 98.6789 207.959 98.7862C208.603 98.9472 209.569 98.9472 210.374 98.7862C212.145 98.6252 213.916 98.3032 215.204 97.1762C215.365 97.1762 215.526 97.0152 215.526 96.6932C215.526 96.5322 215.365 96.3712 215.204 96.2102C213.594 95.1369 211.877 94.2781 210.052 93.6341C209.086 93.3121 207.959 93.1511 206.993 92.6681C206.188 92.1851 205.383 91.5411 204.739 90.8971C203.29 89.9311 201.68 89.1261 200.231 88.16C199.587 87.838 198.943 87.355 198.299 87.194C197.816 87.033 197.333 87.033 196.689 86.872C192.181 85.423 188.799 84.6179 184.452 82.2029C179.944 79.6268 175.114 77.3728 169.801 76.0848C157.082 73.0257 143.879 77.0507 130.999 79.1438C121.178 80.5928 110.874 81.2368 102.179 85.906C101.696 86.067 101.214 86.389 100.891 86.872C100.408 87.9991 101.696 89.1261 102.662 89.7701C109.908 93.9562 117.314 96.6932 124.881 98.4642C134.702 100.879 145.006 102.006 155.472 103.294ZM351.574 63.6875C352.325 64.0095 353.077 64.2778 353.828 64.4925C354.794 64.8145 355.599 65.1365 356.565 65.6195C357.048 65.9415 358.175 66.7465 358.819 67.0685C360.429 67.8735 361.556 67.2296 363.166 66.9075C363.488 66.9075 363.81 66.7465 364.132 66.5855C364.454 66.4245 364.615 66.1025 364.615 65.7805C364.454 65.2975 364.132 65.1365 363.81 64.9755C363.274 64.6535 362.791 64.3315 362.361 64.0095C361.61 63.5802 360.805 63.1508 359.946 62.7215C357.209 61.4335 354.15 60.7895 351.091 60.3064C348.193 59.8234 345.456 59.3403 342.719 59.0183C342.075 58.8573 341.27 59.0184 340.626 58.6964C340.304 58.6964 339.982 58.3744 339.499 58.3744C338.05 57.8914 336.601 57.7304 335.152 57.5694C328.55 56.2813 321.949 54.9933 315.348 54.5103L296.833 61.7554C304.561 62.8824 334.669 68.0346 342.397 69.1616C343.202 69.3226 343.846 69.3226 344.651 69.6446C345.617 69.9666 346.422 70.1277 347.388 69.9667C348.032 69.9667 348.515 69.8056 349.159 69.6446C350.232 69.43 351.359 69.1616 352.54 68.8396C352.54 68.8396 352.701 68.8396 352.701 68.6785C352.701 68.5712 352.647 68.5176 352.54 68.5176C351.896 68.0346 350.769 68.1956 350.125 67.7126C349.32 67.3906 348.998 66.5856 348.515 65.9416C348.032 65.6196 347.388 65.2975 347.066 64.8145C346.744 64.3852 346.529 63.9021 346.422 63.3655C346.422 63.2581 346.476 63.0971 346.583 62.8825C346.583 62.7215 346.744 62.7215 347.066 62.7215C347.71 62.5605 348.354 62.7215 348.998 62.8825C349.857 63.2045 350.715 63.4728 351.574 63.6875ZM293.774 77.6948C295.706 78.1778 297.477 79.1439 299.409 79.6269C300.858 79.9489 302.468 79.9488 304.078 79.9488C304.722 79.9488 305.366 79.9488 306.01 79.7878C306.815 79.6268 307.62 79.4658 308.264 79.1438C308.908 78.9828 309.391 78.8219 309.874 78.8219C310.357 78.8219 310.84 78.8219 311.484 78.8219C312.128 78.8219 312.611 78.6608 313.255 78.4998C314.758 78.1778 316.207 77.8021 317.602 77.3728C317.924 77.3728 318.246 77.2118 318.246 76.8898C318.407 76.5678 318.085 76.4067 317.763 76.2457C317.012 75.9237 316.314 75.548 315.67 75.1187C314.543 74.6357 313.577 74.1527 312.45 73.8307C308.908 72.5427 305.044 72.2207 301.341 71.2547C297.799 70.4496 294.579 68.8396 291.037 67.7126C265.437 58.6964 234.041 60.6284 208.281 68.1956C207.315 68.3566 206.349 68.6785 205.705 69.4836C204.417 70.9326 204.9 73.1867 206.027 74.6357C208.12 77.2118 211.501 78.3388 214.56 79.1438C220.034 80.7538 225.347 82.3639 230.66 83.9739C235.007 85.1009 239.194 84.9399 243.541 85.906C245.365 86.3353 247.244 86.711 249.176 87.033C250.947 87.355 252.557 87.194 254.167 87.838C254.811 88.0527 255.401 88.2674 255.938 88.4821C256.26 88.6967 256.582 88.8577 256.904 88.9651C257.548 89.1261 258.192 89.126 258.836 89.126C260.446 88.9114 262.056 88.7504 263.666 88.643C263.774 88.643 263.827 88.5894 263.827 88.4821C264.149 88.3211 263.827 87.838 263.505 87.838C261.573 86.711 259.158 86.5499 257.065 85.5839C255.616 85.1009 254.328 84.2959 252.718 83.8129C251.913 83.6519 250.947 83.491 250.464 82.8469C251.43 82.5249 252.235 82.3639 253.201 82.2029C254.704 82.0956 256.206 81.9882 257.709 81.8809C258.836 81.7199 259.963 81.5589 260.929 81.8809C262.056 82.0419 263.022 82.6859 264.149 83.0079C265.115 83.4909 266.242 83.6519 267.208 84.135C268.013 84.618 268.657 85.262 269.301 85.745C269.516 85.9597 269.784 86.067 270.106 86.067C270.428 86.228 270.75 86.067 271.072 86.067C273.004 85.745 274.883 85.3693 276.707 84.94C277.029 84.779 277.512 84.6179 277.834 84.2959C277.834 84.1886 277.834 84.0812 277.834 83.9739C277.834 83.8129 277.673 83.652 277.673 83.652C275.902 82.2029 273.648 82.2029 271.555 81.5588C270.106 81.2368 268.818 80.5928 267.369 80.2708C265.974 79.8415 264.525 79.4658 263.022 79.1438C269.784 78.1778 276.546 77.6948 283.47 77.2118C286.851 77.0508 290.393 76.7288 293.774 77.6948ZM106.205 113.116C108.137 113.599 109.908 114.565 111.84 115.048C113.289 115.37 114.899 115.37 116.509 115.37C117.153 115.37 117.797 115.37 118.441 115.209C119.246 115.048 120.051 114.887 120.695 114.565C121.339 114.404 121.822 114.243 122.305 114.243C122.788 114.243 123.271 114.243 123.915 114.243C124.559 114.243 125.042 114.082 125.686 113.921C127.189 113.599 128.638 113.223 130.033 112.794C130.355 112.794 130.677 112.633 130.677 112.311C130.838 111.989 130.516 111.828 130.194 111.667C129.443 111.345 128.745 110.969 128.101 110.539C126.974 110.056 126.008 109.573 124.881 109.251C121.339 107.963 117.475 107.641 113.772 106.675C109.586 105.709 105.561 104.099 101.374 103.455C99.9255 103.294 86.4011 100.557 93.4853 97.9812C94.4513 97.6592 95.4174 97.6593 96.3834 97.3373C100.57 95.8882 101.213 89.7701 99.7645 86.228C98.1544 82.3639 95.9004 82.2029 92.0363 82.5249C82.0541 83.6519 72.8769 87.516 63.0556 89.126C52.5904 90.8971 42.1251 91.2191 31.8209 94.1172C21.6777 97.1763 11.0514 99.1082 0.908203 102.006C12.6615 111.989 28.6008 115.209 43.0912 119.395C47.4383 120.522 51.6244 120.361 55.9715 121.327C57.7962 121.756 59.6745 122.132 61.6066 122.454C63.3776 122.776 64.9877 122.615 66.5977 123.259C67.2418 123.473 67.8321 123.688 68.3687 123.903C68.6908 124.118 69.0127 124.279 69.3347 124.386C69.9787 124.547 70.6228 124.547 71.2668 124.547C72.8768 124.332 74.4869 124.171 76.0969 124.064C76.2042 124.064 76.258 124.01 76.258 123.903C76.58 123.742 76.2579 123.259 75.9359 123.259C74.0039 122.132 71.5888 121.971 69.4958 121.005C68.0468 120.522 66.7587 119.717 65.1487 119.234C64.3437 119.073 63.3776 118.912 62.8946 118.268C63.8606 117.946 64.6656 117.785 65.6317 117.624C67.1344 117.516 68.637 117.409 70.1397 117.302C71.2668 117.141 72.3938 116.98 73.3598 117.302C74.4868 117.463 75.4529 118.107 76.5799 118.429C77.5459 118.912 78.673 119.073 79.639 119.556C80.444 120.039 81.088 120.683 81.732 121.166C81.9467 121.38 82.215 121.488 82.537 121.488C82.859 121.649 83.1811 121.488 83.5031 121.488C85.4352 121.166 87.3135 120.79 89.1383 120.361C89.4603 120.2 89.9432 120.039 90.2652 119.717C90.2652 119.609 90.2652 119.502 90.2652 119.395C90.2652 119.234 90.1042 119.073 90.1042 119.073C88.3332 117.624 86.0792 117.624 83.9861 116.98C82.5371 116.658 81.249 116.014 79.8 115.692C78.4046 115.262 76.9556 114.887 75.4529 114.565C82.2151 113.599 88.9772 113.116 95.9003 112.633C99.2814 112.472 102.824 112.15 106.205 113.116Z" fill="#F9BB5A"/>
</g>
<path d="M180.265 73.9919C180.265 73.9919 174.469 85.5842 174.308 87.3552C174.147 88.9652 178.494 97.4984 178.816 97.3374C179.299 97.3374 183.002 97.6594 183.324 100.718L178.172 101.363L176.24 99.4305L169.961 88.6432L171.893 66.2637L179.782 68.3568L180.265 73.9919Z" fill="#7C3A15"/>
<path d="M206.187 70.1279C206.294 70.3425 206.402 70.5572 206.509 70.7719C207.636 72.704 208.119 75.2799 208.763 77.534C210.159 81.9348 211.178 86.3893 211.822 90.8974C212.144 92.3464 212.466 93.9564 213.593 94.6004C214.72 95.2444 216.491 95.0834 216.813 96.2105C215.364 97.4985 213.432 98.3035 211.5 98.3035C211.178 98.3035 211.017 98.3035 210.695 98.1425C210.212 97.8205 210.051 97.1765 210.051 96.5325C209.407 89.9313 207.153 83.4911 203.45 77.856C202.645 76.407 199.586 73.992 200.23 72.0599C200.713 70.7719 202.645 69.3228 203.611 68.1958C204.738 68.8398 205.543 69.3228 206.187 70.1279Z" fill="#7C3A15"/>
<path d="M233.558 24.4029C236.617 23.2759 238.388 22.9539 238.066 20.2169C237.905 18.1238 235.168 19.2508 233.88 19.4118C230.821 19.8948 229.05 19.8948 225.991 18.7678C224.381 18.1238 222.449 17.6408 220.839 18.6068C219.551 19.4118 219.068 21.1829 218.907 22.6319C218.907 24.2419 219.39 25.852 219.39 27.3011C219.873 33.9022 213.755 45.8164 205.866 43.5624C202.968 42.5964 200.714 40.1813 199.587 37.2832C198.621 35.0291 197.494 31.8092 195.079 32.1312C193.79 32.2922 192.985 33.2582 192.18 34.2242C188.638 38.8933 184.935 47.4265 178.012 46.2995C174.631 45.8164 171.411 43.4013 168.03 43.7233C165.454 44.0453 163.2 45.9774 161.751 48.3925C158.37 54.1886 159.497 62.3998 161.107 68.6789C164.649 82.8472 159.497 87.9993 161.751 91.5414C163.039 93.6345 163.844 96.0495 164.649 98.3036C165.078 99.3769 165.507 100.504 165.937 101.685C166.259 102.651 166.259 104.1 167.386 104.422C167.708 104.529 167.976 104.529 168.191 104.422C169.157 104.422 170.069 104.368 170.928 104.261C171.733 104.261 172.377 104.1 172.86 103.617C172.377 103.295 172.216 102.49 171.733 102.168C171.572 102.007 171.25 101.846 170.928 101.846C170.499 101.738 170.069 101.631 169.64 101.524C169.479 101.524 169.157 101.363 168.996 101.202C168.674 101.041 168.674 100.719 168.513 100.558C167.44 97.5523 166.474 94.5468 165.615 91.5414C165.454 91.0584 165.454 90.7364 165.454 90.2534C165.454 89.9314 165.508 89.6631 165.615 89.4484C166.259 86.8723 166.581 84.2963 167.708 81.7202C168.835 79.3052 170.284 77.0512 171.894 74.7971C172.699 73.5091 173.665 72.221 175.114 71.577C177.69 70.289 180.749 72.06 183.486 73.026C189.926 75.1191 196.85 72.5431 203.612 72.382C204.578 72.382 205.866 72.382 206.671 73.1871C207.315 73.6701 207.637 74.3141 207.959 74.9581C208.603 76.5681 209.3 78.1245 210.052 79.6272C210.535 80.9152 211.34 81.7202 211.018 83.4912C210.857 85.1013 209.247 86.0673 207.798 87.9993C206.188 90.2534 204.9 93.9565 203.612 96.3715C203.29 96.8545 203.129 97.3375 203.29 97.6595C203.612 97.9815 203.934 97.9816 204.095 97.9816C205.705 98.3036 207.368 98.4109 209.086 98.3036C209.569 98.1426 210.374 97.8206 210.213 97.3376C210.052 97.0156 209.73 96.8545 209.569 96.8545C208.925 96.5325 208.227 96.2105 207.476 95.8885C208.603 92.0244 211.662 89.1264 213.755 85.9063C216.17 82.3642 216.331 78.8221 215.365 74.636C213.916 68.1959 214.077 58.8577 216.653 52.5785C218.585 48.0704 222.288 45.4944 223.093 40.5033C223.737 37.7662 225.508 34.7072 226.474 32.1312C227.762 28.1061 229.855 25.8519 233.558 24.4029Z" fill="#7C3A15"/>
<path d="M183.003 11.2005C181.071 12.3275 180.749 15.0645 179.944 17.1575C178.817 20.2166 175.919 22.3097 174.148 24.8858C171.25 29.2329 170.928 34.707 170.767 39.8591C170.767 42.4351 170.767 45.1722 171.572 47.5872C172.377 50.1633 173.826 52.5783 176.241 53.7053C178.012 54.6714 180.266 54.6714 182.198 54.5104C185.901 54.3494 190.087 52.9004 191.214 49.5193C192.019 46.9432 190.892 44.0452 189.282 41.7911C187.833 39.3761 185.901 37.283 185.418 34.546C188.155 37.7661 192.18 40.02 196.366 40.503C195.83 40.0737 195.239 39.6444 194.595 39.215C192.824 37.766 190.892 36.478 189.443 34.7069C186.062 30.8429 184.774 25.8517 183.486 21.0216C186.062 20.8606 188.316 18.7675 188.638 16.3525C189.121 13.7764 187.511 11.0394 185.096 10.2344" fill="#7C3A15"/>
<path d="M188.155 10.5563C186.384 9.75127 185.74 9.4293 183.969 9.5903C182.037 9.91231 177.529 12.1663 178.012 12.9713C178.495 13.9374 194.112 15.5474 194.595 14.9034C194.917 14.0984 190.409 11.5223 188.155 10.5563Z" fill="#7C3A15"/>
<path d="M224.864 27.9446C224.22 38.2489 224.22 50.3242 215.204 57.0863C204.255 65.2975 193.146 55.1543 184.935 48.2311C184.613 47.9091 184.291 48.3921 184.452 48.7141C191.697 56.9253 203.128 66.1025 214.399 59.3403C225.025 52.9002 225.991 39.0539 225.508 27.9446C225.508 27.6226 224.864 27.6226 224.864 27.9446Z" fill="#7C3A15"/>
<path d="M263.343 61.7556C263.343 61.7556 256.742 73.0258 256.42 74.6359C256.259 76.2459 259.962 85.1011 260.284 85.1011C260.767 85.1011 264.471 85.5841 264.471 88.6432L259.479 88.9652L257.547 87.0332L252.073 75.7629L255.615 53.5444L263.343 56.1205V61.7556Z" fill="#7C3A15"/>
<path d="M301.294 53.454C302.421 54.4201 303.225 55.7081 304.031 56.9961C304.997 58.3915 305.909 59.7332 306.768 61.0212C307.09 61.6652 307.573 62.3093 307.573 62.9533C307.573 63.5973 307.412 64.0803 307.251 64.7243C306.285 67.4613 302.904 73.2575 305.48 75.8336C306.285 76.6386 308.056 76.9605 308.056 78.0876C306.446 79.0536 304.353 79.2146 302.42 78.7316C302.098 78.7316 301.938 78.5706 301.777 78.4096C301.294 78.0876 301.293 77.2826 301.454 76.7996C301.991 73.1501 302.474 69.5007 302.904 65.8513C303.065 64.5633 303.226 63.1143 302.904 61.8262C302.26 59.8942 300.488 58.6061 299.039 57.1571C297.59 55.5471 296.463 53.454 297.268 51.522C298.878 51.683 300.167 52.327 301.294 53.454Z" fill="#7C3A15"/>
<path d="M253.845 35.1899C252.128 37.8733 250.464 40.5567 248.854 43.2401C248.371 44.2061 247.727 45.0111 247.405 46.1382C246.922 47.5872 246.922 49.1973 247.244 50.6463C247.405 52.4174 247.888 54.3493 249.015 55.7984C250.947 58.0524 254.65 58.8575 255.616 61.7555C255.777 62.3995 255.938 63.5266 256.743 63.6876C257.548 64.0096 258.353 63.2046 258.353 62.3996C258.353 61.5946 257.709 60.7896 257.065 60.3066C255.616 58.8575 253.845 57.8915 252.235 56.7645C250.625 55.6374 249.176 54.1884 248.693 52.0953C248.21 49.5193 249.981 47.1042 251.43 44.8502C252.879 42.5961 254.328 39.8591 253.201 37.444" fill="#7C3A15"/>
<path d="M331.771 10.2342C331.449 10.0732 331.127 9.91225 330.483 9.75124C328.229 9.10723 324.686 10.7173 322.11 10.3953C320.822 10.0733 319.373 9.75128 318.085 10.3953C315.831 11.5223 316.314 14.7424 316.475 17.3184C316.958 21.3435 315.67 26.0126 312.128 28.1057C305.688 32.1308 293.291 27.1396 290.071 20.6995C288.944 18.4454 287.495 15.2253 285.08 15.8694C283.953 16.0304 283.148 17.1574 282.504 18.2844C279.283 23.1145 276.225 31.8088 269.301 31.3258C265.92 31.0038 262.539 28.9107 259.158 29.7157C256.582 30.1987 254.489 32.2917 253.362 34.7068C250.947 39.5369 250.947 47.9091 254.006 52.4172C258.192 58.3743 261.251 62.8825 262.539 70.4496C262.7 72.0597 263.022 73.5087 263.666 74.9577C264.954 77.3727 267.53 78.8218 269.301 80.9148C270.428 82.5249 270.911 84.1349 271.233 86.067C274.024 85.8523 276.761 85.3693 279.444 84.6179C278.961 83.0079 277.351 81.7199 275.58 81.7199C275.097 81.7199 274.775 81.8809 274.292 81.7199C273.97 81.5589 273.809 81.3978 273.648 81.0758C271.716 79.1438 267.208 74.3137 267.208 71.4156C267.208 70.6106 267.691 69.6446 268.013 68.8396C270.053 64.9755 272.092 61.1114 274.131 57.2473C275.903 53.7052 282.02 55.7983 285.241 56.2813C289.266 56.9253 292.808 55.7982 296.833 55.3152C297.96 55.1542 299.087 55.1542 300.053 55.7982C301.985 57.0863 302.951 60.4674 304.4 62.3994C306.171 64.8145 307.781 66.7465 308.908 69.8056C309.66 72.2743 310.411 74.6893 311.162 77.0507C311.323 77.3727 311.484 77.8558 311.806 78.0168C312.128 78.1778 312.45 78.1778 312.772 78.0168C314.597 77.8021 316.368 77.5338 318.085 77.2118C318.729 77.0508 319.373 76.8898 319.534 76.4068C319.695 75.7628 319.051 75.2797 318.568 75.1187C317.924 74.9577 317.28 74.9577 316.636 74.9577C315.348 74.7967 314.382 73.9917 313.738 72.8647C313.094 71.8987 312.772 70.6106 312.45 69.4835C309.713 60.3063 306.171 50.3241 307.137 40.5029C307.459 40.2882 307.835 40.0736 308.264 39.8589C310.518 38.8929 312.933 38.4098 315.187 37.2828C321.145 34.0627 321.466 27.7837 323.72 21.3435C324.525 19.2505 328.068 18.7674 329.678 17.1574C330.483 16.5134 332.254 14.4203 331.932 12.6493C331.61 11.0393 332.254 10.5562 331.771 10.2342Z" fill="#7C3A15"/>
<path d="M351.896 1.21813C350.125 0.574111 349.481 0.252065 347.71 0.574072C345.778 1.05708 341.431 3.63318 341.914 4.4382C342.558 5.24322 358.337 5.5652 358.659 4.92119C358.981 4.27717 354.311 2.02314 351.896 1.21813Z" fill="#7C3A15"/>
<path d="M358.497 36.639C357.638 35.2436 356.726 33.8482 355.76 32.4528C354.633 30.6818 352.379 27.6227 351.091 25.5297C354.311 27.9447 355.277 29.5548 358.98 31.1648C361.073 31.9698 365.742 32.7749 367.513 31.4868C368.962 30.5208 365.742 30.0378 365.742 30.0378C364.454 29.5548 363.005 29.7158 361.717 29.2328C359.141 28.4277 356.887 26.9787 355.116 25.0467C351.413 21.6656 349.642 16.6746 348.032 12.0055C350.608 11.6834 352.701 9.42937 352.862 6.85332C353.023 4.27726 351.252 1.86215 348.837 1.05713L346.905 2.34524C344.973 3.47226 344.973 6.2093 344.329 8.46335C343.363 11.5224 340.787 13.7764 339.177 16.6745C336.6 21.1826 336.601 26.6568 336.923 31.8089C337.245 34.3849 337.405 37.122 338.372 39.537C340.787 45.8162 343.524 51.9343 342.397 59.0184C342.075 61.1115 341.592 63.2046 341.914 65.2976C349.213 63.9022 356.511 62.4532 363.81 60.9505C364.293 60.9505 364.776 60.7895 364.937 60.4675C365.098 60.1455 364.937 59.8235 364.937 59.5015C364.508 56.7108 364.079 53.92 363.649 51.1293C363.166 47.9092 362.683 44.5281 361.234 41.6301C360.375 39.9127 359.463 38.249 358.497 36.639Z" fill="#7C3A15"/>
<path d="M348.676 61.4334C348.193 63.3655 347.549 67.2296 347.388 69.3226C347.227 70.6107 351.735 69.0006 353.989 68.5176C354.15 67.7126 353.023 67.3906 352.218 67.5517C351.574 67.7127 350.447 67.5517 350.286 66.7466C350.179 66.6393 350.179 66.4782 350.286 66.2635C350.608 63.6875 351.252 61.5945 352.218 59.1794" fill="#7C3A15"/>
<path d="M359.302 57.5696C359.302 57.5696 360.751 67.2298 361.073 67.3908C361.395 67.7128 365.42 66.9078 367.674 66.4248C367.996 65.6198 366.869 65.2977 366.064 65.4587C365.259 65.6197 363.81 65.4588 363.327 65.1368C363.005 64.8148 362.2 56.6035 362.2 56.6035" fill="#7C3A15"/>
<path d="M311.323 30.0379C312.772 41.3082 321.627 46.6214 332.576 46.6214C345.134 46.6214 356.082 39.5372 365.259 31.809C365.903 31.326 365.098 30.521 364.615 31.004C356.726 37.1221 348.515 43.0793 338.694 45.0113C326.619 47.2654 314.221 43.0792 311.967 29.877C311.806 29.5549 311.323 29.7159 311.323 30.0379Z" fill="#7C3A15"/>
<path d="M306.493 33.7409C311.967 31.4869 314.866 31.6478 320.018 34.3849C321.95 35.3509 323.721 36.3169 325.653 37.122C329.678 38.893 334.025 40.0201 338.372 40.1811C347.066 40.1811 355.599 35.673 362.684 31.3259C363.006 31.1649 362.844 30.8428 362.522 31.0038C351.091 35.8339 341.592 41.7911 328.712 37.444C319.373 34.2239 315.993 29.0718 306.332 33.5799C306.171 33.5799 306.332 33.9019 306.493 33.7409Z" fill="#7C3A15"/>
<path d="M74.487 96.3713C74.487 96.3713 67.8859 107.642 67.5639 109.252C67.4029 110.862 71.106 119.717 71.428 119.717C71.911 119.556 75.6141 120.2 75.6141 123.259L70.623 123.581L68.691 121.488L63.2168 110.218L66.7589 88.1602L74.487 90.7362V96.3713Z" fill="#7C3A15"/>
<path d="M109.747 87.6773C110.874 88.8044 111.679 90.0924 112.484 91.3804C113.45 92.6684 114.362 94.0101 115.221 95.4055C115.543 96.0495 116.026 96.6935 116.026 97.3376C116.026 97.9816 115.865 98.4646 115.704 98.9476C114.738 101.846 111.357 107.481 113.933 110.057C114.738 111.023 116.509 111.184 116.509 112.472C114.899 113.277 112.806 113.599 110.874 113.116C110.552 112.955 110.391 112.955 110.23 112.794C109.747 112.311 109.747 111.667 109.908 111.184C110.444 107.534 110.927 103.831 111.357 100.075C111.518 98.7865 111.679 97.4985 111.357 96.2105C110.713 94.2785 108.942 92.9904 107.493 91.3804C106.044 89.9314 104.917 87.6773 105.722 85.9062C107.332 85.9062 108.62 86.7113 109.747 87.6773Z" fill="#7C3A15"/>
<path d="M64.9877 69.6448C63.2703 72.4355 61.6066 75.1725 59.9965 77.8559C59.5135 78.6609 58.8696 79.627 58.5476 80.593C58.0646 82.042 58.0645 83.6521 58.3865 85.2621C58.5475 87.0332 59.0306 88.9651 60.1576 90.4142C62.0896 92.6682 65.7927 93.4733 66.7587 96.2104C66.9197 97.0154 67.0807 97.9814 67.8858 98.3034C68.5298 98.6254 69.4958 97.8203 69.4958 96.8543C69.4958 96.0493 68.8518 95.4053 68.2078 94.7613C66.7587 93.4733 64.9877 92.5073 63.3777 91.3803C61.7676 90.2532 60.3186 88.6432 59.8356 86.7111C59.3526 84.1351 61.1236 81.559 62.5727 79.466C64.0217 77.2119 65.4707 74.4749 64.3437 72.0598" fill="#7C3A15"/>
<path d="M142.912 44.8503C142.59 44.6893 142.268 44.5283 141.624 44.3673C139.37 43.7233 135.828 45.3333 133.252 44.8503C131.964 44.6893 130.515 44.3673 129.227 45.0113C126.973 46.1384 127.456 49.3584 127.617 51.9345C128.1 55.9596 126.812 60.6287 123.27 62.7217C116.83 66.7468 104.432 61.5947 101.212 55.1545C100.085 52.9005 98.6363 49.8414 96.2212 50.4854C95.0942 50.6464 94.2892 51.7735 93.6452 52.7395C90.4251 57.7306 87.3661 66.4248 80.4429 65.9418C77.0618 65.6198 73.6808 63.5267 70.2997 64.1707C67.7236 64.6537 65.6305 66.9078 64.5035 69.1619C62.0885 74.153 62.0885 82.5252 65.1476 86.8723C69.3337 92.9904 72.3927 97.4985 73.6807 105.066C73.8417 106.515 74.1638 108.125 74.8078 109.574C76.0958 111.989 78.6719 113.277 80.4429 115.531C81.5699 116.98 82.053 118.59 82.375 120.683C85.1657 120.468 87.9027 119.985 90.5861 119.234C90.1031 117.624 88.4931 116.336 86.7221 116.336C86.2391 116.336 85.917 116.336 85.434 116.175C85.112 116.175 84.951 115.853 84.79 115.692C82.858 113.76 78.3499 108.769 78.3499 106.032C78.3499 105.066 78.8329 104.261 79.1549 103.456C81.1943 99.5915 83.2336 95.6738 85.273 91.7024C87.0441 88.1603 93.1622 90.2533 96.3823 90.8974C100.407 91.5414 103.949 90.2533 107.974 89.9313C109.102 89.7703 110.229 89.7702 111.195 90.4143C113.127 91.7023 114.093 94.9224 115.542 96.8544C117.313 99.4305 118.923 101.363 120.05 104.422C120.801 106.783 121.552 109.198 122.304 111.667C122.465 111.989 122.626 112.311 122.948 112.633C123.27 112.794 123.592 112.633 123.914 112.633C125.739 112.311 127.51 112.042 129.227 111.828C129.871 111.667 130.515 111.506 130.676 111.023C130.837 110.379 130.193 109.735 129.71 109.574C129.066 109.413 128.422 109.574 127.778 109.574C126.49 109.413 125.524 108.447 124.88 107.481C124.236 106.354 123.914 105.227 123.592 104.1C120.855 94.9224 117.313 84.9401 118.279 75.1189C118.601 74.9042 118.976 74.6896 119.406 74.475C121.66 73.3479 124.075 72.8649 126.168 71.7379C132.286 68.6788 132.608 62.2387 134.862 55.9596C135.667 53.8665 139.209 53.3834 140.819 51.7734C141.624 50.9684 143.395 48.8754 143.073 47.2653C142.751 45.6553 143.395 45.1723 142.912 44.8503Z" fill="#7C3A15"/>
<path d="M122.143 70.4496C130.355 74.9577 141.625 76.2458 150.802 74.7967C160.784 73.1867 168.19 66.1025 174.148 58.3743C174.47 58.0523 173.987 57.5693 173.665 57.8914C167.707 64.0095 161.75 70.9326 153.056 73.1867C143.557 75.6017 131.321 73.8307 122.626 69.6446C122.143 69.3226 121.66 70.1276 122.143 70.4496Z" fill="#7C3A15"/>
<path d="M124.398 64.4928C140.176 66.7469 156.599 61.4338 169.318 51.9346C169.801 51.4515 169.318 50.6465 168.674 50.9685C154.989 60.3067 140.82 64.1708 124.398 64.3318C124.237 64.3318 124.237 64.4928 124.398 64.4928Z" fill="#7C3A15"/>
</svg>
