<svg width="1920" height="1295" viewBox="0 0 1920 1295" fill="none" xmlns="http://www.w3.org/2000/svg">
<g clip-path="url(#clip0_334_304)">
<g opacity="0.5">
<path d="M2272.09 800.442C2271.93 799.476 2214.13 800.442 2211.07 800.442C2076.47 800.442 1941.93 800.442 1807.44 800.442C1598.88 800.442 1390.38 800.442 1181.94 800.442C960.935 800.442 739.931 800.442 518.926 800.442C423.076 800.442 327.171 800.442 231.213 800.442C186.615 800.442 142.017 797.544 98.546 807.204C23.8403 823.787 -66.9657 808.331 -143.442 806.882C-130.562 750.691 -80.49 709.314 -26.3928 689.671C27.8654 670.19 86.4707 668.097 143.788 663.588C296.741 651.674 447.763 620.6 600.716 609.813C725.172 600.958 850.755 605.627 974.244 587.434C1113.19 567.147 1243.93 512.406 1382.55 493.891C1439.71 486.162 1497.83 485.68 1555.31 489.544C1662.21 496.789 1767.35 519.007 1872.81 537.845C1957.33 552.818 2043.79 566.342 2120.27 605.305C2196.74 644.429 2262.92 714.949 2272.09 800.442Z" fill="url(#paint0_linear_334_304)"/>
<path d="M26.0947 887.642L1441.16 992.777C1519.89 961.382 1575.75 934.816 1583.97 919.521C1616.17 859.305 1426.18 807.784 1426.18 771.397C1426.18 753.043 1450.65 744.671 1463.86 741.451C1436.65 742.256 1409.44 744.188 1382.55 747.891C1329.58 754.975 1279.51 773.007 1227.83 783.312C1110.61 806.496 1004.35 826.944 883.922 808.428C773.473 791.523 668.177 750.789 560.788 719.554C497.835 701.039 432.629 685.743 366.939 689.446C313.969 692.506 262.609 707.962 212.698 725.511C169.549 740.807 124.79 748.857 81.963 765.762C65.8626 772.041 50.0843 778.964 34.3059 786.049L26.0947 887.642Z" fill="url(#paint1_linear_334_304)"/>
<path d="M26.0947 595.642L1441.16 700.777C1519.89 669.382 1575.75 642.816 1583.97 627.521C1616.17 567.305 1426.18 515.784 1426.18 479.397C1426.18 461.043 1450.65 452.671 1463.86 449.451C1436.65 450.256 1409.44 452.188 1382.55 455.891C1329.58 462.975 1279.51 481.007 1227.83 491.312C1110.61 514.496 1004.35 534.944 883.922 516.428C773.473 499.523 668.177 458.789 560.788 427.554C497.835 409.039 432.629 393.743 366.939 397.446C313.969 400.506 262.609 415.962 212.698 433.511C169.549 448.807 124.79 456.857 81.963 473.762C65.8626 480.041 50.0843 486.964 34.3059 494.049L26.0947 595.642Z" fill="#FF9843"/>
</g>
<path d="M-187.88 595.803C-167.164 594.408 -146.502 592.905 -125.893 591.295C-46.4651 584.962 32.856 577.395 112.07 568.593C277.098 550.4 456.94 482.617 602.809 490.829C682.989 495.176 718.731 525.766 797.462 542.35C943.331 572.94 1104.5 580.024 1251.81 558.128C1435.36 530.918 1583.8 516.589 1768.64 532.528C1844.15 538.969 1960.39 546.858 2034.61 563.28C2096.6 576.965 2157.14 603.692 2201.9 648.773C2227.01 674.051 2246.49 705.607 2256.8 739.74C2266.3 771.458 2263.4 803.175 2273.7 834.249C2297.53 907.184 2305.26 994.287 2266.3 1063.52C2230.07 1127.76 2153.92 1156.58 2083.24 1177.51C1935.44 1221.3 1784.25 1252.05 1632.43 1278.14C1109.16 1367.49 554.186 1396.8 63.2857 1194.9C-13.352 1163.34 -88.0577 1126.31 -155.518 1078.17" fill="url(#paint2_linear_334_304)"/>
<g opacity="0.7">
<path d="M185.971 1075.86C277.099 1108.06 377.565 1095.98 471.913 1074.57C545.17 1058.14 618.427 1035.6 680.252 992.777C708.428 973.135 736.12 943.671 731.773 909.699C729.358 890.54 716.961 874.279 703.115 860.754C676.71 835.155 643.382 816.639 607.478 808.106C600.072 806.335 591.056 803.759 588.963 796.353C587.353 790.235 590.895 785.566 596.53 782.507C451.788 776.549 274.845 842.561 112.07 860.593C56.1484 866.819 0.172807 872.4 -55.8564 877.338C-55.8564 899.073 -51.5094 920.809 -39.5951 938.68C-26.0708 959.128 -4.33529 972.33 16.5952 985.049C43.9658 1001.47 71.3364 1017.89 99.19 1033.83C127.044 1049.77 155.541 1065.07 185.971 1075.86Z" fill="#F4A742"/>
<path d="M185.971 783.855C277.099 816.056 377.565 803.981 471.913 782.567C545.17 766.145 618.427 743.604 680.252 700.777C708.428 681.135 736.12 651.671 731.773 617.699C729.358 598.54 716.961 582.279 703.115 568.754C676.71 543.155 643.382 524.639 607.478 516.106C600.072 514.335 591.056 511.759 588.963 504.353C587.353 498.235 590.895 493.566 596.53 490.507C451.788 484.549 274.845 550.561 112.07 568.593C56.1484 574.819 0.172807 580.4 -55.8564 585.338C-55.8564 607.073 -51.5094 628.809 -39.5951 646.68C-26.0708 667.128 -4.33529 680.33 16.5952 693.049C43.9658 709.472 71.3364 725.894 99.19 741.833C127.044 757.773 155.541 773.068 185.971 783.855Z" fill="#FF9843"/>
</g>
<path d="M-173.229 939.002C-142.96 929.825 -115.267 914.369 -83.7107 911.793C-49.8999 909.217 -16.5722 896.658 16.1115 887.642C88.6705 867.57 161.229 847.552 233.788 827.588C268.726 817.927 303.825 808.267 339.729 804.081C382.234 799.251 412.019 849.967 454.524 855.441C610.054 875.245 768.481 887.32 922.401 910.988C1053.3 931.274 1180.17 887.803 1307.84 866.551C1440.35 844.332 1577.52 839.341 1711.96 828.232C1819.83 819.376 1930.93 818.732 2033.33 853.992C2117.53 882.812 2196.42 939.324 2239.57 1018.7C2284.49 1101.45 2316.53 1219.95 2275.64 1309.95C2247.3 1372.42 2186.28 1413.48 2124.29 1442.78C2000.32 1501.55 1862.98 1526.02 1726.77 1543.25C1455.32 1577.38 1180.97 1584.95 907.427 1584.95C559.499 1584.95 205.291 1571.91 -123.318 1457.59C-319.098 1389.65 7.25634 1040.76 -173.229 939.002Z" fill="#F4A13D"/>
<path d="M-173.229 647.002C-142.96 637.825 -115.267 622.369 -83.7107 619.793C-49.8999 617.217 -16.5722 604.658 16.1115 595.642C88.6705 575.57 161.229 555.552 233.788 535.588C268.726 525.927 303.825 516.267 339.729 512.081C382.234 507.251 412.019 557.967 454.524 563.441C610.054 583.245 768.481 595.32 922.401 618.988C1053.3 639.274 1180.17 595.803 1307.84 574.551C1440.35 552.332 1577.52 547.341 1711.96 536.232C1819.83 527.376 1930.93 526.732 2033.33 561.992C2117.53 590.812 2196.42 647.324 2239.57 726.699C2284.49 809.455 2316.53 927.953 2275.64 1017.95C2247.3 1080.42 2186.28 1121.48 2124.29 1150.78C2000.32 1209.55 1862.98 1234.02 1726.77 1251.25C1455.32 1285.38 1180.97 1292.95 907.427 1292.95C559.499 1292.95 205.291 1279.91 -123.318 1165.59C-319.098 1097.65 7.25634 748.756 -173.229 647.002Z" fill="#FF9843"/>
<path d="M12.0869 703.997C12.0869 703.997 396.563 651.832 494.293 609.81C592.183 567.788 698.445 542.35 750.771 542.35C803.259 542.35 968.931 632.512 1111.58 658.594C1232.49 680.813 1478.99 637.664 1696.02 718.005C1913.06 798.346 2228.62 1152.55 2228.62 1152.55L40.1015 1238.69L12.0869 703.997Z" fill="url(#paint3_linear_334_304)"/>
<path d="M390.606 826.36C390.606 826.36 1015.94 725.411 1005 672.28C998.556 641.045 758.017 594.837 734.993 571.975C718.249 555.23 756.246 543.155 756.246 543.155L753.83 542.511C752.864 542.511 751.737 542.35 750.771 542.35C698.445 542.35 592.183 567.788 494.293 609.81C456.618 625.911 376.277 643.782 291.911 659.399L390.606 826.36Z" fill="url(#paint4_linear_334_304)"/>
<path d="M684.277 864.679C684.277 864.679 1109.33 744.893 1239.74 674.373C1370.15 604.014 1519.89 495.82 1657.06 495.82C1737.24 495.82 1823.7 588.075 1969.09 588.075C2200.93 588.075 2471.42 735.554 2471.42 763.73C2471.42 791.906 2161.97 1331.75 2161.97 1331.75L736.281 1270.73L684.277 864.679Z" fill="url(#paint5_linear_334_304)"/>
<g style="mix-blend-mode:multiply">
<path fill-rule="evenodd" clip-rule="evenodd" d="M1299.47 757.773C1301.62 757.987 1303.77 758.256 1305.91 758.578C1308 758.739 1310.1 759.222 1312.03 759.222C1313.48 759.383 1314.77 759.061 1316.06 758.578C1316.27 758.47 1316.43 758.363 1316.54 758.256C1316.7 758.095 1316.54 757.773 1316.38 757.451C1316.22 757.29 1315.89 757.129 1315.57 757.129C1314.12 756.485 1312.67 756.646 1311.06 756.485C1306.23 755.841 1301.56 754.392 1297.22 752.137C1302.05 750.366 1307.52 750.366 1312.51 751.494C1314.12 751.816 1315.41 752.299 1316.7 753.104C1318.09 753.962 1319.49 754.714 1320.89 755.358C1321.37 755.519 1321.69 755.68 1322.17 755.841C1322.66 755.841 1323.3 755.841 1323.78 755.68C1324.64 755.572 1325.5 755.411 1326.36 755.197C1326.52 755.197 1326.68 755.197 1326.68 755.036C1327 754.714 1326.84 754.392 1326.52 754.231C1326.2 753.748 1325.72 753.587 1325.23 753.426C1322.98 752.46 1320.72 751.654 1318.63 750.527C1316.7 749.4 1314.61 748.434 1313.16 746.824C1319.17 745.966 1325.18 745.59 1331.19 745.697C1332.8 745.697 1334.41 745.858 1335.86 746.341C1337.95 747.146 1339.4 748.756 1341.01 750.044C1341.76 750.688 1342.57 751.225 1343.43 751.654C1344.39 752.137 1345.2 752.943 1346.32 753.104C1346.97 753.265 1347.77 753.265 1348.42 753.265C1349.17 753.157 1349.92 753.05 1350.67 752.942C1350.89 752.942 1351.1 752.942 1351.31 752.942C1351.53 753.05 1351.74 753.157 1351.96 753.265C1352.6 753.426 1353.57 753.426 1354.37 753.265C1356.14 753.104 1357.92 752.782 1359.2 751.654C1359.37 751.654 1359.53 751.493 1359.53 751.171C1359.53 751.01 1359.37 750.849 1359.2 750.688C1357.59 749.615 1355.88 748.756 1354.05 748.112C1353.09 747.79 1351.96 747.629 1350.99 747.146C1350.19 746.663 1349.38 746.019 1348.74 745.375C1347.29 744.409 1345.68 743.604 1344.23 742.638C1343.59 742.316 1342.94 741.833 1342.3 741.672C1341.82 741.511 1341.33 741.511 1340.69 741.35C1336.18 739.901 1332.8 739.096 1328.45 736.681C1323.94 734.105 1319.11 731.851 1313.8 730.563C1301.08 727.504 1287.88 731.529 1275 733.622C1265.18 735.071 1254.87 735.715 1246.18 740.384C1245.7 740.545 1245.21 740.867 1244.89 741.35C1244.41 742.477 1245.7 743.604 1246.66 744.248C1253.91 748.434 1261.31 751.171 1268.88 752.942C1278.7 755.358 1289.01 756.485 1299.47 757.773ZM1495.57 718.166C1496.33 718.488 1497.08 718.756 1497.83 718.971C1498.79 719.293 1499.6 719.615 1500.57 720.098C1501.05 720.42 1502.18 721.225 1502.82 721.547C1504.43 722.352 1505.56 721.708 1507.17 721.386C1507.49 721.386 1507.81 721.225 1508.13 721.064C1508.45 720.903 1508.62 720.581 1508.62 720.259C1508.45 719.776 1508.13 719.615 1507.81 719.454C1507.27 719.132 1506.79 718.81 1506.36 718.488C1505.61 718.058 1504.8 717.629 1503.95 717.2C1501.21 715.912 1498.15 715.268 1495.09 714.785C1492.19 714.302 1489.46 713.819 1486.72 713.497C1486.07 713.336 1485.27 713.497 1484.63 713.175C1484.3 713.175 1483.98 712.853 1483.5 712.853C1482.05 712.37 1480.6 712.209 1479.15 712.048C1472.55 710.76 1465.95 709.472 1459.35 708.989L1440.83 716.234C1448.56 717.361 1478.67 722.513 1486.4 723.64C1487.2 723.801 1487.85 723.801 1488.65 724.123C1489.62 724.445 1490.42 724.606 1491.39 724.445C1492.03 724.445 1492.52 724.284 1493.16 724.123C1494.23 723.908 1495.36 723.64 1496.54 723.318C1496.54 723.318 1496.7 723.318 1496.7 723.157C1496.7 723.049 1496.65 722.996 1496.54 722.996C1495.9 722.513 1494.77 722.674 1494.13 722.191C1493.32 721.869 1493 721.064 1492.51 720.42C1492.03 720.098 1491.39 719.776 1491.07 719.293C1490.74 718.863 1490.53 718.38 1490.42 717.844C1490.42 717.736 1490.48 717.575 1490.58 717.361C1490.58 717.2 1490.74 717.2 1491.07 717.2C1491.71 717.039 1492.35 717.2 1493 717.361C1493.86 717.683 1494.72 717.951 1495.57 718.166ZM1437.77 732.173C1439.71 732.656 1441.48 733.622 1443.41 734.105C1444.86 734.427 1446.47 734.427 1448.08 734.427C1448.72 734.427 1449.37 734.427 1450.01 734.266C1450.82 734.105 1451.62 733.944 1452.26 733.622C1452.91 733.461 1453.39 733.3 1453.87 733.3C1454.36 733.3 1454.84 733.3 1455.48 733.3C1456.13 733.3 1456.61 733.139 1457.26 732.978C1458.76 732.656 1460.21 732.28 1461.6 731.851C1461.92 731.851 1462.25 731.69 1462.25 731.368C1462.41 731.046 1462.09 730.885 1461.76 730.724C1461.01 730.402 1460.31 730.026 1459.67 729.597C1458.54 729.114 1457.58 728.631 1456.45 728.309C1452.91 727.021 1449.04 726.699 1445.34 725.733C1441.8 724.928 1438.58 723.318 1435.04 722.191C1409.44 713.175 1378.04 715.107 1352.28 722.674C1351.31 722.835 1350.35 723.157 1349.7 723.962C1348.42 725.411 1348.9 727.665 1350.03 729.114C1352.12 731.69 1355.5 732.817 1358.56 733.622C1364.03 735.232 1369.35 736.842 1374.66 738.452C1379.01 739.579 1383.19 739.418 1387.54 740.384C1389.37 740.814 1391.24 741.189 1393.18 741.511C1394.95 741.833 1396.56 741.672 1398.17 742.316C1398.81 742.531 1399.4 742.746 1399.94 742.96C1400.26 743.175 1400.58 743.336 1400.9 743.443C1401.55 743.604 1402.19 743.604 1402.84 743.604C1404.45 743.39 1406.06 743.229 1407.67 743.121C1407.77 743.121 1407.83 743.068 1407.83 742.96C1408.15 742.799 1407.83 742.316 1407.51 742.316C1405.57 741.189 1403.16 741.028 1401.06 740.062C1399.62 739.579 1398.33 738.774 1396.72 738.291C1395.91 738.13 1394.95 737.969 1394.46 737.325C1395.43 737.003 1396.23 736.842 1397.2 736.681C1398.7 736.574 1400.21 736.466 1401.71 736.359C1402.84 736.198 1403.96 736.037 1404.93 736.359C1406.06 736.52 1407.02 737.164 1408.15 737.486C1409.12 737.969 1410.24 738.13 1411.21 738.613C1412.01 739.096 1412.66 739.74 1413.3 740.223C1413.52 740.438 1413.78 740.545 1414.11 740.545C1414.43 740.706 1414.75 740.545 1415.07 740.545C1417 740.223 1418.88 739.848 1420.71 739.418C1421.03 739.257 1421.51 739.096 1421.83 738.774C1421.83 738.667 1421.83 738.559 1421.83 738.452C1421.83 738.291 1421.67 738.13 1421.67 738.13C1419.9 736.681 1417.65 736.681 1415.56 736.037C1414.11 735.715 1412.82 735.071 1411.37 734.749C1409.97 734.32 1408.52 733.944 1407.02 733.622C1413.78 732.656 1420.55 732.173 1427.47 731.69C1430.85 731.529 1434.39 731.207 1437.77 732.173ZM1250.2 767.594C1252.14 768.077 1253.91 769.043 1255.84 769.526C1257.29 769.848 1258.9 769.848 1260.51 769.848C1261.15 769.848 1261.8 769.848 1262.44 769.687C1263.25 769.526 1264.05 769.365 1264.69 769.043C1265.34 768.882 1265.82 768.721 1266.3 768.721C1266.79 768.721 1267.27 768.721 1267.91 768.721C1268.56 768.721 1269.04 768.56 1269.69 768.399C1271.19 768.077 1272.64 767.701 1274.03 767.272C1274.36 767.272 1274.68 767.111 1274.68 766.789C1274.84 766.467 1274.52 766.306 1274.19 766.145C1273.44 765.823 1272.75 765.447 1272.1 765.018C1270.97 764.535 1270.01 764.052 1268.88 763.73C1265.34 762.442 1261.47 762.12 1257.77 761.154C1253.59 760.188 1249.56 758.578 1245.37 757.934C1243.93 757.773 1230.4 755.036 1237.49 752.459C1238.45 752.137 1239.42 752.138 1240.38 751.816C1244.57 750.367 1245.21 744.248 1243.76 740.706C1242.15 736.842 1239.9 736.681 1236.04 737.003C1226.05 738.13 1216.88 741.994 1207.06 743.604C1196.59 745.375 1186.13 745.697 1175.82 748.595C1165.68 751.655 1155.05 753.587 1144.91 756.485C1156.66 766.467 1172.6 769.687 1187.09 773.873C1191.44 775 1195.62 774.839 1199.97 775.805C1201.8 776.234 1203.67 776.61 1205.61 776.932C1207.38 777.254 1208.99 777.093 1210.6 777.737C1211.24 777.952 1211.83 778.166 1212.37 778.381C1212.69 778.596 1213.01 778.757 1213.33 778.864C1213.98 779.025 1214.62 779.025 1215.27 779.025C1216.88 778.81 1218.49 778.649 1220.1 778.542C1220.2 778.542 1220.26 778.488 1220.26 778.381C1220.58 778.22 1220.26 777.737 1219.94 777.737C1218 776.61 1215.59 776.449 1213.5 775.483C1212.05 775 1210.76 774.195 1209.15 773.712C1208.34 773.551 1207.38 773.39 1206.89 772.746C1207.86 772.424 1208.67 772.263 1209.63 772.102C1211.13 771.995 1212.64 771.887 1214.14 771.78C1215.27 771.619 1216.39 771.458 1217.36 771.78C1218.49 771.941 1219.45 772.585 1220.58 772.907C1221.55 773.39 1222.67 773.551 1223.64 774.034C1224.44 774.517 1225.09 775.161 1225.73 775.644C1225.95 775.859 1226.22 775.966 1226.54 775.966C1226.86 776.127 1227.18 775.966 1227.5 775.966C1229.44 775.644 1231.31 775.268 1233.14 774.839C1233.46 774.678 1233.94 774.517 1234.27 774.195C1234.27 774.088 1234.27 773.98 1234.27 773.873C1234.27 773.712 1234.1 773.551 1234.1 773.551C1232.33 772.102 1230.08 772.102 1227.99 771.458C1226.54 771.136 1225.25 770.492 1223.8 770.17C1222.4 769.741 1220.96 769.365 1219.45 769.043C1226.22 768.077 1232.98 767.594 1239.9 767.111C1243.28 766.95 1246.82 766.628 1250.2 767.594Z" fill="#F9BB5A"/>
</g>
<path d="M824.833 924.573C824.833 907.989 859.127 826.038 1104.17 769.848C1310.58 722.674 1462.41 747.63 1510.71 685.482C1540.98 646.358 1476.25 641.528 1476.25 603.209C1476.25 564.891 1638.06 557.806 1670.1 526.733C1687.17 509.988 1670.75 496.947 1670.75 496.947C1666.4 496.142 1661.89 495.82 1657.06 495.82C1519.89 495.82 1370.15 604.014 1239.74 674.373C1109.33 744.893 684.277 864.679 684.277 864.679L736.281 1270.73L863.474 1276.2C829.503 1131.95 824.833 935.682 824.833 924.573Z" fill="url(#paint6_linear_334_304)"/>
<path d="M1324.27 728.47C1324.27 728.47 1318.47 740.062 1318.31 741.833C1318.15 743.443 1322.49 751.976 1322.82 751.815C1323.3 751.815 1327 752.137 1327.32 755.197L1322.17 755.841L1320.24 753.908L1313.96 743.121L1315.89 720.742L1323.78 722.835L1324.27 728.47Z" fill="#7C3A15"/>
<path d="M1350.19 724.606C1350.3 724.821 1350.4 725.035 1350.51 725.25C1351.64 727.182 1352.12 729.758 1352.76 732.012C1354.16 736.413 1355.18 740.867 1355.82 745.375C1356.15 746.824 1356.47 748.434 1357.59 749.078C1358.72 749.722 1360.49 749.561 1360.81 750.688C1359.37 751.977 1357.43 752.782 1355.5 752.782C1355.18 752.782 1355.02 752.782 1354.7 752.621C1354.21 752.299 1354.05 751.655 1354.05 751.011C1353.41 744.409 1351.15 737.969 1347.45 732.334C1346.65 730.885 1343.59 728.47 1344.23 726.538C1344.71 725.25 1346.65 723.801 1347.61 722.674C1348.74 723.318 1349.54 723.801 1350.19 724.606Z" fill="#7C3A15"/>
<path d="M1377.56 678.881C1380.62 677.754 1382.39 677.432 1382.07 674.695C1381.91 672.602 1379.17 673.729 1377.88 673.89C1374.82 674.373 1373.05 674.373 1369.99 673.246C1368.38 672.602 1366.45 672.119 1364.84 673.085C1363.55 673.89 1363.07 675.661 1362.91 677.11C1362.91 678.72 1363.39 680.33 1363.39 681.779C1363.87 688.38 1357.75 700.294 1349.87 698.04C1346.97 697.074 1344.71 694.659 1343.59 691.761C1342.62 689.507 1341.49 686.287 1339.08 686.609C1337.79 686.77 1336.99 687.736 1336.18 688.702C1332.64 693.371 1328.94 701.905 1322.01 700.777C1318.63 700.294 1315.41 697.879 1312.03 698.201C1309.45 698.523 1307.2 700.455 1305.75 702.871C1302.37 708.667 1303.5 716.878 1305.11 723.157C1308.65 737.325 1303.5 742.477 1305.75 746.019C1307.04 748.112 1307.84 750.528 1308.65 752.782C1309.08 753.855 1309.51 754.982 1309.94 756.163C1310.26 757.129 1310.26 758.578 1311.39 758.9C1311.71 759.007 1311.98 759.007 1312.19 758.9C1313.16 758.9 1314.07 758.846 1314.93 758.739C1315.73 758.739 1316.38 758.578 1316.86 758.095C1316.38 757.773 1316.22 756.968 1315.73 756.646C1315.57 756.485 1315.25 756.324 1314.93 756.324C1314.5 756.216 1314.07 756.109 1313.64 756.002C1313.48 756.002 1313.16 755.841 1313 755.68C1312.67 755.519 1312.67 755.197 1312.51 755.036C1311.44 752.03 1310.47 749.025 1309.61 746.019C1309.45 745.536 1309.45 745.214 1309.45 744.731C1309.45 744.409 1309.51 744.141 1309.61 743.926C1310.26 741.35 1310.58 738.774 1311.71 736.198C1312.83 733.783 1314.28 731.529 1315.89 729.275C1316.7 727.987 1317.66 726.699 1319.11 726.055C1321.69 724.767 1324.75 726.538 1327.49 727.504C1333.93 729.597 1340.85 727.021 1347.61 726.86C1348.58 726.86 1349.87 726.86 1350.67 727.665C1351.31 728.148 1351.64 728.792 1351.96 729.436C1352.6 731.046 1353.3 732.603 1354.05 734.105C1354.53 735.393 1355.34 736.198 1355.02 737.969C1354.86 739.579 1353.25 740.545 1351.8 742.477C1350.19 744.731 1348.9 748.434 1347.61 750.85C1347.29 751.333 1347.13 751.816 1347.29 752.138C1347.61 752.46 1347.93 752.46 1348.09 752.46C1349.7 752.782 1351.37 752.889 1353.09 752.782C1353.57 752.621 1354.37 752.299 1354.21 751.816C1354.05 751.494 1353.73 751.333 1353.57 751.333C1352.92 751.011 1352.23 750.689 1351.48 750.367C1352.6 746.502 1355.66 743.604 1357.75 740.384C1360.17 736.842 1360.33 733.3 1359.36 729.114C1357.92 722.674 1358.08 713.336 1360.65 707.057C1362.58 702.548 1366.29 699.972 1367.09 694.981C1367.74 692.244 1369.51 689.185 1370.47 686.609C1371.76 682.584 1373.86 680.33 1377.56 678.881Z" fill="#7C3A15"/>
<path d="M1327 665.678C1325.07 666.806 1324.75 669.542 1323.94 671.636C1322.82 674.695 1319.92 676.788 1318.15 679.364C1315.25 683.711 1314.93 689.185 1314.77 694.337C1314.77 696.913 1314.77 699.65 1315.57 702.065C1316.38 704.641 1317.83 707.056 1320.24 708.183C1322.01 709.149 1324.27 709.149 1326.2 708.988C1329.9 708.827 1334.09 707.378 1335.22 703.997C1336.02 701.421 1334.89 698.523 1333.28 696.269C1331.83 693.854 1329.9 691.761 1329.42 689.024C1332.16 692.244 1336.18 694.498 1340.37 694.981C1339.83 694.552 1339.24 694.122 1338.6 693.693C1336.83 692.244 1334.89 690.956 1333.44 689.185C1330.06 685.321 1328.77 680.33 1327.49 675.5C1330.06 675.339 1332.32 673.246 1332.64 670.831C1333.12 668.254 1331.51 665.517 1329.1 664.712" fill="#7C3A15"/>
<path d="M1332.16 665.034C1330.38 664.229 1329.74 663.907 1327.97 664.068C1326.04 664.39 1321.53 666.644 1322.01 667.449C1322.5 668.415 1338.11 670.025 1338.6 669.381C1338.92 668.576 1334.41 666 1332.16 665.034Z" fill="#7C3A15"/>
<path d="M1368.86 682.423C1368.22 692.727 1368.22 704.802 1359.2 711.565C1348.26 719.776 1337.15 709.633 1328.94 702.709C1328.61 702.387 1328.29 702.87 1328.45 703.192C1335.7 711.404 1347.13 720.581 1358.4 713.819C1369.03 707.378 1369.99 693.532 1369.51 682.423C1369.51 682.101 1368.86 682.101 1368.86 682.423Z" fill="#7C3A15"/>
<path d="M1407.34 716.234C1407.34 716.234 1400.74 727.504 1400.42 729.114C1400.26 730.724 1403.96 739.579 1404.29 739.579C1404.77 739.579 1408.47 740.062 1408.47 743.121L1403.48 743.443L1401.55 741.511L1396.07 730.241L1399.62 708.022L1407.34 710.598V716.234Z" fill="#7C3A15"/>
<path d="M1445.29 707.932C1446.42 708.898 1447.23 710.186 1448.03 711.474C1449 712.87 1449.91 714.211 1450.77 715.499C1451.09 716.143 1451.57 716.787 1451.57 717.431C1451.57 718.075 1451.41 718.558 1451.25 719.202C1450.28 721.939 1446.9 727.736 1449.48 730.312C1450.28 731.117 1452.06 731.439 1452.06 732.566C1450.45 733.532 1448.35 733.693 1446.42 733.21C1446.1 733.21 1445.94 733.049 1445.78 732.888C1445.29 732.566 1445.29 731.761 1445.45 731.278C1445.99 727.628 1446.47 723.979 1446.9 720.329C1447.06 719.041 1447.23 717.592 1446.9 716.304C1446.26 714.372 1444.49 713.084 1443.04 711.635C1441.59 710.025 1440.46 707.932 1441.27 706C1442.88 706.161 1444.17 706.805 1445.29 707.932Z" fill="#7C3A15"/>
<path d="M1397.85 689.668C1396.13 692.351 1394.46 695.035 1392.85 697.718C1392.37 698.684 1391.73 699.489 1391.4 700.616C1390.92 702.065 1390.92 703.675 1391.24 705.124C1391.4 706.895 1391.89 708.827 1393.02 710.276C1394.95 712.53 1398.65 713.335 1399.62 716.234C1399.78 716.878 1399.94 718.005 1400.74 718.166C1401.55 718.488 1402.35 717.683 1402.35 716.878C1402.35 716.073 1401.71 715.268 1401.07 714.785C1399.62 713.336 1397.85 712.37 1396.24 711.242C1394.63 710.115 1393.18 708.666 1392.69 706.573C1392.21 703.997 1393.98 701.582 1395.43 699.328C1396.88 697.074 1398.33 694.337 1397.2 691.922" fill="#7C3A15"/>
<path d="M1475.77 664.713C1475.45 664.552 1475.13 664.391 1474.48 664.23C1472.23 663.585 1468.69 665.196 1466.11 664.874C1464.82 664.552 1463.37 664.23 1462.09 664.874C1459.83 666.001 1460.31 669.221 1460.48 671.797C1460.96 675.822 1459.67 680.491 1456.13 682.584C1449.69 686.609 1437.29 681.618 1434.07 675.178C1432.94 672.924 1431.49 669.704 1429.08 670.348C1427.95 670.509 1427.15 671.636 1426.5 672.763C1423.28 677.593 1420.22 686.287 1413.3 685.804C1409.92 685.482 1406.54 683.389 1403.16 684.194C1400.58 684.677 1398.49 686.77 1397.36 689.185C1394.95 694.015 1394.95 702.387 1398.01 706.895C1402.19 712.853 1405.25 717.361 1406.54 724.928C1406.7 726.538 1407.02 727.987 1407.67 729.436C1408.95 731.851 1411.53 733.3 1413.3 735.393C1414.43 737.003 1414.91 738.613 1415.23 740.545C1418.02 740.331 1420.76 739.848 1423.44 739.096C1422.96 737.486 1421.35 736.198 1419.58 736.198C1419.1 736.198 1418.78 736.359 1418.29 736.198C1417.97 736.037 1417.81 735.876 1417.65 735.554C1415.72 733.622 1411.21 728.792 1411.21 725.894C1411.21 725.089 1411.69 724.123 1412.01 723.318C1414.05 719.454 1416.09 715.59 1418.13 711.726C1419.9 708.183 1426.02 710.277 1429.24 710.76C1433.27 711.404 1436.81 710.277 1440.83 709.794C1441.96 709.633 1443.09 709.632 1444.05 710.276C1445.99 711.565 1446.95 714.946 1448.4 716.878C1450.17 719.293 1451.78 721.225 1452.91 724.284C1453.66 726.753 1454.41 729.168 1455.16 731.529C1455.32 731.851 1455.48 732.334 1455.81 732.495C1456.13 732.656 1456.45 732.656 1456.77 732.495C1458.6 732.28 1460.37 732.012 1462.09 731.69C1462.73 731.529 1463.37 731.368 1463.53 730.885C1463.7 730.241 1463.05 729.758 1462.57 729.597C1461.92 729.436 1461.28 729.436 1460.64 729.436C1459.35 729.275 1458.38 728.47 1457.74 727.343C1457.09 726.377 1456.77 725.089 1456.45 723.962C1453.71 714.785 1450.17 704.802 1451.14 694.981C1451.46 694.766 1451.83 694.552 1452.26 694.337C1454.52 693.371 1456.93 692.888 1459.19 691.761C1465.14 688.541 1465.47 682.262 1467.72 675.822C1468.53 673.729 1472.07 673.246 1473.68 671.636C1474.48 670.992 1476.25 668.899 1475.93 667.128C1475.61 665.518 1476.25 665.035 1475.77 664.713Z" fill="#7C3A15"/>
<path d="M1495.9 655.696C1494.13 655.052 1493.48 654.73 1491.71 655.052C1489.78 655.535 1485.43 658.111 1485.91 658.916C1486.56 659.721 1502.34 660.043 1502.66 659.399C1502.98 658.755 1498.31 656.501 1495.9 655.696Z" fill="#7C3A15"/>
<path d="M1502.5 691.117C1501.64 689.722 1500.73 688.326 1499.76 686.931C1498.63 685.16 1496.38 682.101 1495.09 680.008C1498.31 682.423 1499.28 684.033 1502.98 685.643C1505.07 686.448 1509.74 687.253 1511.51 685.965C1512.96 684.999 1509.74 684.516 1509.74 684.516C1508.45 684.033 1507.01 684.194 1505.72 683.711C1503.14 682.906 1500.89 681.457 1499.12 679.525C1495.41 676.144 1493.64 671.153 1492.03 666.483C1494.61 666.161 1496.7 663.907 1496.86 661.331C1497.02 658.755 1495.25 656.34 1492.84 655.535L1490.9 656.823C1488.97 657.95 1488.97 660.687 1488.33 662.941C1487.36 666 1484.79 668.254 1483.18 671.153C1480.6 675.661 1480.6 681.135 1480.92 686.287C1481.24 688.863 1481.41 691.6 1482.37 694.015C1484.79 700.294 1487.52 706.412 1486.4 713.496C1486.07 715.589 1485.59 717.683 1485.91 719.776C1493.21 718.38 1500.51 716.931 1507.81 715.429C1508.29 715.429 1508.78 715.268 1508.94 714.946C1509.1 714.624 1508.94 714.302 1508.94 713.98C1508.51 711.189 1508.08 708.398 1507.65 705.607C1507.17 702.387 1506.68 699.006 1505.23 696.108C1504.38 694.391 1503.46 692.727 1502.5 691.117Z" fill="#7C3A15"/>
<path d="M1492.68 715.911C1492.19 717.844 1491.55 721.708 1491.39 723.801C1491.23 725.089 1495.74 723.479 1497.99 722.996C1498.15 722.191 1497.02 721.869 1496.22 722.03C1495.57 722.191 1494.45 722.03 1494.29 721.225C1494.18 721.117 1494.18 720.956 1494.29 720.742C1494.61 718.166 1495.25 716.073 1496.22 713.657" fill="#7C3A15"/>
<path d="M1503.3 712.048C1503.3 712.048 1504.75 721.708 1505.07 721.869C1505.39 722.191 1509.42 721.386 1511.67 720.903C1512 720.098 1510.87 719.776 1510.06 719.937C1509.26 720.098 1507.81 719.937 1507.33 719.615C1507 719.293 1506.2 711.082 1506.2 711.082" fill="#7C3A15"/>
<path d="M1455.32 684.516C1456.77 695.786 1465.63 701.099 1476.58 701.099C1489.13 701.099 1500.08 694.015 1509.26 686.287C1509.9 685.804 1509.1 684.999 1508.62 685.482C1500.73 691.6 1492.52 697.557 1482.69 699.489C1470.62 701.743 1458.22 697.557 1455.97 684.355C1455.81 684.033 1455.32 684.194 1455.32 684.516Z" fill="#7C3A15"/>
<path d="M1450.49 688.219C1455.97 685.965 1458.87 686.126 1464.02 688.863C1465.95 689.829 1467.72 690.795 1469.65 691.6C1473.68 693.371 1478.02 694.498 1482.37 694.659C1491.07 694.659 1499.6 690.151 1506.68 685.804C1507.01 685.643 1506.84 685.321 1506.52 685.482C1495.09 690.312 1485.59 696.269 1472.71 691.922C1463.37 688.702 1459.99 683.55 1450.33 688.058C1450.17 688.058 1450.33 688.38 1450.49 688.219Z" fill="#7C3A15"/>
<path d="M1218.49 750.849C1218.49 750.849 1211.89 762.12 1211.56 763.73C1211.4 765.34 1215.11 774.195 1215.43 774.195C1215.91 774.034 1219.61 774.678 1219.61 777.737L1214.62 778.059L1212.69 775.966L1207.22 764.696L1210.76 742.638L1218.49 745.214V750.849Z" fill="#7C3A15"/>
<path d="M1253.75 742.155C1254.87 743.282 1255.68 744.57 1256.48 745.858C1257.45 747.146 1258.36 748.488 1259.22 749.884C1259.54 750.528 1260.03 751.172 1260.03 751.816C1260.03 752.46 1259.86 752.943 1259.7 753.426C1258.74 756.324 1255.36 761.959 1257.93 764.535C1258.74 765.501 1260.51 765.662 1260.51 766.95C1258.9 767.755 1256.81 768.077 1254.87 767.594C1254.55 767.433 1254.39 767.433 1254.23 767.272C1253.75 766.789 1253.75 766.145 1253.91 765.662C1254.44 762.012 1254.93 758.309 1255.36 754.553C1255.52 753.265 1255.68 751.977 1255.36 750.689C1254.71 748.757 1252.94 747.468 1251.49 745.858C1250.04 744.409 1248.92 742.155 1249.72 740.384C1251.33 740.384 1252.62 741.189 1253.75 742.155Z" fill="#7C3A15"/>
<path d="M1208.99 724.123C1207.27 726.914 1205.61 729.651 1204 732.334C1203.51 733.139 1202.87 734.105 1202.55 735.071C1202.06 736.52 1202.06 738.13 1202.39 739.74C1202.55 741.511 1203.03 743.443 1204.16 744.892C1206.09 747.146 1209.79 747.951 1210.76 750.688C1210.92 751.493 1211.08 752.459 1211.89 752.781C1212.53 753.103 1213.5 752.298 1213.5 751.332C1213.5 750.527 1212.85 749.883 1212.21 749.239C1210.76 747.951 1208.99 746.985 1207.38 745.858C1205.77 744.731 1204.32 743.121 1203.84 741.189C1203.35 738.613 1205.12 736.037 1206.57 733.944C1208.02 731.69 1209.47 728.953 1208.34 726.538" fill="#7C3A15"/>
<path d="M1286.91 699.328C1286.59 699.167 1286.27 699.006 1285.63 698.845C1283.37 698.201 1279.83 699.811 1277.25 699.328C1275.97 699.167 1274.52 698.845 1273.23 699.489C1270.97 700.616 1271.46 703.836 1271.62 706.412C1272.1 710.438 1270.81 715.107 1267.27 717.2C1260.83 721.225 1248.43 716.073 1245.21 709.633C1244.09 707.379 1242.64 704.319 1240.22 704.963C1239.1 705.124 1238.29 706.251 1237.65 707.218C1234.43 712.209 1231.37 720.903 1224.44 720.42C1221.06 720.098 1217.68 718.005 1214.3 718.649C1211.72 719.132 1209.63 721.386 1208.5 723.64C1206.09 728.631 1206.09 737.003 1209.15 741.35C1213.33 747.468 1216.39 751.977 1217.68 759.544C1217.84 760.993 1218.16 762.603 1218.81 764.052C1220.1 766.467 1222.67 767.755 1224.44 770.009C1225.57 771.458 1226.05 773.068 1226.38 775.161C1229.17 774.946 1231.9 774.463 1234.59 773.712C1234.1 772.102 1232.49 770.814 1230.72 770.814C1230.24 770.814 1229.92 770.814 1229.43 770.653C1229.11 770.653 1228.95 770.331 1228.79 770.17C1226.86 768.238 1222.35 763.247 1222.35 760.51C1222.35 759.544 1222.83 758.739 1223.16 757.934C1225.2 754.07 1227.23 750.152 1229.27 746.18C1231.05 742.638 1237.16 744.731 1240.38 745.375C1244.41 746.019 1247.95 744.731 1251.98 744.409C1253.1 744.248 1254.23 744.248 1255.2 744.892C1257.13 746.18 1258.09 749.4 1259.54 751.332C1261.31 753.908 1262.92 755.841 1264.05 758.9C1264.8 761.261 1265.55 763.676 1266.3 766.145C1266.47 766.467 1266.63 766.789 1266.95 767.111C1267.27 767.272 1267.59 767.111 1267.91 767.111C1269.74 766.789 1271.51 766.521 1273.23 766.306C1273.87 766.145 1274.52 765.984 1274.68 765.501C1274.84 764.857 1274.19 764.213 1273.71 764.052C1273.07 763.891 1272.42 764.052 1271.78 764.052C1270.49 763.891 1269.52 762.925 1268.88 761.959C1268.24 760.832 1267.91 759.705 1267.59 758.578C1264.86 749.4 1261.31 739.418 1262.28 729.597C1262.6 729.382 1262.98 729.168 1263.41 728.953C1265.66 727.826 1268.08 727.343 1270.17 726.216C1276.29 723.157 1276.61 716.717 1278.86 710.438C1279.67 708.345 1283.21 707.861 1284.82 706.251C1285.63 705.446 1287.4 703.353 1287.07 701.743C1286.75 700.133 1287.4 699.65 1286.91 699.328Z" fill="#7C3A15"/>
<path d="M1268.4 718.971C1284.18 721.225 1300.6 715.912 1313.32 706.413C1313.8 705.93 1313.32 705.124 1312.67 705.446C1298.99 714.785 1284.82 718.649 1268.4 718.81C1268.24 718.81 1268.24 718.971 1268.4 718.971Z" fill="#7C3A15"/>
<path d="M-185.626 575.195C-185.626 575.195 -49.7388 508.539 70.3699 435.121C119.959 404.853 191.123 381.99 220.103 381.99C331.196 381.99 482.378 521.741 725.01 614.479C965.711 706.734 1485.59 833.444 1533.89 961.764C1582.19 1090.08 827.731 1294.72 827.731 1294.72L-374 1270.73L-185.626 575.195Z" fill="url(#paint7_linear_334_304)"/>
<path d="M-185.626 575.195L-374 1270.73L444.059 1287.15C868.626 1181.7 551.61 1061.75 551.61 977.704C551.61 882.872 857.999 861.781 804.224 769.687C750.288 677.432 161.82 652.798 142.822 575.195C123.018 494.21 250.694 488.897 258.422 433.35C264.701 388.43 220.103 381.99 220.103 381.99C191.123 381.99 119.959 404.853 70.3699 435.121C-49.7388 508.539 -185.626 575.195 -185.626 575.195Z" fill="url(#paint8_linear_334_304)"/>
<path d="M714.868 874.5C481.252 879.008 365.329 859.044 260.194 861.137C166.168 862.908 -42.1711 911.692 -84.998 921.835C-43.9421 952.104 23.6794 954.197 92.2669 990.906C181.946 1039.05 380.463 1067.38 664.313 1009.42C948.001 951.299 874.905 954.197 1226.86 854.536C1356.47 817.988 1429.72 839.562 1464.66 812.997C1492.03 792.227 1466.27 777.576 1466.27 777.576C1298.67 756.968 910.004 870.636 714.868 874.5Z" fill="url(#paint9_linear_334_304)"/>
<path d="M699.594 1108.42C465.978 1112.93 350.056 1092.96 244.92 1095.06C150.894 1096.83 -57.4445 1145.61 -100.271 1155.76C-59.2156 1186.02 8.40596 1188.12 76.9935 1224.83C166.672 1272.97 365.19 1301.3 649.039 1243.34C932.728 1185.22 859.632 1188.12 1211.59 1088.46C1341.19 1051.91 1414.45 1073.48 1449.39 1046.92C1476.76 1026.15 1451 1011.5 1451 1011.5C1283.39 990.888 894.731 1104.56 699.594 1108.42Z" fill="url(#paint10_linear_334_304)"/>
<path style="mix-blend-mode:multiply" opacity="0.5" d="M2312.67 220.279L104.181 496.4L2313.63 462.428L2312.67 220.279Z" fill="url(#paint11_linear_334_304)"/>
<g style="mix-blend-mode:multiply" opacity="0.3">
<path d="M429.086 288.222C409.443 288.867 389.64 283.07 373.54 271.8C356.312 259.886 338.119 240.887 318.476 248.133C311.553 250.548 306.24 256.022 299.639 258.759C277.582 268.097 254.88 246.684 231.052 243.947C225.094 243.302 218.01 244.429 215.273 249.743C211.087 257.793 217.205 276.147 202.876 276.791C199.334 276.952 195.953 275.342 192.572 274.376C189.03 273.41 185.004 273.088 182.428 275.503C180.657 277.274 180.013 279.689 178.886 281.943C176.31 287.095 171.319 290.799 166.006 292.731C160.693 294.824 151.194 298.849 145.559 299.493C237.17 298.044 372.574 300.942 464.346 299.493C454.846 291.926 441.161 287.739 429.086 288.222Z" fill="url(#paint12_linear_334_304)"/>
</g>
<g style="mix-blend-mode:multiply" opacity="0.3">
<path d="M2095.31 432.965C2094.02 415.415 2090.64 397.866 2084.2 381.443C2061.34 323.321 1993.56 279.206 1930.77 294.985C1891.96 304.645 1857.83 331.693 1839.48 367.275C1828.85 388.045 1820.96 413.644 1799.39 422.177C1760.1 437.473 1725.33 380.799 1683.14 383.214C1655.77 384.986 1637.26 410.585 1620.19 431.999C1603.12 453.573 1578.65 470.961 1552.89 461.301C1545 458.403 1538.4 452.607 1530.83 448.582C1506.2 435.219 1464.66 438.117 1441.8 454.056C1418.61 470.317 1404.28 514.271 1380.13 522.805C1353.89 532.143 1316.54 518.779 1293.51 518.94C1243.12 519.584 1206.57 524.737 1163.1 546.15C1163.1 546.15 1901.3 546.15 1960.55 546.15C2047.17 546.15 2076.31 516.203 2090.97 479.334C2096.76 464.843 2096.44 448.582 2095.31 432.965Z" fill="url(#paint13_linear_334_304)"/>
</g>
<path fill-rule="evenodd" clip-rule="evenodd" d="M303.199 604.542C305.234 605.259 307.256 606.028 309.265 606.85C311.26 607.502 313.179 608.468 315.056 608.926C316.426 609.425 317.754 609.418 319.12 609.254C319.354 609.2 319.535 609.134 319.665 609.055C319.86 608.937 319.779 608.586 319.699 608.235C319.581 608.041 319.306 607.808 318.994 607.732C317.738 606.762 316.293 606.575 314.767 606.038C310.227 604.267 306.034 601.753 302.345 598.533C307.457 597.957 312.775 599.254 317.357 601.532C318.845 602.226 319.982 603.001 321.042 604.088C322.194 605.253 323.372 606.314 324.575 607.27C325.006 607.541 325.281 607.774 325.712 608.044C326.181 608.159 326.807 608.312 327.314 608.27C328.174 608.369 329.046 608.416 329.931 608.411C330.088 608.449 330.244 608.487 330.282 608.331C330.672 608.094 330.591 607.743 330.317 607.51C330.118 606.965 329.687 606.694 329.256 606.423C327.295 604.95 325.296 603.634 323.53 602.043C321.92 600.491 320.115 599.056 319.089 597.148C325.132 597.739 331.061 598.798 336.875 600.327C338.439 600.708 339.965 601.246 341.259 602.059C343.101 603.337 344.127 605.244 345.386 606.877C345.964 607.681 346.619 608.393 347.351 609.014C348.175 609.712 348.766 610.685 349.823 611.108C350.411 611.417 351.193 611.608 351.819 611.761C352.574 611.834 353.329 611.908 354.085 611.982C354.293 612.033 354.502 612.084 354.71 612.135C354.893 612.29 355.077 612.445 355.26 612.6C355.847 612.909 356.786 613.138 357.606 613.172C359.365 613.436 361.162 613.543 362.68 612.753C362.836 612.791 363.031 612.673 363.107 612.36C363.146 612.203 363.027 612.009 362.909 611.814C361.599 610.39 360.134 609.149 358.514 608.091C357.652 607.549 356.595 607.125 355.771 606.427C355.103 605.767 354.474 604.951 354.001 604.173C352.822 602.891 351.449 601.727 350.27 600.445C349.72 599.98 349.209 599.358 348.622 599.049C348.191 598.778 347.721 598.664 347.134 598.355C343.097 595.878 340.003 594.295 336.352 590.919C332.583 587.348 328.425 584.013 323.568 581.503C311.936 575.517 298.156 576.299 285.147 575.28C275.262 574.36 265.099 572.544 255.546 575.02C255.038 575.062 254.493 575.26 254.065 575.653C253.329 576.634 254.313 578.034 255.099 578.889C261.146 584.672 267.693 589.086 274.624 592.6C283.594 597.274 293.337 600.811 303.199 604.542ZM503.102 612.534C503.755 613.025 504.422 613.463 505.101 613.85C505.963 614.392 506.669 614.895 507.493 615.593C507.886 616.021 508.79 617.07 509.339 617.535C510.713 618.699 511.96 618.34 513.601 618.409C513.913 618.485 514.264 618.405 514.615 618.325C514.966 618.245 515.199 617.97 515.276 617.657C515.234 617.15 514.959 616.917 514.684 616.685C514.239 616.245 513.846 615.817 513.505 615.403C512.877 614.808 512.197 614.2 511.464 613.579C509.11 611.679 506.291 610.329 503.434 609.134C500.733 607.978 498.188 606.861 495.605 605.899C495.018 605.59 494.197 605.556 493.648 605.09C493.335 605.014 493.099 604.625 492.629 604.51C491.336 603.698 489.966 603.198 488.597 602.698C482.489 599.883 476.381 597.067 470.082 595.033L450.378 597.685C457.619 600.611 485.648 612.751 492.889 615.677C493.633 616.024 494.258 616.177 494.964 616.681C495.826 617.222 496.57 617.57 497.547 617.642C498.173 617.795 498.68 617.753 499.344 617.749C500.437 617.795 501.596 617.801 502.819 617.768C502.819 617.768 502.976 617.806 503.014 617.65C503.039 617.545 503 617.481 502.896 617.455C502.384 616.833 501.251 616.723 500.74 616.101C500.034 615.597 499.912 614.739 499.596 613.999C499.203 613.571 498.653 613.106 498.455 612.56C498.244 612.067 498.15 611.547 498.173 611C498.198 610.896 498.288 610.752 498.444 610.569C498.482 610.412 498.638 610.451 498.951 610.527C499.615 610.523 500.202 610.832 500.79 611.141C501.548 611.657 502.318 612.122 503.102 612.534ZM443.628 612.445C445.391 613.372 446.883 614.73 448.645 615.657C449.977 616.314 451.541 616.695 453.105 617.077C453.731 617.229 454.356 617.382 455.02 617.378C455.84 617.412 456.661 617.447 457.363 617.287C458.026 617.283 458.534 617.241 459.003 617.355C459.472 617.47 459.942 617.584 460.567 617.737C461.193 617.889 461.7 617.847 462.364 617.844C463.9 617.887 465.397 617.865 466.855 617.779C467.167 617.855 467.518 617.775 467.595 617.462C467.827 617.188 467.553 616.955 467.278 616.722C466.624 616.231 466.036 615.701 465.512 615.131C464.531 614.395 463.707 613.697 462.688 613.117C459.553 611.026 455.875 609.798 452.506 607.982C449.256 606.36 446.509 604.033 443.335 602.099C420.601 587.273 389.642 581.71 362.822 582.957C361.845 582.885 360.83 582.968 360.014 583.598C358.419 584.7 358.354 587.005 359.106 588.68C360.529 591.678 363.546 593.574 366.327 595.081C371.264 597.943 376.044 600.766 380.825 603.589C384.781 605.714 388.886 606.55 392.88 608.519C394.551 609.368 396.287 610.178 398.088 610.949C399.732 611.681 401.334 611.906 402.746 612.914C403.321 613.275 403.843 613.623 404.314 613.959C404.576 614.244 404.851 614.477 405.138 614.657C405.725 614.966 406.351 615.119 406.977 615.271C408.592 615.444 410.194 615.67 411.784 615.947C411.888 615.972 411.953 615.933 411.978 615.829C412.329 615.748 412.131 615.203 411.818 615.127C410.208 613.574 407.9 612.845 406.096 611.411C404.802 610.598 403.742 609.511 402.292 608.66C401.548 608.313 400.648 607.927 400.331 607.187C401.346 607.103 402.166 607.138 403.143 607.21C404.628 607.462 406.113 607.714 407.599 607.966C408.732 608.076 409.865 608.187 410.727 608.729C411.784 609.152 412.57 610.007 413.588 610.587C414.412 611.285 415.469 611.708 416.293 612.406C416.961 613.066 417.434 613.845 417.945 614.467C418.103 614.726 418.338 614.894 418.651 614.97C418.926 615.203 419.277 615.123 419.59 615.199C421.543 615.344 423.457 615.424 425.331 615.44C425.682 615.359 426.19 615.317 426.579 615.081C426.604 614.977 426.63 614.872 426.655 614.768C426.693 614.612 426.575 614.417 426.575 614.417C425.198 612.59 423.008 612.056 421.127 610.934C419.796 610.278 418.697 609.347 417.365 608.691C416.112 607.943 414.793 607.234 413.409 606.565C420.208 607.229 426.892 608.363 433.732 609.534C437.055 610.179 440.573 610.705 443.628 612.445ZM253.008 602.409C254.771 603.336 256.262 604.694 258.025 605.621C259.356 606.277 260.921 606.659 262.485 607.04C263.11 607.193 263.736 607.345 264.4 607.342C265.22 607.376 266.04 607.41 266.742 607.25C267.406 607.246 267.914 607.204 268.383 607.319C268.852 607.433 269.321 607.548 269.947 607.7C270.573 607.853 271.08 607.811 271.744 607.807C273.28 607.85 274.777 607.829 276.234 607.742C276.547 607.819 276.898 607.739 276.974 607.426C277.207 607.151 276.932 606.918 276.658 606.686C276.004 606.195 275.415 605.664 274.891 605.095C273.911 604.358 273.087 603.66 272.068 603.08C268.932 600.989 265.255 599.761 261.886 597.945C258.048 596.015 254.519 593.497 250.605 591.879C249.235 591.379 236.745 585.515 244.237 584.691C245.252 584.607 246.191 584.836 247.206 584.752C251.616 584.336 253.691 578.545 253.123 574.761C252.474 570.625 250.323 569.935 246.492 569.332C236.527 568.061 226.696 569.64 216.773 568.877C206.186 568.118 195.943 565.951 185.245 566.324C174.666 566.893 163.885 566.252 153.343 566.663C162.396 579.147 177.119 586.052 190.204 593.553C194.161 595.678 198.266 596.513 202.26 598.482C203.931 599.332 205.667 600.142 207.467 600.912C209.112 601.645 210.714 601.87 212.126 602.877C212.701 603.238 213.223 603.587 213.694 603.923C213.956 604.207 214.23 604.44 214.518 604.621C215.105 604.93 215.731 605.082 216.357 605.235C217.972 605.408 219.574 605.633 221.164 605.91C221.268 605.936 221.333 605.896 221.358 605.792C221.709 605.712 221.511 605.166 221.198 605.09C219.588 603.537 217.28 602.809 215.475 601.374C214.182 600.561 213.121 599.474 211.672 598.623C210.928 598.276 210.027 597.891 209.711 597.151C210.726 597.067 211.546 597.101 212.523 597.174C214.008 597.425 215.493 597.677 216.979 597.929C218.112 598.04 219.245 598.15 220.107 598.692C221.164 599.116 221.95 599.97 222.968 600.55C223.792 601.248 224.849 601.672 225.673 602.37C226.341 603.03 226.814 603.808 227.325 604.43C227.483 604.69 227.718 604.857 228.031 604.934C228.305 605.166 228.656 605.086 228.969 605.163C230.923 605.308 232.836 605.388 234.711 605.403C235.062 605.323 235.569 605.281 235.958 605.044C235.984 604.94 236.009 604.836 236.035 604.732C236.073 604.575 235.955 604.381 235.955 604.381C234.577 602.553 232.388 602.019 230.507 600.897C229.175 600.241 228.077 599.31 226.745 598.654C225.491 597.906 224.173 597.198 222.789 596.529C229.587 597.193 236.271 598.326 243.112 599.497C246.435 600.142 249.952 600.669 253.008 602.409Z" fill="#FFCE82"/>
<path d="M334.232 581.95C334.232 581.95 325.854 591.838 325.278 593.521C324.74 595.047 326.941 604.367 327.292 604.287C327.761 604.401 331.283 605.592 330.871 608.64L325.713 608.045L324.293 605.71L320.749 593.742L327.93 572.457L335.098 576.36L334.232 581.95Z" fill="#855A41"/>
<path d="M360.33 584.338C360.384 584.572 360.437 584.806 360.491 585.04C361.128 587.184 360.987 589.801 361.078 592.144C361.391 596.75 361.326 601.319 360.883 605.851C360.853 607.335 360.784 608.976 361.726 609.869C362.669 610.761 364.428 611.025 364.473 612.196C362.76 613.104 360.693 613.428 358.816 612.97C358.503 612.894 358.346 612.856 358.072 612.623C357.679 612.196 357.675 611.532 357.827 610.906C358.766 604.341 358.102 597.55 355.84 591.198C355.401 589.599 353.002 586.528 354.085 584.803C354.86 583.667 357.08 582.717 358.286 581.851C359.228 582.743 359.896 583.403 360.33 584.338Z" fill="#855A41"/>
<path d="M397.757 546.402C400.996 546.032 402.793 546.139 403.129 543.403C403.468 541.332 400.542 541.778 399.253 541.629C396.166 541.373 394.446 540.954 391.741 539.134C390.329 538.127 388.567 537.2 386.774 537.757C385.331 538.234 384.443 539.84 383.943 541.209C383.561 542.773 383.649 544.452 383.305 545.86C382.21 552.387 373.443 562.513 366.313 558.453C363.726 556.828 362.109 553.947 361.701 550.865C361.296 548.446 360.964 545.051 358.542 544.791C357.252 544.642 356.241 545.39 355.23 546.138C350.683 549.835 345.063 557.247 338.604 554.512C335.434 553.241 332.878 550.132 329.517 549.644C326.938 549.346 324.29 550.689 322.31 552.692C317.652 557.522 316.801 565.766 316.877 572.248C316.961 586.852 310.734 590.636 312.085 594.612C312.84 596.95 313.05 599.487 313.298 601.868C313.461 603.012 313.611 604.209 313.748 605.458C313.832 606.473 313.489 607.881 314.507 608.46C314.795 608.641 315.055 608.705 315.289 608.651C316.228 608.88 317.127 609.044 317.987 609.143C318.769 609.334 319.433 609.33 320.016 608.976C319.623 608.548 319.658 607.728 319.265 607.301C319.146 607.106 318.872 606.873 318.559 606.797C318.167 606.591 317.776 606.385 317.384 606.179C317.227 606.141 316.953 605.908 316.835 605.714C316.56 605.481 316.636 605.168 316.518 604.974C316.187 601.799 315.961 598.651 315.839 595.527C315.797 595.02 315.873 594.707 315.988 594.238C316.064 593.925 316.18 593.677 316.335 593.494C317.571 591.144 318.494 588.717 320.2 586.482C321.867 584.403 323.809 582.556 325.907 580.748C326.994 579.687 328.238 578.665 329.799 578.383C332.606 577.742 335.159 580.187 337.589 581.774C343.35 585.334 350.686 584.472 357.294 585.918C358.232 586.147 359.484 586.452 360.075 587.425C360.586 588.047 360.746 588.749 360.907 589.451C361.151 591.167 361.46 592.845 361.834 594.483C361.998 595.849 362.589 596.821 361.856 598.466C361.318 599.992 359.525 600.549 357.66 602.082C355.561 603.891 353.433 607.183 351.609 609.224C351.182 609.617 350.911 610.048 350.991 610.399C351.227 610.788 351.54 610.864 351.697 610.903C353.184 611.597 354.775 612.096 356.469 612.398C356.977 612.356 357.835 612.234 357.793 611.727C357.713 611.376 357.438 611.143 357.282 611.105C356.733 610.639 356.131 610.161 355.477 609.67C357.488 606.183 361.147 604.093 363.943 601.46C367.129 598.592 368.125 595.189 368.178 590.893C368.296 584.293 370.666 575.259 374.656 569.769C377.602 565.847 381.81 564.222 383.775 559.564C385.049 557.057 387.494 554.505 389.043 552.231C391.248 548.626 393.816 546.932 397.757 546.402Z" fill="#855A41"/>
<path d="M351.771 521.595C349.627 522.233 348.666 524.815 347.388 526.658C345.568 529.363 342.256 530.71 339.925 532.792C336.08 536.329 334.469 541.571 333.092 546.538C332.482 549.041 331.833 551.7 332.043 554.237C332.214 556.93 333.05 559.62 335.129 561.287C336.621 562.645 338.811 563.18 340.726 563.481C344.362 564.202 348.772 563.786 350.668 560.769C352.061 558.457 351.652 555.374 350.622 552.803C349.787 550.113 348.406 547.622 348.585 544.848C350.481 548.625 353.858 551.769 357.81 553.23C357.39 552.686 356.919 552.129 356.395 551.559C355.017 549.732 353.446 548.022 352.458 545.958C350.088 541.403 350.02 536.249 349.913 531.251C352.454 531.705 355.14 530.206 356.025 527.936C357.105 525.548 356.189 522.507 354.034 521.153" fill="#855A41"/>
<path d="M356.928 522.19C355.398 520.989 354.849 520.523 353.09 520.26C351.137 520.115 346.223 521.236 346.502 522.133C346.742 523.186 361.533 528.451 362.155 527.94C362.658 527.234 358.889 523.663 356.928 522.19Z" fill="#855A41"/>
<path d="M388.472 547.782C385.404 557.641 382.543 569.372 372.181 573.805C359.599 579.188 351.21 566.701 344.873 558.029C344.636 557.64 344.209 558.033 344.289 558.384C349.382 568.078 358.313 579.703 370.865 575.804C382.715 572.065 386.934 558.842 389.097 547.935C389.174 547.622 388.548 547.47 388.472 547.782Z" fill="#855A41"/>
<path d="M417.843 589.749C417.843 589.749 408.759 599.134 408.065 600.622C407.527 602.148 409.026 611.628 409.339 611.704C409.808 611.819 413.292 613.166 412.567 616.138L407.641 615.268L406.222 612.933L403.575 600.686L412.281 579.94L419.179 584.274L417.843 589.749Z" fill="#855A41"/>
<path d="M456.679 590.677C457.545 591.882 458.022 593.324 458.499 594.766C459.107 596.351 459.675 597.871 460.204 599.325C460.364 600.027 460.681 600.768 460.528 601.393C460.376 602.019 460.105 602.45 459.796 603.037C458.209 605.468 453.551 610.298 455.443 613.411C456.034 614.383 457.678 615.116 457.411 616.211C455.618 616.768 453.547 616.428 451.784 615.501C451.471 615.425 451.353 615.23 451.235 615.036C450.842 614.609 451.033 613.826 451.303 613.395C452.69 609.977 454.024 606.546 455.306 603.102C455.767 601.889 456.267 600.519 456.259 599.192C456.092 597.162 454.676 595.491 453.612 593.74C452.586 591.832 451.987 589.532 453.227 587.846C454.753 588.384 455.851 589.315 456.679 590.677Z" fill="#855A41"/>
<path d="M414.91 561.689C412.605 563.889 410.353 566.102 408.153 568.327C407.455 569.151 406.638 569.781 406.058 570.799C405.246 572.092 404.864 573.657 404.834 575.141C404.57 576.899 404.582 578.891 405.333 580.566C406.676 583.213 410.083 584.873 410.335 587.917C410.339 588.581 410.228 589.714 410.972 590.062C411.678 590.565 412.651 589.974 412.841 589.192C413.032 588.41 412.597 587.475 412.086 586.853C411.022 585.102 409.53 583.744 408.233 582.267C406.936 580.791 405.871 579.04 405.898 576.892C406.039 574.275 408.332 572.348 410.274 570.502C412.216 568.655 414.272 566.339 413.75 563.726" fill="#855A41"/>
<path d="M496.53 555.91C496.256 555.677 495.981 555.445 495.394 555.136C493.356 553.976 489.533 554.701 487.107 553.777C485.932 553.159 484.601 552.503 483.197 552.824C480.74 553.384 480.446 556.627 479.992 559.168C479.507 563.193 477.15 567.424 473.212 568.618C466.002 571.002 455.14 563.215 453.538 556.196C452.977 553.739 452.333 550.267 449.834 550.32C448.701 550.21 447.652 551.114 446.759 552.056C442.486 555.986 437.454 563.707 430.842 561.598C427.634 560.483 424.845 557.649 421.369 557.63C418.752 557.489 416.223 559.026 414.556 561.105C411.065 565.225 409.081 573.359 410.984 578.464C413.64 585.243 415.543 590.348 415.001 598.005C414.776 599.607 414.746 601.091 415.028 602.651C415.707 605.303 417.867 607.321 419.091 609.774C419.805 611.605 419.892 613.284 419.747 615.237C422.509 615.69 425.283 615.869 428.068 615.775C427.98 614.097 426.721 612.464 425 612.044C424.531 611.93 424.18 612.01 423.749 611.739C423.475 611.506 423.356 611.312 423.276 610.961C421.857 608.626 418.622 602.865 419.309 600.049C419.499 599.267 420.198 598.443 420.701 597.738C423.598 594.467 426.495 591.196 429.392 587.925C431.952 584.904 437.4 588.387 440.414 589.619C444.172 591.199 447.88 590.943 451.905 591.428C453.038 591.539 454.133 591.806 454.919 592.66C456.491 594.369 456.628 597.883 457.578 600.104C458.726 602.869 459.832 605.128 460.202 608.367C460.347 610.943 460.505 613.468 460.675 615.94C460.756 616.291 460.797 616.798 461.072 617.031C461.347 617.264 461.66 617.34 462.011 617.26C463.834 617.484 465.618 617.643 467.363 617.737C468.027 617.733 468.691 617.729 468.962 617.298C469.271 616.711 468.76 616.089 468.328 615.818C467.741 615.509 467.115 615.356 466.489 615.204C465.276 614.742 464.529 613.731 464.17 612.484C463.773 611.392 463.766 610.065 463.72 608.893C463.235 599.329 462.16 588.792 465.426 579.479C465.789 579.347 466.205 579.228 466.673 579.121C469.092 578.716 471.553 578.819 474.01 578.259C480.56 576.542 482.361 570.518 486.077 564.795C487.355 562.953 490.911 563.323 492.856 562.14C493.791 561.705 496.008 560.091 496.114 558.295C496.183 556.654 496.923 556.337 496.53 555.91Z" fill="#855A41"/>
<path d="M518.218 551.92C516.65 550.875 516.101 550.409 514.304 550.303C512.313 550.314 507.479 551.787 507.758 552.683C508.192 553.618 523.445 557.67 523.911 557.12C524.376 556.571 520.374 553.275 518.218 551.92Z" fill="#855A41"/>
<path d="M516.237 587.896C515.734 586.337 515.178 584.765 514.57 583.181C513.895 581.193 512.43 577.687 511.675 575.348C514.231 578.457 514.788 580.251 518.004 582.692C519.847 583.97 524.192 585.859 526.218 585.027C527.855 584.432 524.841 583.2 524.841 583.2C523.704 582.425 522.258 582.238 521.121 581.464C518.809 580.071 516.963 578.129 515.7 575.833C512.903 571.67 512.365 566.402 511.908 561.484C514.487 561.782 517.054 560.088 517.821 557.623C518.588 555.159 517.44 552.393 515.284 551.039L513.102 551.832C510.958 552.469 510.309 555.128 509.15 557.166C507.486 559.909 504.449 561.488 502.198 563.922C498.627 567.691 497.33 573.009 496.422 578.091C496.125 580.67 495.632 583.367 495.998 585.942C496.857 592.615 498.066 599.207 495.292 605.823C494.484 607.78 493.518 609.699 493.335 611.809C500.757 612.183 508.191 612.504 515.638 612.774C516.107 612.889 516.615 612.847 516.847 612.572C517.08 612.297 517 611.946 517.076 611.634C517.321 608.821 517.565 606.008 517.809 603.195C518.103 599.952 518.435 596.552 517.714 593.394C517.287 591.522 516.794 589.689 516.237 587.896Z" fill="#855A41"/>
<path d="M500.821 609.657C499.894 611.42 498.352 615.021 497.7 617.016C497.238 618.23 502 617.734 504.304 617.799C504.651 617.055 503.632 616.475 502.812 616.44C502.148 616.444 501.092 616.021 501.126 615.201C501.047 615.071 501.085 614.914 501.24 614.731C502.164 612.305 503.285 610.424 504.796 608.307" fill="#855A41"/>
<path d="M512.06 608.421C512.06 608.421 511.179 618.15 511.454 618.383C511.69 618.772 515.791 618.944 518.096 619.008C518.599 618.303 517.581 617.723 516.76 617.688C515.94 617.654 514.57 617.154 514.177 616.727C513.941 616.338 515.105 608.17 515.105 608.17" fill="#855A41"/>
<path d="M471.972 570.304C470.709 581.597 478.053 588.857 488.689 591.452C500.89 594.428 513.205 590.14 523.952 584.806C524.692 584.49 524.101 583.517 523.517 583.872C514.403 587.946 505.014 591.788 495.015 591.337C482.749 590.666 471.697 583.661 472.636 570.301C472.556 569.95 472.048 569.991 471.972 570.304Z" fill="#855A41"/>
<path d="M466.402 572.757C472.254 571.865 475.032 572.708 479.389 576.588C481.037 577.984 482.528 579.342 484.215 580.582C487.705 583.257 491.661 585.382 495.846 586.568C504.293 588.628 513.652 586.271 521.564 583.726C521.915 583.646 521.835 583.295 521.484 583.375C509.234 585.359 498.593 588.895 487.11 581.62C478.801 576.279 476.737 570.472 466.284 572.563C466.127 572.524 466.207 572.875 466.402 572.757Z" fill="#855A41"/>
<path d="M226.163 578.625C226.163 578.625 217.079 588.01 216.384 589.498C215.846 591.024 217.346 600.504 217.659 600.581C218.166 600.539 221.611 602.042 220.886 605.014L215.961 604.144L214.58 601.653L211.932 589.406L220.6 568.816L227.498 573.15L226.163 578.625Z" fill="#855A41"/>
<path d="M262.478 578.534C263.306 579.896 263.783 581.338 264.26 582.78C264.893 584.26 265.461 585.78 265.965 587.339C266.125 588.041 266.442 588.781 266.289 589.407C266.137 590.033 265.866 590.464 265.595 590.895C263.97 593.481 259.349 598.155 261.242 601.268C261.795 602.397 263.477 602.973 263.172 604.225C261.417 604.625 259.307 604.442 257.545 603.515C257.27 603.282 257.114 603.244 256.995 603.05C256.641 602.466 256.793 601.84 257.064 601.409C258.45 597.991 259.797 594.508 261.105 590.96C261.566 589.746 262.028 588.533 262.02 587.206C261.852 585.176 260.437 583.505 259.411 581.597C258.346 579.846 257.786 577.389 258.987 575.86C260.552 576.241 261.612 577.328 262.478 578.534Z" fill="#855A41"/>
<path d="M223.267 550.409C220.937 552.713 218.672 554.978 216.472 557.203C215.812 557.871 214.958 558.657 214.416 559.519C213.603 560.812 213.222 562.376 213.153 564.017C212.89 565.776 212.901 567.767 213.653 569.442C214.996 572.09 218.402 573.749 218.692 576.637C218.658 577.457 218.585 578.434 219.291 578.938C219.841 579.403 220.97 578.85 221.199 577.911C221.39 577.129 220.916 576.351 220.443 575.573C219.341 573.978 217.849 572.62 216.552 571.143C215.255 569.667 214.229 567.759 214.217 565.768C214.359 563.151 216.69 561.068 218.593 559.378C220.535 557.531 222.592 555.216 222.069 552.602" fill="#855A41"/>
<path d="M304.849 544.786C304.574 544.554 304.299 544.321 303.712 544.012C301.674 542.852 297.852 543.577 295.463 542.497C294.25 542.036 292.919 541.379 291.515 541.7C289.058 542.261 288.764 545.503 288.31 548.044C287.826 552.069 285.468 556.3 281.531 557.494C274.32 559.878 263.497 551.935 261.895 544.916C261.334 542.459 260.651 539.143 258.152 539.197C257.019 539.086 255.97 539.99 255.115 540.776C250.804 544.862 245.772 552.584 239.16 550.474C235.952 549.36 233.163 546.525 229.726 546.35C227.109 546.208 224.541 547.902 222.912 549.825C219.383 554.102 217.399 562.235 219.341 567.184C221.958 574.119 223.861 579.224 223.32 586.881C223.133 588.327 223.064 589.967 223.346 591.528C224.025 594.179 226.223 596.041 227.409 598.65C228.161 600.325 228.249 602.004 228.065 604.114C230.827 604.566 233.601 604.746 236.386 604.652C236.298 602.973 235.039 601.34 233.319 600.92C232.85 600.806 232.537 600.73 232.106 600.459C231.793 600.382 231.713 600.032 231.594 599.837C230.175 597.502 226.978 591.585 227.627 588.926C227.856 587.987 228.516 587.32 229.019 586.614C231.916 583.343 234.826 580.02 237.748 576.645C240.308 573.624 245.756 577.107 248.732 578.496C252.49 580.075 256.236 579.663 260.223 580.304C261.356 580.415 262.451 580.682 263.237 581.536C264.809 583.246 264.984 586.603 265.934 588.823C267.044 591.746 268.151 594.004 268.521 597.243C268.691 599.715 268.849 602.24 268.994 604.816C269.074 605.167 269.154 605.518 269.39 605.907C269.665 606.14 270.016 606.06 270.329 606.136C272.178 606.256 273.962 606.415 275.681 606.613C276.345 606.609 277.009 606.606 277.28 606.175C277.589 605.587 277.116 604.809 276.685 604.538C276.097 604.229 275.433 604.233 274.808 604.08C273.595 603.618 272.885 602.451 272.488 601.36C272.13 600.112 272.084 598.941 272.038 597.77C271.554 588.205 270.478 577.668 273.744 568.356C274.108 568.223 274.523 568.104 274.991 567.997C277.448 567.436 279.909 567.539 282.21 566.94C288.878 565.418 290.717 559.238 294.395 553.672C295.673 551.829 299.229 552.199 301.175 551.016C302.147 550.425 304.364 548.811 304.433 547.171C304.501 545.53 305.241 545.214 304.849 544.786Z" fill="#855A41"/>
<path d="M278.604 564.735C285.513 571.061 296.157 574.983 305.417 575.75C315.496 576.551 324.37 571.424 331.989 565.327C332.378 565.091 332.023 564.507 331.634 564.744C324.397 569.276 316.969 574.59 307.988 574.72C298.187 574.815 286.719 570.195 279.264 564.067C278.871 563.64 278.211 564.308 278.604 564.735Z" fill="#855A41"/>
<path d="M282.205 559.482C297 565.411 314.214 564.141 328.822 557.926C329.406 557.571 329.127 556.675 328.425 556.835C312.917 562.664 298.236 563.061 282.244 559.326C282.087 559.287 282.049 559.444 282.205 559.482Z" fill="#855A41"/>
</g>
<defs>
<linearGradient id="paint0_linear_334_304" x1="155417" y1="195073" x2="3.77945e+06" y2="195073" gradientUnits="userSpaceOnUse">
<stop offset="0.51" stop-color="#F9AC4B"/>
<stop offset="1" stop-color="#F9DA70"/>
</linearGradient>
<linearGradient id="paint1_linear_334_304" x1="265020" y1="171322" x2="1.77956e+06" y2="171322" gradientUnits="userSpaceOnUse">
<stop stop-color="#EDDC69" stop-opacity="0"/>
<stop offset="1" stop-color="#EE8424" stop-opacity="0.4"/>
</linearGradient>
<linearGradient id="paint2_linear_334_304" x1="91128.7" y1="530951" x2="3.91551e+06" y2="530951" gradientUnits="userSpaceOnUse">
<stop offset="0.44" stop-color="#F9B550"/>
<stop offset="1" stop-color="#F9DD85"/>
</linearGradient>
<linearGradient id="paint3_linear_334_304" x1="1.0358e+06" y1="273577" x2="1.8594e+06" y2="1.78706e+06" gradientUnits="userSpaceOnUse">
<stop offset="0.06" stop-color="#F9E185"/>
<stop offset="0.47" stop-color="#FFA23A"/>
</linearGradient>
<linearGradient id="paint4_linear_334_304" x1="242646" y1="237180" x2="303090" y2="85389.5" gradientUnits="userSpaceOnUse">
<stop offset="0.65" stop-color="#EF9D44"/>
<stop offset="0.94" stop-color="#F07B17"/>
</linearGradient>
<linearGradient id="paint5_linear_334_304" x1="957876" y1="919434" x2="1.48061e+06" y2="-198123" gradientUnits="userSpaceOnUse">
<stop offset="0.51" stop-color="#F9AC4B"/>
<stop offset="1" stop-color="#F9E994"/>
</linearGradient>
<linearGradient id="paint6_linear_334_304" x1="575471" y1="486597" x2="1.18861e+06" y2="486597" gradientUnits="userSpaceOnUse">
<stop offset="0.28" stop-color="#D9501C"/>
<stop offset="0.95" stop-color="#F98E2D"/>
</linearGradient>
<linearGradient id="paint7_linear_334_304" x1="-150891" y1="504391" x2="2.11508e+06" y2="504391" gradientUnits="userSpaceOnUse">
<stop offset="0.2" stop-color="#F9EA90"/>
<stop offset="0.79" stop-color="#F9B45A"/>
</linearGradient>
<linearGradient id="paint8_linear_334_304" x1="881529" y1="631823" x2="551582" y2="1.37963e+06" gradientUnits="userSpaceOnUse">
<stop stop-color="#DD6327"/>
<stop offset="0.36" stop-color="#F89F49"/>
</linearGradient>
<linearGradient id="paint9_linear_334_304" x1="155047" y1="215466" x2="1.677e+06" y2="215466" gradientUnits="userSpaceOnUse">
<stop stop-color="#D9501C" stop-opacity="0.1"/>
<stop offset="1" stop-color="#E68F32" stop-opacity="0.7"/>
</linearGradient>
<linearGradient id="paint10_linear_334_304" x1="155032" y1="215700" x2="1.67698e+06" y2="215700" gradientUnits="userSpaceOnUse">
<stop stop-color="#D9501C" stop-opacity="0.1"/>
<stop offset="1" stop-color="#E68F32" stop-opacity="0.7"/>
</linearGradient>
<linearGradient id="paint11_linear_334_304" x1="2.02197e+06" y1="81399.9" x2="2.02197e+06" y2="128755" gradientUnits="userSpaceOnUse">
<stop stop-color="#FBA146" stop-opacity="0.05"/>
<stop offset="1" stop-color="#DF4924" stop-opacity="0.1"/>
</linearGradient>
<linearGradient id="paint12_linear_334_304" x1="77897.7" y1="17564.8" x2="141018" y2="17564.8" gradientUnits="userSpaceOnUse">
<stop offset="0.51" stop-color="#F9A65A"/>
<stop offset="1" stop-color="#F9CA69"/>
</linearGradient>
<linearGradient id="paint13_linear_334_304" x1="818266" y1="86379.6" x2="1.35877e+06" y2="86379.6" gradientUnits="userSpaceOnUse">
<stop offset="0.14" stop-color="#F9E675"/>
<stop offset="0.63" stop-color="#F99749"/>
</linearGradient>
<clipPath id="clip0_334_304">
<rect width="1920" height="1295" fill="white"/>
</clipPath>
</defs>
</svg>
