<svg width="358" height="152" viewBox="0 0 358 152" fill="none" xmlns="http://www.w3.org/2000/svg">
<path d="M277.851 5.22924C256.206 -1.90761 230.926 7.01345 216.47 24.7004C202.787 5.53954 177.044 -4.00211 154.238 1.58324C131.355 7.09103 112.879 27.4155 109.4 50.6878C97.4176 47.197 84.3528 46.0334 72.6022 50.2224C60.8516 54.3338 50.8017 64.5736 49.1782 76.9855C40.4426 75.1238 31.475 73.3396 22.662 74.5807C13.8491 75.8219 4.95879 80.7867 1.47998 89.0096C-3.69956 101.189 5.42264 116.005 17.869 120.505C30.3154 125.082 44.3079 121.668 56.2131 115.85C67.1134 129.736 83.6571 138.967 101.206 140.829C118.677 142.691 136.844 137.183 150.373 125.935C164.752 142.148 186.398 151.69 207.966 151.302C229.612 150.914 250.871 140.674 264.709 123.996C279.398 135.554 313.181 149.207 328.951 132.839C335.6 125.857 337.532 114.764 333.59 105.998C343.253 106.076 352.684 99.7149 356.318 90.7162C359.951 81.7176 357.555 70.6245 350.52 63.9531C336.295 50.3775 321.066 59.6865 310.707 71.8656C310.861 45.0249 308.388 14.8485 277.851 5.22924Z" fill="white"/>
<path d="M109.4 50.6878C97.4176 47.197 84.3528 46.0334 72.6022 50.2224C60.8516 54.3338 50.8017 64.5736 49.1782 76.9855C40.4426 75.1238 31.475 73.3396 22.662 74.5807C13.8491 75.8219 4.95879 80.7867 1.47998 89.0096C-3.69956 101.189 5.42264 116.005 17.869 120.505C30.3154 125.082 44.3079 121.668 56.2131 115.85C67.1134 129.736 83.6571 138.967 101.206 140.829C118.677 142.691 136.844 137.183 150.373 125.935C164.752 142.148 186.398 151.69 207.966 151.302C229.612 150.914 250.871 140.674 264.709 123.996C279.398 135.554 313.181 149.207 328.951 132.839C335.6 125.857 337.532 114.764 333.59 105.998C343.253 106.076 352.684 99.7149 356.318 90.7162C359.951 81.7176 357.555 70.6245 350.52 63.9531C336.295 50.3775 321.066 59.6865 310.707 71.8656C310.861 50.9981 309.393 28.1913 294.472 14.5382C295.787 29.5876 293.158 45.1801 284.964 57.7471C275.455 72.4087 257.829 82.183 240.667 79.7007C233.864 78.6922 227.061 75.7444 222.809 70.3141C217.166 63.2549 217.398 52.9375 211.832 46.0334C207.348 40.5256 199.617 38.0432 193.664 34.7851C200.467 38.5087 203.405 47.3521 201.55 54.9544C199.772 62.4791 193.974 68.6075 187.171 72.3311C177.121 77.9164 164.52 78.6922 154.006 74.1153C143.492 69.4608 135.452 59.3762 133.829 47.9727C131.974 35.5608 137.54 22.9162 146.044 13.7624C150.991 8.33222 157.021 3.91048 163.36 0.109338C160.268 0.367919 157.227 0.859217 154.238 1.58324C131.355 7.09103 112.879 27.4155 109.4 50.6878Z" fill="#F5FBFF"/>
<path d="M264.709 123.996C279.398 135.554 313.181 149.207 328.951 132.839C335.6 125.857 337.532 114.764 333.59 105.998C343.253 106.076 352.684 99.7149 356.318 90.7162C359.951 81.7176 357.555 70.6245 350.52 63.9531C351.37 70.5469 349.901 76.4425 346.809 82.3382C343.639 88.2338 337.764 92.8883 331.116 93.2762C324.467 93.7416 317.51 89.3199 316.041 82.8036C314.031 86.6048 315.964 91.3368 318.515 94.8277C321.143 98.3185 324.39 101.421 325.55 105.61C327.328 111.972 323.385 118.721 317.819 122.211C312.253 125.625 305.527 126.4 298.956 126.633C286.742 127.176 276.228 128.107 264.709 123.996Z" fill="#DFF2FD"/>
<path d="M207.966 151.302C186.398 151.69 164.752 142.148 150.373 125.935C136.844 137.183 118.677 142.691 101.206 140.829C83.6571 138.967 67.1134 129.736 56.2131 115.85C44.3079 121.668 30.3154 125.082 17.869 120.505C5.42264 116.005 -3.69956 101.189 1.47998 89.0096C1.94382 99.5597 12.8441 108.17 23.0486 110.963C33.2531 113.833 44.1533 112.049 54.4351 109.644C52.1932 103.361 51.7294 96.4567 52.9663 89.9405C60.9289 101.034 70.4376 111.894 83.1932 116.393C90.7692 119.108 98.9638 119.419 107.004 119.496C116.822 119.574 126.794 119.419 136.226 116.548C145.58 113.678 154.47 107.627 158.644 98.7064C152.383 112.049 171.555 129.581 180.677 136.097C189.876 142.691 200.313 147.423 210.672 152" fill="#DFF2FD"/>
</svg>
