<svg width="1537" height="914" viewBox="0 0 1537 914" fill="none" xmlns="http://www.w3.org/2000/svg">
<path d="M-185.626 194.195C-185.626 194.195 -49.7388 127.539 70.3699 54.1214C119.959 23.8527 191.123 0.990234 220.103 0.990234C331.196 0.990234 482.378 140.741 725.01 233.479C965.711 325.734 1485.59 452.444 1533.89 580.764C1582.19 709.084 827.731 913.719 827.731 913.719L-374 889.73L-185.626 194.195Z" fill="url(#paint0_linear_387_379)"/>
<path d="M-185.626 194.195L-374 889.73L444.059 906.152C868.626 800.695 551.61 680.747 551.61 596.704C551.61 501.872 857.999 480.781 804.224 388.687C750.288 296.432 161.82 271.798 142.822 194.195C123.018 113.21 250.694 107.897 258.422 52.3503C264.701 7.43032 220.103 0.990234 220.103 0.990234C191.123 0.990234 119.959 23.8527 70.3699 54.1214C-49.7388 127.539 -185.626 194.195 -185.626 194.195Z" fill="url(#paint1_linear_387_379)"/>
<path d="M714.868 493.5C481.252 498.008 365.329 478.044 260.194 480.137C166.168 481.908 -42.1711 530.692 -84.998 540.835C-43.9421 571.104 23.6794 573.197 92.2669 609.906C181.946 658.046 380.463 686.383 664.313 628.421C948.001 570.299 874.905 573.197 1226.86 473.536C1356.47 436.988 1429.72 458.562 1464.66 431.997C1492.03 411.227 1466.27 396.576 1466.27 396.576C1298.67 375.968 910.004 489.636 714.868 493.5Z" fill="url(#paint2_linear_387_379)"/>
<path d="M699.594 727.42C465.978 731.928 350.056 711.964 244.92 714.057C150.894 715.828 -57.4445 764.612 -100.271 774.755C-59.2156 805.024 8.40596 807.117 76.9935 843.826C166.672 891.966 365.19 920.302 649.039 862.341C932.728 804.219 859.632 807.117 1211.59 707.456C1341.19 670.908 1414.45 692.482 1449.39 665.917C1476.76 645.147 1451 630.496 1451 630.496C1283.39 609.888 894.731 723.556 699.594 727.42Z" fill="url(#paint3_linear_387_379)"/>
<path fill-rule="evenodd" clip-rule="evenodd" d="M303.199 223.542C305.234 224.259 307.256 225.028 309.265 225.85C311.26 226.502 313.179 227.468 315.056 227.926C316.426 228.425 317.754 228.418 319.12 228.254C319.354 228.2 319.535 228.134 319.665 228.055C319.86 227.937 319.779 227.586 319.699 227.235C319.581 227.041 319.306 226.808 318.994 226.732C317.738 225.762 316.293 225.575 314.767 225.038C310.227 223.267 306.034 220.753 302.345 217.533C307.457 216.957 312.775 218.254 317.357 220.532C318.845 221.226 319.982 222.001 321.042 223.088C322.194 224.253 323.372 225.314 324.575 226.27C325.006 226.541 325.281 226.774 325.712 227.044C326.181 227.159 326.807 227.312 327.314 227.27C328.174 227.369 329.046 227.416 329.931 227.411C330.088 227.449 330.244 227.487 330.282 227.331C330.672 227.094 330.591 226.743 330.317 226.51C330.118 225.965 329.687 225.694 329.256 225.423C327.295 223.95 325.296 222.634 323.53 221.043C321.92 219.491 320.115 218.056 319.089 216.148C325.132 216.739 331.061 217.798 336.875 219.327C338.439 219.708 339.965 220.246 341.259 221.059C343.101 222.337 344.127 224.244 345.386 225.877C345.964 226.681 346.619 227.393 347.351 228.014C348.175 228.712 348.766 229.685 349.823 230.108C350.411 230.417 351.193 230.608 351.819 230.761C352.574 230.834 353.329 230.908 354.085 230.982C354.293 231.033 354.502 231.084 354.71 231.135C354.893 231.29 355.077 231.445 355.26 231.6C355.847 231.909 356.786 232.138 357.606 232.172C359.365 232.436 361.162 232.543 362.68 231.753C362.836 231.791 363.031 231.673 363.107 231.36C363.146 231.203 363.027 231.009 362.909 230.814C361.599 229.39 360.134 228.149 358.514 227.091C357.652 226.549 356.595 226.125 355.771 225.427C355.103 224.767 354.474 223.951 354.001 223.173C352.822 221.891 351.449 220.727 350.27 219.445C349.72 218.98 349.209 218.358 348.622 218.049C348.191 217.778 347.721 217.664 347.134 217.355C343.097 214.878 340.003 213.295 336.352 209.919C332.583 206.348 328.425 203.013 323.568 200.503C311.936 194.517 298.156 195.299 285.147 194.28C275.262 193.36 265.099 191.544 255.546 194.02C255.038 194.062 254.493 194.26 254.065 194.653C253.329 195.634 254.313 197.034 255.099 197.889C261.146 203.672 267.693 208.086 274.624 211.6C283.594 216.274 293.337 219.811 303.199 223.542ZM503.102 231.534C503.755 232.025 504.422 232.463 505.101 232.85C505.963 233.392 506.669 233.895 507.493 234.593C507.886 235.021 508.79 236.07 509.339 236.535C510.713 237.699 511.96 237.34 513.601 237.409C513.913 237.485 514.264 237.405 514.615 237.325C514.966 237.245 515.199 236.97 515.276 236.657C515.234 236.15 514.959 235.917 514.684 235.685C514.239 235.245 513.846 234.817 513.505 234.403C512.877 233.808 512.197 233.2 511.464 232.579C509.11 230.679 506.291 229.329 503.434 228.134C500.733 226.978 498.188 225.861 495.605 224.899C495.018 224.59 494.197 224.556 493.648 224.09C493.335 224.014 493.099 223.625 492.629 223.51C491.336 222.698 489.966 222.198 488.597 221.698C482.489 218.883 476.381 216.067 470.082 214.033L450.378 216.685C457.619 219.611 485.648 231.751 492.889 234.677C493.633 235.024 494.258 235.177 494.964 235.681C495.826 236.222 496.57 236.57 497.547 236.642C498.173 236.795 498.68 236.753 499.344 236.749C500.437 236.795 501.596 236.801 502.819 236.768C502.819 236.768 502.976 236.806 503.014 236.65C503.039 236.545 503 236.481 502.896 236.455C502.384 235.833 501.251 235.723 500.74 235.101C500.034 234.597 499.912 233.739 499.596 232.999C499.203 232.571 498.653 232.106 498.455 231.56C498.244 231.067 498.15 230.547 498.173 230C498.198 229.896 498.288 229.752 498.444 229.569C498.482 229.412 498.638 229.451 498.951 229.527C499.615 229.523 500.202 229.832 500.79 230.141C501.548 230.657 502.318 231.122 503.102 231.534ZM443.628 231.445C445.391 232.372 446.883 233.73 448.645 234.657C449.977 235.314 451.541 235.695 453.105 236.077C453.731 236.229 454.356 236.382 455.02 236.378C455.84 236.412 456.661 236.447 457.363 236.287C458.026 236.283 458.534 236.241 459.003 236.355C459.472 236.47 459.942 236.584 460.567 236.737C461.193 236.889 461.7 236.847 462.364 236.844C463.9 236.887 465.397 236.865 466.855 236.779C467.167 236.855 467.518 236.775 467.595 236.462C467.827 236.188 467.553 235.955 467.278 235.722C466.624 235.231 466.036 234.701 465.512 234.131C464.531 233.395 463.707 232.697 462.688 232.117C459.553 230.026 455.875 228.798 452.506 226.982C449.256 225.36 446.509 223.033 443.335 221.099C420.601 206.273 389.642 200.71 362.822 201.957C361.845 201.885 360.83 201.968 360.014 202.598C358.419 203.7 358.354 206.005 359.106 207.68C360.529 210.678 363.546 212.574 366.327 214.081C371.264 216.943 376.044 219.766 380.825 222.589C384.781 224.714 388.886 225.55 392.88 227.519C394.551 228.368 396.287 229.178 398.088 229.949C399.732 230.681 401.334 230.906 402.746 231.914C403.321 232.275 403.843 232.623 404.314 232.959C404.576 233.244 404.851 233.477 405.138 233.657C405.725 233.966 406.351 234.119 406.977 234.271C408.592 234.444 410.194 234.67 411.784 234.947C411.888 234.972 411.953 234.933 411.978 234.829C412.329 234.748 412.131 234.203 411.818 234.127C410.208 232.574 407.9 231.845 406.096 230.411C404.802 229.598 403.742 228.511 402.292 227.66C401.548 227.313 400.648 226.927 400.331 226.187C401.346 226.103 402.166 226.138 403.143 226.21C404.628 226.462 406.113 226.714 407.599 226.966C408.732 227.076 409.865 227.187 410.727 227.729C411.784 228.152 412.57 229.007 413.588 229.587C414.412 230.285 415.469 230.708 416.293 231.406C416.961 232.066 417.434 232.845 417.945 233.467C418.103 233.726 418.338 233.894 418.651 233.97C418.926 234.203 419.277 234.123 419.59 234.199C421.543 234.344 423.457 234.424 425.331 234.44C425.682 234.359 426.19 234.317 426.579 234.081C426.604 233.977 426.63 233.872 426.655 233.768C426.693 233.612 426.575 233.417 426.575 233.417C425.198 231.59 423.008 231.056 421.127 229.934C419.796 229.278 418.697 228.347 417.365 227.691C416.112 226.943 414.793 226.234 413.409 225.565C420.208 226.229 426.892 227.363 433.732 228.534C437.055 229.179 440.573 229.705 443.628 231.445ZM253.008 221.409C254.771 222.336 256.262 223.694 258.025 224.621C259.356 225.277 260.921 225.659 262.485 226.04C263.11 226.193 263.736 226.345 264.4 226.342C265.22 226.376 266.04 226.41 266.742 226.25C267.406 226.246 267.914 226.204 268.383 226.319C268.852 226.433 269.321 226.548 269.947 226.7C270.573 226.853 271.08 226.811 271.744 226.807C273.28 226.85 274.777 226.829 276.234 226.742C276.547 226.819 276.898 226.739 276.974 226.426C277.207 226.151 276.932 225.918 276.658 225.686C276.004 225.195 275.415 224.664 274.891 224.095C273.911 223.358 273.087 222.66 272.068 222.08C268.932 219.989 265.255 218.761 261.886 216.945C258.048 215.015 254.519 212.497 250.605 210.879C249.235 210.379 236.745 204.515 244.237 203.691C245.252 203.607 246.191 203.836 247.206 203.752C251.616 203.336 253.691 197.545 253.123 193.761C252.474 189.625 250.323 188.935 246.492 188.332C236.527 187.061 226.696 188.64 216.773 187.877C206.186 187.118 195.943 184.951 185.245 185.324C174.666 185.893 163.885 185.252 153.343 185.663C162.396 198.147 177.119 205.052 190.204 212.553C194.161 214.678 198.266 215.513 202.26 217.482C203.931 218.332 205.667 219.142 207.467 219.912C209.112 220.645 210.714 220.87 212.126 221.877C212.701 222.238 213.223 222.587 213.694 222.923C213.956 223.207 214.23 223.44 214.518 223.621C215.105 223.93 215.731 224.082 216.357 224.235C217.972 224.408 219.574 224.633 221.164 224.91C221.268 224.936 221.333 224.896 221.358 224.792C221.709 224.712 221.511 224.166 221.198 224.09C219.588 222.537 217.28 221.809 215.475 220.374C214.182 219.561 213.121 218.474 211.672 217.623C210.928 217.276 210.027 216.891 209.711 216.151C210.726 216.067 211.546 216.101 212.523 216.174C214.008 216.425 215.493 216.677 216.979 216.929C218.112 217.04 219.245 217.15 220.107 217.692C221.164 218.116 221.95 218.97 222.968 219.55C223.792 220.248 224.849 220.672 225.673 221.37C226.341 222.03 226.814 222.808 227.325 223.43C227.483 223.69 227.718 223.857 228.031 223.934C228.305 224.166 228.656 224.086 228.969 224.163C230.923 224.308 232.836 224.388 234.711 224.403C235.062 224.323 235.569 224.281 235.958 224.044C235.984 223.94 236.009 223.836 236.035 223.732C236.073 223.575 235.955 223.381 235.955 223.381C234.577 221.553 232.388 221.019 230.507 219.897C229.175 219.241 228.077 218.31 226.745 217.654C225.491 216.906 224.173 216.198 222.789 215.529C229.587 216.193 236.271 217.326 243.112 218.497C246.435 219.142 249.952 219.669 253.008 221.409Z" fill="#FFCE82"/>
<path d="M334.232 200.95C334.232 200.95 325.854 210.838 325.278 212.521C324.74 214.047 326.941 223.367 327.292 223.287C327.761 223.401 331.283 224.592 330.871 227.64L325.713 227.045L324.293 224.71L320.749 212.742L327.93 191.457L335.098 195.36L334.232 200.95Z" fill="#855A41"/>
<path d="M360.33 203.338C360.384 203.572 360.437 203.806 360.491 204.04C361.128 206.184 360.987 208.801 361.078 211.144C361.391 215.75 361.326 220.319 360.883 224.851C360.853 226.335 360.784 227.976 361.726 228.869C362.669 229.761 364.428 230.025 364.473 231.196C362.76 232.104 360.693 232.428 358.816 231.97C358.503 231.894 358.346 231.856 358.072 231.623C357.679 231.196 357.675 230.532 357.827 229.906C358.766 223.341 358.102 216.55 355.84 210.198C355.401 208.599 353.002 205.528 354.085 203.803C354.86 202.667 357.08 201.717 358.286 200.851C359.228 201.743 359.896 202.403 360.33 203.338Z" fill="#855A41"/>
<path d="M397.757 165.402C400.996 165.032 402.793 165.139 403.129 162.403C403.468 160.332 400.542 160.778 399.253 160.629C396.166 160.373 394.446 159.954 391.741 158.134C390.329 157.127 388.567 156.2 386.774 156.757C385.331 157.234 384.443 158.84 383.943 160.209C383.561 161.773 383.649 163.452 383.305 164.86C382.21 171.387 373.443 181.513 366.313 177.453C363.726 175.828 362.109 172.947 361.701 169.865C361.296 167.446 360.964 164.051 358.542 163.791C357.252 163.642 356.241 164.39 355.23 165.138C350.683 168.835 345.063 176.247 338.604 173.512C335.434 172.241 332.878 169.132 329.517 168.644C326.938 168.346 324.29 169.689 322.31 171.692C317.652 176.522 316.801 184.766 316.877 191.248C316.961 205.852 310.734 209.636 312.085 213.612C312.84 215.95 313.05 218.487 313.298 220.868C313.461 222.012 313.611 223.209 313.748 224.458C313.832 225.473 313.489 226.881 314.507 227.46C314.795 227.641 315.055 227.705 315.289 227.651C316.228 227.88 317.127 228.044 317.987 228.143C318.769 228.334 319.433 228.33 320.016 227.976C319.623 227.548 319.658 226.728 319.265 226.301C319.146 226.106 318.872 225.873 318.559 225.797C318.167 225.591 317.776 225.385 317.384 225.179C317.227 225.141 316.953 224.908 316.835 224.714C316.56 224.481 316.636 224.168 316.518 223.974C316.187 220.799 315.961 217.651 315.839 214.527C315.797 214.02 315.873 213.707 315.988 213.238C316.064 212.925 316.18 212.677 316.335 212.494C317.571 210.144 318.494 207.717 320.2 205.482C321.867 203.403 323.809 201.556 325.907 199.748C326.994 198.687 328.238 197.665 329.799 197.383C332.606 196.742 335.159 199.187 337.589 200.774C343.35 204.334 350.686 203.472 357.294 204.918C358.232 205.147 359.484 205.452 360.075 206.425C360.586 207.047 360.746 207.749 360.907 208.451C361.151 210.167 361.46 211.845 361.834 213.483C361.998 214.849 362.589 215.821 361.856 217.466C361.318 218.992 359.525 219.549 357.66 221.082C355.561 222.891 353.433 226.183 351.609 228.224C351.182 228.617 350.911 229.048 350.991 229.399C351.227 229.788 351.54 229.864 351.697 229.903C353.184 230.597 354.775 231.096 356.469 231.398C356.977 231.356 357.835 231.234 357.793 230.727C357.713 230.376 357.438 230.143 357.282 230.105C356.733 229.639 356.131 229.161 355.477 228.67C357.488 225.183 361.147 223.093 363.943 220.46C367.129 217.592 368.125 214.189 368.178 209.893C368.296 203.293 370.666 194.259 374.656 188.769C377.602 184.847 381.81 183.222 383.775 178.564C385.049 176.057 387.494 173.505 389.043 171.231C391.248 167.626 393.816 165.932 397.757 165.402Z" fill="#855A41"/>
<path d="M351.771 140.595C349.627 141.233 348.666 143.815 347.388 145.658C345.568 148.363 342.256 149.71 339.925 151.792C336.08 155.329 334.469 160.571 333.092 165.538C332.482 168.041 331.833 170.7 332.043 173.237C332.214 175.93 333.05 178.62 335.129 180.287C336.621 181.645 338.811 182.18 340.726 182.481C344.362 183.202 348.772 182.786 350.668 179.769C352.061 177.457 351.652 174.374 350.622 171.803C349.787 169.113 348.406 166.622 348.585 163.848C350.481 167.625 353.858 170.769 357.81 172.23C357.39 171.686 356.919 171.129 356.395 170.559C355.017 168.732 353.446 167.022 352.458 164.958C350.088 160.403 350.02 155.249 349.913 150.251C352.454 150.705 355.14 149.206 356.025 146.936C357.105 144.548 356.189 141.507 354.034 140.153" fill="#855A41"/>
<path d="M356.928 141.19C355.398 139.989 354.849 139.523 353.09 139.26C351.137 139.115 346.223 140.236 346.502 141.133C346.742 142.186 361.533 147.451 362.155 146.94C362.658 146.234 358.889 142.663 356.928 141.19Z" fill="#855A41"/>
<path d="M388.472 166.782C385.404 176.641 382.543 188.372 372.181 192.805C359.599 198.188 351.21 185.701 344.873 177.029C344.636 176.64 344.209 177.033 344.289 177.384C349.382 187.078 358.313 198.703 370.865 194.804C382.715 191.065 386.934 177.842 389.097 166.935C389.174 166.622 388.548 166.47 388.472 166.782Z" fill="#855A41"/>
<path d="M417.843 208.749C417.843 208.749 408.759 218.134 408.065 219.622C407.527 221.148 409.026 230.628 409.339 230.704C409.808 230.819 413.292 232.166 412.567 235.138L407.641 234.268L406.222 231.933L403.575 219.686L412.281 198.94L419.179 203.274L417.843 208.749Z" fill="#855A41"/>
<path d="M456.679 209.677C457.545 210.882 458.022 212.324 458.499 213.766C459.107 215.351 459.675 216.871 460.204 218.325C460.364 219.027 460.681 219.768 460.528 220.393C460.376 221.019 460.105 221.45 459.796 222.037C458.209 224.468 453.551 229.298 455.443 232.411C456.034 233.383 457.678 234.116 457.411 235.211C455.618 235.768 453.547 235.428 451.784 234.501C451.471 234.425 451.353 234.23 451.235 234.036C450.842 233.609 451.033 232.826 451.303 232.395C452.69 228.977 454.024 225.546 455.306 222.102C455.767 220.889 456.267 219.519 456.259 218.192C456.092 216.162 454.676 214.491 453.612 212.74C452.586 210.832 451.987 208.532 453.227 206.846C454.753 207.384 455.851 208.315 456.679 209.677Z" fill="#855A41"/>
<path d="M414.91 180.689C412.605 182.889 410.353 185.102 408.153 187.327C407.455 188.151 406.638 188.781 406.058 189.799C405.246 191.092 404.864 192.657 404.834 194.141C404.57 195.899 404.582 197.891 405.333 199.566C406.676 202.213 410.083 203.873 410.335 206.917C410.339 207.581 410.228 208.714 410.972 209.062C411.678 209.565 412.651 208.974 412.841 208.192C413.032 207.41 412.597 206.475 412.086 205.853C411.022 204.102 409.53 202.744 408.233 201.267C406.936 199.791 405.871 198.04 405.898 195.892C406.039 193.275 408.332 191.348 410.274 189.502C412.216 187.655 414.272 185.339 413.75 182.726" fill="#855A41"/>
<path d="M496.53 174.91C496.256 174.677 495.981 174.445 495.394 174.136C493.356 172.976 489.533 173.701 487.107 172.777C485.932 172.159 484.601 171.503 483.197 171.824C480.74 172.384 480.446 175.627 479.992 178.168C479.507 182.193 477.15 186.424 473.212 187.618C466.002 190.002 455.14 182.215 453.538 175.196C452.977 172.739 452.333 169.267 449.834 169.32C448.701 169.21 447.652 170.114 446.759 171.056C442.486 174.986 437.454 182.707 430.842 180.598C427.634 179.483 424.845 176.649 421.369 176.63C418.752 176.489 416.223 178.026 414.556 180.105C411.065 184.225 409.081 192.359 410.984 197.464C413.64 204.243 415.543 209.348 415.001 217.005C414.776 218.607 414.746 220.091 415.028 221.651C415.707 224.303 417.867 226.321 419.091 228.774C419.805 230.605 419.892 232.284 419.747 234.237C422.509 234.69 425.283 234.869 428.068 234.775C427.98 233.097 426.721 231.464 425 231.044C424.531 230.93 424.18 231.01 423.749 230.739C423.475 230.506 423.356 230.312 423.276 229.961C421.857 227.626 418.622 221.865 419.309 219.049C419.499 218.267 420.198 217.443 420.701 216.738C423.598 213.467 426.495 210.196 429.392 206.925C431.952 203.904 437.4 207.387 440.414 208.619C444.172 210.199 447.88 209.943 451.905 210.428C453.038 210.539 454.133 210.806 454.919 211.66C456.491 213.369 456.628 216.883 457.578 219.104C458.726 221.869 459.832 224.128 460.202 227.367C460.347 229.943 460.505 232.468 460.675 234.94C460.756 235.291 460.797 235.798 461.072 236.031C461.347 236.264 461.66 236.34 462.011 236.26C463.834 236.484 465.618 236.643 467.363 236.737C468.027 236.733 468.691 236.729 468.962 236.298C469.271 235.711 468.76 235.089 468.328 234.818C467.741 234.509 467.115 234.356 466.489 234.204C465.276 233.742 464.529 232.731 464.17 231.484C463.773 230.392 463.766 229.065 463.72 227.893C463.235 218.329 462.16 207.792 465.426 198.479C465.789 198.347 466.205 198.228 466.673 198.121C469.092 197.716 471.553 197.819 474.01 197.259C480.56 195.542 482.361 189.518 486.077 183.795C487.355 181.953 490.911 182.323 492.856 181.14C493.791 180.705 496.008 179.091 496.114 177.295C496.183 175.654 496.923 175.337 496.53 174.91Z" fill="#855A41"/>
<path d="M518.218 170.92C516.65 169.875 516.101 169.409 514.304 169.303C512.313 169.314 507.479 170.787 507.758 171.683C508.192 172.618 523.445 176.67 523.911 176.12C524.376 175.571 520.374 172.275 518.218 170.92Z" fill="#855A41"/>
<path d="M516.237 206.896C515.734 205.337 515.178 203.765 514.57 202.181C513.895 200.193 512.43 196.687 511.675 194.348C514.231 197.457 514.788 199.251 518.004 201.692C519.847 202.97 524.192 204.859 526.218 204.027C527.855 203.432 524.841 202.2 524.841 202.2C523.704 201.425 522.258 201.238 521.121 200.464C518.809 199.071 516.963 197.129 515.7 194.833C512.903 190.67 512.365 185.402 511.908 180.484C514.487 180.782 517.054 179.088 517.821 176.623C518.588 174.159 517.44 171.393 515.284 170.039L513.102 170.832C510.958 171.469 510.309 174.128 509.15 176.166C507.486 178.909 504.449 180.488 502.198 182.922C498.627 186.691 497.33 192.009 496.422 197.091C496.125 199.67 495.632 202.367 495.998 204.942C496.857 211.615 498.066 218.207 495.292 224.823C494.484 226.78 493.518 228.699 493.335 230.809C500.757 231.183 508.191 231.504 515.638 231.774C516.107 231.889 516.615 231.847 516.847 231.572C517.08 231.297 517 230.946 517.076 230.634C517.321 227.821 517.565 225.008 517.809 222.195C518.103 218.952 518.435 215.552 517.714 212.394C517.287 210.522 516.794 208.689 516.237 206.896Z" fill="#855A41"/>
<path d="M500.821 228.657C499.894 230.42 498.352 234.021 497.7 236.016C497.238 237.23 502 236.734 504.304 236.799C504.651 236.055 503.632 235.475 502.812 235.44C502.148 235.444 501.092 235.021 501.126 234.201C501.047 234.071 501.085 233.914 501.24 233.731C502.164 231.305 503.285 229.424 504.796 227.307" fill="#855A41"/>
<path d="M512.06 227.421C512.06 227.421 511.179 237.15 511.454 237.383C511.69 237.772 515.791 237.944 518.096 238.008C518.599 237.303 517.581 236.723 516.76 236.688C515.94 236.654 514.57 236.154 514.177 235.727C513.941 235.338 515.105 227.17 515.105 227.17" fill="#855A41"/>
<path d="M471.972 189.304C470.709 200.597 478.053 207.857 488.689 210.452C500.89 213.428 513.205 209.14 523.952 203.806C524.692 203.49 524.101 202.517 523.517 202.872C514.403 206.946 505.014 210.788 495.015 210.337C482.749 209.666 471.697 202.661 472.636 189.301C472.556 188.95 472.048 188.991 471.972 189.304Z" fill="#855A41"/>
<path d="M466.402 191.757C472.254 190.865 475.032 191.708 479.389 195.588C481.037 196.984 482.528 198.342 484.215 199.582C487.705 202.257 491.661 204.382 495.846 205.568C504.293 207.628 513.652 205.271 521.564 202.726C521.915 202.646 521.835 202.295 521.484 202.375C509.234 204.359 498.593 207.895 487.11 200.62C478.801 195.279 476.737 189.472 466.284 191.563C466.127 191.524 466.207 191.875 466.402 191.757Z" fill="#855A41"/>
<path d="M226.163 197.625C226.163 197.625 217.079 207.01 216.384 208.498C215.846 210.024 217.346 219.504 217.659 219.581C218.166 219.539 221.611 221.042 220.886 224.014L215.961 223.144L214.58 220.653L211.932 208.406L220.6 187.816L227.498 192.15L226.163 197.625Z" fill="#855A41"/>
<path d="M262.478 197.534C263.306 198.896 263.783 200.338 264.26 201.78C264.893 203.26 265.461 204.78 265.965 206.339C266.125 207.041 266.442 207.781 266.289 208.407C266.137 209.033 265.866 209.464 265.595 209.895C263.97 212.481 259.349 217.155 261.242 220.268C261.795 221.397 263.477 221.973 263.172 223.225C261.417 223.625 259.307 223.442 257.545 222.515C257.27 222.282 257.114 222.244 256.995 222.05C256.641 221.466 256.793 220.84 257.064 220.409C258.45 216.991 259.797 213.508 261.105 209.96C261.566 208.746 262.028 207.533 262.02 206.206C261.852 204.176 260.437 202.505 259.411 200.597C258.346 198.846 257.786 196.389 258.987 194.86C260.552 195.241 261.612 196.328 262.478 197.534Z" fill="#855A41"/>
<path d="M223.267 169.409C220.937 171.713 218.672 173.978 216.472 176.203C215.812 176.871 214.958 177.657 214.416 178.519C213.603 179.812 213.222 181.376 213.153 183.017C212.89 184.776 212.901 186.767 213.653 188.442C214.996 191.09 218.402 192.749 218.692 195.637C218.658 196.457 218.585 197.434 219.291 197.938C219.841 198.403 220.97 197.85 221.199 196.911C221.39 196.129 220.916 195.351 220.443 194.573C219.341 192.978 217.849 191.62 216.552 190.143C215.255 188.667 214.229 186.759 214.217 184.768C214.359 182.151 216.69 180.068 218.593 178.378C220.535 176.531 222.592 174.216 222.069 171.602" fill="#855A41"/>
<path d="M304.849 163.786C304.574 163.554 304.299 163.321 303.712 163.012C301.674 161.852 297.852 162.577 295.463 161.497C294.25 161.036 292.919 160.379 291.515 160.7C289.058 161.261 288.764 164.503 288.31 167.044C287.826 171.069 285.468 175.3 281.531 176.494C274.32 178.878 263.497 170.935 261.895 163.916C261.334 161.459 260.651 158.143 258.152 158.197C257.019 158.086 255.97 158.99 255.115 159.776C250.804 163.862 245.772 171.584 239.16 169.474C235.952 168.36 233.163 165.525 229.726 165.35C227.109 165.208 224.541 166.902 222.912 168.825C219.383 173.102 217.399 181.235 219.341 186.184C221.958 193.119 223.861 198.224 223.32 205.881C223.133 207.327 223.064 208.967 223.346 210.528C224.025 213.179 226.223 215.041 227.409 217.65C228.161 219.325 228.249 221.004 228.065 223.114C230.827 223.566 233.601 223.746 236.386 223.652C236.298 221.973 235.039 220.34 233.319 219.92C232.85 219.806 232.537 219.73 232.106 219.459C231.793 219.382 231.713 219.032 231.594 218.837C230.175 216.502 226.978 210.585 227.627 207.926C227.856 206.987 228.516 206.32 229.019 205.614C231.916 202.343 234.826 199.02 237.748 195.645C240.308 192.624 245.756 196.107 248.732 197.496C252.49 199.075 256.236 198.663 260.223 199.304C261.356 199.415 262.451 199.682 263.237 200.536C264.809 202.246 264.984 205.603 265.934 207.823C267.044 210.746 268.151 213.004 268.521 216.243C268.691 218.715 268.849 221.24 268.994 223.816C269.074 224.167 269.154 224.518 269.39 224.907C269.665 225.14 270.016 225.06 270.329 225.136C272.178 225.256 273.962 225.415 275.681 225.613C276.345 225.609 277.009 225.606 277.28 225.175C277.589 224.587 277.116 223.809 276.685 223.538C276.097 223.229 275.433 223.233 274.808 223.08C273.595 222.618 272.885 221.451 272.488 220.36C272.13 219.112 272.084 217.941 272.038 216.77C271.554 207.205 270.478 196.668 273.744 187.356C274.108 187.223 274.523 187.104 274.991 186.997C277.448 186.436 279.909 186.539 282.21 185.94C288.878 184.418 290.717 178.238 294.395 172.672C295.673 170.829 299.229 171.199 301.175 170.016C302.147 169.425 304.364 167.811 304.433 166.171C304.501 164.53 305.241 164.214 304.849 163.786Z" fill="#855A41"/>
<path d="M278.604 183.735C285.513 190.061 296.157 193.983 305.417 194.75C315.496 195.551 324.37 190.424 331.989 184.327C332.378 184.091 332.023 183.507 331.634 183.744C324.397 188.276 316.969 193.59 307.988 193.72C298.187 193.815 286.719 189.195 279.264 183.067C278.871 182.64 278.211 183.308 278.604 183.735Z" fill="#855A41"/>
<path d="M282.205 178.482C297 184.411 314.214 183.141 328.822 176.926C329.406 176.571 329.127 175.675 328.425 175.835C312.917 181.664 298.236 182.061 282.244 178.326C282.087 178.287 282.049 178.444 282.205 178.482Z" fill="#855A41"/>
<defs>
<linearGradient id="paint0_linear_387_379" x1="-150891" y1="504010" x2="2.11508e+06" y2="504010" gradientUnits="userSpaceOnUse">
<stop offset="0.2" stop-color="#F9EA90"/>
<stop offset="0.79" stop-color="#F9B45A"/>
</linearGradient>
<linearGradient id="paint1_linear_387_379" x1="881529" y1="631442" x2="551582" y2="1.37925e+06" gradientUnits="userSpaceOnUse">
<stop stop-color="#DD6327"/>
<stop offset="0.36" stop-color="#F89F49"/>
</linearGradient>
<linearGradient id="paint2_linear_387_379" x1="155047" y1="215085" x2="1.677e+06" y2="215085" gradientUnits="userSpaceOnUse">
<stop stop-color="#D9501C" stop-opacity="0.1"/>
<stop offset="1" stop-color="#E68F32" stop-opacity="0.7"/>
</linearGradient>
<linearGradient id="paint3_linear_387_379" x1="155032" y1="215319" x2="1.67698e+06" y2="215319" gradientUnits="userSpaceOnUse">
<stop stop-color="#D9501C" stop-opacity="0.1"/>
<stop offset="1" stop-color="#E68F32" stop-opacity="0.7"/>
</linearGradient>
</defs>
</svg>
