<svg width="1920" height="856" viewBox="0 0 1920 856" fill="none" xmlns="http://www.w3.org/2000/svg">
<path d="M-127.727 148.687C-127.727 148.687 120.219 87.9888 225.193 86.0568C330.329 83.9637 446.251 103.928 679.867 99.42C875.004 95.556 1263.67 -18.1125 1431.27 2.49597C1598.71 23.2654 1699.82 82.5147 1896.57 78.6506C2093.48 74.7865 2062.08 355.738 2062.08 355.738L-24.5233 396.472L-127.727 148.687Z" fill="url(#paint0_linear_247_278)"/>
<path d="M-143 382.607C-143 382.607 104.946 321.909 209.92 319.977C315.055 317.884 430.978 337.848 664.594 333.34C859.73 329.476 1248.39 215.807 1416 236.416C1583.44 257.185 1684.55 316.435 1881.3 312.571C2078.21 308.706 2046.81 727.658 2046.81 727.658L-39.7967 856.392L-143 382.607Z" fill="url(#paint1_linear_247_278)"/>
<path d="M679.868 99.42C446.252 103.928 330.329 83.9637 225.194 86.0568C131.168 87.8278 -77.1711 136.612 -119.998 146.755C-78.9421 177.024 -11.3206 179.117 57.2669 215.826C146.946 263.966 345.463 292.302 629.313 234.341C913.001 176.219 839.905 179.117 1191.86 79.4557C1321.47 42.9078 1394.72 64.4824 1429.66 37.9168C1457.03 17.1473 1431.27 2.49597 1431.27 2.49597C1263.67 -18.1125 875.004 95.556 679.868 99.42Z" fill="url(#paint2_linear_247_278)"/>
<path d="M664.594 333.34C430.978 337.848 315.056 317.884 209.92 319.977C115.894 321.748 -92.4445 370.532 -135.271 380.675C-94.2156 410.944 -26.594 413.037 41.9935 449.746C131.672 497.886 330.19 526.222 614.039 468.261C897.728 410.139 824.632 413.037 1176.59 313.376C1306.19 276.828 1379.45 298.402 1414.39 271.837C1441.76 251.067 1416 236.416 1416 236.416C1248.39 215.807 859.731 329.476 664.594 333.34Z" fill="url(#paint3_linear_247_278)"/>
<defs>
<linearGradient id="paint0_linear_247_278" x1="943375" y1="174606" x2="1.05645e+06" y2="799685" gradientUnits="userSpaceOnUse">
<stop offset="0.47" stop-color="#F9E286"/>
<stop offset="1" stop-color="#F9A049"/>
</linearGradient>
<linearGradient id="paint1_linear_247_278" x1="943360" y1="174841" x2="1.05644e+06" y2="799923" gradientUnits="userSpaceOnUse">
<stop offset="0.47" stop-color="#F9E286"/>
<stop offset="1" stop-color="#F9A049"/>
</linearGradient>
<linearGradient id="paint2_linear_247_278" x1="155012" y1="214691" x2="1.67696e+06" y2="214691" gradientUnits="userSpaceOnUse">
<stop stop-color="#D9501C" stop-opacity="0.1"/>
<stop offset="1" stop-color="#E68F32" stop-opacity="0.7"/>
</linearGradient>
<linearGradient id="paint3_linear_247_278" x1="154997" y1="214925" x2="1.67695e+06" y2="214925" gradientUnits="userSpaceOnUse">
<stop stop-color="#D9501C" stop-opacity="0.1"/>
<stop offset="1" stop-color="#E68F32" stop-opacity="0.7"/>
</linearGradient>
</defs>
</svg>
