<svg width="1236" height="800" viewBox="0 0 1236 800" fill="none" xmlns="http://www.w3.org/2000/svg">
<path d="M0.277344 369.679C0.277344 369.679 425.327 249.893 555.74 179.373C686.153 109.014 835.886 0.820068 973.061 0.820068C1053.24 0.820068 1139.7 93.0751 1285.09 93.0751C1516.93 93.0751 1787.42 240.554 1787.42 268.73C1787.42 296.906 1477.97 836.751 1477.97 836.751L52.2815 775.73L0.277344 369.679Z" fill="url(#paint0_linear_387_378)"/>
<g style="mix-blend-mode:multiply">
<path fill-rule="evenodd" clip-rule="evenodd" d="M615.472 262.773C617.618 262.987 619.765 263.256 621.912 263.578C624.005 263.739 626.098 264.222 628.03 264.222C629.479 264.383 630.767 264.061 632.055 263.578C632.27 263.47 632.431 263.363 632.538 263.256C632.699 263.095 632.538 262.773 632.377 262.451C632.216 262.29 631.894 262.129 631.572 262.129C630.123 261.485 628.674 261.646 627.064 261.485C622.234 260.841 617.565 259.392 613.218 257.137C618.048 255.366 623.522 255.366 628.513 256.494C630.123 256.816 631.411 257.299 632.699 258.104C634.094 258.962 635.49 259.714 636.885 260.358C637.368 260.519 637.69 260.68 638.173 260.841C638.656 260.841 639.3 260.841 639.783 260.68C640.642 260.572 641.501 260.411 642.359 260.197C642.52 260.197 642.681 260.197 642.681 260.036C643.003 259.714 642.842 259.392 642.52 259.231C642.198 258.748 641.715 258.587 641.232 258.426C638.978 257.46 636.724 256.654 634.631 255.527C632.699 254.4 630.606 253.434 629.157 251.824C635.168 250.966 641.179 250.59 647.189 250.697C648.799 250.697 650.409 250.858 651.859 251.341C653.952 252.146 655.401 253.756 657.011 255.044C657.762 255.688 658.567 256.225 659.426 256.654C660.392 257.137 661.197 257.943 662.324 258.104C662.968 258.265 663.773 258.265 664.417 258.265C665.168 258.157 665.92 258.05 666.671 257.942C666.886 257.942 667.1 257.942 667.315 257.942C667.529 258.05 667.744 258.157 667.959 258.265C668.603 258.426 669.569 258.426 670.374 258.265C672.145 258.104 673.916 257.782 675.204 256.654C675.365 256.654 675.526 256.493 675.526 256.171C675.526 256.01 675.365 255.849 675.204 255.688C673.594 254.615 671.877 253.756 670.052 253.112C669.086 252.79 667.959 252.629 666.993 252.146C666.188 251.663 665.383 251.019 664.739 250.375C663.29 249.409 661.68 248.604 660.231 247.638C659.587 247.316 658.943 246.833 658.299 246.672C657.816 246.511 657.333 246.511 656.689 246.35C652.181 244.901 648.799 244.096 644.452 241.681C639.944 239.105 635.114 236.851 629.801 235.563C617.082 232.504 603.879 236.529 590.999 238.622C581.178 240.071 570.874 240.715 562.179 245.384C561.696 245.545 561.214 245.867 560.891 246.35C560.408 247.477 561.696 248.604 562.662 249.248C569.908 253.434 577.314 256.171 584.881 257.942C594.702 260.358 605.006 261.485 615.472 262.773ZM811.574 223.166C812.325 223.488 813.077 223.756 813.828 223.971C814.794 224.293 815.599 224.615 816.565 225.098C817.048 225.42 818.175 226.225 818.819 226.547C820.429 227.352 821.556 226.708 823.166 226.386C823.488 226.386 823.81 226.225 824.132 226.064C824.454 225.903 824.615 225.581 824.615 225.259C824.454 224.776 824.132 224.615 823.81 224.454C823.274 224.132 822.791 223.81 822.361 223.488C821.61 223.058 820.805 222.629 819.946 222.2C817.209 220.912 814.15 220.268 811.091 219.785C808.193 219.302 805.456 218.819 802.719 218.497C802.075 218.336 801.27 218.497 800.626 218.175C800.304 218.175 799.982 217.853 799.499 217.853C798.05 217.37 796.601 217.209 795.152 217.048C788.55 215.76 781.949 214.472 775.348 213.989L756.833 221.234C764.561 222.361 794.669 227.513 802.397 228.64C803.202 228.801 803.846 228.801 804.651 229.123C805.617 229.445 806.422 229.606 807.388 229.445C808.032 229.445 808.515 229.284 809.159 229.123C810.232 228.908 811.359 228.64 812.54 228.318C812.54 228.318 812.701 228.318 812.701 228.157C812.701 228.049 812.647 227.996 812.54 227.996C811.896 227.513 810.769 227.674 810.125 227.191C809.32 226.869 808.998 226.064 808.515 225.42C808.032 225.098 807.388 224.776 807.066 224.293C806.744 223.863 806.529 223.38 806.422 222.844C806.422 222.736 806.476 222.575 806.583 222.361C806.583 222.2 806.744 222.2 807.066 222.2C807.71 222.039 808.354 222.2 808.998 222.361C809.857 222.683 810.715 222.951 811.574 223.166ZM753.774 237.173C755.706 237.656 757.477 238.622 759.409 239.105C760.858 239.427 762.468 239.427 764.078 239.427C764.722 239.427 765.366 239.427 766.01 239.266C766.815 239.105 767.62 238.944 768.264 238.622C768.908 238.461 769.391 238.3 769.874 238.3C770.357 238.3 770.84 238.3 771.484 238.3C772.128 238.3 772.611 238.139 773.255 237.978C774.758 237.656 776.207 237.28 777.602 236.851C777.924 236.851 778.246 236.69 778.246 236.368C778.407 236.046 778.085 235.885 777.763 235.724C777.012 235.402 776.314 235.026 775.67 234.597C774.543 234.114 773.577 233.631 772.45 233.309C768.908 232.021 765.044 231.699 761.341 230.733C757.799 229.928 754.579 228.318 751.037 227.191C725.437 218.175 694.041 220.107 668.281 227.674C667.315 227.835 666.349 228.157 665.705 228.962C664.417 230.411 664.9 232.665 666.027 234.114C668.12 236.69 671.501 237.817 674.56 238.622C680.034 240.232 685.347 241.842 690.66 243.452C695.007 244.579 699.194 244.418 703.541 245.384C705.365 245.814 707.244 246.189 709.176 246.511C710.947 246.833 712.557 246.672 714.167 247.316C714.811 247.531 715.401 247.746 715.938 247.96C716.26 248.175 716.582 248.336 716.904 248.443C717.548 248.604 718.192 248.604 718.836 248.604C720.446 248.39 722.056 248.229 723.666 248.121C723.774 248.121 723.827 248.068 723.827 247.96C724.149 247.799 723.827 247.316 723.505 247.316C721.573 246.189 719.158 246.028 717.065 245.062C715.616 244.579 714.328 243.774 712.718 243.291C711.913 243.13 710.947 242.969 710.464 242.325C711.43 242.003 712.235 241.842 713.201 241.681C714.704 241.574 716.206 241.466 717.709 241.359C718.836 241.198 719.963 241.037 720.929 241.359C722.056 241.52 723.022 242.164 724.149 242.486C725.115 242.969 726.242 243.13 727.208 243.613C728.013 244.096 728.657 244.74 729.301 245.223C729.516 245.438 729.784 245.545 730.106 245.545C730.428 245.706 730.75 245.545 731.072 245.545C733.004 245.223 734.883 244.848 736.707 244.418C737.029 244.257 737.512 244.096 737.834 243.774C737.834 243.667 737.834 243.559 737.834 243.452C737.834 243.291 737.673 243.13 737.673 243.13C735.902 241.681 733.648 241.681 731.555 241.037C730.106 240.715 728.818 240.071 727.369 239.749C725.974 239.32 724.525 238.944 723.022 238.622C729.784 237.656 736.546 237.173 743.47 236.69C746.851 236.529 750.393 236.207 753.774 237.173ZM566.205 272.594C568.137 273.077 569.908 274.043 571.84 274.526C573.289 274.848 574.899 274.848 576.509 274.848C577.153 274.848 577.797 274.848 578.441 274.687C579.246 274.526 580.051 274.365 580.695 274.043C581.339 273.882 581.822 273.721 582.305 273.721C582.788 273.721 583.271 273.721 583.915 273.721C584.559 273.721 585.042 273.56 585.686 273.399C587.189 273.077 588.638 272.701 590.033 272.272C590.355 272.272 590.677 272.111 590.677 271.789C590.838 271.467 590.516 271.306 590.194 271.145C589.443 270.823 588.745 270.447 588.101 270.018C586.974 269.535 586.008 269.052 584.881 268.73C581.339 267.442 577.475 267.12 573.772 266.154C569.586 265.188 565.561 263.578 561.374 262.934C559.925 262.773 546.401 260.036 553.485 257.459C554.451 257.137 555.417 257.138 556.383 256.816C560.57 255.367 561.213 249.248 559.764 245.706C558.154 241.842 555.9 241.681 552.036 242.003C542.054 243.13 532.877 246.994 523.056 248.604C512.59 250.375 502.125 250.697 491.821 253.595C481.678 256.655 471.051 258.587 460.908 261.485C472.661 271.467 488.601 274.687 503.091 278.873C507.438 280 511.624 279.839 515.971 280.805C517.796 281.234 519.675 281.61 521.607 281.932C523.378 282.254 524.988 282.093 526.598 282.737C527.242 282.952 527.832 283.166 528.369 283.381C528.691 283.596 529.013 283.757 529.335 283.864C529.979 284.025 530.623 284.025 531.267 284.025C532.877 283.81 534.487 283.649 536.097 283.542C536.204 283.542 536.258 283.488 536.258 283.381C536.58 283.22 536.258 282.737 535.936 282.737C534.004 281.61 531.589 281.449 529.496 280.483C528.047 280 526.759 279.195 525.149 278.712C524.344 278.551 523.378 278.39 522.895 277.746C523.861 277.424 524.666 277.263 525.632 277.102C527.134 276.995 528.637 276.887 530.14 276.78C531.267 276.619 532.394 276.458 533.36 276.78C534.487 276.941 535.453 277.585 536.58 277.907C537.546 278.39 538.673 278.551 539.639 279.034C540.444 279.517 541.088 280.161 541.732 280.644C541.947 280.859 542.215 280.966 542.537 280.966C542.859 281.127 543.181 280.966 543.503 280.966C545.435 280.644 547.314 280.268 549.138 279.839C549.46 279.678 549.943 279.517 550.265 279.195C550.265 279.088 550.265 278.98 550.265 278.873C550.265 278.712 550.104 278.551 550.104 278.551C548.333 277.102 546.079 277.102 543.986 276.458C542.537 276.136 541.249 275.492 539.8 275.17C538.405 274.741 536.956 274.365 535.453 274.043C542.215 273.077 548.977 272.594 555.9 272.111C559.281 271.95 562.824 271.628 566.205 272.594Z" fill="#F9BB5A"/>
</g>
<path d="M140.833 429.573C140.833 412.989 175.127 331.038 420.175 274.848C626.581 227.674 778.408 252.63 826.709 190.482C856.977 151.358 792.254 146.528 792.254 108.209C792.254 69.8905 954.063 62.8064 986.102 31.7327C1003.17 14.9883 986.746 1.94701 986.746 1.94701C982.399 1.142 977.891 0.820068 973.061 0.820068C835.886 0.820068 686.153 109.014 555.74 179.373C425.327 249.893 0.277344 369.679 0.277344 369.679L52.2815 775.73L179.474 781.204C145.503 636.945 140.833 440.682 140.833 429.573Z" fill="url(#paint1_linear_387_378)"/>
<path d="M640.265 233.47C640.265 233.47 634.469 245.062 634.308 246.833C634.147 248.443 638.494 256.976 638.816 256.815C639.299 256.815 643.002 257.137 643.324 260.197L638.172 260.841L636.24 258.908L629.961 248.121L631.893 225.742L639.782 227.835L640.265 233.47Z" fill="#7C3A15"/>
<path d="M666.188 229.606C666.295 229.821 666.403 230.035 666.51 230.25C667.637 232.182 668.12 234.758 668.764 237.012C670.16 241.413 671.179 245.867 671.823 250.375C672.145 251.824 672.467 253.434 673.594 254.078C674.721 254.722 676.492 254.561 676.814 255.688C675.365 256.977 673.433 257.782 671.501 257.782C671.179 257.782 671.018 257.782 670.696 257.621C670.213 257.299 670.052 256.655 670.052 256.011C669.408 249.409 667.154 242.969 663.451 237.334C662.646 235.885 659.587 233.47 660.231 231.538C660.714 230.25 662.646 228.801 663.612 227.674C664.739 228.318 665.544 228.801 666.188 229.606Z" fill="#7C3A15"/>
<path d="M693.558 183.881C696.617 182.754 698.388 182.432 698.066 179.695C697.905 177.602 695.168 178.729 693.88 178.89C690.821 179.373 689.05 179.373 685.991 178.246C684.381 177.602 682.449 177.119 680.839 178.085C679.551 178.89 679.068 180.661 678.907 182.11C678.907 183.72 679.39 185.33 679.39 186.779C679.873 193.38 673.755 205.294 665.866 203.04C662.968 202.074 660.714 199.659 659.587 196.761C658.621 194.507 657.494 191.287 655.079 191.609C653.79 191.77 652.985 192.736 652.18 193.702C648.638 198.371 644.935 206.905 638.012 205.777C634.631 205.294 631.411 202.879 628.03 203.201C625.454 203.523 623.2 205.455 621.751 207.871C618.37 213.667 619.497 221.878 621.107 228.157C624.649 242.325 619.497 247.477 621.751 251.019C623.039 253.112 623.844 255.528 624.649 257.782C625.078 258.855 625.507 259.982 625.937 261.163C626.259 262.129 626.259 263.578 627.386 263.9C627.708 264.007 627.976 264.007 628.191 263.9C629.157 263.9 630.069 263.846 630.928 263.739C631.733 263.739 632.377 263.578 632.86 263.095C632.377 262.773 632.216 261.968 631.733 261.646C631.572 261.485 631.25 261.324 630.928 261.324C630.499 261.216 630.069 261.109 629.64 261.002C629.479 261.002 629.157 260.841 628.996 260.68C628.674 260.519 628.674 260.197 628.513 260.036C627.44 257.03 626.474 254.025 625.615 251.019C625.454 250.536 625.454 250.214 625.454 249.731C625.454 249.409 625.508 249.141 625.615 248.926C626.259 246.35 626.581 243.774 627.708 241.198C628.835 238.783 630.284 236.529 631.894 234.275C632.699 232.987 633.665 231.699 635.114 231.055C637.69 229.767 640.749 231.538 643.486 232.504C649.926 234.597 656.85 232.021 663.612 231.86C664.578 231.86 665.866 231.86 666.671 232.665C667.315 233.148 667.637 233.792 667.959 234.436C668.603 236.046 669.3 237.603 670.052 239.105C670.535 240.393 671.34 241.198 671.018 242.969C670.857 244.579 669.247 245.545 667.798 247.477C666.188 249.731 664.9 253.435 663.612 255.85C663.29 256.333 663.129 256.816 663.29 257.138C663.612 257.46 663.934 257.46 664.095 257.46C665.705 257.782 667.368 257.889 669.086 257.782C669.569 257.621 670.374 257.299 670.213 256.816C670.052 256.494 669.73 256.333 669.569 256.333C668.925 256.011 668.227 255.689 667.476 255.367C668.603 251.502 671.662 248.604 673.755 245.384C676.17 241.842 676.331 238.3 675.365 234.114C673.916 227.674 674.077 218.336 676.653 212.057C678.585 207.548 682.288 204.972 683.093 199.981C683.737 197.244 685.508 194.185 686.474 191.609C687.762 187.584 689.855 185.33 693.558 183.881Z" fill="#7C3A15"/>
<path d="M643.004 170.678C641.072 171.806 640.75 174.542 639.945 176.636C638.818 179.695 635.92 181.788 634.149 184.364C631.251 188.711 630.929 194.185 630.768 199.337C630.768 201.913 630.768 204.65 631.573 207.065C632.378 209.641 633.827 212.056 636.242 213.183C638.013 214.149 640.267 214.149 642.199 213.988C645.902 213.827 650.088 212.378 651.215 208.997C652.02 206.421 650.893 203.523 649.283 201.269C647.834 198.854 645.902 196.761 645.419 194.024C648.156 197.244 652.181 199.498 656.367 199.981C655.831 199.552 655.24 199.122 654.596 198.693C652.825 197.244 650.893 195.956 649.444 194.185C646.063 190.321 644.775 185.33 643.487 180.5C646.063 180.339 648.317 178.246 648.639 175.831C649.122 173.254 647.512 170.517 645.097 169.712" fill="#7C3A15"/>
<path d="M648.156 170.034C646.385 169.229 645.741 168.907 643.97 169.068C642.038 169.39 637.53 171.644 638.013 172.449C638.496 173.415 654.113 175.025 654.596 174.381C654.918 173.576 650.41 171 648.156 170.034Z" fill="#7C3A15"/>
<path d="M684.865 187.423C684.221 197.727 684.221 209.802 675.205 216.565C664.256 224.776 653.147 214.633 644.936 207.709C644.614 207.387 644.292 207.87 644.453 208.192C651.698 216.404 663.129 225.581 674.4 218.819C685.026 212.378 685.992 198.532 685.509 187.423C685.509 187.101 684.865 187.101 684.865 187.423Z" fill="#7C3A15"/>
<path d="M723.344 221.234C723.344 221.234 716.743 232.504 716.421 234.114C716.26 235.724 719.963 244.579 720.285 244.579C720.768 244.579 724.472 245.062 724.472 248.121L719.48 248.443L717.548 246.511L712.074 235.241L715.616 213.022L723.344 215.598V221.234Z" fill="#7C3A15"/>
<path d="M761.294 212.932C762.421 213.898 763.225 215.186 764.031 216.474C764.997 217.87 765.909 219.211 766.768 220.499C767.09 221.143 767.573 221.787 767.573 222.431C767.573 223.075 767.412 223.558 767.251 224.202C766.285 226.939 762.904 232.736 765.48 235.312C766.285 236.117 768.056 236.439 768.056 237.566C766.446 238.532 764.353 238.693 762.42 238.21C762.098 238.21 761.938 238.049 761.777 237.888C761.294 237.566 761.293 236.761 761.454 236.278C761.991 232.628 762.474 228.979 762.904 225.329C763.065 224.041 763.226 222.592 762.904 221.304C762.26 219.372 760.488 218.084 759.039 216.635C757.59 215.025 756.463 212.932 757.268 211C758.878 211.161 760.167 211.805 761.294 212.932Z" fill="#7C3A15"/>
<path d="M713.845 194.668C712.128 197.351 710.464 200.035 708.854 202.718C708.371 203.684 707.727 204.489 707.405 205.616C706.922 207.065 706.922 208.675 707.244 210.124C707.405 211.895 707.888 213.827 709.015 215.276C710.947 217.53 714.65 218.335 715.616 221.234C715.777 221.878 715.938 223.005 716.743 223.166C717.548 223.488 718.353 222.683 718.353 221.878C718.353 221.073 717.709 220.268 717.065 219.785C715.616 218.336 713.845 217.37 712.235 216.242C710.625 215.115 709.176 213.666 708.693 211.573C708.21 208.997 709.981 206.582 711.43 204.328C712.879 202.074 714.328 199.337 713.201 196.922" fill="#7C3A15"/>
<path d="M791.771 169.713C791.449 169.552 791.127 169.391 790.483 169.23C788.229 168.585 784.686 170.196 782.11 169.874C780.822 169.552 779.373 169.23 778.085 169.874C775.831 171.001 776.314 174.221 776.475 176.797C776.958 180.822 775.67 185.491 772.128 187.584C765.688 191.609 753.291 186.618 750.071 180.178C748.944 177.924 747.495 174.704 745.08 175.348C743.953 175.509 743.148 176.636 742.504 177.763C739.283 182.593 736.225 191.287 729.301 190.804C725.92 190.482 722.539 188.389 719.158 189.194C716.582 189.677 714.489 191.77 713.362 194.185C710.947 199.015 710.947 207.387 714.006 211.895C718.192 217.853 721.251 222.361 722.539 229.928C722.7 231.538 723.022 232.987 723.666 234.436C724.954 236.851 727.53 238.3 729.301 240.393C730.428 242.003 730.911 243.613 731.233 245.545C734.024 245.331 736.761 244.848 739.444 244.096C738.961 242.486 737.351 241.198 735.58 241.198C735.097 241.198 734.775 241.359 734.292 241.198C733.97 241.037 733.809 240.876 733.648 240.554C731.716 238.622 727.208 233.792 727.208 230.894C727.208 230.089 727.691 229.123 728.013 228.318C730.053 224.454 732.092 220.59 734.131 216.726C735.903 213.183 742.02 215.277 745.241 215.76C749.266 216.404 752.808 215.277 756.833 214.794C757.96 214.633 759.087 214.632 760.053 215.277C761.985 216.565 762.951 219.946 764.4 221.878C766.171 224.293 767.781 226.225 768.908 229.284C769.66 231.753 770.411 234.168 771.162 236.529C771.323 236.851 771.484 237.334 771.806 237.495C772.128 237.656 772.45 237.656 772.772 237.495C774.597 237.28 776.368 237.012 778.085 236.69C778.729 236.529 779.373 236.368 779.534 235.885C779.695 235.241 779.051 234.758 778.568 234.597C777.924 234.436 777.28 234.436 776.636 234.436C775.348 234.275 774.382 233.47 773.738 232.343C773.094 231.377 772.772 230.089 772.45 228.962C769.713 219.785 766.171 209.802 767.137 199.981C767.459 199.766 767.835 199.552 768.264 199.337C770.518 198.371 772.933 197.888 775.187 196.761C781.145 193.541 781.466 187.262 783.72 180.822C784.525 178.729 788.068 178.246 789.678 176.636C790.483 175.992 792.254 173.899 791.932 172.128C791.61 170.518 792.254 170.035 791.771 169.713Z" fill="#7C3A15"/>
<path d="M811.896 160.696C810.125 160.052 809.481 159.73 807.71 160.052C805.778 160.535 801.431 163.111 801.914 163.916C802.558 164.721 818.337 165.043 818.659 164.399C818.981 163.755 814.311 161.501 811.896 160.696Z" fill="#7C3A15"/>
<path d="M818.497 196.117C817.638 194.722 816.726 193.326 815.76 191.931C814.633 190.16 812.379 187.101 811.091 185.008C814.311 187.423 815.277 189.033 818.98 190.643C821.073 191.448 825.742 192.253 827.513 190.965C828.962 189.999 825.742 189.516 825.742 189.516C824.454 189.033 823.005 189.194 821.717 188.711C819.141 187.906 816.887 186.457 815.116 184.525C811.413 181.144 809.642 176.153 808.032 171.483C810.608 171.161 812.701 168.907 812.862 166.331C813.023 163.755 811.252 161.34 808.837 160.535L806.905 161.823C804.973 162.95 804.973 165.687 804.329 167.941C803.363 171 800.787 173.254 799.177 176.153C796.6 180.661 796.601 186.135 796.923 191.287C797.245 193.863 797.405 196.6 798.372 199.015C800.787 205.294 803.524 211.412 802.397 218.496C802.075 220.589 801.592 222.683 801.914 224.776C809.213 223.38 816.511 221.931 823.81 220.429C824.293 220.429 824.776 220.268 824.937 219.946C825.098 219.624 824.937 219.302 824.937 218.98C824.508 216.189 824.079 213.398 823.649 210.607C823.166 207.387 822.683 204.006 821.234 201.108C820.375 199.391 819.463 197.727 818.497 196.117Z" fill="#7C3A15"/>
<path d="M808.676 220.911C808.193 222.844 807.549 226.708 807.388 228.801C807.227 230.089 811.735 228.479 813.989 227.996C814.15 227.191 813.023 226.869 812.218 227.03C811.574 227.191 810.447 227.03 810.286 226.225C810.179 226.117 810.179 225.956 810.286 225.742C810.608 223.166 811.252 221.073 812.218 218.657" fill="#7C3A15"/>
<path d="M819.302 217.048C819.302 217.048 820.751 226.708 821.073 226.869C821.395 227.191 825.42 226.386 827.674 225.903C827.996 225.098 826.869 224.776 826.064 224.937C825.259 225.098 823.81 224.937 823.327 224.615C823.005 224.293 822.2 216.082 822.2 216.082" fill="#7C3A15"/>
<path d="M771.323 189.516C772.772 200.786 781.627 206.099 792.576 206.099C805.134 206.099 816.082 199.015 825.259 191.287C825.903 190.804 825.098 189.999 824.615 190.482C816.726 196.6 808.515 202.557 798.694 204.489C786.619 206.743 774.221 202.557 771.967 189.355C771.806 189.033 771.323 189.194 771.323 189.516Z" fill="#7C3A15"/>
<path d="M766.493 193.219C771.967 190.965 774.866 191.126 780.018 193.863C781.95 194.829 783.721 195.795 785.653 196.6C789.678 198.371 794.025 199.498 798.372 199.659C807.066 199.659 815.599 195.151 822.684 190.804C823.006 190.643 822.844 190.321 822.522 190.482C811.091 195.312 801.592 201.269 788.712 196.922C779.373 193.702 775.993 188.55 766.332 193.058C766.171 193.058 766.332 193.38 766.493 193.219Z" fill="#7C3A15"/>
<path d="M534.487 255.849C534.487 255.849 527.886 267.12 527.564 268.73C527.403 270.34 531.106 279.195 531.428 279.195C531.911 279.034 535.614 279.678 535.614 282.737L530.623 283.059L528.691 280.966L523.217 269.696L526.759 247.638L534.487 250.214V255.849Z" fill="#7C3A15"/>
<path d="M569.747 247.155C570.874 248.282 571.679 249.57 572.484 250.858C573.45 252.146 574.362 253.488 575.221 254.884C575.543 255.528 576.026 256.172 576.026 256.816C576.026 257.46 575.865 257.943 575.704 258.426C574.738 261.324 571.357 266.959 573.933 269.535C574.738 270.501 576.509 270.662 576.509 271.95C574.899 272.755 572.806 273.077 570.874 272.594C570.552 272.433 570.391 272.433 570.23 272.272C569.747 271.789 569.747 271.145 569.908 270.662C570.444 267.012 570.927 263.309 571.357 259.553C571.518 258.265 571.679 256.977 571.357 255.689C570.713 253.757 568.942 252.468 567.493 250.858C566.044 249.409 564.917 247.155 565.722 245.384C567.332 245.384 568.62 246.189 569.747 247.155Z" fill="#7C3A15"/>
<path d="M524.988 229.123C523.27 231.914 521.607 234.651 519.997 237.334C519.514 238.139 518.87 239.105 518.548 240.071C518.065 241.52 518.064 243.13 518.387 244.74C518.548 246.511 519.031 248.443 520.158 249.892C522.09 252.146 525.793 252.951 526.759 255.688C526.92 256.493 527.081 257.459 527.886 257.781C528.53 258.103 529.496 257.298 529.496 256.332C529.496 255.527 528.852 254.883 528.208 254.239C526.759 252.951 524.988 251.985 523.378 250.858C521.768 249.731 520.319 248.121 519.836 246.189C519.353 243.613 521.124 241.037 522.573 238.944C524.022 236.69 525.471 233.953 524.344 231.538" fill="#7C3A15"/>
<path d="M602.913 204.328C602.591 204.167 602.269 204.006 601.625 203.845C599.371 203.201 595.829 204.811 593.253 204.328C591.965 204.167 590.516 203.845 589.228 204.489C586.974 205.616 587.457 208.836 587.618 211.412C588.101 215.438 586.813 220.107 583.271 222.2C576.831 226.225 564.433 221.073 561.213 214.633C560.086 212.379 558.637 209.319 556.222 209.963C555.095 210.124 554.29 211.251 553.646 212.218C550.426 217.209 547.367 225.903 540.444 225.42C537.063 225.098 533.682 223.005 530.301 223.649C527.725 224.132 525.632 226.386 524.504 228.64C522.089 233.631 522.089 242.003 525.149 246.35C529.335 252.468 532.394 256.977 533.682 264.544C533.843 265.993 534.165 267.603 534.809 269.052C536.097 271.467 538.673 272.755 540.444 275.009C541.571 276.458 542.054 278.068 542.376 280.161C545.167 279.946 547.904 279.463 550.587 278.712C550.104 277.102 548.494 275.814 546.723 275.814C546.24 275.814 545.918 275.814 545.435 275.653C545.113 275.653 544.952 275.331 544.791 275.17C542.859 273.238 538.351 268.247 538.351 265.51C538.351 264.544 538.834 263.739 539.156 262.934C541.195 259.07 543.235 255.152 545.274 251.18C547.045 247.638 553.163 249.731 556.383 250.375C560.408 251.019 563.95 249.731 567.975 249.409C569.102 249.248 570.23 249.248 571.196 249.892C573.128 251.18 574.094 254.4 575.543 256.332C577.314 258.908 578.924 260.841 580.051 263.9C580.802 266.261 581.553 268.676 582.305 271.145C582.466 271.467 582.627 271.789 582.949 272.111C583.271 272.272 583.593 272.111 583.915 272.111C585.74 271.789 587.511 271.521 589.228 271.306C589.872 271.145 590.516 270.984 590.677 270.501C590.838 269.857 590.194 269.213 589.711 269.052C589.067 268.891 588.423 269.052 587.779 269.052C586.491 268.891 585.525 267.925 584.881 266.959C584.237 265.832 583.915 264.705 583.593 263.578C580.856 254.4 577.314 244.418 578.28 234.597C578.602 234.382 578.977 234.168 579.407 233.953C581.661 232.826 584.076 232.343 586.169 231.216C592.287 228.157 592.609 221.717 594.863 215.438C595.668 213.345 599.21 212.861 600.82 211.251C601.625 210.446 603.396 208.353 603.074 206.743C602.752 205.133 603.396 204.65 602.913 204.328Z" fill="#7C3A15"/>
<path d="M584.398 223.971C600.176 226.225 616.599 220.912 629.318 211.413C629.801 210.93 629.318 210.124 628.674 210.446C614.989 219.785 600.82 223.649 584.398 223.81C584.237 223.81 584.237 223.971 584.398 223.971Z" fill="#7C3A15"/>
<defs>
<linearGradient id="paint0_linear_387_378" x1="957192" y1="918939" x2="1.47993e+06" y2="-198618" gradientUnits="userSpaceOnUse">
<stop offset="0.51" stop-color="#F9AC4B"/>
<stop offset="1" stop-color="#F9E994"/>
</linearGradient>
<linearGradient id="paint1_linear_387_378" x1="574787" y1="486102" x2="1.18793e+06" y2="486102" gradientUnits="userSpaceOnUse">
<stop offset="0.28" stop-color="#D9501C"/>
<stop offset="0.95" stop-color="#F98E2D"/>
</linearGradient>
</defs>
</svg>
