<svg width="1000" height="1417" viewBox="0 0 1000 1417" fill="none" xmlns="http://www.w3.org/2000/svg">
<g clip-path="url(#clip0_665_371)">
<rect width="1000" height="1417" fill="#D9501C"/>
<path d="M1008.67 -2.77881V1416.61H-1.37793V-2.77881H1008.67Z" fill="url(#paint0_linear_665_371)"/>
<path style="mix-blend-mode:multiply" d="M-84.123 181.478L1232 285.785L1220.14 198.956L-118 -21L-84.123 181.478Z" fill="url(#paint1_linear_665_371)"/>
<path d="M-58.1221 565.982C-58.1221 548.877 -41.7764 319.438 -41.7764 319.438L1091.5 165.674L1100.98 602.239L-58.1221 565.982Z" fill="url(#paint2_linear_665_371)"/>
<path d="M-44.4022 712.31C-44.8539 711.442 -45.2774 710.575 -45.6726 709.707C-64.305 671.405 -70.7416 619.345 -72.012 566.169C-72.1814 556.872 -73.96 446.429 -77.3477 445.686C-5.81064 462.667 65.7546 479.711 137.348 496.816C300.466 535.614 463.584 574.473 626.702 613.395C705.692 632.236 784.682 651.077 863.672 669.918C896.024 677.603 928.405 685.288 960.814 692.973C1006.72 703.943 1052.79 695.204 1094.12 749.31C1098.27 754.888 1102.59 761.396 1104.45 771.25C1107.42 787.612 1102.17 806.577 1095.05 814.572C1088.02 822.567 1079.64 822.381 1071.68 822.009C944.468 816.803 817.288 811.659 690.137 806.577C630.428 804.16 570.466 801.557 511.943 776.084C484.418 764.185 456.893 747.079 428.945 750.054C401.589 753.029 375.419 775.154 348.148 780.546C279.547 794.677 213.741 703.571 144.886 711.194C111.94 714.913 80.35 740.943 47.828 752.843C15.8142 764.37 -20.2648 759.35 -44.4022 712.31Z" fill="url(#paint3_linear_665_371)"/>
<path d="M-104.448 1368.34C-104.448 1266.82 -100.976 1155.08 -93.9464 1055.24C-83.6139 907.978 -80.819 756.445 -75.8221 606.957C-75.3987 595.801 -74.8058 583.529 -71.0794 575.906C-67.607 568.841 -62.4407 567.911 -57.6979 567.353C30.2977 556.384 118.463 545.6 206.458 556.198C236.439 559.73 266.505 573.303 296.402 565.494C326.806 557.313 356.449 536.489 387.192 537.047C402.86 537.419 418.274 543.368 433.773 546.901C471.123 555.454 509.15 549.876 545.652 530.539C568.434 518.454 590.624 500.976 613.745 492.238C649.993 478.665 687.089 487.032 723.761 487.775C780.505 488.705 836.995 471.227 893.146 453.936C944.695 437.946 996.245 421.956 1047.79 405.966C1064.48 400.76 1085.23 399.458 1094.12 430.881C1097.51 443.152 1098.27 458.026 1098.95 472.343C1102.51 553.409 1108.18 640.982 1105.64 722.42C1104.71 751.982 1100.39 778.199 1100.13 808.319C1099.71 853.686 1099.63 899.239 1099.29 944.607C1098.02 1119.94 1096.15 1295.46 1094.29 1470.79L-104.448 1368.34Z" fill="url(#paint4_linear_665_371)"/>
<path style="mix-blend-mode:multiply" opacity="0.5" d="M1214.98 298.053L53.249 616.924L1215.49 577.692L1214.98 298.053Z" fill="url(#paint5_linear_665_371)"/>
<g style="mix-blend-mode:multiply" opacity="0.3">
<path d="M1100.64 543.667C1099.97 523.401 1098.19 503.134 1094.8 484.169C1082.77 417.049 1047.12 366.104 1014.09 384.325C993.676 395.481 975.721 426.717 966.066 467.808C960.476 491.793 956.326 521.356 944.978 531.21C924.313 548.873 906.019 483.426 883.83 486.215C869.432 488.26 859.692 517.823 850.715 542.552C841.737 567.466 828.864 587.547 815.313 576.391C811.163 573.044 807.691 566.351 803.71 561.702C790.752 546.27 768.902 549.617 756.875 568.024C744.68 586.803 737.142 637.562 724.438 647.416C710.633 658.2 690.985 642.768 678.873 642.954C652.365 643.698 633.139 649.648 610.272 674.376C610.272 674.376 998.588 674.376 1029.75 674.376C1075.32 674.376 1090.65 639.793 1098.36 597.215C1101.4 580.481 1101.24 561.702 1100.64 543.667Z" fill="url(#paint6_linear_665_371)"/>
</g>
<path d="M697.166 463.535C697.166 465.394 696.489 466.881 695.642 466.881C694.795 466.881 694.117 465.394 694.117 463.535C694.117 461.675 694.795 460.188 695.642 460.188C696.489 460.188 697.166 461.675 697.166 463.535Z" fill="white"/>
<path d="M177.408 339.519C177.408 341.378 176.73 342.866 175.883 342.866C175.121 342.866 174.443 341.378 174.443 339.519C174.443 337.66 175.121 336.172 175.883 336.172C176.73 336.172 177.408 337.66 177.408 339.519Z" fill="white"/>
<path d="M617.64 223.87C617.64 225.73 616.962 227.217 616.115 227.217C615.268 227.217 614.591 225.73 614.591 223.87C614.591 222.197 615.268 220.709 616.115 220.709C616.962 220.709 617.64 222.197 617.64 223.87Z" fill="white"/>
<path d="M27.7553 290.991C27.7553 292.664 27.0777 294.152 26.3155 294.152C25.4685 294.152 24.791 292.664 24.791 290.991C24.791 289.132 25.4685 287.644 26.3155 287.644C27.0777 287.644 27.7553 289.132 27.7553 290.991Z" fill="white"/>
<path d="M408.111 602.239C408.111 604.099 407.433 605.586 406.671 605.586C405.824 605.586 405.146 604.099 405.146 602.239C405.146 600.38 405.824 598.893 406.671 598.893C407.433 598.893 408.111 600.38 408.111 602.239Z" fill="white"/>
<path d="M299.281 119.191C299.281 122.724 298.01 125.513 296.401 125.513C294.877 125.513 293.606 122.724 293.606 119.191C293.606 115.845 294.877 113.056 296.401 113.056C298.01 113.056 299.281 115.845 299.281 119.191Z" fill="white"/>
<path d="M942.689 259.011C942.689 260.685 942.011 262.172 941.249 262.172C940.402 262.172 939.725 260.685 939.725 259.011C939.725 257.152 940.402 255.665 941.249 255.665C942.011 255.665 942.689 257.152 942.689 259.011Z" fill="white"/>
<path d="M487.383 212.528C487.383 214.016 486.875 215.317 486.197 215.317C485.52 215.317 484.927 214.016 484.927 212.528C484.927 211.041 485.52 209.925 486.197 209.925C486.875 209.925 487.383 211.041 487.383 212.528Z" fill="white"/>
<path d="M763.312 201.745C763.312 203.232 762.719 204.534 762.041 204.534C761.364 204.534 760.855 203.232 760.855 201.745C760.855 200.258 761.364 198.956 762.041 198.956C762.719 198.956 763.312 200.258 763.312 201.745Z" fill="white"/>
<path opacity="0.5" d="M106.773 366.479C106.773 367.966 106.181 369.082 105.503 369.082C104.826 369.082 104.317 367.966 104.317 366.479C104.317 364.991 104.826 363.69 105.503 363.69C106.181 363.69 106.773 364.991 106.773 366.479Z" fill="white"/>
<path opacity="0.5" d="M96.1865 492.168C96.1865 493.655 95.6784 494.957 95.0009 494.957C94.2386 494.957 93.7305 493.655 93.7305 492.168C93.7305 490.681 94.2386 489.565 95.0009 489.565C95.6784 489.565 96.1865 490.681 96.1865 492.168Z" fill="white"/>
<path opacity="0.5" d="M150.56 576.766C150.56 578.254 150.051 579.555 149.374 579.555C148.696 579.555 148.104 578.254 148.104 576.766C148.104 575.279 148.696 573.978 149.374 573.978C150.051 573.978 150.56 575.279 150.56 576.766Z" fill="white"/>
<path opacity="0.5" d="M795.071 403.665C795.071 405.153 794.478 406.454 793.801 406.454C793.123 406.454 792.615 405.153 792.615 403.665C792.615 402.178 793.123 401.062 793.801 401.062C794.478 401.062 795.071 402.178 795.071 403.665Z" fill="white"/>
<path opacity="0.5" d="M26.3155 510.575C26.3155 512.063 25.7226 513.178 25.0451 513.178C24.3675 513.178 23.8594 512.063 23.8594 510.575C23.8594 509.088 24.3675 507.786 25.0451 507.786C25.7226 507.786 26.3155 509.088 26.3155 510.575Z" fill="white"/>
<path opacity="0.5" d="M200.444 82.935C200.444 84.4225 199.852 85.724 199.174 85.724C198.496 85.724 197.988 84.4225 197.988 82.935C197.988 81.4476 198.496 80.332 199.174 80.332C199.852 80.332 200.444 81.4476 200.444 82.935Z" fill="white"/>
<path opacity="0.3" d="M106.773 171.066C106.773 172.553 106.181 173.669 105.503 173.669C104.826 173.669 104.317 172.553 104.317 171.066C104.317 169.578 104.826 168.277 105.503 168.277C106.181 168.277 106.773 169.578 106.773 171.066Z" fill="white"/>
<path opacity="0.3" d="M76.1993 693.344C76.1993 694.832 75.6911 696.133 75.0136 696.133C74.336 696.133 73.7432 694.832 73.7432 693.344C73.7432 691.857 74.336 690.555 75.0136 690.555C75.6911 690.555 76.1993 691.857 76.1993 693.344Z" fill="white"/>
<path opacity="0.3" d="M148.104 179.805C148.104 181.479 147.595 182.594 146.918 182.594C146.24 182.594 145.647 181.479 145.647 179.805C145.647 178.318 146.24 177.202 146.918 177.202C147.595 177.202 148.104 178.318 148.104 179.805Z" fill="white"/>
<path opacity="0.3" d="M347.47 39.9849C347.47 41.4723 346.962 42.7738 346.284 42.7738C345.607 42.7738 345.014 41.4723 345.014 39.9849C345.014 38.4974 345.607 37.3818 346.284 37.3818C346.962 37.3818 347.47 38.4974 347.47 39.9849Z" fill="white"/>
<path opacity="0.5" d="M398.201 171.066C398.201 172.553 397.608 173.669 396.931 173.669C396.253 173.669 395.66 172.553 395.66 171.066C395.66 169.578 396.253 168.277 396.931 168.277C397.608 168.277 398.201 169.578 398.201 171.066Z" fill="white"/>
<path opacity="0.3" d="M706.905 352.162C706.905 353.649 706.397 354.765 705.72 354.765C705.042 354.765 704.449 353.649 704.449 352.162C704.449 350.675 705.042 349.373 705.72 349.373C706.397 349.373 706.905 350.675 706.905 352.162Z" fill="white"/>
<path opacity="0.3" d="M997.146 565.982C997.146 567.47 996.554 568.585 995.876 568.585C995.199 568.585 994.69 567.47 994.69 565.982C994.69 564.495 995.199 563.193 995.876 563.193C996.554 563.193 997.146 564.495 997.146 565.982Z" fill="white"/>
<path opacity="0.3" d="M976.566 42.7738C976.566 44.2613 975.974 45.3768 975.296 45.3768C974.619 45.3768 974.11 44.2613 974.11 42.7738C974.11 41.2864 974.619 39.9849 975.296 39.9849C975.974 39.9849 976.566 41.2864 976.566 42.7738Z" fill="white"/>
<path opacity="0.3" d="M823.866 573.977C823.866 575.464 823.358 576.766 822.681 576.766C822.003 576.766 821.41 575.464 821.41 573.977C821.41 572.49 822.003 571.374 822.681 571.374C823.358 571.374 823.866 572.49 823.866 573.977Z" fill="white"/>
<path opacity="0.3" d="M881.796 256.222C881.796 257.71 881.203 259.011 880.525 259.011C879.848 259.011 879.255 257.71 879.255 256.222C879.255 254.735 879.848 253.619 880.525 253.619C881.203 253.619 881.796 254.735 881.796 256.222Z" fill="white"/>
<path opacity="0.3" d="M954.969 212.528C954.969 214.016 954.461 215.317 953.783 215.317C953.021 215.317 952.513 214.016 952.513 212.528C952.513 211.041 953.021 209.925 953.783 209.925C954.461 209.925 954.969 211.041 954.969 212.528Z" fill="white"/>
<path opacity="0.3" d="M858.082 489.565C858.082 491.052 857.574 492.168 856.896 492.168C856.219 492.168 855.626 491.052 855.626 489.565C855.626 488.077 856.219 486.776 856.896 486.776C857.574 486.776 858.082 488.077 858.082 489.565Z" fill="white"/>
<path opacity="0.3" d="M605.528 89.0707C605.528 90.5581 605.02 91.6737 604.343 91.6737C603.665 91.6737 603.072 90.5581 603.072 89.0707C603.072 87.5833 603.665 86.2817 604.343 86.2817C605.02 86.2817 605.528 87.5833 605.528 89.0707Z" fill="white"/>
<path opacity="0.5" d="M535.911 173.669C535.911 175.157 535.403 176.458 534.725 176.458C534.048 176.458 533.455 175.157 533.455 173.669C533.455 172.182 534.048 171.066 534.725 171.066C535.403 171.066 535.911 172.182 535.911 173.669Z" fill="white"/>
<path opacity="0.5" d="M694.117 226.659C694.117 228.147 693.609 229.448 692.932 229.448C692.169 229.448 691.661 228.147 691.661 226.659C691.661 225.172 692.169 223.87 692.932 223.87C693.609 223.87 694.117 225.172 694.117 226.659Z" fill="white"/>
<path opacity="0.5" d="M377.027 116.588C377.027 118.076 376.519 119.191 375.842 119.191C375.164 119.191 374.571 118.076 374.571 116.588C374.571 115.101 375.164 113.799 375.842 113.799C376.519 113.799 377.027 115.101 377.027 116.588Z" fill="white"/>
<path opacity="0.5" d="M328.244 283.183C328.244 284.67 327.736 285.786 327.058 285.786C326.296 285.786 325.788 284.67 325.788 283.183C325.788 281.695 326.296 280.394 327.058 280.394C327.736 280.394 328.244 281.695 328.244 283.183Z" fill="white"/>
<path d="M952.513 450.583L910.929 534.995C909.998 536.855 909.998 540.016 910.929 541.875C911.776 543.92 913.216 543.92 914.063 541.875L952.513 450.583Z" fill="url(#paint7_linear_665_371)"/>
<path d="M848.885 192.642L819.496 252.14C818.904 253.627 818.904 255.858 819.496 257.16C820.174 258.461 821.19 258.461 821.783 257.16L848.885 192.642Z" fill="url(#paint8_linear_665_371)"/>
<path d="M187.139 220.358L157.75 279.856C157.157 281.343 157.157 283.574 157.75 284.876C158.343 286.177 159.359 286.177 160.037 284.876L187.139 220.358Z" fill="url(#paint9_linear_665_371)"/>
<rect opacity="0.5" x="-64" y="-2.52295" width="1083.33" height="184.772" fill="url(#paint10_linear_665_371)"/>
</g>
<defs>
<linearGradient id="paint0_linear_665_371" x1="510778" y1="1.23771e+06" x2="510778" y2="154143" gradientUnits="userSpaceOnUse">
<stop offset="0.2" stop-color="#FFFF91"/>
<stop offset="1" stop-color="#FF7532"/>
</linearGradient>
<linearGradient id="paint1_linear_665_371" x1="1.08596e+06" y1="80909" x2="1.08596e+06" y2="30289.4" gradientUnits="userSpaceOnUse">
<stop stop-color="#FB4F46" stop-opacity="0.1"/>
<stop offset="1" stop-color="#DF4924" stop-opacity="0.1"/>
</linearGradient>
<linearGradient id="paint2_linear_665_371" x1="916908" y1="87129.4" x2="916908" y2="189635" gradientUnits="userSpaceOnUse">
<stop stop-color="#FBA146" stop-opacity="0.1"/>
<stop offset="1" stop-color="#DF4924" stop-opacity="0.05"/>
</linearGradient>
<linearGradient id="paint3_linear_665_371" x1="918719" y1="132132" x2="918719" y2="208365" gradientUnits="userSpaceOnUse">
<stop stop-color="#FBE07F" stop-opacity="0"/>
<stop offset="1" stop-color="#DF4924" stop-opacity="0.05"/>
</linearGradient>
<linearGradient id="paint4_linear_665_371" x1="764346" y1="1.15617e+06" x2="764346" y2="543106" gradientUnits="userSpaceOnUse">
<stop stop-color="#FBE07F" stop-opacity="0"/>
<stop offset="1" stop-color="#DF4924" stop-opacity="0.05"/>
</linearGradient>
<linearGradient id="paint5_linear_665_371" x1="1.06362e+06" y1="94046.1" x2="1.06362e+06" y2="148732" gradientUnits="userSpaceOnUse">
<stop stop-color="#FBA146" stop-opacity="0.05"/>
<stop offset="1" stop-color="#DF4924" stop-opacity="0.1"/>
</linearGradient>
<linearGradient id="paint6_linear_665_371" x1="430430" y1="99796.8" x2="714753" y2="99796.8" gradientUnits="userSpaceOnUse">
<stop offset="0.14" stop-color="#F9E675"/>
<stop offset="0.63" stop-color="#F99749"/>
</linearGradient>
<linearGradient id="paint7_linear_665_371" x1="52922.3" y1="30340.5" x2="55032.2" y2="30340.5" gradientUnits="userSpaceOnUse">
<stop stop-color="white"/>
<stop offset="1" stop-color="white" stop-opacity="0.1"/>
</linearGradient>
<linearGradient id="paint8_linear_665_371" x1="32349.5" y1="16127.3" x2="33399.6" y2="16127.3" gradientUnits="userSpaceOnUse">
<stop stop-color="white" stop-opacity="0.7"/>
<stop offset="1" stop-color="white" stop-opacity="0.1"/>
</linearGradient>
<linearGradient id="paint9_linear_665_371" x1="7433.57" y1="17307.8" x2="8483.69" y2="17307.8" gradientUnits="userSpaceOnUse">
<stop stop-color="white" stop-opacity="0.7"/>
<stop offset="1" stop-color="white" stop-opacity="0.1"/>
</linearGradient>
<linearGradient id="paint10_linear_665_371" x1="477.667" y1="-2.52295" x2="477.667" y2="182.249" gradientUnits="userSpaceOnUse">
<stop stop-color="#281203"/>
<stop offset="1" stop-color="#281203" stop-opacity="0"/>
</linearGradient>
<clipPath id="clip0_665_371">
<rect width="1000" height="1417" fill="white"/>
</clipPath>
</defs>
</svg>
