<svg width="357" height="357" viewBox="0 0 357 357" fill="none" xmlns="http://www.w3.org/2000/svg">
<g style="mix-blend-mode:screen" opacity="0.1">
<path d="M356.14 178.07C356.14 276.443 276.443 356.14 178.07 356.14C79.6968 356.14 0 276.443 0 178.07C0 79.6968 79.6968 0 178.07 0C276.443 0 356.14 79.6968 356.14 178.07Z" fill="#FFF297"/>
</g>
<g style="mix-blend-mode:screen" opacity="0.1">
<path d="M310.254 178.07C310.254 251.005 251.004 310.254 178.07 310.254C105.135 310.254 46.0469 251.005 46.0469 178.07C46.0469 105.136 105.135 46.0474 178.07 46.0474C251.004 46.0474 310.254 105.136 310.254 178.07Z" fill="#FFF297"/>
</g>
<g style="mix-blend-mode:screen" opacity="0.1">
<path d="M280.79 178.07C280.79 234.743 234.743 280.79 178.07 280.79C121.397 280.79 75.3496 234.743 75.3496 178.07C75.3496 121.397 121.397 75.3496 178.07 75.3496C234.743 75.3496 280.79 121.397 280.79 178.07Z" fill="#FFF297"/>
</g>
<path d="M264.529 178.07C264.529 225.888 225.888 264.529 178.07 264.529C130.413 264.529 91.6113 225.888 91.6113 178.07C91.6113 130.413 130.413 91.6113 178.07 91.6113C225.888 91.6113 264.529 130.413 264.529 178.07Z" fill="url(#paint0_linear_269_282)"/>
<defs>
<linearGradient id="paint0_linear_269_282" x1="66526.6" y1="62739.7" x2="66526.6" y2="44168.4" gradientUnits="userSpaceOnUse">
<stop stop-color="#F4E08B" stop-opacity="0.6"/>
<stop offset="1" stop-color="#F4F5AD"/>
</linearGradient>
</defs>
</svg>
