<svg width="386" height="209" viewBox="0 0 386 209" fill="none" xmlns="http://www.w3.org/2000/svg">
<path fill-rule="evenodd" clip-rule="evenodd" d="M155.199 137.064C157.234 137.781 159.256 138.55 161.265 139.372C163.26 140.024 165.179 140.99 167.056 141.448C168.426 141.947 169.754 141.94 171.12 141.776C171.354 141.722 171.535 141.656 171.665 141.577C171.86 141.459 171.779 141.108 171.699 140.757C171.581 140.563 171.306 140.33 170.994 140.254C169.738 139.284 168.293 139.097 166.767 138.56C162.227 136.789 158.034 134.275 154.345 131.055C159.457 130.479 164.775 131.776 169.357 134.054C170.845 134.748 171.982 135.523 173.042 136.61C174.194 137.775 175.372 138.836 176.575 139.792C177.006 140.063 177.281 140.296 177.712 140.566C178.181 140.681 178.807 140.833 179.314 140.792C180.174 140.891 181.046 140.938 181.931 140.933C182.088 140.971 182.244 141.009 182.282 140.853C182.672 140.616 182.591 140.265 182.317 140.032C182.118 139.487 181.687 139.216 181.256 138.945C179.295 137.472 177.296 136.156 175.53 134.565C173.92 133.012 172.115 131.578 171.089 129.67C177.132 130.261 183.061 131.32 188.875 132.849C190.439 133.23 191.965 133.768 193.259 134.581C195.101 135.859 196.127 137.766 197.386 139.399C197.964 140.203 198.619 140.915 199.351 141.536C200.175 142.234 200.766 143.207 201.823 143.63C202.411 143.939 203.193 144.13 203.819 144.283C204.574 144.356 205.329 144.43 206.085 144.504C206.293 144.555 206.502 144.606 206.71 144.657C206.893 144.812 207.077 144.967 207.26 145.122C207.847 145.431 208.786 145.66 209.606 145.694C211.365 145.958 213.162 146.064 214.68 145.275C214.836 145.313 215.031 145.195 215.107 144.882C215.146 144.725 215.027 144.531 214.909 144.336C213.599 142.912 212.134 141.671 210.514 140.613C209.652 140.071 208.595 139.647 207.771 138.949C207.103 138.289 206.474 137.473 206.001 136.695C204.822 135.413 203.449 134.249 202.27 132.967C201.72 132.502 201.209 131.88 200.622 131.571C200.191 131.3 199.721 131.186 199.134 130.876C195.097 128.4 192.003 126.817 188.352 123.441C184.583 119.87 180.425 116.535 175.568 114.025C163.936 108.039 150.156 108.821 137.147 107.802C127.262 106.882 117.099 105.066 107.546 107.542C107.038 107.584 106.493 107.782 106.065 108.175C105.329 109.156 106.313 110.556 107.099 111.411C113.146 117.194 119.693 121.608 126.624 125.122C135.594 129.796 145.337 133.333 155.199 137.064ZM355.102 145.056C355.755 145.547 356.422 145.985 357.101 146.372C357.963 146.914 358.669 147.417 359.493 148.115C359.886 148.543 360.79 149.592 361.339 150.057C362.713 151.221 363.96 150.862 365.601 150.931C365.913 151.007 366.264 150.927 366.615 150.847C366.966 150.767 367.199 150.492 367.276 150.179C367.234 149.672 366.959 149.439 366.684 149.207C366.239 148.767 365.846 148.339 365.505 147.925C364.877 147.33 364.197 146.722 363.464 146.101C361.11 144.201 358.291 142.851 355.434 141.656C352.733 140.5 350.188 139.383 347.605 138.421C347.018 138.112 346.197 138.078 345.648 137.612C345.335 137.536 345.099 137.147 344.629 137.032C343.336 136.22 341.966 135.72 340.597 135.22C334.489 132.405 328.381 129.589 322.082 127.555L302.378 130.207C309.619 133.133 337.648 145.273 344.889 148.199C345.632 148.546 346.258 148.699 346.964 149.203C347.826 149.744 348.57 150.091 349.547 150.164C350.173 150.317 350.68 150.275 351.344 150.271C352.437 150.317 353.596 150.323 354.819 150.29C354.819 150.29 354.976 150.328 355.014 150.172C355.039 150.067 355 150.003 354.896 149.977C354.384 149.355 353.251 149.245 352.74 148.623C352.034 148.119 351.912 147.261 351.596 146.521C351.203 146.093 350.653 145.628 350.455 145.082C350.244 144.589 350.15 144.069 350.173 143.522C350.198 143.418 350.288 143.274 350.444 143.091C350.482 142.934 350.638 142.973 350.951 143.049C351.615 143.045 352.202 143.354 352.79 143.663C353.548 144.179 354.318 144.644 355.102 145.056ZM295.628 144.967C297.391 145.894 298.883 147.252 300.645 148.179C301.977 148.836 303.541 149.217 305.105 149.599C305.731 149.751 306.356 149.904 307.02 149.9C307.84 149.934 308.661 149.969 309.363 149.808C310.026 149.805 310.534 149.763 311.003 149.877C311.472 149.992 311.942 150.106 312.567 150.259C313.193 150.411 313.7 150.369 314.364 150.366C315.9 150.409 317.397 150.387 318.855 150.301C319.167 150.377 319.518 150.297 319.595 149.984C319.827 149.71 319.553 149.477 319.278 149.244C318.624 148.753 318.036 148.223 317.512 147.653C316.531 146.917 315.707 146.219 314.688 145.639C311.553 143.548 307.875 142.32 304.506 140.503C301.256 138.882 298.509 136.555 295.335 134.621C272.601 119.795 241.642 114.232 214.822 115.479C213.845 115.407 212.83 115.49 212.014 116.12C210.419 117.222 210.354 119.527 211.106 121.202C212.529 124.2 215.546 126.096 218.327 127.603C223.264 130.465 228.044 133.288 232.825 136.111C236.781 138.236 240.886 139.072 244.88 141.04C246.551 141.89 248.287 142.7 250.088 143.471C251.732 144.203 253.334 144.428 254.746 145.436C255.321 145.797 255.843 146.145 256.314 146.481C256.576 146.766 256.851 146.999 257.138 147.179C257.725 147.488 258.351 147.641 258.977 147.793C260.592 147.966 262.194 148.192 263.784 148.469C263.888 148.494 263.953 148.455 263.978 148.351C264.329 148.27 264.131 147.725 263.818 147.648C262.208 146.096 259.9 145.367 258.096 143.933C256.802 143.12 255.742 142.033 254.292 141.182C253.548 140.835 252.648 140.449 252.331 139.709C253.346 139.625 254.166 139.66 255.143 139.732C256.628 139.984 258.113 140.236 259.599 140.488C260.732 140.598 261.865 140.709 262.727 141.251C263.784 141.674 264.57 142.529 265.588 143.109C266.412 143.807 267.469 144.23 268.293 144.928C268.961 145.588 269.434 146.367 269.945 146.989C270.103 147.248 270.338 147.416 270.651 147.492C270.926 147.725 271.277 147.645 271.59 147.721C273.543 147.866 275.457 147.946 277.331 147.962C277.682 147.881 278.19 147.839 278.579 147.603C278.604 147.499 278.63 147.394 278.655 147.29C278.693 147.134 278.575 146.939 278.575 146.939C277.198 145.112 275.008 144.577 273.127 143.456C271.796 142.8 270.697 141.869 269.365 141.213C268.112 140.465 266.793 139.756 265.409 139.087C272.208 139.751 278.892 140.885 285.732 142.056C289.055 142.701 292.573 143.227 295.628 144.967ZM105.008 134.93C106.771 135.858 108.262 137.216 110.025 138.143C111.356 138.799 112.921 139.181 114.485 139.562C115.11 139.715 115.736 139.867 116.4 139.864C117.22 139.898 118.04 139.932 118.742 139.772C119.406 139.768 119.914 139.726 120.383 139.841C120.852 139.955 121.321 140.07 121.947 140.222C122.573 140.375 123.08 140.333 123.744 140.329C125.28 140.372 126.777 140.351 128.234 140.264C128.547 140.341 128.898 140.261 128.974 139.948C129.207 139.673 128.932 139.44 128.658 139.208C128.004 138.717 127.415 138.186 126.891 137.617C125.911 136.88 125.087 136.182 124.068 135.602C120.932 133.511 117.255 132.283 113.886 130.467C110.048 128.536 106.519 126.018 102.605 124.401C101.235 123.901 88.7446 118.037 96.2375 117.213C97.2523 117.129 98.1908 117.358 99.2056 117.274C103.616 116.858 105.691 111.067 105.123 107.283C104.474 103.147 102.323 102.456 98.4924 101.854C88.5275 100.583 78.696 102.162 68.773 101.399C58.1862 100.64 47.9426 98.4727 37.2452 98.8465C26.6659 99.4147 15.8845 98.7736 5.34345 99.1855C14.3965 111.669 29.1188 118.574 42.2044 126.075C46.1606 128.2 50.2656 129.035 54.2599 131.004C55.9309 131.853 57.6668 132.664 59.4675 133.434C61.1118 134.167 62.7142 134.392 64.1257 135.399C64.7005 135.76 65.2231 136.109 65.6937 136.444C65.9556 136.729 66.2303 136.962 66.5177 137.143C67.1052 137.452 67.7309 137.604 68.3566 137.757C69.9716 137.93 71.5739 138.155 73.1635 138.432C73.2678 138.458 73.3327 138.418 73.3582 138.314C73.7092 138.234 73.5108 137.688 73.1979 137.612C71.588 136.059 69.2799 135.33 67.4754 133.896C66.1821 133.083 65.1215 131.996 63.6718 131.145C62.9278 130.798 62.0274 130.413 61.7108 129.673C62.7256 129.589 63.5459 129.623 64.5225 129.696C66.0079 129.947 67.4932 130.199 68.9785 130.451C70.1116 130.562 71.2447 130.672 72.1069 131.214C73.1636 131.638 73.9495 132.492 74.9681 133.072C75.7922 133.77 76.849 134.194 77.673 134.892C78.3407 135.552 78.8137 136.33 79.3249 136.952C79.4826 137.212 79.7179 137.379 80.0307 137.456C80.3054 137.688 80.6564 137.608 80.9693 137.685C82.9226 137.83 84.8365 137.91 86.711 137.925C87.0619 137.845 87.5693 137.803 87.9584 137.566C87.9839 137.462 88.0093 137.358 88.0347 137.254C88.0729 137.097 87.9546 136.903 87.9546 136.903C86.5774 135.075 84.3876 134.541 82.5068 133.419C81.1753 132.763 80.0766 131.832 78.7451 131.176C77.4912 130.428 76.1726 129.72 74.789 129.051C81.5874 129.715 88.2713 130.848 95.1118 132.019C98.4347 132.664 101.952 133.191 105.008 134.93Z" fill="#FFCE82"/>
<path d="M186.232 114.472C186.232 114.472 177.854 124.36 177.278 126.043C176.74 127.569 178.941 136.889 179.292 136.809C179.761 136.923 183.283 138.114 182.871 141.162L177.713 140.567L176.293 138.232L172.749 126.264L179.93 104.98L187.098 108.883L186.232 114.472Z" fill="#855A41"/>
<path d="M212.33 116.86C212.384 117.094 212.437 117.328 212.491 117.562C213.128 119.706 212.987 122.323 213.078 124.666C213.391 129.272 213.326 133.841 212.883 138.373C212.853 139.858 212.784 141.498 213.726 142.391C214.669 143.283 216.428 143.547 216.473 144.718C214.76 145.626 212.693 145.95 210.816 145.492C210.503 145.416 210.346 145.378 210.072 145.145C209.679 144.718 209.675 144.054 209.827 143.428C210.766 136.863 210.102 130.072 207.84 123.72C207.401 122.121 205.002 119.05 206.085 117.326C206.86 116.189 209.08 115.239 210.286 114.373C211.228 115.265 211.896 115.925 212.33 116.86Z" fill="#855A41"/>
<path d="M249.757 78.9237C252.996 78.5537 254.793 78.6606 255.129 75.9252C255.468 73.8536 252.542 74.2999 251.253 74.1511C248.166 73.8955 246.446 73.4758 243.741 71.6559C242.329 70.6487 240.567 69.7217 238.774 70.2786C237.331 70.7555 236.443 72.3616 235.943 73.7312C235.561 75.2954 235.649 76.9741 235.305 78.3818C234.21 84.9094 225.443 95.0345 218.313 90.9751C215.726 89.3499 214.109 86.4694 213.701 83.3868C213.296 80.9681 212.964 77.5727 210.542 77.3133C209.252 77.1645 208.241 77.9122 207.23 78.6599C202.683 82.3567 197.063 89.7693 190.604 87.0338C187.434 85.7633 184.878 82.6539 181.517 82.1655C178.938 81.8679 176.29 83.2108 174.31 85.2137C169.652 90.0435 168.801 98.2879 168.877 104.77C168.961 119.374 162.734 123.158 164.085 127.134C164.84 129.472 165.05 132.009 165.298 134.39C165.461 135.534 165.611 136.731 165.748 137.98C165.832 138.995 165.489 140.402 166.507 140.982C166.795 141.163 167.055 141.227 167.289 141.173C168.228 141.402 169.127 141.566 169.987 141.665C170.769 141.856 171.433 141.852 172.016 141.498C171.623 141.07 171.658 140.25 171.265 139.823C171.146 139.628 170.872 139.395 170.559 139.319C170.167 139.113 169.776 138.907 169.384 138.701C169.227 138.663 168.953 138.43 168.835 138.236C168.56 138.003 168.636 137.69 168.518 137.496C168.187 134.321 167.961 131.173 167.839 128.049C167.797 127.542 167.873 127.229 167.988 126.76C168.064 126.447 168.18 126.199 168.335 126.016C169.571 123.666 170.494 121.239 172.2 119.004C173.867 116.925 175.809 115.078 177.907 113.27C178.994 112.209 180.238 111.187 181.799 110.905C184.606 110.264 187.159 112.709 189.589 114.296C195.35 117.856 202.686 116.994 209.294 118.44C210.232 118.669 211.484 118.974 212.075 119.947C212.586 120.569 212.746 121.271 212.907 121.973C213.151 123.689 213.46 125.367 213.834 127.005C213.998 128.371 214.589 129.343 213.856 130.988C213.318 132.514 211.525 133.071 209.66 134.604C207.561 136.413 205.433 139.705 203.609 141.746C203.182 142.139 202.911 142.57 202.991 142.921C203.227 143.31 203.54 143.386 203.697 143.425C205.184 144.119 206.775 144.618 208.469 144.92C208.977 144.878 209.835 144.756 209.793 144.249C209.713 143.898 209.438 143.665 209.282 143.627C208.733 143.161 208.131 142.683 207.477 142.192C209.488 138.705 213.147 136.615 215.943 133.982C219.129 131.114 220.125 127.711 220.178 123.415C220.296 116.815 222.666 107.781 226.656 102.291C229.602 98.3689 233.81 96.7437 235.775 92.0855C237.049 89.579 239.494 87.0269 241.043 84.7531C243.248 81.1479 245.816 79.454 249.757 78.9237Z" fill="#855A41"/>
<path d="M203.771 54.1173C201.627 54.7544 200.666 57.3371 199.388 59.1797C197.568 61.8846 194.256 63.2314 191.925 65.3144C188.08 68.8509 186.469 74.0927 185.092 79.0599C184.482 81.5626 183.833 84.2217 184.043 86.7587C184.214 89.4522 185.05 92.1418 187.129 93.8091C188.621 95.1672 190.811 95.7014 192.726 96.0028C196.362 96.7239 200.772 96.3082 202.668 93.2905C204.061 90.9785 203.652 87.896 202.622 85.3246C201.787 82.6349 200.406 80.1437 200.585 77.3701C202.481 81.1471 205.858 84.2907 209.81 85.7519C209.39 85.2076 208.919 84.6506 208.395 84.0809C207.017 82.2535 205.446 80.5443 204.458 78.4803C202.088 73.9251 202.02 68.7709 201.913 63.7732C204.454 64.2272 207.14 62.7279 208.025 60.4579C209.105 58.0697 208.189 55.0291 206.034 53.6747" fill="#855A41"/>
<path d="M208.928 54.7123C207.398 53.5105 206.849 53.0451 205.09 52.7818C203.137 52.6368 198.223 53.7583 198.502 54.6549C198.742 55.7078 213.533 60.9729 214.155 60.4617C214.658 59.7559 210.889 56.1849 208.928 54.7123Z" fill="#855A41"/>
<path d="M240.472 80.3044C237.404 90.1625 234.543 101.894 224.181 106.327C211.599 111.71 203.21 99.2229 196.873 90.5511C196.636 90.1619 196.209 90.5549 196.289 90.9058C201.382 100.6 210.313 112.225 222.865 108.326C234.715 104.587 238.934 91.3643 241.097 80.457C241.174 80.1441 240.548 79.9915 240.472 80.3044Z" fill="#855A41"/>
<path d="M269.843 122.271C269.843 122.271 260.759 131.656 260.065 133.143C259.527 134.669 261.026 144.15 261.339 144.226C261.808 144.341 265.292 145.687 264.567 148.659L259.641 147.789L258.222 145.455L255.575 133.208L264.281 112.462L271.179 116.796L269.843 122.271Z" fill="#855A41"/>
<path d="M308.679 123.199C309.545 124.404 310.022 125.846 310.499 127.288C311.107 128.873 311.675 130.393 312.204 131.848C312.364 132.55 312.681 133.29 312.528 133.915C312.376 134.541 312.105 134.972 311.796 135.56C310.209 137.99 305.551 142.82 307.443 145.933C308.034 146.906 309.678 147.638 309.411 148.733C307.618 149.29 305.547 148.95 303.784 148.023C303.471 147.947 303.353 147.752 303.235 147.558C302.842 147.131 303.033 146.348 303.303 145.917C304.69 142.499 306.024 139.068 307.306 135.624C307.767 134.411 308.267 133.042 308.259 131.714C308.092 129.684 306.676 128.013 305.612 126.262C304.586 124.355 303.987 122.054 305.227 120.368C306.753 120.906 307.851 121.837 308.679 123.199Z" fill="#855A41"/>
<path d="M266.91 94.2107C264.605 96.4107 262.353 98.6234 260.153 100.849C259.455 101.673 258.638 102.302 258.058 103.321C257.246 104.614 256.864 106.179 256.834 107.663C256.57 109.421 256.582 111.413 257.333 113.088C258.676 115.735 262.083 117.395 262.335 120.439C262.339 121.103 262.228 122.236 262.972 122.583C263.678 123.087 264.651 122.496 264.841 121.714C265.032 120.932 264.597 119.997 264.086 119.375C263.022 117.624 261.53 116.266 260.233 114.789C258.936 113.313 257.871 111.562 257.898 109.414C258.039 106.797 260.332 104.87 262.274 103.023C264.216 101.177 266.272 98.8613 265.75 96.248" fill="#855A41"/>
<path d="M348.53 88.4321C348.256 88.1994 347.981 87.9667 347.394 87.6577C345.356 86.4979 341.533 87.2227 339.107 86.2994C337.932 85.6814 336.601 85.0252 335.197 85.3456C332.74 85.9064 332.446 89.1492 331.992 91.69C331.507 95.7149 329.15 99.9458 325.212 101.14C318.002 103.524 307.14 95.7374 305.538 88.7176C304.977 86.2607 304.333 82.789 301.834 82.8423C300.701 82.7317 299.652 83.6359 298.759 84.5782C294.486 88.5076 289.454 96.2294 282.842 94.1195C279.634 93.0055 276.845 90.1708 273.369 90.1517C270.752 90.0105 268.223 91.5479 266.556 93.6271C263.065 97.7473 261.081 105.881 262.984 110.986C265.64 117.765 267.543 122.87 267.001 130.527C266.776 132.129 266.746 133.613 267.028 135.173C267.707 137.825 269.867 139.843 271.091 142.296C271.805 144.127 271.892 145.806 271.747 147.759C274.509 148.212 277.283 148.391 280.068 148.297C279.98 146.619 278.721 144.986 277 144.566C276.531 144.452 276.18 144.532 275.749 144.261C275.475 144.028 275.356 143.834 275.276 143.483C273.857 141.148 270.622 135.387 271.309 132.571C271.499 131.789 272.198 130.965 272.701 130.26C275.598 126.989 278.495 123.718 281.392 120.447C283.952 117.426 289.4 120.909 292.414 122.141C296.172 123.721 299.88 123.465 303.905 123.95C305.038 124.061 306.133 124.328 306.919 125.182C308.491 126.891 308.628 130.405 309.578 132.625C310.726 135.391 311.832 137.65 312.202 140.889C312.347 143.465 312.505 145.99 312.675 148.462C312.756 148.813 312.797 149.32 313.072 149.553C313.347 149.786 313.66 149.862 314.011 149.782C315.834 150.006 317.618 150.165 319.363 150.259C320.027 150.255 320.691 150.251 320.962 149.82C321.271 149.233 320.76 148.611 320.328 148.34C319.741 148.031 319.115 147.878 318.489 147.726C317.276 147.264 316.529 146.253 316.17 145.006C315.773 143.914 315.766 142.587 315.72 141.415C315.235 131.851 314.16 121.314 317.426 112.001C317.789 111.869 318.205 111.749 318.673 111.643C321.092 111.238 323.553 111.341 326.01 110.781C332.56 109.064 334.361 103.04 338.077 97.3173C339.355 95.4747 342.911 95.8448 344.856 94.6621C345.791 94.2272 348.008 92.6134 348.114 90.8165C348.183 89.1761 348.923 88.8594 348.53 88.4321Z" fill="#855A41"/>
<path d="M370.218 84.4421C368.65 83.3967 368.101 82.9312 366.304 82.8244C364.313 82.8358 359.479 84.3084 359.758 85.2049C360.192 86.1396 375.445 90.1915 375.911 89.6421C376.376 89.0927 372.374 85.7964 370.218 84.4421Z" fill="#855A41"/>
<path d="M368.237 120.418C367.734 118.859 367.178 117.287 366.57 115.703C365.895 113.715 364.43 110.209 363.675 107.87C366.231 110.98 366.788 112.773 370.004 115.214C371.847 116.492 376.192 118.381 378.218 117.549C379.855 116.954 376.841 115.722 376.841 115.722C375.704 114.947 374.258 114.76 373.121 113.986C370.809 112.593 368.963 110.652 367.7 108.355C364.903 104.193 364.365 98.924 363.908 94.0063C366.487 94.3039 369.054 92.61 369.821 90.1455C370.588 87.681 369.44 84.915 367.284 83.5606L365.102 84.3542C362.958 84.9913 362.309 87.6504 361.15 89.6876C359.486 92.4306 356.449 94.01 354.198 96.4439C350.627 100.213 349.33 105.531 348.422 110.613C348.125 113.192 347.632 115.889 347.998 118.465C348.857 125.137 350.066 131.73 347.292 138.345C346.484 140.302 345.518 142.221 345.335 144.331C352.757 144.705 360.191 145.027 367.638 145.296C368.107 145.411 368.615 145.369 368.847 145.094C369.08 144.819 369 144.468 369.076 144.156C369.321 141.343 369.565 138.53 369.809 135.717C370.103 132.474 370.435 129.075 369.714 125.916C369.287 124.044 368.794 122.211 368.237 120.418Z" fill="#855A41"/>
<path d="M352.821 142.179C351.894 143.942 350.352 147.543 349.7 149.538C349.238 150.752 354 150.256 356.304 150.321C356.651 149.577 355.632 148.997 354.812 148.962C354.148 148.966 353.092 148.543 353.126 147.722C353.047 147.593 353.085 147.436 353.24 147.253C354.164 144.827 355.285 142.946 356.796 140.829" fill="#855A41"/>
<path d="M364.06 140.943C364.06 140.943 363.179 150.672 363.454 150.905C363.69 151.294 367.791 151.466 370.096 151.53C370.599 150.825 369.581 150.245 368.76 150.21C367.94 150.176 366.57 149.676 366.177 149.249C365.941 148.86 367.105 140.692 367.105 140.692" fill="#855A41"/>
<path d="M323.972 102.826C322.709 114.119 330.053 121.379 340.689 123.974C352.89 126.95 365.205 122.662 375.952 117.328C376.692 117.012 376.101 116.039 375.517 116.394C366.403 120.468 357.014 124.31 347.015 123.859C334.749 123.188 323.697 116.183 324.636 102.823C324.556 102.472 324.048 102.514 323.972 102.826Z" fill="#855A41"/>
<path d="M318.402 105.279C324.254 104.386 327.032 105.23 331.389 109.11C333.037 110.506 334.528 111.864 336.215 113.104C339.705 115.779 343.661 117.904 347.846 119.09C356.293 121.15 365.652 118.793 373.564 116.248C373.915 116.168 373.835 115.817 373.484 115.897C361.234 117.881 350.593 121.417 339.11 114.142C330.801 108.801 328.737 102.994 318.284 105.085C318.127 105.046 318.207 105.397 318.402 105.279Z" fill="#855A41"/>
<path d="M78.1626 111.147C78.1626 111.147 69.0788 120.532 68.3844 122.02C67.8465 123.546 69.3457 133.026 69.6585 133.103C70.1659 133.061 73.6109 134.564 72.886 137.536L67.9608 136.666L66.5797 134.175L63.9322 121.928L72.6004 101.338L79.498 105.672L78.1626 111.147Z" fill="#855A41"/>
<path d="M114.478 111.056C115.306 112.418 115.783 113.86 116.26 115.302C116.893 116.782 117.461 118.302 117.965 119.861C118.125 120.563 118.442 121.303 118.289 121.929C118.137 122.555 117.866 122.986 117.595 123.417C115.97 126.003 111.349 130.677 113.242 133.79C113.795 134.919 115.477 135.495 115.172 136.747C113.417 137.147 111.307 136.964 109.545 136.037C109.27 135.804 109.114 135.766 108.995 135.572C108.641 134.988 108.793 134.362 109.064 133.931C110.45 130.513 111.797 127.03 113.105 123.482C113.566 122.268 114.028 121.055 114.02 119.728C113.852 117.698 112.437 116.027 111.411 114.119C110.346 112.368 109.786 109.911 110.987 108.381C112.552 108.763 113.612 109.85 114.478 111.056Z" fill="#855A41"/>
<path d="M75.2669 82.9307C72.9372 85.235 70.6722 87.4998 68.4721 89.7252C67.8121 90.3928 66.9576 91.1788 66.4158 92.041C65.6032 93.3343 65.2216 94.8985 65.1529 96.5389C64.8896 98.2977 64.9011 100.289 65.6527 101.964C66.9955 104.612 70.4023 106.271 70.6922 109.159C70.6579 109.98 70.5854 110.956 71.2912 111.46C71.8405 111.925 72.9698 111.372 73.1987 110.434C73.3895 109.651 72.9165 108.873 72.4434 108.095C71.3409 106.5 69.8492 105.142 68.5521 103.666C67.255 102.189 66.2287 100.282 66.2173 98.29C66.3585 95.6729 68.6896 93.5899 70.5933 91.8998C72.5352 90.0534 74.5915 87.7377 74.0689 85.1243" fill="#855A41"/>
<path d="M156.849 77.3084C156.574 77.0757 156.299 76.843 155.712 76.534C153.674 75.3741 149.852 76.0989 147.463 75.0192C146.25 74.5576 144.919 73.9014 143.515 74.2219C141.058 74.7827 140.764 78.0254 140.31 80.5663C139.826 84.5912 137.468 88.8221 133.531 90.0161C126.32 92.4005 115.497 84.4573 113.895 77.4375C113.334 74.9806 112.651 71.6652 110.152 71.7186C109.019 71.608 107.97 72.5122 107.115 73.2981C102.804 77.384 97.7719 85.1056 91.1604 82.9958C87.9519 81.8817 85.1632 79.047 81.7258 78.8715C79.1087 78.7303 76.541 80.4242 74.912 82.347C71.3829 86.6236 69.399 94.7573 71.3408 99.7055C73.9579 106.641 75.8615 111.746 75.3196 119.403C75.1327 120.849 75.064 122.489 75.3463 124.05C76.0253 126.701 78.2228 128.563 79.4092 131.172C80.1608 132.847 80.2485 134.526 80.0654 136.636C82.8275 137.088 85.601 137.268 88.386 137.174C88.2983 135.495 87.0394 133.862 85.3188 133.442C84.8495 133.328 84.5366 133.252 84.1055 132.981C83.7927 132.904 83.7127 132.553 83.5944 132.359C82.1752 130.024 78.9783 124.107 79.6269 121.448C79.8558 120.509 80.5158 119.842 81.0194 119.136C83.9164 115.865 86.826 112.542 89.7484 109.167C92.3084 106.146 97.7563 109.629 100.732 111.018C104.49 112.597 108.236 112.185 112.223 112.826C113.356 112.937 114.451 113.204 115.237 114.058C116.809 115.768 116.984 119.125 117.934 121.345C119.044 124.268 120.151 126.526 120.521 129.765C120.691 132.237 120.849 134.762 120.994 137.338C121.074 137.689 121.154 138.04 121.39 138.429C121.665 138.662 122.016 138.582 122.329 138.658C124.178 138.778 125.962 138.937 127.681 139.135C128.345 139.131 129.009 139.128 129.28 138.697C129.589 138.109 129.116 137.331 128.685 137.06C128.097 136.751 127.433 136.755 126.808 136.602C125.595 136.14 124.885 134.973 124.488 133.882C124.13 132.634 124.084 131.463 124.038 130.292C123.554 120.727 122.478 110.19 125.744 100.877C126.108 100.745 126.523 100.626 126.991 100.519C129.448 99.9582 131.909 100.061 134.21 99.4623C140.878 97.9402 142.717 91.7598 146.395 86.1936C147.673 84.351 151.229 84.721 153.175 83.5384C154.147 82.947 156.364 81.3333 156.433 79.6928C156.501 78.0524 157.241 77.7357 156.849 77.3084Z" fill="#855A41"/>
<path d="M130.604 97.2569C137.513 103.582 148.157 107.504 157.417 108.271C167.496 109.073 176.37 103.945 183.989 97.849C184.378 97.6125 184.023 97.0288 183.634 97.2654C176.397 101.798 168.969 107.112 159.988 107.241C150.187 107.337 138.719 102.716 131.264 96.5893C130.871 96.162 130.211 96.8296 130.604 97.2569Z" fill="#855A41"/>
<path d="M134.205 92.004C149 97.9328 166.214 96.6627 180.822 90.4482C181.406 90.0934 181.127 89.1967 180.425 89.357C164.917 95.1862 150.236 95.5828 134.244 91.8476C134.087 91.8094 134.049 91.9658 134.205 92.004Z" fill="#855A41"/>
</svg>
