<svg width="50" height="50" viewBox="0 0 50 50" fill="none" xmlns="http://www.w3.org/2000/svg">
<circle cx="25" cy="25" r="25" fill="#47BADC"/>
<path d="M32.2598 20.7929C33.5225 17.497 33.7246 14.8105 32.8457 13.1933C32.5999 12.7415 32.2526 12.3529 31.8312 12.0581C31.4097 11.7632 30.9257 11.5702 30.417 11.494C29.9177 11.3873 29.4003 11.4007 28.9072 11.5331C28.4142 11.6656 27.9596 11.9132 27.5811 12.2558C25.7764 13.8671 25.4834 17.2567 25.4189 19.3397H24.54C24.4141 17.2567 24.1768 13.8671 22.3633 12.2587C21.9843 11.9148 21.5289 11.666 21.0348 11.533C20.5406 11.4001 20.0219 11.3867 19.5215 11.494C19.0119 11.572 18.5273 11.7667 18.1054 12.063C17.6836 12.3593 17.336 12.7491 17.0898 13.2021C16.2109 14.831 16.416 17.5292 17.6758 20.8339C14.0957 22.5214 12.0537 25.4628 12.0537 28.9696C12.0537 34.8026 17.1309 38.5702 24.9883 38.5702C32.8457 38.5702 37.9229 34.8026 37.9229 28.9696C37.9346 25.4306 35.875 22.4745 32.2598 20.7929ZM18.6016 21.6249L19.0996 21.414L18.8945 20.913C17.5967 17.7372 17.2891 15.1181 18.0449 13.7235C18.2152 13.4129 18.4561 13.1466 18.7482 12.9461C19.0403 12.7456 19.3754 12.6165 19.7266 12.5692C19.8897 12.5373 20.0555 12.5206 20.2217 12.5194C20.7444 12.5245 21.247 12.7215 21.6338 13.0731C23.6846 14.7958 23.4912 20.494 23.4912 20.494L23.9834 20.4589C24.6441 20.4252 25.3061 20.4252 25.9668 20.4589L26.4473 20.4882C26.4473 20.4882 26.2832 14.8017 28.3164 13.0849C28.5708 12.8554 28.8764 12.69 29.2076 12.6024C29.5388 12.5148 29.8861 12.5074 30.2207 12.581C30.5702 12.6273 30.9039 12.7555 31.1945 12.955C31.4852 13.1546 31.7247 13.4199 31.8936 13.7294C32.6465 15.1122 32.3418 17.7196 31.0527 20.8866L30.8594 21.3759L31.3604 21.5868C34.4395 22.873 36.5811 25.1024 36.7686 27.8505C37.0293 31.8905 31.5479 35.0839 25 35.0839C18.4521 35.0839 12.9883 31.9374 13.2373 27.9296C13.4014 25.1581 15.5313 22.9228 18.6016 21.6249Z" fill="#6D3D23"/>
<path d="M29.5146 29.5879C30.2784 29.5879 30.8975 28.6632 30.8975 27.5225C30.8975 26.3818 30.2784 25.457 29.5146 25.457C28.7509 25.457 28.1318 26.3818 28.1318 27.5225C28.1318 28.6632 28.7509 29.5879 29.5146 29.5879Z" fill="#6D3D23"/>
<path d="M20.4678 29.5879C21.2315 29.5879 21.8506 28.6632 21.8506 27.5225C21.8506 26.3818 21.2315 25.457 20.4678 25.457C19.7041 25.457 19.085 26.3818 19.085 27.5225C19.085 28.6632 19.7041 29.5879 20.4678 29.5879Z" fill="#6D3D23"/>
</svg>
