<svg width="60" height="60" viewBox="0 0 60 60" fill="none" xmlns="http://www.w3.org/2000/svg">
<circle cx="30" cy="30" r="26" fill="#47BADC" stroke="white" stroke-width="2"/>
<path d="M37.2598 25.7929C38.5225 22.497 38.7246 19.8105 37.8457 18.1933C37.5999 17.7415 37.2526 17.3529 36.8312 17.0581C36.4097 16.7632 35.9257 16.5702 35.417 16.494C34.9177 16.3873 34.4003 16.4007 33.9072 16.5331C33.4142 16.6656 32.9596 16.9132 32.5811 17.2558C30.7764 18.8671 30.4834 22.2567 30.4189 24.3397H29.54C29.4141 22.2567 29.1768 18.8671 27.3633 17.2587C26.9843 16.9148 26.5289 16.666 26.0348 16.533C25.5406 16.4001 25.0219 16.3867 24.5215 16.494C24.0119 16.572 23.5273 16.7667 23.1054 17.063C22.6836 17.3593 22.336 17.7491 22.0898 18.2021C21.2109 19.831 21.416 22.5292 22.6758 25.8339C19.0957 27.5214 17.0537 30.4628 17.0537 33.9696C17.0537 39.8026 22.1309 43.5702 29.9883 43.5702C37.8457 43.5702 42.9229 39.8026 42.9229 33.9696C42.9346 30.4306 40.875 27.4745 37.2598 25.7929ZM23.6016 26.6249L24.0996 26.414L23.8945 25.913C22.5967 22.7372 22.2891 20.1181 23.0449 18.7235C23.2152 18.4129 23.4561 18.1466 23.7482 17.9461C24.0403 17.7456 24.3754 17.6165 24.7266 17.5692C24.8897 17.5373 25.0555 17.5206 25.2217 17.5194C25.7444 17.5245 26.247 17.7215 26.6338 18.0731C28.6846 19.7958 28.4912 25.494 28.4912 25.494L28.9834 25.4589C29.6441 25.4252 30.3061 25.4252 30.9668 25.4589L31.4473 25.4882C31.4473 25.4882 31.2832 19.8017 33.3164 18.0849C33.5708 17.8554 33.8764 17.69 34.2076 17.6024C34.5388 17.5148 34.8861 17.5074 35.2207 17.581C35.5702 17.6273 35.9039 17.7555 36.1945 17.955C36.4852 18.1546 36.7247 18.4199 36.8936 18.7294C37.6465 20.1122 37.3418 22.7196 36.0527 25.8866L35.8594 26.3759L36.3604 26.5868C39.4395 27.873 41.5811 30.1024 41.7686 32.8505C42.0293 36.8905 36.5479 40.0839 30 40.0839C23.4521 40.0839 17.9883 36.9374 18.2373 32.9296C18.4014 30.1581 20.5312 27.9228 23.6016 26.6249Z" fill="#6D3D23"/>
<path d="M34.5146 34.5879C35.2784 34.5879 35.8975 33.6632 35.8975 32.5225C35.8975 31.3818 35.2784 30.457 34.5146 30.457C33.7509 30.457 33.1318 31.3818 33.1318 32.5225C33.1318 33.6632 33.7509 34.5879 34.5146 34.5879Z" fill="#6D3D23"/>
<path d="M25.4678 34.5879C26.2315 34.5879 26.8506 33.6632 26.8506 32.5225C26.8506 31.3818 26.2315 30.457 25.4678 30.457C24.7041 30.457 24.085 31.3818 24.085 32.5225C24.085 33.6632 24.7041 34.5879 25.4678 34.5879Z" fill="#6D3D23"/>
</svg>
