<svg width="120" height="1672" viewBox="0 0 120 1672" fill="none" xmlns="http://www.w3.org/2000/svg">
<rect x="30" width="60" height="1672" rx="10" fill="#E17349"/>
<path d="M60 35.8414L59.9999 1636.16" stroke="#FFE600" stroke-width="20" stroke-linecap="round" stroke-dasharray="60 60"/>
<circle cx="60" cy="173" r="55" fill="#FFE600" stroke="#E17349" stroke-width="10"/>
<path d="M70.0279 192H51.2479V189.84L57.0679 185.28V162.42L50.5879 160.32L51.9679 157.62H70.6879V159.78L64.8679 164.34V187.2L71.4079 189.3L70.0279 192Z" fill="#211E00"/>
<circle cx="60" cy="1010" r="55" fill="#FFE600" stroke="#E17349" stroke-width="10"/>
<path d="M64.4329 1007.46C67.9529 1009.46 70.4129 1011.24 71.8129 1012.8C73.2129 1014.36 73.9129 1016.08 73.9129 1017.96C73.9129 1022.2 71.7929 1025.98 67.5529 1029.3C63.3529 1032.62 56.6129 1035.8 47.3329 1038.84L46.3729 1035.66C51.5729 1033.78 55.5129 1032.12 58.1929 1030.68C60.8729 1029.24 62.7529 1027.76 63.8329 1026.24C64.9129 1024.76 65.4529 1022.94 65.4529 1020.78C65.4529 1019.66 65.2129 1018.66 64.7329 1017.78C64.2529 1016.9 63.4329 1016 62.2729 1015.08C61.1529 1014.16 59.5329 1013.06 57.4129 1011.78V1009.98C59.6129 1007.5 61.0729 1005.62 61.7929 1004.34C62.5529 1003.06 62.9329 1001.74 62.9329 1000.38C62.9329 998.38 62.3329 996.74 61.1329 995.46C59.9729 994.18 58.4729 993.54 56.6329 993.54C54.3529 993.54 51.3129 994.98 47.5129 997.86L45.7129 995.34L54.3529 988.5C55.2329 988.18 56.1129 988.02 56.9929 988.02C59.5929 988.02 61.9929 988.42 64.1929 989.22C66.3929 990.02 68.1329 991.12 69.4129 992.52C70.7329 993.88 71.3929 995.36 71.3929 996.96C71.2729 998.48 70.6729 1000.04 69.5929 1001.64C68.5529 1003.2 66.8129 1005.14 64.3729 1007.46H64.4329Z" fill="#211E00"/>
<circle cx="60" cy="551" r="55" fill="#FFE600" stroke="#E17349" stroke-width="10"/>
<path d="M75.5438 570.14L71.9438 569.06H45.0638V566.9C50.1438 562.74 54.0038 559.42 56.6438 556.94C59.2838 554.42 61.1238 552.38 62.1638 550.82C63.2038 549.26 63.7238 547.8 63.7238 546.44C63.7238 544.44 63.0438 542.82 61.6838 541.58C60.3238 540.3 58.5438 539.66 56.3438 539.66C53.7838 539.66 50.6238 541.1 46.8638 543.98L45.0638 541.46L53.6438 534.68C54.9638 534.28 56.4238 534.08 58.0238 534.08C60.8638 534.08 63.3638 534.46 65.5238 535.22C67.6838 535.94 69.3438 536.98 70.5038 538.34C71.6638 539.7 72.2438 541.26 72.2438 543.02C72.2438 544.78 71.0238 547.16 68.5838 550.16C66.1838 553.16 62.3638 556.82 57.1238 561.14H71.5238L73.4438 556.22L75.5438 556.94V570.14Z" fill="#211E00"/>
<circle cx="60" cy="1470" r="55" fill="#FFE600" stroke="#E17349" stroke-width="10"/>
<path d="M69.2063 1478.46V1491.3L61.4063 1494.84V1478.46H39.2063V1476.3L61.4063 1449.42L69.2063 1445.88V1473.9H78.3863L76.2863 1478.46H69.2063ZM61.4063 1455.72L46.7063 1473.9H61.4063V1455.72Z" fill="#211E00"/>
</svg>
