<svg width="399" height="149" viewBox="0 0 399 149" fill="none" xmlns="http://www.w3.org/2000/svg">
<path d="M346.081 91.4645C337.728 85.5502 326.184 84.5186 316.948 88.8512C317.628 71.1771 313.281 52.4715 301.058 39.8176C288.835 27.1638 267.512 22.8312 253.387 33.1469C241.367 11.8967 216.853 -1.51363 192.678 0.136869C168.571 1.7186 145.957 18.2236 136.79 40.918C96.9961 28.5392 55.98 54.8784 43.1455 93.4589C33.0272 92.2897 22.2978 91.1894 12.9945 95.3844C3.69118 99.6482 -3.09957 111.271 1.45023 120.555C2.9442 123.512 5.45678 125.919 8.03727 128.051C26.9835 143.386 52.7204 146.137 76.8955 147.925C92.8537 149.026 109.084 149.988 124.838 147.031C140.593 144.074 156.144 136.784 166.126 124.062C173.052 134.584 187.109 136.853 199.604 138.091C237.293 141.667 275.729 144.074 313.146 137.128C326.048 134.721 342.55 133.965 352.192 123.856C362.922 112.646 357.557 99.6483 346.081 91.4645Z" fill="white"/>
<path d="M43.1455 93.4589C33.0272 92.2897 22.2978 91.1894 12.9945 95.3844C3.69118 99.6482 -3.09957 111.271 1.45023 120.555C2.9442 123.512 5.45678 125.919 8.03727 128.051C26.9835 143.386 52.7204 146.137 76.8955 147.925C92.8537 149.026 109.084 149.988 124.838 147.031C140.593 144.074 156.144 136.784 166.126 124.062C173.052 134.584 187.109 136.853 199.604 138.091C237.293 141.667 275.729 144.074 313.146 137.128C326.048 134.721 342.55 133.965 352.192 123.856C362.922 112.646 357.557 99.6483 346.081 91.4645C337.728 85.5502 326.184 84.5186 316.948 88.8512C317.492 74.6844 314.775 59.83 307.373 48.0014C309.479 55.2223 309.682 62.8559 307.238 69.9392C301.737 85.2064 285.575 90.7768 271.858 83.4183C259.906 77.0227 252.233 63.8187 250.874 50.2021C247.954 76.5413 225.613 99.3731 199.604 102.605C173.596 105.769 146.501 88.9888 137.469 64.0937C135.228 76.9539 127.011 88.5762 115.739 94.9031C104.466 101.161 90.3412 101.986 78.4574 97.035C72.3457 94.4904 66.6415 90.2266 64.1289 84.0373C60.5977 75.3034 64.4005 65.3316 69.6973 57.5605C71.1233 55.5661 72.6852 53.5718 74.2471 51.715C60.0544 61.6867 48.8497 76.3349 43.1455 93.4589Z" fill="#F5FBFF"/>
<path d="M166.126 124.062C173.052 134.584 187.109 136.853 199.604 138.091C237.293 141.667 275.729 144.074 313.146 137.128C326.048 134.721 342.55 133.965 352.192 123.856C362.922 112.646 357.557 99.6483 346.081 91.4645C348.39 101.986 340.784 112.852 331.141 117.391C321.498 121.93 310.429 121.655 299.836 121.036C306.83 116.979 312.059 109.895 313.961 101.986C295.49 120.486 264.388 124.337 241.979 110.858C238.583 117.735 231.657 121.93 224.662 124.887C205.784 132.865 184.189 133.69 166.126 124.062Z" fill="#DFF2FD"/>
<path d="M1.45023 120.555C2.9442 123.512 5.45678 125.919 8.03727 128.051C26.9835 143.386 52.7204 146.137 76.8955 147.925C92.8537 149.026 109.084 149.988 124.838 147.031C140.593 144.074 156.144 136.784 166.126 124.062C155.261 119.661 145.007 109.895 140.321 99.0981C142.494 108.038 136.722 117.529 128.845 122.136C120.9 126.675 111.392 127.294 102.293 127.019C83.822 126.331 64.3326 121.517 51.9055 107.694C56.3874 119.661 67.1168 128.394 79.0006 132.796C90.8165 137.197 103.787 137.679 116.35 137.06C112.004 139.948 106.639 140.911 101.478 141.461C68.1354 145.243 30.3788 137.885 1.45023 120.555Z" fill="#DFF2FD"/>
<path d="M298.298 73.0263C302.573 72.7306 306.549 74.9972 310.526 76.4755C316.092 78.4464 321.759 78.9392 327.525 79.2348C336.273 79.8261 342.038 84.1622 346.114 90.5678C346.313 90.2722 346.512 90.1736 346.711 89.9765C348.798 88.2027 350.588 86.6259 353.073 85.4433C357.844 82.9796 363.411 82.7825 368.68 83.0782C377.826 83.4724 389.357 91.6519 398.404 87.7099C398.602 87.7099 398.801 87.6114 399 87.6114C391.843 95.6923 379.615 90.962 369.972 91.6519C368.448 91.7833 366.957 92.0132 365.499 92.3417C364.008 92.4403 362.517 92.7359 361.026 93.1301C359.236 93.7214 357.745 94.7069 356.254 95.7909C353.172 97.4662 350.389 99.5357 347.705 101.802C345.12 102.591 342.038 100.915 340.945 98.6488C340.68 97.7947 340.348 97.0063 339.951 96.2836C338.36 92.4403 336.471 89.0896 331.899 87.7099C330.905 87.4143 329.811 87.2172 328.718 87.0201C327.127 86.4288 325.437 85.8375 323.747 85.3448C314.403 82.684 303.766 80.9101 298 73.1248C298.066 73.0591 298.166 73.0263 298.298 73.0263Z" fill="#281203"/>
<path d="M255.099 113C257.377 113 259.258 114.181 261.338 115.067C264.111 116.149 266.883 116.543 269.854 116.937C274.311 117.429 277.084 119.791 279.064 123.137C279.13 123.005 279.229 122.907 279.361 122.841C280.45 122.054 281.441 121.267 282.728 120.676C285.204 119.594 287.977 119.594 290.65 119.889C295.305 120.381 301.049 124.81 305.703 123.038C305.769 122.973 305.868 122.94 306 122.94C302.138 126.876 295.998 124.219 291.146 124.318C290.353 124.318 289.561 124.416 288.868 124.514C288.076 124.514 287.383 124.711 286.491 124.81C285.6 125.105 284.808 125.499 284.016 126.089C282.431 126.778 280.946 127.762 279.559 128.943C278.272 129.238 276.687 128.353 276.192 127.073C276.093 126.679 275.895 126.286 275.796 125.892C275.004 123.924 274.113 122.152 271.835 121.267C271.373 121.136 270.878 121.004 270.35 120.873C269.491 120.545 268.633 120.217 267.775 119.889C263.12 118.314 257.773 117.133 255 113C255.066 113 255.099 113 255.099 113Z" fill="#281203"/>
</svg>
