<svg width="358" height="149" viewBox="0 0 358 149" fill="none" xmlns="http://www.w3.org/2000/svg">
<path d="M346.081 91.4645C337.728 85.5502 326.184 84.5186 316.948 88.8512C317.628 71.1771 313.281 52.4715 301.058 39.8176C288.835 27.1638 267.512 22.8312 253.387 33.1469C241.367 11.8967 216.853 -1.51363 192.678 0.136869C168.571 1.7186 145.957 18.2236 136.79 40.918C96.9961 28.5392 55.98 54.8784 43.1455 93.4589C33.0272 92.2897 22.2978 91.1894 12.9945 95.3844C3.69118 99.6482 -3.09957 111.271 1.45023 120.555C2.9442 123.512 5.45678 125.919 8.03727 128.051C26.9835 143.386 52.7204 146.137 76.8955 147.925C92.8537 149.026 109.084 149.988 124.838 147.031C140.593 144.074 156.144 136.784 166.126 124.062C173.052 134.584 187.109 136.853 199.604 138.091C237.293 141.667 275.729 144.074 313.146 137.128C326.048 134.721 342.55 133.965 352.192 123.856C362.922 112.646 357.557 99.6483 346.081 91.4645Z" fill="white"/>
<path d="M43.1455 93.4589C33.0272 92.2897 22.2978 91.1894 12.9945 95.3844C3.69118 99.6482 -3.09957 111.271 1.45023 120.555C2.9442 123.512 5.45678 125.919 8.03727 128.051C26.9835 143.386 52.7204 146.137 76.8955 147.925C92.8537 149.026 109.084 149.988 124.838 147.031C140.593 144.074 156.144 136.784 166.126 124.062C173.052 134.584 187.109 136.853 199.604 138.091C237.293 141.667 275.729 144.074 313.146 137.128C326.048 134.721 342.55 133.965 352.192 123.856C362.922 112.646 357.557 99.6483 346.081 91.4645C337.728 85.5502 326.184 84.5186 316.948 88.8512C317.492 74.6844 314.775 59.83 307.373 48.0014C309.479 55.2223 309.682 62.8559 307.238 69.9392C301.737 85.2064 285.575 90.7768 271.858 83.4183C259.906 77.0227 252.233 63.8187 250.874 50.2021C247.954 76.5413 225.613 99.3731 199.604 102.605C173.596 105.769 146.501 88.9888 137.469 64.0937C135.228 76.9539 127.011 88.5762 115.739 94.9031C104.466 101.161 90.3412 101.986 78.4574 97.035C72.3457 94.4904 66.6415 90.2266 64.1289 84.0373C60.5977 75.3034 64.4005 65.3316 69.6973 57.5605C71.1233 55.5661 72.6852 53.5718 74.2471 51.715C60.0544 61.6867 48.8497 76.3349 43.1455 93.4589Z" fill="#F5FBFF"/>
<path d="M166.126 124.062C173.052 134.584 187.109 136.853 199.604 138.091C237.293 141.667 275.729 144.074 313.146 137.128C326.048 134.721 342.55 133.965 352.192 123.856C362.922 112.646 357.557 99.6483 346.081 91.4645C348.39 101.986 340.784 112.852 331.141 117.391C321.498 121.93 310.429 121.655 299.836 121.036C306.83 116.979 312.059 109.895 313.961 101.986C295.49 120.486 264.388 124.337 241.979 110.858C238.583 117.735 231.657 121.93 224.662 124.887C205.784 132.865 184.189 133.69 166.126 124.062Z" fill="#DFF2FD"/>
<path d="M1.45023 120.555C2.9442 123.512 5.45678 125.919 8.03727 128.051C26.9835 143.386 52.7204 146.137 76.8955 147.925C92.8537 149.026 109.084 149.988 124.838 147.031C140.593 144.074 156.144 136.784 166.126 124.062C155.261 119.661 145.007 109.895 140.321 99.0981C142.494 108.038 136.722 117.529 128.845 122.136C120.9 126.675 111.392 127.294 102.293 127.019C83.822 126.331 64.3326 121.517 51.9055 107.694C56.3874 119.661 67.1168 128.394 79.0006 132.796C90.8165 137.197 103.787 137.679 116.35 137.06C112.004 139.948 106.639 140.911 101.478 141.461C68.1354 145.243 30.3788 137.885 1.45023 120.555Z" fill="#DFF2FD"/>
</svg>
