<svg width="377" height="262" viewBox="0 0 377 262" fill="none" xmlns="http://www.w3.org/2000/svg">
<path d="M296.851 5.22924C275.206 -1.90761 249.926 7.01345 235.47 24.7004C221.787 5.53954 196.044 -4.00211 173.238 1.58324C150.355 7.09103 131.879 27.4155 128.4 50.6878C116.418 47.197 103.353 46.0334 91.6022 50.2224C79.8516 54.3338 69.8017 64.5736 68.1782 76.9855C59.4426 75.1238 50.475 73.3396 41.662 74.5807C32.8491 75.8219 23.9588 80.7867 20.48 89.0096C15.3004 101.189 24.4226 116.005 36.869 120.505C49.3154 125.082 63.3079 121.668 75.2131 115.85C86.1134 129.736 102.657 138.967 120.206 140.829C137.677 142.691 155.844 137.183 169.373 125.935C183.752 142.148 205.398 151.69 226.966 151.302C248.612 150.914 269.871 140.674 283.709 123.996C298.398 135.554 332.181 149.207 347.951 132.839C354.6 125.857 356.532 114.764 352.59 105.998C362.253 106.076 371.684 99.7149 375.318 90.7162C378.951 81.7176 376.555 70.6245 369.52 63.9531C355.295 50.3775 340.066 59.6865 329.707 71.8656C329.861 45.0249 327.388 14.8485 296.851 5.22924Z" fill="white"/>
<path d="M128.4 50.6878C116.418 47.197 103.353 46.0334 91.6022 50.2224C79.8516 54.3338 69.8017 64.5736 68.1782 76.9855C59.4426 75.1238 50.475 73.3396 41.662 74.5807C32.8491 75.8219 23.9588 80.7867 20.48 89.0096C15.3004 101.189 24.4226 116.005 36.869 120.505C49.3154 125.082 63.3079 121.668 75.2131 115.85C86.1134 129.736 102.657 138.967 120.206 140.829C137.677 142.691 155.844 137.183 169.373 125.935C183.752 142.148 205.398 151.69 226.966 151.302C248.612 150.914 269.871 140.674 283.709 123.996C298.398 135.554 332.181 149.207 347.951 132.839C354.6 125.857 356.532 114.764 352.59 105.998C362.253 106.076 371.684 99.7149 375.318 90.7162C378.951 81.7176 376.555 70.6245 369.52 63.9531C355.295 50.3775 340.066 59.6865 329.707 71.8656C329.861 50.9981 328.393 28.1913 313.472 14.5382C314.787 29.5876 312.158 45.1801 303.964 57.7471C294.455 72.4087 276.829 82.183 259.667 79.7007C252.864 78.6922 246.061 75.7444 241.809 70.3141C236.166 63.2549 236.398 52.9375 230.832 46.0334C226.348 40.5256 218.617 38.0432 212.664 34.7851C219.467 38.5087 222.405 47.3521 220.55 54.9544C218.772 62.4791 212.974 68.6075 206.171 72.3311C196.121 77.9164 183.52 78.6922 173.006 74.1153C162.492 69.4608 154.452 59.3762 152.829 47.9727C150.974 35.5608 156.54 22.9162 165.044 13.7624C169.991 8.33222 176.021 3.91048 182.36 0.109338C179.268 0.367919 176.227 0.859217 173.238 1.58324C150.355 7.09103 131.879 27.4155 128.4 50.6878Z" fill="#F5FBFF"/>
<path d="M283.709 123.996C298.398 135.554 332.181 149.207 347.951 132.839C354.6 125.857 356.532 114.764 352.59 105.998C362.253 106.076 371.684 99.7149 375.318 90.7162C378.951 81.7176 376.555 70.6245 369.52 63.9531C370.37 70.5469 368.901 76.4425 365.809 82.3382C362.639 88.2338 356.764 92.8883 350.116 93.2762C343.467 93.7416 336.51 89.3199 335.041 82.8036C333.031 86.6048 334.964 91.3368 337.515 94.8277C340.143 98.3185 343.39 101.421 344.55 105.61C346.328 111.972 342.385 118.721 336.819 122.211C331.253 125.625 324.527 126.4 317.956 126.633C305.742 127.176 295.228 128.107 283.709 123.996Z" fill="#DFF2FD"/>
<path d="M226.966 151.302C205.398 151.69 183.752 142.148 169.373 125.935C155.844 137.183 137.677 142.691 120.206 140.829C102.657 138.967 86.1134 129.736 75.2131 115.85C63.3079 121.668 49.3154 125.082 36.869 120.505C24.4226 116.005 15.3004 101.189 20.48 89.0096C20.9438 99.5597 31.8441 108.17 42.0486 110.963C52.2531 113.833 63.1533 112.049 73.4351 109.644C71.1932 103.361 70.7294 96.4567 71.9663 89.9405C79.9289 101.034 89.4376 111.894 102.193 116.393C109.769 119.108 117.964 119.419 126.004 119.496C135.822 119.574 145.794 119.419 155.226 116.548C164.58 113.678 173.47 107.627 177.644 98.7064C171.383 112.049 190.555 129.581 199.677 136.097C208.876 142.691 219.313 147.423 229.672 152" fill="#DFF2FD"/>
<path d="M28.9002 220.07C32.0002 219.67 35.0002 221.07 37.9002 221.87C42.0002 222.97 46.1002 222.97 50.3002 222.87C56.7002 222.77 61.0002 225.57 64.4002 229.97C64.5335 229.77 64.6668 229.637 64.8002 229.57C66.2002 228.17 67.4002 226.87 69.1002 225.87C72.4002 223.87 76.4002 223.37 80.2002 223.27C86.8002 223.07 95.5002 228.27 101.8 224.87C101.934 224.804 102.1 224.77 102.3 224.77C97.6002 231.07 88.5002 228.37 81.6002 229.37C80.5335 229.57 79.4669 229.804 78.4002 230.07C77.4002 230.27 76.3002 230.57 75.3002 230.97C74.0002 231.47 73.0002 232.27 72.0002 233.27C69.9002 234.57 68.0002 236.27 66.1002 238.07C64.4002 238.77 62.0002 237.77 61.1002 236.17C60.9002 235.57 60.6335 235.004 60.3002 234.47C58.9002 231.77 57.3002 229.47 54.0002 228.77C53.2002 228.57 52.4002 228.47 51.7002 228.47C50.4002 228.07 49.2002 227.77 48.0002 227.57C41.1002 226.17 33.3002 225.47 28.7002 220.17C28.7669 220.17 28.8335 220.137 28.9002 220.07Z" fill="#281203"/>
<path d="M0.0999756 251.27C1.69998 251.17 3.19998 251.97 4.59998 252.47C6.69998 253.07 8.8 253.17 11 253.27C14.2 253.37 16.4 254.97 18 257.27C18.0667 257.204 18.1333 257.137 18.2 257.07C18.9 256.37 19.6 255.77 20.5 255.27C22.2 254.37 24.3 254.17 26.2 254.27C29.6 254.27 33.9 257.17 37.2 255.67C37.2667 255.604 37.3334 255.57 37.4 255.57C34.9 258.67 30.3 257.07 26.8 257.37C26.2 257.47 25.7 257.57 25.1 257.67C24.5666 257.737 24.0333 257.87 23.5 258.07C22.8333 258.27 22.2333 258.637 21.7 259.17C20.7 259.77 19.6 260.57 18.6 261.47C17.7 261.77 16.6 261.17 16.1 260.37C16 259.97 15.9 259.77 15.7 259.47C15.1 258.07 14.3 256.87 12.7 256.37C12.3 256.237 11.9 256.17 11.5 256.17C10.9 255.97 10.2666 255.77 9.59998 255.57C6.09998 254.77 2.2 254.17 0 251.37L0.0999756 251.27Z" fill="#281203"/>
</svg>
