<svg width="103" height="42" viewBox="0 0 103 42" fill="none" xmlns="http://www.w3.org/2000/svg">
<path d="M28.9002 0.0703906C32.0002 -0.329609 35.0002 1.07039 37.9002 1.87039C42.0002 2.97039 46.1002 2.97039 50.3002 2.87039C56.7002 2.77039 61.0002 5.57039 64.4002 9.97039C64.5335 9.77039 64.6668 9.63706 64.8002 9.57039C66.2002 8.17039 67.4002 6.87039 69.1002 5.87039C72.4002 3.87039 76.4002 3.37039 80.2002 3.27039C86.8002 3.07039 95.5002 8.27039 101.8 4.87039C101.934 4.80372 102.1 4.77039 102.3 4.77039C97.6002 11.0704 88.5002 8.37039 81.6002 9.37039C80.5335 9.57039 79.4669 9.80372 78.4002 10.0704C77.4002 10.2704 76.3002 10.5704 75.3002 10.9704C74.0002 11.4704 73.0002 12.2704 72.0002 13.2704C69.9002 14.5704 68.0002 16.2704 66.1002 18.0704C64.4002 18.7704 62.0002 17.7704 61.1002 16.1704C60.9002 15.5704 60.6335 15.0037 60.3002 14.4704C58.9002 11.7704 57.3002 9.47039 54.0002 8.77039C53.2002 8.57039 52.4002 8.47039 51.7002 8.47039C50.4002 8.07039 49.2002 7.77039 48.0002 7.57039C41.1002 6.17039 33.3002 5.47039 28.7002 0.170389C28.7669 0.170389 28.8335 0.137057 28.9002 0.0703906Z" fill="#281203"/>
<path d="M0.0999756 31.2704C1.69998 31.1704 3.19998 31.9704 4.59998 32.4704C6.69998 33.0704 8.8 33.1704 11 33.2704C14.2 33.3704 16.4 34.9704 18 37.2704C18.0667 37.2037 18.1333 37.137 18.2 37.0704C18.9 36.3704 19.6 35.7704 20.5 35.2704C22.2 34.3704 24.3 34.1704 26.2 34.2704C29.6 34.2704 33.9 37.1704 37.2 35.6704C37.2667 35.6037 37.3334 35.5704 37.4 35.5704C34.9 38.6704 30.3 37.0704 26.8 37.3704C26.2 37.4704 25.7 37.5704 25.1 37.6704C24.5666 37.7371 24.0333 37.8704 23.5 38.0704C22.8333 38.2704 22.2333 38.6371 21.7 39.1704C20.7 39.7704 19.6 40.5704 18.6 41.4704C17.7 41.7704 16.6 41.1704 16.1 40.3704C16 39.9704 15.9 39.7704 15.7 39.4704C15.1 38.0704 14.3 36.8704 12.7 36.3704C12.3 36.2371 11.9 36.1704 11.5 36.1704C10.9 35.9704 10.2666 35.7704 9.59998 35.5704C6.09998 34.7704 2.2 34.1704 0 31.3704L0.0999756 31.2704Z" fill="#281203"/>
</svg>
