<svg width="60" height="60" viewBox="0 0 60 60" fill="none" xmlns="http://www.w3.org/2000/svg">
<path d="M30 4C23.1044 4 16.4912 6.73928 11.6152 11.6152C6.73928 16.4912 4 23.1044 4 30C4 36.8956 6.73928 43.5088 11.6152 48.3848C16.4912 53.2607 23.1044 56 30 56C36.8956 56 43.5088 53.2607 48.3848 48.3848C53.2607 43.5088 56 36.8956 56 30C56 23.1044 53.2607 16.4912 48.3848 11.6152C43.5088 6.73928 36.8956 4 30 4Z" fill="#29B6F6" stroke="white" stroke-width="2"/>
<path d="M42.4375 18.75L37.755 42.6575C37.755 42.6575 37.5537 43.75 36.1987 43.75C35.4788 43.75 35.1075 43.4075 35.1075 43.4075L24.965 34.9913L20.0025 32.49L13.6337 30.7963C13.6337 30.7963 12.5 30.4688 12.5 29.5313C12.5 28.75 13.6662 28.3775 13.6662 28.3775L40.3113 17.7925C40.3113 17.7925 41.125 17.4988 41.7188 17.5C42.0837 17.5 42.5 17.6563 42.5 18.125C42.5 18.4375 42.4375 18.75 42.4375 18.75Z" fill="white"/>
<path d="M28.75 38.1313L24.4675 42.3488C24.4675 42.3488 24.2813 42.4925 24.0325 42.4988C23.9463 42.5013 23.8538 42.4875 23.7588 42.445L24.9638 34.9888L28.75 38.1313Z" fill="#B0BEC5"/>
<path d="M37.3713 22.745C37.16 22.47 36.77 22.42 36.495 22.6287L20 32.5C20 32.5 22.6325 39.865 23.0338 41.14C23.4362 42.4162 23.7587 42.4462 23.7587 42.4462L24.9638 34.99L37.2537 23.62C37.5287 23.4112 37.58 23.02 37.3713 22.745Z" fill="#CFD8DC"/>
</svg>
