<svg width="103" height="42" viewBox="0 0 103 42" fill="none" xmlns="http://www.w3.org/2000/svg">
<path opacity="0.5" d="M73.3996 0.0703906C70.2996 -0.329609 67.2996 1.07039 64.3996 1.87039C60.2996 2.97039 56.1996 2.97039 51.9996 2.87039C45.5996 2.77039 41.2996 5.57039 37.8996 9.97039C37.7663 9.77039 37.633 9.63706 37.4996 9.57039C36.0996 8.17039 34.8996 6.87039 33.1996 5.87039C29.8996 3.87039 25.8996 3.37039 22.0996 3.27039C15.4996 3.07039 6.79964 8.27039 0.499634 4.87039C0.366302 4.80372 0.199631 4.77039 -0.000366211 4.77039C4.69963 11.0704 13.7996 8.37039 20.6996 9.37039C21.7663 9.57039 22.8329 9.80372 23.8996 10.0704C24.8996 10.2704 25.9996 10.5704 26.9996 10.9704C28.2996 11.4704 29.2996 12.2704 30.2996 13.2704C32.3996 14.5704 34.2996 16.2704 36.1996 18.0704C37.8996 18.7704 40.2996 17.7704 41.1996 16.1704C41.3996 15.5704 41.6663 15.0037 41.9996 14.4704C43.3996 11.7704 44.9996 9.47039 48.2996 8.77039C49.0996 8.57039 49.8996 8.47039 50.5996 8.47039C51.8996 8.07039 53.0996 7.77039 54.2996 7.57039C61.1996 6.17039 68.9996 5.47039 73.5996 0.170389C73.5329 0.170389 73.4663 0.137057 73.3996 0.0703906Z" fill="#281203"/>
<path opacity="0.5" d="M102.201 31.2703C100.601 31.1703 99.1008 31.9703 97.7008 32.4703C95.6008 33.0703 93.5008 33.1703 91.3008 33.2703C88.1008 33.3703 85.9008 34.9703 84.3008 37.2703C84.2341 37.2036 84.1674 37.1369 84.1008 37.0703C83.4008 36.3703 82.7008 35.7703 81.8008 35.2703C80.1008 34.3703 78.0008 34.1703 76.1008 34.2703C72.7008 34.2703 68.4008 37.1703 65.1008 35.6703C65.0341 35.6036 64.9674 35.5703 64.9008 35.5703C67.4008 38.6703 72.0008 37.0703 75.5008 37.3703C76.1008 37.4703 76.6008 37.5703 77.2008 37.6703C77.7341 37.7369 78.2674 37.8703 78.8008 38.0703C79.4674 38.2703 80.0674 38.6369 80.6008 39.1703C81.6008 39.7703 82.7008 40.5703 83.7008 41.4703C84.6008 41.7703 85.7008 41.1703 86.2008 40.3703C86.3008 39.9703 86.4008 39.7703 86.6008 39.4703C87.2008 38.0703 88.0008 36.8703 89.6008 36.3703C90.0008 36.2369 90.4008 36.1703 90.8008 36.1703C91.4008 35.9703 92.0341 35.7703 92.7008 35.5703C96.2008 34.7703 100.101 34.1703 102.301 31.3703L102.201 31.2703Z" fill="#281203"/>
</svg>
