<svg width="85" height="64" viewBox="0 0 85 64" fill="none" xmlns="http://www.w3.org/2000/svg">
<g opacity="0.5">
<path d="M12.9569 38.8144C12.9569 38.8144 4.92626 48.1234 4.35068 49.5628C3.92332 51.0306 5.79672 59.913 6.09314 59.9698C6.53777 60.055 9.86298 61.1572 9.33258 64L4.68211 63.4188L3.23866 61.2825L0.153597 49.8433L7.26659 29.8205L13.934 33.5776L12.9569 38.8144Z" fill="#281203"/>
<path d="M49.3305 37.7942C50.2005 38.8908 50.7181 40.2297 51.2358 41.5687C51.8832 43.0358 52.4905 44.4437 53.0576 45.7921C53.2424 46.4474 53.5753 47.1311 53.4637 47.7296C53.352 48.3281 53.12 48.7485 52.8601 49.3186C51.4963 51.6917 47.3789 56.4817 49.3036 59.33C49.9051 60.2202 51.4795 60.8318 51.2841 61.8791C49.6345 62.4928 47.6799 62.2733 45.9851 61.4836C45.6887 61.4268 45.5686 61.2488 45.4483 61.0707C45.0595 60.6863 45.1989 59.9382 45.4309 59.5177C46.5577 56.2209 47.6351 52.9148 48.6631 49.5991C49.0346 48.4305 49.4341 47.1123 49.361 45.8586C49.1031 43.9495 47.6961 42.4401 46.6135 40.8379C45.5588 39.086 44.8842 36.9421 45.9603 35.2887C47.4144 35.7223 48.4884 36.5481 49.3305 37.7942Z" fill="#281203"/>
<path d="M8.81898 12.4513C6.77282 14.642 4.776 16.8422 2.82864 19.0519C2.21652 19.8644 1.48416 20.4989 0.992335 21.4895C0.296465 22.7508 0.0172402 24.2471 0.0624179 25.6505C-0.0964453 27.3248 0.0132626 29.2054 0.799488 30.7508C2.18718 33.1863 5.45638 34.5876 5.84316 37.4512C5.8797 38.0781 5.83252 39.1539 6.54565 39.4455C7.23086 39.8868 8.11149 39.2807 8.25107 38.5326C8.39064 37.7845 7.9374 36.9228 7.42831 36.3603C6.34566 34.7581 4.88286 33.5479 3.59617 32.2166C2.30949 30.8852 1.22683 29.283 1.14511 27.2527C1.14713 24.7735 3.19619 22.8416 4.92089 21.0026C6.6456 19.1635 8.45401 16.8756 7.83528 14.4324" fill="#281203"/>
<path d="M84.8793 3.00634C84.6108 2.79992 84.3424 2.59353 83.7775 2.3303C81.8142 1.3342 78.2744 2.20559 75.9588 1.45192C74.829 0.925461 73.5509 0.370603 72.2536 0.741875C69.9833 1.3916 69.8696 4.46921 69.5711 6.89155C69.3179 10.7173 67.3227 14.8291 63.6992 16.1494C57.0729 18.7538 46.5261 11.9286 44.6785 5.37568C44.0319 3.08217 43.2563 -0.165866 40.9215 0.00659333C39.8562 -0.0425974 38.9197 0.862748 38.1315 1.79649C34.3298 5.71709 30.0065 13.2571 23.7172 11.5869C20.6606 10.6913 17.9111 8.14973 14.6591 8.3014C12.204 8.29584 9.9144 9.87167 8.4582 11.9172C5.39759 15.9798 3.94592 23.7601 5.98026 28.4891C8.80082 34.7635 10.8351 39.4926 10.7088 46.752C10.5778 48.2766 10.6231 49.68 10.9647 51.1402C11.7317 53.6117 13.8518 55.4128 15.1192 57.6703C15.8775 59.3653 16.0429 60.9467 16.0043 62.799C18.6105 63.0918 21.2138 63.1257 23.8142 62.9008C23.6487 61.3194 22.3899 59.8384 20.7596 59.526C20.315 59.4408 19.9908 59.5336 19.574 59.2988C19.3055 59.0924 19.1852 58.9143 19.0928 58.5867C17.6493 56.4504 14.3369 51.1665 14.8394 48.4733C14.979 47.7252 15.5911 46.9128 16.0271 46.2214C18.5744 42.9903 21.1218 39.7591 23.6691 36.528C25.9135 33.5487 31.1824 36.5731 34.0629 37.59C37.6564 38.8985 41.1126 38.476 44.9016 38.7371C45.9669 38.7863 47.0044 38.9851 47.782 39.754C49.3372 41.2918 49.6401 44.6043 50.639 46.6554C51.8506 49.2121 52.9978 51.2916 53.5048 54.3332C53.7684 56.7599 54.0414 59.1368 54.3236 61.4638C54.416 61.7914 54.4803 62.2687 54.7488 62.4751C55.0173 62.6816 55.3139 62.7384 55.6382 62.6456C57.3551 62.768 59.0318 62.831 60.6686 62.8347C61.2893 62.7987 61.9101 62.7627 62.1421 62.3422C62.402 61.7721 61.8929 61.2096 61.4762 60.9748C60.9113 60.7115 60.3183 60.5979 59.7255 60.4843C58.5677 60.1075 57.8182 59.189 57.4207 58.0281C56.9954 57.0167 56.9222 55.7629 56.8212 54.6587C55.8929 45.6475 54.3631 35.7462 56.9552 26.7897C57.2889 26.647 57.6718 26.5138 58.1043 26.39C60.3467 25.8899 62.6537 25.8671 64.924 25.2173C70.9661 23.2758 72.3511 17.4974 75.5427 11.9102C76.6466 10.1071 79.9911 10.283 81.7523 9.07084C82.605 8.61436 84.5981 6.98169 84.6088 5.27906C84.5915 3.72604 85.2681 3.39079 84.8793 3.00634Z" fill="#281203"/>
</g>
</svg>
