<svg width="60" height="60" viewBox="0 0 60 60" fill="none" xmlns="http://www.w3.org/2000/svg">
<circle cx="30" cy="30" r="26" fill="url(#paint0_linear_302_62)" stroke="white" stroke-width="2"/>
<path d="M45 21.8376C43.8977 22.3226 42.7123 22.6459 41.4614 22.7991C42.7329 22.0494 43.7115 20.8536 44.1706 19.4405C42.9809 20.1329 41.6626 20.6419 40.2604 20.9101C39.1403 19.7313 37.5426 19 35.773 19C32.3737 19 29.6176 21.7127 29.6176 25.0579C29.6176 25.5315 29.6738 25.9925 29.7783 26.44C24.6641 26.1852 20.1277 23.7704 17.093 20.1054C16.56 21.0012 16.2601 22.0494 16.2601 23.1562C16.2601 25.2591 17.3439 27.1106 18.997 28.2012C17.9878 28.1708 17.0383 27.892 16.2068 27.4445C16.2068 27.4628 16.2068 27.4896 16.2068 27.5158C16.2068 30.4544 18.3289 32.9016 21.1419 33.4586C20.628 33.5984 20.0843 33.676 19.5243 33.676C19.127 33.676 18.7397 33.6315 18.3644 33.5645C19.1476 35.9659 21.4197 37.7214 24.1119 37.7736C22.0054 39.3958 19.3523 40.3671 16.4676 40.3671C15.9694 40.3671 15.4819 40.3388 15 40.2809C17.7269 41.9955 20.9628 43 24.4367 43C35.7559 43 41.949 33.7678 41.949 25.7581C41.949 25.4955 41.9404 25.2344 41.9284 24.976C43.1366 24.1282 44.1777 23.0595 45 21.8376Z" fill="white"/>
<defs>
<linearGradient id="paint0_linear_302_62" x1="12.6376" y1="6.92941" x2="56.3992" y2="42.1775" gradientUnits="userSpaceOnUse">
<stop stop-color="#2AA4F4"/>
<stop offset="1" stop-color="#007AD9"/>
</linearGradient>
</defs>
</svg>
